<?xml version="1.0" encoding="utf-8"?>
<!-- Generator: Adobe Illustrator 18.0.0, SVG Export Plug-In . SVG Version: 6.00 Build 0)  -->
<!DOCTYPE svg PUBLIC "-//W3C//DTD SVG 1.1//EN" "http://www.w3.org/Graphics/SVG/1.1/DTD/svg11.dtd">
<svg version="1.1" xmlns="http://www.w3.org/2000/svg" xmlns:xlink="http://www.w3.org/1999/xlink" x="0px" y="0px" width="200px"
	 height="29.318px" viewBox="0 0 200 29.318" style="enable-background:new 0 0 200 29.318;" xml:space="preserve">
<style type="text/css">
	.st0{display:none;}
	.st1{display:inline;}
	.st2{fill:#ED2D27;}
	.st3{display:inline;fill:#F8B900;}
	.st4{display:inline;fill:#00235F;}
	.st5{fill:url(#SVGID_1_);}
	.st6{fill:#006CB6;}
	.st7{fill:url(#SVGID_2_);}
	.st8{fill:url(#SVGID_3_);}
	.st9{fill:url(#SVGID_4_);}
	.st10{fill:url(#SVGID_5_);}
	.st11{fill:url(#SVGID_6_);}
	.st12{fill-rule:evenodd;clip-rule:evenodd;fill:#FFFFFF;}
	.st13{fill-rule:evenodd;clip-rule:evenodd;fill:#E2231A;}
	.st14{fill:#FFFFFF;}
	.st15{fill-rule:evenodd;clip-rule:evenodd;fill:#001689;}
	.st16{fill:#00529B;}
	.st17{fill:#F47920;}
	.st18{fill:url(#SVGID_7_);}
	.st19{fill:url(#SVGID_8_);}
	.st20{fill:url(#SVGID_9_);}
	.st21{fill:url(#SVGID_10_);}
	.st22{fill:url(#SVGID_11_);}
	.st23{fill:url(#SVGID_12_);}
	.st24{fill:url(#SVGID_13_);}
	.st25{fill:#00054C;}
	.st26{fill:url(#path3364_3_);}
	.st27{fill:url(#path3366_3_);}
	.st28{fill:#22356B;}
	.st29{fill:#FCC210;}
	.st30{fill:#ED1C24;}
	.st31{display:inline;fill:url(#SVGID_14_);}
	.st32{fill:#002157;}
	.st33{fill:#CC2234;}
	.st34{fill:#E23546;}
	.st35{fill:#FCB130;}
	.st36{fill:#1D4886;}
	.st37{display:inline;fill:none;}
	.st38{display:inline;fill:#005DAA;}
	.st39{fill:#005DAA;}
	.st40{fill:#00A1E4;}
	.st41{fill:#00704A;}
	.st42{fill:#B10D28;}
	.st43{fill:#D31245;}
	.st44{fill:url(#path70_3_);}
	.st45{fill:url(#SVGID_15_);}
	.st46{fill:url(#SVGID_16_);}
	.st47{fill:#231916;}
	.st48{fill:#E60013;}
	.st49{fill:#C0231E;}
	.st50{fill:#014E84;}
	.st51{fill:#BA783E;}
	.st52{fill:#002052;}
	.st53{fill:#0093D0;}
	.st54{fill:#ED1B2F;}
	.st55{fill:#E3242B;}
	.st56{fill-rule:evenodd;clip-rule:evenodd;fill:#034EA2;}
	.st57{fill-rule:evenodd;clip-rule:evenodd;fill:#E11837;}
	.st58{fill:#034EA2;}
	.st59{opacity:0.8902;fill:#EB151C;}
	.st60{fill:#1A1A1A;}
	.st61{enable-background:new    ;}
	.st62{fill:#FF6600;}
	.st63{clip-path:url(#SVGID_18_);fill:url(#SVGID_19_);}
	.st64{fill:url(#SVGID_20_);}
	.st65{fill:#B2DB1F;}
	.st66{fill:#FA002C;}
	.st67{fill:#1C2D5B;}
	.st68{fill:#1C4E9D;}
	.st69{fill:#ED192D;}
	.st70{display:inline;fill:#FFFFFF;}
	.st71{display:inline;fill:#00529B;}
	.st72{display:inline;fill:#F47920;}
	.st73{display:inline;fill:url(#SVGID_21_);}
	.st74{display:inline;fill:url(#SVGID_22_);}
	.st75{display:inline;fill:url(#SVGID_23_);}
	.st76{display:inline;fill:url(#SVGID_24_);}
	.st77{display:inline;fill:url(#SVGID_25_);}
	.st78{display:inline;fill:url(#SVGID_26_);}
	.st79{display:inline;fill:url(#SVGID_27_);}
	.st80{display:inline;fill:url(#path3364_4_);}
	.st81{display:inline;fill:url(#path3366_4_);}
	.st82{display:inline;fill:url(#SVGID_28_);}
	.st83{display:inline;fill:url(#SVGID_29_);}
	.st84{display:inline;fill:url(#SVGID_30_);}
	.st85{display:inline;opacity:0.75;fill:#FFFFFF;}
	.st86{display:inline;fill:#ED1B2F;}
	.st87{opacity:0.8902;fill:#FFFFFF;}
	.st88{clip-path:url(#SVGID_32_);fill:#FFFFFF;}
	.st89{fill:url(#SVGID_33_);}
	.st90{fill:url(#SVGID_34_);}
	.st91{fill:url(#SVGID_35_);}
	.st92{fill:url(#SVGID_36_);}
	.st93{fill:url(#SVGID_37_);}
	.st94{fill:url(#SVGID_38_);}
	.st95{fill:url(#SVGID_39_);}
	.st96{fill:url(#SVGID_40_);}
	.st97{clip-path:url(#SVGID_42_);fill:url(#SVGID_43_);}
	.st98{fill:url(#SVGID_44_);}
	.st99{fill:url(#path70_5_);}
	.st100{fill:url(#SVGID_45_);}
	.st101{fill:url(#SVGID_46_);}
	.st102{fill:#F8B900;}
	.st103{fill:#00235F;}
	.st104{fill:url(#SVGID_47_);}
	.st105{fill:url(#SVGID_48_);}
	.st106{fill:url(#SVGID_49_);}
	.st107{fill:url(#SVGID_50_);}
	.st108{fill:url(#SVGID_51_);}
	.st109{fill:url(#SVGID_52_);}
	.st110{opacity:0.8902;fill:#EB151C;enable-background:new    ;}
	.st111{fill:#E11837;}
	.st112{fill:#E2231A;}
	.st113{fill:#001689;}
	.st114{fill:#EF3E34;}
	.st115{fill:#4D82C4;}
	.st116{fill:#8C7035;}
	.st117{fill:#5FBA45;}
	.st118{fill:#008F7E;}
	.st119{fill:#004595;}
	.st120{fill:#FFED00;}
	.st121{fill:#E53138;}
	.st122{fill:url(#SVGID_53_);}
	.st123{fill:url(#SVGID_54_);}
	.st124{fill:url(#SVGID_55_);}
	.st125{fill:url(#SVGID_56_);}
	.st126{fill:#11185E;}
	.st127{fill:#EE3024;}
	.st128{fill:#0675CC;}
	.st129{fill:#E2001A;}
	.st130{fill:#009036;}
	.st131{fill:#0B1560;}
	.st132{fill:#0070AF;}
	.st133{fill:#0F2C64;}
	.st134{fill:#EF001E;}
	.st135{fill:#1C2A8D;}
	.st136{fill:#334357;}
	.st137{fill:url(#SVGID_57_);}
	.st138{fill:#ED1B28;}
	.st139{fill:#1E5AAF;}
	.st140{fill:#991933;}
	.st141{fill:#E01933;}
	.st142{fill:#003366;}
	.st143{fill:#00265D;}
	.st144{fill:#003263;}
	.st145{fill:#EE452A;}
	.st146{fill:#011F65;}
	.st147{fill:#EC2227;}
	.st148{fill:#010101;}
	.st149{fill:#FCEE21;}
	.st150{fill:#18488B;}
	.st151{fill:#EC2427;}
	.st152{fill:#D09B2B;}
	.st153{fill:#156192;}
	.st154{fill:#021A31;}
	.st155{fill:#008E8F;}
	.st156{fill:#2B438F;}
	.st157{fill:#363F9E;}
	.st158{fill:#00ABBF;}
</style>
<g id="Layer_1" class="st0">
</g>
<g id="Layer_2" class="st0">
</g>
<g id="Layer_3">
	<g>
		<path class="st143" d="M162.208,19.669c0.792-1.737,3.103-7.123,5.184-12.032l-16.067,0.004c-2.03-0.095-3.119,0.986-3.806,2.511
			c-0.782,1.731-3.075,7.111-5.168,12.026l-3.018,7.083h2.938c2.051,0.026,3.109-0.978,3.8-2.503
			c0.386-0.838,1.127-2.535,2.03-4.608h2.84l4.786,7.113h7.687l-5.002-7.087C160.44,22.267,161.515,21.187,162.208,19.669z
			 M156.937,16.651h-6.38l1.402-3.273c0.109-0.257,0.398-0.475,0.646-0.475h7.026l-1.139,2.614
			C158.214,16.134,157.537,16.651,156.937,16.651z"/>
	</g>
	<g>
		<path class="st143" d="M77.384,7.641c-2.038-0.059-3.093,0.986-3.79,2.511l-8.158,19.113h2.96
			c2.059,0.036,3.099-0.982,3.796-2.507c0.382-0.838,1.107-2.535,2.002-4.608l10.333,0.026c2.089,0,3.093-0.99,3.786-2.507
			c0.788-1.738,3.077-7.123,5.154-12.032L77.384,7.641z M84.38,15.518c-0.273,0.616-0.938,1.133-1.556,1.133h-6.289l1.388-3.275
			c0.109-0.252,0.404-0.475,0.651-0.475h6.941L84.38,15.518z"/>
	</g>
	<g>
		<path class="st143" d="M196.099,4.962c-4.21-0.606-6.547,2.792-6.491,2.737c0.65-0.489,1.188-0.903,1.719-1.232
			c0.794,0.941,1.953,1.277,2.695,0.735c0.465-0.341,0.636-0.961,0.535-1.638c0.44,0.067,0.869,0.2,1.38,0.406
			C196.19,6.055,196.491,4.999,196.099,4.962z"/>
		<path class="st143" d="M200,4.641c-7.01-5.643-16.364-5.665-23.618-2.604c-1.64,1.788-2.903,3.941-3.628,6.317
			C182.596,0.013,195.602,2.399,200,4.641z"/>
		<path class="st143" d="M193.083,3.946c-8.065-1.687-15.747,1.748-20.881,6.966c-0.242,1.736-0.188,3.505,0.131,5.22
			C178.087,6.98,188.669,3.956,193.083,3.946z"/>
		<path class="st143" d="M189.875,5.318c-7.915,1.226-13.804,6.858-16.859,13.325c0.505,1.402,1.21,2.719,2.063,3.915
			C177.725,12.845,185.935,6.803,189.875,5.318z"/>
		<path class="st143" d="M188.669,6.881c-6.679,3.709-10.854,10.855-11.909,17.691c0.986,0.994,2.085,1.873,3.301,2.59
			c0.172-7.733,4.038-13.863,7.931-17.81C187.951,8.451,188.178,7.605,188.669,6.881z"/>
		<path class="st143" d="M189.341,12.716c-0.62-0.812-1.004-1.622-1.206-2.412c-3.642,4.505-5.649,11.853-5.693,18.041
			c1.206,0.464,2.479,0.792,3.796,0.974c-0.953-14.497,7.81-21.315,13.44-23.453C195.55,6.926,192.224,9.324,189.341,12.716z"/>
		<path class="st143" d="M46.135,16.578l3.836-8.945H33.891c-2.03-0.042-3.105,0.978-3.802,2.517l-8.178,19.095l16.057,0.02
			c2.024,0.107,3.109-0.982,3.8-2.507l3.566-8.291v-0.012h-8.915l-1.59,3.733h3.368l-0.263,0.628
			c-0.259,0.642-0.949,1.121-1.556,1.121h-6.406l4.533-10.562c0.093-0.257,0.388-0.475,0.634-0.475h7.022l-1.564,3.677H46.135z"/>
		<path class="st143" d="M10.784,17.494h7.455l2.315-5.406h-7.44l2.634-6.141c0.113-0.257,0.404-0.475,0.657-0.475h12.655
			l2.327-5.43L15.283,0.069c-2.049-0.057-3.109,0.996-3.824,2.542c-0.275,0.58-0.713,1.592-1.257,2.865L0,29.265h16.192
			c2.047,0.012,3.115-1.004,3.818-2.543c0.263-0.58,0.721-1.6,1.261-2.863L8.067,23.819L10.784,17.494z"/>
		<path class="st143" d="M64.982,10.152c-0.816,1.774-1.529,3.566-2.261,5.366c-0.249,0.626-0.945,1.133-1.552,1.133l-6.384-0.008
			l3.812-9.012l-2.943,0.01c-2.024-0.095-3.093,0.986-3.796,2.511c-0.778,1.731-3.065,7.111-5.16,12.028h6.582l-3.042,7.099
			l2.958-0.012c2.028,0.107,3.109-0.982,3.796-2.507c0.372-0.838,1.111-2.505,2.004-4.584h3.77c2.024,0.091,3.099-0.99,3.79-2.507
			c0.788-1.737,3.075-7.123,5.16-12.032l-2.953,0.004C66.723,7.593,65.669,8.627,64.982,10.152z"/>
		<path class="st143" d="M138.869,10.152c-0.798,1.731-3.093,7.111-5.178,12.028l-3.03,7.083l2.974,0.004
			c2.034,0.107,3.105-0.982,3.792-2.507l8.208-19.123l-2.97,0.004C140.63,7.548,139.556,8.627,138.869,10.152z"/>
		<path class="st143" d="M95.349,10.154l-1.168,2.77l6.513-0.02l-6.982,16.354l2.98,0.01c2.018,0.107,3.087-0.982,3.78-2.507
			c0.762-1.687,2.941-6.838,4.976-11.645c0.061-0.129,0.881-2.083,0.945-2.212h6.546l2.222-5.257l-16.016-0.01
			C97.105,7.548,96.036,8.629,95.349,10.154z"/>
	</g>
	<g>
		<path class="st143" d="M120.903,7.641c-2.137-0.01-3.105,0.986-3.792,2.511c-0.796,1.731-3.089,7.111-5.182,12.028l-3.008,7.083
			l2.871,0.004c2.101,0.107,3.166-0.982,3.867-2.507c0.378-0.838,1.111-2.515,2.01-4.584h7.333l-2.933,7.089h2.877
			c2.034,0.107,3.115-0.982,3.802-2.507l8.182-19.117H120.903z M127.834,15.518c-0.263,0.616-0.953,1.133-1.556,1.133h-6.269
			l1.406-3.273c0.105-0.257,0.394-0.475,0.644-0.475h6.901L127.834,15.518z"/>
	</g>
</g>
<g id="Layer_4">
</g>
</svg>
