<?xml version="1.0" encoding="utf-8"?>
<!-- Generator: Adobe Illustrator 18.0.0, SVG Export Plug-In . SVG Version: 6.00 Build 0)  -->
<!DOCTYPE svg PUBLIC "-//W3C//DTD SVG 1.1//EN" "http://www.w3.org/Graphics/SVG/1.1/DTD/svg11.dtd">
<svg version="1.1" xmlns="http://www.w3.org/2000/svg" xmlns:xlink="http://www.w3.org/1999/xlink" x="0px" y="0px"
	 width="72.599px" height="50px" viewBox="0 0 72.599 50" style="enable-background:new 0 0 72.599 50;" xml:space="preserve">
<style type="text/css">
	.st0{display:none;}
	.st1{display:inline;}
	.st2{fill:#ED2D27;}
	.st3{display:inline;fill:#F8B900;}
	.st4{display:inline;fill:#00235F;}
	.st5{fill:url(#SVGID_1_);}
	.st6{fill:#006CB6;}
	.st7{fill:url(#SVGID_2_);}
	.st8{fill:url(#SVGID_3_);}
	.st9{fill:url(#SVGID_4_);}
	.st10{fill:url(#SVGID_5_);}
	.st11{fill:url(#SVGID_6_);}
	.st12{fill-rule:evenodd;clip-rule:evenodd;fill:#FFFFFF;}
	.st13{fill-rule:evenodd;clip-rule:evenodd;fill:#E2231A;}
	.st14{fill:#FFFFFF;}
	.st15{fill-rule:evenodd;clip-rule:evenodd;fill:#001689;}
	.st16{fill:#00529B;}
	.st17{fill:#F47920;}
	.st18{fill:url(#SVGID_7_);}
	.st19{fill:url(#SVGID_8_);}
	.st20{fill:url(#SVGID_9_);}
	.st21{fill:url(#SVGID_10_);}
	.st22{fill:url(#SVGID_11_);}
	.st23{fill:url(#SVGID_12_);}
	.st24{fill:url(#SVGID_13_);}
	.st25{fill:#00054C;}
	.st26{fill:url(#path3364_3_);}
	.st27{fill:url(#path3366_3_);}
	.st28{fill:#22356B;}
	.st29{fill:#FCC210;}
	.st30{fill:#ED1C24;}
	.st31{display:inline;fill:url(#SVGID_14_);}
	.st32{fill:#002157;}
	.st33{fill:#CC2234;}
	.st34{fill:#E23546;}
	.st35{fill:#FCB130;}
	.st36{fill:#1D4886;}
	.st37{display:inline;fill:none;}
	.st38{display:inline;fill:#005DAA;}
	.st39{fill:#005DAA;}
	.st40{fill:#00A1E4;}
	.st41{fill:#00704A;}
	.st42{fill:#B10D28;}
	.st43{fill:#D31245;}
	.st44{fill:url(#path70_3_);}
	.st45{fill:url(#SVGID_15_);}
	.st46{fill:url(#SVGID_16_);}
	.st47{fill:#231916;}
	.st48{fill:#E60013;}
	.st49{fill:#C0231E;}
	.st50{fill:#014E84;}
	.st51{fill:#BA783E;}
	.st52{fill:#002052;}
	.st53{fill:#0093D0;}
	.st54{fill:#ED1B2F;}
	.st55{fill:#E3242B;}
	.st56{fill-rule:evenodd;clip-rule:evenodd;fill:#034EA2;}
	.st57{fill-rule:evenodd;clip-rule:evenodd;fill:#E11837;}
	.st58{fill:#034EA2;}
	.st59{opacity:0.8902;fill:#EB151C;}
	.st60{fill:#1A1A1A;}
	.st61{enable-background:new    ;}
	.st62{fill:#FF6600;}
	.st63{clip-path:url(#SVGID_18_);fill:url(#SVGID_19_);}
	.st64{fill:url(#SVGID_20_);}
	.st65{fill:#B2DB1F;}
	.st66{fill:#FA002C;}
	.st67{fill:#1C2D5B;}
	.st68{fill:#1C4E9D;}
	.st69{fill:#ED192D;}
	.st70{display:inline;fill:#FFFFFF;}
	.st71{display:inline;fill:#00529B;}
	.st72{display:inline;fill:#F47920;}
	.st73{display:inline;fill:url(#SVGID_21_);}
	.st74{display:inline;fill:url(#SVGID_22_);}
	.st75{display:inline;fill:url(#SVGID_23_);}
	.st76{display:inline;fill:url(#SVGID_24_);}
	.st77{display:inline;fill:url(#SVGID_25_);}
	.st78{display:inline;fill:url(#SVGID_26_);}
	.st79{display:inline;fill:url(#SVGID_27_);}
	.st80{display:inline;fill:url(#path3364_4_);}
	.st81{display:inline;fill:url(#path3366_4_);}
	.st82{display:inline;fill:url(#SVGID_28_);}
	.st83{display:inline;fill:url(#SVGID_29_);}
	.st84{display:inline;fill:url(#SVGID_30_);}
	.st85{display:inline;opacity:0.75;fill:#FFFFFF;}
	.st86{display:inline;fill:#ED1B2F;}
	.st87{opacity:0.8902;fill:#FFFFFF;}
	.st88{clip-path:url(#SVGID_32_);fill:#FFFFFF;}
	.st89{fill:url(#SVGID_33_);}
	.st90{fill:url(#SVGID_34_);}
	.st91{fill:url(#SVGID_35_);}
	.st92{fill:url(#SVGID_36_);}
	.st93{fill:url(#SVGID_37_);}
	.st94{fill:url(#SVGID_38_);}
	.st95{fill:url(#SVGID_39_);}
	.st96{fill:url(#SVGID_40_);}
	.st97{clip-path:url(#SVGID_42_);fill:url(#SVGID_43_);}
	.st98{fill:url(#SVGID_44_);}
	.st99{fill:url(#path70_5_);}
	.st100{fill:url(#SVGID_45_);}
	.st101{fill:url(#SVGID_46_);}
	.st102{fill:#F8B900;}
	.st103{fill:#00235F;}
	.st104{fill:url(#SVGID_47_);}
	.st105{fill:url(#SVGID_48_);}
	.st106{fill:url(#SVGID_49_);}
	.st107{fill:url(#SVGID_50_);}
	.st108{fill:url(#SVGID_51_);}
	.st109{fill:url(#SVGID_52_);}
	.st110{opacity:0.8902;fill:#EB151C;enable-background:new    ;}
	.st111{fill:#E11837;}
	.st112{fill:#E2231A;}
	.st113{fill:#001689;}
	.st114{fill:#EF3E34;}
	.st115{fill:#4D82C4;}
	.st116{fill:#8C7035;}
	.st117{fill:#5FBA45;}
	.st118{fill:#008F7E;}
	.st119{fill:#004595;}
	.st120{fill:#FFED00;}
	.st121{fill:#E53138;}
	.st122{fill:url(#SVGID_53_);}
	.st123{fill:url(#SVGID_54_);}
	.st124{fill:url(#SVGID_55_);}
	.st125{fill:url(#SVGID_56_);}
	.st126{fill:#11185E;}
	.st127{fill:#EE3024;}
	.st128{fill:#0675CC;}
	.st129{fill:#E2001A;}
	.st130{fill:#009036;}
	.st131{fill:#0B1560;}
	.st132{fill:#0070AF;}
	.st133{fill:#0F2C64;}
	.st134{fill:#EF001E;}
	.st135{fill:#1C2A8D;}
	.st136{fill:#334357;}
	.st137{fill:url(#SVGID_57_);}
	.st138{fill:#ED1B28;}
	.st139{fill:#1E5AAF;}
	.st140{fill:#991933;}
	.st141{fill:#E01933;}
	.st142{fill:#003366;}
	.st143{fill:#00265D;}
	.st144{fill:#003263;}
	.st145{fill:#EE452A;}
	.st146{fill:#011F65;}
	.st147{fill:#EC2227;}
	.st148{fill:#010101;}
	.st149{fill:#FCEE21;}
	.st150{fill:#18488B;}
	.st151{fill:#EC2427;}
	.st152{fill:#D09B2B;}
	.st153{fill:#156192;}
	.st154{fill:#021A31;}
	.st155{fill:#008E8F;}
	.st156{fill:#2B438F;}
	.st157{fill:#363F9E;}
	.st158{fill:#00ABBF;}
</style>
<g id="Layer_1" class="st0">
</g>
<g id="Layer_2" class="st0">
</g>
<g id="Layer_3">
	<g>
		<g>
			<path class="st34" d="M40.793,2.918C40.4,3.292,39.862,4.26,39.862,5.617c0,0.326,0,8.103,0,8.381
				c0,0.695-0.257,1.358-0.671,1.733c-0.218,0.2-1.584,1.439-1.668,1.505h0.788c0.239-0.227,2.723-2.417,2.982-2.714
				c0.337-0.386,1.143-1.359,1.143-2.888c0-0.359,0.006-7.729,0.006-8.054c0-1.208,0.559-1.878,0.852-2.202
				c0.297-0.331,1.24-1.146,1.481-1.361l-0.779-0.008C43.772,0.217,41.063,2.663,40.793,2.918"/>
			<path class="st34" d="M34.642,33.429l3.042,2.658h2.039c2.07,0,3.962-0.888,5.213-2.138c1.25-1.25,1.711-2.928,1.711-4.499
				c0-1.143,0-4.149,0-4.357c0-1.464-0.918-2.317-1.175-2.572c-0.139-0.138-1.026-0.975-1.026-0.975v3.345
				c0,0,0.976,1.006,1.168,1.21c0.905,0.961,0.895,2.706-1.962,5.491c-0.502,0.488-1.93,1.836-3.894,1.836
				C39.477,33.429,34.642,33.429,34.642,33.429"/>
			<path class="st34" d="M47.019,17.985c0,0,0.873,1.002,1.217,1.271c1.151,0.906,1.656-0.129,0.915-1.313
				C48.976,17.658,48.26,17.183,47.019,17.985 M43.104,15.549c-0.34,0.358-0.663,1.235-0.663,2.008c0,0.43,0,1.651,0,1.651
				s1.342,0,1.67,0c0.652,0,1.24-0.484,1.697-0.906c0.012-0.021,0-1.638,0-1.638s0.429,0.492,0.81,0.889
				c0.561-0.512,2.007-2.024,3.058-2.024c2.13,0,1.647,2.669,0.776,3.527c-0.281,0.278-1.538,1.43-1.927,1.8
				c-1.004,0.958-2.727,0.5-2.727-1.973c0,0-1.846,1.753-2.126,1.984c-0.282,0.233-1.231,1.242-1.231,1.242s0,3.929,0,4.347
				c0,2.086-0.633,2.837-1.256,3.413c-0.276,0.255-2.518,2.289-2.922,2.645h-0.795c0,0,1.444-1.26,1.717-1.546
				c0.314-0.322,0.677-0.985,0.677-2.086c0-0.278-0.034-6.831-0.034-6.831s-10.213,0-10.678,0c-3.715,0-4.508-4.121-4.531-5.223
				c-0.006-0.326,0-3.617,0-4.129c0-0.679-0.433-1.82-1.126-2.173h1.047c0.122,0.052,0.78,0.318,0.78,2.844
				c0,0-0.044,2.941-0.044,3.098c0,1.281,1.018,2.751,2.491,2.751c0.301,0,12.085-0.012,12.085-0.012
				c0.011-0.325,0.339-1.559,0.919-2.209c0.327-0.369,2.921-2.74,3.216-2.969l0.767-0.008
				C44.641,14.128,43.382,15.253,43.104,15.549z"/>
			<path class="st34" d="M34.112,25.81c0,0.582-1.862,2.133-1.971,2.242c-0.135-0.628-0.605-1.322-1.994-2.712l2.039-2.04
				C33.553,24.666,34.112,24.958,34.112,25.81"/>
			<path class="st34" d="M30.543,13.809c-0.557,0.585-0.656,0.732-1.179,1.045c0.048,0,6.182,0,6.383,0
				c1.731,0,1.385-1.073,1.073-1.615c-0.633-1.111-2.641-3.173-2.641-3.173S30.66,13.687,30.543,13.809 M37.649,2.426
				c0.41,0.411,1.291,1.519,0.763,2.048c-0.468,0.467-1.19,1.21-1.19,1.21c-0.034-0.269-0.714-0.911-0.714-0.911s0.006,1.97,0,2.215
				c-0.021,0.889-0.359,1.143-0.359,1.143s1.644,1.63,1.644,3.726c0,1.017,0.003,1.95,0.003,2.151c0,0.431-0.108,0.762-0.408,1.092
				c-0.148,0.164-1.67,1.696-1.902,1.905c-0.44,0.397-0.903,0.464-1.252,0.464c-0.245,0-5.504,0-5.666,0
				c-0.892,0-1.813-0.696-1.813-1.395c0-0.173,0.012-2.099,0.012-2.099c0.289,0.335,0.586,0.729,1.299,0.719
				c0.558-0.011,1.143-0.447,1.302-0.604c0.16-0.162,4.286-4.473,4.286-4.473s-1.931-1.79-3.205-2.643
				c-0.622-0.414-1.444,0.11-1.567,0.659c-0.392,1.713,0,4.287,0,4.287s-1.261-1.26-1.564-1.562
				c-0.632-0.632-0.607-2.061,0.143-2.81c0.117-0.12,1.261-1.41,2.714-1.41c0.231,0,2.006,0,2.262,0
				c1.516,0,3.153,1.486,3.153,1.486s0.243-0.269,0.243-0.525c0-0.777-0.006-2.851-0.006-2.851
				c-1.141-1.143-1.295-2.319-0.747-2.868C36.099,0.357,36.474,0,36.474,0S36.462,1.236,37.649,2.426z"/>
			<path class="st34" d="M23.266,19.617h-1.048c0,0,1.127,0.62,1.127,2.214c0,0.421,0,4.745,0,5.093
				c0,3.313,2.734,6.378,6.055,6.378c0.559,0,2.402,0,2.773,0c1.665,0,2.25-0.403,3.258-1.298c0.367-0.328,0.847-0.866,1.025-1.062
				c0.579-0.649,1.196-1.173,1.196-2.881c0-0.417,0-1.435,0-1.668c0-1.44-0.836-2.039-1.235-2.441
				c-0.258-0.26-0.97-0.937-0.97-0.937v3.414c0,0,0.698,0.744,1.009,0.988c1.439,1.136,0.296,3.12-1.045,3.12
				c-0.266,0-5.719,0.002-6.091,0.002c-2.344,0-5.275-1.944-5.275-5.31c0-0.452,0-2.473,0-2.768
				C24.046,19.617,23.266,19.617,23.266,19.617"/>
			<path class="st34" d="M29.944,25.82c0,0.582-1.864,2.132-1.973,2.241c-0.133-0.628-0.605-1.323-1.995-2.713l2.041-2.04
				C29.383,24.675,29.944,24.967,29.944,25.82"/>
			<path class="st34" d="M8.606,48.484c-0.334,0-2.908-0.003-3.263-0.003c-1.021,0-0.941-0.858-1.031-1.575v-4.693
				c0,0,0.716-0.018,1.502-0.018c0.907,0,2.039-0.133,3.138,0.489c0,0-0.792-1.895-3.144-1.895H4.312c0,0,0-0.27,0-0.923v-0.582
				c0,0,0-1.314-0.323-1.688c0,0,2,0.007,2.141,0.008c1.871,0.002,3.32-0.028,4.828,0.961c0,0-0.289-2.466-3.913-2.466
				c-2.057,0-6.75,0-7.045,0c0,0,1.258,1.05,1.183,3.179l0.075,8.527c0,2.157,0.839,2.193,0.839,2.193c0.085,0,0.513,0,2.412,0
				c0.317,0,0.694,0,1.096,0c1.015,0,2.349,0,3.431,0c1.579,0,2.127-1.106,2.127-1.726l0.023-0.823
				C11.185,47.449,10.685,48.484,8.606,48.484"/>
			<path class="st34" d="M27.073,47.757v-5.964c0-2.312-1.902-2.93-3.306-2.93c-1.856,0-2.419,1.564-2.655,2.089
				c-0.421-1.447-1.88-2.108-3.077-2.108c-2.237,0-2.81,2.143-2.81,2.143s-0.054-2.066-1.87-2.066l-1.77,0.003
				c0,0,1.018,0.423,1.018,2.209L12.6,47.757c0,2.207,0.887,2.228,0.887,2.228h2.938c-0.077-0.021-1.13-0.818-1.13-2.245v-5.873
				c0.037-0.264,0.48-1.14,1.747-1.14c0.695,0,1.474,0.733,1.461,1.572L18.5,47.754c0,2.224,0.875,2.229,0.875,2.229h2.948
				c0,0-1.128-0.789-1.128-2.25l-0.009-5.874c0.109-0.329,0.499-1.118,1.614-1.118c0.87,0,1.599,0.734,1.578,1.575
				c0,0-0.006,4.982-0.004,5.444c0.015,2.234,0.876,2.216,0.876,2.216c1.536,0,2.949,0.006,2.949,0.006S27.073,49.21,27.073,47.757"
				/>
			<path class="st34" d="M32.195,47.754c0,1.47,1.131,2.23,1.131,2.23s-1.4-0.006-2.937-0.006c0,0-0.875,0.01-0.875-2.206v-0.01
				l0.004-6.645c0-1.748-1.017-2.198-1.017-2.198h1.752c0.625,0,1.933,0,1.933,2.474l-0.005,6.35L32.195,47.754"/>
			<path class="st34" d="M41.207,39.758c0,0-0.283-0.798-1.5-0.798c-1.843,0-2.291,2.178-2.291,2.178
				c-0.153-1.718-0.614-2.23-1.889-2.23l-1.779,0.002c0,0,1.034,0.426,1.034,2.208l-0.005,6.634c0,2.208,0.884,2.229,0.884,2.229
				h2.909c-0.075-0.021-1.123-0.819-1.123-2.25l0.005-5.423c0.071-0.497,0.326-0.874,0.719-1.128
				c0.963-0.612,2.285-0.461,3.039,0.445C41.207,41.626,41.207,40.464,41.207,39.758"/>
			<path class="st34" d="M54.822,40.161c0.996,0,1.739,0.433,1.739,0.433l0.007-1.675h-2.454v-2.532c0,0-0.635,1.125-1.964,2.2
				c-0.832,0.687-2.58,1.53-2.58,1.53l1.863,0.034l-0.004,7.694c0,2.133,0.895,2.133,0.895,2.133c1.607,0,2.905,0.006,2.905,0.006
				s-1.119-0.761-1.119-2.159l0.004-7.668C54.871,40.16,54.341,40.161,54.822,40.161"/>
			<path class="st34" d="M61.917,42.797c0.487-0.899,0.869-3.17-0.793-3.046c-1.905,0.142-1.539,5.245-1.539,5.245
				C60.216,44.298,61.174,44.156,61.917,42.797 M63.72,43.506c-1.647,1.706-2.941,1.439-3.945,2.699c0,0,0.162,1.702,1.444,2.303
				c0.446,0.205,2.258,0.785,3.428-1.261l-0.003,1.944c0,0-0.754,0.806-3.148,0.806c-2.855,0-4.831-2.256-4.831-5.315
				c0-3.009,1.612-5.805,4.624-5.818C64.268,38.845,65.883,41.24,63.72,43.506z"/>
			<path class="st34" d="M30.829,38.021c0.758,0,1.373-0.586,1.373-1.327s-0.616-1.343-1.373-1.343
				c-0.758,0-1.342,0.602-1.342,1.343S30.071,38.021,30.829,38.021"/>
			<path class="st34" d="M70.165,46.975c0.022,0.784-0.674,1.819-2.164,1.819c-1.461,0-2.103-1.569-2.103-1.569l-0.012,1.98
				c0,0,1.082,0.783,2.774,0.783h-0.002c2.014,0,4.001-1.512,3.94-3.625c-0.021-0.75-0.277-1.387-0.676-1.936
				c-0.683-0.896-1.914-1.558-2.891-2.122c-1.325-0.767-1.147-2.416,0.798-2.259c1.456,0.117,2.073,1.52,2.073,1.52v-1.844
				c0,0-1.122-0.885-2.816-0.885c-1.759,0-3.323,1.164-3.28,2.644c0.038,1.309,0.572,2.163,1.646,2.944
				c0.426,0.319,0.934,0.625,1.521,0.953C69.834,45.849,70.15,46.431,70.165,46.975"/>
			<path class="st34" d="M46.218,41.355c0,1.083-0.919,1.568-1.519,1.831c-1.746,0.763-3.981,1.605-3.981,4.142
				c0,1.698,1.231,2.673,2.96,2.673c1.325,0,1.991-0.685,2.32-1.33c0.2,1.251,0.824,1.308,0.824,1.308
				c1.527,0,2.926,0.009,2.926,0.009s-1.141-0.775-1.141-2.226v-6.214c0-1.492-1.65-2.647-3.401-2.647
				c-1.684,0-2.747,0.813-2.747,0.813c0,0.498,0,1.926,0,1.926s0.601-1.528,2.124-1.528C45.846,40.11,46.218,40.73,46.218,41.355
				 M44.633,48.725c-0.923,0-1.551-0.495-1.551-1.543c0-2.493,2.264-3.007,2.872-3.744L45.95,48.09
				C45.93,48.108,45.542,48.725,44.633,48.725z"/>
		</g>
	</g>
</g>
<g id="Layer_4">
</g>
</svg>
