<?xml version="1.0" encoding="utf-8"?>
<!-- Generator: Adobe Illustrator 18.0.0, SVG Export Plug-In . SVG Version: 6.00 Build 0)  -->
<!DOCTYPE svg PUBLIC "-//W3C//DTD SVG 1.1//EN" "http://www.w3.org/Graphics/SVG/1.1/DTD/svg11.dtd">
<svg version="1.1" xmlns="http://www.w3.org/2000/svg" xmlns:xlink="http://www.w3.org/1999/xlink" x="0px" y="0px" width="200px"
	 height="22px" viewBox="0 0 200 22" style="enable-background:new 0 0 200 22;" xml:space="preserve">
<style type="text/css">
	.st0{display:none;}
	.st1{display:inline;}
	.st2{fill:#ED2D27;}
	.st3{display:inline;fill:#F8B900;}
	.st4{display:inline;fill:#00235F;}
	.st5{fill:url(#SVGID_1_);}
	.st6{fill:#006CB6;}
	.st7{fill:url(#SVGID_2_);}
	.st8{fill:url(#SVGID_3_);}
	.st9{fill:url(#SVGID_4_);}
	.st10{fill:url(#SVGID_5_);}
	.st11{fill:url(#SVGID_6_);}
	.st12{fill-rule:evenodd;clip-rule:evenodd;fill:#FFFFFF;}
	.st13{fill-rule:evenodd;clip-rule:evenodd;fill:#E2231A;}
	.st14{fill:#FFFFFF;}
	.st15{fill-rule:evenodd;clip-rule:evenodd;fill:#001689;}
	.st16{fill:#00529B;}
	.st17{fill:#F47920;}
	.st18{fill:url(#SVGID_7_);}
	.st19{fill:url(#SVGID_8_);}
	.st20{fill:url(#SVGID_9_);}
	.st21{fill:url(#SVGID_10_);}
	.st22{fill:url(#SVGID_11_);}
	.st23{fill:url(#SVGID_12_);}
	.st24{fill:url(#SVGID_13_);}
	.st25{fill:#00054C;}
	.st26{fill:url(#path3364_3_);}
	.st27{fill:url(#path3366_3_);}
	.st28{fill:#22356B;}
	.st29{fill:#FCC210;}
	.st30{fill:#ED1C24;}
	.st31{display:inline;fill:url(#SVGID_14_);}
	.st32{fill:#002157;}
	.st33{fill:#CC2234;}
	.st34{fill:#E23546;}
	.st35{fill:#FCB130;}
	.st36{fill:#1D4886;}
	.st37{display:inline;fill:none;}
	.st38{display:inline;fill:#005DAA;}
	.st39{fill:#005DAA;}
	.st40{fill:#00A1E4;}
	.st41{fill:#00704A;}
	.st42{fill:#B10D28;}
	.st43{fill:#D31245;}
	.st44{fill:url(#path70_3_);}
	.st45{fill:url(#SVGID_15_);}
	.st46{fill:url(#SVGID_16_);}
	.st47{fill:#231916;}
	.st48{fill:#E60013;}
	.st49{fill:#C0231E;}
	.st50{fill:#014E84;}
	.st51{fill:#BA783E;}
	.st52{fill:#002052;}
	.st53{fill:#0093D0;}
	.st54{fill:#ED1B2F;}
	.st55{fill:#E3242B;}
	.st56{fill-rule:evenodd;clip-rule:evenodd;fill:#034EA2;}
	.st57{fill-rule:evenodd;clip-rule:evenodd;fill:#E11837;}
	.st58{fill:#034EA2;}
	.st59{opacity:0.8902;fill:#EB151C;}
	.st60{fill:#1A1A1A;}
	.st61{enable-background:new    ;}
	.st62{fill:#FF6600;}
	.st63{clip-path:url(#SVGID_18_);fill:url(#SVGID_19_);}
	.st64{fill:url(#SVGID_20_);}
	.st65{fill:#B2DB1F;}
	.st66{fill:#FA002C;}
	.st67{fill:#1C2D5B;}
	.st68{fill:#1C4E9D;}
	.st69{fill:#ED192D;}
	.st70{display:inline;fill:#FFFFFF;}
	.st71{display:inline;fill:#00529B;}
	.st72{display:inline;fill:#F47920;}
	.st73{display:inline;fill:url(#SVGID_21_);}
	.st74{display:inline;fill:url(#SVGID_22_);}
	.st75{display:inline;fill:url(#SVGID_23_);}
	.st76{display:inline;fill:url(#SVGID_24_);}
	.st77{display:inline;fill:url(#SVGID_25_);}
	.st78{display:inline;fill:url(#SVGID_26_);}
	.st79{display:inline;fill:url(#SVGID_27_);}
	.st80{display:inline;fill:url(#path3364_4_);}
	.st81{display:inline;fill:url(#path3366_4_);}
	.st82{display:inline;fill:url(#SVGID_28_);}
	.st83{display:inline;fill:url(#SVGID_29_);}
	.st84{display:inline;fill:url(#SVGID_30_);}
	.st85{display:inline;opacity:0.75;fill:#FFFFFF;}
	.st86{display:inline;fill:#ED1B2F;}
	.st87{opacity:0.8902;fill:#FFFFFF;}
	.st88{clip-path:url(#SVGID_32_);fill:#FFFFFF;}
	.st89{fill:url(#SVGID_33_);}
	.st90{fill:url(#SVGID_34_);}
	.st91{fill:url(#SVGID_35_);}
	.st92{fill:url(#SVGID_36_);}
	.st93{fill:url(#SVGID_37_);}
	.st94{fill:url(#SVGID_38_);}
	.st95{fill:url(#SVGID_39_);}
	.st96{fill:url(#SVGID_40_);}
	.st97{clip-path:url(#SVGID_42_);fill:url(#SVGID_43_);}
	.st98{fill:url(#SVGID_44_);}
	.st99{fill:url(#path70_5_);}
	.st100{fill:url(#SVGID_45_);}
	.st101{fill:url(#SVGID_46_);}
	.st102{fill:#F8B900;}
	.st103{fill:#00235F;}
	.st104{fill:url(#SVGID_47_);}
	.st105{fill:url(#SVGID_48_);}
	.st106{fill:url(#SVGID_49_);}
	.st107{fill:url(#SVGID_50_);}
	.st108{fill:url(#SVGID_51_);}
	.st109{fill:url(#SVGID_52_);}
	.st110{opacity:0.8902;fill:#EB151C;enable-background:new    ;}
	.st111{fill:#E11837;}
	.st112{fill:#E2231A;}
	.st113{fill:#001689;}
	.st114{fill:#EF3E34;}
	.st115{fill:#4D82C4;}
	.st116{fill:#8C7035;}
	.st117{fill:#5FBA45;}
	.st118{fill:#008F7E;}
	.st119{fill:#004595;}
	.st120{fill:#FFED00;}
	.st121{fill:#E53138;}
	.st122{fill:url(#SVGID_53_);}
	.st123{fill:url(#SVGID_54_);}
	.st124{fill:url(#SVGID_55_);}
	.st125{fill:url(#SVGID_56_);}
	.st126{fill:#11185E;}
	.st127{fill:#EE3024;}
	.st128{fill:#0675CC;}
	.st129{fill:#E2001A;}
	.st130{fill:#009036;}
	.st131{fill:#0B1560;}
	.st132{fill:#0070AF;}
	.st133{fill:#0F2C64;}
	.st134{fill:#EF001E;}
	.st135{fill:#1C2A8D;}
	.st136{fill:#334357;}
	.st137{fill:url(#SVGID_57_);}
	.st138{fill:#ED1B28;}
	.st139{fill:#1E5AAF;}
	.st140{fill:#991933;}
	.st141{fill:#E01933;}
	.st142{fill:#003366;}
	.st143{fill:#00265D;}
	.st144{fill:#003263;}
	.st145{fill:#EE452A;}
	.st146{fill:#011F65;}
	.st147{fill:#EC2227;}
	.st148{fill:#010101;}
	.st149{fill:#FCEE21;}
	.st150{fill:#18488B;}
	.st151{fill:#EC2427;}
	.st152{fill:#D09B2B;}
	.st153{fill:#156192;}
	.st154{fill:#021A31;}
	.st155{fill:#008E8F;}
	.st156{fill:#2B438F;}
	.st157{fill:#363F9E;}
	.st158{fill:#00ABBF;}
</style>
<g id="Layer_1" class="st0">
</g>
<g id="Layer_2" class="st0">
</g>
<g id="Layer_3">
	<path class="st131" d="M21.252,0.02c-1.135-0.026-2.263,0.251-3.267,0.785c-2.461,1.298-4.936,2.567-7.382,3.892
		C8.615,5.772,6.965,7.467,6,9.519c-1.963,4.097-3.944,8.179-5.844,12.305c-0.04-0.009-0.118-0.031-0.156-0.04v0.119
		c2.194,0.153,4.395,0.072,6.591,0.072c1.125,0.039,2.212-0.615,2.709-1.628c1.091-2.146,2.044-4.36,3.173-6.487
		c3.13,0.078,6.265,0.003,9.396,0.044c0.805-0.024,1.728,0.075,2.406-0.461c0.556-0.561,0.821-1.329,1.175-2.021
		c-4.044,0.009-8.089,0.003-12.132,0.006c0.998-2.014,1.91-4.068,2.926-6.07c0.494-1.09,1.656-1.707,2.822-1.687
		c4.718-0.078,9.443,0.065,14.156-0.066c1.881-0.17,2.584-2.114,3.246-3.591C31.396,0.037,26.324,0.018,21.252,0.02z"/>
	<path class="st131" d="M41.849,0.032c-1.178,0.019-2.344,0.695-2.853,1.778c-3.227,6.724-6.456,13.446-9.678,20.169
		c2.214-0.003,4.43,0.021,6.645-0.01c1.191,0.017,2.287-0.771,2.734-1.868c3.197-6.701,6.447-13.38,9.621-20.091
		C46.161,0.045,44.005-0.002,41.849,0.032z"/>
	<path class="st131" d="M77.061,0.494c-1.057,0.562-1.426,1.768-1.929,2.771c-1.956,4.051-3.835,8.143-5.856,12.162
		c-0.26-0.534-0.524-1.065-0.875-1.545c-3.19-4.342-6.368-8.696-9.527-13.063c-0.384-0.635-1.203-1.035-1.909-0.682
		c-0.991,0.436-1.939,0.964-2.873,1.511c-1.686,0.98-2.911,2.589-3.731,4.342c-2.534,5.322-5.075,10.647-7.555,15.995
		c1.164-0.014,2.33,0.043,3.496-0.024c1-0.054,1.916-0.705,2.372-1.59c1.981-4.028,3.828-8.123,5.834-12.138
		c0.366,0.782,0.882,1.469,1.413,2.145c2.466,3.291,4.935,6.588,7.4,9.886c0.629,0.836,1.485,1.662,2.594,1.697
		c1.782,0.064,3.569,0.002,5.354,0.027c3.52-7.321,7.037-14.64,10.561-21.958C80.246,0.117,78.522-0.291,77.061,0.494z"/>
	<path class="st131" d="M112.771,0.07c-1.067,0.114-2.076,0.767-2.537,1.755c-2.202,4.528-4.305,9.107-6.553,13.609
		c-0.266-0.537-0.53-1.081-0.888-1.564c-3.196-4.351-6.378-8.715-9.544-13.085c-0.391-0.619-1.197-0.993-1.889-0.647
		c-1.756,0.854-3.602,1.705-4.911,3.211c-1.335,1.518-2.023,3.454-2.923,5.235c-2.107,4.468-4.276,8.911-6.297,13.414
		c1.248-0.047,2.504,0.06,3.75-0.071c1.057-0.142,1.881-0.984,2.293-1.932c1.816-3.861,3.691-7.693,5.492-11.561
		c0.09,0.071,0.271,0.222,0.361,0.295c2.764,3.814,5.641,7.543,8.438,11.332c0.656,0.903,1.525,1.84,2.713,1.902
		c1.795,0.067,3.592,0,5.385,0.03c3.52-7.326,7.072-14.632,10.551-21.974C115.067,0.048,113.917-0.029,112.771,0.07z"/>
	<g>
		<path class="st131" d="M148.814,5.307c-1.519-1.206-3.097-2.337-4.631-3.526c-1.341-1.117-3.057-1.765-4.8-1.759
			c-2.403-0.002-4.804,0-7.202,0c-1.133-0.017-2.25,0.275-3.242,0.815c-2.46,1.292-4.923,2.58-7.376,3.887
			c-1.977,1.074-3.599,2.778-4.562,4.823c-1.984,4.147-3.974,8.291-5.939,12.448c2.263-0.048,4.527,0.026,6.791-0.034
			c1.099-0.018,2.073-0.772,2.537-1.749c1.03-2.099,2.016-4.222,3.047-6.32c4.709,0,9.416-0.008,14.125,0.003
			c-0.881,1.997-1.937,3.915-2.791,5.922c-0.524,0.975,0.36,2.228,1.432,2.153c1.991,0.033,3.985,0.006,5.975,0.006
			c2.302-4.876,4.677-9.716,6.981-14.589C149.548,6.698,149.497,5.778,148.814,5.307z M141.645,5.445
			c-0.97,1.989-1.932,3.98-2.879,5.979c-4.716,0-9.428,0.01-14.144-0.003c1.003-2.008,1.915-4.059,2.928-6.057
			c0.491-1.068,1.602-1.724,2.769-1.693c3.332-0.043,6.666,0.003,10-0.022c0.557,0.024,1.25-0.078,1.619,0.461
			C142.164,4.569,141.797,5.024,141.645,5.445z"/>
	</g>
	<path class="st131" d="M159.953,0.071c-1.355,0.134-2.338,1.223-2.778,2.452l0,0c-3.103,6.491-6.222,12.973-9.336,19.462
		c2.294-0.014,4.587,0.038,6.878-0.024c1.183-0.061,2.159-0.955,2.589-2.025c3.148-6.65,6.424-13.245,9.502-19.927
		C164.525,0.074,162.234-0.055,159.953,0.071z"/>
	<g>
		<path class="st131" d="M196.247,2.848c-1.694-1.413-3.638-2.73-5.916-2.809c-2.509-0.034-5.021-0.023-7.531-0.006
			c-2.156,0.022-3.919,1.427-5.794,2.303l0,0c-3.115,1.746-6.871,3.034-8.649,6.399c-2.209,4.373-4.252,8.838-6.368,13.26
			c2.266-0.044,4.53,0.038,6.797-0.036c1.203-0.011,2.194-0.91,2.649-1.977c1.073-2.183,2.1-4.388,3.188-6.566
			c1.484,0.047,2.975-0.078,4.456,0.069c0.878,0.09,1.56,0.741,2,1.47c1.152,1.877,2.21,3.811,3.394,5.671
			c0.494,0.843,1.416,1.382,2.4,1.343c2.577,0.05,5.155-0.018,7.729,0.031c-1.3-2.13-2.581-4.271-3.862-6.411
			c-0.915-1.662-3.112-1.127-4.625-1.69c-0.074-0.099-0.226-0.303-0.3-0.405c2.635-0.204,5.28,0.061,7.916-0.149
			c1.594-0.162,3.428-0.642,4.269-2.156c0.747-1.42,1.422-2.886,2-4.386V5.989C199.013,4.664,197.481,3.912,196.247,2.848z
			 M192.273,5.453c-0.669,1.316-1.236,2.686-1.926,3.992c-0.675,1.227-2.197,1.49-3.469,1.487c-3.79,0.022-7.581,0.004-11.372,0.01
			c0.947-1.901,1.819-3.842,2.788-5.733c0.5-0.982,1.584-1.535,2.661-1.541c3.331-0.044,6.662,0.003,9.994-0.022
			c0.554,0.007,1.217-0.055,1.608,0.437C192.81,4.552,192.435,5.025,192.273,5.453z"/>
	</g>
</g>
<g id="Layer_4">
</g>
</svg>
