<?xml version="1.0" encoding="utf-8"?>
<!-- Generator: Adobe Illustrator 18.0.0, SVG Export Plug-In . SVG Version: 6.00 Build 0)  -->
<!DOCTYPE svg PUBLIC "-//W3C//DTD SVG 1.1//EN" "http://www.w3.org/Graphics/SVG/1.1/DTD/svg11.dtd">
<svg version="1.1" xmlns="http://www.w3.org/2000/svg" xmlns:xlink="http://www.w3.org/1999/xlink" x="0px" y="0px" width="200px"
	 height="45.391px" viewBox="0 0 200 45.391" style="enable-background:new 0 0 200 45.391;" xml:space="preserve">
<style type="text/css">
	.st0{display:none;}
	.st1{display:inline;}
	.st2{fill:#ED2D27;}
	.st3{display:inline;fill:#F8B900;}
	.st4{display:inline;fill:#00235F;}
	.st5{fill:url(#SVGID_1_);}
	.st6{fill:#006CB6;}
	.st7{fill:url(#SVGID_2_);}
	.st8{fill:url(#SVGID_3_);}
	.st9{fill:url(#SVGID_4_);}
	.st10{fill:url(#SVGID_5_);}
	.st11{fill:url(#SVGID_6_);}
	.st12{fill-rule:evenodd;clip-rule:evenodd;fill:#FFFFFF;}
	.st13{fill-rule:evenodd;clip-rule:evenodd;fill:#E2231A;}
	.st14{fill:#FFFFFF;}
	.st15{fill-rule:evenodd;clip-rule:evenodd;fill:#001689;}
	.st16{fill:#00529B;}
	.st17{fill:#F47920;}
	.st18{fill:url(#SVGID_7_);}
	.st19{fill:url(#SVGID_8_);}
	.st20{fill:url(#SVGID_9_);}
	.st21{fill:url(#SVGID_10_);}
	.st22{fill:url(#SVGID_11_);}
	.st23{fill:url(#SVGID_12_);}
	.st24{fill:url(#SVGID_13_);}
	.st25{fill:#00054C;}
	.st26{fill:url(#path3364_3_);}
	.st27{fill:url(#path3366_3_);}
	.st28{fill:#22356B;}
	.st29{fill:#FCC210;}
	.st30{fill:#ED1C24;}
	.st31{display:inline;fill:url(#SVGID_14_);}
	.st32{fill:#002157;}
	.st33{fill:#CC2234;}
	.st34{fill:#E23546;}
	.st35{fill:#FCB130;}
	.st36{fill:#1D4886;}
	.st37{display:inline;fill:none;}
	.st38{display:inline;fill:#005DAA;}
	.st39{fill:#005DAA;}
	.st40{fill:#00A1E4;}
	.st41{fill:#00704A;}
	.st42{fill:#B10D28;}
	.st43{fill:#D31245;}
	.st44{fill:url(#path70_3_);}
	.st45{fill:url(#SVGID_15_);}
	.st46{fill:url(#SVGID_16_);}
	.st47{fill:#231916;}
	.st48{fill:#E60013;}
	.st49{fill:#C0231E;}
	.st50{fill:#014E84;}
	.st51{fill:#BA783E;}
	.st52{fill:#002052;}
	.st53{fill:#0093D0;}
	.st54{fill:#ED1B2F;}
	.st55{fill:#E3242B;}
	.st56{fill-rule:evenodd;clip-rule:evenodd;fill:#034EA2;}
	.st57{fill-rule:evenodd;clip-rule:evenodd;fill:#E11837;}
	.st58{fill:#034EA2;}
	.st59{opacity:0.8902;fill:#EB151C;}
	.st60{fill:#1A1A1A;}
	.st61{enable-background:new    ;}
	.st62{fill:#FF6600;}
	.st63{clip-path:url(#SVGID_18_);fill:url(#SVGID_19_);}
	.st64{fill:url(#SVGID_20_);}
	.st65{fill:#B2DB1F;}
	.st66{fill:#FA002C;}
	.st67{fill:#1C2D5B;}
	.st68{fill:#1C4E9D;}
	.st69{fill:#ED192D;}
	.st70{display:inline;fill:#FFFFFF;}
	.st71{display:inline;fill:#00529B;}
	.st72{display:inline;fill:#F47920;}
	.st73{display:inline;fill:url(#SVGID_21_);}
	.st74{display:inline;fill:url(#SVGID_22_);}
	.st75{display:inline;fill:url(#SVGID_23_);}
	.st76{display:inline;fill:url(#SVGID_24_);}
	.st77{display:inline;fill:url(#SVGID_25_);}
	.st78{display:inline;fill:url(#SVGID_26_);}
	.st79{display:inline;fill:url(#SVGID_27_);}
	.st80{display:inline;fill:url(#path3364_4_);}
	.st81{display:inline;fill:url(#path3366_4_);}
	.st82{display:inline;fill:url(#SVGID_28_);}
	.st83{display:inline;fill:url(#SVGID_29_);}
	.st84{display:inline;fill:url(#SVGID_30_);}
	.st85{display:inline;opacity:0.75;fill:#FFFFFF;}
	.st86{display:inline;fill:#ED1B2F;}
	.st87{opacity:0.8902;fill:#FFFFFF;}
	.st88{clip-path:url(#SVGID_32_);fill:#FFFFFF;}
	.st89{fill:url(#SVGID_33_);}
	.st90{fill:url(#SVGID_34_);}
	.st91{fill:url(#SVGID_35_);}
	.st92{fill:url(#SVGID_36_);}
	.st93{fill:url(#SVGID_37_);}
	.st94{fill:url(#SVGID_38_);}
	.st95{fill:url(#SVGID_39_);}
	.st96{fill:url(#SVGID_40_);}
	.st97{clip-path:url(#SVGID_42_);fill:url(#SVGID_43_);}
	.st98{fill:url(#SVGID_44_);}
	.st99{fill:url(#path70_5_);}
	.st100{fill:url(#SVGID_45_);}
	.st101{fill:url(#SVGID_46_);}
	.st102{fill:#F8B900;}
	.st103{fill:#00235F;}
	.st104{fill:url(#SVGID_47_);}
	.st105{fill:url(#SVGID_48_);}
	.st106{fill:url(#SVGID_49_);}
	.st107{fill:url(#SVGID_50_);}
	.st108{fill:url(#SVGID_51_);}
	.st109{fill:url(#SVGID_52_);}
	.st110{opacity:0.8902;fill:#EB151C;enable-background:new    ;}
	.st111{fill:#E11837;}
	.st112{fill:#E2231A;}
	.st113{fill:#001689;}
	.st114{fill:#EF3E34;}
	.st115{fill:#4D82C4;}
	.st116{fill:#8C7035;}
	.st117{fill:#5FBA45;}
	.st118{fill:#008F7E;}
	.st119{fill:#004595;}
	.st120{fill:#FFED00;}
	.st121{fill:#E53138;}
	.st122{fill:url(#SVGID_53_);}
	.st123{fill:url(#SVGID_54_);}
	.st124{fill:url(#SVGID_55_);}
	.st125{fill:url(#SVGID_56_);}
	.st126{fill:#11185E;}
	.st127{fill:#EE3024;}
	.st128{fill:#0675CC;}
	.st129{fill:#E2001A;}
	.st130{fill:#009036;}
	.st131{fill:#0B1560;}
	.st132{fill:#0070AF;}
	.st133{fill:#0F2C64;}
	.st134{fill:#EF001E;}
	.st135{fill:#1C2A8D;}
	.st136{fill:#334357;}
	.st137{fill:url(#SVGID_57_);}
	.st138{fill:#ED1B28;}
	.st139{fill:#1E5AAF;}
	.st140{fill:#991933;}
	.st141{fill:#E01933;}
	.st142{fill:#003366;}
	.st143{fill:#00265D;}
	.st144{fill:#003263;}
	.st145{fill:#EE452A;}
	.st146{fill:#011F65;}
	.st147{fill:#EC2227;}
	.st148{fill:#010101;}
	.st149{fill:#FCEE21;}
	.st150{fill:#18488B;}
	.st151{fill:#EC2427;}
	.st152{fill:#D09B2B;}
	.st153{fill:#156192;}
	.st154{fill:#021A31;}
	.st155{fill:#008E8F;}
	.st156{fill:#2B438F;}
	.st157{fill:#363F9E;}
	.st158{fill:#00ABBF;}
</style>
<g id="Layer_1" class="st0">
</g>
<g id="Layer_2" class="st0">
</g>
<g id="Layer_3">
	<g id="_x23_11185eff">
		<path class="st126" d="M31.547,0h8.056c-0.066,2.673-0.022,5.349-0.038,8.024c-2.675,0-5.353,0.01-8.03-0.016
			C31.523,5.339,31.549,2.669,31.547,0z"/>
		<path class="st126" d="M65.822,0h16.581c3.839,0.254,7.936,0.856,11.026,3.347c1.972,1.616,3.155,4.093,3.265,6.631
			c0.25,2.943-0.556,6.115-2.741,8.2c-1.666,1.616-3.835,2.569-6.003,3.303c2.14,0.574,4.293,1.308,6.073,2.667
			c1.312,0.978,2.348,2.32,2.953,3.841c0.872,2.152,0.974,4.553,0.582,6.825c-0.544,3.005-2.475,5.695-5.089,7.257
			c-3.479,2.134-7.668,2.679-11.68,2.639c-4.991-0.002-9.984,0-14.977,0C65.798,29.808,65.83,14.903,65.822,0 M74.243,6.615
			c0.022,3.871,0.01,7.744,0.012,11.616c2.242,0.014,4.485,0.006,6.729-0.028c1.964-0.086,4.027-0.54,5.555-1.854
			c2.29-1.914,2.573-5.829,0.442-7.964c-1.376-1.314-3.351-1.712-5.193-1.77C79.272,6.569,76.758,6.627,74.243,6.615 M74.257,38.124
			c2.17-0.006,4.343,0.024,6.515-0.034c2.262-0.13,4.653-0.592,6.439-2.084c2.723-2.406,2.515-7.267-0.338-9.488
			c-1.736-1.312-3.967-1.712-6.093-1.782c-2.172-0.026-4.345,0.01-6.519-0.018C74.219,29.186,74.275,33.655,74.257,38.124z"/>
		<path class="st126" d="M130.033,0h8.044c-0.002,14.903,0.002,29.806-0.002,44.709c-2.683,0.004-5.369,0-8.054,0.002
			C130.041,29.806,130.029,14.903,130.033,0z"/>
		<path class="st126" d="M145.006,0h8.044c0.006,3.697-0.014,7.394,0.016,11.092c2.014-0.01,4.027-0.04,6.041-0.026
			c0.002,2.03,0,4.059,0,6.089c-2.018,0.006-4.037-0.002-6.055,0.004c0.004,5.941-0.014,11.884,0.012,17.824
			c0.014,1.288,0.156,2.803,1.274,3.639c1.476,1.006,3.365,0.72,5.027,0.482c0.002,2.038,0.002,4.075,0,6.113
			c-0.698,0.048-1.394,0.118-2.09,0.174h-3.347c-2.461-0.194-5.109-0.82-6.809-2.747c-1.784-2.024-2.058-4.851-2.106-7.432
			c-0.024-6.017,0.008-12.036-0.022-18.052c-1.658-0.006-3.315,0-4.973-0.002c-0.006-2.018,0.008-4.037-0.008-6.053
			c1.662-0.102,3.329,0.018,4.993-0.056C145.008,7.364,145.004,3.683,145.006,0z"/>
		<path class="st126" d="M162.237,0h7.986c0,2.673,0.002,5.349-0.002,8.022c-2.663,0.004-5.329,0.004-7.994,0
			C162.219,5.349,162.231,2.673,162.237,0z"/>
		<path class="st126" d="M2.07,13.849c4.441-2.703,9.76-3.781,14.921-3.447c2.923,0.162,6.051,0.868,8.17,3.027
			c2.04,2.096,2.571,5.155,2.627,7.972c0.008,7.768,0.008,15.539,0.014,23.307c-2.162,0.002-4.325,0.004-6.489-0.002
			c-0.298-1.168-0.588-2.338-0.886-3.505c-2.382,2.188-5.353,3.845-8.608,4.189H9.004c-2.577-0.264-5.169-1.32-6.879-3.321
			C0.898,40.664,0.196,38.854,0,37.008v-1.814c0.188-2.338,1.244-4.627,3.069-6.133c1.946-1.7,4.407-2.615,6.829-3.399
			c2.929-0.99,5.859-1.978,8.786-2.965c0.42-0.172,1.05-0.332,1.066-0.89c0.056-1.346,0.246-2.937-0.758-4.007
			c-1.226-1.28-3.121-1.43-4.791-1.472c-4.441-0.01-8.544,2.074-12.129,4.521C2.068,18.516,2.074,16.183,2.07,13.849 M18.338,28.33
			c-2.122,0.732-4.231,1.5-6.329,2.294c-1.37,0.562-2.767,1.394-3.429,2.777c-0.672,1.548-0.632,3.567,0.556,4.859
			c1.162,1.186,2.981,1.55,4.569,1.206c2.354-0.494,4.461-1.9,6.067-3.653c0.034-2.719-0.006-5.441,0.018-8.162
			C19.326,27.918,18.844,28.156,18.338,28.33z"/>
		<path class="st126" d="M58.468,10.898c1.67-0.558,3.485-0.742,5.213-0.35c0.002,2.525,0.002,5.051-0.012,7.576
			c-2.507-0.378-5.147,0.1-7.316,1.424c-2.947,1.654-5.157,4.805-5.217,8.244c-0.028,5.639-0.012,11.278-0.018,16.919
			c-2.681-0.006-5.363,0.016-8.042-0.016c-0.002-11.198-0.004-22.393,0-33.589c2.603-0.026,5.205-0.034,7.808-0.012
			c0,2.048-0.002,4.095,0.002,6.145C52.791,14.521,55.259,11.99,58.468,10.898z"/>
		<path class="st126" d="M101.157,13.851c3.947-2.422,8.612-3.525,13.221-3.509c3.047,0.026,6.295,0.388,8.846,2.202
			c2.026,1.422,3.127,3.823,3.465,6.221c0.368,2.527,0.194,5.089,0.236,7.632c0,6.105,0.002,12.209,0,18.314
			c-2.18-0.006-4.359,0.012-6.537-0.014c-0.298-1.162-0.576-2.328-0.866-3.489c-2.404,2.172-5.379,3.853-8.646,4.183h-2.789
			c-1.816-0.186-3.611-0.748-5.127-1.778c-1.87-1.248-3.241-3.237-3.663-5.453c-0.458-2.342-0.198-4.909,1.058-6.975
			c1.458-2.398,4.015-3.859,6.581-4.809c3.663-1.306,7.372-2.485,11.046-3.759c0.364-0.136,0.838-0.35,0.834-0.81
			c0.05-1.024,0.128-2.088-0.19-3.077c-0.36-1.056-1.394-1.7-2.41-2.022c-1.368-0.412-2.825-0.422-4.239-0.32
			c-3.963,0.356-7.582,2.256-10.818,4.463C101.153,18.518,101.155,16.185,101.157,13.851 M115.724,28.926
			c-1.614,0.584-3.233,1.152-4.831,1.78c-1.406,0.602-2.825,1.546-3.373,3.043c-0.482,1.42-0.42,3.149,0.568,4.345
			c1.082,1.272,2.907,1.694,4.505,1.408c2.439-0.428,4.555-1.912,6.253-3.655c-0.028-2.727-0.002-5.457,0.018-8.184
			C117.884,28.236,116.782,28.536,115.724,28.926z"/>
		<path class="st126" d="M177.951,14.371c2.639-2.463,6.229-3.737,9.798-3.963c3.949-0.27,8.062,0.368,11.504,2.412
			c-0.004,2.437,0.012,4.875-0.016,7.312c-1.252-0.998-2.549-1.978-4.053-2.569c-2.336-0.958-4.981-1.17-7.43-0.55
			c-2.417,0.628-4.453,2.41-5.545,4.637c-1.65,3.293-1.756,7.219-0.76,10.722c0.704,2.461,2.25,4.833,4.639,5.925
			c2.777,1.246,6.019,1.034,8.844,0.056c1.834-0.608,3.413-1.73,5.027-2.753v6.421c0.194,0.644-0.338,0.816-0.724,1.042
			c-2.605,1.334-5.483,2.086-8.394,2.33h-3.441c-3.103-0.24-6.209-1.192-8.654-3.169c-2.955-2.3-4.751-5.817-5.531-9.426
			c-0.7-3.291-0.682-6.741,0.06-10.024C174.008,19.614,175.544,16.581,177.951,14.371z"/>
		<path class="st126" d="M31.535,11.118c2.681-0.1,5.363-0.038,8.044-0.01c-0.024,11.202-0.004,22.401-0.014,33.603
			c-2.673-0.004-5.347,0.004-8.02-0.004C31.555,33.511,31.527,22.313,31.535,11.118z"/>
		<path class="st126" d="M162.213,11.112c2.673-0.086,5.349-0.032,8.022-0.002c-0.004,11.198,0.012,22.397-0.01,33.597
			c-2.667,0.002-5.333,0.016-7.998-0.012C162.229,33.501,162.223,22.305,162.213,11.112z"/>
	</g>
</g>
<g id="Layer_4">
</g>
</svg>
