<?xml version="1.0" encoding="utf-8"?>
<!-- Generator: Adobe Illustrator 18.0.0, SVG Export Plug-In . SVG Version: 6.00 Build 0)  -->
<!DOCTYPE svg PUBLIC "-//W3C//DTD SVG 1.1//EN" "http://www.w3.org/Graphics/SVG/1.1/DTD/svg11.dtd">
<svg version="1.1" xmlns="http://www.w3.org/2000/svg" xmlns:xlink="http://www.w3.org/1999/xlink" x="0px" y="0px" width="200px"
	 height="49.349px" viewBox="0 0 200 49.349" style="enable-background:new 0 0 200 49.349;" xml:space="preserve">
<style type="text/css">
	.st0{display:none;}
	.st1{display:inline;}
	.st2{fill:#ED2D27;}
	.st3{display:inline;fill:#F8B900;}
	.st4{display:inline;fill:#00235F;}
	.st5{fill:url(#SVGID_1_);}
	.st6{fill:#006CB6;}
	.st7{fill:url(#SVGID_2_);}
	.st8{fill:url(#SVGID_3_);}
	.st9{fill:url(#SVGID_4_);}
	.st10{fill:url(#SVGID_5_);}
	.st11{fill:url(#SVGID_6_);}
	.st12{fill-rule:evenodd;clip-rule:evenodd;fill:#FFFFFF;}
	.st13{fill-rule:evenodd;clip-rule:evenodd;fill:#E2231A;}
	.st14{fill:#FFFFFF;}
	.st15{fill-rule:evenodd;clip-rule:evenodd;fill:#001689;}
	.st16{fill:#00529B;}
	.st17{fill:#F47920;}
	.st18{fill:url(#SVGID_7_);}
	.st19{fill:url(#SVGID_8_);}
	.st20{fill:url(#SVGID_9_);}
	.st21{fill:url(#SVGID_10_);}
	.st22{fill:url(#SVGID_11_);}
	.st23{fill:url(#SVGID_12_);}
	.st24{fill:url(#SVGID_13_);}
	.st25{fill:#00054C;}
	.st26{fill:url(#path3364_3_);}
	.st27{fill:url(#path3366_3_);}
	.st28{fill:#22356B;}
	.st29{fill:#FCC210;}
	.st30{fill:#ED1C24;}
	.st31{display:inline;fill:url(#SVGID_14_);}
	.st32{fill:#002157;}
	.st33{fill:#CC2234;}
	.st34{fill:#E23546;}
	.st35{fill:#FCB130;}
	.st36{fill:#1D4886;}
	.st37{display:inline;fill:none;}
	.st38{display:inline;fill:#005DAA;}
	.st39{fill:#005DAA;}
	.st40{fill:#00A1E4;}
	.st41{fill:#00704A;}
	.st42{fill:#B10D28;}
	.st43{fill:#D31245;}
	.st44{fill:url(#path70_3_);}
	.st45{fill:url(#SVGID_15_);}
	.st46{fill:url(#SVGID_16_);}
	.st47{fill:#231916;}
	.st48{fill:#E60013;}
	.st49{fill:#C0231E;}
	.st50{fill:#014E84;}
	.st51{fill:#BA783E;}
	.st52{fill:#002052;}
	.st53{fill:#0093D0;}
	.st54{fill:#ED1B2F;}
	.st55{fill:#E3242B;}
	.st56{fill-rule:evenodd;clip-rule:evenodd;fill:#034EA2;}
	.st57{fill-rule:evenodd;clip-rule:evenodd;fill:#E11837;}
	.st58{fill:#034EA2;}
	.st59{opacity:0.8902;fill:#EB151C;}
	.st60{fill:#1A1A1A;}
	.st61{enable-background:new    ;}
	.st62{fill:#FF6600;}
	.st63{clip-path:url(#SVGID_18_);fill:url(#SVGID_19_);}
	.st64{fill:url(#SVGID_20_);}
	.st65{fill:#B2DB1F;}
	.st66{fill:#FA002C;}
	.st67{fill:#1C2D5B;}
	.st68{fill:#1C4E9D;}
	.st69{fill:#ED192D;}
	.st70{display:inline;fill:#FFFFFF;}
	.st71{display:inline;fill:#00529B;}
	.st72{display:inline;fill:#F47920;}
	.st73{display:inline;fill:url(#SVGID_21_);}
	.st74{display:inline;fill:url(#SVGID_22_);}
	.st75{display:inline;fill:url(#SVGID_23_);}
	.st76{display:inline;fill:url(#SVGID_24_);}
	.st77{display:inline;fill:url(#SVGID_25_);}
	.st78{display:inline;fill:url(#SVGID_26_);}
	.st79{display:inline;fill:url(#SVGID_27_);}
	.st80{display:inline;fill:url(#path3364_4_);}
	.st81{display:inline;fill:url(#path3366_4_);}
	.st82{display:inline;fill:url(#SVGID_28_);}
	.st83{display:inline;fill:url(#SVGID_29_);}
	.st84{display:inline;fill:url(#SVGID_30_);}
	.st85{display:inline;opacity:0.75;fill:#FFFFFF;}
	.st86{display:inline;fill:#ED1B2F;}
	.st87{opacity:0.8902;fill:#FFFFFF;}
	.st88{clip-path:url(#SVGID_32_);fill:#FFFFFF;}
	.st89{fill:url(#SVGID_33_);}
	.st90{fill:url(#SVGID_34_);}
	.st91{fill:url(#SVGID_35_);}
	.st92{fill:url(#SVGID_36_);}
	.st93{fill:url(#SVGID_37_);}
	.st94{fill:url(#SVGID_38_);}
	.st95{fill:url(#SVGID_39_);}
	.st96{fill:url(#SVGID_40_);}
	.st97{clip-path:url(#SVGID_42_);fill:url(#SVGID_43_);}
	.st98{fill:url(#SVGID_44_);}
	.st99{fill:url(#path70_5_);}
	.st100{fill:url(#SVGID_45_);}
	.st101{fill:url(#SVGID_46_);}
	.st102{fill:#F8B900;}
	.st103{fill:#00235F;}
	.st104{fill:url(#SVGID_47_);}
	.st105{fill:url(#SVGID_48_);}
	.st106{fill:url(#SVGID_49_);}
	.st107{fill:url(#SVGID_50_);}
	.st108{fill:url(#SVGID_51_);}
	.st109{fill:url(#SVGID_52_);}
	.st110{opacity:0.8902;fill:#EB151C;enable-background:new    ;}
	.st111{fill:#E11837;}
	.st112{fill:#E2231A;}
	.st113{fill:#001689;}
	.st114{fill:#EF3E34;}
	.st115{fill:#4D82C4;}
	.st116{fill:#8C7035;}
	.st117{fill:#5FBA45;}
	.st118{fill:#008F7E;}
	.st119{fill:#004595;}
	.st120{fill:#FFED00;}
	.st121{fill:#E53138;}
	.st122{fill:url(#SVGID_53_);}
	.st123{fill:url(#SVGID_54_);}
	.st124{fill:url(#SVGID_55_);}
	.st125{fill:url(#SVGID_56_);}
	.st126{fill:#11185E;}
	.st127{fill:#EE3024;}
	.st128{fill:#0675CC;}
	.st129{fill:#E2001A;}
	.st130{fill:#009036;}
	.st131{fill:#0B1560;}
	.st132{fill:#0070AF;}
	.st133{fill:#0F2C64;}
	.st134{fill:#EF001E;}
	.st135{fill:#1C2A8D;}
	.st136{fill:#334357;}
	.st137{fill:url(#SVGID_57_);}
	.st138{fill:#ED1B28;}
	.st139{fill:#1E5AAF;}
	.st140{fill:#991933;}
	.st141{fill:#E01933;}
	.st142{fill:#003366;}
	.st143{fill:#00265D;}
	.st144{fill:#003263;}
	.st145{fill:#EE452A;}
	.st146{fill:#011F65;}
	.st147{fill:#EC2227;}
	.st148{fill:#010101;}
	.st149{fill:#FCEE21;}
	.st150{fill:#18488B;}
	.st151{fill:#EC2427;}
	.st152{fill:#D09B2B;}
	.st153{fill:#156192;}
	.st154{fill:#021A31;}
	.st155{fill:#008E8F;}
	.st156{fill:#2B438F;}
	.st157{fill:#363F9E;}
	.st158{fill:#00ABBF;}
</style>
<g id="Layer_1" class="st0">
</g>
<g id="Layer_2" class="st0">
</g>
<g id="Layer_3">
	<g>
		<g>
			<path class="st30" d="M120.922,9.568c-1.557,0.53-3.201,0.921-5.033,1.194l-0.082,0.012v0.582l0.089,0.008
				c1.986,0.144,2.528,0.839,2.528,3.233v5.678c0,4.229,0,4.991-2.447,4.991h-0.245v0.715h8.495v-0.715h-0.247
				c-2.414,0-2.485-0.71-2.485-4.991v-4.973c0-1.199,0.061-2.266,0.801-3.156c0.79-0.937,1.964-1.498,3.143-1.498
				c2.17,0,3.272,1.464,3.272,4.356v5.271c0,4.28-0.068,4.991-2.447,4.991h-0.247v0.715h8.496v-0.715h-0.246
				c-2.408,0-2.485-0.792-2.485-4.991v-5.309c0-3.456-1.448-5.486-5.152-5.486c-2.09,0-3.598,0.562-5.153,1.995
				c-0.031-0.314-0.211-1.812-0.211-1.812l-0.315-0.105L120.922,9.568"/>
			<path class="st30" d="M107.956,20.896v-4.324c-0.64,0.366-1.243,0.683-1.829,0.988c-2.454,1.277-4.268,2.35-4.268,4.914
				c0,1.717,1.159,3.013,2.715,3.013C106.753,25.486,107.956,23.82,107.956,20.896 M114.279,25.499
				c-0.754,0.665-1.784,1.042-2.97,1.042c-1.93,0-2.901-0.561-3.411-1.754c-1.091,1.279-2.427,1.754-4.334,1.754
				c-2.941,0-4.928-1.534-4.928-4.171c0-2.847,2.53-4.217,5.964-5.276l0.256-0.078c1.726-0.532,3.066-1.124,3.066-2.595v-0.729
				c0-2.195-1.009-3.347-2.858-3.347c-1.438,0-2.034,0.674-2.211,2.141c-0.091,0.764-0.413,1.679-1.526,1.679
				c-0.922,0-1.517-0.552-1.517-1.405c0-1.922,2.221-3.28,5.519-3.28c4.051,0,5.626,1.619,5.626,4.929v8.108
				c0,2.14,0.356,2.896,1.366,2.896c0.512,0,1.005-0.166,1.509-0.534L114.279,25.499z"/>
			<path class="st30" d="M16.171,16.003H7.422l-0.691,1.726c-0.842,2.106-1.36,3.965-1.363,4.975
				c-0.006,1.61,1.137,2.318,3.341,2.615v0.661H0v-0.687c2.581-0.15,3.754-3.411,6.576-10.295L12.726,0h0.812l7.751,19.039
				c1.616,3.968,2.468,6.178,4.9,6.254v0.687H15.62v-0.687c2.058-0.111,3.131-0.68,3.136-1.954c0.001-0.671-0.353-1.687-0.928-3.14
				L16.171,16.003 M7.829,14.989h7.941l-3.945-9.978L7.829,14.989z"/>
			<path class="st30" d="M42.05,10.042h-5.669v0.715h0.284c2.371,0,2.447,0.786,2.447,4.954v4.748c0,1.489-0.059,2.532-0.837,3.453
				c-0.79,0.939-1.964,1.538-3.143,1.538c-2.173,0-3.271-1.503-3.271-4.391V10.042H26.06v0.715h0.283
				c2.373,0,2.448,0.786,2.448,4.954v5.21c0,3.612,1.537,5.62,5.305,5.62c2.122,0,3.542-0.636,5.017-1.972v1.796L40,26.238
				c1.569-0.225,3.05-0.438,4.495-0.598l0.084-0.01v-0.586l-0.088-0.006c-1.841-0.142-2.344-0.828-2.344-3.196V10.042L42.05,10.042"
				/>
			<path class="st30" d="M48.199,13.872c0,2.922,2.402,3.894,4.959,5.318c1.72,0.968,2.948,2.001,2.948,3.621
				c0,1.604-1.098,2.751-2.747,2.751c-2.436,0-3.88-1.263-4.847-4.862l-0.019-0.072h-0.506v5.652h0.483l0.028-0.041
				c0.372-0.522,0.684-0.745,1.044-0.745c0.167,0,0.424,0.118,0.753,0.267c0.685,0.311,1.801,0.781,3.287,0.781
				c3.146,0,5.336-2.069,5.336-4.924c0-1.384-0.538-2.456-1.448-3.369c-0.827-0.832-2.109-1.563-3.547-2.327
				c-2.024-1.108-3.363-1.806-3.363-3.395c0-1.333,1.087-2.144,2.492-2.144c1.976,0,3.442,1.435,4.022,4.151l0.017,0.075h0.51V9.742
				h-0.497L57.079,9.8c-0.172,0.415-0.367,0.576-0.696,0.576c-0.164,0-0.413-0.109-0.729-0.247
				c-0.624-0.274-1.594-0.649-2.751-0.649C50.217,9.48,48.199,11.323,48.199,13.872"/>
			<path class="st30" d="M72.147,25.219c-0.843,0.877-2.027,1.322-3.531,1.322c-2.988,0-4.397-1.356-4.397-3.993
				c0-2.472,0.143-11.564,0.143-11.564H62.31v-0.896l0.082-0.013c2.161-0.361,3.345-1.591,4.226-4.305l0.02-0.066h0.67h0.095
				l-0.037,4.339h4.126v0.941h-4.127l-0.074,10.466v0.448c0,2.229,0.629,3.478,2.447,3.478c0.761,0,1.355-0.223,1.898-0.744
				L72.147,25.219"/>
			<path class="st30" d="M78.776,9.568c-1.554,0.53-3.198,0.921-5.033,1.194l-0.082,0.012v0.582l0.089,0.008
				c1.986,0.144,2.53,0.839,2.53,3.233v5.678c0,4.229,0,4.991-2.447,4.991h-0.247v0.715h8.909v-0.715h-0.321
				c-1.44,0-2.072-0.227-2.412-0.866c-0.381-0.715-0.41-2.053-0.41-4.013V17.17c0-3.745,1.42-6.186,2.747-6.186
				c0.641,0,0.95,0.391,1.277,0.89c0.35,0.53,0.747,1.129,1.603,1.129c0.886,0,1.48-0.563,1.48-1.406c0-1.3-1.14-2.116-2.827-2.116
				c-1.784,0-3.31,0.931-4.355,3.046c-0.009-1.187-0.057-1.952-0.149-2.804l-0.006-0.06l-0.314-0.105L78.776,9.568"/>
			<path class="st30" d="M89.779,3.424c0,1.052,0.764,1.817,1.818,1.817c1.069,0,1.817-0.747,1.817-1.817
				c0-0.966-0.85-1.817-1.817-1.817C90.629,1.607,89.779,2.458,89.779,3.424"/>
			<path class="st30" d="M93.066,9.552c-1.671,0.471-3.415,0.85-5.487,1.197L87.5,10.762v0.582l0.089,0.006
				c1.985,0.144,2.528,0.839,2.528,3.231v5.691c0,4.229,0,4.992-2.447,4.992h-0.247v0.715h8.496v-0.715h-0.245
				c-2.418,0-2.486-0.71-2.486-4.992V9.518L93.066,9.552"/>
			<g>
				<g>
					<g>
						<g>
							<defs>
								<path id="SVGID_41_" d="M158.856,22.513c0,0-1.431,0.271-2.371,0.459c0,0,3.31-0.556,4.364,0.681
									c1.104,1.292,2.734,4.536-10.401,16.062c-4.351,3.811-9.21,7.211-12.911,9.634l8.618-1.393
									c4.011-3.816,14.602-12.444,24.01-17.38c15.283-8.014,27.434-12.422,29.836-13.213v-0.138
									C197.14,17.444,176.134,19.124,158.856,22.513"/>
							</defs>
							<clipPath id="SVGID_1_">
								<use xlink:href="#SVGID_41_"  style="overflow:visible;"/>
							</clipPath>
							
								<linearGradient id="SVGID_2_" gradientUnits="userSpaceOnUse" x1="-582.3748" y1="-2404.7852" x2="-581.09" y2="-2404.7852" gradientTransform="matrix(3.6591 17.2146 54.1467 -11.5092 132508.25 -17631.0488)">
								<stop  offset="0" style="stop-color:#ED1C24"/>
								<stop  offset="0.197" style="stop-color:#E91C24"/>
								<stop  offset="0.3514" style="stop-color:#E11B22"/>
								<stop  offset="0.4913" style="stop-color:#D41920"/>
								<stop  offset="0.6218" style="stop-color:#C3151C"/>
								<stop  offset="0.7247" style="stop-color:#B01116"/>
								<stop  offset="1" style="stop-color:#B01116"/>
							</linearGradient>
							<polygon style="clip-path:url(#SVGID_1_);fill:url(#SVGID_2_);" points="197.3,4.52 206.532,47.96 140.237,62.052 
								131.002,18.612 							"/>
						</g>
					</g>
				</g>
				
					<linearGradient id="SVGID_3_" gradientUnits="userSpaceOnUse" x1="-889.3287" y1="523.9794" x2="-871.2122" y2="523.9794" gradientTransform="matrix(1 0 0 1 1032.5 -498.9619)">
					<stop  offset="0.1065" style="stop-color:#ED1C24"/>
					<stop  offset="0.1906" style="stop-color:#E61B23"/>
					<stop  offset="0.3052" style="stop-color:#D91921"/>
					<stop  offset="0.437" style="stop-color:#C3151C"/>
					<stop  offset="0.5019" style="stop-color:#B61318"/>
					<stop  offset="0.7021" style="stop-color:#8A0304"/>
					<stop  offset="0.7795" style="stop-color:#790000"/>
				</linearGradient>
				<path class="st8" d="M156.484,22.971l-13.27,2.979l-0.019,0.006l-0.024,0.022l0.024,0.024l0.023,0.003l7.861,1.182
					c4.91-2.281,8.115-2.977,10.208-2.886c-0.002-0.003-0.003-0.008-0.006-0.012c-0.001-0.001-0.003-0.003-0.003-0.006
					c-0.003-0.008-0.006-0.012-0.01-0.02c-0.001,0-0.001,0-0.001,0c-0.003-0.009-0.006-0.014-0.01-0.021
					c0,0-0.001-0.003-0.002-0.006c-0.122-0.229-0.265-0.417-0.401-0.577c-0.003-0.003-0.005-0.007-0.008-0.008
					c-0.21-0.247-0.51-0.422-0.856-0.544c-0.566-0.202-1.253-0.261-1.872-0.261C157.228,22.847,156.484,22.971,156.484,22.971"/>
			</g>
		</g>
	</g>
</g>
<g id="Layer_4">
</g>
</svg>
