<?xml version="1.0" encoding="utf-8"?>
<!-- Generator: Adobe Illustrator 18.0.0, SVG Export Plug-In . SVG Version: 6.00 Build 0)  -->
<!DOCTYPE svg PUBLIC "-//W3C//DTD SVG 1.1//EN" "http://www.w3.org/Graphics/SVG/1.1/DTD/svg11.dtd">
<svg version="1.1" xmlns="http://www.w3.org/2000/svg" xmlns:xlink="http://www.w3.org/1999/xlink" x="0px" y="0px" width="200px"
	 height="36.826px" viewBox="0 0 200 36.826" style="enable-background:new 0 0 200 36.826;" xml:space="preserve">
<style type="text/css">
	.st0{display:none;}
	.st1{display:inline;}
	.st2{fill:#ED2D27;}
	.st3{display:inline;fill:#F8B900;}
	.st4{display:inline;fill:#00235F;}
	.st5{fill:url(#SVGID_1_);}
	.st6{fill:#006CB6;}
	.st7{fill:url(#SVGID_2_);}
	.st8{fill:url(#SVGID_3_);}
	.st9{fill:url(#SVGID_4_);}
	.st10{fill:url(#SVGID_5_);}
	.st11{fill:url(#SVGID_6_);}
	.st12{fill-rule:evenodd;clip-rule:evenodd;fill:#FFFFFF;}
	.st13{fill-rule:evenodd;clip-rule:evenodd;fill:#E2231A;}
	.st14{fill:#FFFFFF;}
	.st15{fill-rule:evenodd;clip-rule:evenodd;fill:#001689;}
	.st16{fill:#00529B;}
	.st17{fill:#F47920;}
	.st18{fill:url(#SVGID_7_);}
	.st19{fill:url(#SVGID_8_);}
	.st20{fill:url(#SVGID_9_);}
	.st21{fill:url(#SVGID_10_);}
	.st22{fill:url(#SVGID_11_);}
	.st23{fill:url(#SVGID_12_);}
	.st24{fill:url(#SVGID_13_);}
	.st25{fill:#00054C;}
	.st26{fill:url(#path3364_3_);}
	.st27{fill:url(#path3366_3_);}
	.st28{fill:#22356B;}
	.st29{fill:#FCC210;}
	.st30{fill:#ED1C24;}
	.st31{display:inline;fill:url(#SVGID_14_);}
	.st32{fill:#002157;}
	.st33{fill:#CC2234;}
	.st34{fill:#E23546;}
	.st35{fill:#FCB130;}
	.st36{fill:#1D4886;}
	.st37{display:inline;fill:none;}
	.st38{display:inline;fill:#005DAA;}
	.st39{fill:#005DAA;}
	.st40{fill:#00A1E4;}
	.st41{fill:#00704A;}
	.st42{fill:#B10D28;}
	.st43{fill:#D31245;}
	.st44{fill:url(#path70_3_);}
	.st45{fill:url(#SVGID_15_);}
	.st46{fill:url(#SVGID_16_);}
	.st47{fill:#231916;}
	.st48{fill:#E60013;}
	.st49{fill:#C0231E;}
	.st50{fill:#014E84;}
	.st51{fill:#BA783E;}
	.st52{fill:#002052;}
	.st53{fill:#0093D0;}
	.st54{fill:#ED1B2F;}
	.st55{fill:#E3242B;}
	.st56{fill-rule:evenodd;clip-rule:evenodd;fill:#034EA2;}
	.st57{fill-rule:evenodd;clip-rule:evenodd;fill:#E11837;}
	.st58{fill:#034EA2;}
	.st59{opacity:0.8902;fill:#EB151C;}
	.st60{fill:#1A1A1A;}
	.st61{enable-background:new    ;}
	.st62{fill:#FF6600;}
	.st63{clip-path:url(#SVGID_18_);fill:url(#SVGID_19_);}
	.st64{fill:url(#SVGID_20_);}
	.st65{fill:#B2DB1F;}
	.st66{fill:#FA002C;}
	.st67{fill:#1C2D5B;}
	.st68{fill:#1C4E9D;}
	.st69{fill:#ED192D;}
	.st70{display:inline;fill:#FFFFFF;}
	.st71{display:inline;fill:#00529B;}
	.st72{display:inline;fill:#F47920;}
	.st73{display:inline;fill:url(#SVGID_21_);}
	.st74{display:inline;fill:url(#SVGID_22_);}
	.st75{display:inline;fill:url(#SVGID_23_);}
	.st76{display:inline;fill:url(#SVGID_24_);}
	.st77{display:inline;fill:url(#SVGID_25_);}
	.st78{display:inline;fill:url(#SVGID_26_);}
	.st79{display:inline;fill:url(#SVGID_27_);}
	.st80{display:inline;fill:url(#path3364_4_);}
	.st81{display:inline;fill:url(#path3366_4_);}
	.st82{display:inline;fill:url(#SVGID_28_);}
	.st83{display:inline;fill:url(#SVGID_29_);}
	.st84{display:inline;fill:url(#SVGID_30_);}
	.st85{display:inline;opacity:0.75;fill:#FFFFFF;}
	.st86{display:inline;fill:#ED1B2F;}
	.st87{opacity:0.8902;fill:#FFFFFF;}
	.st88{clip-path:url(#SVGID_32_);fill:#FFFFFF;}
	.st89{fill:url(#SVGID_33_);}
	.st90{fill:url(#SVGID_34_);}
	.st91{fill:url(#SVGID_35_);}
	.st92{fill:url(#SVGID_36_);}
	.st93{fill:url(#SVGID_37_);}
	.st94{fill:url(#SVGID_38_);}
	.st95{fill:url(#SVGID_39_);}
	.st96{fill:url(#SVGID_40_);}
	.st97{clip-path:url(#SVGID_42_);fill:url(#SVGID_43_);}
	.st98{fill:url(#SVGID_44_);}
	.st99{fill:url(#path70_5_);}
	.st100{fill:url(#SVGID_45_);}
	.st101{fill:url(#SVGID_46_);}
	.st102{fill:#F8B900;}
	.st103{fill:#00235F;}
	.st104{fill:url(#SVGID_47_);}
	.st105{fill:url(#SVGID_48_);}
	.st106{fill:url(#SVGID_49_);}
	.st107{fill:url(#SVGID_50_);}
	.st108{fill:url(#SVGID_51_);}
	.st109{fill:url(#SVGID_52_);}
	.st110{opacity:0.8902;fill:#EB151C;enable-background:new    ;}
	.st111{fill:#E11837;}
	.st112{fill:#E2231A;}
	.st113{fill:#001689;}
	.st114{fill:#EF3E34;}
	.st115{fill:#4D82C4;}
	.st116{fill:#8C7035;}
	.st117{fill:#5FBA45;}
	.st118{fill:#008F7E;}
	.st119{fill:#004595;}
	.st120{fill:#FFED00;}
	.st121{fill:#E53138;}
	.st122{fill:url(#SVGID_53_);}
	.st123{fill:url(#SVGID_54_);}
	.st124{fill:url(#SVGID_55_);}
	.st125{fill:url(#SVGID_56_);}
	.st126{fill:#11185E;}
	.st127{fill:#EE3024;}
	.st128{fill:#0675CC;}
	.st129{fill:#E2001A;}
	.st130{fill:#009036;}
	.st131{fill:#0B1560;}
	.st132{fill:#0070AF;}
	.st133{fill:#0F2C64;}
	.st134{fill:#EF001E;}
	.st135{fill:#1C2A8D;}
	.st136{fill:#334357;}
	.st137{fill:url(#SVGID_57_);}
	.st138{fill:#ED1B28;}
	.st139{fill:#1E5AAF;}
	.st140{fill:#991933;}
	.st141{fill:#E01933;}
	.st142{fill:#003366;}
	.st143{fill:#00265D;}
	.st144{fill:#003263;}
	.st145{fill:#EE452A;}
	.st146{fill:#011F65;}
	.st147{fill:#EC2227;}
	.st148{fill:#010101;}
	.st149{fill:#FCEE21;}
	.st150{fill:#18488B;}
	.st151{fill:#EC2427;}
	.st152{fill:#D09B2B;}
	.st153{fill:#156192;}
	.st154{fill:#021A31;}
	.st155{fill:#008E8F;}
	.st156{fill:#2B438F;}
	.st157{fill:#363F9E;}
	.st158{fill:#00ABBF;}
</style>
<g id="Layer_1" class="st0">
</g>
<g id="Layer_2" class="st0">
</g>
<g id="Layer_3">
</g>
<g id="Layer_4">
	<polygon class="st154" points="72.713,17.436 72.713,28.147 72.713,36.669 75.215,36.669 75.215,28.147 75.215,17.436 	"/>
	<path class="st154" d="M81.392,20.25v-2.814h-2.424v10.711v8.522h2.424v-8.522v-2.737c0-1.486,0.469-2.893,1.329-3.909
		c0.938-1.173,2.424-1.799,4.144-1.955v-2.58C84.832,17.123,82.643,17.514,81.392,20.25z"/>
	<path class="st154" d="M101.095,12.979c-2.033-1.329-5.239-2.111-8.367-2.111h-1.642l0.078,2.189H91.4
		c3.831,0,6.255,0.469,8.522,1.955c2.737,2.033,4.457,5.16,4.457,8.678c0,1.72-0.391,3.205-0.938,4.457
		c-0.86,1.954-2.19,3.284-3.128,4.066c-2.971,2.11-6.567,2.11-8.913,2.11h-6.255v2.345h7.584c3.128,0,6.334-0.782,8.367-2.11
		c2.814-1.798,4.3-4.222,5.082-6.412c0.625-1.72,0.782-3.284,0.782-4.301C106.959,20.72,105.629,15.794,101.095,12.979z"/>
	<path class="st154" d="M117.514,16.654c-5.082,0-10.008,4.144-10.008,10.242c0,0.47,0,0.86,0.078,1.251
		c0.625,4.692,4.77,8.679,9.93,8.679c5.238,0,9.304-3.987,10.007-8.679c0.079-0.469,0.079-0.938,0.079-1.407
		C127.6,21.501,123.221,16.654,117.514,16.654z M125.02,28.147c-0.704,4.144-4.145,6.489-7.506,6.489
		c-3.519,0-6.802-2.658-7.428-6.489c-0.079-0.391-0.157-0.86-0.157-1.251c0-5.082,4.145-7.975,7.585-7.975
		c3.361,0,7.661,2.659,7.661,7.741C125.176,27.209,125.098,27.678,125.02,28.147z"/>
	<polygon class="st154" points="128.773,11.572 128.773,28.147 128.773,36.669 131.274,36.669 131.274,28.147 131.274,11.572 	"/>
	<path class="st154" d="M142.455,16.654c-5.082,0-10.008,4.144-10.008,10.242c0,0.47,0,0.86,0.079,1.251
		c0.625,4.692,4.769,8.679,9.929,8.679c5.239,0,9.304-3.987,10.008-8.679c0.078-0.469,0.078-0.938,0.078-1.407
		C152.541,21.501,148.163,16.654,142.455,16.654z M149.961,28.147c-0.703,4.144-4.144,6.489-7.428,6.489
		c-3.596,0-6.88-2.658-7.506-6.489c-0.078-0.391-0.156-0.86-0.156-1.251c0-5.082,4.143-7.975,7.661-7.975
		c3.284,0,7.585,2.659,7.585,7.741C150.118,27.209,150.039,27.678,149.961,28.147z"/>
	<path class="st154" d="M174.747,16.967c-2.738,0-5.005,1.251-6.49,3.675c-1.33-2.345-3.675-3.675-6.49-3.675
		c-2.188,0-4.143,1.016-5.238,2.736v-2.267h-2.423v10.711v8.522h2.423v-8.522v-2.58c0-4.144,2.033-6.411,5.238-6.411
		c3.285,0,5.239,2.267,5.239,6.411v2.58v8.522h2.501v-8.522v-2.58c0-4.144,1.955-6.411,5.24-6.411c3.205,0,5.238,2.267,5.238,6.411
		v2.58v8.522h2.423v-8.522v-2.893C182.408,20.173,179.281,16.967,174.747,16.967z"/>
	<polygon class="st154" points="184.91,17.436 184.91,28.147 184.91,36.669 187.334,36.669 187.334,28.147 187.334,17.436 	"/>
	<polygon class="st154" points="192.885,17.436 192.885,11.572 190.461,11.572 190.461,28.147 190.461,36.669 192.885,36.669 
		192.885,28.147 192.885,19.703 195.387,19.703 195.387,17.436 	"/>
	<polygon class="st154" points="197.499,17.436 197.499,28.147 197.499,36.669 200,36.669 200,28.147 200,17.436 	"/>
	<path class="st154" d="M66.928,11.572h-0.86L55.356,28.147l-5.473,8.522h3.362l5.395-8.522l0.156-0.235h8.132v0.235v8.522h2.814
		v-8.522V11.572H66.928z M66.928,25.567H60.36l6.568-10.242V25.567z"/>
	<rect x="197.499" y="11.572" class="st154" width="2.501" height="3.518"/>
	<rect x="184.91" y="11.572" class="st154" width="2.424" height="3.518"/>
	<rect x="72.713" y="10.712" class="st154" width="2.502" height="4.378"/>
	<polygon class="st155" points="15.012,0 0,17.201 17.201,17.201 32.213,0 	"/>
	<polygon class="st155" points="17.201,18.843 0,18.843 15.012,35.966 32.213,35.966 	"/>
	<polygon class="st155" points="35.262,8.678 18.764,18.061 35.105,27.522 51.759,18.218 	"/>
</g>
</svg>
