<?xml version="1.0" encoding="utf-8"?>
<!-- Generator: Adobe Illustrator 18.0.0, SVG Export Plug-In . SVG Version: 6.00 Build 0)  -->
<!DOCTYPE svg PUBLIC "-//W3C//DTD SVG 1.1//EN" "http://www.w3.org/Graphics/SVG/1.1/DTD/svg11.dtd">
<svg version="1.1" xmlns="http://www.w3.org/2000/svg" xmlns:xlink="http://www.w3.org/1999/xlink" x="0px" y="0px" width="200px"
	 height="44.073px" viewBox="0 0 200 44.073" style="enable-background:new 0 0 200 44.073;" xml:space="preserve">
<style type="text/css">
	.st0{display:none;}
	.st1{display:inline;}
	.st2{fill:#ED2D27;}
	.st3{display:inline;fill:#F8B900;}
	.st4{display:inline;fill:#00235F;}
	.st5{fill:url(#SVGID_1_);}
	.st6{fill:#006CB6;}
	.st7{fill:url(#SVGID_2_);}
	.st8{fill:url(#SVGID_3_);}
	.st9{fill:url(#SVGID_4_);}
	.st10{fill:url(#SVGID_5_);}
	.st11{fill:url(#SVGID_6_);}
	.st12{fill-rule:evenodd;clip-rule:evenodd;fill:#FFFFFF;}
	.st13{fill-rule:evenodd;clip-rule:evenodd;fill:#E2231A;}
	.st14{fill:#FFFFFF;}
	.st15{fill-rule:evenodd;clip-rule:evenodd;fill:#001689;}
	.st16{fill:#00529B;}
	.st17{fill:#F47920;}
	.st18{fill:url(#SVGID_7_);}
	.st19{fill:url(#SVGID_8_);}
	.st20{fill:url(#SVGID_9_);}
	.st21{fill:url(#SVGID_10_);}
	.st22{fill:url(#SVGID_11_);}
	.st23{fill:url(#SVGID_12_);}
	.st24{fill:url(#SVGID_13_);}
	.st25{fill:#00054C;}
	.st26{fill:url(#path3364_3_);}
	.st27{fill:url(#path3366_3_);}
	.st28{fill:#22356B;}
	.st29{fill:#FCC210;}
	.st30{fill:#ED1C24;}
	.st31{display:inline;fill:url(#SVGID_14_);}
	.st32{fill:#002157;}
	.st33{fill:#CC2234;}
	.st34{fill:#E23546;}
	.st35{fill:#FCB130;}
	.st36{fill:#1D4886;}
	.st37{display:inline;fill:none;}
	.st38{display:inline;fill:#005DAA;}
	.st39{fill:#005DAA;}
	.st40{fill:#00A1E4;}
	.st41{fill:#00704A;}
	.st42{fill:#B10D28;}
	.st43{fill:#D31245;}
	.st44{fill:url(#path70_3_);}
	.st45{fill:url(#SVGID_15_);}
	.st46{fill:url(#SVGID_16_);}
	.st47{fill:#231916;}
	.st48{fill:#E60013;}
	.st49{fill:#C0231E;}
	.st50{fill:#014E84;}
	.st51{fill:#BA783E;}
	.st52{fill:#002052;}
	.st53{fill:#0093D0;}
	.st54{fill:#ED1B2F;}
	.st55{fill:#E3242B;}
	.st56{fill-rule:evenodd;clip-rule:evenodd;fill:#034EA2;}
	.st57{fill-rule:evenodd;clip-rule:evenodd;fill:#E11837;}
	.st58{fill:#034EA2;}
	.st59{opacity:0.8902;fill:#EB151C;}
	.st60{fill:#1A1A1A;}
	.st61{enable-background:new    ;}
	.st62{fill:#FF6600;}
	.st63{clip-path:url(#SVGID_18_);fill:url(#SVGID_19_);}
	.st64{fill:url(#SVGID_20_);}
	.st65{fill:#B2DB1F;}
	.st66{fill:#FA002C;}
	.st67{fill:#1C2D5B;}
	.st68{fill:#1C4E9D;}
	.st69{fill:#ED192D;}
	.st70{display:inline;fill:#FFFFFF;}
	.st71{display:inline;fill:#00529B;}
	.st72{display:inline;fill:#F47920;}
	.st73{display:inline;fill:url(#SVGID_21_);}
	.st74{display:inline;fill:url(#SVGID_22_);}
	.st75{display:inline;fill:url(#SVGID_23_);}
	.st76{display:inline;fill:url(#SVGID_24_);}
	.st77{display:inline;fill:url(#SVGID_25_);}
	.st78{display:inline;fill:url(#SVGID_26_);}
	.st79{display:inline;fill:url(#SVGID_27_);}
	.st80{display:inline;fill:url(#path3364_4_);}
	.st81{display:inline;fill:url(#path3366_4_);}
	.st82{display:inline;fill:url(#SVGID_28_);}
	.st83{display:inline;fill:url(#SVGID_29_);}
	.st84{display:inline;fill:url(#SVGID_30_);}
	.st85{display:inline;opacity:0.75;fill:#FFFFFF;}
	.st86{display:inline;fill:#ED1B2F;}
	.st87{opacity:0.8902;fill:#FFFFFF;}
	.st88{clip-path:url(#SVGID_32_);fill:#FFFFFF;}
	.st89{fill:url(#SVGID_33_);}
	.st90{fill:url(#SVGID_34_);}
	.st91{fill:url(#SVGID_35_);}
	.st92{fill:url(#SVGID_36_);}
	.st93{fill:url(#SVGID_37_);}
	.st94{fill:url(#SVGID_38_);}
	.st95{fill:url(#SVGID_39_);}
	.st96{fill:url(#SVGID_40_);}
	.st97{clip-path:url(#SVGID_42_);fill:url(#SVGID_43_);}
	.st98{fill:url(#SVGID_44_);}
	.st99{fill:url(#path70_5_);}
	.st100{fill:url(#SVGID_45_);}
	.st101{fill:url(#SVGID_46_);}
	.st102{fill:#F8B900;}
	.st103{fill:#00235F;}
	.st104{fill:url(#SVGID_47_);}
	.st105{fill:url(#SVGID_48_);}
	.st106{fill:url(#SVGID_49_);}
	.st107{fill:url(#SVGID_50_);}
	.st108{fill:url(#SVGID_51_);}
	.st109{fill:url(#SVGID_52_);}
	.st110{opacity:0.8902;fill:#EB151C;enable-background:new    ;}
	.st111{fill:#E11837;}
	.st112{fill:#E2231A;}
	.st113{fill:#001689;}
	.st114{fill:#EF3E34;}
	.st115{fill:#4D82C4;}
	.st116{fill:#8C7035;}
	.st117{fill:#5FBA45;}
	.st118{fill:#008F7E;}
	.st119{fill:#004595;}
	.st120{fill:#FFED00;}
	.st121{fill:#E53138;}
	.st122{fill:url(#SVGID_53_);}
	.st123{fill:url(#SVGID_54_);}
	.st124{fill:url(#SVGID_55_);}
	.st125{fill:url(#SVGID_56_);}
	.st126{fill:#11185E;}
	.st127{fill:#EE3024;}
	.st128{fill:#0675CC;}
	.st129{fill:#E2001A;}
	.st130{fill:#009036;}
	.st131{fill:#0B1560;}
	.st132{fill:#0070AF;}
	.st133{fill:#0F2C64;}
	.st134{fill:#EF001E;}
	.st135{fill:#1C2A8D;}
	.st136{fill:#334357;}
	.st137{fill:url(#SVGID_57_);}
	.st138{fill:#ED1B28;}
	.st139{fill:#1E5AAF;}
	.st140{fill:#991933;}
	.st141{fill:#E01933;}
	.st142{fill:#003366;}
	.st143{fill:#00265D;}
	.st144{fill:#003263;}
	.st145{fill:#EE452A;}
	.st146{fill:#011F65;}
	.st147{fill:#EC2227;}
	.st148{fill:#010101;}
	.st149{fill:#FCEE21;}
	.st150{fill:#18488B;}
	.st151{fill:#EC2427;}
	.st152{fill:#D09B2B;}
	.st153{fill:#156192;}
	.st154{fill:#021A31;}
	.st155{fill:#008E8F;}
	.st156{fill:#2B438F;}
	.st157{fill:#363F9E;}
	.st158{fill:#00ABBF;}
</style>
<g id="Layer_1" class="st0">
</g>
<g id="Layer_2" class="st0">
</g>
<g id="Layer_3">
	<g>
		<g>
			
				<linearGradient id="path70_3_" gradientUnits="userSpaceOnUse" x1="-916.3659" y1="-1506.2635" x2="-915.8659" y2="-1506.2635" gradientTransform="matrix(0 -76.9565 76.9565 0 115987.4297 -70476.7266)">
				<stop  offset="0" style="stop-color:#A61C22"/>
				<stop  offset="0.8" style="stop-color:#DA1C2D"/>
				<stop  offset="1" style="stop-color:#DA1C2D"/>
			</linearGradient>
			<path id="path70_4_" class="st44" d="M123.243,4.399c-1.771,2.633-3.716,5.922-5.853,10.136l0,0
				c-2.155,4.241-4.099,8.588-5.304,11.894l0,0h7.189c0.44-1.378,0.975-2.772,1.542-4.081l0,0h11.813
				c0.571,1.303,1.078,2.616,1.547,4.081l0,0h7.191c-1.28-3.313-3.14-7.631-5.29-11.868l0,0c-2.143-4.219-4.063-7.524-5.868-10.162
				l0,0L123.243,4.399L123.243,4.399z M126.72,9.605c1.483,2.656,2.814,5.35,4.295,8.665l0,0h-8.58
				C123.881,15.019,125.213,12.327,126.72,9.605 M71.706,4.399c-0.351,3.38-0.531,7.404-0.531,11.013l0,0
				c0,3.582,0.178,7.185,0.535,11.017l0,0h6.814c-0.293-2.851-0.437-5.294-0.534-8.178l0,0h6.857
				c0.499,0.552,1.318,1.602,2.179,2.962l0,0c1.002,1.574,1.775,3.125,2.635,5.217l0,0h7.618c-1-1.908-2.083-3.63-3.712-5.926l0,0
				c-0.931-1.31-1.811-2.375-2.617-3.173l0,0c2.858-1.004,4.626-3.417,4.626-6.35l0,0c0-1.677-0.602-3.263-1.648-4.359l0,0
				c-1.487-1.537-3.796-2.222-7.492-2.222l0,0L71.706,4.399L71.706,4.399z M78.195,8.526h5.994c2.206,0,3.28,0.27,3.966,1l0,0
				c0.408,0.409,0.652,1.064,0.652,1.753l0,0c0,1.188-0.613,2.24-1.688,2.898l0,0h-9.133C77.991,12.549,78.06,10.693,78.195,8.526
				 M44.469,4.399c-0.325,3.492-0.535,7.443-0.535,11.027l0,0c0,3.568,0.238,7.485,0.537,11.006l0,0h21.023
				c-0.109-1.469-0.195-2.81-0.273-4.394l0,0H50.91c-0.111-1.65-0.162-3.171-0.165-4.654l0,0h13.202v-4.156H50.745
				c0-1.208,0.042-2.973,0.163-4.438l0,0h14.294c0.071-1.545,0.156-2.843,0.296-4.392l0,0L44.469,4.399L44.469,4.399z M14.465,4.399
				c-0.35,3.291-0.534,7.438-0.534,11.013l0,0c0,3.582,0.163,7.087,0.534,11.017l0,0h12.991c4.597,0,7.427-0.533,9.184-1.733l0,0
				c1.354-0.93,2.193-2.776,2.193-4.822l0,0c0-2.407-1.375-4.33-3.788-5.314l0,0c1.605-0.902,2.626-2.638,2.626-4.515l0,0
				c0-1.739-0.502-2.944-1.63-3.901l0,0c-1.894-1.612-5.366-1.744-9.058-1.744l0,0L14.465,4.399z M20.95,8.567h5.765
				c2.33,0,3.106,0.177,3.772,0.848l0,0c0.342,0.346,0.545,0.953,0.545,1.628l0,0c0,0.932-0.375,1.735-1.06,2.263l0,0h-9.226
				C20.769,11.659,20.835,10.126,20.95,8.567 M20.741,17.298h8.297c1.201,0,1.812,0.163,2.35,0.621l0,0
				c0.504,0.43,0.737,0.963,0.737,1.685l0,0c0,0.758-0.22,1.349-0.671,1.797l0,0c-0.646,0.606-1.556,0.865-3.146,0.865l0,0h-7.36
				C20.805,20.513,20.748,18.746,20.741,17.298 M102.274,4.401c-0.349,3.153-0.546,7.308-0.538,11.201l0,0
				c0.008,3.731,0.156,7.319,0.538,10.828l0,0h5.866c0.397-3.49,0.527-7.088,0.537-10.829l0,0c0.011-3.885-0.212-8.076-0.531-11.2
				l0,0L102.274,4.401L102.274,4.401z M0.537,4.401C0.188,7.553-0.008,11.709,0,15.602l0,0c0.008,3.731,0.155,7.319,0.537,10.828
				l0,0h5.87c0.394-3.49,0.524-7.088,0.535-10.829l0,0c0.01-3.885-0.212-8.076-0.533-11.2l0,0L0.537,4.401L0.537,4.401z"/>
			
				<linearGradient id="SVGID_1_" gradientUnits="userSpaceOnUse" x1="-197.1232" y1="496.3213" x2="-143.5963" y2="496.3213" gradientTransform="matrix(1 0 0 -1 338.5 524.9999)">
				<stop  offset="0" style="stop-color:#A61C22"/>
				<stop  offset="0.5" style="stop-color:#DC1C2E"/>
				<stop  offset="1" style="stop-color:#DC1C2E"/>
			</linearGradient>
			<path class="st5" d="M151.734,33.617l-10.357,10.454v0.001c35.952,0,44.428-8.452,49.374-19.958l4.153-10.83
				C182.791,13.633,164.512,20.773,151.734,33.617z"/>
			
				<linearGradient id="SVGID_2_" gradientUnits="userSpaceOnUse" x1="-174.2699" y1="514.5154" x2="-138.5" y2="514.5154" gradientTransform="matrix(1 0 0 -1 338.5 524.9999)">
				<stop  offset="0" style="stop-color:#ED7417"/>
				<stop  offset="0.85" style="stop-color:#FACD08"/>
				<stop  offset="1" style="stop-color:#FACD08"/>
			</linearGradient>
			<path class="st7" d="M175.884,9.165L164.23,20.969c11.064-7.947,22.098-12.742,33.09-13.98L200,0
				C183.727,0,181.511,3.558,175.884,9.165z"/>
		</g>
	</g>
</g>
<g id="Layer_4">
</g>
</svg>
