<?xml version="1.0" encoding="utf-8"?>
<!-- Generator: Adobe Illustrator 18.0.0, SVG Export Plug-In . SVG Version: 6.00 Build 0)  -->
<!DOCTYPE svg PUBLIC "-//W3C//DTD SVG 1.1//EN" "http://www.w3.org/Graphics/SVG/1.1/DTD/svg11.dtd">
<svg version="1.1" xmlns="http://www.w3.org/2000/svg" xmlns:xlink="http://www.w3.org/1999/xlink" x="0px" y="0px"
	 width="95.499px" height="50px" viewBox="0 0 95.499 50" style="enable-background:new 0 0 95.499 50;" xml:space="preserve">
<style type="text/css">
	.st0{display:none;}
	.st1{display:inline;}
	.st2{fill:#ED2D27;}
	.st3{display:inline;fill:#F8B900;}
	.st4{display:inline;fill:#00235F;}
	.st5{fill:url(#SVGID_1_);}
	.st6{fill:#006CB6;}
	.st7{fill:url(#SVGID_2_);}
	.st8{fill:url(#SVGID_3_);}
	.st9{fill:url(#SVGID_4_);}
	.st10{fill:url(#SVGID_5_);}
	.st11{fill:url(#SVGID_6_);}
	.st12{fill-rule:evenodd;clip-rule:evenodd;fill:#FFFFFF;}
	.st13{fill-rule:evenodd;clip-rule:evenodd;fill:#E2231A;}
	.st14{fill:#FFFFFF;}
	.st15{fill-rule:evenodd;clip-rule:evenodd;fill:#001689;}
	.st16{fill:#00529B;}
	.st17{fill:#F47920;}
	.st18{fill:url(#SVGID_7_);}
	.st19{fill:url(#SVGID_8_);}
	.st20{fill:url(#SVGID_9_);}
	.st21{fill:url(#SVGID_10_);}
	.st22{fill:url(#SVGID_11_);}
	.st23{fill:url(#SVGID_12_);}
	.st24{fill:url(#SVGID_13_);}
	.st25{fill:#00054C;}
	.st26{fill:url(#path3364_3_);}
	.st27{fill:url(#path3366_3_);}
	.st28{fill:#22356B;}
	.st29{fill:#FCC210;}
	.st30{fill:#ED1C24;}
	.st31{display:inline;fill:url(#SVGID_14_);}
	.st32{fill:#002157;}
	.st33{fill:#CC2234;}
	.st34{fill:#E23546;}
	.st35{fill:#FCB130;}
	.st36{fill:#1D4886;}
	.st37{display:inline;fill:none;}
	.st38{display:inline;fill:#005DAA;}
	.st39{fill:#005DAA;}
	.st40{fill:#00A1E4;}
	.st41{fill:#00704A;}
	.st42{fill:#B10D28;}
	.st43{fill:#D31245;}
	.st44{fill:url(#path70_3_);}
	.st45{fill:url(#SVGID_15_);}
	.st46{fill:url(#SVGID_16_);}
	.st47{fill:#231916;}
	.st48{fill:#E60013;}
	.st49{fill:#C0231E;}
	.st50{fill:#014E84;}
	.st51{fill:#BA783E;}
	.st52{fill:#002052;}
	.st53{fill:#0093D0;}
	.st54{fill:#ED1B2F;}
	.st55{fill:#E3242B;}
	.st56{fill-rule:evenodd;clip-rule:evenodd;fill:#034EA2;}
	.st57{fill-rule:evenodd;clip-rule:evenodd;fill:#E11837;}
	.st58{fill:#034EA2;}
	.st59{opacity:0.8902;fill:#EB151C;}
	.st60{fill:#1A1A1A;}
	.st61{enable-background:new    ;}
	.st62{fill:#FF6600;}
	.st63{clip-path:url(#SVGID_18_);fill:url(#SVGID_19_);}
	.st64{fill:url(#SVGID_20_);}
	.st65{fill:#B2DB1F;}
	.st66{fill:#FA002C;}
	.st67{fill:#1C2D5B;}
	.st68{fill:#1C4E9D;}
	.st69{fill:#ED192D;}
	.st70{display:inline;fill:#FFFFFF;}
	.st71{display:inline;fill:#00529B;}
	.st72{display:inline;fill:#F47920;}
	.st73{display:inline;fill:url(#SVGID_21_);}
	.st74{display:inline;fill:url(#SVGID_22_);}
	.st75{display:inline;fill:url(#SVGID_23_);}
	.st76{display:inline;fill:url(#SVGID_24_);}
	.st77{display:inline;fill:url(#SVGID_25_);}
	.st78{display:inline;fill:url(#SVGID_26_);}
	.st79{display:inline;fill:url(#SVGID_27_);}
	.st80{display:inline;fill:url(#path3364_4_);}
	.st81{display:inline;fill:url(#path3366_4_);}
	.st82{display:inline;fill:url(#SVGID_28_);}
	.st83{display:inline;fill:url(#SVGID_29_);}
	.st84{display:inline;fill:url(#SVGID_30_);}
	.st85{display:inline;opacity:0.75;fill:#FFFFFF;}
	.st86{display:inline;fill:#ED1B2F;}
	.st87{opacity:0.8902;fill:#FFFFFF;}
	.st88{clip-path:url(#SVGID_32_);fill:#FFFFFF;}
	.st89{fill:url(#SVGID_33_);}
	.st90{fill:url(#SVGID_34_);}
	.st91{fill:url(#SVGID_35_);}
	.st92{fill:url(#SVGID_36_);}
	.st93{fill:url(#SVGID_37_);}
	.st94{fill:url(#SVGID_38_);}
	.st95{fill:url(#SVGID_39_);}
	.st96{fill:url(#SVGID_40_);}
	.st97{clip-path:url(#SVGID_42_);fill:url(#SVGID_43_);}
	.st98{fill:url(#SVGID_44_);}
	.st99{fill:url(#path70_5_);}
	.st100{fill:url(#SVGID_45_);}
	.st101{fill:url(#SVGID_46_);}
	.st102{fill:#F8B900;}
	.st103{fill:#00235F;}
	.st104{fill:url(#SVGID_47_);}
	.st105{fill:url(#SVGID_48_);}
	.st106{fill:url(#SVGID_49_);}
	.st107{fill:url(#SVGID_50_);}
	.st108{fill:url(#SVGID_51_);}
	.st109{fill:url(#SVGID_52_);}
	.st110{opacity:0.8902;fill:#EB151C;enable-background:new    ;}
	.st111{fill:#E11837;}
	.st112{fill:#E2231A;}
	.st113{fill:#001689;}
	.st114{fill:#EF3E34;}
	.st115{fill:#4D82C4;}
	.st116{fill:#8C7035;}
	.st117{fill:#5FBA45;}
	.st118{fill:#008F7E;}
	.st119{fill:#004595;}
	.st120{fill:#FFED00;}
	.st121{fill:#E53138;}
	.st122{fill:url(#SVGID_53_);}
	.st123{fill:url(#SVGID_54_);}
	.st124{fill:url(#SVGID_55_);}
	.st125{fill:url(#SVGID_56_);}
	.st126{fill:#11185E;}
	.st127{fill:#EE3024;}
	.st128{fill:#0675CC;}
	.st129{fill:#E2001A;}
	.st130{fill:#009036;}
	.st131{fill:#0B1560;}
	.st132{fill:#0070AF;}
	.st133{fill:#0F2C64;}
	.st134{fill:#EF001E;}
	.st135{fill:#1C2A8D;}
	.st136{fill:#334357;}
	.st137{fill:url(#SVGID_57_);}
	.st138{fill:#ED1B28;}
	.st139{fill:#1E5AAF;}
	.st140{fill:#991933;}
	.st141{fill:#E01933;}
	.st142{fill:#003366;}
	.st143{fill:#00265D;}
	.st144{fill:#003263;}
	.st145{fill:#EE452A;}
	.st146{fill:#011F65;}
	.st147{fill:#EC2227;}
	.st148{fill:#010101;}
	.st149{fill:#FCEE21;}
	.st150{fill:#18488B;}
	.st151{fill:#EC2427;}
	.st152{fill:#D09B2B;}
	.st153{fill:#156192;}
	.st154{fill:#021A31;}
	.st155{fill:#008E8F;}
	.st156{fill:#2B438F;}
	.st157{fill:#363F9E;}
	.st158{fill:#00ABBF;}
</style>
<g id="Layer_1" class="st0">
	<g class="st1">
		<g>
			<path class="st15" d="M18.005,39.929l-5.608-14.901H7.55L1.941,39.929h4.357l0.738-2.146h5.876l0.737,2.146H18.005z
				 M11.861,34.433H8.085l1.9-5.609L11.861,34.433z"/>
			<rect x="19.546" y="25.028" class="st15" width="3.843" height="14.901"/>
			<path class="st15" d="M39.23,39.929l-3.039-5.475c1.407-0.492,2.971-1.875,2.971-4.469c0-2.769-1.876-4.957-5.183-4.957h-7.462
				v14.901h3.844v-5.004h1.967l2.501,5.004H39.23z M33.398,31.572H30.36v-3.195h3.038c1.028,0,1.855,0.559,1.855,1.587
				C35.253,31.013,34.427,31.572,33.398,31.572z"/>
			<polygon class="st15" points="51.495,39.929 51.495,36.577 45.508,36.577 45.508,25.028 41.665,25.028 41.665,39.929 			"/>
			<rect x="53.908" y="25.028" class="st15" width="3.842" height="14.901"/>
			<polygon class="st15" points="74.731,39.929 74.731,25.028 70.866,25.028 70.866,33.225 64.832,25.028 60.879,25.028 
				60.879,39.929 64.721,39.929 64.721,31.303 71.022,39.929 			"/>
			<polygon class="st15" points="88.784,39.929 88.784,36.577 81.701,36.577 81.701,34.051 88.627,34.051 88.627,30.702 
				81.701,30.702 81.701,28.377 88.784,28.377 88.784,25.028 77.858,25.028 77.858,39.929 			"/>
			<path class="st15" d="M97.004,40.196c4.001,0,6.212-1.987,6.212-4.981c0-5.541-8.422-4.157-8.422-5.988
				c0-0.649,0.493-1.028,1.608-1.028c1.474,0,3.106,0.512,4.358,1.564l2.099-2.882c-1.585-1.364-3.662-2.078-6.055-2.078
				c-3.82,0-5.921,2.235-5.921,4.735c0,5.742,8.424,4.113,8.424,6.078c0,0.738-0.805,1.185-2.099,1.185
				c-2.055,0-3.711-0.896-4.783-1.968l-2.032,2.994C91.888,39.236,93.989,40.196,97.004,40.196z"/>
			<g>
				<polygon class="st15" points="10.828,20.972 10.828,9.422 14.983,9.422 14.983,6.07 2.807,6.07 2.807,9.422 6.985,9.422 
					6.985,20.972 				"/>
				<path class="st15" d="M24.538,21.241c4.782,0,7.016-2.615,7.016-6.323V6.07h-3.888v8.736c0,1.765-1.072,3.038-3.127,3.038
					c-2.076,0-3.15-1.273-3.15-3.038V6.07h-3.91v8.869C17.479,18.605,19.757,21.241,24.538,21.241z"/>
				<path class="st15" d="M47.915,20.972l-3.038-5.473c1.409-0.492,2.972-1.877,2.972-4.469c0-2.771-1.876-4.96-5.182-4.96h-7.463
					v14.901h3.843v-5.005h1.967l2.501,5.005H47.915z M42.084,12.618h-3.038V9.422h3.038c1.029,0,1.856,0.559,1.856,1.587
					C43.94,12.058,43.113,12.618,42.084,12.618z"/>
				<polygon class="st15" points="64.382,20.972 58.283,13.041 64.069,6.07 59.333,6.07 54.753,12.192 54.753,6.07 50.91,6.07 
					50.91,20.972 54.753,20.972 54.753,16.616 55.757,15.366 59.668,20.972 				"/>
				<rect x="66.459" y="6.07" class="st15" width="3.843" height="14.901"/>
				<path class="st15" d="M79.463,21.241c3.999,0,6.212-1.99,6.212-4.983c0-5.538-8.422-4.155-8.422-5.986
					c0-0.648,0.491-1.028,1.609-1.028c1.473,0,3.103,0.513,4.356,1.564l2.099-2.884c-1.586-1.363-3.665-2.077-6.055-2.077
					c-3.82,0-5.92,2.233-5.92,4.736c0,5.742,8.422,4.111,8.422,6.079c0,0.735-0.805,1.182-2.1,1.182
					c-2.054,0-3.709-0.894-4.782-1.966l-2.033,2.994C74.346,20.279,76.448,21.241,79.463,21.241z"/>
				<polygon class="st15" points="102.275,20.972 102.275,6.07 98.431,6.07 98.431,11.655 92.244,11.655 92.244,6.07 88.401,6.07 
					88.401,20.972 92.244,20.972 92.244,15.007 98.431,15.007 98.431,20.972 				"/>
			</g>
		</g>
	</g>
</g>
<g id="Layer_2" class="st0">
	<g class="st1">
		<path class="st12" d="M18.005,39.929l-5.608-14.901H7.55L1.941,39.929h4.357l0.738-2.146h5.876l0.737,2.146H18.005z
			 M11.861,34.433H8.085l1.9-5.609L11.861,34.433z"/>
		<rect x="19.546" y="25.028" class="st12" width="3.843" height="14.901"/>
		<path class="st12" d="M39.23,39.929l-3.039-5.475c1.407-0.492,2.971-1.875,2.971-4.469c0-2.769-1.876-4.957-5.183-4.957h-7.462
			v14.901h3.844v-5.004h1.967l2.501,5.004H39.23z M33.398,31.572H30.36v-3.195h3.038c1.028,0,1.855,0.559,1.855,1.587
			C35.253,31.013,34.427,31.572,33.398,31.572z"/>
		<polygon class="st12" points="51.495,39.929 51.495,36.577 45.508,36.577 45.508,25.028 41.665,25.028 41.665,39.929 		"/>
		<rect x="53.908" y="25.028" class="st12" width="3.842" height="14.901"/>
		<polygon class="st12" points="74.731,39.929 74.731,25.028 70.866,25.028 70.866,33.225 64.832,25.028 60.879,25.028 
			60.879,39.929 64.721,39.929 64.721,31.303 71.022,39.929 		"/>
		<polygon class="st12" points="88.784,39.929 88.784,36.577 81.701,36.577 81.701,34.051 88.627,34.051 88.627,30.702 
			81.701,30.702 81.701,28.377 88.784,28.377 88.784,25.028 77.858,25.028 77.858,39.929 		"/>
		<path class="st12" d="M97.004,40.196c4.001,0,6.212-1.987,6.212-4.981c0-5.541-8.422-4.157-8.422-5.988
			c0-0.649,0.493-1.028,1.608-1.028c1.474,0,3.106,0.512,4.358,1.564l2.099-2.882c-1.585-1.364-3.662-2.078-6.055-2.078
			c-3.82,0-5.921,2.235-5.921,4.735c0,5.742,8.424,4.113,8.424,6.078c0,0.738-0.805,1.185-2.099,1.185
			c-2.055,0-3.711-0.896-4.783-1.968l-2.032,2.994C91.888,39.236,93.989,40.196,97.004,40.196z"/>
		<g>
			<polygon class="st12" points="10.828,20.972 10.828,9.422 14.983,9.422 14.983,6.07 2.807,6.07 2.807,9.422 6.985,9.422 
				6.985,20.972 			"/>
			<path class="st12" d="M24.538,21.241c4.782,0,7.016-2.615,7.016-6.323V6.07h-3.888v8.736c0,1.765-1.072,3.038-3.127,3.038
				c-2.076,0-3.15-1.273-3.15-3.038V6.07h-3.91v8.869C17.479,18.605,19.757,21.241,24.538,21.241z"/>
			<path class="st12" d="M47.915,20.972l-3.038-5.473c1.409-0.492,2.972-1.877,2.972-4.469c0-2.771-1.876-4.96-5.182-4.96h-7.463
				v14.901h3.843v-5.005h1.967l2.501,5.005H47.915z M42.084,12.618h-3.038V9.422h3.038c1.029,0,1.856,0.559,1.856,1.587
				C43.94,12.058,43.113,12.618,42.084,12.618z"/>
			<polygon class="st12" points="64.382,20.972 58.283,13.041 64.069,6.07 59.333,6.07 54.753,12.192 54.753,6.07 50.91,6.07 
				50.91,20.972 54.753,20.972 54.753,16.616 55.757,15.366 59.668,20.972 			"/>
			<rect x="66.459" y="6.07" class="st12" width="3.843" height="14.901"/>
			<path class="st12" d="M79.463,21.241c3.999,0,6.212-1.99,6.212-4.983c0-5.538-8.422-4.155-8.422-5.986
				c0-0.648,0.491-1.028,1.609-1.028c1.473,0,3.103,0.513,4.356,1.564l2.099-2.884c-1.586-1.363-3.665-2.077-6.055-2.077
				c-3.82,0-5.92,2.233-5.92,4.736c0,5.742,8.422,4.111,8.422,6.079c0,0.735-0.805,1.182-2.1,1.182
				c-2.054,0-3.709-0.894-4.782-1.966l-2.033,2.994C74.346,20.279,76.448,21.241,79.463,21.241z"/>
			<polygon class="st12" points="102.275,20.972 102.275,6.07 98.431,6.07 98.431,11.655 92.244,11.655 92.244,6.07 88.401,6.07 
				88.401,20.972 92.244,20.972 92.244,15.007 98.431,15.007 98.431,20.972 			"/>
		</g>
	</g>
</g>
<g id="Layer_3">
	<g>
		<g>
			<polygon class="st47" points="35.935,44.54 34.871,47.316 33.361,44.54 30.994,44.54 28.968,49.823 31.001,49.823 32.199,46.702 
				33.907,49.823 35.944,49.823 37.973,44.54 			"/>
			<polygon class="st48" points="48.02,29.944 49.439,29.944 49.378,28.254 			"/>
			<g>
				<g>
					<path class="st48" d="M66.167,20.118c0.121-1.171,0.089-2.849-0.092-4.089h-0.031c-0.377,1.801-1.544,4.24-4.063,6.231
						l-0.028-0.036c2.207-2.357,3.527-5.263,3.731-8.257c-0.418-1.648-1.062-3.241-1.877-4.649L63.778,9.33
						c0.448,3.024-0.268,7.018-3.203,10.257l-0.035-0.027c2.527-3.638,3.185-8.068,2.083-12.051C59.256,2.954,53.847,0,47.749,0
						C41.65,0,36.242,2.954,32.874,7.509c-1.103,3.983-0.445,8.413,2.082,12.051l-0.032,0.027c-2.936-3.24-3.65-7.234-3.202-10.257
						l-0.03-0.011c-0.814,1.407-1.46,3.001-1.875,4.649c0.203,2.994,1.521,5.9,3.729,8.257l-0.027,0.036
						c-2.52-1.991-3.686-4.43-4.064-6.231h-0.031c-0.181,1.24-0.213,2.918-0.092,4.089c0.634,1.992,1.993,3.662,3.383,4.866
						l-0.025,0.039c-1.552-0.967-2.421-1.911-3.013-2.745l-0.027,0.01c1.705,8.302,9.148,14.693,18.098,14.693
						c8.952,0,16.393-6.391,18.1-14.693l-0.027-0.01c-0.592,0.833-1.461,1.778-3.013,2.745l-0.024-0.039
						C64.173,23.781,65.531,22.11,66.167,20.118z M40.886,32.179c-0.678,0-1.267-0.07-1.752-0.178l0.43-1.123
						c1.154,0.135,2.143,0.035,2.529-0.973l1.226-3.191h2.521l-1.349,3.516C43.8,32.029,42.097,32.179,40.886,32.179z
						 M49.516,32.001l-0.039-1.041H47.2l-0.839,1.041H44.28l4.222-4.895c0.202-0.233,0.501-0.392,0.775-0.392h2.255l0.505,5.286
						L49.516,32.001L49.516,32.001z M58.438,32.001h-5.723l2.03-5.286h2.522l-1.605,4.166h3.206L58.438,32.001z M56.113,20.833
						c-3.78,3.681-9.432,1.33-8.857-3.187c0.443-3.484,4.715-6.953,7.947-8.838l0.002-0.039c-0.422-0.401-1.3-1.314-1.867-1.998
						c-1.567-1.885-4.308-1.964-5.945,0.103l-9.299,0.867v0.058l9.97,0.576c1.769,0.101,2.345,1.703,0.639,2.996
						c-6.331,4.794-7.46,9.873-6.045,13.896L42.61,25.29c-0.582-0.823-1.016-1.831-1.253-2.888c-3.043-1.911-5.51-5.549-5.51-10.039
						c0-6.529,5.32-11.904,11.902-11.904s11.904,5.375,11.904,11.904C59.652,15.894,58.104,18.894,56.113,20.833z"/>
				</g>
			</g>
			<path class="st47" d="M95.467,46.079c0.238-1.274-0.884-1.7-2.856-1.7c-1.973,0-3.722,0.544-4.166,1.701
				c-0.793,2.068,4.192,1.185,3.843,2.088c-0.137,0.364-0.619,0.605-1.363,0.605c-0.745,0-0.969-0.235-0.903-0.605h-2.519
				c-0.297,1.382,0.974,1.812,2.957,1.812c1.982,0,3.817-0.429,4.349-1.812c0.792-2.064-4.246-1.166-3.889-2.088
				c0.129-0.337,0.526-0.601,1.269-0.601c0.742,0,0.847,0.259,0.808,0.6L95.467,46.079z"/>
			<polygon class="st47" points="50.229,44.54 48.2,49.823 50.72,49.823 52.75,44.54 			"/>
			<polygon class="st47" points="69.285,44.54 67.257,49.823 69.775,49.823 71.803,44.54 			"/>
			<polygon class="st47" points="87.646,45.554 88.035,44.54 81.909,44.54 79.882,49.823 86.005,49.823 86.435,48.702 
				82.831,48.702 83.24,47.633 86.24,47.633 86.628,46.62 83.63,46.62 84.039,45.554 			"/>
			<polygon class="st47" points="78.308,44.54 77.244,47.316 75.736,44.54 73.369,44.54 71.342,49.823 73.374,49.823 74.572,46.702 
				76.28,49.823 78.319,49.823 80.347,44.54 			"/>
			<path class="st47" d="M4.182,44.54l-1.225,3.189c-0.385,1.007-1.373,1.108-2.526,0.974L0,49.823C0.485,49.932,1.072,50,1.751,50
				c1.211,0,2.912-0.149,3.601-1.946l1.35-3.514L4.182,44.54L4.182,44.54z"/>
			<g>
				<g>
					<path class="st47" d="M19.627,44.54H15.71l-2.028,5.283h2.519l0.736-1.918h1.4c2.328,0,3.581-0.623,3.989-1.682
						C22.732,45.165,21.958,44.54,19.627,44.54z M19.807,46.223c-0.149,0.386-0.624,0.668-1.083,0.668h-1.398l0.513-1.337h1.403
						C19.699,45.554,19.955,45.839,19.807,46.223z"/>
				</g>
			</g>
			<g>
				<g>
					<path class="st47" d="M58.228,44.54h-3.918l-2.027,5.283h2.519l0.735-1.918h0.761l0.499,1.918h2.75l-0.674-2.11
						c1.116-0.261,1.779-0.775,2.052-1.49C61.335,45.165,60.558,44.54,58.228,44.54z M58.408,46.223
						c-0.15,0.386-0.625,0.668-1.082,0.668h-1.399l0.513-1.337h1.403C58.301,45.554,58.556,45.839,58.408,46.223z"/>
				</g>
			</g>
			<polygon class="st47" points="63.747,48.703 65.347,44.54 62.828,44.54 60.803,49.823 66.52,49.823 66.951,48.703 			"/>
			<g>
				<g>
					<path class="st47" d="M12.54,44.54h-2.253c-0.274,0-0.573,0.16-0.773,0.391l-4.222,4.892h2.082l0.838-1.04h2.276l0.039,1.04
						h2.52L12.54,44.54z M9.03,47.77l1.356-1.69l0.063,1.69H9.03z"/>
				</g>
			</g>
			<g>
				<g>
					<path class="st47" d="M27.823,44.54h-2.254c-0.273,0-0.572,0.16-0.774,0.391l-4.22,4.892h2.081l0.838-1.04h2.275l0.039,1.04
						h2.521L27.823,44.54z M24.313,47.77l1.358-1.69l0.061,1.69H24.313z"/>
				</g>
			</g>
			<g>
				<g>
					<path class="st47" d="M47.056,44.54h-2.253c-0.276,0-0.573,0.16-0.775,0.391l-4.222,4.892h2.083l0.836-1.04h2.276l0.04,1.04
						h2.517L47.056,44.54z M43.545,47.77l1.357-1.69l0.063,1.69H43.545z"/>
				</g>
			</g>
		</g>
	</g>
</g>
<g id="Layer_4">
</g>
</svg>
