<?xml version="1.0" encoding="utf-8"?>
<!-- Generator: Adobe Illustrator 18.0.0, SVG Export Plug-In . SVG Version: 6.00 Build 0)  -->
<!DOCTYPE svg PUBLIC "-//W3C//DTD SVG 1.1//EN" "http://www.w3.org/Graphics/SVG/1.1/DTD/svg11.dtd">
<svg version="1.1" xmlns="http://www.w3.org/2000/svg" xmlns:xlink="http://www.w3.org/1999/xlink" x="0px" y="0px" width="220px"
	 height="50px" viewBox="0 0 220 50" style="enable-background:new 0 0 220 50;" xml:space="preserve">
<style type="text/css">
	.st0{display:none;}
	.st1{display:inline;}
	.st2{fill:#ED2D27;}
	.st3{display:inline;fill:#F8B900;}
	.st4{display:inline;fill:#00235F;}
	.st5{fill:url(#SVGID_1_);}
	.st6{fill:#006CB6;}
	.st7{fill:url(#SVGID_2_);}
	.st8{fill:url(#SVGID_3_);}
	.st9{fill:url(#SVGID_4_);}
	.st10{fill:url(#SVGID_5_);}
	.st11{fill:url(#SVGID_6_);}
	.st12{fill-rule:evenodd;clip-rule:evenodd;fill:#FFFFFF;}
	.st13{fill-rule:evenodd;clip-rule:evenodd;fill:#E2231A;}
	.st14{fill:#FFFFFF;}
	.st15{fill-rule:evenodd;clip-rule:evenodd;fill:#001689;}
	.st16{fill:#00529B;}
	.st17{fill:#F47920;}
	.st18{fill:url(#SVGID_7_);}
	.st19{fill:url(#SVGID_8_);}
	.st20{fill:url(#SVGID_9_);}
	.st21{fill:url(#SVGID_10_);}
	.st22{fill:url(#SVGID_11_);}
	.st23{fill:url(#SVGID_12_);}
	.st24{fill:url(#SVGID_13_);}
	.st25{fill:#00054C;}
	.st26{fill:url(#path3364_3_);}
	.st27{fill:url(#path3366_3_);}
	.st28{fill:#22356B;}
	.st29{fill:#FCC210;}
	.st30{fill:#ED1C24;}
	.st31{display:inline;fill:url(#SVGID_14_);}
	.st32{fill:#002157;}
	.st33{fill:#CC2234;}
	.st34{fill:#E23546;}
	.st35{fill:#FCB130;}
	.st36{fill:#1D4886;}
	.st37{display:inline;fill:none;}
	.st38{display:inline;fill:#005DAA;}
	.st39{fill:#005DAA;}
	.st40{fill:#00A1E4;}
	.st41{fill:#00704A;}
	.st42{fill:#B10D28;}
	.st43{fill:#D31245;}
	.st44{fill:url(#path70_3_);}
	.st45{fill:url(#SVGID_15_);}
	.st46{fill:url(#SVGID_16_);}
	.st47{fill:#231916;}
	.st48{fill:#E60013;}
	.st49{fill:#C0231E;}
	.st50{fill:#014E84;}
	.st51{fill:#BA783E;}
	.st52{fill:#002052;}
	.st53{fill:#0093D0;}
	.st54{fill:#ED1B2F;}
	.st55{fill:#E3242B;}
	.st56{fill-rule:evenodd;clip-rule:evenodd;fill:#034EA2;}
	.st57{fill-rule:evenodd;clip-rule:evenodd;fill:#E11837;}
	.st58{fill:#034EA2;}
	.st59{opacity:0.8902;fill:#EB151C;}
	.st60{fill:#1A1A1A;}
	.st61{enable-background:new    ;}
	.st62{fill:#FF6600;}
	.st63{clip-path:url(#SVGID_18_);fill:url(#SVGID_19_);}
	.st64{fill:url(#SVGID_20_);}
	.st65{fill:#B2DB1F;}
	.st66{fill:#FA002C;}
	.st67{fill:#1C2D5B;}
	.st68{fill:#1C4E9D;}
	.st69{fill:#ED192D;}
	.st70{display:inline;fill:#FFFFFF;}
	.st71{display:inline;fill:#00529B;}
	.st72{display:inline;fill:#F47920;}
	.st73{display:inline;fill:url(#SVGID_21_);}
	.st74{display:inline;fill:url(#SVGID_22_);}
	.st75{display:inline;fill:url(#SVGID_23_);}
	.st76{display:inline;fill:url(#SVGID_24_);}
	.st77{display:inline;fill:url(#SVGID_25_);}
	.st78{display:inline;fill:url(#SVGID_26_);}
	.st79{display:inline;fill:url(#SVGID_27_);}
	.st80{display:inline;fill:url(#path3364_4_);}
	.st81{display:inline;fill:url(#path3366_4_);}
	.st82{display:inline;fill:url(#SVGID_28_);}
	.st83{display:inline;fill:url(#SVGID_29_);}
	.st84{display:inline;fill:url(#SVGID_30_);}
	.st85{display:inline;opacity:0.75;fill:#FFFFFF;}
	.st86{display:inline;fill:#ED1B2F;}
	.st87{opacity:0.8902;fill:#FFFFFF;}
	.st88{clip-path:url(#SVGID_32_);fill:#FFFFFF;}
	.st89{fill:url(#SVGID_33_);}
	.st90{fill:url(#SVGID_34_);}
	.st91{fill:url(#SVGID_35_);}
	.st92{fill:url(#SVGID_36_);}
	.st93{fill:url(#SVGID_37_);}
	.st94{fill:url(#SVGID_38_);}
	.st95{fill:url(#SVGID_39_);}
	.st96{fill:url(#SVGID_40_);}
	.st97{clip-path:url(#SVGID_42_);fill:url(#SVGID_43_);}
	.st98{fill:url(#SVGID_44_);}
	.st99{fill:url(#path70_5_);}
	.st100{fill:url(#SVGID_45_);}
	.st101{fill:url(#SVGID_46_);}
	.st102{fill:#F8B900;}
	.st103{fill:#00235F;}
	.st104{fill:url(#SVGID_47_);}
	.st105{fill:url(#SVGID_48_);}
	.st106{fill:url(#SVGID_49_);}
	.st107{fill:url(#SVGID_50_);}
	.st108{fill:url(#SVGID_51_);}
	.st109{fill:url(#SVGID_52_);}
	.st110{opacity:0.8902;fill:#EB151C;enable-background:new    ;}
	.st111{fill:#E11837;}
	.st112{fill:#E2231A;}
	.st113{fill:#001689;}
	.st114{fill:#EF3E34;}
	.st115{fill:#4D82C4;}
	.st116{fill:#8C7035;}
	.st117{fill:#5FBA45;}
	.st118{fill:#008F7E;}
	.st119{fill:#004595;}
	.st120{fill:#FFED00;}
	.st121{fill:#E53138;}
	.st122{fill:url(#SVGID_53_);}
	.st123{fill:url(#SVGID_54_);}
	.st124{fill:url(#SVGID_55_);}
	.st125{fill:url(#SVGID_56_);}
	.st126{fill:#11185E;}
	.st127{fill:#EE3024;}
	.st128{fill:#0675CC;}
	.st129{fill:#E2001A;}
	.st130{fill:#009036;}
	.st131{fill:#0B1560;}
	.st132{fill:#0070AF;}
	.st133{fill:#0F2C64;}
	.st134{fill:#EF001E;}
	.st135{fill:#1C2A8D;}
	.st136{fill:#334357;}
	.st137{fill:url(#SVGID_57_);}
	.st138{fill:#ED1B28;}
	.st139{fill:#1E5AAF;}
	.st140{fill:#991933;}
	.st141{fill:#E01933;}
	.st142{fill:#003366;}
	.st143{fill:#00265D;}
	.st144{fill:#003263;}
	.st145{fill:#EE452A;}
	.st146{fill:#011F65;}
	.st147{fill:#EC2227;}
	.st148{fill:#010101;}
	.st149{fill:#FCEE21;}
	.st150{fill:#18488B;}
	.st151{fill:#EC2427;}
	.st152{fill:#D09B2B;}
	.st153{fill:#156192;}
	.st154{fill:#021A31;}
	.st155{fill:#008E8F;}
	.st156{fill:#2B438F;}
	.st157{fill:#363F9E;}
	.st158{fill:#00ABBF;}
</style>
<g id="Layer_1" class="st0">
</g>
<g id="Layer_2" class="st0">
</g>
<g id="Layer_3">
</g>
<g id="Layer_4">
	<path class="st147" d="M89.822,16.954c-2.553,0-4.901,3.423-5.821,5.535h-0.278l1.312-5.259h-4.393l-2.484,12.452h4.438
		l0.785-3.885c0.433-0.896,3.151-4.914,3.957-4.914c0.208,0,0.254,0.229,0.254,0.367c0,0.182-0.094,0.458-0.119,0.617l-1.541,7.815
		h4.416l1.682-8.341c0.113-0.596,0.276-1.194,0.276-1.795C92.307,18.102,91.385,16.954,89.822,16.954z"/>
	<polygon class="st147" points="104.49,17.229 99.54,24.51 98.16,17.229 93.627,17.229 96,29.68 91.763,34.117 96.343,34.117 
		107.846,17.229 	"/>
	<polygon class="st147" points="144.147,17.231 141.658,29.68 146.097,29.68 148.588,17.231 	"/>
	<polygon class="st147" points="145.003,13.106 144.374,15.611 148.819,15.611 149.445,13.106 	"/>
	<path class="st147" d="M160.05,16.954c-2.558,0-4.905,3.423-5.823,5.535h-0.273l1.311-5.259h-4.401l-2.485,12.452h4.442
		l0.783-3.885c0.873-1.446,2.806-5.031,5.042-5.031c0.342,0,0.668,0.14,0.961,0.3l1.566-3.858
		C160.972,17.09,160.558,16.954,160.05,16.954z"/>
	<polygon class="st147" points="178.355,17.23 174.425,25.152 174.374,25.152 174.028,17.23 170.326,17.23 166.414,25.129 
		166.37,25.129 166.094,17.23 162.203,17.23 162.691,29.682 166.922,29.682 170.625,22.168 170.673,22.168 170.991,29.682 
		175.229,29.682 181.462,17.23 	"/>
	<polygon class="st147" points="206.66,17.229 201.711,24.51 200.33,17.229 195.796,17.229 198.17,29.68 193.932,34.117 
		198.511,34.117 210.018,17.229 	"/>
	<g>
		<polygon class="st147" points="219.092,20.007 219.092,20.007 219.092,20.007 		"/>
		<path class="st147" d="M216.144,16.951c-4.739,0-5.75,2.391-5.75,3.86c0,2.712,3.565,3.767,3.565,5.468
			c0,0.808-0.783,1.195-1.38,1.195c-1.195,0-2.879-0.644-3.979-1.126l-0.576,2.919c1.539,0.391,2.993,0.691,4.556,0.691
			c4.718,0,5.822-2.483,5.822-4.138c0-2.711-3.843-3.768-3.843-5.237c0-0.92,1.012-1.147,1.75-1.147c0.942,0,1.88,0.251,2.782,0.572
			l0.528-2.688C218.543,17.183,217.297,16.951,216.144,16.951z"/>
	</g>
	<path class="st148" d="M109.925,44c-1.373,0.626-2.425,0.94-3.149,0.94c-0.906,0-1.455-0.181-1.653-0.542
		c2.198-0.285,3.293-0.833,3.285-1.645h0c0-0.513-0.304-0.767-0.908-0.754c-0.54,0-1.261,0.241-2.165,0.723
		c-1.111,0.584-1.666,1.222-1.652,1.913c0,0.077,0.019,0.146,0.03,0.218c-0.443,0.264-0.826,0.402-1.135,0.382
		c-0.076-0.077-0.124-0.137-0.15-0.181c0-0.858-0.009-1.347-0.029-1.469c-0.044-0.349-0.072-0.544-0.081-0.579
		c-0.057-0.185-0.181-0.344-0.367-0.476c-0.066-0.012-0.131-0.015-0.199-0.015c-0.286,0-0.588,0.095-0.906,0.294
		c-0.593,0.405-1.04,0.726-1.339,0.958c-0.728,0.56-1.172,0.839-1.341,0.839c-0.14-0.009-0.258-0.101-0.345-0.281
		c-0.085-0.173-0.131-0.345-0.131-0.513c0-0.361,0.791-1.132,2.377-2.311c0.746-0.562,1.346-1.303,1.784-2.229
		c0.21-0.429,0.314-0.792,0.314-1.093c-0.004-0.01-0.007-0.032-0.007-0.065c0-0.031,0.003-0.053,0.007-0.065
		c0-0.265-0.15-0.396-0.445-0.396c-0.255,0-0.509,0.143-0.763,0.431c-0.694,0.771-1.458,1.678-2.293,2.726
		c-0.096,0.104-0.759,0.944-1.979,2.501c-0.927,0.503-1.646,0.841-2.151,1.015c-0.659,0.241-1.341,0.369-2.048,0.379
		c-0.683,0-1.31-0.14-1.883-0.429c-0.802-0.395-1.205-0.994-1.205-1.797c0-1.167,0.889-2.626,2.675-4.387h3.092
		c0.042,0,0.328,0.021,0.856,0.065c0.527,0.043,0.817,0.068,0.876,0.068c0.405,0,0.699-0.11,0.875-0.329l-0.066-0.068
		c-0.111-0.326-0.219-0.518-0.331-0.575c-0.321-0.155-0.97-0.263-1.948-0.329c-0.708-0.055-1.41-0.103-2.115-0.148l0.283-0.294
		c0.176-0.185,0.259-0.396,0.247-0.625c-0.144-0.054-0.325-0.081-0.546-0.081c-0.496,0.435-0.859,0.767-1.093,0.995h-6.288
		c-0.168,0-0.376,0.159-0.629,0.477c-0.257,0.321-0.381,0.6-0.381,0.843c0,0.276,0.194,0.401,0.578,0.379l5.436-0.265
		c-1.039,1.039-1.76,1.822-2.164,2.35c-0.804,1.051-1.202,1.989-1.188,2.817c0,1.012,0.488,1.782,1.464,2.301
		c0.732,0.386,1.533,0.581,2.416,0.581c1.442,0,3-0.611,4.671-1.824c-0.024,0.125-0.063,0.247-0.063,0.378
		c0,0.849,0.269,1.271,0.808,1.271c0.397,0.01,1.086-0.382,2.066-1.179c0.979-0.801,1.532-1.198,1.648-1.198
		c0.102,0,0.153,0.038,0.153,0.115v1.554c0,0.21,0.071,0.422,0.214,0.644c0.197,0.274,0.45,0.415,0.761,0.415
		c0.364,0,0.967-0.257,1.814-0.761c0.153-0.089,0.294-0.176,0.431-0.261c0.139,0.175,0.324,0.328,0.575,0.449
		c0.419,0.198,0.883,0.295,1.403,0.295c0.576,0,1.218-0.165,1.934-0.496c0.451-0.212,1.115-0.59,1.999-1.144l-0.152-0.084h0.216V44z
		 M105.877,43.11c0.356-0.22,0.641-0.329,0.861-0.329c0.196-0.001,0.295,0.077,0.295,0.23c0,0.429-0.621,0.703-1.864,0.825
		C105.291,43.572,105.527,43.331,105.877,43.11z"/>
	<path class="st148" d="M140.874,40.633c-0.682-0.324-1.117-0.542-1.304-0.654c-0.352-0.203-0.572-0.31-0.663-0.31
		c-0.099,0.034-0.262,0.131-0.493,0.296c-0.286,0.196-0.431,0.375-0.431,0.541c-0.01,0.174,0.125,0.329,0.397,0.467
		c0.276,0.134,0.515,0.205,0.712,0.205c0.607,0,1.024-0.185,1.255-0.546v0.001H140.874z"/>
	<path class="st148" d="M153.846,44c-1.375,0.626-2.43,0.94-3.155,0.94c-0.905,0-1.457-0.181-1.649-0.542
		c2.198-0.285,3.295-0.833,3.28-1.645c0-0.513-0.3-0.767-0.907-0.754c-0.537,0-1.26,0.241-2.164,0.723
		c-1.083,0.569-1.621,1.189-1.642,1.86c-0.45,0.235-0.811,0.358-1.069,0.358c-0.328,0-0.602-0.088-0.809-0.263
		c-0.255-0.21-0.38-0.509-0.38-0.896c0-0.526,0.308-1.099,0.925-1.714c0.586-0.552,1.163-1.101,1.737-1.653
		c0.624-0.694,0.937-1.393,0.937-2.098c0-0.077-0.037-0.198-0.109-0.363c-0.098-0.219-0.204-0.324-0.335-0.314
		c-0.264,0-0.812,0.534-1.637,1.603c-0.638,0.837-1.073,1.448-1.304,1.833c-0.055,0.11-0.232,0.485-0.528,1.123
		c-0.208,0.45-0.419,0.798-0.629,1.039c-0.321,0.377-0.742,0.729-1.27,1.057c-0.574,0.343-1.053,0.513-1.439,0.513
		c-0.382,0.047-0.577-0.085-0.577-0.396c0-0.395,0.335-0.761,1.008-1.103c0.584-0.296,1.077-0.446,1.487-0.446
		c0.056,0,0.138,0.012,0.246,0.034c0.111,0.023,0.193,0.033,0.252,0.033c0.128,0,0.273-0.081,0.429-0.24
		c-0.059-0.263-0.083-0.423-0.083-0.482c0.131-0.009-0.158-0.02-0.86-0.032c-0.617-0.023-1.411,0.176-2.377,0.598
		c-1.16,0.5-1.791,1.111-1.908,1.833c-0.468,0.231-0.881,0.349-1.234,0.349c-0.552,0-0.828-0.209-0.828-0.624
		c0-0.351,0.445-0.905,1.325-1.661v-0.395h-0.148l-0.065-0.03c-0.08-0.038-0.155-0.06-0.236-0.06
		c-0.175-0.01-0.607,0.29-1.304,0.901c-0.649,0.579-1.001,0.917-1.056,1.014c-0.041,0.086-0.067,0.188-0.091,0.292
		c-0.645,0.371-1.162,0.562-1.545,0.562c-0.594,0-0.893-0.145-0.893-0.431c0.01-0.112,0.166-0.254,0.466-0.429
		c0.294-0.177,0.442-0.382,0.442-0.613c0-0.177-0.166-0.358-0.493-0.546c-0.241-0.133-0.487-0.26-0.724-0.381
		c0.141-0.167,0.228-0.283,0.259-0.348c0.035-0.065,0.062-0.21,0.086-0.431c-0.152-0.155-0.288-0.232-0.401-0.232
		c-0.207,0-0.525,0.189-0.945,0.572c-0.426,0.383-0.667,0.651-0.722,0.806c-0.01,0.096,0.01,0.193,0.052,0.279l0.017,0.032
		c-0.311,0.27-0.528,0.507-0.659,0.715c0.13,0.031,0.237,0.089,0.328,0.166c0.109-0.055,0.21-0.117,0.299-0.183l0.246-0.164
		c0.172-0.13,0.286-0.199,0.328-0.199c0.035,0,0.186,0.069,0.459,0.202c0.266,0.131,0.439,0.241,0.518,0.331
		c-0.234,0.174-0.456,0.345-0.676,0.513c-0.322,0.251-0.48,0.441-0.48,0.56c0,0.255,0.214,0.493,0.646,0.713
		c0.362,0.188,0.649,0.281,0.859,0.281c0.581,0,1.319-0.296,2.213-0.893c0.103-0.07,0.194-0.144,0.292-0.215
		c0.064,0.729,0.519,1.108,1.409,1.108h0c0.598,0,1.38-0.293,2.328-0.843c0.07,0.178,0.174,0.339,0.332,0.47
		c0.287,0.236,0.638,0.36,1.06,0.36c0.48,0,1.077-0.245,1.782-0.729c0.289-0.188,0.804-0.597,1.556-1.227
		c-0.035,0.163-0.052,0.327-0.052,0.48c0,0.498,0.152,0.87,0.459,1.127c0.269,0.229,0.619,0.348,1.043,0.348
		c0.476,0,1.07-0.21,1.785-0.631c0.101-0.057,0.25-0.15,0.421-0.26c0.138,0.239,0.355,0.44,0.67,0.594
		c0.421,0.198,0.887,0.295,1.408,0.295c0.574,0,1.215-0.165,1.93-0.496c0.451-0.212,1.119-0.59,2.002-1.144l-0.152-0.084h0.218V44z
		 M149.796,43.11c0.353-0.22,0.638-0.329,0.86-0.329c0.197-0.001,0.296,0.077,0.296,0.23c0,0.429-0.622,0.703-1.864,0.825
		C149.206,43.572,149.445,43.331,149.796,43.11z"/>
	<path class="st148" d="M167.557,43.075c-0.439,0-0.697-0.012-0.774-0.036c1.046-1.098,1.753-1.928,2.115-2.489
		c0.53-0.778,0.791-1.545,0.791-2.292c0-0.404-0.152-0.608-0.463-0.608c-0.341,0.087-0.575,0.245-0.708,0.477
		c-0.683,1.122-1.248,2.053-1.687,2.803c-0.769,1.251-1.16,1.877-1.171,1.877c-0.08,0-0.228-0.029-0.439-0.09
		c-0.213-0.06-0.365-0.091-0.451-0.091c-0.094,0-0.3,0.079-0.631,0.231c-0.102,0.048-0.175,0.086-0.256,0.127
		c-0.116,0.011-0.229,0.02-0.327,0.02c-0.37,0-0.786-0.096-1.255-0.295c-0.397-0.173-0.794-0.348-1.188-0.525
		c-0.222,0.298-0.486,0.765-0.794,1.4c0.87,0.187,1.391,0.292,1.568,0.316c-0.418,0.7-1.032,1.053-1.833,1.053
		c-0.979,0-1.469-0.28-1.469-0.845c0.013-0.519,0.504-0.915,1.487-1.191c0.232-0.067,0.394-0.11,0.498-0.135
		c0.106-0.186,0.197-0.344,0.261-0.479h-0.728c-0.121,0-0.224,0.038-0.315,0.113l-0.013,0.021c-0.649,0.153-1.26,0.434-1.819,0.843
		c-0.697,0.508-1.038,1.056-1.038,1.643c0,0.451,0.237,0.795,0.724,1.027c0.355,0.153,0.727,0.226,1.121,0.213
		c0.738,0,1.456-0.181,2.15-0.544c0.849-0.431,1.391-1.01,1.635-1.739c0.334-0.06,0.615-0.125,0.868-0.195
		c0.391,0.107,0.782,0.174,1.184,0.194l0.049,0.067c0.079,0.077,0.121,0.137,0.121,0.183c0,0.021-0.158,0.323-0.466,0.904
		c-0.331,0.629-0.508,0.97-0.532,1.023c-0.382,0.869-0.575,1.841-0.575,2.919c0,0.01-0.007,0.039-0.017,0.082v0.115
		c-0.007,0.548,0.172,0.823,0.548,0.823c0.342,0,0.732-0.589,1.188-1.762c0.382-0.991,0.577-1.612,0.577-1.864
		c0-0.682-0.012-1.232-0.032-1.649c0.032-0.155,0.11-0.312,0.239-0.468c0.124-0.161,0.225-0.254,0.289-0.276
		c0.187-0.042,0.459-0.075,0.811-0.099c0.801-0.054,1.291-0.098,1.454-0.131c0.506-0.11,0.925-0.351,1.273-0.725
		c-0.451,0-0.9,0.009-1.339,0.026C167.747,43.067,167.54,43.075,167.557,43.075z"/>
	<path class="st148" d="M207.34,40.633c-0.684-0.324-1.115-0.542-1.305-0.654c-0.351-0.203-0.573-0.31-0.656-0.31
		c-0.104,0.034-0.269,0.131-0.501,0.296c-0.286,0.196-0.427,0.375-0.427,0.541c-0.01,0.174,0.121,0.329,0.4,0.467
		c0.269,0.134,0.507,0.205,0.7,0.205c0.611,0,1.029-0.185,1.26-0.546v0.001H207.34z"/>
	<polygon class="st148" points="207.681,46.167 207.681,46.167 207.681,46.167 	"/>
	<path class="st148" d="M219.724,43.997c-0.079,0.033-0.415,0.182-0.994,0.444c-0.394,0.177-0.739,0.281-1.025,0.313
		c-0.077-0.26-0.118-0.469-0.118-0.623c-0.052-0.374-0.266-0.651-0.625-0.837c-0.01-0.012-0.027-0.028-0.048-0.05
		c0.007-0.065,0.027-0.172,0.048-0.321c0.025-0.15,0.035-0.26,0.035-0.336c0-0.384-0.18-0.577-0.532-0.577
		c-0.228,0-0.386,0.071-0.469,0.212c-0.083,0.141-0.156,0.277-0.225,0.404c-0.276-0.063-0.539-0.097-0.791-0.097
		c-0.663-0.018-1.474,0.188-2.429,0.628c-0.667,0.296-1.143,0.633-1.442,1.007c-0.356,0.158-0.712,0.318-1.065,0.474
		c-0.539,0.21-0.97,0.315-1.287,0.315c-0.397,0-0.708-0.079-0.926-0.24c-0.22-0.157-0.331-0.358-0.331-0.601
		c0-0.274,0.145-0.507,0.428-0.693c0.333-0.229,0.765-0.345,1.307-0.345c0.101,0,0.241,0.004,0.428,0.014
		c0.231,0.024,0.379,0.033,0.448,0.033c0.261,0,0.493-0.06,0.693-0.183v-0.493c-0.2-0.134-0.421-0.2-0.666-0.2
		c-0.635,0-1.447,0.205-2.426,0.614c-1.173,0.487-1.793,1.063-1.88,1.724l-0.012,0.007c-0.488,0.244-0.909,0.363-1.274,0.363
		c-0.549,0-0.825-0.209-0.825-0.624c0-0.351,0.443-0.905,1.323-1.661v-0.395h-0.149l-0.065-0.03c-0.079-0.038-0.155-0.06-0.234-0.06
		c-0.173-0.01-0.611,0.29-1.302,0.901c-0.652,0.579-1.005,0.917-1.06,1.014c-0.041,0.087-0.068,0.189-0.092,0.295
		c-0.642,0.369-1.159,0.56-1.542,0.56c-0.593,0-0.886-0.145-0.886-0.431c0.006-0.112,0.161-0.254,0.459-0.429
		c0.297-0.177,0.445-0.382,0.445-0.613c0-0.177-0.166-0.358-0.496-0.546c-0.239-0.133-0.483-0.26-0.725-0.381
		c0.145-0.167,0.231-0.283,0.261-0.348c0.035-0.065,0.062-0.21,0.086-0.431c-0.158-0.155-0.286-0.232-0.392-0.232
		c-0.219,0-0.531,0.189-0.956,0.572c-0.425,0.383-0.663,0.651-0.718,0.806c-0.003,0.04,0.015,0.077,0.02,0.117
		c-0.228,0.004-0.458,0.004-0.682,0.013c-0.444,0.017-0.651,0.026-0.634,0.026c-0.436,0-0.694-0.012-0.771-0.036
		c1.047-1.098,1.747-1.928,2.11-2.489c0.531-0.778,0.797-1.545,0.797-2.292c0-0.404-0.155-0.608-0.462-0.608
		c-0.342,0.087-0.581,0.245-0.712,0.477c-0.683,1.122-1.245,2.053-1.687,2.803c-0.766,1.251-1.156,1.877-1.171,1.877
		c-0.08,0-0.225-0.029-0.442-0.09c-0.211-0.06-0.362-0.091-0.453-0.091c-0.087,0-0.297,0.079-0.624,0.231
		c-0.335,0.153-0.552,0.269-0.653,0.348c-0.061,0.044-0.099,0.12-0.125,0.214c-0.138,0.092-0.279,0.194-0.421,0.322
		c-0.203,0.181-0.404,0.363-0.604,0.553c-0.286,0.229-0.513,0.343-0.676,0.343c-0.19,0-0.397-0.378-0.626-1.136
		c-0.313-1.142-0.545-2.039-0.696-2.688c-0.332-1.221-0.653-2.132-0.956-2.738c-0.463-0.868-0.998-1.303-1.587-1.303
		c-0.922,0-3.624,1.456-8.098,4.37c-0.117,0.087-0.196,0.141-0.228,0.166c-0.035,0-0.187-0.064-0.456-0.188
		c-0.269-0.127-0.439-0.191-0.504-0.191c-0.111,0-0.328,0.102-0.656,0.303c-0.32,0.205-0.579,0.385-0.763,0.537l0.032,0.383
		c0.274,0.119,0.487,0.214,0.629,0.283c-1.07,0.735-1.947,1.335-2.627,1.795c-1.376,0.96-2.064,1.553-2.064,1.783
		c0,0.154,0.083,0.284,0.246,0.385c0.168,0.098,0.333,0.146,0.51,0.146c0.883,0,2.625-1.203,5.239-3.604
		c0.054-0.064,0.089-0.109,0.101-0.133c0.03,0,0.099,0.012,0.213,0.034c0.685,0.099,1.05,0.148,1.112,0.148
		c1.018,0.066,1.874,0.093,2.558,0.083c2.398-0.023,4.05-0.329,4.955-0.924c0.152-0.1,0.234-0.22,0.244-0.362l0.032-0.281h-0.345
		c-0.096,0-0.244,0.021-0.445,0.065c-0.254,0.057-0.414,0.088-0.479,0.099c-1.067,0.055-1.871,0.081-2.408,0.081
		c-1.553,0.012-2.824-0.046-3.804-0.179c0.915-0.64,1.825-1.275,2.729-1.914c1.213-0.791,2.209-1.185,2.99-1.185
		c0.523,0,0.903,0.162,1.139,0.492c0.276,0.387,0.501,0.917,0.676,1.601c0.135,0.57,0.266,1.139,0.411,1.699
		c0.21,0.748,0.358,1.303,0.448,1.667c0.141,0.46,0.252,0.848,0.331,1.151c0.228,0.596,0.587,0.895,1.073,0.895
		c0.488,0,1.074-0.273,1.763-0.809c0.553-0.418,1.021-0.887,1.42-1.4c0.274,0.056,0.548,0.098,0.831,0.113l0.045,0.067
		c0.082,0.077,0.116,0.137,0.116,0.183c0,0.021-0.155,0.323-0.462,0.904c-0.328,0.629-0.505,0.97-0.528,1.023
		c-0.387,0.869-0.581,1.841-0.581,2.919c0,0.01-0.003,0.039-0.013,0.082c-0.004,0.043-0.004,0.08,0,0.115
		c-0.01,0.548,0.172,0.823,0.545,0.823c0.342,0,0.735-0.589,1.188-1.762c0.385-0.991,0.579-1.612,0.579-1.864
		c0-0.682-0.01-1.232-0.035-1.649c0.035-0.155,0.113-0.312,0.242-0.468c0.124-0.161,0.22-0.254,0.286-0.276
		c0.187-0.042,0.459-0.075,0.811-0.099c0.804-0.054,1.288-0.098,1.457-0.131c0.082-0.018,0.148-0.061,0.226-0.086
		c-0.088,0.099-0.168,0.195-0.223,0.283c0.131,0.031,0.237,0.089,0.331,0.166c0.107-0.055,0.207-0.117,0.297-0.183l0.244-0.164
		c0.175-0.13,0.29-0.199,0.331-0.199c0.035,0,0.187,0.069,0.456,0.202c0.269,0.131,0.442,0.241,0.522,0.331
		c-0.236,0.174-0.46,0.345-0.677,0.513c-0.32,0.251-0.483,0.441-0.483,0.56c0,0.255,0.217,0.493,0.646,0.713
		c0.365,0.188,0.653,0.281,0.86,0.281c0.582,0,1.317-0.296,2.212-0.893c0.103-0.069,0.193-0.144,0.291-0.215
		c0.064,0.729,0.522,1.108,1.414,1.108c0.616,0,1.428-0.305,2.418-0.892c0.119,0.24,0.316,0.441,0.612,0.595
		c0.352,0.196,0.727,0.296,1.124,0.296c0.563,0,1.37-0.239,2.431-0.717c0.219-0.098,0.426-0.195,0.623-0.291
		c0.001,0.294,0.114,0.538,0.342,0.725c0.234,0.187,0.513,0.282,0.845,0.282c0.528,0,1.37-0.371,2.53-1.112
		c0.601-0.376,1.163-0.722,1.684-1.041c0.035,0,0.056,0.004,0.066,0.015l0.035,0.015v0.085c-0.18,0.198-0.355,0.394-0.532,0.596
		c-0.22,0.25-0.323,0.477-0.314,0.676c0,0.449,0.323,0.676,0.973,0.676c0.453,0.013,1.15-0.225,2.093-0.709
		c0.942-0.484,1.457-0.873,1.543-1.172v-0.131L219.724,43.997z M215.723,43.403L215.723,43.403c0,0.319-0.389,0.656-1.174,1.004
		c-0.659,0.298-1.097,0.446-1.319,0.446c-0.113,0-0.22-0.038-0.323-0.114c-0.104-0.077-0.156-0.16-0.156-0.248
		c0-0.384,0.314-0.726,0.957-1.022c0.54-0.264,1.018-0.395,1.438-0.395c0.384,0,0.576,0.104,0.576,0.31V43.403z"/>
	<path class="st148" d="M129.517,38.495c-0.708-0.417-1.519-0.628-2.433-0.628c-1.59,0-3.431,0.549-5.519,1.656
		c-1.829,0.972-3.554,2.187-5.18,3.649c0.286-0.578,0.514-1.011,0.68-1.297c0.205-0.431,0.328-0.672,0.38-0.725
		c0.049-0.052,0.394-0.282,1.012-0.694c0.435-0.284,0.645-0.576,0.645-0.869c0-0.441-0.089-0.943-0.283-1.5
		c-0.072-0.146-0.214-0.219-0.425-0.219c-0.42,0.641-0.987,1.225-1.691,1.752c-0.748,0.558-1.391,0.839-1.929,0.839
		c-0.303,0-0.574-0.012-0.804-0.031c0.135,0.315,0.424,0.615,0.867,0.9c0.404,0.26,0.728,0.393,0.984,0.393
		c0.144,0,0.375-0.062,0.693-0.19c-0.579,1.267-1.021,2.166-1.328,2.7c-0.072,0.076-0.138,0.143-0.19,0.207
		c-2.578,2.73-3.868,4.331-3.868,4.806c0,0.221,0.127,0.404,0.378,0.552c0.221,0.137,0.437,0.207,0.647,0.207
		c0.494,0,1.098-0.595,1.802-1.785c0.283-0.496,0.718-1.361,1.298-2.593c0.272-0.59,0.441-0.915,0.507-0.981
		c1.357-1.566,3.002-2.87,4.935-3.907c1.93-1.037,3.673-1.556,5.226-1.556c0.7,0,1.336,0.147,1.888,0.443
		c0.762,0.378,1.142,0.95,1.142,1.718c-0.015,0.473-0.172,0.948-0.493,1.42c-0.819,1.198-1.992,2.083-3.508,2.651
		c-1.166,0.431-2.436,0.646-3.807,0.646c-2.098,0-3.525-0.501-4.28-1.499h-0.401c0,0.075-0.007,0.146-0.027,0.215
		c-0.021,0.066-0.035,0.123-0.035,0.163c0.39,0.62,1.094,1.09,2.119,1.404c0.832,0.255,1.743,0.381,2.734,0.381
		c0.342,0,1.201-0.085,2.589-0.253c0.762-0.083,1.671-0.387,2.737-0.917c1.191-0.579,2.161-1.251,2.906-2.02
		c0.917-0.927,1.373-1.856,1.373-2.795C130.855,39.758,130.415,39.009,129.517,38.495z"/>
	<path class="st147" d="M115.847,17.229c-0.321,0-1.035-0.209-2.071-0.209c-4.347,0-8.305,5.629-8.305,9.65
		c0,1.654,1.061,3.285,2.856,3.285c2.55,0,4.897-3.422,5.815-5.537h0.28l-1.311,5.262h4.414l2.488-12.451H115.847z M114.79,21.181
		c-0.99,1.423-3.153,5.053-4.371,5.053c-0.392,0-0.507-0.389-0.507-0.713c0-1.17,1.037-6.02,3.701-6.02
		c0.507,0,1.012,0.186,1.429,0.416L114.79,21.181z"/>
	<path class="st147" d="M137.241,13.071h-4.418l-8.951,16.61h3.153l2.23-4.159h6.144l0.807,4.159h4.235L137.241,13.071z
		 M130.683,22.903l3.082-5.79h0.046l1.083,5.79H130.683z"/>
	<path class="st147" d="M189.976,17.229c-0.318,0-1.031-0.209-2.067-0.209c-4.348,0-8.304,5.629-8.304,9.65
		c0,1.654,1.053,3.285,2.852,3.285c2.554,0,4.901-3.422,5.821-5.537h0.276l-1.311,5.262h4.417l2.482-12.451H189.976z
		 M188.923,21.181c-0.991,1.423-3.158,5.053-4.373,5.053c-0.392,0-0.507-0.389-0.507-0.713c0-1.17,1.038-6.02,3.706-6.02
		c0.505,0,1.011,0.186,1.425,0.416L188.923,21.181z"/>
	<polygon id="polygon9" class="st147" points="55.639,21.801 55.595,21.801 54.055,29.68 49.612,29.68 52.928,13.07 57.366,13.07 
		55.734,20.951 55.778,20.951 61.899,13.07 65.399,13.07 59.667,20.445 64.914,29.68 59.871,29.68 	"/>
	<path class="st147" d="M71.48,27.339c-1.216,0-2.233-0.554-2.254-1.886c3.156,0.095,7.823-2.113,7.823-5.719
		c0-1.93-1.817-2.781-3.384-2.781c-5.752,0-8.881,5.24-8.881,8.844c0,2.896,2.715,4.159,5.244,4.159
		c2.213,0,4.348-0.598,6.533-1.378l0.624-3.056C75.695,26.326,73.161,27.339,71.48,27.339z M72.122,19.708
		c0.579,0,0.925,0.346,0.925,0.945c0.001,1.629-1.427,2.365-3.518,2.32C69.733,21.776,70.674,19.708,72.122,19.708z"/>
	<path class="st147" d="M45.197,30.936c0,0-2.12,2.362-7.538,1.928c0,0-0.392,0.072-1.317-0.255
		c2.792-3.037,5.575-7.58,5.715-13.715c0,0,1.087-11.001-8.838-16.441c0,0-6.538-4.11-15.134-1.692c0,0-11.567,3.323-15.563,12.631
		c0,0-5.381,8.645-0.421,18.195c0,0,2.973,6.689,10.898,8.584c0,0,9.814,2.631,17.204-2.64c1.006,0.557,2.153,1.107,3.467,1.612
		c0,0,5.67,1.495,9.035-1.303c0,0,2.866-1.742,2.927-6.784C45.631,31.058,45.68,30.547,45.197,30.936z M33.443,31.089
		c-0.565-0.367-1.187-0.801-1.887-1.334l-9.534-7.838c0,0-0.435-0.312,0.186-0.376c0,0,5.544-0.995,7.166-2.302
		c0,0,4.987-2.447,5.667-6.094c0,0,1.033-3.997-0.561-6.345c0,0-0.56-0.374-0.746,0.062c0,0-2.851,2.936-5.31,4.511l-7.339,4.757
		c0,0-0.563,0.374-0.123-0.497l2.118-5.599c0,0,1.184-1.928-2.055-1.679c0,0-4.882,0.492-7.581,3.813c0,0-0.209,0.106,0.166,0.23
		l1.559-0.063c0,0-4.423,10.326-4.485,10.949c0,0-1.56,4.852-0.811,9.58l7.838,0.23c0,0-2.168-1.04-0.799-6.577
		c0,0,0.936-3.297,1.621-3.546c0,0,0.186-0.31,0.312,0.249c0,0,1.555,5.597,5.733,9.83c0,0,0.915,1.252,2.98,2.787
		c-0.09,0.062-0.15,0.103-0.15,0.103c-16.466,8.221-22.892-3.698-22.892-3.698c-3.63-7.738,0.811-15.116,0.811-15.116
		c4.238-8.342,12.272-11.65,12.272-11.65c11.26-4.835,17.678,0.605,17.678,0.605c9.081,6.77,3.387,18.131,3.387,18.131
		C37.791,26.569,35.636,29.03,33.443,31.089z"/>
</g>
</svg>
