<?xml version="1.0" encoding="utf-8"?>
<!-- Generator: Adobe Illustrator 18.0.0, SVG Export Plug-In . SVG Version: 6.00 Build 0)  -->
<!DOCTYPE svg PUBLIC "-//W3C//DTD SVG 1.1//EN" "http://www.w3.org/Graphics/SVG/1.1/DTD/svg11.dtd">
<svg version="1.1" xmlns="http://www.w3.org/2000/svg" xmlns:xlink="http://www.w3.org/1999/xlink" x="0px" y="0px"
	 width="85.982px" height="50px" viewBox="0 0 85.982 50" style="enable-background:new 0 0 85.982 50;" xml:space="preserve">
<style type="text/css">
	.st0{display:none;}
	.st1{display:inline;}
	.st2{fill:#ED2D27;}
	.st3{display:inline;fill:#F8B900;}
	.st4{display:inline;fill:#00235F;}
	.st5{fill:url(#SVGID_1_);}
	.st6{fill:#006CB6;}
	.st7{fill:url(#SVGID_2_);}
	.st8{fill:url(#SVGID_3_);}
	.st9{fill:url(#SVGID_4_);}
	.st10{fill:url(#SVGID_5_);}
	.st11{fill:url(#SVGID_6_);}
	.st12{fill-rule:evenodd;clip-rule:evenodd;fill:#FFFFFF;}
	.st13{fill-rule:evenodd;clip-rule:evenodd;fill:#E2231A;}
	.st14{fill:#FFFFFF;}
	.st15{fill-rule:evenodd;clip-rule:evenodd;fill:#001689;}
	.st16{fill:#00529B;}
	.st17{fill:#F47920;}
	.st18{fill:url(#SVGID_7_);}
	.st19{fill:url(#SVGID_8_);}
	.st20{fill:url(#SVGID_9_);}
	.st21{fill:url(#SVGID_10_);}
	.st22{fill:url(#SVGID_11_);}
	.st23{fill:url(#SVGID_12_);}
	.st24{fill:url(#SVGID_13_);}
	.st25{fill:#00054C;}
	.st26{fill:url(#path3364_3_);}
	.st27{fill:url(#path3366_3_);}
	.st28{fill:#22356B;}
	.st29{fill:#FCC210;}
	.st30{fill:#ED1C24;}
	.st31{display:inline;fill:url(#SVGID_14_);}
	.st32{fill:#002157;}
	.st33{fill:#CC2234;}
	.st34{fill:#E23546;}
	.st35{fill:#FCB130;}
	.st36{fill:#1D4886;}
	.st37{display:inline;fill:none;}
	.st38{display:inline;fill:#005DAA;}
	.st39{fill:#005DAA;}
	.st40{fill:#00A1E4;}
	.st41{fill:#00704A;}
	.st42{fill:#B10D28;}
	.st43{fill:#D31245;}
	.st44{fill:url(#path70_3_);}
	.st45{fill:url(#SVGID_15_);}
	.st46{fill:url(#SVGID_16_);}
	.st47{fill:#231916;}
	.st48{fill:#E60013;}
	.st49{fill:#C0231E;}
	.st50{fill:#014E84;}
	.st51{fill:#BA783E;}
	.st52{fill:#002052;}
	.st53{fill:#0093D0;}
	.st54{fill:#ED1B2F;}
	.st55{fill:#E3242B;}
	.st56{fill-rule:evenodd;clip-rule:evenodd;fill:#034EA2;}
	.st57{fill-rule:evenodd;clip-rule:evenodd;fill:#E11837;}
	.st58{fill:#034EA2;}
	.st59{opacity:0.8902;fill:#EB151C;}
	.st60{fill:#1A1A1A;}
	.st61{enable-background:new    ;}
	.st62{fill:#FF6600;}
	.st63{clip-path:url(#SVGID_18_);fill:url(#SVGID_19_);}
	.st64{fill:url(#SVGID_20_);}
	.st65{fill:#B2DB1F;}
	.st66{fill:#FA002C;}
	.st67{fill:#1C2D5B;}
	.st68{fill:#1C4E9D;}
	.st69{fill:#ED192D;}
	.st70{display:inline;fill:#FFFFFF;}
	.st71{display:inline;fill:#00529B;}
	.st72{display:inline;fill:#F47920;}
	.st73{display:inline;fill:url(#SVGID_21_);}
	.st74{display:inline;fill:url(#SVGID_22_);}
	.st75{display:inline;fill:url(#SVGID_23_);}
	.st76{display:inline;fill:url(#SVGID_24_);}
	.st77{display:inline;fill:url(#SVGID_25_);}
	.st78{display:inline;fill:url(#SVGID_26_);}
	.st79{display:inline;fill:url(#SVGID_27_);}
	.st80{display:inline;fill:url(#path3364_4_);}
	.st81{display:inline;fill:url(#path3366_4_);}
	.st82{display:inline;fill:url(#SVGID_28_);}
	.st83{display:inline;fill:url(#SVGID_29_);}
	.st84{display:inline;fill:url(#SVGID_30_);}
	.st85{display:inline;opacity:0.75;fill:#FFFFFF;}
	.st86{display:inline;fill:#ED1B2F;}
	.st87{opacity:0.8902;fill:#FFFFFF;}
	.st88{clip-path:url(#SVGID_32_);fill:#FFFFFF;}
	.st89{fill:url(#SVGID_33_);}
	.st90{fill:url(#SVGID_34_);}
	.st91{fill:url(#SVGID_35_);}
	.st92{fill:url(#SVGID_36_);}
	.st93{fill:url(#SVGID_37_);}
	.st94{fill:url(#SVGID_38_);}
	.st95{fill:url(#SVGID_39_);}
	.st96{fill:url(#SVGID_40_);}
	.st97{clip-path:url(#SVGID_42_);fill:url(#SVGID_43_);}
	.st98{fill:url(#SVGID_44_);}
	.st99{fill:url(#path70_5_);}
	.st100{fill:url(#SVGID_45_);}
	.st101{fill:url(#SVGID_46_);}
	.st102{fill:#F8B900;}
	.st103{fill:#00235F;}
	.st104{fill:url(#SVGID_47_);}
	.st105{fill:url(#SVGID_48_);}
	.st106{fill:url(#SVGID_49_);}
	.st107{fill:url(#SVGID_50_);}
	.st108{fill:url(#SVGID_51_);}
	.st109{fill:url(#SVGID_52_);}
	.st110{opacity:0.8902;fill:#EB151C;enable-background:new    ;}
	.st111{fill:#E11837;}
	.st112{fill:#E2231A;}
	.st113{fill:#001689;}
	.st114{fill:#EF3E34;}
	.st115{fill:#4D82C4;}
	.st116{fill:#8C7035;}
	.st117{fill:#5FBA45;}
	.st118{fill:#008F7E;}
	.st119{fill:#004595;}
	.st120{fill:#FFED00;}
	.st121{fill:#E53138;}
	.st122{fill:url(#SVGID_53_);}
	.st123{fill:url(#SVGID_54_);}
	.st124{fill:url(#SVGID_55_);}
	.st125{fill:url(#SVGID_56_);}
	.st126{fill:#11185E;}
	.st127{fill:#EE3024;}
	.st128{fill:#0675CC;}
	.st129{fill:#E2001A;}
	.st130{fill:#009036;}
	.st131{fill:#0B1560;}
	.st132{fill:#0070AF;}
	.st133{fill:#0F2C64;}
	.st134{fill:#EF001E;}
	.st135{fill:#1C2A8D;}
	.st136{fill:#334357;}
	.st137{fill:url(#SVGID_57_);}
	.st138{fill:#ED1B28;}
	.st139{fill:#1E5AAF;}
	.st140{fill:#991933;}
	.st141{fill:#E01933;}
	.st142{fill:#003366;}
	.st143{fill:#00265D;}
	.st144{fill:#003263;}
	.st145{fill:#EE452A;}
	.st146{fill:#011F65;}
	.st147{fill:#EC2227;}
	.st148{fill:#010101;}
	.st149{fill:#FCEE21;}
	.st150{fill:#18488B;}
	.st151{fill:#EC2427;}
	.st152{fill:#D09B2B;}
	.st153{fill:#156192;}
	.st154{fill:#021A31;}
	.st155{fill:#008E8F;}
	.st156{fill:#2B438F;}
	.st157{fill:#363F9E;}
	.st158{fill:#00ABBF;}
</style>
<g id="Layer_1" class="st0">
	<g class="st1">
		<g class="st61">
			<path class="st62" d="M-6.222-7.63c2.336,0,4.282,0.584,5.878,1.752c0.856,0.623,1.44,1.324,1.791,2.141s0.506,1.907,0.506,3.309
				L1.914,2.531c0,2.063,0.156,3.387,0.428,4.01C2.497,6.852,2.614,7.007,2.77,7.085c0.117,0.078,0.428,0.156,0.856,0.234
				c0.428,0.078,0.623,0.35,0.623,0.856c0,0.623-0.272,1.324-0.779,1.985c-0.506,0.701-1.168,1.285-1.985,1.752
				c-1.012,0.584-2.063,0.895-3.153,0.895c-1.401,0-2.491-0.467-3.309-1.44c-0.272-0.35-0.545-0.506-0.779-0.506
				c-0.272,0-0.623,0.156-1.051,0.506c-1.324,0.973-2.842,1.44-4.516,1.44c-1.752,0-3.153-0.389-4.243-1.129
				c-0.701-0.506-1.246-1.129-1.674-1.946c-0.428-0.779-0.623-1.635-0.623-2.491c0-1.401,0.545-2.608,1.674-3.659
				c1.752-1.674,4.36-2.53,7.825-2.53c0.779,0,1.246-0.078,1.44-0.234c0.195-0.156,0.311-0.506,0.311-1.051
				c0-1.401-0.156-2.452-0.428-3.075c-0.311-0.623-0.779-0.934-1.44-0.934c-0.389,0-0.74,0.117-1.051,0.35
				c-0.311,0.234-0.701,0.662-1.168,1.324c-1.168,1.674-2.414,2.53-3.698,2.53c-0.662,0-1.168-0.195-1.596-0.584
				c-0.428-0.389-0.623-0.895-0.623-1.518c0-0.623,0.272-1.285,0.779-1.907c0.506-0.623,1.207-1.207,2.102-1.674
				C-11.361-7.007-8.87-7.63-6.222-7.63z M-7.585,3.932c-0.584,0-1.09,0.234-1.518,0.701C-9.531,5.1-9.765,5.684-9.765,6.345
				c0,0.623,0.156,1.168,0.467,1.557c0.311,0.389,0.701,0.584,1.207,0.584c1.051,0,1.596-0.895,1.596-2.686
				c0-0.74-0.078-1.207-0.234-1.479C-6.845,4.088-7.157,3.932-7.585,3.932z"/>
			<path class="st62" d="M13.553-7.63c0.662,0,1.752,0.156,3.27,0.428c0.311,0.039,0.545,0.078,0.74,0.078
				c0.234,0,0.662-0.117,1.324-0.35c0.311-0.117,0.584-0.195,0.779-0.195c0.623,0,1.246,0.389,1.869,1.168
				c0.506,0.623,0.934,1.324,1.246,2.063c0.311,0.74,0.467,1.401,0.467,1.946s-0.195,0.973-0.545,1.324
				c-0.389,0.35-0.856,0.545-1.401,0.545c-0.467,0-0.895-0.117-1.246-0.35c-0.35-0.234-0.973-0.74-1.752-1.479
				C17.446-3.27,16.745-3.698,16.2-3.698c-0.389,0-0.701,0.156-0.973,0.428c-0.272,0.272-0.428,0.584-0.428,0.973
				c0,0.662,0.623,1.246,1.869,1.83c2.258,1.012,3.971,2.102,5.177,3.309c1.012,1.012,1.518,2.258,1.518,3.698
				c0,1.869-0.817,3.387-2.452,4.632c-1.401,1.09-3.114,1.635-5.139,1.635c-0.506,0-1.479-0.078-2.842-0.272
				c-1.285-0.156-2.024-0.234-2.18-0.234c-0.156,0-0.389,0.039-0.584,0.078c-0.389,0.039-0.662,0.078-0.856,0.078
				c-0.623,0-1.129-0.156-1.479-0.467c-0.545-0.506-1.051-1.285-1.518-2.336C5.845,8.603,5.612,7.669,5.612,6.929
				c0-1.207,0.467-1.83,1.44-1.83c0.389,0,0.701,0.117,1.012,0.35c0.311,0.234,0.973,0.895,1.985,1.985
				c0.545,0.584,1.012,0.973,1.362,1.207c0.35,0.234,0.74,0.311,1.168,0.311s0.779-0.117,1.051-0.35
				c0.272-0.234,0.389-0.545,0.389-0.934c0-0.584-0.506-1.129-1.557-1.635c-2.141-1.051-3.698-2.141-4.632-3.27
				S6.39,0.351,6.39-1.129c0-1.596,0.467-2.959,1.44-4.087C9.232-6.773,11.14-7.63,13.553-7.63z"/>
			<path class="st62" d="M44.073,2.219L41.426,9.46c-0.662,1.791-1.324,3.27-1.985,4.399c-0.662,1.129-1.401,2.102-2.258,2.92
				c-1.713,1.635-3.815,2.491-6.267,2.491c-1.985,0-3.581-0.506-4.788-1.557c-0.934-0.817-1.401-1.83-1.401-3.036
				c0-1.012,0.311-1.869,0.973-2.569c0.662-0.701,1.479-1.051,2.414-1.051c0.973,0,1.713,0.311,2.336,0.973
				c0.272,0.311,0.467,0.545,0.545,0.779c0.078,0.234,0.234,0.74,0.428,1.479c0.156,0.584,0.467,0.895,1.012,0.895
				c0.428,0,0.74-0.195,1.051-0.545c0.311-0.35,0.428-0.817,0.428-1.324c0-0.623-0.35-1.674-1.051-3.153L28.034-0.078
				c-0.506-1.051-0.895-1.713-1.129-1.985c-0.272-0.272-0.817-0.584-1.674-0.973c-0.272-0.117-0.506-0.311-0.701-0.623
				s-0.272-0.623-0.272-0.895c0-1.168,1.168-1.985,3.542-2.414c1.557-0.272,3.348-0.428,5.372-0.428c1.401,0,2.53,0.156,3.348,0.428
				c1.09,0.389,1.635,1.051,1.635,1.985c0,0.35-0.156,0.74-0.467,1.168c-0.311,0.428-0.428,0.817-0.428,1.129
				c0,0.311,0.078,0.662,0.195,1.012c0.156,0.35,0.428,0.934,0.895,1.752c0.506,0.934,0.934,1.401,1.324,1.401
				c0.428,0,0.856-0.428,1.285-1.246c0.428-0.817,0.662-1.596,0.662-2.375c0-0.623-0.156-1.129-0.506-1.479
				c-0.506-0.584-0.779-1.129-0.779-1.557c0-0.662,0.467-1.207,1.362-1.635c0.895-0.389,2.102-0.623,3.62-0.623
				c2.842,0,4.243,0.662,4.243,2.024c0,0.506-0.156,0.895-0.428,1.207c-0.272,0.311-0.817,0.584-1.557,0.856
				c-0.623,0.234-1.129,0.623-1.518,1.207C45.513-1.323,44.851,0.156,44.073,2.219z"/>
			<path class="st62" d="M66.885-15.415c1.479,0,2.997,0.117,4.555,0.389c1.246,0.195,2.18,0.506,2.725,0.895
				c0.545,0.389,0.817,0.895,0.817,1.557c0,0.428-0.117,0.74-0.311,0.973c-0.195,0.234-0.623,0.506-1.285,0.856
				c-0.779,0.389-1.207,0.856-1.324,1.401c-0.117,0.545-0.234,2.647-0.311,6.267c-0.039,3.542-0.078,5.645-0.117,6.345
				c-0.039,0.701-0.117,1.401-0.234,2.063c-0.389,1.946-1.168,3.465-2.336,4.594c-0.973,0.895-2.18,1.635-3.698,2.141
				c-1.518,0.506-3.075,0.779-4.749,0.779c-1.479,0-2.959-0.195-4.438-0.584c-1.479-0.389-2.764-0.934-3.854-1.596
				c-0.895-0.545-1.635-1.324-2.141-2.258c-0.545-0.934-0.817-1.985-0.817-3.036c0-1.324,0.428-2.452,1.246-3.309
				c0.856-0.856,1.907-1.324,3.153-1.324c1.246,0,2.297,0.35,3.153,1.09c0.856,0.74,1.285,1.674,1.285,2.764
				c0,0.272-0.078,0.74-0.234,1.401c-0.039,0.117-0.039,0.272-0.039,0.428c0,0.428,0.156,0.779,0.467,1.051
				c0.311,0.272,0.701,0.389,1.207,0.389c0.895,0,1.596-0.389,2.141-1.207c0.545-0.817,0.817-1.869,0.817-3.153l-0.039-1.83
				l-0.039-4.905c-0.117-2.959-0.195-4.71-0.272-5.255c-0.078-0.545-0.195-0.973-0.467-1.285c-0.195-0.272-0.389-0.428-0.545-0.506
				s-0.584-0.195-1.246-0.389c-0.311-0.078-0.584-0.234-0.817-0.545c-0.234-0.311-0.35-0.623-0.35-0.973
				c0-0.701,0.272-1.285,0.856-1.713c0.584-0.428,1.479-0.779,2.764-1.051C63.887-15.26,65.367-15.415,66.885-15.415z"/>
		</g>
		<g class="st61">
			<path class="st62" d="M94.485,3.348h-9.382c-0.428,0-0.623,0.195-0.623,0.545c0,0.856,0.467,1.674,1.401,2.452
				c0.934,0.779,1.946,1.168,3.036,1.168c0.623,0,1.362-0.117,2.141-0.35s1.44-0.545,1.946-0.895
				c0.467-0.311,0.817-0.467,1.09-0.467c0.35,0,0.701,0.195,1.012,0.623c0.35,0.428,0.506,0.856,0.506,1.324
				c0,0.973-0.584,1.869-1.791,2.764c-2.102,1.596-4.555,2.375-7.319,2.375c-2.803,0-5.139-0.817-7.046-2.452
				c-0.934-0.817-1.674-1.752-2.258-2.881c-0.779-1.518-1.168-3.075-1.168-4.749c0-2.219,0.662-4.243,2.024-6.034
				c1.168-1.557,2.647-2.686,4.477-3.465c1.362-0.584,2.842-0.856,4.399-0.856c2.53,0,4.671,0.701,6.462,2.141
				c0.895,0.701,1.596,1.557,2.141,2.569c0.623,1.129,0.934,2.219,0.934,3.27c0,0.856-0.195,1.557-0.545,2.141
				C95.536,3.076,95.069,3.348,94.485,3.348z M85.609-0.389h2.024c0.856,0,1.285-0.389,1.285-1.168c0-0.701-0.195-1.324-0.623-1.752
				C87.867-3.776,87.361-3.97,86.66-3.97c-0.74,0-1.324,0.311-1.752,0.895c-0.389,0.545-0.584,1.09-0.584,1.674
				c0,0.389,0.078,0.662,0.272,0.856C84.792-0.467,85.142-0.389,85.609-0.389z"/>
		</g>
	</g>
</g>
<g id="Layer_2" class="st0">
	<g class="st1">
		<g class="st61">
			<path class="st14" d="M-6.222-7.63c2.336,0,4.282,0.584,5.878,1.752c0.856,0.623,1.44,1.324,1.791,2.141s0.506,1.907,0.506,3.309
				L1.914,2.531c0,2.063,0.156,3.387,0.428,4.01C2.497,6.852,2.614,7.007,2.77,7.085c0.117,0.078,0.428,0.156,0.856,0.234
				c0.428,0.078,0.623,0.35,0.623,0.856c0,0.623-0.272,1.324-0.779,1.985c-0.506,0.701-1.168,1.285-1.985,1.752
				c-1.012,0.584-2.063,0.895-3.153,0.895c-1.401,0-2.491-0.467-3.309-1.44c-0.272-0.35-0.545-0.506-0.779-0.506
				c-0.272,0-0.623,0.156-1.051,0.506c-1.324,0.973-2.842,1.44-4.516,1.44c-1.752,0-3.153-0.389-4.243-1.129
				c-0.701-0.506-1.246-1.129-1.674-1.946c-0.428-0.779-0.623-1.635-0.623-2.491c0-1.401,0.545-2.608,1.674-3.659
				c1.752-1.674,4.36-2.53,7.825-2.53c0.779,0,1.246-0.078,1.44-0.234c0.195-0.156,0.311-0.506,0.311-1.051
				c0-1.401-0.156-2.452-0.428-3.075c-0.311-0.623-0.779-0.934-1.44-0.934c-0.389,0-0.74,0.117-1.051,0.35
				c-0.311,0.234-0.701,0.662-1.168,1.324c-1.168,1.674-2.414,2.53-3.698,2.53c-0.662,0-1.168-0.195-1.596-0.584
				c-0.428-0.389-0.623-0.895-0.623-1.518c0-0.623,0.272-1.285,0.779-1.907c0.506-0.623,1.207-1.207,2.102-1.674
				C-11.361-7.007-8.87-7.63-6.222-7.63z M-7.585,3.932c-0.584,0-1.09,0.234-1.518,0.701C-9.531,5.1-9.765,5.684-9.765,6.345
				c0,0.623,0.156,1.168,0.467,1.557c0.311,0.389,0.701,0.584,1.207,0.584c1.051,0,1.596-0.895,1.596-2.686
				c0-0.74-0.078-1.207-0.234-1.479C-6.845,4.088-7.157,3.932-7.585,3.932z"/>
			<path class="st14" d="M13.553-7.63c0.662,0,1.752,0.156,3.27,0.428c0.311,0.039,0.545,0.078,0.74,0.078
				c0.234,0,0.662-0.117,1.324-0.35c0.311-0.117,0.584-0.195,0.779-0.195c0.623,0,1.246,0.389,1.869,1.168
				c0.506,0.623,0.934,1.324,1.246,2.063c0.311,0.74,0.467,1.401,0.467,1.946s-0.195,0.973-0.545,1.324
				c-0.389,0.35-0.856,0.545-1.401,0.545c-0.467,0-0.895-0.117-1.246-0.35c-0.35-0.234-0.973-0.74-1.752-1.479
				C17.446-3.27,16.745-3.698,16.2-3.698c-0.389,0-0.701,0.156-0.973,0.428c-0.272,0.272-0.428,0.584-0.428,0.973
				c0,0.662,0.623,1.246,1.869,1.83c2.258,1.012,3.971,2.102,5.177,3.309c1.012,1.012,1.518,2.258,1.518,3.698
				c0,1.869-0.817,3.387-2.452,4.632c-1.401,1.09-3.114,1.635-5.139,1.635c-0.506,0-1.479-0.078-2.842-0.272
				c-1.285-0.156-2.024-0.234-2.18-0.234c-0.156,0-0.389,0.039-0.584,0.078c-0.389,0.039-0.662,0.078-0.856,0.078
				c-0.623,0-1.129-0.156-1.479-0.467c-0.545-0.506-1.051-1.285-1.518-2.336C5.845,8.603,5.612,7.669,5.612,6.929
				c0-1.207,0.467-1.83,1.44-1.83c0.389,0,0.701,0.117,1.012,0.35c0.311,0.234,0.973,0.895,1.985,1.985
				c0.545,0.584,1.012,0.973,1.362,1.207c0.35,0.234,0.74,0.311,1.168,0.311s0.779-0.117,1.051-0.35
				c0.272-0.234,0.389-0.545,0.389-0.934c0-0.584-0.506-1.129-1.557-1.635c-2.141-1.051-3.698-2.141-4.632-3.27
				S6.39,0.351,6.39-1.129c0-1.596,0.467-2.959,1.44-4.087C9.232-6.773,11.14-7.63,13.553-7.63z"/>
			<path class="st14" d="M44.073,2.219L41.426,9.46c-0.662,1.791-1.324,3.27-1.985,4.399c-0.662,1.129-1.401,2.102-2.258,2.92
				c-1.713,1.635-3.815,2.491-6.267,2.491c-1.985,0-3.581-0.506-4.788-1.557c-0.934-0.817-1.401-1.83-1.401-3.036
				c0-1.012,0.311-1.869,0.973-2.569c0.662-0.701,1.479-1.051,2.414-1.051c0.973,0,1.713,0.311,2.336,0.973
				c0.272,0.311,0.467,0.545,0.545,0.779c0.078,0.234,0.234,0.74,0.428,1.479c0.156,0.584,0.467,0.895,1.012,0.895
				c0.428,0,0.74-0.195,1.051-0.545c0.311-0.35,0.428-0.817,0.428-1.324c0-0.623-0.35-1.674-1.051-3.153L28.034-0.078
				c-0.506-1.051-0.895-1.713-1.129-1.985c-0.272-0.272-0.817-0.584-1.674-0.973c-0.272-0.117-0.506-0.311-0.701-0.623
				s-0.272-0.623-0.272-0.895c0-1.168,1.168-1.985,3.542-2.414c1.557-0.272,3.348-0.428,5.372-0.428c1.401,0,2.53,0.156,3.348,0.428
				c1.09,0.389,1.635,1.051,1.635,1.985c0,0.35-0.156,0.74-0.467,1.168c-0.311,0.428-0.428,0.817-0.428,1.129
				c0,0.311,0.078,0.662,0.195,1.012c0.156,0.35,0.428,0.934,0.895,1.752c0.506,0.934,0.934,1.401,1.324,1.401
				c0.428,0,0.856-0.428,1.285-1.246c0.428-0.817,0.662-1.596,0.662-2.375c0-0.623-0.156-1.129-0.506-1.479
				c-0.506-0.584-0.779-1.129-0.779-1.557c0-0.662,0.467-1.207,1.362-1.635c0.895-0.389,2.102-0.623,3.62-0.623
				c2.842,0,4.243,0.662,4.243,2.024c0,0.506-0.156,0.895-0.428,1.207c-0.272,0.311-0.817,0.584-1.557,0.856
				c-0.623,0.234-1.129,0.623-1.518,1.207C45.513-1.323,44.851,0.156,44.073,2.219z"/>
			<path class="st14" d="M66.885-15.415c1.479,0,2.997,0.117,4.555,0.389c1.246,0.195,2.18,0.506,2.725,0.895
				c0.545,0.389,0.817,0.895,0.817,1.557c0,0.428-0.117,0.74-0.311,0.973c-0.195,0.234-0.623,0.506-1.285,0.856
				c-0.779,0.389-1.207,0.856-1.324,1.401c-0.117,0.545-0.234,2.647-0.311,6.267c-0.039,3.542-0.078,5.645-0.117,6.345
				c-0.039,0.701-0.117,1.401-0.234,2.063c-0.389,1.946-1.168,3.465-2.336,4.594c-0.973,0.895-2.18,1.635-3.698,2.141
				c-1.518,0.506-3.075,0.779-4.749,0.779c-1.479,0-2.959-0.195-4.438-0.584c-1.479-0.389-2.764-0.934-3.854-1.596
				c-0.895-0.545-1.635-1.324-2.141-2.258c-0.545-0.934-0.817-1.985-0.817-3.036c0-1.324,0.428-2.452,1.246-3.309
				c0.856-0.856,1.907-1.324,3.153-1.324c1.246,0,2.297,0.35,3.153,1.09c0.856,0.74,1.285,1.674,1.285,2.764
				c0,0.272-0.078,0.74-0.234,1.401c-0.039,0.117-0.039,0.272-0.039,0.428c0,0.428,0.156,0.779,0.467,1.051
				c0.311,0.272,0.701,0.389,1.207,0.389c0.895,0,1.596-0.389,2.141-1.207c0.545-0.817,0.817-1.869,0.817-3.153l-0.039-1.83
				l-0.039-4.905c-0.117-2.959-0.195-4.71-0.272-5.255c-0.078-0.545-0.195-0.973-0.467-1.285c-0.195-0.272-0.389-0.428-0.545-0.506
				s-0.584-0.195-1.246-0.389c-0.311-0.078-0.584-0.234-0.817-0.545c-0.234-0.311-0.35-0.623-0.35-0.973
				c0-0.701,0.272-1.285,0.856-1.713c0.584-0.428,1.479-0.779,2.764-1.051C63.887-15.26,65.367-15.415,66.885-15.415z"/>
		</g>
		<g class="st61">
			<path class="st14" d="M94.485,3.348h-9.382c-0.428,0-0.623,0.195-0.623,0.545c0,0.856,0.467,1.674,1.401,2.452
				c0.934,0.779,1.946,1.168,3.036,1.168c0.623,0,1.362-0.117,2.141-0.35s1.44-0.545,1.946-0.895
				c0.467-0.311,0.817-0.467,1.09-0.467c0.35,0,0.701,0.195,1.012,0.623c0.35,0.428,0.506,0.856,0.506,1.324
				c0,0.973-0.584,1.869-1.791,2.764c-2.102,1.596-4.555,2.375-7.319,2.375c-2.803,0-5.139-0.817-7.046-2.452
				c-0.934-0.817-1.674-1.752-2.258-2.881c-0.779-1.518-1.168-3.075-1.168-4.749c0-2.219,0.662-4.243,2.024-6.034
				c1.168-1.557,2.647-2.686,4.477-3.465c1.362-0.584,2.842-0.856,4.399-0.856c2.53,0,4.671,0.701,6.462,2.141
				c0.895,0.701,1.596,1.557,2.141,2.569c0.623,1.129,0.934,2.219,0.934,3.27c0,0.856-0.195,1.557-0.545,2.141
				C95.536,3.076,95.069,3.348,94.485,3.348z M85.609-0.389h2.024c0.856,0,1.285-0.389,1.285-1.168c0-0.701-0.195-1.324-0.623-1.752
				C87.867-3.776,87.361-3.97,86.66-3.97c-0.74,0-1.324,0.311-1.752,0.895c-0.389,0.545-0.584,1.09-0.584,1.674
				c0,0.389,0.078,0.662,0.272,0.856C84.792-0.467,85.142-0.389,85.609-0.389z"/>
		</g>
	</g>
</g>
<g id="Layer_3">
	<g>
		<g id="_x23_00a1e4ff_4_">
			<path class="st40" d="M41.399,0h2.697c0.022,0.916,0.02,1.83,0.015,2.747c0.902-0.002,1.806,0.002,2.707-0.005
				c0.007,0.899,0.007,1.798-0.02,2.697c-0.894,0-1.791,0.005-2.685,0c0,0.884-0.002,1.771,0.005,2.658
				c-0.889,0.057-1.779,0.044-2.668,0.037c-0.005-0.899-0.005-1.801-0.01-2.702c-0.904,0.012-1.806,0.007-2.707,0.01
				c-0.015-0.897-0.012-1.796-0.015-2.692c0.909-0.002,1.818-0.005,2.724,0C41.424,1.833,41.505,0.911,41.399,0z"/>
			<path class="st40" d="M25.78,7.593c2.717-0.653,5.699,1.607,5.64,4.434c0.209,2.471-1.953,4.788-4.412,4.835
				c-2.204,0.189-4.361-1.435-4.825-3.587C21.503,10.814,23.282,8.058,25.78,7.593z"/>
			<path class="st40" d="M36.582,7.589c2.715-0.644,5.707,1.621,5.631,4.449c0.219,2.543-2.096,4.899-4.623,4.832
				c-2.231,0.096-4.314-1.656-4.665-3.85C32.425,10.61,34.167,8.038,36.582,7.589z"/>
			<path class="st40" d="M47.389,7.593c2.634-0.626,5.51,1.479,5.611,4.203c0.211,1.85-0.848,3.71-2.491,4.552
				c-1.727,0.931-4.014,0.602-5.422-0.759c-1.58-1.479-1.909-4.083-0.725-5.898C45.028,8.618,46.143,7.832,47.389,7.593z"/>
			<path class="st40" d="M58.213,7.589c2.361-0.531,4.921,1.083,5.464,3.442c0.474,1.815-0.248,3.857-1.779,4.95
				c-1.422,1.061-3.464,1.194-5.012,0.327c-1.69-0.877-2.695-2.869-2.403-4.749C54.707,9.62,56.289,7.93,58.213,7.589z"/>
			<path class="st40" d="M26.647,23.677c-0.069-1.877-0.037-3.759-0.017-5.636c10.802,0.032,21.604,0.007,32.406,0.012
				c0.002,1.869,0.002,3.737,0,5.604C48.239,23.67,37.442,23.633,26.647,23.677z"/>
			<path class="st40" d="M0,28.436c2.727,0,5.454-0.002,8.183,0.002c0.005,2.609-0.005,5.22,0.002,7.832
				c2.705-2.589,5.348-5.24,8.053-7.829c2.749-0.007,5.498-0.007,8.247,0c-3.169,3.221-6.424,6.358-9.569,9.601
				c3.963,3.842,7.79,7.827,11.787,11.627c0.034-7.075,0.005-14.153,0.015-21.23c2.788-0.005,5.577-0.005,8.365,0
				c0,5.368-0.005,10.736,0,16.103c4.454-0.012,8.905,0.015,13.357-0.015c0.061,1.82,0.01,3.643,0.029,5.464
				c-10.824,0-21.65,0.01-32.474-0.005c-2.56-2.592-5.154-5.149-7.726-7.729C8.232,44.839,8.274,47.418,8.247,50
				C5.498,49.98,2.749,50.002,0,49.988V28.436z"/>
			<path class="st40" d="M50.762,28.436c4.491-0.015,8.981,0.029,13.472-0.022c1.417,3.854,2.658,7.775,3.997,11.659
				c0.111-0.174,0.268-0.322,0.324-0.526c1.28-3.707,2.589-7.404,3.881-11.109c4.515-0.005,9.031-0.007,13.546,0.002v21.535
				c-2.764,0.034-5.53,0.012-8.294,0.012c-0.005-4.958,0.025-9.917-0.015-14.877c-0.386,0.216-0.425,0.705-0.59,1.071
				c-1.604,4.606-3.25,9.198-4.854,13.804c-2.599,0-5.201,0.034-7.797-0.017c-1.629-4.709-3.314-9.397-4.958-14.099
				c-0.059-0.263-0.206-0.454-0.437-0.577c-0.007,4.899,0.002,9.8-0.002,14.701c-2.759,0-5.518,0-8.276-0.002
				C50.764,42.807,50.757,35.621,50.762,28.436z"/>
		</g>
	</g>
</g>
<g id="Layer_4">
</g>
</svg>
