<?xml version="1.0" encoding="utf-8"?>
<!-- Generator: Adobe Illustrator 18.0.0, SVG Export Plug-In . SVG Version: 6.00 Build 0)  -->
<!DOCTYPE svg PUBLIC "-//W3C//DTD SVG 1.1//EN" "http://www.w3.org/Graphics/SVG/1.1/DTD/svg11.dtd">
<svg version="1.1" xmlns="http://www.w3.org/2000/svg" xmlns:xlink="http://www.w3.org/1999/xlink" x="0px" y="0px" width="200px"
	 height="23.374px" viewBox="0 0 200 23.374" style="enable-background:new 0 0 200 23.374;" xml:space="preserve">
<style type="text/css">
	.st0{display:none;}
	.st1{display:inline;}
	.st2{fill:#ED2D27;}
	.st3{display:inline;fill:#F8B900;}
	.st4{display:inline;fill:#00235F;}
	.st5{fill:url(#SVGID_1_);}
	.st6{fill:#006CB6;}
	.st7{fill:url(#SVGID_2_);}
	.st8{fill:url(#SVGID_3_);}
	.st9{fill:url(#SVGID_4_);}
	.st10{fill:url(#SVGID_5_);}
	.st11{fill:url(#SVGID_6_);}
	.st12{fill-rule:evenodd;clip-rule:evenodd;fill:#FFFFFF;}
	.st13{fill-rule:evenodd;clip-rule:evenodd;fill:#E2231A;}
	.st14{fill:#FFFFFF;}
	.st15{fill-rule:evenodd;clip-rule:evenodd;fill:#001689;}
	.st16{fill:#00529B;}
	.st17{fill:#F47920;}
	.st18{fill:url(#SVGID_7_);}
	.st19{fill:url(#SVGID_8_);}
	.st20{fill:url(#SVGID_9_);}
	.st21{fill:url(#SVGID_10_);}
	.st22{fill:url(#SVGID_11_);}
	.st23{fill:url(#SVGID_12_);}
	.st24{fill:url(#SVGID_13_);}
	.st25{fill:#00054C;}
	.st26{fill:url(#path3364_3_);}
	.st27{fill:url(#path3366_3_);}
	.st28{fill:#22356B;}
	.st29{fill:#FCC210;}
	.st30{fill:#ED1C24;}
	.st31{display:inline;fill:url(#SVGID_14_);}
	.st32{fill:#002157;}
	.st33{fill:#CC2234;}
	.st34{fill:#E23546;}
	.st35{fill:#FCB130;}
	.st36{fill:#1D4886;}
	.st37{display:inline;fill:none;}
	.st38{display:inline;fill:#005DAA;}
	.st39{fill:#005DAA;}
	.st40{fill:#00A1E4;}
	.st41{fill:#00704A;}
	.st42{fill:#B10D28;}
	.st43{fill:#D31245;}
	.st44{fill:url(#path70_3_);}
	.st45{fill:url(#SVGID_15_);}
	.st46{fill:url(#SVGID_16_);}
	.st47{fill:#231916;}
	.st48{fill:#E60013;}
	.st49{fill:#C0231E;}
	.st50{fill:#014E84;}
	.st51{fill:#BA783E;}
	.st52{fill:#002052;}
	.st53{fill:#0093D0;}
	.st54{fill:#ED1B2F;}
	.st55{fill:#E3242B;}
	.st56{fill-rule:evenodd;clip-rule:evenodd;fill:#034EA2;}
	.st57{fill-rule:evenodd;clip-rule:evenodd;fill:#E11837;}
	.st58{fill:#034EA2;}
	.st59{opacity:0.8902;fill:#EB151C;}
	.st60{fill:#1A1A1A;}
	.st61{enable-background:new    ;}
	.st62{fill:#FF6600;}
	.st63{clip-path:url(#SVGID_18_);fill:url(#SVGID_19_);}
	.st64{fill:url(#SVGID_20_);}
	.st65{fill:#B2DB1F;}
	.st66{fill:#FA002C;}
	.st67{fill:#1C2D5B;}
	.st68{fill:#1C4E9D;}
	.st69{fill:#ED192D;}
	.st70{display:inline;fill:#FFFFFF;}
	.st71{display:inline;fill:#00529B;}
	.st72{display:inline;fill:#F47920;}
	.st73{display:inline;fill:url(#SVGID_21_);}
	.st74{display:inline;fill:url(#SVGID_22_);}
	.st75{display:inline;fill:url(#SVGID_23_);}
	.st76{display:inline;fill:url(#SVGID_24_);}
	.st77{display:inline;fill:url(#SVGID_25_);}
	.st78{display:inline;fill:url(#SVGID_26_);}
	.st79{display:inline;fill:url(#SVGID_27_);}
	.st80{display:inline;fill:url(#path3364_4_);}
	.st81{display:inline;fill:url(#path3366_4_);}
	.st82{display:inline;fill:url(#SVGID_28_);}
	.st83{display:inline;fill:url(#SVGID_29_);}
	.st84{display:inline;fill:url(#SVGID_30_);}
	.st85{display:inline;opacity:0.75;fill:#FFFFFF;}
	.st86{display:inline;fill:#ED1B2F;}
	.st87{opacity:0.8902;fill:#FFFFFF;}
	.st88{clip-path:url(#SVGID_32_);fill:#FFFFFF;}
	.st89{fill:url(#SVGID_33_);}
	.st90{fill:url(#SVGID_34_);}
	.st91{fill:url(#SVGID_35_);}
	.st92{fill:url(#SVGID_36_);}
	.st93{fill:url(#SVGID_37_);}
	.st94{fill:url(#SVGID_38_);}
	.st95{fill:url(#SVGID_39_);}
	.st96{fill:url(#SVGID_40_);}
	.st97{clip-path:url(#SVGID_42_);fill:url(#SVGID_43_);}
	.st98{fill:url(#SVGID_44_);}
	.st99{fill:url(#path70_5_);}
	.st100{fill:url(#SVGID_45_);}
	.st101{fill:url(#SVGID_46_);}
	.st102{fill:#F8B900;}
	.st103{fill:#00235F;}
	.st104{fill:url(#SVGID_47_);}
	.st105{fill:url(#SVGID_48_);}
	.st106{fill:url(#SVGID_49_);}
	.st107{fill:url(#SVGID_50_);}
	.st108{fill:url(#SVGID_51_);}
	.st109{fill:url(#SVGID_52_);}
	.st110{opacity:0.8902;fill:#EB151C;enable-background:new    ;}
	.st111{fill:#E11837;}
	.st112{fill:#E2231A;}
	.st113{fill:#001689;}
	.st114{fill:#EF3E34;}
	.st115{fill:#4D82C4;}
	.st116{fill:#8C7035;}
	.st117{fill:#5FBA45;}
	.st118{fill:#008F7E;}
	.st119{fill:#004595;}
	.st120{fill:#FFED00;}
	.st121{fill:#E53138;}
	.st122{fill:url(#SVGID_53_);}
	.st123{fill:url(#SVGID_54_);}
	.st124{fill:url(#SVGID_55_);}
	.st125{fill:url(#SVGID_56_);}
	.st126{fill:#11185E;}
	.st127{fill:#EE3024;}
	.st128{fill:#0675CC;}
	.st129{fill:#E2001A;}
	.st130{fill:#009036;}
	.st131{fill:#0B1560;}
	.st132{fill:#0070AF;}
	.st133{fill:#0F2C64;}
	.st134{fill:#EF001E;}
	.st135{fill:#1C2A8D;}
	.st136{fill:#334357;}
	.st137{fill:url(#SVGID_57_);}
	.st138{fill:#ED1B28;}
	.st139{fill:#1E5AAF;}
	.st140{fill:#991933;}
	.st141{fill:#E01933;}
	.st142{fill:#003366;}
	.st143{fill:#00265D;}
	.st144{fill:#003263;}
	.st145{fill:#EE452A;}
	.st146{fill:#011F65;}
	.st147{fill:#EC2227;}
	.st148{fill:#010101;}
	.st149{fill:#FCEE21;}
	.st150{fill:#18488B;}
	.st151{fill:#EC2427;}
	.st152{fill:#D09B2B;}
	.st153{fill:#156192;}
	.st154{fill:#021A31;}
	.st155{fill:#008E8F;}
	.st156{fill:#2B438F;}
	.st157{fill:#363F9E;}
	.st158{fill:#00ABBF;}
</style>
<g id="Layer_1" class="st0">
</g>
<g id="Layer_2" class="st0">
</g>
<g id="Layer_3">
	<g>
		<g>
			<circle class="st14" cx="34.787" cy="11.687" r="11.687"/>
			<g>
				<g>
					<path class="st68" d="M171.727,19.593c0,0-1.874-0.848-2.013-3.843c-0.144-3.008-0.104-8.692-0.104-8.692
						s-0.144-3.174,1.865-4.158c0,0,0.53-0.253,0.251-0.96c0,0-0.142-0.666-0.782-0.599c-0.634,0.073-7.301,0.426-10.442,0.036
						c0,0-0.713-0.036-0.85,0.562c0,0-0.351,0.571,0.251,1.03c0.599,0.457,2.151,1.514,2.151,4.8c0,3.283,0,6.107,0,6.107v0
						c0,0,0.139,4.62-1.59,4.302c0,0-0.604,0.391-2.049-2.257c-1.443-2.644-3.317-6.423-6.353-13.764c0,0-0.635-2.051-1.942-2.051
						c0,0-0.773,0.038-1.585,0.49c-0.815,0.464-3.39,1.914-6.07,2.689c0,0-0.711,0.209-0.498,0.915c0,0-0.107,0.531,0.673,0.812
						c0.775,0.287,1.448,0.599,1.656,0.99c0,0-0.808,2.609-2.293,5.293c-1.481,2.686-2.791,6.602-6.282,8.365
						c0,0-0.677,0.145-0.459,0.959c0.247,0.915,0.706,0.67,0.706,0.67c4.058-0.426,5.295-0.073,6.214,0
						c0.915,0.067,0.774-0.67,0.774-0.67c0.246-0.464-0.069-0.744-0.069-0.744l-0.388-0.495c0,0-1.519-0.391,0.633-4.729
						c0,0,4.029-0.104,6.214-0.073c0,0,0.815,1.374,0.815,3.034c0,1.665-1.45,2.049-1.45,2.049s-0.602,0.249-0.322,0.988
						c0,0,0.109,0.708,0.817,0.64c0.704-0.073,12.425-0.568,21.955,0.031c0,0,0.668,0.036,0.843-0.561
						C172.006,20.76,172.397,20.015,171.727,19.593z M144.199,12.109c0.734-1.978,1.862-3.954,1.862-3.954
						c1.908,2.715,2.158,3.989,2.158,3.989C146.704,12.394,144.199,12.109,144.199,12.109z"/>
				</g>
				<g>
					<path class="st68" d="M199.958,19.489c0,0,0.145-0.607-0.699-0.779c-0.848-0.178-1.481-0.99-2.083-2.192
						c-0.604-1.196-1.523-2.964-1.523-2.964s-1.232-3.063-5.259-3.104c0,0,5.541-0.952,5.541-5.124c0-4.158-4.935-4.231-4.935-4.231
						l-0.85,0c0,0-7.766,0.917-14.965,0.215c0,0-0.917-0.249-1.026,0.703c0,0-0.067,0.635,0.324,0.888
						c0.388,0.241,1.975,1.197,2.08,4.513c0.109,3.317,0.177,2.364,0.109,6.886c0,0,0.273,4.338-2.189,5.399
						c0,0-0.639,0.14-0.285,1.063c0,0,0.213,0.706,0.806,0.457c0,0,5.792-0.384,10.807,0.036c0,0,0.568,0.213,0.741-0.531
						c0,0,0.458-0.493-0.244-1.024c-0.711-0.524-1.98-1.447-2.125-3.672c-0.142-2.227-0.104-3.985-0.104-3.985h0.497
						c0,0,1.66-0.216,2.788,2.398c1.132,2.611,1.907,4.52,1.907,4.52s0.737,2.082,1.94,2.753c0,0,0.493,0.462,2.329,0.244
						c0,0,3.001-0.171,5.965-1.545C199.503,20.41,200.172,20.265,199.958,19.489z M187.962,6.746
						c-0.099,0.706-0.28,3.141-3.885,3.141V6.426c0,0,0.073-2.573,2.014-2.573C188.033,3.853,188.063,6.032,187.962,6.746z"/>
				</g>
				<g>
					<path class="st68" d="M130.673,17.612l-0.207-0.421c0,0-0.038-0.246-0.777-0.318c0,0-1.66,0.391-1.698-1.976
						c-0.031-2.362-0.142-5.717,0-9.14c0,0,0.073-2.122,2.014-2.72c0,0,0.703-0.067,0.386-0.915l-0.211-0.427
						c0,0,0-0.353-0.491-0.28c-0.493,0.073-3.248,0.317-6.174,0.073c0,0-0.637,0-0.711,0.703c0,0-0.173,0.639,0.322,0.848
						c0.493,0.211,2.22,0.848,2.331,3.563c0.102,2.726,0.138,6.498,0.138,6.498s-4.025-5.93-6.601-10.483
						c0,0-0.421-1.237-1.945-1.128c-1.509,0.104-5.151,0.28-7.797,0.029c0,0-0.742-0.102-0.848,0.746c0,0-0.211,0.739,0.424,1.056
						c0,0,2.12,1.343,2.12,1.801c0,0.462-0.04,9.852-0.04,9.852s0.182,3.849-0.845,3.354c0,0-0.599,0.388-2.045-2.262
						c-1.447-2.648-3.319-6.424-6.353-13.769c0,0-0.638-2.045-1.942-2.045c0,0-0.777,0.038-1.587,0.49
						c-0.813,0.464-3.392,1.91-6.072,2.689c0,0-0.706,0.209-0.496,0.915c0,0-0.102,0.526,0.671,0.819
						c0.775,0.279,1.447,0.597,1.658,0.981c0,0-0.81,2.613-2.295,5.302c-1.483,2.679-3.385,7.126-8.858,7.126h-2.154
						c0,0-0.563,0.067-0.563-0.706c0-0.775,0-5.681,0-5.681h1.412c0,0,2.291-0.497,3.39,2.469c0,0,0.208,0.917,0.985,0.562
						c0,0,0.881-0.104,0.812-0.988c-0.069-0.879-0.137-3.283,0.035-5.399c0,0,0.073-0.635-0.635-0.775c0,0-0.563-0.282-0.988,0.177
						c-0.422,0.457-1.307,1.549-3.319,1.549h-1.653V4.483c0,0-0.038-0.35,0.206-0.386c0.246-0.036,3.321-0.78,5.119,0.665
						c1.8,1.452,1.911,2.051,2.295,2.582c0,0,0.351,0.884,1.269,0.287c0,0,0.709-0.111,0.355-1.204
						c-0.355-1.101-0.457-1.481-1.056-4.238c0,0-0.111-1.166-1.308-1.056c-1.199,0.104-8.715,0.988-15.776,0.421
						c0,0-0.739-0.176-0.882,0.604c0,0-0.32,0.524,0.28,1.017c0,0,2.08,0.959,2.08,4.626c0,3.672,0,6.145,0,6.145
						s0.357,4.873-1.372,4.873c0,0-0.744,0.317-2.011-2.191c-1.27-2.506-1.341-2.578-1.341-2.578s-1.024-3.288-5.439-3.425
						c0,0,6.107-1.023,5.543-5.612c0,0-0.104-3.497-4.69-3.636l-0.496,0c0,0-9.95,0.744-15.318,0.244c0,0-0.639-0.171-0.815,0.568
						c0,0-0.348,0.562,0.213,0.952c0.561,0.391,2.189,1.343,2.189,4.873c0,3.532,0,6.811,0,6.811s0.318,3.745-2.262,5.153
						c0,0-0.526,0.178-0.246,0.922c0,0,0.036,0.67,0.78,0.566c0.737-0.109,4.906-0.426,10.623-0.036c0,0,0.491,0.036,0.628-0.287
						c0.145-0.31,0.183-0.348,0.183-0.348s0.497-0.493-0.253-0.988c-0.737-0.493-1.974-1.237-2.078-4.378
						c-0.106-3.144,0-3.212,0-3.212h0.457c0,0,1.583-0.145,2.646,2.265c0,0,2.051,4.935,2.365,5.534
						c0.32,0.604,0.919,1.872,3.144,1.66c2.222-0.209,12.594-0.954,23.612,0.036c0,0,1.201,0.176,1.659-0.99
						c0,0,1.905-5.117,2.362-5.934c0,0,4.027-0.104,6.216-0.069c0,0,0.808,1.379,0.808,3.039s-1.443,2.049-1.443,2.049
						s-0.602,0.244-0.318,0.988c0,0,0.106,0.708,0.812,0.635c0.703-0.073,7.022-0.67,16.552-0.073c0,0,0.637,0.251,0.846-0.597
						c0,0,0.389-0.671-0.282-0.99c0,0-2.501-0.562-2.501-4.556c0-3.99,0.035-6.809,0.035-6.809s1.902,2.715,4.162,6.778
						c2.26,4.058,3.461,5.79,3.461,5.79s1.13,2.189,3.35,1.023c2.224-1.163,4.624-2.506,6.001-3.463
						C130.428,18.533,130.96,18.289,130.673,17.612z M56.447,10.026V6.568c0,0,0.036-2.58,2.077-2.58
						c2.051,0,1.793,2.507,1.814,2.824C60.354,7.136,60.223,10.026,56.447,10.026z M93.794,12.356c0,0,1.306-3.068,1.864-3.952
						c0,0,1.596,2.191,2.16,3.99C97.817,12.395,96.017,12.677,93.794,12.356z"/>
				</g>
				<path class="st69" d="M43.956,18.896l0.017-0.019c0.012-0.016,0.021-0.034,0.033-0.05
					C43.989,18.849,43.974,18.874,43.956,18.896z"/>
				<path class="st69" d="M45.758,14.708c-0.26,1.484-0.865,2.901-1.751,4.119c3.637-4.699,3.094-11.574-1.206-15.652
					c-4.32-4.098-11.247-4.249-15.744-0.33c-2.219,2.002-3.15,5.166-2.41,8.057c0.691,2.699,3.519,4.355,6.225,3.671
					c2.43-0.615,3.91-2.828,3.893-5.269c-0.005-0.752-0.087-1.544,0.007-2.293c0.183-1.462,1.469-2.301,2.823-2.538
					c2.409-0.421,4.945,1.203,6.401,3.002C45.631,9.496,46.259,12.162,45.758,14.708z"/>
				<path class="st68" d="M44.619,11.681c-1.497-3.375-6.129-4.083-8.576-1.332c-0.976,1.098-1.31,2.434-1.3,3.869
					c0.009,1.332,0.222,2.794-0.882,3.787c-2.857,2.57-7.271-0.352-8.917-2.919c-2.102-3.278-1.639-7.55,0.6-10.634
					c-2.056,2.622-2.902,6.064-2.302,9.342c0.149,0.813,0.384,1.611,0.701,2.375c0.09,0.217,0.541,0.722,0.174,0.846
					c-0.699,0.236-1.376-0.814-1.767-1.279c-0.546-0.648-6.02-6.882-5.82-7.093c1.535-1.615,3.277-3.112,5.177-4.279
					c0.549-0.337,2.223-0.792,2.264-1.622c0.043-0.853-0.458-1.174-1.239-1.09c-1.156,0.124-2.324,0.163-3.486,0.176
					c-0.852,0.01-1.705-0.003-2.556-0.042c-0.659-0.03-1.61-0.327-2.233-0.028c-1.217,0.585,0,1.585,0.482,2.103
					c0.5,0.537,0.982,1.365,0.73,2.123c-0.387,1.16-1.707,1.885-2.629,2.56c-0.949,0.695-1.891,1.464-2.935,2.015
					c0.011-1.188-0.014-2.382,0.034-3.57c0.036-0.875,0.252-1.768,0.686-2.533c0.448-0.788,1.805-1.289,1.435-2.244
					c-0.36-0.93-1.69-0.509-2.498-0.471c-2.74,0.13-5.489,0.088-8.229-0.028C1.02,1.693,0.625,1.627,0.362,2.152
					C0.204,2.467,0.09,2.966,0.432,3.213c0.611,0.441,1.125,0.929,1.481,1.606c0.84,1.595,0.643,3.703,0.659,5.456
					c0.02,2.287,0.121,4.736-0.48,6.965c-0.315,1.168-1.005,1.95-1.846,2.779c-0.616,0.607,0.027,1.678,0.82,1.589
					c1.283-0.155,2.584-0.205,3.875-0.239c1.286-0.033,2.573-0.028,3.858,0.015c0.595,0.02,2.981,0.567,3.281-0.095
					c1.007-1.051-1.084-2.248-1.525-3.148c-0.794-1.621-0.482-3.746-0.484-5.51c0.415,0.283,0.745,0.704,1.066,1.083
					c1.715,2.027,3.214,4.249,4.702,6.443c1,1.473,2.309,2.563,4.236,2.216c2.123-0.382,3.967-2.04,5.715-3.17
					c3.088,3.673,8.247,5.11,12.788,3.543C43.177,21.16,46.413,16.579,44.619,11.681z"/>
			</g>
		</g>
	</g>
</g>
<g id="Layer_4">
</g>
</svg>
