<?xml version="1.0" encoding="utf-8"?>
<!-- Generator: Adobe Illustrator 18.0.0, SVG Export Plug-In . SVG Version: 6.00 Build 0)  -->
<!DOCTYPE svg PUBLIC "-//W3C//DTD SVG 1.1//EN" "http://www.w3.org/Graphics/SVG/1.1/DTD/svg11.dtd">
<svg version="1.1" xmlns="http://www.w3.org/2000/svg" xmlns:xlink="http://www.w3.org/1999/xlink" x="0px" y="0px"
	 width="164.834px" height="50px" viewBox="0 0 164.834 50" style="enable-background:new 0 0 164.834 50;" xml:space="preserve">
<style type="text/css">
	.st0{display:none;}
	.st1{display:inline;}
	.st2{fill:#ED2D27;}
	.st3{display:inline;fill:#F8B900;}
	.st4{display:inline;fill:#00235F;}
	.st5{fill:url(#SVGID_1_);}
	.st6{fill:#006CB6;}
	.st7{fill:url(#SVGID_2_);}
	.st8{fill:url(#SVGID_3_);}
	.st9{fill:url(#SVGID_4_);}
	.st10{fill:url(#SVGID_5_);}
	.st11{fill:url(#SVGID_6_);}
	.st12{fill-rule:evenodd;clip-rule:evenodd;fill:#FFFFFF;}
	.st13{fill-rule:evenodd;clip-rule:evenodd;fill:#E2231A;}
	.st14{fill:#FFFFFF;}
	.st15{fill-rule:evenodd;clip-rule:evenodd;fill:#001689;}
	.st16{fill:#00529B;}
	.st17{fill:#F47920;}
	.st18{fill:url(#SVGID_7_);}
	.st19{fill:url(#SVGID_8_);}
	.st20{fill:url(#SVGID_9_);}
	.st21{fill:url(#SVGID_10_);}
	.st22{fill:url(#SVGID_11_);}
	.st23{fill:url(#SVGID_12_);}
	.st24{fill:url(#SVGID_13_);}
	.st25{fill:#00054C;}
	.st26{fill:url(#path3364_3_);}
	.st27{fill:url(#path3366_3_);}
	.st28{fill:#22356B;}
	.st29{fill:#FCC210;}
	.st30{fill:#ED1C24;}
	.st31{display:inline;fill:url(#SVGID_14_);}
	.st32{fill:#002157;}
	.st33{fill:#CC2234;}
	.st34{fill:#E23546;}
	.st35{fill:#FCB130;}
	.st36{fill:#1D4886;}
	.st37{display:inline;fill:none;}
	.st38{display:inline;fill:#005DAA;}
	.st39{fill:#005DAA;}
	.st40{fill:#00A1E4;}
	.st41{fill:#00704A;}
	.st42{fill:#B10D28;}
	.st43{fill:#D31245;}
	.st44{fill:url(#path70_3_);}
	.st45{fill:url(#SVGID_15_);}
	.st46{fill:url(#SVGID_16_);}
	.st47{fill:#231916;}
	.st48{fill:#E60013;}
	.st49{fill:#C0231E;}
	.st50{fill:#014E84;}
	.st51{fill:#BA783E;}
	.st52{fill:#002052;}
	.st53{fill:#0093D0;}
	.st54{fill:#ED1B2F;}
	.st55{fill:#E3242B;}
	.st56{fill-rule:evenodd;clip-rule:evenodd;fill:#034EA2;}
	.st57{fill-rule:evenodd;clip-rule:evenodd;fill:#E11837;}
	.st58{fill:#034EA2;}
	.st59{opacity:0.8902;fill:#EB151C;}
	.st60{fill:#1A1A1A;}
	.st61{enable-background:new    ;}
	.st62{fill:#FF6600;}
	.st63{clip-path:url(#SVGID_18_);fill:url(#SVGID_19_);}
	.st64{fill:url(#SVGID_20_);}
	.st65{fill:#B2DB1F;}
	.st66{fill:#FA002C;}
	.st67{fill:#1C2D5B;}
	.st68{fill:#1C4E9D;}
	.st69{fill:#ED192D;}
	.st70{display:inline;fill:#FFFFFF;}
	.st71{display:inline;fill:#00529B;}
	.st72{display:inline;fill:#F47920;}
	.st73{display:inline;fill:url(#SVGID_21_);}
	.st74{display:inline;fill:url(#SVGID_22_);}
	.st75{display:inline;fill:url(#SVGID_23_);}
	.st76{display:inline;fill:url(#SVGID_24_);}
	.st77{display:inline;fill:url(#SVGID_25_);}
	.st78{display:inline;fill:url(#SVGID_26_);}
	.st79{display:inline;fill:url(#SVGID_27_);}
	.st80{display:inline;fill:url(#path3364_4_);}
	.st81{display:inline;fill:url(#path3366_4_);}
	.st82{display:inline;fill:url(#SVGID_28_);}
	.st83{display:inline;fill:url(#SVGID_29_);}
	.st84{display:inline;fill:url(#SVGID_30_);}
	.st85{display:inline;opacity:0.75;fill:#FFFFFF;}
	.st86{display:inline;fill:#ED1B2F;}
	.st87{opacity:0.8902;fill:#FFFFFF;}
	.st88{clip-path:url(#SVGID_32_);fill:#FFFFFF;}
	.st89{fill:url(#SVGID_33_);}
	.st90{fill:url(#SVGID_34_);}
	.st91{fill:url(#SVGID_35_);}
	.st92{fill:url(#SVGID_36_);}
	.st93{fill:url(#SVGID_37_);}
	.st94{fill:url(#SVGID_38_);}
	.st95{fill:url(#SVGID_39_);}
	.st96{fill:url(#SVGID_40_);}
	.st97{clip-path:url(#SVGID_42_);fill:url(#SVGID_43_);}
	.st98{fill:url(#SVGID_44_);}
	.st99{fill:url(#path70_5_);}
	.st100{fill:url(#SVGID_45_);}
	.st101{fill:url(#SVGID_46_);}
	.st102{fill:#F8B900;}
	.st103{fill:#00235F;}
	.st104{fill:url(#SVGID_47_);}
	.st105{fill:url(#SVGID_48_);}
	.st106{fill:url(#SVGID_49_);}
	.st107{fill:url(#SVGID_50_);}
	.st108{fill:url(#SVGID_51_);}
	.st109{fill:url(#SVGID_52_);}
	.st110{opacity:0.8902;fill:#EB151C;enable-background:new    ;}
	.st111{fill:#E11837;}
	.st112{fill:#E2231A;}
	.st113{fill:#001689;}
	.st114{fill:#EF3E34;}
	.st115{fill:#4D82C4;}
	.st116{fill:#8C7035;}
	.st117{fill:#5FBA45;}
	.st118{fill:#008F7E;}
	.st119{fill:#004595;}
	.st120{fill:#FFED00;}
	.st121{fill:#E53138;}
	.st122{fill:url(#SVGID_53_);}
	.st123{fill:url(#SVGID_54_);}
	.st124{fill:url(#SVGID_55_);}
	.st125{fill:url(#SVGID_56_);}
	.st126{fill:#11185E;}
	.st127{fill:#EE3024;}
	.st128{fill:#0675CC;}
	.st129{fill:#E2001A;}
	.st130{fill:#009036;}
	.st131{fill:#0B1560;}
	.st132{fill:#0070AF;}
	.st133{fill:#0F2C64;}
	.st134{fill:#EF001E;}
	.st135{fill:#1C2A8D;}
	.st136{fill:#334357;}
	.st137{fill:url(#SVGID_57_);}
	.st138{fill:#ED1B28;}
	.st139{fill:#1E5AAF;}
	.st140{fill:#991933;}
	.st141{fill:#E01933;}
	.st142{fill:#003366;}
	.st143{fill:#00265D;}
	.st144{fill:#003263;}
	.st145{fill:#EE452A;}
	.st146{fill:#011F65;}
	.st147{fill:#EC2227;}
	.st148{fill:#010101;}
	.st149{fill:#FCEE21;}
	.st150{fill:#18488B;}
	.st151{fill:#EC2427;}
	.st152{fill:#D09B2B;}
	.st153{fill:#156192;}
	.st154{fill:#021A31;}
	.st155{fill:#008E8F;}
	.st156{fill:#2B438F;}
	.st157{fill:#363F9E;}
	.st158{fill:#00ABBF;}
</style>
<g id="Layer_1" class="st0">
	<g class="st1">
		<path id="path6_2_" class="st33" d="M23.826-8.831c6.526-6.699,17.32-9.688,26.032-5.704c3.115,1.583,5.892,4.402,6.484,7.959
			c0.588,2.585-0.365,5.151-0.93,7.648c-1.817,7.187-3.557,14.393-5.393,21.572c-0.065,0.004-0.188,0.012-0.25,0.015
			c-1.702-4.218-3.2-8.535-5.324-12.565c-1.548-2.808-4.172-5.435-7.544-5.62c-2.355-0.023-4.717-0.111-7.068,0.088
			c3.023,0.119,5.205,2.558,6.734,4.921c2.431,3.922,3.73,8.389,5.539,12.599c1.268,2.808,2.789,5.624,5.228,7.583
			c-0.353,0.453-0.714,0.903-1.076,1.352c-4.548-3.1-6.315-8.597-8.197-13.49c-1.583-3.703-2.827-7.759-5.766-10.656
			c-1.49-1.56-3.63-2.447-5.785-2.42c-2.143,0.012-4.291-0.092-6.43,0.108c1.091,0.146,2.197,0.38,3.1,1.049
			c3.004,1.99,4.679,5.335,6.023,8.57c1.686,3.822,2.785,7.921,5.02,11.485c1.214,1.924,2.716,3.791,4.782,4.84
			c2.074,1.118,4.513,0.68,6.741,1.218c-4.429,4.552-10.625,7.271-16.951,7.594c-3.945,0.123-8.09-0.665-11.301-3.081
			c-2.166-1.636-3.918-3.956-4.398-6.68c-0.576-2.312,0.25-4.617,0.745-6.857c2.044-8.193,4.06-16.394,6.119-24.584
			C20.573-4.506,21.975-6.891,23.826-8.831 M17.15,23.005c-0.618,4.106,2.531,8.286,6.618,8.892c3.711,0.753,7.56-1.633,8.892-5.105
			c-1.917-3.238-3.138-6.814-4.579-10.275C23.434,14.531,17.626,17.992,17.15,23.005z"/>
		<path id="path8_2_" class="st33" d="M90.786,9.553c0.807-0.012,1.613-0.031,2.42-0.065c0.396,2.965,0.088,6,0.169,8.992
			c2.946-3.592,9-3.2,11.793,0.376c2.935,3.327,2.239,9.05-1.414,11.57c-2.335,1.782-5.627,2.04-8.289,0.88
			c-2.712-1.229-4.744-4.045-4.675-7.072C90.779,19.34,90.771,14.447,90.786,9.553 M96.936,18.68
			c-2.262,0.941-3.772,3.43-3.453,5.881c0.192,3.2,3.569,5.885,6.73,4.948c3.269-0.811,5.036-4.817,3.653-7.836
			C102.821,19.049,99.575,17.527,96.936,18.68z"/>
		<path id="path10_2_" class="st33" d="M136.251,9.538c0.883,0,1.775,0,2.662-0.004c0.023,5.401,0,10.802,0.012,16.202
			c0.046,0.941,0.096,2.032,0.826,2.727c0.607,0.714,1.609,0.703,2.451,0.899c-0.004,0.776-0.004,1.548-0.004,2.324
			c-1.452,0.081-2.981-0.2-4.102-1.187c-1.437-1.118-1.863-3.035-1.851-4.767C136.255,20.332,136.244,14.935,136.251,9.538z"/>
		<path id="path12_2_" class="st33" d="M76.117,10.713c1.125-0.638,2.758,0.173,2.504,1.567c0.061,1.583-2.243,1.901-3.027,0.745
			C75.387,12.253,75.318,11.178,76.117,10.713z"/>
		<path id="path14_2_" class="st33" d="M144.545,10.897c0.845-0.772,2.796-0.373,2.716,1.003c0.23,1.022-0.668,1.978-1.702,1.813
			C144.141,13.801,143.584,11.766,144.545,10.897z"/>
		<path id="path16_4_" class="st33" d="M57.325,20.474c1.187-2.462,3.707-4.21,6.426-4.471c4.248-0.622,8.604,2.712,8.954,7.014
			c0.119,2.885,0.004,5.773,0.065,8.658c-0.876-0.004-1.752-0.008-2.624-0.031c0-0.768,0.004-1.533,0.004-2.301
			c-2.777,3.822-8.946,3.388-11.762-0.157C56.358,26.827,55.973,23.255,57.325,20.474 M62.734,18.672
			c-3.277,1.206-4.49,5.577-2.666,8.447c1.16,1.875,3.507,2.958,5.677,2.451c2.708-0.553,4.698-3.365,4.337-6.104
			C69.944,19.997,65.999,17.228,62.734,18.672z"/>
		<path id="path18_4_" class="st33" d="M82.47,18.726c1.314-1.99,3.799-2.923,6.127-2.708c-0.008,0.822-0.015,1.64-0.035,2.462
			c-1.041,0.061-2.193-0.042-3.085,0.611c-1.141,0.787-1.494,2.27-1.487,3.58c-0.035,3.012,0.038,6.023-0.023,9.035
			c-0.88-0.012-1.755-0.019-2.635-0.031c0.019-2.75,0.008-5.497,0.012-8.243C81.364,21.81,81.483,20.082,82.47,18.726z"/>
		<path id="path20_2_" class="st33" d="M109.163,21.565c1.102-3.453,4.702-5.915,8.332-5.593c3.492,0.219,6.572,2.931,7.344,6.323
			c-4.164,1.656-8.332,3.311-12.492,4.982c1.237,1.56,3.134,2.531,5.155,2.247c1.978,0.15,3.569-1.183,4.644-2.693
			c0.887,0.004,1.771,0.004,2.658,0.027c-0.68,1.805-1.924,3.461-3.695,4.306c-3.43,1.613-7.978,0.964-10.448-2.036
			C108.852,27.1,108.402,24.127,109.163,21.565 M115.708,18.522c-2.819,0.649-4.698,3.63-4.183,6.465
			c3.392-1.16,6.634-2.716,10.022-3.895C120.399,19.106,117.975,17.873,115.708,18.522z"/>
		<path id="path22_4_" class="st33" d="M129.199,17.424c1.337-1.191,3.192-1.506,4.928-1.406c-0.004,0.722,0.019,1.44-0.027,2.163
			c-0.353,0.538-1.114,0.242-1.64,0.399c-1.706,0.077-2.912,1.775-2.866,3.399c-0.046,3.234,0.004,6.472-0.023,9.711
			c-0.883,0-1.767,0-2.65,0c0.008-3.146-0.023-6.292,0.012-9.438C126.963,20.42,127.72,18.557,129.199,17.424z"/>
		<path id="path24_2_" class="st33" d="M151.455,18.234c2.708-3.169,8.397-3.061,10.871,0.338c0.822,1.049,1.152,2.393,1.152,3.707
			c0.023,3.134-0.015,6.273,0.019,9.407c-0.903,0.004-1.805,0.004-2.7,0.004c0-3.146,0.019-6.292-0.008-9.438
			c0.027-1.079-0.38-2.163-1.195-2.885c-2.109-2.009-6.373-0.983-6.826,2.067c-0.219,3.415-0.031,6.845-0.092,10.264
			c-0.899-0.004-1.794-0.004-2.689-0.027c0.019-3.131-0.008-6.261,0.012-9.392C149.988,20.816,150.452,19.321,151.455,18.234z"/>
		<path id="path26_4_" class="st33" d="M75.721,16.36c0.883-0.015,1.771-0.012,2.658-0.015c0.008,5.113,0.008,10.225,0,15.338
			c-0.887,0-1.775,0-2.662-0.012C75.733,26.566,75.74,21.465,75.721,16.36z"/>
		<path id="path28_2_" class="st33" d="M144.283,16.344c0.887,0.004,1.778,0.004,2.67,0.004c0,5.12,0.019,10.237-0.012,15.353
			c-0.887-0.008-1.775-0.012-2.658-0.015C144.287,26.574,144.28,21.457,144.283,16.344z"/>
	</g>
</g>
<g id="Layer_2" class="st0">
	<g class="st1">
		<path id="path6_1_" class="st14" d="M23.826-8.831c6.526-6.699,17.32-9.688,26.032-5.704c3.115,1.583,5.892,4.402,6.484,7.959
			c0.588,2.585-0.365,5.151-0.93,7.648c-1.817,7.187-3.557,14.393-5.393,21.572c-0.065,0.004-0.188,0.012-0.25,0.015
			c-1.702-4.218-3.2-8.535-5.324-12.565c-1.548-2.808-4.172-5.435-7.544-5.62c-2.355-0.023-4.717-0.111-7.068,0.088
			c3.023,0.119,5.205,2.558,6.734,4.921c2.431,3.922,3.73,8.389,5.539,12.599c1.268,2.808,2.789,5.624,5.228,7.583
			c-0.353,0.453-0.714,0.903-1.076,1.352c-4.548-3.1-6.315-8.597-8.197-13.49c-1.583-3.703-2.827-7.759-5.766-10.656
			c-1.49-1.56-3.63-2.447-5.785-2.42c-2.143,0.012-4.291-0.092-6.43,0.108c1.091,0.146,2.197,0.38,3.1,1.049
			c3.004,1.99,4.679,5.335,6.023,8.57c1.686,3.822,2.785,7.921,5.02,11.485c1.214,1.924,2.716,3.791,4.782,4.84
			c2.074,1.118,4.513,0.68,6.741,1.218c-4.429,4.552-10.625,7.271-16.951,7.594c-3.945,0.123-8.09-0.665-11.301-3.081
			c-2.166-1.636-3.918-3.956-4.398-6.68c-0.576-2.312,0.25-4.617,0.745-6.857c2.044-8.193,4.06-16.394,6.119-24.584
			C20.573-4.506,21.975-6.891,23.826-8.831 M17.15,23.005c-0.618,4.106,2.531,8.286,6.618,8.892c3.711,0.753,7.56-1.633,8.892-5.105
			c-1.917-3.238-3.138-6.814-4.579-10.275C23.434,14.531,17.626,17.992,17.15,23.005z"/>
		<path id="path8_1_" class="st14" d="M90.786,9.553c0.807-0.012,1.613-0.031,2.42-0.065c0.396,2.965,0.088,6,0.169,8.992
			c2.946-3.592,9-3.2,11.793,0.376c2.935,3.327,2.239,9.05-1.414,11.57c-2.335,1.782-5.627,2.04-8.289,0.88
			c-2.712-1.229-4.744-4.045-4.675-7.072C90.779,19.34,90.771,14.447,90.786,9.553 M96.936,18.68
			c-2.262,0.941-3.772,3.43-3.453,5.881c0.192,3.2,3.569,5.885,6.73,4.948c3.269-0.811,5.036-4.817,3.653-7.836
			C102.821,19.049,99.575,17.527,96.936,18.68z"/>
		<path id="path10_1_" class="st14" d="M136.251,9.538c0.883,0,1.775,0,2.662-0.004c0.023,5.401,0,10.802,0.012,16.202
			c0.046,0.941,0.096,2.032,0.826,2.727c0.607,0.714,1.609,0.703,2.451,0.899c-0.004,0.776-0.004,1.548-0.004,2.324
			c-1.452,0.081-2.981-0.2-4.102-1.187c-1.437-1.118-1.863-3.035-1.851-4.767C136.255,20.332,136.244,14.935,136.251,9.538z"/>
		<path id="path12_1_" class="st14" d="M76.117,10.713c1.125-0.638,2.758,0.173,2.504,1.567c0.061,1.583-2.243,1.901-3.027,0.745
			C75.387,12.253,75.318,11.178,76.117,10.713z"/>
		<path id="path14_1_" class="st14" d="M144.545,10.897c0.845-0.772,2.796-0.373,2.716,1.003c0.23,1.022-0.668,1.978-1.702,1.813
			C144.141,13.801,143.584,11.766,144.545,10.897z"/>
		<path id="path16_1_" class="st14" d="M57.325,20.474c1.187-2.462,3.707-4.21,6.426-4.471c4.248-0.622,8.604,2.712,8.954,7.014
			c0.119,2.885,0.004,5.773,0.065,8.658c-0.876-0.004-1.752-0.008-2.624-0.031c0-0.768,0.004-1.533,0.004-2.301
			c-2.777,3.822-8.946,3.388-11.762-0.157C56.358,26.827,55.973,23.255,57.325,20.474 M62.734,18.672
			c-3.277,1.206-4.49,5.577-2.666,8.447c1.16,1.875,3.507,2.958,5.677,2.451c2.708-0.553,4.698-3.365,4.337-6.104
			C69.944,19.997,65.999,17.228,62.734,18.672z"/>
		<path id="path18_3_" class="st14" d="M82.47,18.726c1.314-1.99,3.799-2.923,6.127-2.708c-0.008,0.822-0.015,1.64-0.035,2.462
			c-1.041,0.061-2.193-0.042-3.085,0.611c-1.141,0.787-1.494,2.27-1.487,3.58c-0.035,3.012,0.038,6.023-0.023,9.035
			c-0.88-0.012-1.755-0.019-2.635-0.031c0.019-2.75,0.008-5.497,0.012-8.243C81.364,21.81,81.483,20.082,82.47,18.726z"/>
		<path id="path20_1_" class="st14" d="M109.163,21.565c1.102-3.453,4.702-5.915,8.332-5.593c3.492,0.219,6.572,2.931,7.344,6.323
			c-4.164,1.656-8.332,3.311-12.492,4.982c1.237,1.56,3.134,2.531,5.155,2.247c1.978,0.15,3.569-1.183,4.644-2.693
			c0.887,0.004,1.771,0.004,2.658,0.027c-0.68,1.805-1.924,3.461-3.695,4.306c-3.43,1.613-7.978,0.964-10.448-2.036
			C108.852,27.1,108.402,24.127,109.163,21.565 M115.708,18.522c-2.819,0.649-4.698,3.63-4.183,6.465
			c3.392-1.16,6.634-2.716,10.022-3.895C120.399,19.106,117.975,17.873,115.708,18.522z"/>
		<path id="path22_1_" class="st14" d="M129.199,17.424c1.337-1.191,3.192-1.506,4.928-1.406c-0.004,0.722,0.019,1.44-0.027,2.163
			c-0.353,0.538-1.114,0.242-1.64,0.399c-1.706,0.077-2.912,1.775-2.866,3.399c-0.046,3.234,0.004,6.472-0.023,9.711
			c-0.883,0-1.767,0-2.65,0c0.008-3.146-0.023-6.292,0.012-9.438C126.963,20.42,127.72,18.557,129.199,17.424z"/>
		<path id="path24_1_" class="st14" d="M151.455,18.234c2.708-3.169,8.397-3.061,10.871,0.338c0.822,1.049,1.152,2.393,1.152,3.707
			c0.023,3.134-0.015,6.273,0.019,9.407c-0.903,0.004-1.805,0.004-2.7,0.004c0-3.146,0.019-6.292-0.008-9.438
			c0.027-1.079-0.38-2.163-1.195-2.885c-2.109-2.009-6.373-0.983-6.826,2.067c-0.219,3.415-0.031,6.845-0.092,10.264
			c-0.899-0.004-1.794-0.004-2.689-0.027c0.019-3.131-0.008-6.261,0.012-9.392C149.988,20.816,150.452,19.321,151.455,18.234z"/>
		<path id="path26_1_" class="st14" d="M75.721,16.36c0.883-0.015,1.771-0.012,2.658-0.015c0.008,5.113,0.008,10.225,0,15.338
			c-0.887,0-1.775,0-2.662-0.012C75.733,26.566,75.74,21.465,75.721,16.36z"/>
		<path id="path28_1_" class="st14" d="M144.283,16.344c0.887,0.004,1.778,0.004,2.67,0.004c0,5.12,0.019,10.237-0.012,15.353
			c-0.887-0.008-1.775-0.012-2.658-0.015C144.287,26.574,144.28,21.457,144.283,16.344z"/>
	</g>
</g>
<g id="Layer_3">
	<path class="st116" d="M31.995,27.466c-6.537,4.532,3.326,10.15,3.096,2.236c8.428,6.538-11.64,14.047-7.397-2.465
		c-1.72,0.457-4.3,0.687-4.3,0.687s-3.671-0.113-3.728-2.81c-0.064-2.994,3.784-2.635,3.784-2.635s2.638,0.516,4.187,0.858
		c-5.104-15.709,16.111-9.803,7.11-3.038c0.229-7.914-9.634-2.294-3.097,2.235c9.634,4.301,13.59-9.805,4.128-11.868
		C41.456,5.333,40.597,0,40.597,0L0.115,24.54H0L40.94,50c0,0,0.859-5.332-4.817-10.665C45.584,37.271,41.627,23.165,31.995,27.466z
		"/>
	<g>
		<path class="st135" d="M62.113,31.717c-0.487,0-0.73-0.261-0.73-0.784v-7.616c0-1.012-0.301-1.795-0.902-2.346
			c-0.601-0.552-1.272-0.914-2.012-1.087c-0.74-0.172-1.393-0.259-1.957-0.259c-1.697,0-3.014,0.353-3.951,1.06
			c-0.937,0.706-1.43,1.821-1.478,3.344h2.046c0.107-0.728,0.358-1.337,0.758-1.825c0.4-0.487,1.148-0.732,2.245-0.732
			c2.056,0,3.083,0.718,3.083,2.155c0,0.972-0.383,1.493-1.15,1.563l-3.633,0.457c-1.599,0.198-2.667,0.714-3.204,1.55
			c-0.537,0.836-0.806,1.703-0.806,2.6c0,0.745,0.174,1.408,0.523,1.988c0.349,0.581,0.837,1.03,1.463,1.351
			c0.625,0.318,1.337,0.477,2.134,0.477c1.14,0,2.075-0.203,2.805-0.605c0.73-0.404,1.377-0.918,1.941-1.545
			c0.053,0.633,0.237,1.13,0.55,1.487c0.314,0.357,0.912,0.537,1.794,0.537c0.142,0,0.286-0.014,0.43-0.041
			c0.143-0.028,0.268-0.057,0.375-0.09c0.106-0.034,0.242-0.075,0.406-0.126v-1.612C62.508,31.685,62.265,31.717,62.113,31.717z
			 M59.165,28.66L59.165,28.66c0,0.568-0.193,1.091-0.578,1.568c-0.385,0.478-0.893,0.855-1.523,1.128
			c-0.63,0.275-1.283,0.411-1.959,0.411c-1.587,0-2.379-0.766-2.379-2.297c0-0.511,0.146-0.917,0.441-1.221
			c0.293-0.302,0.636-0.514,1.03-0.639c0.392-0.123,0.839-0.22,1.337-0.29c1.255-0.164,2.125-0.307,2.61-0.427
			c0.485-0.119,0.826-0.257,1.022-0.414V28.66z"/>
	</g>
	<polygon class="st135" points="67.384,33.23 65.166,33.23 65.166,20.008 67.384,20.008 67.384,33.23 67.384,33.23 	"/>
	<polygon class="st135" points="67.384,17.639 65.166,17.639 65.166,15.061 67.384,15.061 67.384,17.639 	"/>
	<path class="st135" d="M76.84,19.625c-1.486,0-2.717,0.87-3.695,2.61h-0.056v-2.226h-2.088V33.23h2.217v-7.666
		c0-0.984,0.312-1.819,0.935-2.505c0.624-0.685,1.435-1.029,2.434-1.029h0.828v-2.324C77.245,19.652,77.052,19.625,76.84,19.625z"/>
	<g>
		<path class="st135" d="M102.612,31.717c-0.486,0-0.73-0.261-0.73-0.784v-7.616c0-1.012-0.301-1.795-0.902-2.346
			c-0.602-0.552-1.273-0.914-2.012-1.087c-0.74-0.172-1.394-0.259-1.958-0.259c-1.698,0-3.014,0.353-3.951,1.06
			c-0.937,0.706-1.43,1.821-1.478,3.344h2.046c0.106-0.728,0.359-1.337,0.757-1.825c0.4-0.487,1.149-0.732,2.246-0.732
			c2.055,0,3.083,0.718,3.083,2.155c0,0.972-0.385,1.493-1.15,1.563l-3.633,0.457c-1.599,0.198-2.667,0.714-3.204,1.55
			c-0.538,0.836-0.806,1.703-0.806,2.6c0,0.745,0.174,1.408,0.524,1.988c0.348,0.581,0.837,1.03,1.462,1.351
			c0.624,0.318,1.337,0.477,2.133,0.477c1.141,0,2.076-0.203,2.805-0.605c0.73-0.404,1.378-0.918,1.942-1.545
			c0.053,0.633,0.235,1.13,0.549,1.487c0.314,0.357,0.912,0.537,1.794,0.537c0.143,0,0.286-0.014,0.431-0.041
			c0.142-0.028,0.267-0.057,0.375-0.09c0.106-0.034,0.241-0.075,0.406-0.126v-1.612C103.007,31.685,102.763,31.717,102.612,31.717z
			 M99.663,28.66c0,0.568-0.194,1.091-0.578,1.568c-0.385,0.478-0.893,0.855-1.523,1.128c-0.629,0.275-1.282,0.411-1.96,0.411
			c-1.585,0-2.378-0.766-2.378-2.297c0-0.511,0.146-0.917,0.44-1.221c0.293-0.302,0.637-0.514,1.031-0.639
			c0.393-0.123,0.839-0.22,1.337-0.29c1.254-0.164,2.125-0.307,2.61-0.427c0.487-0.119,0.827-0.257,1.022-0.414V28.66z"/>
	</g>
	<path class="st135" d="M114.851,27.06c-0.557-0.539-1.515-0.976-2.872-1.31l-2.215-0.56c-0.636-0.156-1.115-0.298-1.438-0.425
		c-0.322-0.127-0.562-0.294-0.719-0.5c-0.159-0.205-0.237-0.484-0.237-0.839c0-0.71,0.29-1.2,0.871-1.467
		c0.58-0.267,1.164-0.401,1.751-0.401c2.039,0,3.08,0.742,3.126,2.226h2.138c0-0.434-0.113-0.963-0.339-1.59
		c-0.226-0.628-0.711-1.213-1.455-1.755c-0.747-0.542-1.827-0.814-3.24-0.814c-0.906,0-1.735,0.155-2.488,0.464
		c-0.755,0.308-1.359,0.78-1.814,1.415c-0.456,0.637-0.683,1.417-0.683,2.344c0,1.638,1.014,2.71,3.042,3.216l2.57,0.629
		c0.691,0.178,1.217,0.341,1.574,0.491c0.359,0.15,0.62,0.333,0.791,0.549c0.17,0.216,0.256,0.5,0.256,0.854
		c0,0.694-0.29,1.217-0.868,1.568c-0.579,0.352-1.295,0.527-2.153,0.527c-1.366,0-2.278-0.26-2.733-0.78
		c-0.456-0.52-0.714-1.159-0.775-1.92h-2.133c0.037,0.762,0.18,1.475,0.427,2.134c0.249,0.659,0.788,1.242,1.62,1.744
		c0.831,0.503,2.038,0.755,3.62,0.755c0.996,0,1.888-0.176,2.677-0.527c0.789-0.352,1.408-0.859,1.858-1.52
		c0.45-0.662,0.676-1.436,0.676-2.326C115.687,28.326,115.408,27.599,114.851,27.06z"/>
	<path class="st135" d="M123.034,21.856v-1.847h-2.112v-3.718h-2.218v3.718h-1.784v1.847h1.784v8.714
		c0,0.896,0.193,1.592,0.574,2.088c0.382,0.497,1.081,0.743,2.091,0.743c0.094,0,0.314-0.024,0.657-0.068
		c0.344-0.046,0.68-0.082,1.008-0.11v-1.746h-0.781c-0.372,0-0.688-0.061-0.944-0.183c-0.26-0.12-0.388-0.406-0.388-0.854v-8.585
		H123.034z"/>
	<g>
		<path class="st135" d="M136.15,31.717c-0.488,0-0.73-0.261-0.73-0.784v-7.616c0-1.012-0.301-1.795-0.902-2.346
			c-0.601-0.552-1.273-0.914-2.012-1.087c-0.74-0.172-1.393-0.259-1.958-0.259c-1.698,0-3.014,0.353-3.951,1.06
			c-0.937,0.706-1.43,1.821-1.478,3.344h2.046c0.107-0.728,0.36-1.337,0.76-1.825c0.399-0.487,1.148-0.732,2.245-0.732
			c2.055,0,3.083,0.718,3.083,2.155c0,0.972-0.385,1.493-1.15,1.563l-3.633,0.457c-1.599,0.198-2.667,0.714-3.204,1.55
			c-0.537,0.836-0.806,1.703-0.806,2.6c0,0.745,0.174,1.408,0.524,1.988c0.348,0.581,0.837,1.03,1.463,1.351
			c0.624,0.318,1.337,0.477,2.133,0.477c1.14,0,2.076-0.203,2.805-0.605c0.73-0.404,1.378-0.918,1.942-1.545
			c0.053,0.633,0.235,1.13,0.549,1.487c0.314,0.357,0.912,0.537,1.794,0.537c0.144,0,0.287-0.014,0.431-0.041
			c0.144-0.028,0.267-0.057,0.375-0.09c0.106-0.034,0.241-0.075,0.406-0.126v-1.612C136.545,31.685,136.301,31.717,136.15,31.717z
			 M133.201,28.66c0,0.568-0.192,1.091-0.578,1.568c-0.385,0.478-0.892,0.855-1.523,1.128c-0.629,0.275-1.282,0.411-1.96,0.411
			c-1.585,0-2.378-0.766-2.378-2.297c0-0.511,0.146-0.917,0.44-1.221c0.293-0.302,0.637-0.514,1.03-0.639
			c0.393-0.123,0.839-0.22,1.337-0.29c1.255-0.164,2.125-0.307,2.61-0.427c0.485-0.119,0.827-0.257,1.022-0.414V28.66z"/>
	</g>
	<path class="st135" d="M149.181,21.446c-0.456-0.683-1.028-1.157-1.718-1.423c-0.689-0.265-1.419-0.398-2.192-0.398
		c-1.635,0-2.96,0.758-3.975,2.272h-0.049v-1.888h-2.089V33.23h2.218v-7.191c0-1.097,0.186-1.974,0.559-2.632
		c0.374-0.657,0.824-1.115,1.35-1.374c0.527-0.259,1.044-0.389,1.55-0.389c1.046,0,1.775,0.277,2.189,0.83
		c0.414,0.553,0.622,1.428,0.622,2.628v8.129h2.218v-9C149.866,23.057,149.637,22.13,149.181,21.446z"/>
	<g>
		<path class="st135" d="M164.103,31.717c-0.488,0-0.73-0.261-0.73-0.784v-7.616c0-1.012-0.301-1.795-0.902-2.346
			c-0.601-0.552-1.273-0.914-2.013-1.087c-0.739-0.172-1.391-0.259-1.956-0.259c-1.698,0-3.014,0.353-3.951,1.06
			c-0.937,0.706-1.431,1.821-1.478,3.344h2.045c0.106-0.728,0.36-1.337,0.76-1.825c0.399-0.487,1.148-0.732,2.243-0.732
			c2.055,0,3.084,0.718,3.084,2.155c0,0.972-0.385,1.493-1.15,1.563l-3.633,0.457c-1.599,0.198-2.667,0.714-3.204,1.55
			c-0.538,0.836-0.806,1.703-0.806,2.6c0,0.745,0.174,1.408,0.523,1.988c0.35,0.581,0.838,1.03,1.464,1.351
			c0.625,0.318,1.337,0.477,2.133,0.477c1.14,0,2.076-0.203,2.805-0.605c0.729-0.404,1.378-0.918,1.942-1.545
			c0.053,0.633,0.237,1.13,0.551,1.487c0.312,0.357,0.91,0.537,1.793,0.537c0.143,0,0.287-0.014,0.429-0.041
			c0.144-0.028,0.269-0.057,0.377-0.09c0.106-0.034,0.241-0.075,0.406-0.126v-1.612C164.498,31.685,164.254,31.717,164.103,31.717z
			 M161.154,28.66c0,0.568-0.192,1.091-0.577,1.568c-0.386,0.478-0.894,0.855-1.523,1.128c-0.63,0.275-1.283,0.411-1.96,0.411
			c-1.587,0-2.379-0.766-2.379-2.297c0-0.511,0.146-0.917,0.441-1.221c0.293-0.302,0.637-0.514,1.03-0.639
			c0.392-0.123,0.839-0.22,1.337-0.29c1.255-0.164,2.125-0.307,2.61-0.427c0.485-0.119,0.827-0.257,1.022-0.414V28.66z"/>
	</g>
</g>
<g id="Layer_4">
</g>
</svg>
