<?xml version="1.0" encoding="utf-8"?>
<!-- Generator: Adobe Illustrator 18.0.0, SVG Export Plug-In . SVG Version: 6.00 Build 0)  -->
<!DOCTYPE svg PUBLIC "-//W3C//DTD SVG 1.1//EN" "http://www.w3.org/Graphics/SVG/1.1/DTD/svg11.dtd">
<svg version="1.1" xmlns="http://www.w3.org/2000/svg" xmlns:xlink="http://www.w3.org/1999/xlink" x="0px" y="0px" width="200px"
	 height="45.07px" viewBox="0 0 200 45.07" style="enable-background:new 0 0 200 45.07;" xml:space="preserve">
<style type="text/css">
	.st0{display:none;}
	.st1{display:inline;}
	.st2{fill:#ED2D27;}
	.st3{display:inline;fill:#F8B900;}
	.st4{display:inline;fill:#00235F;}
	.st5{fill:url(#SVGID_1_);}
	.st6{fill:#006CB6;}
	.st7{fill:url(#SVGID_2_);}
	.st8{fill:url(#SVGID_3_);}
	.st9{fill:url(#SVGID_4_);}
	.st10{fill:url(#SVGID_5_);}
	.st11{fill:url(#SVGID_6_);}
	.st12{fill-rule:evenodd;clip-rule:evenodd;fill:#FFFFFF;}
	.st13{fill-rule:evenodd;clip-rule:evenodd;fill:#E2231A;}
	.st14{fill:#FFFFFF;}
	.st15{fill-rule:evenodd;clip-rule:evenodd;fill:#001689;}
	.st16{fill:#00529B;}
	.st17{fill:#F47920;}
	.st18{fill:url(#SVGID_7_);}
	.st19{fill:url(#SVGID_8_);}
	.st20{fill:url(#SVGID_9_);}
	.st21{fill:url(#SVGID_10_);}
	.st22{fill:url(#SVGID_11_);}
	.st23{fill:url(#SVGID_12_);}
	.st24{fill:url(#SVGID_13_);}
	.st25{fill:#00054C;}
	.st26{fill:url(#path3364_3_);}
	.st27{fill:url(#path3366_3_);}
	.st28{fill:#22356B;}
	.st29{fill:#FCC210;}
	.st30{fill:#ED1C24;}
	.st31{display:inline;fill:url(#SVGID_14_);}
	.st32{fill:#002157;}
	.st33{fill:#CC2234;}
	.st34{fill:#E23546;}
	.st35{fill:#FCB130;}
	.st36{fill:#1D4886;}
	.st37{display:inline;fill:none;}
	.st38{display:inline;fill:#005DAA;}
	.st39{fill:#005DAA;}
	.st40{fill:#00A1E4;}
	.st41{fill:#00704A;}
	.st42{fill:#B10D28;}
	.st43{fill:#D31245;}
	.st44{fill:url(#path70_3_);}
	.st45{fill:url(#SVGID_15_);}
	.st46{fill:url(#SVGID_16_);}
	.st47{fill:#231916;}
	.st48{fill:#E60013;}
	.st49{fill:#C0231E;}
	.st50{fill:#014E84;}
	.st51{fill:#BA783E;}
	.st52{fill:#002052;}
	.st53{fill:#0093D0;}
	.st54{fill:#ED1B2F;}
	.st55{fill:#E3242B;}
	.st56{fill-rule:evenodd;clip-rule:evenodd;fill:#034EA2;}
	.st57{fill-rule:evenodd;clip-rule:evenodd;fill:#E11837;}
	.st58{fill:#034EA2;}
	.st59{opacity:0.8902;fill:#EB151C;}
	.st60{fill:#1A1A1A;}
	.st61{enable-background:new    ;}
	.st62{fill:#FF6600;}
	.st63{clip-path:url(#SVGID_18_);fill:url(#SVGID_19_);}
	.st64{fill:url(#SVGID_20_);}
	.st65{fill:#B2DB1F;}
	.st66{fill:#FA002C;}
	.st67{fill:#1C2D5B;}
	.st68{fill:#1C4E9D;}
	.st69{fill:#ED192D;}
	.st70{display:inline;fill:#FFFFFF;}
	.st71{display:inline;fill:#00529B;}
	.st72{display:inline;fill:#F47920;}
	.st73{display:inline;fill:url(#SVGID_21_);}
	.st74{display:inline;fill:url(#SVGID_22_);}
	.st75{display:inline;fill:url(#SVGID_23_);}
	.st76{display:inline;fill:url(#SVGID_24_);}
	.st77{display:inline;fill:url(#SVGID_25_);}
	.st78{display:inline;fill:url(#SVGID_26_);}
	.st79{display:inline;fill:url(#SVGID_27_);}
	.st80{display:inline;fill:url(#path3364_4_);}
	.st81{display:inline;fill:url(#path3366_4_);}
	.st82{display:inline;fill:url(#SVGID_28_);}
	.st83{display:inline;fill:url(#SVGID_29_);}
	.st84{display:inline;fill:url(#SVGID_30_);}
	.st85{display:inline;opacity:0.75;fill:#FFFFFF;}
	.st86{display:inline;fill:#ED1B2F;}
	.st87{opacity:0.8902;fill:#FFFFFF;}
	.st88{clip-path:url(#SVGID_32_);fill:#FFFFFF;}
	.st89{fill:url(#SVGID_33_);}
	.st90{fill:url(#SVGID_34_);}
	.st91{fill:url(#SVGID_35_);}
	.st92{fill:url(#SVGID_36_);}
	.st93{fill:url(#SVGID_37_);}
	.st94{fill:url(#SVGID_38_);}
	.st95{fill:url(#SVGID_39_);}
	.st96{fill:url(#SVGID_40_);}
	.st97{clip-path:url(#SVGID_42_);fill:url(#SVGID_43_);}
	.st98{fill:url(#SVGID_44_);}
	.st99{fill:url(#path70_5_);}
	.st100{fill:url(#SVGID_45_);}
	.st101{fill:url(#SVGID_46_);}
	.st102{fill:#F8B900;}
	.st103{fill:#00235F;}
	.st104{fill:url(#SVGID_47_);}
	.st105{fill:url(#SVGID_48_);}
	.st106{fill:url(#SVGID_49_);}
	.st107{fill:url(#SVGID_50_);}
	.st108{fill:url(#SVGID_51_);}
	.st109{fill:url(#SVGID_52_);}
	.st110{opacity:0.8902;fill:#EB151C;enable-background:new    ;}
	.st111{fill:#E11837;}
	.st112{fill:#E2231A;}
	.st113{fill:#001689;}
	.st114{fill:#EF3E34;}
	.st115{fill:#4D82C4;}
	.st116{fill:#8C7035;}
	.st117{fill:#5FBA45;}
	.st118{fill:#008F7E;}
	.st119{fill:#004595;}
	.st120{fill:#FFED00;}
	.st121{fill:#E53138;}
	.st122{fill:url(#SVGID_53_);}
	.st123{fill:url(#SVGID_54_);}
	.st124{fill:url(#SVGID_55_);}
	.st125{fill:url(#SVGID_56_);}
	.st126{fill:#11185E;}
	.st127{fill:#EE3024;}
	.st128{fill:#0675CC;}
	.st129{fill:#E2001A;}
	.st130{fill:#009036;}
	.st131{fill:#0B1560;}
	.st132{fill:#0070AF;}
	.st133{fill:#0F2C64;}
	.st134{fill:#EF001E;}
	.st135{fill:#1C2A8D;}
	.st136{fill:#334357;}
	.st137{fill:url(#SVGID_57_);}
	.st138{fill:#ED1B28;}
	.st139{fill:#1E5AAF;}
	.st140{fill:#991933;}
	.st141{fill:#E01933;}
	.st142{fill:#003366;}
	.st143{fill:#00265D;}
	.st144{fill:#003263;}
	.st145{fill:#EE452A;}
	.st146{fill:#011F65;}
	.st147{fill:#EC2227;}
	.st148{fill:#010101;}
	.st149{fill:#FCEE21;}
	.st150{fill:#18488B;}
	.st151{fill:#EC2427;}
	.st152{fill:#D09B2B;}
	.st153{fill:#156192;}
	.st154{fill:#021A31;}
	.st155{fill:#008E8F;}
	.st156{fill:#2B438F;}
	.st157{fill:#363F9E;}
	.st158{fill:#00ABBF;}
</style>
<g id="Layer_1" class="st0">
</g>
<g id="Layer_2" class="st0">
</g>
<g id="Layer_3">
	<g>
		<g>
			<rect id="_71073112_3_" x="0" y="0" class="st102" width="200" height="45.07"/>
			<path class="st103" d="M34.65,19.649c1.288,0,3.081,0.124,4.055,0.253l0.533-0.659c-2.103-0.253-3.739-0.345-5.623-0.345
				c-2.198,0-4.052,0.125-5.495,0.406c-0.819,2.324-2.579,3.642-4.901,3.642c-1.163,0-1.824-0.217-3.832-1.255l-0.567-0.312
				l0.189-0.349c1.382,0.629,2.7,1.133,3.422,1.291l0.192-0.379l-6.975-2.951l-0.374,0.849c-0.819-0.283-1.696-0.536-2.107-0.597
				l-0.222,0.784c1.699,0.504,3.806,1.509,6.378,2.985c6.502,3.862,7.76,4.367,14.855,6.221l1.291-1.291
				c-0.566,0.031-0.691,0.031-0.91,0.031c-2.673,0-5.657-1.225-7.447-3.014c1.952-1.101,3.897-1.539,6.88-1.539
				c0.411,0,0.752,0,1.82,0.063l0.6-0.722c-0.789-0.063-1.227-0.063-1.918-0.063c-1.76,0-2.764,0.062-4.366,0.218l0.253-0.5
				c0.88-0.128,2.576-0.191,3.924-0.191c0.85,0,1.952,0,2.512,0.035l0.536-0.694c-0.819-0.03-2.198-0.063-3.361-0.063
				c-1.227,0-2.39,0.032-3.236,0.093l0.253-0.566c0.974-0.027,1.571-0.061,2.39-0.061c1.473,0,2.383,0.034,4.362,0.093l0.533-0.691
				c-1.099-0.093-2.447-0.155-4.143-0.155c-1.008,0-1.476,0-2.764,0.063l0.249-0.567C32.139,19.681,33.113,19.649,34.65,19.649z"/>
			<path class="st103" d="M26.328,6.833c-8.923,0-15.951,6.945-15.951,15.767c0,8.639,7.029,15.644,15.668,15.644
				c8.734,0,15.739-6.973,15.739-15.671C41.784,13.964,34.809,6.833,26.328,6.833z M26.045,36.612
				c-7.756,0-14.04-6.282-14.04-14.039c0-7.733,6.317-14.104,13.949-14.104c7.976,0,14.198,6.216,14.198,14.131
				C40.152,30.36,33.835,36.612,26.045,36.612z"/>
			<polygon class="st103" points="65.802,11.225 60.556,11.225 60.556,32.174 74.66,32.174 74.66,28.032 65.802,28.032 			"/>
			<path class="st103" d="M93.254,16.659v0.442h-2.137v3.327h2.137v11.746h4.928V20.427h2.919V17.1h-2.919v-0.442
				c0-1.665,0.469-2.103,2.292-2.103h0.819v-3.33h-2.703C94.728,11.225,93.254,12.703,93.254,16.659z"/>
			<path class="st103" d="M108.862,26.396v-5.968h2.798v-3.327h-2.798v-4.713h-4.931v4.713h-2.07v3.327h2.07v7.322
				c0,3.076,1.321,4.425,4.244,4.425h3.704v-3.452h-0.974C109.024,28.722,108.895,28.596,108.862,26.396z"/>
			<path class="st103" d="M85.181,25.83c0,2.044-0.819,3.112-2.451,3.112c-1.54,0-2.168-0.91-2.168-3.112v-8.729h-4.932v8.919
				c0,2.481,0.094,3.048,0.755,4.181c0.88,1.505,2.606,2.385,4.743,2.385c1.725,0,3.108-0.597,4.335-1.884l0.155,1.473h4.49V17.101
				h-4.928L85.181,25.83z"/>
			<path class="st103" d="M143.664,30.072v-7.698c0-3.956-2.323-5.902-7.002-5.902c-4.46,0-7.133,2.013-7.133,5.434l0,0h4.494
				c0.033-1.32,0.973-2.075,2.575-2.075c1.318,0,2.198,0.566,2.198,1.416c0,0.721-0.404,1.065-1.476,1.286
				c-2.477,0.47-3.924,0.754-4.365,0.878c-2.889,0.817-4.362,2.419-4.362,4.684c0,2.73,2.414,4.707,5.747,4.707
				c1.976,0,3.327-0.5,4.899-1.881l0.283,1.253h4.551C143.664,31.39,143.664,31.39,143.664,30.072z M138.921,26.02
				c0,2.23-1.126,3.297-3.513,3.297c-1.231,0-1.985-0.563-1.985-1.541c0-0.97,0.789-1.601,2.39-2.009
				c0.66-0.129,1.193-0.251,1.79-0.406c0.502-0.16,0.691-0.22,1.318-0.411h0V26.02z"/>
			<path class="st103" d="M170.523,22.848l-1.699-0.315c-1.635-0.251-2.353-0.69-2.353-1.411c0-0.787,0.752-1.257,1.978-1.257
				c1.504,0,2.1,0.533,2.229,1.947h4.617c-0.128-1.664-0.189-1.915-0.627-2.671c-1.008-1.822-2.956-2.668-6.095-2.668
				c-4.497,0-7.227,1.977-7.227,5.247c0,2.385,1.541,3.673,5.124,4.301l1.567,0.251c1.914,0.345,2.734,0.847,2.734,1.727
				c0,0.849-0.88,1.385-2.322,1.385c-1.665,0-2.704-0.787-2.704-2.045v-0.185h-4.804c0,3.64,2.764,5.649,7.821,5.649
				c4.271,0,7.005-2.039,7.005-5.243C175.768,24.95,174.103,23.445,170.523,22.848z"/>
			<path class="st103" d="M191.718,30.072v-7.698c0-3.956-2.289-5.902-6.971-5.902c-4.49,0-7.159,2.04-7.193,5.434v0h4.524
				c0-1.288,0.974-2.075,2.576-2.075c1.287,0,2.167,0.566,2.167,1.416c0,0.721-0.438,1.065-1.473,1.286
				c-2.481,0.44-3.927,0.754-4.369,0.878c-2.886,0.817-4.362,2.419-4.362,4.684c0,2.73,2.413,4.707,5.781,4.707
				c2.006,0,3.074-0.407,4.898-1.881l0.249,1.253h4.585C191.718,31.36,191.718,31.36,191.718,30.072z M186.983,26.02
				c0,2.23-1.133,3.297-3.519,3.297c-1.261,0-2.012-0.563-2.012-1.541c0-0.97,0.785-1.601,2.387-2.009
				c0.661-0.185,1.254-0.314,1.789-0.406c0.503-0.16,0.725-0.22,1.356-0.411V26.02z"/>
			<path class="st103" d="M154.406,16.659c-1.824,0-3.202,0.659-4.362,2.136l-0.159-1.694h-4.493v15.073h4.935v-8.539
				c0-2.075,0.812-3.142,2.417-3.142c1.537,0,2.167,0.912,2.167,3.142v8.539h4.932v-8.729c0-2.481-0.128-3.142-0.752-4.305
				C158.212,17.569,156.513,16.659,154.406,16.659z"/>
			<path class="st103" d="M122.026,16.659c-1.918,0-3.203,0.659-4.12,2.136v-7.569h-4.928v20.949h4.928v-8.539
				c0-2.075,0.819-3.142,2.451-3.142c1.51,0,2.168,0.973,2.168,3.142v8.539h4.904v-8.729c0-2.513-0.097-3.142-0.758-4.305
				C125.764,17.539,124.095,16.659,122.026,16.659z"/>
		</g>
	</g>
</g>
<g id="Layer_4">
</g>
</svg>
