<?xml version="1.0" encoding="utf-8"?>
<!-- Generator: Adobe Illustrator 18.0.0, SVG Export Plug-In . SVG Version: 6.00 Build 0)  -->
<!DOCTYPE svg PUBLIC "-//W3C//DTD SVG 1.1//EN" "http://www.w3.org/Graphics/SVG/1.1/DTD/svg11.dtd">
<svg version="1.1" xmlns="http://www.w3.org/2000/svg" xmlns:xlink="http://www.w3.org/1999/xlink" x="0px" y="0px" width="163px"
	 height="50px" viewBox="0 0 163 50" style="enable-background:new 0 0 163 50;" xml:space="preserve">
<style type="text/css">
	.st0{display:none;}
	.st1{display:inline;}
	.st2{fill:#ED2D27;}
	.st3{display:inline;fill:#F8B900;}
	.st4{display:inline;fill:#00235F;}
	.st5{fill:url(#SVGID_1_);}
	.st6{fill:#006CB6;}
	.st7{fill:url(#SVGID_2_);}
	.st8{fill:url(#SVGID_3_);}
	.st9{fill:url(#SVGID_4_);}
	.st10{fill:url(#SVGID_5_);}
	.st11{fill:url(#SVGID_6_);}
	.st12{fill-rule:evenodd;clip-rule:evenodd;fill:#FFFFFF;}
	.st13{fill-rule:evenodd;clip-rule:evenodd;fill:#E2231A;}
	.st14{fill:#FFFFFF;}
	.st15{fill-rule:evenodd;clip-rule:evenodd;fill:#001689;}
	.st16{fill:#00529B;}
	.st17{fill:#F47920;}
	.st18{fill:url(#SVGID_7_);}
	.st19{fill:url(#SVGID_8_);}
	.st20{fill:url(#SVGID_9_);}
	.st21{fill:url(#SVGID_10_);}
	.st22{fill:url(#SVGID_11_);}
	.st23{fill:url(#SVGID_12_);}
	.st24{fill:url(#SVGID_13_);}
	.st25{fill:#00054C;}
	.st26{fill:url(#path3364_3_);}
	.st27{fill:url(#path3366_3_);}
	.st28{fill:#22356B;}
	.st29{fill:#FCC210;}
	.st30{fill:#ED1C24;}
	.st31{display:inline;fill:url(#SVGID_14_);}
	.st32{fill:#002157;}
	.st33{fill:#CC2234;}
	.st34{fill:#E23546;}
	.st35{fill:#FCB130;}
	.st36{fill:#1D4886;}
	.st37{display:inline;fill:none;}
	.st38{display:inline;fill:#005DAA;}
	.st39{fill:#005DAA;}
	.st40{fill:#00A1E4;}
	.st41{fill:#00704A;}
	.st42{fill:#B10D28;}
	.st43{fill:#D31245;}
	.st44{fill:url(#path70_3_);}
	.st45{fill:url(#SVGID_15_);}
	.st46{fill:url(#SVGID_16_);}
	.st47{fill:#231916;}
	.st48{fill:#E60013;}
	.st49{fill:#C0231E;}
	.st50{fill:#014E84;}
	.st51{fill:#BA783E;}
	.st52{fill:#002052;}
	.st53{fill:#0093D0;}
	.st54{fill:#ED1B2F;}
	.st55{fill:#E3242B;}
	.st56{fill-rule:evenodd;clip-rule:evenodd;fill:#034EA2;}
	.st57{fill-rule:evenodd;clip-rule:evenodd;fill:#E11837;}
	.st58{fill:#034EA2;}
	.st59{opacity:0.8902;fill:#EB151C;}
	.st60{fill:#1A1A1A;}
	.st61{enable-background:new    ;}
	.st62{fill:#FF6600;}
	.st63{clip-path:url(#SVGID_18_);fill:url(#SVGID_19_);}
	.st64{fill:url(#SVGID_20_);}
	.st65{fill:#B2DB1F;}
	.st66{fill:#FA002C;}
	.st67{fill:#1C2D5B;}
	.st68{fill:#1C4E9D;}
	.st69{fill:#ED192D;}
	.st70{display:inline;fill:#FFFFFF;}
	.st71{display:inline;fill:#00529B;}
	.st72{display:inline;fill:#F47920;}
	.st73{display:inline;fill:url(#SVGID_21_);}
	.st74{display:inline;fill:url(#SVGID_22_);}
	.st75{display:inline;fill:url(#SVGID_23_);}
	.st76{display:inline;fill:url(#SVGID_24_);}
	.st77{display:inline;fill:url(#SVGID_25_);}
	.st78{display:inline;fill:url(#SVGID_26_);}
	.st79{display:inline;fill:url(#SVGID_27_);}
	.st80{display:inline;fill:url(#path3364_4_);}
	.st81{display:inline;fill:url(#path3366_4_);}
	.st82{display:inline;fill:url(#SVGID_28_);}
	.st83{display:inline;fill:url(#SVGID_29_);}
	.st84{display:inline;fill:url(#SVGID_30_);}
	.st85{display:inline;opacity:0.75;fill:#FFFFFF;}
	.st86{display:inline;fill:#ED1B2F;}
	.st87{opacity:0.8902;fill:#FFFFFF;}
	.st88{clip-path:url(#SVGID_32_);fill:#FFFFFF;}
	.st89{fill:url(#SVGID_33_);}
	.st90{fill:url(#SVGID_34_);}
	.st91{fill:url(#SVGID_35_);}
	.st92{fill:url(#SVGID_36_);}
	.st93{fill:url(#SVGID_37_);}
	.st94{fill:url(#SVGID_38_);}
	.st95{fill:url(#SVGID_39_);}
	.st96{fill:url(#SVGID_40_);}
	.st97{clip-path:url(#SVGID_42_);fill:url(#SVGID_43_);}
	.st98{fill:url(#SVGID_44_);}
	.st99{fill:url(#path70_5_);}
	.st100{fill:url(#SVGID_45_);}
	.st101{fill:url(#SVGID_46_);}
	.st102{fill:#F8B900;}
	.st103{fill:#00235F;}
	.st104{fill:url(#SVGID_47_);}
	.st105{fill:url(#SVGID_48_);}
	.st106{fill:url(#SVGID_49_);}
	.st107{fill:url(#SVGID_50_);}
	.st108{fill:url(#SVGID_51_);}
	.st109{fill:url(#SVGID_52_);}
	.st110{opacity:0.8902;fill:#EB151C;enable-background:new    ;}
	.st111{fill:#E11837;}
	.st112{fill:#E2231A;}
	.st113{fill:#001689;}
	.st114{fill:#EF3E34;}
	.st115{fill:#4D82C4;}
	.st116{fill:#8C7035;}
	.st117{fill:#5FBA45;}
	.st118{fill:#008F7E;}
	.st119{fill:#004595;}
	.st120{fill:#FFED00;}
	.st121{fill:#E53138;}
	.st122{fill:url(#SVGID_53_);}
	.st123{fill:url(#SVGID_54_);}
	.st124{fill:url(#SVGID_55_);}
	.st125{fill:url(#SVGID_56_);}
	.st126{fill:#11185E;}
	.st127{fill:#EE3024;}
	.st128{fill:#0675CC;}
	.st129{fill:#E2001A;}
	.st130{fill:#009036;}
	.st131{fill:#0B1560;}
	.st132{fill:#0070AF;}
	.st133{fill:#0F2C64;}
	.st134{fill:#EF001E;}
	.st135{fill:#1C2A8D;}
	.st136{fill:#334357;}
	.st137{fill:url(#SVGID_57_);}
	.st138{fill:#ED1B28;}
	.st139{fill:#1E5AAF;}
	.st140{fill:#991933;}
	.st141{fill:#E01933;}
	.st142{fill:#003366;}
	.st143{fill:#00265D;}
	.st144{fill:#003263;}
	.st145{fill:#EE452A;}
	.st146{fill:#011F65;}
	.st147{fill:#EC2227;}
	.st148{fill:#010101;}
	.st149{fill:#FCEE21;}
	.st150{fill:#18488B;}
	.st151{fill:#EC2427;}
	.st152{fill:#D09B2B;}
	.st153{fill:#156192;}
	.st154{fill:#021A31;}
	.st155{fill:#008E8F;}
	.st156{fill:#2B438F;}
	.st157{fill:#363F9E;}
	.st158{fill:#00ABBF;}
</style>
<g id="Layer_1" class="st0">
</g>
<g id="Layer_2" class="st0">
</g>
<g id="Layer_3">
</g>
<g id="Layer_4">
	<path class="st158" d="M49.049,44.827c-1.083,0.073-3.479,0.207-5.026,0.213c-1.56,0-2.99-0.053-3.583-0.113
		c-2.646-0.277-3.533-1.336-3.533-4.029V25.351c0-1.423-0.26-1.896-1.906-1.896h-5.463v18.864c0,5.446,1.383,7.682,10.968,7.682
		c7.409,0,10.228-0.373,10.228-0.373s0.017-2.56,0.017-3.543C50.749,44.784,50.609,44.721,49.049,44.827z"/>
	<path class="st158" d="M94.812,38.445l7.579-9.889h-6.769c-0.593,0-1.036,0.2-1.366,0.713l-3.433,5.096h-0.137l-3.319-5.096
		c-0.327-0.503-0.747-0.713-1.34-0.713h-7.466l7.429,10.318L77.705,49.51h6.792c0.637,0,1.1-0.293,1.373-0.717l4.119-6.149h0.17
		l3.859,5.916c0.407,0.71,0.867,0.95,1.526,0.95h7.665L94.812,38.445z"/>
	<path class="st158" d="M73.355,28.557h-5.599v16.827c-1.033,0.373-2.819,0.487-4.019,0.487c-2.729,0-3.933-1.03-3.933-2.75V29.673
		c0-0.617-0.49-1.113-1.097-1.113h-5.602v14.131c0,5.073,3.593,7.299,10.765,7.299c4.329,0,8.509-0.707,10.592-1.643V29.673
		C74.459,29.047,73.969,28.557,73.355,28.557z"/>
	<path class="st158" d="M137.682,21.844h-5.186v4.543h6.706v-2.966C139.198,22.011,138.968,21.844,137.682,21.844z"/>
	<path class="st158" d="M162.431,28.443c-1.603-0.217-3.809-0.366-6.349-0.366c-3.703,0.017-7.712,0.346-10.188,1.246v20.184h6.699
		V35.262c0-1.386,0.79-2.383,2.15-2.589c0.946-0.147,2.336-0.207,3.249-0.197c1.876,0.02,3.649,0.19,4.586,0.46
		c0,0,0.163,0.037,0.253-0.037l0.067-0.203v-3.723C162.898,28.633,162.801,28.497,162.431,28.443z"/>
	<path class="st158" d="M137.682,28.557h-5.186V49.51h6.706V30.243C139.198,28.9,138.865,28.557,137.682,28.557z"/>
	<path class="st158" d="M115.889,28.09c-2.79,0-6.242,0.447-8.755,1.27c-0.093,0.03-0.123,0.1-0.123,0.203v3.493
		c0,0.513,0.18,0.756,0.503,0.756c0.203,0.007,0.453-0.12,0.78-0.257c2.036-0.886,4.296-1.306,7.046-1.306
		c3.359,0,3.763,0.543,3.763,1.673c0,0.943-0.063,0.97-1.423,1.336c-3.076,0.876-6.689,1.68-9.589,3.293
		c-2.026,1.123-2.756,3.126-2.756,5.256c0,4.623,2.826,6.179,9.102,6.179c5.276,0,9.092-0.677,11.365-1.593V34.389
		C125.804,29.133,120.618,28.09,115.889,28.09z M119.102,43.158c0,1.746-0.36,3.083-3.466,3.083c-2.546,0-3.466-0.997-3.466-3.1
		c0-1.376,0.803-2.186,2.89-3.003c1.34-0.54,2.666-1,4.043-1.496V43.158z"/>
	<path class="st158" d="M24.057,18.716c-0.72-0.17-4.649-1.02-7.472-1.873c-1.75-0.53-2.433-2.033-1.976-4.039
		c0.503-2.223,2.636-9.368,2.643-9.388c0.05-0.147,0.017-0.333-0.137-0.407c-0.17-0.093-0.317-0.05-0.423,0.073L3.74,18.66
		c-0.133,0.147-0.183,0.323-0.123,0.46c0.06,0.146,0.193,0.237,0.38,0.237L24.01,19.36c0.18,0,0.307-0.153,0.307-0.323
		C24.317,18.86,24.233,18.756,24.057,18.716z"/>
	<path class="st158" d="M14.104,0C6.306,0,0,6.312,0,14.118c0,7.739,6.306,14.054,14.104,14.054c7.749,0,14.054-6.316,14.054-14.054
		C28.159,6.309,21.853,0,14.104,0z M14.104,26.499c-6.839,0-12.385-5.546-12.385-12.378c0-6.852,5.546-12.398,12.385-12.398
		c6.839,0,12.388,5.492,12.388,12.398C26.492,20.953,20.943,26.499,14.104,26.499z"/>
</g>
</svg>
