<?xml version="1.0" encoding="utf-8"?>
<!-- Generator: Adobe Illustrator 18.0.0, SVG Export Plug-In . SVG Version: 6.00 Build 0)  -->
<!DOCTYPE svg PUBLIC "-//W3C//DTD SVG 1.1//EN" "http://www.w3.org/Graphics/SVG/1.1/DTD/svg11.dtd">
<svg version="1.1" xmlns="http://www.w3.org/2000/svg" xmlns:xlink="http://www.w3.org/1999/xlink" x="0px" y="0px"
	 width="135.296px" height="50px" viewBox="0 0 135.296 50" style="enable-background:new 0 0 135.296 50;" xml:space="preserve">
<style type="text/css">
	.st0{display:none;}
	.st1{display:inline;}
	.st2{fill:#ED2D27;}
	.st3{display:inline;fill:#F8B900;}
	.st4{display:inline;fill:#00235F;}
	.st5{fill:url(#SVGID_1_);}
	.st6{fill:#006CB6;}
	.st7{fill:url(#SVGID_2_);}
	.st8{fill:url(#SVGID_3_);}
	.st9{fill:url(#SVGID_4_);}
	.st10{fill:url(#SVGID_5_);}
	.st11{fill:url(#SVGID_6_);}
	.st12{fill-rule:evenodd;clip-rule:evenodd;fill:#FFFFFF;}
	.st13{fill-rule:evenodd;clip-rule:evenodd;fill:#E2231A;}
	.st14{fill:#FFFFFF;}
	.st15{fill-rule:evenodd;clip-rule:evenodd;fill:#001689;}
	.st16{fill:#00529B;}
	.st17{fill:#F47920;}
	.st18{fill:url(#SVGID_7_);}
	.st19{fill:url(#SVGID_8_);}
	.st20{fill:url(#SVGID_9_);}
	.st21{fill:url(#SVGID_10_);}
	.st22{fill:url(#SVGID_11_);}
	.st23{fill:url(#SVGID_12_);}
	.st24{fill:url(#SVGID_13_);}
	.st25{fill:#00054C;}
	.st26{fill:url(#path3364_3_);}
	.st27{fill:url(#path3366_3_);}
	.st28{fill:#22356B;}
	.st29{fill:#FCC210;}
	.st30{fill:#ED1C24;}
	.st31{display:inline;fill:url(#SVGID_14_);}
	.st32{fill:#002157;}
	.st33{fill:#CC2234;}
	.st34{fill:#E23546;}
	.st35{fill:#FCB130;}
	.st36{fill:#1D4886;}
	.st37{display:inline;fill:none;}
	.st38{display:inline;fill:#005DAA;}
	.st39{fill:#005DAA;}
	.st40{fill:#00A1E4;}
	.st41{fill:#00704A;}
	.st42{fill:#B10D28;}
	.st43{fill:#D31245;}
	.st44{fill:url(#path70_3_);}
	.st45{fill:url(#SVGID_15_);}
	.st46{fill:url(#SVGID_16_);}
	.st47{fill:#231916;}
	.st48{fill:#E60013;}
	.st49{fill:#C0231E;}
	.st50{fill:#014E84;}
	.st51{fill:#BA783E;}
	.st52{fill:#002052;}
	.st53{fill:#0093D0;}
	.st54{fill:#ED1B2F;}
	.st55{fill:#E3242B;}
	.st56{fill-rule:evenodd;clip-rule:evenodd;fill:#034EA2;}
	.st57{fill-rule:evenodd;clip-rule:evenodd;fill:#E11837;}
	.st58{fill:#034EA2;}
	.st59{opacity:0.8902;fill:#EB151C;}
	.st60{fill:#1A1A1A;}
	.st61{enable-background:new    ;}
	.st62{fill:#FF6600;}
	.st63{clip-path:url(#SVGID_18_);fill:url(#SVGID_19_);}
	.st64{fill:url(#SVGID_20_);}
	.st65{fill:#B2DB1F;}
	.st66{fill:#FA002C;}
	.st67{fill:#1C2D5B;}
	.st68{fill:#1C4E9D;}
	.st69{fill:#ED192D;}
	.st70{display:inline;fill:#FFFFFF;}
	.st71{display:inline;fill:#00529B;}
	.st72{display:inline;fill:#F47920;}
	.st73{display:inline;fill:url(#SVGID_21_);}
	.st74{display:inline;fill:url(#SVGID_22_);}
	.st75{display:inline;fill:url(#SVGID_23_);}
	.st76{display:inline;fill:url(#SVGID_24_);}
	.st77{display:inline;fill:url(#SVGID_25_);}
	.st78{display:inline;fill:url(#SVGID_26_);}
	.st79{display:inline;fill:url(#SVGID_27_);}
	.st80{display:inline;fill:url(#path3364_4_);}
	.st81{display:inline;fill:url(#path3366_4_);}
	.st82{display:inline;fill:url(#SVGID_28_);}
	.st83{display:inline;fill:url(#SVGID_29_);}
	.st84{display:inline;fill:url(#SVGID_30_);}
	.st85{display:inline;opacity:0.75;fill:#FFFFFF;}
	.st86{display:inline;fill:#ED1B2F;}
	.st87{opacity:0.8902;fill:#FFFFFF;}
	.st88{clip-path:url(#SVGID_32_);fill:#FFFFFF;}
	.st89{fill:url(#SVGID_33_);}
	.st90{fill:url(#SVGID_34_);}
	.st91{fill:url(#SVGID_35_);}
	.st92{fill:url(#SVGID_36_);}
	.st93{fill:url(#SVGID_37_);}
	.st94{fill:url(#SVGID_38_);}
	.st95{fill:url(#SVGID_39_);}
	.st96{fill:url(#SVGID_40_);}
	.st97{clip-path:url(#SVGID_42_);fill:url(#SVGID_43_);}
	.st98{fill:url(#SVGID_44_);}
	.st99{fill:url(#path70_5_);}
	.st100{fill:url(#SVGID_45_);}
	.st101{fill:url(#SVGID_46_);}
	.st102{fill:#F8B900;}
	.st103{fill:#00235F;}
	.st104{fill:url(#SVGID_47_);}
	.st105{fill:url(#SVGID_48_);}
	.st106{fill:url(#SVGID_49_);}
	.st107{fill:url(#SVGID_50_);}
	.st108{fill:url(#SVGID_51_);}
	.st109{fill:url(#SVGID_52_);}
	.st110{opacity:0.8902;fill:#EB151C;enable-background:new    ;}
	.st111{fill:#E11837;}
	.st112{fill:#E2231A;}
	.st113{fill:#001689;}
	.st114{fill:#EF3E34;}
	.st115{fill:#4D82C4;}
	.st116{fill:#8C7035;}
	.st117{fill:#5FBA45;}
	.st118{fill:#008F7E;}
	.st119{fill:#004595;}
	.st120{fill:#FFED00;}
	.st121{fill:#E53138;}
	.st122{fill:url(#SVGID_53_);}
	.st123{fill:url(#SVGID_54_);}
	.st124{fill:url(#SVGID_55_);}
	.st125{fill:url(#SVGID_56_);}
	.st126{fill:#11185E;}
	.st127{fill:#EE3024;}
	.st128{fill:#0675CC;}
	.st129{fill:#E2001A;}
	.st130{fill:#009036;}
	.st131{fill:#0B1560;}
	.st132{fill:#0070AF;}
	.st133{fill:#0F2C64;}
	.st134{fill:#EF001E;}
	.st135{fill:#1C2A8D;}
	.st136{fill:#334357;}
	.st137{fill:url(#SVGID_57_);}
	.st138{fill:#ED1B28;}
	.st139{fill:#1E5AAF;}
	.st140{fill:#991933;}
	.st141{fill:#E01933;}
	.st142{fill:#003366;}
	.st143{fill:#00265D;}
	.st144{fill:#003263;}
	.st145{fill:#EE452A;}
	.st146{fill:#011F65;}
	.st147{fill:#EC2227;}
	.st148{fill:#010101;}
	.st149{fill:#FCEE21;}
	.st150{fill:#18488B;}
	.st151{fill:#EC2427;}
	.st152{fill:#D09B2B;}
	.st153{fill:#156192;}
	.st154{fill:#021A31;}
	.st155{fill:#008E8F;}
	.st156{fill:#2B438F;}
	.st157{fill:#363F9E;}
	.st158{fill:#00ABBF;}
</style>
<g id="Layer_1" class="st0">
</g>
<g id="Layer_2" class="st0">
</g>
<g id="Layer_3">
	<g>
		<g>
			<path id="path6_4_" class="st33" d="M9.815,6.734c5.863-6.019,15.56-8.703,23.387-5.125c2.799,1.422,5.294,3.955,5.825,7.15
				c0.528,2.323-0.328,4.628-0.835,6.871c-1.632,6.457-3.196,12.931-4.845,19.381c-0.059,0.003-0.169,0.01-0.224,0.014
				c-1.529-3.789-2.875-7.668-4.783-11.288c-1.391-2.523-3.748-4.883-6.778-5.049c-2.115-0.021-4.238-0.1-6.35,0.079
				c2.716,0.107,4.676,2.298,6.05,4.421c2.184,3.523,3.351,7.537,4.976,11.319c1.139,2.523,2.505,5.052,4.697,6.812
				c-0.317,0.407-0.642,0.811-0.966,1.215c-4.086-2.785-5.673-7.723-7.364-12.12c-1.422-3.327-2.54-6.971-5.18-9.573
				c-1.339-1.401-3.261-2.198-5.197-2.174c-1.926,0.01-3.855-0.083-5.777,0.097c0.98,0.131,1.974,0.342,2.785,0.942
				c2.699,1.788,4.203,4.793,5.411,7.699c1.515,3.434,2.502,7.116,4.51,10.318c1.091,1.729,2.44,3.406,4.296,4.348
				c1.864,1.004,4.055,0.611,6.056,1.094c-3.979,4.089-9.545,6.533-15.229,6.823c-3.544,0.11-7.268-0.597-10.153-2.768
				c-1.946-1.47-3.52-3.555-3.951-6.001c-0.518-2.077,0.224-4.148,0.669-6.16c1.836-7.361,3.648-14.729,5.497-22.086
				C6.892,10.62,8.152,8.477,9.815,6.734 M3.817,35.336c-0.556,3.689,2.274,7.444,5.946,7.989c3.334,0.676,6.792-1.467,7.989-4.586
				c-1.722-2.909-2.819-6.122-4.114-9.231C9.463,27.723,4.245,30.833,3.817,35.336z"/>
			<path id="path8_4_" class="st33" d="M69.973,23.251c0.725-0.01,1.449-0.028,2.174-0.059c0.355,2.664,0.079,5.39,0.152,8.079
				c2.647-3.227,8.086-2.875,10.595,0.338c2.637,2.989,2.012,8.131-1.27,10.394c-2.098,1.601-5.056,1.832-7.447,0.79
				c-2.436-1.104-4.262-3.634-4.2-6.353C69.966,32.044,69.959,27.647,69.973,23.251 M75.498,31.45
				c-2.033,0.845-3.389,3.082-3.102,5.283c0.173,2.875,3.206,5.287,6.046,4.445c2.937-0.728,4.524-4.328,3.282-7.04
				C80.785,31.782,77.868,30.415,75.498,31.45z"/>
			<path id="path10_4_" class="st33" d="M110.818,23.237c0.794,0,1.594,0,2.392-0.003c0.021,4.852,0,9.704,0.01,14.556
				c0.041,0.845,0.086,1.826,0.742,2.45c0.545,0.642,1.446,0.632,2.202,0.808c-0.003,0.697-0.003,1.391-0.003,2.088
				c-1.304,0.072-2.678-0.179-3.686-1.066c-1.291-1.004-1.674-2.726-1.663-4.283C110.822,32.934,110.812,28.086,110.818,23.237z"/>
			<path id="path12_4_" class="st33" d="M56.793,24.293c1.011-0.573,2.478,0.155,2.25,1.408c0.055,1.422-2.015,1.708-2.719,0.669
				C56.138,25.677,56.076,24.711,56.793,24.293z"/>
			<path id="path14_4_" class="st33" d="M118.269,24.459c0.759-0.694,2.512-0.335,2.44,0.901c0.207,0.918-0.6,1.777-1.529,1.629
				C117.907,27.068,117.406,25.239,118.269,24.459z"/>
			<path id="path16_3_" class="st33" d="M39.911,33.062c1.066-2.212,3.33-3.782,5.773-4.017c3.817-0.559,7.73,2.436,8.044,6.301
				c0.107,2.592,0.003,5.187,0.059,7.778c-0.787-0.003-1.574-0.007-2.357-0.028c0-0.69,0.003-1.377,0.003-2.067
				c-2.495,3.434-8.037,3.044-10.567-0.141C39.041,38.77,38.696,35.56,39.911,33.062 M44.77,31.443
				c-2.944,1.084-4.034,5.011-2.395,7.589c1.042,1.684,3.151,2.657,5.101,2.202c2.433-0.497,4.221-3.023,3.896-5.484
				C51.248,32.634,47.703,30.146,44.77,31.443z"/>
			<path id="path18_7_" class="st33" d="M62.501,31.492c1.18-1.788,3.413-2.626,5.504-2.433c-0.007,0.739-0.014,1.474-0.031,2.212
				c-0.935,0.055-1.97-0.038-2.771,0.549c-1.025,0.707-1.342,2.04-1.336,3.216c-0.031,2.706,0.035,5.411-0.021,8.117
				c-0.79-0.01-1.577-0.017-2.367-0.028c0.017-2.471,0.007-4.938,0.01-7.406C61.507,34.263,61.614,32.71,62.501,31.492z"/>
			<path id="path20_4_" class="st33" d="M86.482,34.042c0.99-3.102,4.224-5.315,7.485-5.025c3.137,0.197,5.905,2.633,6.598,5.68
				c-3.741,1.487-7.485,2.975-11.223,4.476c1.111,1.401,2.816,2.274,4.631,2.019c1.777,0.135,3.206-1.063,4.172-2.419
				c0.797,0.003,1.591,0.003,2.388,0.024c-0.611,1.622-1.729,3.109-3.32,3.869c-3.082,1.449-7.168,0.866-9.387-1.829
				C86.203,39.015,85.799,36.344,86.482,34.042 M92.363,31.309c-2.533,0.583-4.221,3.261-3.758,5.808
				c3.047-1.042,5.96-2.44,9.004-3.499C96.576,31.833,94.399,30.726,92.363,31.309z"/>
			<path id="path22_3_" class="st33" d="M104.482,30.322c1.201-1.07,2.868-1.353,4.428-1.263c-0.003,0.649,0.017,1.294-0.024,1.943
				c-0.317,0.483-1.001,0.217-1.474,0.359c-1.532,0.069-2.616,1.594-2.574,3.054c-0.041,2.906,0.003,5.815-0.021,8.724
				c-0.794,0-1.587,0-2.381,0c0.007-2.826-0.021-5.653,0.01-8.479C102.474,33.014,103.154,31.34,104.482,30.322z"/>
			<path id="path24_4_" class="st33" d="M124.477,31.05c2.433-2.847,7.544-2.75,9.766,0.304c0.739,0.942,1.035,2.15,1.035,3.33
				c0.021,2.816-0.014,5.635,0.017,8.451c-0.811,0.003-1.622,0.003-2.426,0.003c0-2.826,0.017-5.653-0.007-8.479
				c0.024-0.97-0.342-1.943-1.073-2.592c-1.895-1.805-5.725-0.883-6.132,1.857c-0.197,3.068-0.028,6.15-0.083,9.221
				c-0.808-0.003-1.612-0.003-2.416-0.024c0.017-2.813-0.007-5.625,0.01-8.438C123.159,33.369,123.577,32.027,124.477,31.05z"/>
			<path id="path26_3_" class="st33" d="M56.438,29.366c0.794-0.014,1.591-0.01,2.388-0.014c0.007,4.593,0.007,9.187,0,13.78
				c-0.797,0-1.594,0-2.392-0.01C56.448,38.535,56.455,33.952,56.438,29.366z"/>
			<path id="path28_4_" class="st33" d="M118.034,29.352c0.797,0.003,1.598,0.003,2.398,0.003c0,4.6,0.017,9.197-0.01,13.794
				c-0.797-0.007-1.594-0.01-2.388-0.014C118.038,38.542,118.031,33.945,118.034,29.352z"/>
		</g>
	</g>
</g>
<g id="Layer_4">
</g>
</svg>
