<?xml version="1.0" encoding="utf-8"?>
<!-- Generator: Adobe Illustrator 18.0.0, SVG Export Plug-In . SVG Version: 6.00 Build 0)  -->
<!DOCTYPE svg PUBLIC "-//W3C//DTD SVG 1.1//EN" "http://www.w3.org/Graphics/SVG/1.1/DTD/svg11.dtd">
<svg version="1.1" xmlns="http://www.w3.org/2000/svg" xmlns:xlink="http://www.w3.org/1999/xlink" x="0px" y="0px" width="200px"
	 height="34px" viewBox="0 0 200 34" style="enable-background:new 0 0 200 34;" xml:space="preserve">
<g id="Layer_1" style="display:none;">
</g>
<g id="Layer_2" style="display:none;">
</g>
<g id="Layer_3">
</g>
<g id="Layer_4">
	<path style="fill:#FCAF1E;" d="M179.449,13.005L200,10.88l-16.756-1.709l12.754-2v0c0.083-2.168-0.374-4.002-1.458-5.336
		c-3.334-3.96-11.296-1.292-17.716,5.919c-6.461,7.212-8.961,16.257-5.669,20.216c3.334,3.961,11.296,1.334,17.757-5.877
		c1.001-1.167,1.959-2.376,2.751-3.585l-10.628-1.083l15.381-2.002L179.449,13.005z"/>
	<path style="fill:#00063F;" d="M156.441,14.507c-2.209-1.293-3.46-2.126-3.543-3.711c-0.083-1.375,0.918-2.5,2.835-2.5
		c1.125,0,1.917,0.25,2.459,0.833c0.333,0.334,0.416,0.625,0.5,1.25c0.042,0.251,0.126,0.459,0.459,0.459
		c0.292,0,0.416-0.125,0.416-0.542c0-1.042-0.208-1.875-0.208-2.25c0-0.083,0.041-0.125,0.041-0.209
		c0-0.292-0.167-0.333-0.374-0.292c-0.751,0-1.876-0.374-3.086-0.374v0c-3.084,0-4.96,1.625-5.044,4.084
		c-0.041,1.459,0.542,3.169,3.46,4.794c2.918,1.667,3.961,2.625,3.961,4.418c0,1.417-1.251,2.751-3.419,2.751
		c-1.083,0-2.668-0.208-3.125-1.876c-0.085-0.375-0.126-0.792-0.126-1c-0.041-0.334-0.167-0.458-0.416-0.458
		c-0.335,0-0.375,0.167-0.459,0.416c-0.042,0.417-0.042,1.584,0,2.459c0,0.708,0.041,0.792,0.417,0.958
		c0.958,0.418,2.043,0.584,3.127,0.584c4.335,0,6.086-2.459,6.086-4.668C160.4,17.591,159.483,16.383,156.441,14.507z"/>
	<path style="fill:#00063F;" d="M71.572,7.712c0-0.085-0.042-0.168-0.167-0.168h-3.502c-0.417,0-0.542,0.083-0.542,0.418
		c0,0.25,0.085,0.374,0.335,0.417c1.166,0.083,1.334,0.625,1.375,2.042c0.042,2.084,0.042,3.668,0.042,5.335
		c0,2.168-0.042,5.003-0.126,8.004c0,0.124,0.083,0.209,0.167,0.209h2.252c0.124,0,0.167-0.084,0.167-0.209
		c-0.042-2.959-0.042-5.544-0.042-8.004C71.53,14.756,71.572,10.713,71.572,7.712z"/>
	<path style="fill:#00063F;" d="M147.854,7.544h-3.168c-0.375,0-0.542,0.083-0.542,0.418c0,0.25,0.124,0.374,0.374,0.417
		c0.668,0.125,0.834,0.542,0.459,1.167c-1.166,1.959-2.459,4.001-3.71,6.002c-0.333-0.542-0.666-1.042-1-1.584
		c-1.376-2.085-2.501-3.876-4.002-6.252c-0.083-0.125-0.126-0.168-0.333-0.168h-2.585c-0.126,0-0.167,0.083-0.083,0.209
		c1.793,2.626,3.834,5.71,5.044,7.545l0,0c0.417,0.666,0.833,1.251,1.167,1.793c0,1.958-0.042,4.25-0.083,6.669
		c0,0.124,0.041,0.209,0.167,0.209h2.209c0.124,0,0.208-0.085,0.208-0.209c-0.041-2.418-0.083-4.627-0.083-6.669
		c1.876-3.002,4.044-6.296,6.045-9.338C148.02,7.628,147.978,7.544,147.854,7.544z"/>
	<path style="fill:#00063F;" d="M129.512,15.632c-1.625-3.752-2.333-5.71-3.125-7.919c-0.042-0.085-0.125-0.168-0.25-0.168h-2.71
		c-0.375,0-0.542,0.083-0.542,0.418c0,0.25,0.125,0.374,0.375,0.417c0.542,0.083,0.958,0.292,0.958,1.001
		c0,0.374-0.167,0.833-0.374,1.334c-0.751,1.917-1.376,3.375-2.043,4.918c-0.834,2-2.252,5.253-3.586,8.128
		c-0.041,0.124,0,0.209,0.126,0.209h1.542c0.126,0,0.209-0.084,0.251-0.209c0.583-1.501,1.125-2.794,1.625-4.085
		c1.334,0,2.418,0,3.418,0c1.001,0,2.043,0,3.419,0c0.542,1.376,1.125,2.794,1.667,4.085c0.083,0.124,0.124,0.209,0.25,0.209h2.459
		c0.126,0,0.167-0.085,0.126-0.209C131.763,20.885,130.346,17.632,129.512,15.632z M125.177,18.341c-0.958,0-1.875,0-2.918,0
		c0.25-0.583,0.501-1.166,0.709-1.75c0.625-1.501,1.21-2.918,2.126-5.127c0.96,2.209,1.543,3.626,2.168,5.127
		c0.25,0.584,0.5,1.167,0.75,1.75C127.012,18.341,126.094,18.341,125.177,18.341z"/>
	<path style="fill:#00063F;" d="M116.841,7.544h-2.877c-0.375,0-0.542,0.083-0.542,0.418c0,0.25,0.167,0.374,0.375,0.417
		c0.709,0.125,0.875,0.709,0.668,1.417c-0.668,1.834-1.21,3.46-1.793,5.127c-0.5,1.417-1.001,2.792-1.709,4.835
		c-0.792-2.126-1.292-3.375-1.834-4.835c-0.875-2.293-1.584-4.128-2.626-6.92c-0.126-0.291-0.209-0.459-0.501-0.459
		c-0.291,0-0.374,0.168-0.5,0.459c-1.001,2.792-1.667,4.627-2.501,6.92c-0.542,1.417-1.042,2.792-1.834,4.835
		c-0.75-2.126-1.208-3.375-1.75-4.835c-0.834-2.293-1.584-4.418-2.585-7.211c-0.042-0.085-0.083-0.168-0.208-0.168h-2.377
		c-0.124,0-0.167,0.042-0.124,0.168c1.125,2.792,2.376,6.126,3.125,8.128c1.376,3.793,2.043,5.501,2.877,7.836
		c0.124,0.375,0.209,0.583,0.5,0.583c0.333,0,0.459-0.333,0.542-0.583c0.708-1.959,2.376-6.294,2.96-7.836
		c0.417-1.084,0.875-2.209,1.417-3.502c0.583,1.417,0.833,2.042,1.375,3.502c1.458,3.793,2.167,5.501,3.043,7.836
		c0.167,0.375,0.25,0.583,0.542,0.583c0.333,0,0.417-0.333,0.541-0.583c0.668-1.959,2.209-6.294,2.794-7.836
		c0.666-1.793,2.126-5.586,3.125-8.128C117.049,7.628,116.965,7.544,116.841,7.544z"/>
	<path style="fill:#00063F;" d="M38.808,7.461c-3,0.042-4.792,0.083-7.252,0.083c-2.459,0-3.71-0.041-6.67-0.083
		c-0.083,0-0.126,0.083-0.167,0.167l-0.333,1.417c0,0.125,0.041,0.209,0.208,0.209c1.752-0.083,3.835-0.167,5.752-0.209
		c0.042,2.085,0.042,5.086,0.042,6.711c0,2.168-0.042,5.003-0.126,8.004c0,0.124,0.042,0.209,0.167,0.209h2.252
		c0.083,0,0.167-0.085,0.167-0.209c-0.041-2.959-0.041-5.544-0.041-8.004c0-0.833,0-4,0.041-6.711
		c1.834,0.042,3.669,0.125,5.586,0.209c0.083,0,0.167-0.041,0.167-0.167l0.333-1.417C38.976,7.544,38.891,7.461,38.808,7.461z"/>
	<path style="fill:#00063F;" d="M64.319,23.76c-1.334-2.875-2.751-6.128-3.584-8.128c-1.626-3.752-2.335-5.71-3.127-7.919
		c-0.042-0.085-0.126-0.168-0.25-0.168h-2.71c-0.374,0-0.541,0.083-0.541,0.418c0,0.25,0.124,0.374,0.374,0.417
		c0.542,0.083,0.958,0.292,0.958,1.001c0,0.374-0.167,0.833-0.374,1.334c-0.751,1.917-1.376,3.375-2.043,4.918
		c-0.834,2-2.251,5.253-3.585,8.128c-0.041,0.124,0,0.209,0.125,0.209h1.584c0.083,0,0.167-0.084,0.209-0.209
		c0.583-1.501,1.125-2.794,1.625-4.085c1.376,0,2.418,0,3.418,0c1.001,0,2.043,0,3.419,0c0.542,1.376,1.125,2.794,1.709,4.085h0
		c0.041,0.124,0.124,0.209,0.208,0.209h2.459C64.319,23.969,64.402,23.884,64.319,23.76z M56.398,18.341c-0.959,0-1.875,0-2.918,0
		c0.251-0.583,0.501-1.166,0.708-1.75c0.627-1.501,1.21-2.918,2.127-5.127c0.959,2.209,1.583,3.626,2.209,5.127
		c0.208,0.584,0.457,1.167,0.707,1.75C58.233,18.341,57.358,18.341,56.398,18.341z"/>
	<path style="fill:#00063F;" d="M93.664,23.176c-1.251-0.208-2.085-0.583-3.543-1.875c-1.167-1.042-2.501-2.751-3.793-4.668
		c1.626-0.877,2.959-2.501,2.959-4.627c0-3.543-3.418-4.461-6.043-4.461h-5.628c-0.374,0-0.541,0.083-0.541,0.418
		c0,0.25,0.124,0.374,0.374,0.417c1.126,0.083,1.293,0.625,1.334,2.042c0.042,2.084,0.042,3.668,0.042,5.335
		c0,2.168,0,5.003-0.126,8.004c0,0.124,0.083,0.209,0.209,0.209h2.209c0.124,0,0.167-0.084,0.167-0.209
		c0-2.376-0.042-4.544-0.042-6.544c0.751,0.083,1.501,0.167,2.46,0.125c0.124,0,0.25,0,0.374,0l0,0
		c1.835,2.751,2.877,4.209,4.169,5.377c1.084,0.958,2.376,1.375,3.876,1.375c1.167,0,2.376-0.167,2.376-0.542
		C94.497,23.301,94.29,23.26,93.664,23.176z M83.244,16.132c-0.792,0-1.584-0.124-2.002-0.25c0-1.375,0.042-3.751,0.042-7.086
		c0.417-0.041,1.001-0.083,1.584-0.083c2.418,0,3.96,1.125,3.96,3.752C86.828,14.507,85.745,16.132,83.244,16.132z"/>
	<path style="fill:#00063F;" d="M22.427,22.217c-2.252,0.167-4.294,0.251-5.836,0.292l0,0c-0.042-2.292-0.042-4.376-0.042-6.335
		c1.084,0.041,3.001,0.209,4.502,0.291c0.126,0,0.168-0.041,0.209-0.167l0.333-1.416c0-0.126-0.041-0.209-0.167-0.209
		c-1.75,0.083-3.209,0.124-4.877,0.124c0-1.375,0-3.751,0.042-5.877c1.375,0.041,2.918,0.208,4.877,0.333
		c0.124,0,0.167-0.041,0.208-0.167l0.333-1.417c0-0.125-0.041-0.209-0.167-0.209c-2.209,0.042-4.001,0.083-5.96,0.083h-3.001
		c-0.375,0-0.542,0.083-0.542,0.417c0,0.25,0.126,0.374,0.375,0.417c1.166,0.083,1.334,0.625,1.375,2.043
		c0.042,2.084,0.042,3.667,0.042,5.335c0,2.168-0.042,5.003-0.126,8.004c0,0.124,0.042,0.209,0.167,0.209h2.252
		c1.834,0,3.667,0.041,5.627,0.041c0.126,0,0.167-0.041,0.209-0.167l0.291-1.417C22.593,22.302,22.551,22.217,22.427,22.217z"/>
	<g>
		<path style="fill:#00063F;" d="M6.67,7.544H3.001c-0.374,0-0.541,0.083-0.541,0.417c0,0.25,0.124,0.374,0.375,0.417
			c1.208,0.126,1.458,0.5,1.501,2.043c0.041,2.084,0.041,3.667,0.041,5.335c0,3.086,0,5.295-0.041,7.42
			c-0.042,3.21-0.209,5.212-1.001,6.753C1.835,32.806,0,32.806,0,33.346c0,0.251,0.209,0.418,0.418,0.375
			c0.792-0.167,6.419-2.25,6.419-9.92c0-2.71-0.041-5.003-0.041-8.046c0-1,0.041-5.042,0.083-8.044
			C6.879,7.627,6.796,7.544,6.67,7.544z"/>
		<polygon style="fill:#00063F;" points="6.879,7.712 6.879,7.712 6.879,7.712 		"/>
	</g>
</g>
</svg>
