<?xml version="1.0" encoding="utf-8"?>
<!-- Generator: Adobe Illustrator 18.1.1, SVG Export Plug-In . SVG Version: 6.00 Build 0)  -->
<svg version="1.1" xmlns="http://www.w3.org/2000/svg" xmlns:xlink="http://www.w3.org/1999/xlink" x="0px" y="0px"
	 width="143.85px" height="50px" viewBox="0 0 143.85 50" style="enable-background:new 0 0 143.85 50;" xml:space="preserve">
<style type="text/css">
	.st0{display:none;}
	.st1{display:inline;}
	.st2{fill:#ED2D27;}
	.st3{display:inline;fill:#F8B900;}
	.st4{display:inline;fill:#00235F;}
	.st5{fill:url(#SVGID_1_);}
	.st6{fill:#006CB6;}
	.st7{fill:url(#SVGID_2_);}
	.st8{fill:url(#SVGID_3_);}
	.st9{fill:url(#SVGID_4_);}
	.st10{fill:url(#SVGID_5_);}
	.st11{fill:url(#SVGID_6_);}
	.st12{fill-rule:evenodd;clip-rule:evenodd;fill:#FFFFFF;}
	.st13{fill-rule:evenodd;clip-rule:evenodd;fill:#C03722;}
	.st14{fill:#FFFFFF;}
	.st15{fill-rule:evenodd;clip-rule:evenodd;fill:#170087;}
	.st16{fill:#00529B;}
	.st17{fill:#F47920;}
	.st18{fill:url(#SVGID_7_);}
	.st19{fill:url(#SVGID_8_);}
	.st20{fill:url(#SVGID_9_);}
	.st21{fill:url(#SVGID_10_);}
	.st22{fill:url(#SVGID_11_);}
	.st23{fill:url(#SVGID_12_);}
	.st24{fill:url(#SVGID_13_);}
	.st25{fill:#00054C;}
	.st26{fill:url(#path3364_3_);}
	.st27{fill:url(#path3366_3_);}
	.st28{fill:#22356B;}
	.st29{fill:#FCC210;}
	.st30{fill:#ED1C24;}
	.st31{display:inline;fill:url(#SVGID_14_);}
	.st32{fill:#002157;}
	.st33{fill:#CC2234;}
	.st34{fill:#E23546;}
	.st35{fill:#FCB130;}
	.st36{fill:#1D4886;}
	.st37{display:inline;fill:none;}
	.st38{display:inline;fill:#005DAA;}
	.st39{fill:#005DAA;}
	.st40{fill:#00A1E4;}
	.st41{fill:#00704A;}
	.st42{fill:#B10D28;}
	.st43{fill:#D31245;}
	.st44{fill:url(#path70_3_);}
	.st45{fill:url(#SVGID_15_);}
	.st46{fill:url(#SVGID_16_);}
	.st47{fill:#231916;}
	.st48{fill:#E60013;}
	.st49{fill:#C0231E;}
	.st50{fill:#014E84;}
	.st51{fill:#BA783E;}
	.st52{fill:#002052;}
	.st53{fill:#0093D0;}
	.st54{fill:#ED1B2F;}
	.st55{fill:#E3242B;}
	.st56{fill-rule:evenodd;clip-rule:evenodd;fill:#034EA2;}
	.st57{fill-rule:evenodd;clip-rule:evenodd;fill:#E11837;}
	.st58{fill:#034EA2;}
	.st59{opacity:0.8902;fill:#EB151C;}
	.st60{fill:#1A1A1A;}
	.st61{enable-background:new    ;}
	.st62{fill:#FF6600;}
	.st63{clip-path:url(#SVGID_18_);fill:url(#SVGID_19_);}
	.st64{fill:url(#SVGID_20_);}
	.st65{fill:#B2DB1F;}
	.st66{fill:#FA002C;}
	.st67{fill:#1C2D5B;}
	.st68{fill:#1C4E9D;}
	.st69{fill:#ED192D;}
	.st70{display:inline;fill:#FFFFFF;}
	.st71{display:inline;fill:#00529B;}
	.st72{display:inline;fill:#F47920;}
	.st73{display:inline;fill:url(#SVGID_21_);}
	.st74{display:inline;fill:url(#SVGID_22_);}
	.st75{display:inline;fill:url(#SVGID_23_);}
	.st76{display:inline;fill:url(#SVGID_24_);}
	.st77{display:inline;fill:url(#SVGID_25_);}
	.st78{display:inline;fill:url(#SVGID_26_);}
	.st79{display:inline;fill:url(#SVGID_27_);}
	.st80{display:inline;fill:url(#path3364_4_);}
	.st81{display:inline;fill:url(#path3366_4_);}
	.st82{display:inline;fill:url(#SVGID_28_);}
	.st83{display:inline;fill:url(#SVGID_29_);}
	.st84{display:inline;fill:url(#SVGID_30_);}
	.st85{display:inline;opacity:0.75;fill:#FFFFFF;}
	.st86{display:inline;fill:#ED1B2F;}
	.st87{opacity:0.8902;fill:#FFFFFF;}
	.st88{clip-path:url(#SVGID_32_);fill:#FFFFFF;}
	.st89{fill:url(#SVGID_33_);}
	.st90{fill:url(#SVGID_34_);}
	.st91{fill:url(#SVGID_35_);}
	.st92{fill:url(#SVGID_36_);}
	.st93{fill:url(#SVGID_37_);}
	.st94{fill:url(#SVGID_38_);}
	.st95{fill:url(#SVGID_39_);}
	.st96{fill:url(#SVGID_40_);}
	.st97{clip-path:url(#SVGID_42_);fill:url(#SVGID_43_);}
	.st98{fill:url(#SVGID_44_);}
	.st99{fill:url(#path70_5_);}
	.st100{fill:url(#SVGID_45_);}
	.st101{fill:url(#SVGID_46_);}
	.st102{fill:#F8B900;}
	.st103{fill:#00235F;}
	.st104{fill:url(#SVGID_47_);}
	.st105{fill:url(#SVGID_48_);}
	.st106{fill:url(#SVGID_49_);}
	.st107{fill:url(#SVGID_50_);}
	.st108{fill:url(#SVGID_51_);}
	.st109{fill:url(#SVGID_52_);}
	.st110{opacity:0.8902;fill:#EB151C;enable-background:new    ;}
	.st111{fill:#E11837;}
	.st112{fill:#E2231A;}
	.st113{fill:#001689;}
	.st114{fill:#EF3E34;}
	.st115{fill:#4D82C4;}
	.st116{fill:#8C7035;}
	.st117{fill:#5FBA45;}
	.st118{fill:#008F7E;}
	.st119{fill:#004595;}
	.st120{fill:#FFED00;}
	.st121{fill:#E53138;}
	.st122{fill:url(#SVGID_53_);}
	.st123{fill:url(#SVGID_54_);}
	.st124{fill:url(#SVGID_55_);}
	.st125{fill:url(#SVGID_56_);}
	.st126{fill:#11185E;}
	.st127{fill:#EE3024;}
	.st128{fill:#0675CC;}
	.st129{fill:#E2001A;}
	.st130{fill:#009036;}
	.st131{fill:#0B1560;}
	.st132{fill:#0070AF;}
	.st133{fill:#0F2C64;}
	.st134{fill:#EF001E;}
	.st135{fill:#1C2A8D;}
	.st136{fill:#334357;}
	.st137{fill:url(#SVGID_57_);}
	.st138{fill:#ED1B28;}
	.st139{fill:#1E5AAF;}
	.st140{fill:#991933;}
	.st141{fill:#E01933;}
	.st142{fill:#003366;}
	.st143{fill:#00265D;}
	.st144{fill:#EE452A;}
	.st145{fill:#011F65;}
	.st146{fill:#EC2227;}
	.st147{fill:#010101;}
	.st148{fill:#252324;}
	.st149{fill-rule:evenodd;clip-rule:evenodd;fill:#C3332C;}
	.st150{fill:#C3332C;}
	.st151{fill-rule:evenodd;clip-rule:evenodd;fill:#252324;}
</style>
<g id="Layer_1" class="st0">
</g>
<g id="Layer_2" class="st0">
</g>
<g id="Layer_3">
</g>
<g id="Layer_4">
	<path class="st148" d="M108.756,29.809h0.701l-0.857,1.223l0.853,1.198h-0.697l-0.836-1.198L108.756,29.809L108.756,29.809z
		 M107.595,29.809h0.692l-0.848,1.223l0.85,1.198h-0.692l-0.835-1.198l0.04-0.062L107.595,29.809L107.595,29.809z"/>
	<path class="st148" d="M141.857,32.23h-0.701l0.857-1.223l-0.853-1.198h0.697l0.835,1.197L141.857,32.23L141.857,32.23z
		 M143.016,32.23h-0.691l0.848-1.223l-0.85-1.198h0.691l0.836,1.197l-0.04,0.063L143.016,32.23L143.016,32.23z"/>
	<path class="st149" d="M96.711,49.104c0.389-1.339-0.218-3.01-1.568-3.288l-0.639,2.047H91.32l0.037-0.123l3.569-12.205
		l-4.516-0.023l-3.975,13.592H96.711L96.711,49.104L96.711,49.104z"/>
	<path class="st149" d="M70.43,49.103l3.203-10.989H69.34l-1.71,5.911c-0.416,1.433-0.996,3.399-3.704,3.399
		c-1.088,0-1.681-0.476-1.868-1.179c-0.185-0.476,0.033-1.359,0.187-1.881l1.837-6.251h-4.295l-1.835,6.275
		c-0.331,1.127-0.903,2.537-0.22,3.511c0.655,0.973,2.18,1.408,3.767,1.408c2.178,0,3.484-0.729,5.258-1.862l-0.464,1.656H70.43
		L70.43,49.103L70.43,49.103z"/>
	<path class="st149" d="M75.347,46.223c-0.331,0.165-0.982,0.77-1.356,1.3c-0.194,0.276-0.345,0.547-0.518,0.853
		c1.094,0.638,2.498,0.932,4.02,0.932c3.767,0,6.445-1.522,7.065-3.629c1.246-4.214-6.41-3.103-5.757-5.301
		c0.248-0.928,1.556-1.313,2.677-1.313c1.4,0,2.427,0.928,2.396,1.902c0.495-0.135,1.231-0.636,1.701-1.227l0.522-0.767
		c-1.027-0.701-2.66-1.064-4.214-1.064c-2.833,0-5.728,1.291-6.412,3.602c-1.15,3.942,6.287,3.126,5.665,5.255
		c-0.249,0.793-1.712,1.382-2.8,1.382C76.655,48.149,75.563,47.356,75.347,46.223L75.347,46.223L75.347,46.223z"/>
	<path class="st149" d="M105.582,32.804c-1.338,0-2.675,0.84-2.958,1.79c-0.279,0.951,0.563,1.79,1.901,1.79
		c1.337,0,2.738-0.816,3.019-1.79C107.822,33.621,106.921,32.804,105.582,32.804L105.582,32.804L105.582,32.804z M102.198,38.115
		l-3.207,10.989h4.295l3.205-10.989H102.198L102.198,38.115L102.198,38.115z"/>
	<path class="st149" d="M110.428,38.115l-3.205,10.989h4.296l1.526-5.214c0.414-1.422,1.18-4.076,3.89-4.076
		c2.178-0.001,2.117,1.541,1.493,3.648l-1.649,5.642h4.295l1.93-6.64c0.79-2.723,0.341-4.553-3.58-4.553
		c-1.93,0-3.797,0.816-5.353,1.881l0.499-1.677H110.428L110.428,38.115L110.428,38.115z"/>
	<path class="st149" d="M46.811,37.088c7.947-1.219,5.574,6.514,1.414,6.514h-3.191L46.811,37.088L46.811,37.088L46.811,37.088z
		 M49.205,35.775l-6.306,0.02c-0.248,0.502-1.352,4.261-1.433,4.534l-2.595,8.774h4.519l1.327-4.585l2.321-0.004l2.635,4.589h3.808
		l-2.679-4.683l0,0l0.052,0.002h0.01l0.052,0.001l0.012,0.001l0.052,0.001h0.01C58.269,44.093,58.383,35.745,49.205,35.775
		L49.205,35.775L49.205,35.775z"/>
	<path class="st149" d="M130.671,42.055c0.807-1.882,2.116-2.427,3.432-2.475c3.284-0.121,2.25,3.12-0.887,3.12h-2.797
		L130.671,42.055L130.671,42.055L130.671,42.055z M130.107,43.618h1.803c1.741-0.068,8.393,0.294,7.407-3.448
		c-0.36-1.364-2.183-2.287-5.008-2.259c-4.514,0-7.781,2.265-8.715,5.437c-1.088,3.692,0.903,5.961,6.07,5.961
		c1.526,0,3.33-0.389,4.763-1.024l1.027-1.268l-0.315-0.204c-1.116,0.588-2.642,1.019-3.917,1.019
		C129.919,47.831,129.328,45.951,130.107,43.618L130.107,43.618L130.107,43.618z"/>
	<path class="st149" d="M13.658,10.574h10.193c1.878,0.078,6.398-0.031,8.698,1.673C27.407,2.872,21.008,4.188,12.136,3.68
		C5.137,3.68,1.272,1.356,0.08,0.661C-0.698,0.659,4.194,10.574,13.658,10.574L13.658,10.574L13.658,10.574z"/>
	<path class="st149" d="M47.235,2.589c-2.163-0.231-0.759-2.76,1.337-2.119c1.587,0.484,1.963,2.469,0.911,3.368
		c-1.444,1.233-2.858,1.262-4.653,1.275c1.999-0.718,3.022-1.511,2.787-2.467C47.354,1.566,47.406,2.537,47.235,2.589L47.235,2.589
		L47.235,2.589L47.235,2.589z"/>
	<path class="st149" d="M27.052,26.699c3.34-6.483-10.851-6.921-10.173,0.647c0.945,10.562,18.734,7.774,20.569-5.833
		c-2.836,7.514-8.68,8.186-11.001,6.707c-0.844-0.435-0.841-1.406-0.483-1.666C26.277,26.327,26.921,26.328,27.052,26.699
		L27.052,26.699L27.052,26.699z"/>
	<path class="st149" d="M1.399,26.539c2.749-5.781,7.476-6.601,10.986-5.064c1.277,0.697,1.649,1.692,1.275,2.669
		c-0.903-2.312-4.273-1.383-4.952,2.069c-3.058,15.57,29.243,18.648,30.466-5.088c0.37,1.511,0.568,3.086,0.568,4.707
		c0,11.253-9.445,20.377-21.09,20.377c-1.649-0.002-3.257-0.185-4.798-0.532c-0.431-0.117-0.864-0.247-1.295-0.393
		C1.914,41.528-1.35,32.321,1.399,26.539L1.399,26.539L1.399,26.539z"/>
	<g>
		<path class="st150" d="M35.975,14.063l2.579-1.21c-0.694-0.124-1.592-0.358-2.074-0.92C36.16,12.75,36.049,13.38,35.975,14.063z"
			/>
		<path class="st150" d="M44.09,5.58c-0.172-0.091-0.347-0.179-0.526-0.265l0.146-0.071c3.868-1.904,0.913-6.722-4.186-4.798
			c1.847,0.687,1.637,2.611-1.464,5c-1.758,1.598-2.901,3.153-1.489,5.986c2.598,1.907,5.701,0.397,7.196-0.702
			c0.763,0.26-0.474,1.124-0.861,1.248c-0.008,0.003-0.008,0.003-0.015,0.005l0.029,0.012c0.156,0.062,0.279,0.12,0.426,0.199
			c0.114,0.059,0.221,0.124,0.325,0.194c1.167,0.767,1.938,2.086,1.938,3.585c0,2.367-1.918,4.287-4.285,4.287
			c-0.25,0-0.497-0.022-0.736-0.063l0.025,0.141c1.454,4.379,1.466,9.269-0.069,13.633C54.354,28.593,55.251,12.289,44.09,5.58z
			 M39.159,10.16c-0.455,0.027-0.845-0.318-0.873-0.771c-0.028-0.455,0.319-0.845,0.772-0.873c0.454-0.028,0.844,0.318,0.873,0.772
			C39.958,9.741,39.613,10.131,39.159,10.16z"/>
	</g>
	<path class="st149" d="M38.948,37.015c-0.583,2.386-1.689,4.577-3.196,6.453c-3.274,3.947-8.291,6.487-13.92,6.532
		c-3.43-0.024-6.626-1.005-9.315-2.679c0.214,0.081,0.428,0.163,0.647,0.239c0.447,0.152,0.894,0.287,1.343,0.408
		c1.599,0.359,3.263,0.55,4.974,0.55C27.967,48.518,35.324,43.843,38.948,37.015L38.948,37.015L38.948,37.015z"/>
	<path class="st149" d="M18.687,17.772h13.304c1.47,0.061,4.627,0.149,6.428,1.483c-2.044-4.237-6.056-6.783-13.259-6.524
		l-10.593-0.094c-1.834,0-4.375-0.368-5.863-0.963C10.031,13.921,13.44,17.772,18.687,17.772L18.687,17.772L18.687,17.772z"/>
	<path class="st149" d="M58.625,6.358c-0.094,4.29-3.779,5.545-6.402,5.653c-0.69-1.457-1.604-2.813-2.685-4.008
		C52.183,8.33,56.865,7.569,58.625,6.358L58.625,6.358L58.625,6.358z"/>
	<path class="st149" d="M57.969,11.148c0.135,2.843-0.547,6.255-4.222,6.989c-0.071-1.637-0.399-3.306-0.984-4.838
		C54.485,13.205,56.601,12.644,57.969,11.148L57.969,11.148L57.969,11.148z"/>
	<path class="st149" d="M57.193,17.716c-0.557,3.073-1.959,5.967-4.443,6.575c0.603-1.582,0.978-3.192,1.038-4.886
		C55.272,19.098,56.382,18.499,57.193,17.716L57.193,17.716L57.193,17.716z"/>
	<path class="st149" d="M50.6,6.64c-0.508-0.571-1.389-1.636-2.29-1.252c-1.019,0.431-2.032,0.435-3.199,0.368
		C45.542,6.083,47.424,7.207,50.6,6.64L50.6,6.64L50.6,6.64z"/>
	<path class="st151" d="M101.174,30.367c-0.21,0-0.376,0.039-0.499,0.119c-0.119,0.079-0.187,0.202-0.202,0.368
		c-0.006,0.071,0.006,0.131,0.027,0.184c0.025,0.051,0.058,0.095,0.107,0.128c0.043,0.035,0.1,0.061,0.164,0.078
		c0.067,0.016,0.14,0.025,0.217,0.025h0.353l0.263-0.901H101.174L101.174,30.367L101.174,30.367z M101.863,33.172h-1.073
		l0.372-1.281h-0.277c-0.056,0-0.11,0.008-0.166,0.023c-0.054,0.016-0.112,0.044-0.172,0.084c-0.058,0.039-0.117,0.092-0.177,0.156
		c-0.059,0.063-0.125,0.145-0.19,0.245l-0.519,0.773h-1.203l0.665-0.909c0.127-0.175,0.263-0.315,0.412-0.422
		c0.146-0.108,0.321-0.184,0.524-0.229c-0.101-0.019-0.192-0.054-0.275-0.103c-0.082-0.05-0.155-0.111-0.212-0.185
		c-0.06-0.071-0.103-0.152-0.133-0.241c-0.027-0.09-0.038-0.184-0.031-0.283c0.011-0.147,0.046-0.286,0.106-0.42
		c0.058-0.131,0.152-0.248,0.285-0.348c0.127-0.1,0.297-0.181,0.507-0.24c0.21-0.061,0.469-0.09,0.782-0.09h1.785L101.863,33.172
		L101.863,33.172L101.863,33.172z M97.847,32.02c-0.029,0.101-0.056,0.207-0.083,0.317c-0.025,0.11-0.05,0.215-0.073,0.318
		c-0.019,0.1-0.04,0.195-0.054,0.285c-0.017,0.089-0.031,0.167-0.04,0.233h-1.084c0.013-0.066,0.025-0.133,0.039-0.201
		c0.015-0.067,0.027-0.132,0.04-0.19c0.013-0.062,0.027-0.116,0.037-0.163c0.01-0.047,0.017-0.081,0.023-0.101h-0.015
		c-0.098,0.11-0.198,0.212-0.308,0.3c-0.106,0.091-0.216,0.168-0.331,0.233c-0.116,0.064-0.231,0.115-0.352,0.15
		c-0.118,0.037-0.237,0.054-0.356,0.054c-0.287,0-0.499-0.079-0.634-0.237c-0.135-0.161-0.193-0.384-0.17-0.674
		c0.002-0.033,0.01-0.079,0.021-0.135c0.01-0.056,0.023-0.116,0.04-0.175c0.015-0.062,0.031-0.12,0.042-0.177
		c0.015-0.06,0.031-0.107,0.041-0.149l0.584-2.004h1.077l-0.572,1.957c-0.01,0.037-0.023,0.075-0.033,0.115
		c-0.012,0.041-0.023,0.081-0.033,0.119c-0.008,0.039-0.012,0.071-0.019,0.104c-0.006,0.032-0.01,0.057-0.013,0.075
		c-0.008,0.098,0.015,0.18,0.065,0.239c0.048,0.06,0.125,0.09,0.229,0.09c0.114,0,0.225-0.032,0.335-0.096
		c0.112-0.063,0.214-0.144,0.31-0.246c0.092-0.102,0.173-0.216,0.247-0.343c0.073-0.125,0.127-0.254,0.162-0.378l0.48-1.636h1.081
		L97.847,32.02L97.847,32.02L97.847,32.02z M93.051,33.172h-1.075l0.414-1.426h-1.202l-0.414,1.426h-1.082l1.011-3.469h1.079
		l-0.366,1.256h1.202l0.368-1.256h1.073L93.051,33.172L93.051,33.172L93.051,33.172z M88.234,30.403
		c-0.052-0.01-0.11-0.019-0.171-0.024c-0.062-0.005-0.123-0.009-0.177-0.009c-0.158,0-0.295,0.027-0.416,0.078
		c-0.123,0.051-0.231,0.118-0.324,0.202c-0.094,0.086-0.173,0.18-0.241,0.285c-0.067,0.106-0.123,0.215-0.166,0.325
		c-0.042,0.11-0.077,0.216-0.102,0.32c-0.019,0.103-0.038,0.196-0.042,0.274c-0.008,0.084-0.002,0.161,0.008,0.232
		c0.012,0.071,0.033,0.132,0.064,0.185c0.033,0.052,0.075,0.092,0.125,0.121c0.05,0.029,0.11,0.044,0.183,0.044
		c0.127,0,0.245-0.038,0.353-0.112c0.104-0.075,0.202-0.17,0.283-0.287c0.089-0.117,0.16-0.247,0.223-0.393
		c0.062-0.146,0.114-0.288,0.156-0.431L88.234,30.403L88.234,30.403L88.234,30.403z M88.835,32.026
		c-0.021,0.069-0.044,0.156-0.065,0.253c-0.023,0.099-0.046,0.204-0.066,0.312c-0.023,0.106-0.04,0.211-0.054,0.315
		c-0.017,0.102-0.029,0.192-0.037,0.266h-1.082c0.002-0.035,0.008-0.078,0.015-0.131c0.008-0.054,0.017-0.108,0.025-0.163
		c0.008-0.055,0.019-0.11,0.029-0.163c0.008-0.054,0.017-0.098,0.025-0.135H87.61c-0.071,0.089-0.146,0.173-0.221,0.255
		c-0.077,0.081-0.16,0.152-0.252,0.215c-0.091,0.064-0.189,0.112-0.297,0.149c-0.108,0.037-0.229,0.055-0.368,0.055
		c-0.17,0-0.32-0.03-0.447-0.091c-0.127-0.062-0.231-0.148-0.312-0.264c-0.081-0.116-0.139-0.257-0.173-0.422
		c-0.033-0.166-0.042-0.354-0.025-0.564c0.008-0.106,0.029-0.237,0.064-0.391c0.039-0.154,0.092-0.318,0.168-0.487
		c0.077-0.172,0.175-0.341,0.3-0.509c0.125-0.168,0.277-0.32,0.462-0.456c0.183-0.135,0.401-0.245,0.651-0.328
		c0.252-0.082,0.543-0.124,0.876-0.124c0.127,0,0.256,0.004,0.387,0.014c0.129,0.01,0.254,0.024,0.379,0.041
		c0.123,0.015,0.245,0.036,0.358,0.058c0.116,0.023,0.225,0.045,0.326,0.067L88.835,32.026L88.835,32.026L88.835,32.026z
		 M84.845,30.53c-0.002,0.033-0.01,0.078-0.019,0.136c-0.013,0.056-0.025,0.115-0.041,0.174c-0.012,0.062-0.029,0.12-0.044,0.179
		c-0.015,0.057-0.031,0.106-0.042,0.146l-0.582,2.007h-1.075l0.572-1.979c0.021-0.072,0.041-0.147,0.06-0.223
		c0.017-0.078,0.031-0.135,0.033-0.176c0.01-0.108-0.012-0.195-0.062-0.259c-0.05-0.065-0.131-0.096-0.241-0.096
		c-0.094-0.001-0.191,0.029-0.297,0.086c-0.104,0.058-0.204,0.134-0.302,0.229c-0.094,0.094-0.179,0.203-0.256,0.326
		c-0.075,0.122-0.133,0.248-0.169,0.378l-0.495,1.714h-1.09l0.701-2.38c0.029-0.103,0.058-0.207,0.087-0.313
		c0.029-0.104,0.052-0.205,0.077-0.3c0.023-0.096,0.046-0.187,0.064-0.268c0.019-0.083,0.035-0.152,0.044-0.208h1.059
		c-0.014,0.063-0.025,0.129-0.039,0.196c-0.013,0.07-0.027,0.137-0.038,0.198c-0.014,0.063-0.025,0.12-0.037,0.169
		c-0.012,0.048-0.019,0.082-0.025,0.102h0.014c0.087-0.104,0.185-0.201,0.293-0.293c0.104-0.092,0.216-0.17,0.333-0.239
		c0.118-0.066,0.237-0.121,0.36-0.162c0.121-0.038,0.245-0.058,0.364-0.058c0.287,0,0.497,0.079,0.63,0.238
		C84.812,30.017,84.868,30.24,84.845,30.53L84.845,30.53L84.845,30.53z M79.592,33.172h-1l0.788-2.702
		c-0.054,0.123-0.177,0.336-0.366,0.642l-1.273,2.06H76.8l-0.075-2.06c-0.012-0.341-0.01-0.554,0.006-0.633l-0.788,2.693h-0.838
		l1.007-3.469h1.302l0.083,1.978c0.013,0.291,0.012,0.497-0.008,0.615c0.039-0.099,0.156-0.303,0.349-0.61l1.225-1.984h1.539
		L79.592,33.172L79.592,33.172L79.592,33.172z M73.604,31.091c0.008-0.095,0.004-0.182-0.013-0.263
		c-0.014-0.079-0.044-0.149-0.085-0.206c-0.037-0.057-0.087-0.102-0.148-0.135c-0.062-0.033-0.133-0.049-0.216-0.049
		c-0.142-0.001-0.272,0.041-0.391,0.12c-0.117,0.083-0.22,0.187-0.308,0.316c-0.087,0.129-0.158,0.273-0.21,0.433
		c-0.052,0.16-0.087,0.322-0.1,0.482c-0.014,0.204,0.021,0.365,0.108,0.478c0.089,0.112,0.208,0.17,0.362,0.17
		c0.146,0,0.277-0.04,0.395-0.119c0.119-0.08,0.221-0.182,0.306-0.309c0.085-0.129,0.156-0.273,0.206-0.433
		C73.56,31.414,73.591,31.254,73.604,31.091L73.604,31.091L73.604,31.091z M74.687,31.077c-0.012,0.162-0.042,0.326-0.087,0.495
		c-0.044,0.171-0.108,0.335-0.187,0.497c-0.083,0.161-0.183,0.314-0.3,0.458c-0.118,0.144-0.26,0.272-0.418,0.379
		c-0.16,0.107-0.345,0.192-0.551,0.254c-0.204,0.064-0.433,0.094-0.688,0.094c-0.258,0-0.48-0.037-0.663-0.111
		c-0.187-0.075-0.337-0.177-0.449-0.308c-0.116-0.131-0.194-0.288-0.243-0.465c-0.046-0.181-0.062-0.376-0.044-0.582
		c0.012-0.168,0.042-0.337,0.091-0.51c0.048-0.173,0.112-0.339,0.196-0.499c0.083-0.161,0.187-0.31,0.31-0.452
		c0.119-0.143,0.262-0.265,0.426-0.371c0.16-0.105,0.343-0.186,0.545-0.248c0.202-0.062,0.426-0.091,0.67-0.091
		c0.243,0,0.455,0.035,0.636,0.103c0.181,0.068,0.331,0.167,0.447,0.295c0.119,0.126,0.202,0.28,0.256,0.46
		C74.687,30.657,74.704,30.856,74.687,31.077L74.687,31.077L74.687,31.077z M69.452,31.339l0.751,1.834h-1.192l-0.622-1.803h-0.015
		l-0.52,1.803h-1.079l1.009-3.469h1.08l-0.441,1.504h0.014l1.498-1.504h1.269L69.452,31.339L69.452,31.339L69.452,31.339z
		 M65.317,30.403c-0.052-0.01-0.11-0.019-0.173-0.024c-0.062-0.005-0.121-0.009-0.177-0.009c-0.156,0-0.295,0.027-0.416,0.078
		c-0.123,0.051-0.229,0.118-0.324,0.202c-0.094,0.086-0.173,0.18-0.241,0.285c-0.067,0.106-0.123,0.215-0.166,0.325
		c-0.042,0.11-0.077,0.216-0.102,0.32c-0.019,0.103-0.037,0.196-0.042,0.274c-0.008,0.084-0.004,0.161,0.008,0.232
		c0.012,0.071,0.033,0.132,0.065,0.185c0.033,0.052,0.073,0.092,0.125,0.121c0.048,0.029,0.11,0.044,0.181,0.044
		c0.127,0,0.245-0.038,0.35-0.112c0.106-0.075,0.204-0.17,0.287-0.287c0.085-0.117,0.16-0.247,0.221-0.393
		c0.062-0.146,0.116-0.288,0.158-0.431L65.317,30.403L65.317,30.403L65.317,30.403z M65.916,32.026
		c-0.021,0.069-0.042,0.156-0.067,0.253c-0.021,0.099-0.042,0.204-0.064,0.312c-0.021,0.106-0.039,0.211-0.054,0.315
		c-0.017,0.102-0.029,0.192-0.035,0.266h-1.084c0.004-0.035,0.008-0.078,0.015-0.131c0.008-0.054,0.017-0.108,0.025-0.163
		c0.008-0.055,0.019-0.11,0.029-0.163c0.008-0.054,0.019-0.098,0.025-0.135h-0.014c-0.073,0.089-0.146,0.173-0.223,0.255
		c-0.077,0.081-0.16,0.152-0.252,0.215c-0.089,0.064-0.189,0.112-0.297,0.149c-0.108,0.037-0.229,0.055-0.368,0.055
		c-0.17,0-0.318-0.03-0.445-0.091c-0.127-0.062-0.233-0.148-0.312-0.264c-0.083-0.116-0.141-0.257-0.175-0.422
		c-0.035-0.166-0.042-0.354-0.025-0.564c0.008-0.106,0.029-0.237,0.065-0.391c0.035-0.154,0.092-0.318,0.166-0.487
		c0.079-0.172,0.177-0.341,0.3-0.509c0.125-0.168,0.279-0.32,0.462-0.456c0.183-0.135,0.401-0.245,0.651-0.328
		c0.252-0.082,0.545-0.124,0.876-0.124c0.127,0,0.258,0.004,0.387,0.014c0.129,0.01,0.254,0.024,0.379,0.041
		c0.123,0.015,0.243,0.036,0.36,0.058c0.114,0.023,0.223,0.045,0.322,0.067L65.916,32.026L65.916,32.026L65.916,32.026z
		 M61.472,32.02c-0.031,0.101-0.058,0.207-0.085,0.317c-0.025,0.11-0.05,0.215-0.071,0.318c-0.021,0.1-0.04,0.195-0.056,0.285
		c-0.019,0.089-0.031,0.167-0.04,0.233h-1.084c0.014-0.066,0.025-0.133,0.039-0.201c0.014-0.067,0.027-0.132,0.04-0.19
		c0.015-0.062,0.027-0.116,0.037-0.163c0.01-0.047,0.017-0.081,0.021-0.101h-0.014c-0.096,0.11-0.198,0.212-0.306,0.3
		c-0.108,0.091-0.22,0.168-0.333,0.233c-0.114,0.064-0.231,0.115-0.351,0.15c-0.119,0.037-0.239,0.054-0.358,0.054
		c-0.287,0-0.499-0.079-0.634-0.237c-0.135-0.161-0.193-0.384-0.17-0.674c0.004-0.033,0.01-0.079,0.021-0.135
		c0.012-0.056,0.025-0.116,0.04-0.175c0.014-0.062,0.029-0.12,0.042-0.177c0.015-0.06,0.031-0.107,0.042-0.149l0.582-2.004h1.077
		l-0.57,1.957c-0.014,0.037-0.023,0.075-0.035,0.115c-0.012,0.041-0.021,0.081-0.031,0.119c-0.01,0.039-0.015,0.071-0.021,0.104
		c-0.006,0.032-0.01,0.057-0.012,0.075c-0.008,0.098,0.013,0.18,0.064,0.239c0.048,0.06,0.125,0.09,0.229,0.09
		c0.114,0,0.225-0.032,0.337-0.096c0.112-0.063,0.212-0.144,0.306-0.246c0.094-0.102,0.177-0.216,0.25-0.343
		c0.069-0.125,0.125-0.254,0.162-0.378l0.478-1.636h1.081L61.472,32.02L61.472,32.02L61.472,32.02z M56.276,32.037
		c0.01-0.109-0.025-0.195-0.104-0.265c-0.079-0.068-0.214-0.102-0.406-0.102c-0.125,0-0.252,0.008-0.383,0.021
		c-0.127,0.013-0.235,0.027-0.322,0.041c-0.015,0.045-0.025,0.09-0.031,0.138c-0.006,0.044-0.012,0.089-0.013,0.129
		c-0.015,0.191,0.015,0.331,0.094,0.418c0.079,0.087,0.216,0.131,0.41,0.131c0.119,0,0.225-0.015,0.318-0.044
		c0.091-0.03,0.168-0.067,0.233-0.117c0.063-0.047,0.112-0.104,0.146-0.164C56.251,32.162,56.272,32.1,56.276,32.037L56.276,32.037
		L56.276,32.037z M56.545,30.603c0.006-0.09-0.019-0.165-0.079-0.225c-0.06-0.062-0.15-0.093-0.277-0.093
		c-0.104,0-0.206,0.019-0.302,0.062c-0.098,0.04-0.187,0.096-0.268,0.169c-0.083,0.072-0.154,0.159-0.218,0.259
		c-0.065,0.098-0.118,0.206-0.158,0.324c0.195-0.004,0.37-0.013,0.526-0.027c0.158-0.014,0.291-0.039,0.405-0.075
		c0.114-0.036,0.2-0.085,0.264-0.146C56.501,30.788,56.536,30.705,56.545,30.603L56.545,30.603L56.545,30.603z M57.576,30.451
		c-0.006,0.087-0.027,0.175-0.062,0.268c-0.037,0.092-0.092,0.181-0.166,0.263c-0.073,0.082-0.171,0.157-0.291,0.223
		c-0.118,0.067-0.268,0.117-0.443,0.152c0.239,0.016,0.416,0.086,0.53,0.209c0.116,0.121,0.168,0.284,0.15,0.487
		c-0.006,0.07-0.023,0.15-0.054,0.237c-0.031,0.088-0.077,0.177-0.141,0.265c-0.064,0.088-0.143,0.174-0.241,0.259
		c-0.096,0.085-0.218,0.16-0.36,0.225c-0.141,0.065-0.306,0.118-0.495,0.158c-0.189,0.038-0.403,0.058-0.647,0.058
		c-0.229,0-0.433-0.019-0.61-0.062c-0.175-0.041-0.322-0.112-0.437-0.212c-0.115-0.099-0.198-0.231-0.247-0.401
		c-0.05-0.166-0.065-0.376-0.046-0.626c0.012-0.144,0.035-0.298,0.066-0.458c0.035-0.161,0.081-0.322,0.144-0.481
		c0.062-0.159,0.141-0.314,0.237-0.462c0.094-0.15,0.212-0.285,0.349-0.403c0.187-0.168,0.412-0.299,0.68-0.393
		c0.268-0.092,0.57-0.139,0.907-0.139c0.239,0,0.435,0.024,0.591,0.075c0.156,0.052,0.279,0.118,0.368,0.198
		c0.089,0.081,0.15,0.171,0.181,0.27C57.572,30.26,57.584,30.356,57.576,30.451L57.576,30.451L57.576,30.451z M51.738,29.612
		c0-0.037,0.002-0.076,0.004-0.121c0.004-0.043,0.006-0.086,0.012-0.127c0.004-0.04,0.008-0.078,0.012-0.11
		c0.006-0.033,0.01-0.058,0.013-0.072h-0.021c-0.006,0.018-0.015,0.046-0.029,0.077c-0.014,0.033-0.029,0.066-0.046,0.105
		c-0.019,0.036-0.039,0.075-0.06,0.116c-0.023,0.04-0.046,0.079-0.069,0.118l-1.019,1.653h1.25L51.738,29.612L51.738,29.612
		L51.738,29.612z M51.854,33.172L51.8,32.091h-1.741l-0.653,1.081h-1.235l3.184-4.858h1.306l0.31,4.858H51.854L51.854,33.172
		L51.854,33.172z"/>
	<path class="st151" d="M113.057,30.121c-0.049,0.108-0.117,0.204-0.204,0.285c-0.088,0.083-0.198,0.149-0.327,0.197
		c-0.127,0.049-0.279,0.072-0.455,0.072h-0.498l0.439-1.514h0.431c0.245,0,0.428,0.056,0.543,0.168
		c0.121,0.112,0.172,0.261,0.156,0.451C113.132,29.899,113.103,30.013,113.057,30.121L113.057,30.121z M114.255,29.158
		c-0.049-0.169-0.134-0.313-0.254-0.436c-0.119-0.123-0.277-0.22-0.475-0.293c-0.194-0.069-0.431-0.106-0.705-0.106h-1.668
		l-1.416,4.857h1.105l0.482-1.674h0.681c0.378,0,0.707-0.05,0.984-0.146c0.279-0.099,0.515-0.23,0.703-0.395
		c0.188-0.166,0.333-0.357,0.435-0.576c0.101-0.216,0.161-0.445,0.178-0.685C114.323,29.509,114.305,29.325,114.255,29.158
		L114.255,29.158z"/>
	<path class="st151" d="M116.102,33.485c-0.129,0.202-0.263,0.382-0.402,0.548c-0.135,0.162-0.279,0.302-0.433,0.418
		c-0.153,0.114-0.32,0.203-0.499,0.266c-0.181,0.062-0.38,0.092-0.603,0.092c-0.078,0-0.17-0.006-0.274-0.023
		c-0.106-0.015-0.206-0.039-0.295-0.071l0.247-0.828c0.044,0.035,0.103,0.062,0.174,0.08c0.066,0.016,0.137,0.026,0.206,0.026
		c0.135,0,0.26-0.031,0.38-0.092c0.119-0.062,0.229-0.165,0.325-0.304l0.314-0.437l-0.402-3.448h1.123l0.079,2.11
		c0,0.078,0,0.16-0.006,0.248c-0.006,0.088-0.016,0.16-0.025,0.217h0.015c0.024-0.057,0.054-0.127,0.093-0.21
		c0.04-0.083,0.085-0.169,0.137-0.255l1.227-2.11h1.122L116.102,33.485L116.102,33.485L116.102,33.485z"/>
	<path class="st151" d="M121.564,30.663c-0.073-0.06-0.169-0.108-0.287-0.152c-0.119-0.042-0.25-0.064-0.392-0.064
		c-0.164-0.001-0.316,0.039-0.457,0.115c-0.139,0.078-0.26,0.176-0.362,0.299c-0.103,0.122-0.181,0.259-0.245,0.411
		c-0.062,0.15-0.101,0.298-0.109,0.445c-0.02,0.233,0.021,0.413,0.119,0.538c0.098,0.128,0.255,0.191,0.471,0.191
		c0.067,0,0.141-0.007,0.216-0.02c0.071-0.013,0.146-0.033,0.221-0.056c0.076-0.023,0.145-0.05,0.216-0.081
		c0.07-0.029,0.131-0.059,0.189-0.095l-0.232,0.82c-0.16,0.08-0.327,0.141-0.506,0.184c-0.177,0.044-0.353,0.067-0.529,0.067
		c-0.225,0-0.419-0.035-0.583-0.106c-0.166-0.068-0.301-0.167-0.406-0.293c-0.107-0.127-0.181-0.278-0.224-0.455
		c-0.042-0.173-0.058-0.366-0.04-0.576c0.016-0.195,0.054-0.383,0.109-0.567c0.058-0.185,0.139-0.358,0.234-0.521
		c0.098-0.162,0.211-0.313,0.344-0.451c0.135-0.137,0.285-0.255,0.451-0.355c0.168-0.099,0.351-0.177,0.547-0.231
		c0.2-0.056,0.41-0.084,0.632-0.084c0.106,0,0.202,0.007,0.294,0.019c0.091,0.013,0.176,0.027,0.25,0.047
		c0.075,0.018,0.143,0.04,0.197,0.065c0.057,0.024,0.102,0.045,0.136,0.065L121.564,30.663L121.564,30.663L121.564,30.663z"/>
	<path class="st151" d="M125.979,33.18h-1.103l1.148-3.939h-1.019c-0.093,0.227-0.193,0.468-0.299,0.718
		c-0.105,0.252-0.214,0.501-0.323,0.747c-0.106,0.247-0.214,0.48-0.32,0.702c-0.107,0.221-0.206,0.415-0.301,0.582
		c-0.109,0.202-0.226,0.383-0.345,0.538c-0.117,0.156-0.245,0.287-0.377,0.392c-0.133,0.106-0.278,0.186-0.432,0.238
		c-0.156,0.056-0.321,0.083-0.507,0.083c-0.102,0-0.202-0.006-0.3-0.015c-0.095-0.011-0.179-0.029-0.256-0.053l0.258-0.891
		c0.033,0.015,0.073,0.028,0.121,0.039c0.046,0.008,0.096,0.012,0.148,0.012c0.15,0,0.291-0.058,0.418-0.179
		c0.127-0.119,0.256-0.295,0.391-0.524c0.066-0.116,0.139-0.251,0.216-0.407c0.079-0.156,0.164-0.325,0.247-0.506
		c0.087-0.183,0.176-0.375,0.266-0.577c0.09-0.201,0.178-0.407,0.267-0.612c0.089-0.206,0.176-0.412,0.26-0.617
		c0.085-0.204,0.166-0.399,0.243-0.587h3.016L125.979,33.18L125.979,33.18L125.979,33.18z"/>
	<path class="st151" d="M131.291,29.742c-0.115-0.023-0.236-0.042-0.361-0.059c-0.124-0.018-0.25-0.032-0.379-0.042
		c-0.129-0.01-0.26-0.015-0.388-0.015c-0.331,0-0.624,0.042-0.875,0.125c-0.25,0.084-0.467,0.194-0.653,0.328
		c-0.184,0.136-0.337,0.288-0.462,0.456c-0.125,0.168-0.222,0.337-0.299,0.509c-0.075,0.169-0.131,0.333-0.168,0.488
		c-0.035,0.153-0.058,0.284-0.066,0.391c-0.017,0.209-0.007,0.398,0.026,0.563c0.035,0.165,0.095,0.306,0.176,0.422
		c0.079,0.115,0.184,0.202,0.312,0.264c0.127,0.061,0.277,0.091,0.447,0.091c0.137,0,0.26-0.019,0.366-0.056
		c0.108-0.037,0.208-0.086,0.299-0.149c0.091-0.063,0.173-0.134,0.25-0.215c0.079-0.081,0.15-0.166,0.223-0.254h0.016
		c-0.008,0.036-0.019,0.081-0.025,0.135c-0.012,0.052-0.024,0.107-0.031,0.162c-0.007,0.055-0.017,0.108-0.025,0.162
		c-0.008,0.054-0.012,0.098-0.016,0.131h1.085c0.008-0.073,0.018-0.163,0.035-0.266c0.016-0.103,0.032-0.208,0.054-0.314
		c0.021-0.108,0.044-0.212,0.065-0.312c0.024-0.098,0.046-0.184,0.066-0.254l0.651-2.224
		C131.514,29.786,131.404,29.764,131.291,29.742z M130.12,31.222c-0.042,0.144-0.095,0.286-0.158,0.432
		c-0.061,0.146-0.135,0.275-0.222,0.393c-0.083,0.116-0.181,0.21-0.285,0.285c-0.107,0.075-0.225,0.113-0.352,0.113
		c-0.071,0-0.131-0.015-0.181-0.045c-0.049-0.029-0.092-0.068-0.125-0.12c-0.032-0.053-0.051-0.114-0.065-0.185
		c-0.01-0.071-0.016-0.149-0.008-0.232c0.006-0.079,0.024-0.171,0.046-0.275c0.022-0.103,0.054-0.209,0.099-0.319
		c0.042-0.11,0.098-0.219,0.166-0.324c0.067-0.105,0.146-0.2,0.243-0.285c0.092-0.083,0.198-0.15,0.322-0.202
		c0.121-0.051,0.26-0.078,0.416-0.078c0.055,0,0.115,0.003,0.177,0.009c0.064,0.005,0.122,0.015,0.174,0.025L130.12,31.222z"/>
	<path class="st151" d="M135.418,32.028c-0.027,0.101-0.053,0.208-0.081,0.318c-0.029,0.11-0.05,0.214-0.073,0.316
		c-0.02,0.102-0.04,0.196-0.058,0.287c-0.013,0.089-0.027,0.166-0.036,0.231h-1.084c0.013-0.065,0.025-0.132,0.038-0.2
		c0.011-0.067,0.027-0.131,0.04-0.19c0.013-0.061,0.027-0.115,0.035-0.163c0.012-0.047,0.019-0.081,0.021-0.1h-0.011
		c-0.099,0.11-0.2,0.21-0.309,0.3c-0.105,0.09-0.219,0.168-0.333,0.232c-0.113,0.064-0.231,0.115-0.35,0.151
		c-0.119,0.036-0.237,0.054-0.358,0.054c-0.286,0-0.497-0.079-0.632-0.238c-0.135-0.161-0.192-0.384-0.17-0.674
		c0.002-0.032,0.01-0.078,0.022-0.135c0.009-0.056,0.023-0.117,0.038-0.176c0.013-0.061,0.033-0.119,0.044-0.177
		c0.015-0.058,0.031-0.106,0.04-0.148l0.583-2.005h1.077l-0.572,1.958c-0.014,0.038-0.023,0.074-0.034,0.117
		c-0.01,0.039-0.022,0.079-0.031,0.118c-0.008,0.039-0.016,0.073-0.02,0.106c-0.006,0.031-0.01,0.056-0.014,0.074
		c-0.007,0.099,0.016,0.18,0.066,0.239c0.048,0.06,0.125,0.09,0.229,0.09c0.113,0,0.224-0.031,0.335-0.096
		c0.111-0.062,0.214-0.144,0.307-0.246c0.096-0.103,0.177-0.216,0.25-0.344c0.073-0.124,0.126-0.252,0.162-0.377l0.479-1.637h1.081
		L135.418,32.028L135.418,32.028L135.418,32.028z"/>
	<path class="st151" d="M136.353,27.978c-0.062,0.169-0.153,0.325-0.264,0.471c-0.111,0.143-0.245,0.269-0.396,0.372
		c-0.153,0.105-0.322,0.186-0.511,0.245c-0.186,0.058-0.388,0.088-0.596,0.088c-0.182,0-0.35-0.029-0.502-0.087
		c-0.153-0.058-0.285-0.139-0.391-0.241c-0.107-0.104-0.19-0.229-0.243-0.374c-0.057-0.145-0.081-0.302-0.073-0.474h0.815
		c-0.006,0.077,0.004,0.151,0.022,0.223c0.019,0.071,0.047,0.135,0.09,0.191c0.04,0.057,0.095,0.099,0.162,0.133
		c0.068,0.033,0.151,0.048,0.245,0.048c0.093,0,0.181-0.015,0.268-0.046c0.083-0.029,0.162-0.071,0.233-0.127
		c0.07-0.052,0.135-0.116,0.189-0.189c0.055-0.071,0.1-0.15,0.136-0.233H136.353L136.353,27.978L136.353,27.978z"/>
	<polygon class="st151" points="139.647,33.18 138.575,33.18 138.989,31.755 137.786,31.755 137.371,33.18 136.293,33.18 
		137.301,29.711 138.38,29.711 138.014,30.967 139.217,30.967 139.582,29.711 140.657,29.711 139.647,33.18 139.647,33.18 	"/>
</g>
</svg>
