<?xml version="1.0" encoding="utf-8"?>
<!-- Generator: Adobe Illustrator 18.0.0, SVG Export Plug-In . SVG Version: 6.00 Build 0)  -->
<!DOCTYPE svg PUBLIC "-//W3C//DTD SVG 1.1//EN" "http://www.w3.org/Graphics/SVG/1.1/DTD/svg11.dtd">
<svg version="1.1" xmlns="http://www.w3.org/2000/svg" xmlns:xlink="http://www.w3.org/1999/xlink" x="0px" y="0px" width="200px"
	 height="44.501px" viewBox="0 0 200 44.501" style="enable-background:new 0 0 200 44.501;" xml:space="preserve">
<style type="text/css">
	.st0{display:none;}
	.st1{display:inline;}
	.st2{fill:#ED2D27;}
	.st3{display:inline;fill:#F8B900;}
	.st4{display:inline;fill:#00235F;}
	.st5{fill:url(#SVGID_1_);}
	.st6{fill:#006CB6;}
	.st7{fill:url(#SVGID_2_);}
	.st8{fill:url(#SVGID_3_);}
	.st9{fill:url(#SVGID_4_);}
	.st10{fill:url(#SVGID_5_);}
	.st11{fill:url(#SVGID_6_);}
	.st12{fill-rule:evenodd;clip-rule:evenodd;fill:#FFFFFF;}
	.st13{fill-rule:evenodd;clip-rule:evenodd;fill:#E2231A;}
	.st14{fill:#FFFFFF;}
	.st15{fill-rule:evenodd;clip-rule:evenodd;fill:#001689;}
	.st16{fill:#00529B;}
	.st17{fill:#F47920;}
	.st18{fill:url(#SVGID_7_);}
	.st19{fill:url(#SVGID_8_);}
	.st20{fill:url(#SVGID_9_);}
	.st21{fill:url(#SVGID_10_);}
	.st22{fill:url(#SVGID_11_);}
	.st23{fill:url(#SVGID_12_);}
	.st24{fill:url(#SVGID_13_);}
	.st25{fill:#00054C;}
	.st26{fill:url(#path3364_3_);}
	.st27{fill:url(#path3366_3_);}
	.st28{fill:#22356B;}
	.st29{fill:#FCC210;}
	.st30{fill:#ED1C24;}
	.st31{display:inline;fill:url(#SVGID_14_);}
	.st32{fill:#002157;}
	.st33{fill:#CC2234;}
	.st34{fill:#E23546;}
	.st35{fill:#FCB130;}
	.st36{fill:#1D4886;}
	.st37{display:inline;fill:none;}
	.st38{display:inline;fill:#005DAA;}
	.st39{fill:#005DAA;}
	.st40{fill:#00A1E4;}
	.st41{fill:#00704A;}
	.st42{fill:#B10D28;}
	.st43{fill:#D31245;}
	.st44{fill:url(#path70_3_);}
	.st45{fill:url(#SVGID_15_);}
	.st46{fill:url(#SVGID_16_);}
	.st47{fill:#231916;}
	.st48{fill:#E60013;}
	.st49{fill:#C0231E;}
	.st50{fill:#014E84;}
	.st51{fill:#BA783E;}
	.st52{fill:#002052;}
	.st53{fill:#0093D0;}
	.st54{fill:#ED1B2F;}
	.st55{fill:#E3242B;}
	.st56{fill-rule:evenodd;clip-rule:evenodd;fill:#034EA2;}
	.st57{fill-rule:evenodd;clip-rule:evenodd;fill:#E11837;}
	.st58{fill:#034EA2;}
	.st59{opacity:0.8902;fill:#EB151C;}
	.st60{fill:#1A1A1A;}
	.st61{enable-background:new    ;}
	.st62{fill:#FF6600;}
	.st63{clip-path:url(#SVGID_18_);fill:url(#SVGID_19_);}
	.st64{fill:url(#SVGID_20_);}
	.st65{fill:#B2DB1F;}
	.st66{fill:#FA002C;}
	.st67{fill:#1C2D5B;}
	.st68{fill:#1C4E9D;}
	.st69{fill:#ED192D;}
	.st70{display:inline;fill:#FFFFFF;}
	.st71{display:inline;fill:#00529B;}
	.st72{display:inline;fill:#F47920;}
	.st73{display:inline;fill:url(#SVGID_21_);}
	.st74{display:inline;fill:url(#SVGID_22_);}
	.st75{display:inline;fill:url(#SVGID_23_);}
	.st76{display:inline;fill:url(#SVGID_24_);}
	.st77{display:inline;fill:url(#SVGID_25_);}
	.st78{display:inline;fill:url(#SVGID_26_);}
	.st79{display:inline;fill:url(#SVGID_27_);}
	.st80{display:inline;fill:url(#path3364_4_);}
	.st81{display:inline;fill:url(#path3366_4_);}
	.st82{display:inline;fill:url(#SVGID_28_);}
	.st83{display:inline;fill:url(#SVGID_29_);}
	.st84{display:inline;fill:url(#SVGID_30_);}
	.st85{display:inline;opacity:0.75;fill:#FFFFFF;}
	.st86{display:inline;fill:#ED1B2F;}
	.st87{opacity:0.8902;fill:#FFFFFF;}
	.st88{clip-path:url(#SVGID_32_);fill:#FFFFFF;}
	.st89{fill:url(#SVGID_33_);}
	.st90{fill:url(#SVGID_34_);}
	.st91{fill:url(#SVGID_35_);}
	.st92{fill:url(#SVGID_36_);}
	.st93{fill:url(#SVGID_37_);}
	.st94{fill:url(#SVGID_38_);}
	.st95{fill:url(#SVGID_39_);}
	.st96{fill:url(#SVGID_40_);}
	.st97{clip-path:url(#SVGID_42_);fill:url(#SVGID_43_);}
	.st98{fill:url(#SVGID_44_);}
	.st99{fill:url(#path70_5_);}
	.st100{fill:url(#SVGID_45_);}
	.st101{fill:url(#SVGID_46_);}
	.st102{fill:#F8B900;}
	.st103{fill:#00235F;}
	.st104{fill:url(#SVGID_47_);}
	.st105{fill:url(#SVGID_48_);}
	.st106{fill:url(#SVGID_49_);}
	.st107{fill:url(#SVGID_50_);}
	.st108{fill:url(#SVGID_51_);}
	.st109{fill:url(#SVGID_52_);}
	.st110{opacity:0.8902;fill:#EB151C;enable-background:new    ;}
	.st111{fill:#E11837;}
	.st112{fill:#E2231A;}
	.st113{fill:#001689;}
	.st114{fill:#EF3E34;}
	.st115{fill:#4D82C4;}
	.st116{fill:#8C7035;}
	.st117{fill:#5FBA45;}
	.st118{fill:#008F7E;}
	.st119{fill:#004595;}
	.st120{fill:#FFED00;}
	.st121{fill:#E53138;}
	.st122{fill:url(#SVGID_53_);}
	.st123{fill:url(#SVGID_54_);}
	.st124{fill:url(#SVGID_55_);}
	.st125{fill:url(#SVGID_56_);}
	.st126{fill:#11185E;}
	.st127{fill:#EE3024;}
	.st128{fill:#0675CC;}
	.st129{fill:#E2001A;}
	.st130{fill:#009036;}
	.st131{fill:#0B1560;}
	.st132{fill:#0070AF;}
	.st133{fill:#0F2C64;}
	.st134{fill:#EF001E;}
	.st135{fill:#1C2A8D;}
	.st136{fill:#334357;}
	.st137{fill:url(#SVGID_57_);}
	.st138{fill:#ED1B28;}
	.st139{fill:#1E5AAF;}
	.st140{fill:#991933;}
	.st141{fill:#E01933;}
	.st142{fill:#003366;}
	.st143{fill:#00265D;}
	.st144{fill:#003263;}
	.st145{fill:#EE452A;}
	.st146{fill:#011F65;}
	.st147{fill:#EC2227;}
	.st148{fill:#010101;}
	.st149{fill:#FCEE21;}
	.st150{fill:#18488B;}
	.st151{fill:#EC2427;}
	.st152{fill:#D09B2B;}
	.st153{fill:#156192;}
	.st154{fill:#021A31;}
	.st155{fill:#008E8F;}
	.st156{fill:#2B438F;}
	.st157{fill:#363F9E;}
	.st158{fill:#00ABBF;}
</style>
<g id="Layer_1" class="st0">
</g>
<g id="Layer_2" class="st0">
</g>
<g id="Layer_3">
	<g>
		<g>
			<path id="path2235_4_" class="st110" d="M0.001,29.75l0.001-14.752l0.373,0.776c0.541,1.124,1.017,1.765,2.101,2.824
				c1.143,1.117,1.439,1.345,3.266,2.515C6.511,21.605,7.48,22.23,7.895,22.5c3.178,2.069,4.646,3.886,5.416,6.702
				c0.196,0.716,0.233,1.004,0.267,2.081c0.038,1.182-0.023,1.898-0.253,2.962c-0.041,0.189-0.025,0.208,0.172,0.208
				c0.389,0.001,2.239,0.3,3.05,0.493c3.004,0.716,5.465,1.819,8.311,3.725c1.417,0.949,2.785,2.08,4.424,3.655
				c0.745,0.716,0.858,0.8,0.901,0.665c0.161-0.506-0.684-1.925-1.841-3.092c-2.021-2.039-4.824-3.945-8.093-5.501
				c-2.237-1.065-2.887-1.468-3.584-2.22c-0.548-0.592-0.797-1.101-0.798-1.634c-0.001-0.574,0.179-0.955,0.593-1.258
				c0.721-0.527,1.652-0.501,2.198,0.063l0.257,0.265l-0.294,0.123c-0.24,0.1-0.437,0.113-1.077,0.07l-0.783-0.053l0.025,0.178
				c0.065,0.459,1.491,0.678,2.405,0.368c0.959-0.325,2.024-1.039,3.459-2.318c0.334-0.298,0.683-0.582,0.775-0.631
				c0.092-0.049,0.701-0.15,1.353-0.224c0.853-0.097,1.274-0.18,1.499-0.295c0.316-0.161,0.513-0.405,0.432-0.535
				c-0.069-0.111-1.241-0.869-1.698-1.098c-0.806-0.403-2.049-0.862-3.259-1.203c-0.674-0.19-1.24-0.331-1.257-0.314
				c-0.066,0.066,0.131,0.598,0.307,0.827c0.219,0.287,0.901,0.65,1.331,0.708c0.169,0.023,0.307,0.057,0.307,0.076
				c0,0.06-0.317,0.501-0.522,0.727c-0.241,0.265-0.953,0.634-1.343,0.697l-0.29,0.046l-0.484-0.63
				c-1.784-2.322-3.423-3.809-5.822-5.281c-1.489-0.914-2.66-1.448-5.704-2.6C4.65,16.878,4.459,16.8,3.627,16.373
				c-1.615-0.83-2.536-1.668-3.125-2.843c-0.512-1.022-0.515-1.072-0.487-7.73L0.038,0L3.4,3.101
				c1.849,1.706,3.417,3.125,3.483,3.155c0.067,0.03,1.75,1.552,3.74,3.382s6.168,5.67,9.285,8.532s5.904,5.45,6.195,5.752
				c0.291,0.301,5.391,5.009,11.333,10.461c5.942,5.452,10.854,9.959,10.915,10.016c0.093,0.087-3.672,0.103-24.12,0.103H0
				L0.001,29.75L0.001,29.75L0.001,29.75z"/>
			<path class="st60" d="M69.354,20.75c-1.737-1.798-4.569-2.446-9.683-2.214c-4.027,0.183-6.618,0.816-9.765,2.387
				c-3.989,1.992-7.038,4.839-8.676,8.102c-1.315,2.619-0.901,5.595,1.003,7.205c1.663,1.407,3.567,2.028,6.94,2.263
				c1.803,0.126,2.307,0.253,2.808,0.706c0.879,0.795,1.624,1.149,3.418,1.623c3.013,0.796,4.72,0.447,7.197-1.469l1.47-1.137
				l-2.131-0.123c-1.75-0.101-2.224-0.216-2.651-0.647l-0.52-0.524l1.918-0.967c3.672-1.851,5.879-3.643,7.774-6.314
				C71.034,26.012,71.356,22.822,69.354,20.75z M60.541,26.159c-1.604,3.066-4.281,6.192-6.12,7.148
				c-0.839,0.436-3.262,0.718-3.905,0.454c-1.889-0.775-1.546-2.757,1.041-6.012c3.221-4.053,6.268-5.608,8.856-4.52
				C61.486,23.681,61.514,24.3,60.541,26.159z"/>
			<path class="st60" d="M179.47,37.93c-1.681-0.214-3.566-0.643-4.792-1.089c-1.97-0.717-3.06-1.302-2.814-1.51
				c0.067-0.057,1.138-0.946,2.379-1.976l2.258-1.873l1.044,0.45c1.665,0.717,6.891,1.512,8.486,1.291
				c3.092-0.429,2.544-1.114-2.18-2.723c-4.105-1.398-5.611-2.46-6.13-4.321c-0.561-2.016,0.323-3.908,2.528-5.407
				c1.837-1.249,4.383-1.966,8.217-2.312c3.036-0.274,3.527-0.258,6.229,0.213c1.613,0.281,3.51,0.683,4.215,0.893
				c1.488,0.444,1.472,0.666-0.162,2.15c-1.462,1.328-2.471,1.538-7.007,1.454c-3.358-0.062-3.975-0.016-4.252,0.319
				c-0.496,0.601,0.017,0.921,2.931,1.83c6.308,1.969,8.074,3.612,7.17,6.673c-0.665,2.252-2.788,4.075-5.949,5.108
				C187.933,38.312,184.367,38.555,179.47,37.93L179.47,37.93L179.47,37.93z"/>
			<path class="st60" d="M94.032,18.695c-3.034-0.305-5.266-0.086-8.108,0.795c-3.745,1.161-5.984,2.79-11.161,8.12
				c-2.125,2.188-5.308,5.387-7.074,7.108l-3.21,3.13h4.195h4.195l1.573-1.596l1.573-1.596h4.219c3.214,0,4.218,0.073,4.216,0.307
				c-0.002,0.169-0.157,0.889-0.346,1.601l-0.343,1.294l4.424-0.067l4.424-0.067l0.312-1.35c0.171-0.743,1.145-4.924,2.163-9.292
				c1.018-4.368,1.813-7.981,1.766-8.028S95.536,18.846,94.032,18.695z M86.483,27.012l-0.669,2.735h-2.511
				c-1.381,0-2.512-0.091-2.512-0.202c0-0.649,5.891-5.741,6.237-5.392C87.096,24.221,86.851,25.508,86.483,27.012z"/>
			<path class="st60" d="M98.356,30.79c4.352-7.493,5.622-9.197,7.863-10.546c1.505-0.906,3.716-1.545,5.347-1.545h1.129
				l2.055,4.661c1.13,2.563,2.117,4.662,2.193,4.664c0.076,0.002,0.9-1.347,1.831-2.998c0.931-1.651,1.988-3.341,2.348-3.757
				c0.902-1.041,2.729-1.985,4.457-2.303c1.747-0.322,4.85-0.353,4.737-0.048c-0.045,0.12-2.499,4.425-5.453,9.566l-5.372,9.347
				l-3.793,0.008l-3.793,0.008l-2.033-4.542c-1.118-2.498-2.066-4.542-2.108-4.542c-0.041,0-1.249,2.044-2.683,4.542l-2.608,4.542
				h-4.109h-4.109L98.356,30.79z"/>
			<path class="st60" d="M129.379,37.722c0-0.076,1.654-3.011,3.675-6.523c2.021-3.512,3.736-6.545,3.811-6.742
				c0.116-0.303-0.458-0.357-3.797-0.357c-2.579,0-3.933-0.089-3.933-0.257c0-0.142,0.37-0.839,0.822-1.549
				c1.027-1.614,2.866-2.843,4.891-3.27c1.687-0.356,21.877-0.472,21.877-0.127c0,0.339-1.367,2.354-1.981,2.918
				c-1.231,1.133-3.283,1.836-6.002,2.054c-1.416,0.114-2.623,0.256-2.683,0.317c-0.06,0.06-1.842,3.131-3.96,6.824l-3.851,6.715
				l-4.434,0.067C131.375,37.829,129.379,37.797,129.379,37.722L129.379,37.722z"/>
			<path class="st60" d="M171.942,18.688c-2.467-0.226-3.308-0.207-5.188,0.119c-2.792,0.484-5.543,1.549-7.503,2.905
				c-0.827,0.572-4.943,4.436-9.147,8.588l-7.644,7.549h4.149h4.149l1.573-1.596l1.573-1.596h4.357c4.031,0,4.349,0.032,4.242,0.43
				c-0.064,0.236-0.186,0.761-0.272,1.166c-0.086,0.405-0.213,0.93-0.283,1.166c-0.117,0.398,0.195,0.43,4.239,0.43h4.366
				l2.213-9.39c1.217-5.165,2.193-9.415,2.168-9.445C174.907,18.983,173.561,18.836,171.942,18.688z M164.026,28.826l-0.239,0.921
				h-2.61h-2.61l2.192-2.222c1.912-1.938,4.21-3.809,4.419-3.599C165.239,23.987,164.809,25.816,164.026,28.826z"/>
		</g>
	</g>
</g>
<g id="Layer_4">
</g>
</svg>
