<?xml version="1.0" encoding="utf-8"?>
<!-- Generator: Adobe Illustrator 18.0.0, SVG Export Plug-In . SVG Version: 6.00 Build 0)  -->
<!DOCTYPE svg PUBLIC "-//W3C//DTD SVG 1.1//EN" "http://www.w3.org/Graphics/SVG/1.1/DTD/svg11.dtd">
<svg version="1.1" xmlns="http://www.w3.org/2000/svg" xmlns:xlink="http://www.w3.org/1999/xlink" x="0px" y="0px" width="200px"
	 height="26.137px" viewBox="0 0 200 26.137" style="enable-background:new 0 0 200 26.137;" xml:space="preserve">
<style type="text/css">
	.st0{display:none;}
	.st1{display:inline;}
	.st2{fill:#ED2D27;}
	.st3{display:inline;fill:#F8B900;}
	.st4{display:inline;fill:#00235F;}
	.st5{fill:url(#SVGID_1_);}
	.st6{fill:#006CB6;}
	.st7{fill:url(#SVGID_2_);}
	.st8{fill:url(#SVGID_3_);}
	.st9{fill:url(#SVGID_4_);}
	.st10{fill:url(#SVGID_5_);}
	.st11{fill:url(#SVGID_6_);}
	.st12{fill-rule:evenodd;clip-rule:evenodd;fill:#FFFFFF;}
	.st13{fill-rule:evenodd;clip-rule:evenodd;fill:#E2231A;}
	.st14{fill:#FFFFFF;}
	.st15{fill-rule:evenodd;clip-rule:evenodd;fill:#001689;}
	.st16{fill:#00529B;}
	.st17{fill:#F47920;}
	.st18{fill:url(#SVGID_7_);}
	.st19{fill:url(#SVGID_8_);}
	.st20{fill:url(#SVGID_9_);}
	.st21{fill:url(#SVGID_10_);}
	.st22{fill:url(#SVGID_11_);}
	.st23{fill:url(#SVGID_12_);}
	.st24{fill:url(#SVGID_13_);}
	.st25{fill:#00054C;}
	.st26{fill:url(#path3364_3_);}
	.st27{fill:url(#path3366_3_);}
	.st28{fill:#22356B;}
	.st29{fill:#FCC210;}
	.st30{fill:#ED1C24;}
	.st31{display:inline;fill:url(#SVGID_14_);}
	.st32{fill:#002157;}
	.st33{fill:#CC2234;}
	.st34{fill:#E23546;}
	.st35{fill:#FCB130;}
	.st36{fill:#1D4886;}
	.st37{display:inline;fill:none;}
	.st38{display:inline;fill:#005DAA;}
	.st39{fill:#005DAA;}
	.st40{fill:#00A1E4;}
	.st41{fill:#00704A;}
	.st42{fill:#B10D28;}
	.st43{fill:#D31245;}
	.st44{fill:url(#path70_3_);}
	.st45{fill:url(#SVGID_15_);}
	.st46{fill:url(#SVGID_16_);}
	.st47{fill:#231916;}
	.st48{fill:#E60013;}
	.st49{fill:#C0231E;}
	.st50{fill:#014E84;}
	.st51{fill:#BA783E;}
	.st52{fill:#002052;}
	.st53{fill:#0093D0;}
	.st54{fill:#ED1B2F;}
	.st55{fill:#E3242B;}
	.st56{fill-rule:evenodd;clip-rule:evenodd;fill:#034EA2;}
	.st57{fill-rule:evenodd;clip-rule:evenodd;fill:#E11837;}
	.st58{fill:#034EA2;}
	.st59{opacity:0.8902;fill:#EB151C;}
	.st60{fill:#1A1A1A;}
	.st61{enable-background:new    ;}
	.st62{fill:#FF6600;}
	.st63{clip-path:url(#SVGID_18_);fill:url(#SVGID_19_);}
	.st64{fill:url(#SVGID_20_);}
	.st65{fill:#B2DB1F;}
	.st66{fill:#FA002C;}
	.st67{fill:#1C2D5B;}
	.st68{fill:#1C4E9D;}
	.st69{fill:#ED192D;}
	.st70{display:inline;fill:#FFFFFF;}
	.st71{display:inline;fill:#00529B;}
	.st72{display:inline;fill:#F47920;}
	.st73{display:inline;fill:url(#SVGID_21_);}
	.st74{display:inline;fill:url(#SVGID_22_);}
	.st75{display:inline;fill:url(#SVGID_23_);}
	.st76{display:inline;fill:url(#SVGID_24_);}
	.st77{display:inline;fill:url(#SVGID_25_);}
	.st78{display:inline;fill:url(#SVGID_26_);}
	.st79{display:inline;fill:url(#SVGID_27_);}
	.st80{display:inline;fill:url(#path3364_4_);}
	.st81{display:inline;fill:url(#path3366_4_);}
	.st82{display:inline;fill:url(#SVGID_28_);}
	.st83{display:inline;fill:url(#SVGID_29_);}
	.st84{display:inline;fill:url(#SVGID_30_);}
	.st85{display:inline;opacity:0.75;fill:#FFFFFF;}
	.st86{display:inline;fill:#ED1B2F;}
	.st87{opacity:0.8902;fill:#FFFFFF;}
	.st88{clip-path:url(#SVGID_32_);fill:#FFFFFF;}
	.st89{fill:url(#SVGID_33_);}
	.st90{fill:url(#SVGID_34_);}
	.st91{fill:url(#SVGID_35_);}
	.st92{fill:url(#SVGID_36_);}
	.st93{fill:url(#SVGID_37_);}
	.st94{fill:url(#SVGID_38_);}
	.st95{fill:url(#SVGID_39_);}
	.st96{fill:url(#SVGID_40_);}
	.st97{clip-path:url(#SVGID_42_);fill:url(#SVGID_43_);}
	.st98{fill:url(#SVGID_44_);}
	.st99{fill:url(#path70_5_);}
	.st100{fill:url(#SVGID_45_);}
	.st101{fill:url(#SVGID_46_);}
	.st102{fill:#F8B900;}
	.st103{fill:#00235F;}
	.st104{fill:url(#SVGID_47_);}
	.st105{fill:url(#SVGID_48_);}
	.st106{fill:url(#SVGID_49_);}
	.st107{fill:url(#SVGID_50_);}
	.st108{fill:url(#SVGID_51_);}
	.st109{fill:url(#SVGID_52_);}
	.st110{opacity:0.8902;fill:#EB151C;enable-background:new    ;}
	.st111{fill:#E11837;}
	.st112{fill:#E2231A;}
	.st113{fill:#001689;}
	.st114{fill:#EF3E34;}
	.st115{fill:#4D82C4;}
	.st116{fill:#8C7035;}
	.st117{fill:#5FBA45;}
	.st118{fill:#008F7E;}
	.st119{fill:#004595;}
	.st120{fill:#FFED00;}
	.st121{fill:#E53138;}
	.st122{fill:url(#SVGID_53_);}
	.st123{fill:url(#SVGID_54_);}
	.st124{fill:url(#SVGID_55_);}
	.st125{fill:url(#SVGID_56_);}
	.st126{fill:#11185E;}
	.st127{fill:#EE3024;}
	.st128{fill:#0675CC;}
	.st129{fill:#E2001A;}
	.st130{fill:#009036;}
	.st131{fill:#0B1560;}
	.st132{fill:#0070AF;}
	.st133{fill:#0F2C64;}
	.st134{fill:#EF001E;}
	.st135{fill:#1C2A8D;}
	.st136{fill:#334357;}
	.st137{fill:url(#SVGID_57_);}
	.st138{fill:#ED1B28;}
	.st139{fill:#1E5AAF;}
	.st140{fill:#991933;}
	.st141{fill:#E01933;}
	.st142{fill:#003366;}
	.st143{fill:#00265D;}
	.st144{fill:#003263;}
	.st145{fill:#EE452A;}
	.st146{fill:#011F65;}
	.st147{fill:#EC2227;}
	.st148{fill:#010101;}
	.st149{fill:#FCEE21;}
	.st150{fill:#18488B;}
	.st151{fill:#EC2427;}
	.st152{fill:#D09B2B;}
	.st153{fill:#156192;}
	.st154{fill:#021A31;}
	.st155{fill:#008E8F;}
	.st156{fill:#2B438F;}
	.st157{fill:#363F9E;}
	.st158{fill:#00ABBF;}
</style>
<g id="Layer_1" class="st0">
</g>
<g id="Layer_2" class="st0">
</g>
<g id="Layer_3">
	<g>
		<g id="g3_4_" transform="matrix(0.310512, 0, 0, 0.310512, -7.87606e-06, 0)">
			<path id="path5_4_" class="st55" d="M602.67,59.899c0-2.903,1.583-3.167,4.22-1.848c4.752,2.637,9.502,5.541,9.502,5.541
				c0.261-1.586,1.581-2.903,4.484-2.376c2.637,0.79,5.54,1.319,5.54,1.319s-1.582-3.43-2.112-5.013
				c-1.316-3.167-0.262-4.484,1.056-4.749c0,0-1.846-1.32-2.902-2.111c-2.638-1.846-2.111-3.694,0.53-4.751
				c3.428-1.316,7.652-3.166,7.652-3.166c-1.32-0.792-2.903-3.167-1.32-5.806c1.847-2.375,4.487-6.068,4.487-6.068s-4.749,0-7.65,0
				c-2.903,0-3.698-2.111-3.433-3.694c0,0-4.75,3.166-7.916,5.277c-2.638,1.846-5.276,0-4.75-3.168
				c0.529-4.749,1.056-10.289,1.056-10.289c-1.582,1.054-4.484,1.054-5.805-1.584c-1.846-4.221-3.958-8.972-3.958-8.972
				s-2.373,4.751-4.224,8.972c-1.317,2.638-4.22,2.638-5.805,1.584c0,0,0.53,5.54,1.321,10.289c0.264,3.168-2.112,5.014-4.749,3.168
				c-3.428-2.111-7.917-5.277-7.917-5.277c0,1.582-0.79,3.694-3.428,3.694c-3.168,0-7.652,0-7.652,0s2.637,3.694,4.22,6.068
				c1.847,2.639,0.264,5.014-1.056,5.806c0,0,4.223,1.849,7.651,3.166c2.376,1.057,3.168,2.904,0.529,4.751
				c-1.32,0.79-3.167,2.111-3.167,2.111c1.32,0.265,2.638,1.582,1.32,4.749c-0.791,1.583-2.376,5.013-2.376,5.013
				s2.902-0.529,5.805-1.319c2.641-0.527,3.958,0.79,4.223,2.376c0,0,5.013-2.903,9.763-5.541c2.637-1.319,3.958-1.056,3.958,1.848
				c0,2.107,0,6.596,0,6.596c0,3.958-0.53,7.917-2.111,10.289c-18.207-1.847-33.513-16.624-33.513-35.886
				c0-20.053,16.624-36.149,37.207-36.149c20.317,0,36.941,16.096,36.941,36.149c0,18.47-14.249,33.775-32.984,35.621
				c0,0.794,0,3.958,0,5.013c21.899-2.111,38.789-19.526,38.789-40.634C644.096,18.206,625.099,0,601.35,0
				c-23.747,0-43.012,18.206-43.012,40.898c0,19.791,15.042,36.415,34.568,40.108c3.429,0.526,5.54,1.056,7.387,3.169
				c2.112-3.959,2.376-11.876,2.376-16.625C602.669,67.55,602.67,62.006,602.67,59.899L602.67,59.899L602.67,59.899z"/>
			<path id="path7_4_" class="st55" d="M105.546,38.788h4.223c11.873,0,14.248-1.848,14.248-7.653c0-5.54-5.277-6.331-12.929-6.331
				h-5.541L105.546,38.788L105.546,38.788z M95.783,62.535V18.999h21.373c11.347,0,16.361,4.749,16.889,10.817
				c0,2.902-0.528,5.541-2.377,7.653c-2.109,2.375-2.903,3.165-6.596,4.749l16.096,20.316h-11.874l-14.248-17.94h-9.5v17.94
				L95.783,62.535L95.783,62.535z"/>
			<path id="path9_4_" class="st55" d="M15.304,45.122h15.04L22.693,27.97L15.304,45.122L15.304,45.122z M0,62.802l19.262-43.803
				h11.61l18.736,43.803h-11.61l-5.279-11.876H12.666L7.389,62.802H0L0,62.802z"/>
			<polygon id="polygon11_4_" class="st55" points="63.327,62.535 63.327,62.535 73.618,62.535 73.618,18.999 63.327,18.999 			"/>
			<path id="path13_4_" class="st55" d="M214.524,61.216c-5.014,1.846-11.084,2.903-18.208,2.903
				c-8.707,0-15.303-2.113-20.052-6.331c-5.015-3.958-7.389-9.764-7.389-16.889c0-7.387,2.638-13.192,7.389-17.15
				c5.012-3.958,11.872-6.07,20.845-6.07c5.805,0,11.61,0.528,17.15,1.847v7.125c-6.334-1.847-12.401-2.903-16.624-2.903
				c-5.805,0-10.026,1.582-12.929,4.484c-3.165,2.903-4.749,7.126-4.749,12.403c0,5.277,1.584,9.501,5.013,12.403
				c3.166,3.164,7.651,4.484,13.457,4.484c5.013,0.265,11.083-1.056,16.097-3.167L214.524,61.216L214.524,61.216z"/>
			<path id="path15_4_" class="st55" d="M241.965,45.122h15.04l-7.389-17.152L241.965,45.122L241.965,45.122z M226.924,62.802
				l18.999-43.803h11.61l18.999,43.803h-11.875l-5.012-11.876H239.59l-5.277,11.876L226.924,62.802L226.924,62.802z"/>
			<path id="path17_4_" class="st55" d="M368.094,45.122h15.039l-7.387-17.152L368.094,45.122L368.094,45.122z M353.052,62.802
				l18.997-43.803h11.61l19.001,43.803h-11.876l-5.013-11.876h-20.053l-5.278,11.876L353.052,62.802L353.052,62.802L353.052,62.802z
				"/>
			<path id="path19_4_" class="st55" d="M487.887,45.122h15.043l-7.39-17.152L487.887,45.122L487.887,45.122z M472.849,62.802
				l18.996-43.803h11.61l18.996,43.803h-11.872l-5.015-11.876H485.25l-5.014,11.876L472.849,62.802L472.849,62.802L472.849,62.802z"
				/>
			<polygon id="polygon21_4_" class="st55" points="330.097,18.999 338.54,18.999 338.54,62.535 327.721,62.535 299.487,30.081 
				299.487,62.802 291.044,62.802 291.044,62.802 291.044,18.999 302.917,18.999 330.097,50.135 			"/>
			<path id="path23_4_" class="st55" d="M427.2,56.466h7.652c5.276,0,9.234-1.319,11.874-3.957
				c2.637-2.638,3.954-6.597,3.954-11.874c0-4.221-1.056-7.651-3.164-10.554c-1.32-1.849-3.167-3.168-5.279-3.958
				c-1.846-0.792-5.014-1.056-8.708-1.056h-6.33L427.2,56.466L427.2,56.466L427.2,56.466z M416.908,62.535V18.999h21.373
				c7.389,0,13.196,1.846,17.15,5.54c4.224,3.43,6.07,8.708,6.07,15.568c0,7.125-2.112,12.665-6.33,16.625
				c-4.224,3.956-10.293,6.07-17.945,5.803L416.908,62.535L416.908,62.535L416.908,62.535z"/>
		</g>
	</g>
</g>
<g id="Layer_4">
</g>
</svg>
