<?xml version="1.0" encoding="utf-8"?>
<!-- Generator: Adobe Illustrator 18.0.0, SVG Export Plug-In . SVG Version: 6.00 Build 0)  -->
<!DOCTYPE svg PUBLIC "-//W3C//DTD SVG 1.1//EN" "http://www.w3.org/Graphics/SVG/1.1/DTD/svg11.dtd">
<svg version="1.1" xmlns="http://www.w3.org/2000/svg" xmlns:xlink="http://www.w3.org/1999/xlink" x="0px" y="0px"
	 width="64.294px" height="50px" viewBox="0 0 64.294 50" style="enable-background:new 0 0 64.294 50;" xml:space="preserve">
<style type="text/css">
	.st0{display:none;}
	.st1{display:inline;}
	.st2{fill:#ED2D27;}
	.st3{display:inline;fill:#F8B900;}
	.st4{display:inline;fill:#00235F;}
	.st5{fill:url(#SVGID_1_);}
	.st6{fill:#006CB6;}
	.st7{fill:url(#SVGID_2_);}
	.st8{fill:url(#SVGID_3_);}
	.st9{fill:url(#SVGID_4_);}
	.st10{fill:url(#SVGID_5_);}
	.st11{fill:url(#SVGID_6_);}
	.st12{fill-rule:evenodd;clip-rule:evenodd;fill:#FFFFFF;}
	.st13{fill-rule:evenodd;clip-rule:evenodd;fill:#E2231A;}
	.st14{fill:#FFFFFF;}
	.st15{fill-rule:evenodd;clip-rule:evenodd;fill:#001689;}
	.st16{fill:#00529B;}
	.st17{fill:#F47920;}
	.st18{fill:url(#SVGID_7_);}
	.st19{fill:url(#SVGID_8_);}
	.st20{fill:url(#SVGID_9_);}
	.st21{fill:url(#SVGID_10_);}
	.st22{fill:url(#SVGID_11_);}
	.st23{fill:url(#SVGID_12_);}
	.st24{fill:url(#SVGID_13_);}
	.st25{fill:#00054C;}
	.st26{fill:url(#path3364_3_);}
	.st27{fill:url(#path3366_3_);}
	.st28{fill:#22356B;}
	.st29{fill:#FCC210;}
	.st30{fill:#ED1C24;}
	.st31{display:inline;fill:url(#SVGID_14_);}
	.st32{fill:#002157;}
	.st33{fill:#CC2234;}
	.st34{fill:#E23546;}
	.st35{fill:#FCB130;}
	.st36{fill:#1D4886;}
	.st37{display:inline;fill:none;}
	.st38{display:inline;fill:#005DAA;}
	.st39{fill:#005DAA;}
	.st40{fill:#00A1E4;}
	.st41{fill:#00704A;}
	.st42{fill:#B10D28;}
	.st43{fill:#D31245;}
	.st44{fill:url(#path70_3_);}
	.st45{fill:url(#SVGID_15_);}
	.st46{fill:url(#SVGID_16_);}
	.st47{fill:#231916;}
	.st48{fill:#E60013;}
	.st49{fill:#C0231E;}
	.st50{fill:#014E84;}
	.st51{fill:#BA783E;}
	.st52{fill:#002052;}
	.st53{fill:#0093D0;}
	.st54{fill:#ED1B2F;}
	.st55{fill:#E3242B;}
	.st56{fill-rule:evenodd;clip-rule:evenodd;fill:#034EA2;}
	.st57{fill-rule:evenodd;clip-rule:evenodd;fill:#E11837;}
	.st58{fill:#034EA2;}
	.st59{opacity:0.8902;fill:#EB151C;}
	.st60{fill:#1A1A1A;}
	.st61{enable-background:new    ;}
	.st62{fill:#FF6600;}
	.st63{clip-path:url(#SVGID_18_);fill:url(#SVGID_19_);}
	.st64{fill:url(#SVGID_20_);}
	.st65{fill:#B2DB1F;}
	.st66{fill:#FA002C;}
	.st67{fill:#1C2D5B;}
	.st68{fill:#1C4E9D;}
	.st69{fill:#ED192D;}
	.st70{display:inline;fill:#FFFFFF;}
	.st71{display:inline;fill:#00529B;}
	.st72{display:inline;fill:#F47920;}
	.st73{display:inline;fill:url(#SVGID_21_);}
	.st74{display:inline;fill:url(#SVGID_22_);}
	.st75{display:inline;fill:url(#SVGID_23_);}
	.st76{display:inline;fill:url(#SVGID_24_);}
	.st77{display:inline;fill:url(#SVGID_25_);}
	.st78{display:inline;fill:url(#SVGID_26_);}
	.st79{display:inline;fill:url(#SVGID_27_);}
	.st80{display:inline;fill:url(#path3364_4_);}
	.st81{display:inline;fill:url(#path3366_4_);}
	.st82{display:inline;fill:url(#SVGID_28_);}
	.st83{display:inline;fill:url(#SVGID_29_);}
	.st84{display:inline;fill:url(#SVGID_30_);}
	.st85{display:inline;opacity:0.75;fill:#FFFFFF;}
	.st86{display:inline;fill:#ED1B2F;}
	.st87{opacity:0.8902;fill:#FFFFFF;}
	.st88{clip-path:url(#SVGID_32_);fill:#FFFFFF;}
	.st89{fill:url(#SVGID_33_);}
	.st90{fill:url(#SVGID_34_);}
	.st91{fill:url(#SVGID_35_);}
	.st92{fill:url(#SVGID_36_);}
	.st93{fill:url(#SVGID_37_);}
	.st94{fill:url(#SVGID_38_);}
	.st95{fill:url(#SVGID_39_);}
	.st96{fill:url(#SVGID_40_);}
	.st97{clip-path:url(#SVGID_42_);fill:url(#SVGID_43_);}
	.st98{fill:url(#SVGID_44_);}
	.st99{fill:url(#path70_5_);}
	.st100{fill:url(#SVGID_45_);}
	.st101{fill:url(#SVGID_46_);}
	.st102{fill:#F8B900;}
	.st103{fill:#00235F;}
	.st104{fill:url(#SVGID_47_);}
	.st105{fill:url(#SVGID_48_);}
	.st106{fill:url(#SVGID_49_);}
	.st107{fill:url(#SVGID_50_);}
	.st108{fill:url(#SVGID_51_);}
	.st109{fill:url(#SVGID_52_);}
	.st110{opacity:0.8902;fill:#EB151C;enable-background:new    ;}
	.st111{fill:#E11837;}
	.st112{fill:#E2231A;}
	.st113{fill:#001689;}
	.st114{fill:#EF3E34;}
	.st115{fill:#4D82C4;}
	.st116{fill:#8C7035;}
	.st117{fill:#5FBA45;}
	.st118{fill:#008F7E;}
	.st119{fill:#004595;}
	.st120{fill:#FFED00;}
	.st121{fill:#E53138;}
	.st122{fill:url(#SVGID_53_);}
	.st123{fill:url(#SVGID_54_);}
	.st124{fill:url(#SVGID_55_);}
	.st125{fill:url(#SVGID_56_);}
	.st126{fill:#11185E;}
	.st127{fill:#EE3024;}
	.st128{fill:#0675CC;}
	.st129{fill:#E2001A;}
	.st130{fill:#009036;}
	.st131{fill:#0B1560;}
	.st132{fill:#0070AF;}
	.st133{fill:#0F2C64;}
	.st134{fill:#EF001E;}
	.st135{fill:#1C2A8D;}
	.st136{fill:#334357;}
	.st137{fill:url(#SVGID_57_);}
	.st138{fill:#ED1B28;}
	.st139{fill:#1E5AAF;}
	.st140{fill:#991933;}
	.st141{fill:#E01933;}
	.st142{fill:#003366;}
	.st143{fill:#00265D;}
	.st144{fill:#003263;}
	.st145{fill:#EE452A;}
	.st146{fill:#011F65;}
	.st147{fill:#EC2227;}
	.st148{fill:#010101;}
	.st149{fill:#FCEE21;}
	.st150{fill:#18488B;}
	.st151{fill:#EC2427;}
	.st152{fill:#D09B2B;}
	.st153{fill:#156192;}
	.st154{fill:#021A31;}
	.st155{fill:#008E8F;}
	.st156{fill:#2B438F;}
	.st157{fill:#363F9E;}
	.st158{fill:#00ABBF;}
</style>
<g id="Layer_1" class="st0">
</g>
<g id="Layer_2" class="st0">
</g>
<g id="Layer_3">
	<path class="st127" d="M13.75,49.684c-0.08-0.486-0.074-0.496,0.265-0.551c0.447-0.071,0.773-0.455,0.651-0.769
		c-0.047-0.122-0.354-0.957-0.683-1.855c-0.329-0.898-0.623-1.697-0.656-1.776c-0.052-0.129,0.004-0.144,0.549-0.144h0.608
		l0.401,1.257l0.401,1.257l0.18-0.664c0.098-0.366,0.267-0.921,0.374-1.236l0.196-0.571l0.594-0.025
		c0.462-0.018,0.587,0,0.557,0.082c-0.021,0.058-0.359,1.069-0.751,2.246c-0.391,1.177-0.791,2.257-0.89,2.402
		c-0.302,0.444-0.557,0.579-1.179,0.624L13.803,50L13.75,49.684z M10.266,48.332C9.482,48.109,9.09,47.468,9.1,46.427
		c0.013-1.392,0.656-1.979,2.089-1.907c1.144,0.058,1.654,0.661,1.646,1.948c-0.006,0.747-0.116,1.07-0.512,1.492
		C11.95,48.359,10.978,48.534,10.266,48.332z M11.284,47.479c0.359-0.138,0.532-1.186,0.283-1.706
		c-0.144-0.298-0.481-0.473-0.773-0.399c-0.342,0.085-0.526,0.475-0.526,1.108c-0.002,0.468,0.03,0.58,0.21,0.796
		C10.688,47.528,10.972,47.599,11.284,47.479z M18.352,48.249c-0.554-0.285-0.774-0.78-0.776-1.74c0-0.791,0.139-1.189,0.545-1.569
		c0.452-0.422,1.402-0.553,2.464-0.339l0.463,0.093v1.826v1.826h-0.531c-0.481,0-0.53-0.015-0.53-0.169
		c0-0.167-0.002-0.167-0.256,0.013C19.352,48.459,18.806,48.483,18.352,48.249z M19.917,47.399c0.037-0.023,0.069-0.481,0.069-1.018
		v-0.975h-0.393c-0.28,0-0.444,0.047-0.569,0.163c-0.412,0.385-0.439,1.383-0.047,1.775c0.175,0.175,0.25,0.196,0.537,0.15
		C19.698,47.466,19.879,47.423,19.917,47.399z M22.298,48.231l-0.229-0.197l-0.024-2.416l-0.024-2.416h0.535h0.534v2.125v2.126
		l0.204,0.077c0.175,0.067,0.205,0.129,0.205,0.438c0,0.304-0.029,0.368-0.184,0.409C22.912,48.485,22.529,48.429,22.298,48.231z
		 M26.601,48.249c-0.557-0.286-0.777-0.781-0.774-1.74c0.003-0.792,0.143-1.196,0.542-1.569c0.452-0.422,1.402-0.553,2.464-0.339
		l0.463,0.093v1.826v1.826h-0.531c-0.482,0-0.53-0.015-0.53-0.169c0-0.167-0.002-0.167-0.256,0.013
		C27.602,48.459,27.055,48.483,26.601,48.249z M28.166,47.399c0.039-0.023,0.07-0.481,0.07-1.018v-0.975h-0.393
		c-0.281,0-0.444,0.047-0.569,0.163c-0.399,0.372-0.423,1.399-0.042,1.78c0.17,0.169,0.248,0.191,0.533,0.145
		C27.947,47.466,28.128,47.423,28.166,47.399z M44.444,48.318c-0.327-0.148-0.663-0.555-0.779-0.942
		c-0.05-0.17-0.079-0.619-0.063-0.997c0.035-0.831,0.216-1.232,0.715-1.584c0.295-0.208,0.436-0.248,0.97-0.275
		c0.344-0.017,0.875,0.013,1.179,0.067l0.554,0.099v1.83v1.83h-0.53c-0.479,0-0.531-0.016-0.531-0.165
		c0-0.164-0.003-0.164-0.24,0.011C45.421,48.412,44.788,48.474,44.444,48.318z M45.896,47.395c0.034-0.021,0.063-0.477,0.063-1.013
		v-0.975h-0.363c-0.265,0-0.425,0.052-0.591,0.195c-0.204,0.176-0.23,0.258-0.259,0.814c-0.03,0.603-0.024,0.626,0.225,0.875
		c0.227,0.227,0.291,0.25,0.56,0.2C45.698,47.459,45.863,47.416,45.896,47.395z M51.85,48.306c-0.753-0.235-1.1-0.811-1.107-1.838
		c-0.01-1.287,0.5-1.891,1.646-1.948c0.771-0.039,1.245,0.095,1.601,0.451c0.334,0.334,0.503,0.855,0.496,1.538
		c-0.006,0.615-0.145,1.039-0.458,1.394C53.612,48.377,52.649,48.555,51.85,48.306z M53.097,47.278
		c0.182-0.216,0.212-0.329,0.212-0.796c-0.001-0.671-0.186-1.032-0.576-1.118c-0.699-0.154-1.122,0.992-0.683,1.852
		c0.128,0.25,0.219,0.298,0.578,0.307C52.821,47.528,52.94,47.466,53.097,47.278z M56.123,48.225
		c-0.639-0.32-0.935-0.879-0.935-1.756c0.001-0.887,0.305-1.495,0.9-1.798c0.441-0.225,1.292-0.223,1.761,0.004l0.345,0.166
		l-0.089,0.303c-0.049,0.167-0.097,0.316-0.108,0.332c-0.01,0.015-0.217-0.017-0.46-0.071c-0.375-0.084-0.477-0.079-0.689,0.03
		c-0.639,0.331-0.685,1.576-0.071,1.978c0.204,0.133,0.311,0.136,1.056,0.02c0.114-0.017,0.182,0.057,0.262,0.283
		c0.103,0.29,0.098,0.314-0.082,0.432C57.493,48.485,56.708,48.519,56.123,48.225z M6.51,46.468V44.59h0.489
		c0.447,0,0.49,0.016,0.49,0.175c0,0.168,0.008,0.166,0.215-0.041C7.871,44.557,8,44.508,8.276,44.508h0.357v0.317
		c0,0.174-0.023,0.431-0.052,0.571c-0.043,0.217-0.087,0.256-0.289,0.256c-0.132,0-0.347,0.056-0.481,0.124l-0.24,0.124v1.223v1.222
		H7.04H6.51V46.468z M30.44,46.468V44.59h0.531h0.532v1.879v1.878h-0.532H30.44V46.468z M32.645,46.468V44.59h0.49
		c0.392,0,0.49,0.026,0.49,0.129c0,0.106,0.037,0.099,0.216-0.041c0.145-0.114,0.334-0.17,0.582-0.17h0.367l-0.05,0.307
		c-0.028,0.168-0.051,0.425-0.052,0.571c-0.002,0.237-0.026,0.266-0.234,0.266c-0.128,0-0.348,0.04-0.49,0.089l-0.257,0.09v1.258
		v1.257h-0.531h-0.532V46.468z M37.219,46.468V44.59h0.531c0.473,0,0.53,0.017,0.53,0.161c0,0.153,0.016,0.151,0.298-0.041
		c0.43-0.291,1.14-0.287,1.493,0.01c0.139,0.116,0.252,0.268,0.252,0.337c0,0.085,0.055,0.055,0.17-0.09
		c0.251-0.319,0.581-0.459,1.085-0.459c0.361,0,0.495,0.041,0.696,0.21c0.354,0.298,0.417,0.629,0.417,2.22l0.001,1.409H42.16h-0.53
		v-1.247c0-1.423-0.06-1.612-0.515-1.61c-0.144,0.001-0.344,0.023-0.445,0.05c-0.181,0.049-0.184,0.067-0.184,1.429v1.378h-0.53
		h-0.532l-0.001-1.204c-0.002-1.59-0.094-1.761-0.867-1.616l-0.275,0.052v1.385v1.384h-0.53h-0.531V46.468z M48.164,46.468V44.59
		h0.49c0.431,0,0.49,0.02,0.49,0.159c0,0.148,0.015,0.145,0.215-0.041c0.161-0.149,0.308-0.2,0.572-0.2h0.355v0.317
		c0,0.174-0.023,0.431-0.051,0.571c-0.043,0.217-0.088,0.256-0.29,0.256c-0.131,0-0.347,0.056-0.48,0.124l-0.241,0.124v1.223v1.222
		h-0.531h-0.53V46.468z M30.486,43.972c-0.07-0.07-0.128-0.215-0.128-0.321c0-0.291,0.212-0.449,0.602-0.449
		c0.411,0,0.542,0.108,0.542,0.449c0,0.139-0.045,0.297-0.099,0.351C31.261,44.145,30.64,44.125,30.486,43.972z M2.671,42.491
		c-0.181-0.065-0.326-0.278-0.326-0.477c0-0.247,0.251-0.446,0.563-0.446c0.414,0,0.58,0.127,0.58,0.447
		C3.487,42.426,3.107,42.647,2.671,42.491z M5.693,42.491c-0.181-0.065-0.326-0.278-0.326-0.477c0-0.247,0.251-0.446,0.563-0.446
		c0.414,0,0.581,0.127,0.581,0.447C6.51,42.426,6.129,42.647,5.693,42.491z M7.203,42.459c-0.22-0.127-0.367-0.321-0.367-0.486
		c0-0.109,0.112-0.145,0.571-0.184c0.314-0.026,0.672-0.097,0.796-0.156c0.215-0.103,0.226-0.137,0.246-0.76
		c0.015-0.455-0.037-0.906-0.17-1.491c-0.211-0.927-0.211-0.928,0.312-1.072c0.588-0.162,0.574-0.176,0.743,0.787
		c0.204,1.161,0.307,1.276,1.096,1.231c0.31-0.017,0.586-0.056,0.616-0.085c0.03-0.029-0.042-0.179-0.16-0.333
		c-0.218-0.286-0.943-1.816-0.945-1.996c0-0.055,0.144-0.174,0.323-0.265c0.278-0.141,0.48-0.165,1.432-0.165
		c1.484,0,1.838,0.153,1.838,0.795c0,0.32-0.347,0.99-0.747,1.444l-0.33,0.376l0.291,0.122c0.16,0.067,0.456,0.122,0.659,0.122
		c0.417,0,0.487-0.08,0.558-0.638c0.058-0.447,0.332-0.856,0.774-1.153c0.468-0.313,0.829-0.37,1.362-0.215
		c0.567,0.165,1.027,0.643,1.027,1.069c0,0.444,0.199,0.84,0.452,0.903c0.146,0.037,0.243,0.017,0.291-0.058
		c0.039-0.062,0.072-1.055,0.072-2.208l0.002-2.094l0.256-0.09c0.142-0.049,0.39-0.09,0.551-0.09h0.295l-0.027,2.182
		c-0.03,2.414-0.064,2.601-0.519,2.88c-0.414,0.252-1.41,0.235-1.802-0.03l-0.289-0.195l-0.173,0.173
		c-0.227,0.226-1.244,0.299-1.61,0.114c-0.199-0.101-0.275-0.102-0.481-0.012c-0.376,0.165-1.593,0.144-2.063-0.034
		c-0.375-0.142-0.401-0.142-0.714-0.002c-0.243,0.109-0.539,0.147-1.155,0.148c-0.79,0.002-0.83,0.011-0.873,0.186
		c-0.08,0.315-0.544,0.871-0.905,1.083C8.031,42.5,7.438,42.594,7.203,42.459z M16.081,40.288c0.093-0.051-0.025-0.868-0.155-1.075
		c-0.102-0.164-0.656-0.478-0.716-0.406c-0.352,0.423-0.213,1.361,0.226,1.533C15.596,40.403,15.925,40.376,16.081,40.288z
		 M12.225,39.366c0.22-0.431,0.223-1.028,0.007-1.144c-0.145-0.078-0.986-0.124-0.986-0.054c0,0.159,0.7,1.521,0.781,1.521
		C12.046,39.69,12.134,39.545,12.225,39.366z M25.822,42.348c-0.243-0.244-0.253-0.401-0.037-0.616
		c0.326-0.326,1.064-0.113,1.061,0.306c-0.002,0.189-0.083,0.303-0.299,0.417C26.268,42.6,26.041,42.566,25.822,42.348z
		 M50.887,42.434c-0.219-0.099-0.433-0.409-0.342-0.496c0.015-0.015,0.338-0.065,0.718-0.11c0.751-0.09,0.903-0.191,0.903-0.602
		v-0.229h-0.634c-0.714-0.001-1.071-0.155-1.272-0.548c-0.318-0.621-0.238-1.118,0.253-1.597c0.319-0.31,0.924-0.627,1.203-0.63
		c0.367-0.004,0.83,0.196,1.111,0.476c0.299,0.3,0.482,0.831,0.482,1.404c0,0.213,0.029,0.241,0.242,0.241
		c0.156,0,0.273-0.056,0.326-0.158c0.052-0.097,0.085-0.948,0.085-2.2c0-1.308,0.03-2.061,0.084-2.094
		c0.046-0.029,0.285-0.073,0.531-0.098l0.446-0.046v1.898v1.898l0.461-0.421c0.763-0.697,1.471-0.982,2.054-0.826
		c0.597,0.161,1.019,0.643,1.291,1.472c0.171,0.522,0.286,0.574,1.269,0.574h0.736l-0.159-0.224
		c-0.087-0.124-0.294-0.537-0.461-0.919c-0.167-0.382-0.36-0.758-0.43-0.835c-0.119-0.133-0.139-0.132-0.353,0.02
		c-0.125,0.088-0.26,0.161-0.302,0.161c-0.134,0-0.344-0.288-0.394-0.542c-0.047-0.228-0.029-0.251,0.273-0.342
		c0.458-0.137,1.047-0.12,1.386,0.041c0.167,0.079,0.387,0.292,0.523,0.508c0.243,0.381,0.448,0.555,0.546,0.458
		c0.03-0.03,0.073-0.666,0.096-1.413l0.041-1.358l0.204-0.057c0.112-0.031,0.351-0.06,0.53-0.065l0.328-0.008l-0.042,1.45
		c-0.027,0.938-0.076,1.512-0.143,1.627c-0.129,0.227-0.485,0.476-0.779,0.548l-0.228,0.055l0.147,0.251
		c0.186,0.32,0.487,0.559,0.776,0.618c0.265,0.053,0.297,0.247,0.083,0.51c-0.141,0.174-0.171,0.176-2.021,0.139
		c-1.034-0.021-1.933-0.038-2-0.037c-0.068,0.001-1.287,0.017-2.711,0.037l-2.588,0.035l-0.168,0.348
		c-0.194,0.4-0.588,0.829-0.919,1C51.725,42.53,51.183,42.568,50.887,42.434z M52.196,39.996c-0.079-0.517-0.311-0.917-0.617-1.065
		c-0.326-0.158-0.377-0.1-0.449,0.509c-0.044,0.372-0.029,0.424,0.201,0.654c0.197,0.197,0.32,0.249,0.584,0.249h0.334
		L52.196,39.996z M57.795,40.267c0.18-0.114-0.282-0.98-0.628-1.177c-0.266-0.151-0.27-0.151-0.695,0.058
		c-0.235,0.115-0.665,0.43-0.957,0.698l-0.531,0.49l1.348,0.002C57.072,40.339,57.73,40.307,57.795,40.267z M3.997,42.298
		c-0.29-0.114-0.399-0.434-0.234-0.686c0.112-0.171,0.2-0.208,0.497-0.208c0.374,0,0.615,0.194,0.615,0.496
		C4.876,42.193,4.345,42.434,3.997,42.298z M27.378,42.325c-0.273-0.066-0.368-0.192-0.368-0.479c0-0.316,0.168-0.442,0.595-0.442
		c0.312,0,0.549,0.203,0.549,0.471c0,0.171-0.195,0.428-0.326,0.428c-0.038,0-0.119,0.014-0.178,0.031
		C27.589,42.352,27.468,42.347,27.378,42.325z M19.559,38.595l0.023-2.647l0.255-0.089c0.141-0.049,0.388-0.089,0.552-0.089h0.298
		l-0.029,2.307c-0.017,1.372-0.064,2.399-0.116,2.534c-0.119,0.308-0.522,0.631-0.787,0.631h-0.218L19.559,38.595z M41.452,38.608
		c0.014-1.448,0.056-2.664,0.092-2.702c0.038-0.037,0.283-0.087,0.546-0.112l0.48-0.044l-0.021,2.194
		c-0.012,1.207-0.041,2.314-0.065,2.461c-0.06,0.353-0.542,0.836-0.837,0.836h-0.222L41.452,38.608z M63.177,38.608
		c0.015-1.448,0.055-2.664,0.093-2.702c0.036-0.037,0.282-0.087,0.545-0.112l0.479-0.044l-0.02,2.194
		c-0.011,1.207-0.039,2.314-0.066,2.461c-0.059,0.353-0.541,0.836-0.836,0.836h-0.222L63.177,38.608z M0.516,40.826
		c-0.267-0.21-0.423-0.504-0.494-0.933c-0.048-0.291-0.028-0.353,0.174-0.539c0.324-0.298,0.737-0.531,1.34-0.758l0.522-0.196
		l0.025-0.368c0.024-0.36,0.031-0.369,0.383-0.458c0.736-0.186,0.688-0.275,0.713,1.318l0.023,1.409l0.429,0.025
		c0.398,0.023,0.435,0.009,0.511-0.19c0.044-0.117,0.081-0.557,0.081-0.975c0-0.852-0.022-0.819,0.653-0.909l0.409-0.055v0.903
		c0,0.969,0.052,1.108,0.448,1.208c0.485,0.122,0.489,0.109,0.514-1.332l0.023-1.323l0.304-0.085
		c0.168-0.047,0.428-0.084,0.579-0.085h0.275l-0.032,1.374c-0.034,1.517-0.078,1.667-0.583,1.981
		c-0.227,0.141-0.362,0.157-1.037,0.122c-0.976-0.05-0.899-0.05-2.179,0.002C2.576,41.007,2.511,41,2.346,40.836l-0.174-0.174
		l-0.271,0.167C1.525,41.062,0.814,41.06,0.516,40.826z M1.89,40.264c0.199-0.076,0.209-0.11,0.209-0.694
		c0-0.338-0.028-0.614-0.061-0.614c-0.133,0.002-0.929,0.505-0.971,0.613c-0.074,0.193,0.094,0.564,0.304,0.671
		C1.611,40.363,1.627,40.363,1.89,40.264z M22.721,40.727c-0.244-0.245-0.446-0.716-0.449-1.043
		c-0.001-0.272,0.665-0.736,1.572-1.098l0.551-0.22v-0.349c0-0.345,0.005-0.351,0.363-0.441c0.741-0.186,0.692-0.276,0.718,1.317
		l0.022,1.409l0.43,0.025c0.397,0.023,0.435,0.009,0.51-0.19c0.044-0.117,0.081-0.557,0.081-0.975c0-0.852-0.023-0.819,0.652-0.909
		l0.409-0.055l0.002,0.889c0.001,0.943,0.02,1.015,0.299,1.162c0.192,0.101,4.119,0.139,4.216,0.041
		c0.092-0.091-0.22-0.53-0.473-0.666c-0.182-0.097-0.573-0.144-1.512-0.178c-1.397-0.052-1.796-0.165-1.796-0.514
		c0-0.277,0.693-1.606,1.061-2.033c0.554-0.644,1.302-0.81,1.599-0.355c0.109,0.166,0.114,0.248,0.035,0.489
		c-0.095,0.289-0.193,0.36-0.287,0.207c-0.103-0.167-0.524-0.082-0.804,0.163c-0.313,0.274-0.779,1.099-0.677,1.2
		c0.036,0.037,0.696,0.086,1.468,0.11c1.106,0.034,1.456,0.073,1.662,0.183c0.293,0.157,0.586,0.517,0.804,0.985
		c0.079,0.173,0.235,0.355,0.345,0.405c0.393,0.179,0.427-0.002,0.427-2.282c0-1.374,0.03-2.08,0.087-2.116
		c0.047-0.03,0.297-0.073,0.552-0.096l0.464-0.042l-0.023,2.127c-0.023,2.107-0.021,2.129,0.158,2.296
		c0.262,0.243,0.446,0.213,0.551-0.088c0.05-0.141,0.09-0.326,0.09-0.411c0-0.49,0.664-1.19,1.315-1.385
		c0.557-0.167,1.451,0.191,1.721,0.689c0.054,0.099,0.124,0.377,0.158,0.616c0.094,0.68,0.547,1.015,0.728,0.539
		c0.044-0.116,0.08-1.104,0.08-2.201c0-1.272,0.03-2.009,0.084-2.042c0.046-0.029,0.285-0.073,0.531-0.098l0.447-0.046v2.137
		c0,2.313-0.026,2.48-0.445,2.867c-0.204,0.187-0.285,0.204-0.989,0.204c-0.675,0-0.787-0.021-0.942-0.175l-0.175-0.175
		l-0.288,0.195c-0.229,0.156-0.393,0.195-0.811,0.195c-0.302,0-0.622-0.051-0.756-0.12c-0.207-0.107-0.262-0.106-0.488,0.007
		c-0.189,0.093-0.391,0.114-0.764,0.08c-0.279-0.026-0.592-0.044-0.692-0.042c-0.101,0.002-0.495,0.007-0.877,0.01
		c-0.382,0.003-0.787,0.006-0.899,0.008c-0.672,0.01-5.426,0.004-5.595-0.007c-0.112-0.007-0.688,0.007-1.279,0.032
		c-1.02,0.042-1.085,0.035-1.249-0.13l-0.174-0.174l-0.271,0.167c-0.191,0.118-0.41,0.168-0.739,0.168
		C23.039,40.997,22.964,40.969,22.721,40.727z M37.768,40.339c0.237-0.082,0.245-0.101,0.205-0.469
		c-0.056-0.533-0.205-0.787-0.559-0.955c-0.291-0.138-0.309-0.138-0.413,0.004c-0.293,0.401-0.098,1.253,0.326,1.423
		c0.098,0.04,0.183,0.074,0.186,0.077C37.518,40.422,37.632,40.386,37.768,40.339z M24.334,40.205
		c0.035-0.019,0.061-0.308,0.061-0.642c0-0.334-0.026-0.607-0.061-0.607c-0.133,0.002-0.93,0.505-0.97,0.613
		c-0.075,0.193,0.094,0.564,0.302,0.669C23.839,40.324,24.149,40.309,24.334,40.205z M44.133,40.847
		c-0.074-0.082-0.135-0.229-0.135-0.326c0-0.146,0.047-0.178,0.27-0.178c0.149,0,0.313-0.044,0.368-0.097
		c0.071-0.071,0.097-0.675,0.097-2.201c0-1.402,0.029-2.12,0.087-2.156c0.048-0.03,0.297-0.073,0.552-0.096l0.464-0.042
		l-0.025,1.909l-0.024,1.908l0.352-0.342c0.47-0.458,1.232-0.906,1.649-0.968c0.711-0.106,1.428,0.434,1.763,1.327
		c0.289,0.773,0.206,1.022-0.428,1.287c-0.246,0.103-0.713,0.125-2.578,0.125C44.444,40.997,44.258,40.985,44.133,40.847z
		 M48.624,40.222c0.061-0.158-0.243-0.781-0.5-1.021c-0.128-0.12-0.295-0.187-0.457-0.182c-0.296,0.009-0.907,0.391-1.504,0.942
		l-0.407,0.376l1.411,0.004C48.338,40.342,48.585,40.323,48.624,40.222z M0.874,37.077c-0.317-0.316-0.147-0.708,0.341-0.788
		c0.252-0.041,0.335-0.014,0.516,0.167c0.232,0.232,0.223,0.488-0.023,0.682C1.507,37.295,1.059,37.262,0.874,37.077z M23.19,37.113
		c-0.549-0.384,0.195-1.107,0.757-0.738c0.262,0.171,0.289,0.65,0.046,0.78C23.763,37.278,23.398,37.259,23.19,37.113z
		 M2.234,36.927c-0.308-0.34-0.051-0.83,0.436-0.83c0.516,0,0.781,0.579,0.39,0.852C2.815,37.122,2.4,37.111,2.234,36.927z
		 M24.532,36.927c-0.305-0.337-0.065-0.83,0.405-0.83c0.348,0,0.604,0.208,0.604,0.489C25.54,37.022,24.833,37.26,24.532,36.927z
		 M59.371,36.949c-0.391-0.273-0.126-0.852,0.39-0.852c0.319,0,0.572,0.216,0.572,0.489s-0.253,0.49-0.572,0.49
		C59.647,37.077,59.471,37.019,59.371,36.949z M11.381,36.846c-0.304-0.337-0.064-0.831,0.405-0.831c0.348,0,0.604,0.207,0.604,0.49
		C12.39,36.94,11.683,37.178,11.381,36.846z M31.297,29.425c-0.626-0.082-1.604-0.307-2.123-0.492
		c-0.643-0.228-2.002-0.916-2.002-1.013c0-0.035,0.19-0.208,0.42-0.384l0.42-0.32l0.745,0.35c2.107,0.99,4.319,1.098,6.503,0.32
		c0.758-0.27,1.833-0.85,1.741-0.94c-0.037-0.037-0.987-0.733-2.11-1.548c-1.123-0.815-2.05-1.525-2.062-1.578
		c-0.019-0.091,0.692-0.627,0.832-0.627c0.037,0,0.597,0.388,1.247,0.86c0.649,0.473,1.162,0.831,1.141,0.796
		c-0.057-0.097-2.098-6.403-2.098-6.485c0-0.039,0.248-0.071,0.552-0.071l0.551,0.001l1.49,4.596c0.82,2.528,1.491,4.638,1.491,4.69
		c0,0.138-1.117,0.809-1.887,1.134c-0.794,0.334-1.676,0.573-2.524,0.683C33.029,29.475,31.791,29.489,31.297,29.425z
		 M26.136,27.167c-2.553-2.185-3.787-5.541-3.251-8.843c0.177-1.091,0.145-1.058,0.663-0.702l0.444,0.304l-0.064,0.572
		c-0.034,0.314-0.057,1.031-0.049,1.592c0.028,2.2,0.895,4.189,2.536,5.816l0.635,0.632l0.808-2.51
		c0.444-1.381,0.83-2.535,0.858-2.567c0.054-0.061,0.907,0.556,0.907,0.656c0,0.033-0.199,0.656-0.443,1.385
		c-0.244,0.728-0.43,1.324-0.413,1.324c0.017,0,1.247-0.882,2.731-1.96c1.485-1.078,2.733-1.96,2.773-1.96
		c0.065,0,0.445,0.985,0.394,1.023c-0.253,0.192-7.803,5.66-7.86,5.693C26.76,27.649,26.459,27.444,26.136,27.167z M15.697,27.431
		c-1.116-0.163-2.024-0.655-2.858-1.553l-0.409-0.439l0.728-0.023c0.707-0.023,0.737-0.017,1.043,0.229
		c0.46,0.37,1.096,0.636,1.744,0.729c0.322,0.047,2.38,0.083,4.737,0.084l4.168,0.002l0.525,0.53l0.527,0.531l-4.858-0.01
		C18.374,27.506,15.968,27.47,15.697,27.431z M38.934,27.493c0-0.02,0.23-0.261,0.51-0.534l0.512-0.496l4.206-0.004
		c4.471-0.005,5.094-0.047,5.781-0.399c0.188-0.095,0.465-0.283,0.619-0.417c0.264-0.231,0.318-0.245,0.983-0.245
		c0.39,0,0.704,0.035,0.704,0.078c0,0.165-1.174,1.222-1.624,1.462c-1.016,0.541-0.912,0.532-6.564,0.564
		C41.24,27.518,38.934,27.514,38.934,27.493z M38.221,26.804l-0.165-0.549l0.541-0.571c1.674-1.767,2.563-4.316,2.299-6.597
		c-0.087-0.764-0.2-1.346-0.275-1.42c-0.022-0.022-0.971,0.636-2.11,1.463c-1.138,0.827-2.113,1.528-2.168,1.56
		c-0.116,0.068-0.479-1.01-0.365-1.085c0.039-0.025,0.578-0.415,1.196-0.863l1.123-0.817l-3.448-0.021
		c-2.701-0.017-3.44-0.044-3.411-0.123c0.021-0.055,0.101-0.293,0.178-0.53l0.141-0.429h4.887h4.888l0.089,0.269
		c0.314,0.951,0.468,2.63,0.342,3.733c-0.25,2.202-1.089,4.029-2.574,5.605C38.404,27.481,38.422,27.475,38.221,26.804z
		 M13.925,25.062c-0.803-0.077-1.548-0.302-2.051-0.619c-0.369-0.232-1.444-1.233-1.444-1.345c0-0.038,0.316-0.068,0.703-0.068
		c0.65,0,0.725,0.018,1,0.234c0.892,0.701,1.201,0.752,4.79,0.801l3.022,0.041l0.455,0.314c0.25,0.173,0.608,0.375,0.797,0.45
		c0.187,0.076,0.342,0.17,0.342,0.21C21.538,25.172,14.898,25.156,13.925,25.062z M43.263,25.083c0-0.049,0.192-0.171,0.424-0.271
		c0.234-0.1,0.584-0.303,0.777-0.451l0.353-0.269l2.307-0.002c3.783-0.003,4.547-0.111,5.439-0.765
		c0.388-0.285,0.425-0.295,1.104-0.295c0.388,0,0.704,0.033,0.704,0.074c0,0.155-1.23,1.213-1.704,1.466
		c-0.919,0.49-1.196,0.518-5.504,0.562C44.411,25.159,43.263,25.145,43.263,25.083z M11.402,22.616
		c-0.536-0.079-1.152-0.302-1.662-0.6c-0.39-0.228-1.435-1.214-1.435-1.353c0-0.051,0.277-0.084,0.705-0.084
		c0.673,0,0.717,0.012,0.996,0.257c0.398,0.349,1.009,0.616,1.649,0.718c0.293,0.047,1.78,0.085,3.328,0.086h2.798l0.498,0.367
		c0.273,0.201,0.641,0.409,0.816,0.462c0.176,0.052,0.32,0.127,0.32,0.164C19.414,22.722,12.011,22.706,11.402,22.616z
		 M45.387,22.638c0-0.036,0.131-0.112,0.291-0.171c0.16-0.058,0.528-0.267,0.818-0.465l0.526-0.361h2.797
		c3.565-0.001,4.08-0.082,4.928-0.777c0.336-0.275,0.369-0.284,1.048-0.284c0.385,0,0.701,0.032,0.701,0.071
		c0,0.039-0.298,0.355-0.661,0.702c-0.439,0.419-0.835,0.712-1.181,0.874c-0.914,0.428-1.41,0.471-5.53,0.473
		C47.068,22.702,45.387,22.674,45.387,22.638z M27.173,19.793c-3.541-2.579-3.878-2.845-3.868-3.049
		c0.015-0.306,0.596-1.522,1.067-2.233c0.483-0.729,1.594-1.893,2.307-2.418c1.339-0.986,2.86-1.587,4.538-1.794
		c0.359-0.044,0.666-0.066,0.682-0.049c0.017,0.016-0.047,0.262-0.142,0.545l-0.171,0.515l-0.742,0.144
		c-1.655,0.321-3.069,1.049-4.284,2.204c-0.826,0.785-1.434,1.604-1.876,2.524l-0.287,0.599l2.705,0.022
		c2.106,0.017,2.697,0.044,2.667,0.122c-0.02,0.055-0.101,0.294-0.178,0.53l-0.141,0.429h-1.514h-1.515l2.766,2.005
		c1.521,1.104,2.777,2.036,2.791,2.073c0.025,0.072-0.735,0.659-0.852,0.657C31.085,22.619,29.306,21.347,27.173,19.793z
		 M9.613,20.251c-1.102-0.129-1.888-0.464-2.612-1.113c-0.473-0.425-1.963-2.127-1.963-2.245c0-0.039,3.933-0.07,8.862-0.07
		c7.036,0,8.862,0.021,8.86,0.103c-0.001,0.056-0.049,0.285-0.107,0.51l-0.106,0.409l-7.627,0.041l-7.625,0.041l0.403,0.355
		c0.222,0.195,0.551,0.431,0.73,0.522c0.741,0.38,0.988,0.406,4.237,0.447l3.095,0.04l0.378,0.289
		c0.206,0.159,0.551,0.361,0.764,0.451c0.213,0.089,0.388,0.194,0.388,0.233C17.291,20.35,10.359,20.339,9.613,20.251z
		 M47.43,20.281c0.002-0.038,0.205-0.157,0.453-0.264c0.248-0.108,0.607-0.316,0.799-0.462l0.348-0.266l3.058-0.037
		c2.551-0.031,3.14-0.06,3.548-0.175c0.578-0.163,1.005-0.407,1.511-0.857l0.368-0.328l-7.643-0.003l-7.644-0.004l-0.09-0.388
		c-0.049-0.213-0.115-0.452-0.145-0.53c-0.052-0.136,0.402-0.144,8.862-0.144c5.539,0,8.908,0.029,8.891,0.077
		c-0.015,0.042-0.377,0.489-0.803,0.992c-1.203,1.421-1.934,1.963-3.04,2.25c-0.43,0.112-1.156,0.14-4.494,0.171
		C49.221,20.333,47.429,20.318,47.43,20.281z M29.803,19.875c-0.233-0.164-0.426-0.339-0.427-0.388
		c-0.001-0.05,0.669-2.162,1.49-4.694l1.493-4.603l0.688,0.055c3.495,0.284,6.414,2.237,7.962,5.327
		c0.207,0.413,0.376,0.772,0.376,0.796c0,0.025-0.27,0.047-0.6,0.047h-0.6l-0.155-0.347c-0.481-1.072-1.739-2.528-2.8-3.242
		c-1.159-0.781-2.667-1.344-3.883-1.45c-0.465-0.041-0.557-0.029-0.522,0.066c0.023,0.063,0.38,1.151,0.791,2.418
		c0.41,1.267,0.77,2.362,0.797,2.434c0.044,0.113-0.028,0.127-0.541,0.106l-0.591-0.024l-0.406-1.266
		c-0.225-0.696-0.433-1.293-0.465-1.326c-0.031-0.033-0.509,1.345-1.064,3.063c-0.554,1.718-1.032,3.169-1.061,3.225
		C30.245,20.144,30.11,20.088,29.803,19.875z M27.01,10.22V9.66l0.725-0.332c3.116-1.428,6.441-1.41,9.402,0.048l0.613,0.302
		l0.024,0.552c0.013,0.303,0.004,0.551-0.022,0.551c-0.026,0-0.342-0.149-0.702-0.33c-2.95-1.483-6.349-1.483-9.296-0.002
		c-0.363,0.182-0.678,0.331-0.702,0.331C27.029,10.78,27.01,10.528,27.01,10.22z M25.727,9.158c-0.776-0.268-1.241-0.68-1.666-1.481
		c-0.173-0.324-0.196-0.475-0.196-1.266c0-0.775,0.027-0.951,0.19-1.28c0.445-0.895,1.214-1.372,2.214-1.373
		c0.738-0.001,1.052,0.136,1.802,0.784c0.643,0.554,1.226,0.847,1.695,0.848c0.313,0.001,0.347,0.021,0.347,0.199
		c0,0.319-0.353,0.537-0.871,0.537c-0.564,0-0.91-0.149-1.623-0.694c-0.659-0.504-0.898-0.613-1.354-0.613
		c-1.109,0-1.743,1.363-1.169,2.514c0.238,0.477,0.53,0.751,1.115,1.047c0.373,0.19,0.635,0.539,0.635,0.846
		C26.846,9.359,26.194,9.319,25.727,9.158z M37.983,9.063c0.07-0.347,0.243-0.537,0.661-0.725c1.18-0.534,1.65-2.129,0.891-3.03
		c-0.291-0.345-0.605-0.49-1.065-0.489c-0.43,0-0.676,0.122-1.413,0.7c-0.582,0.456-0.953,0.606-1.503,0.606
		c-0.36,0-0.492-0.041-0.696-0.211c-0.138-0.117-0.25-0.282-0.25-0.368c0-0.132,0.06-0.156,0.392-0.156
		c0.503,0,1.038-0.267,1.731-0.866c0.728-0.628,1.045-0.763,1.797-0.764c0.756-0.002,1.286,0.219,1.745,0.73
		c0.528,0.586,0.664,0.979,0.664,1.921c0,0.972-0.143,1.36-0.739,1.997c-0.465,0.498-1.083,0.805-1.761,0.876l-0.507,0.053
		L37.983,9.063z M27.385,8.623c-0.062-0.149-0.196-0.329-0.298-0.4c-0.175-0.124-0.178-0.138-0.047-0.337
		c0.183-0.281,0.68-0.294,0.925-0.025c0.183,0.2,0.352,0.496,0.352,0.617c0,0.041-0.184,0.152-0.409,0.245l-0.409,0.171
		L27.385,8.623z M36.872,8.722c-0.465-0.202-0.492-0.351-0.135-0.757c0.308-0.35,0.702-0.396,0.969-0.109l0.166,0.178l-0.195,0.209
		c-0.107,0.115-0.245,0.307-0.306,0.427L37.26,8.891L36.872,8.722z M28.897,8.036c-0.054-0.148-0.207-0.361-0.339-0.473
		c-0.282-0.236-0.294-0.303-0.092-0.487c0.309-0.28,0.971-0.084,1.198,0.356c0.323,0.624,0.323,0.623-0.198,0.754l-0.472,0.119
		L28.897,8.036z M35.3,8.19c-0.225-0.068-0.421-0.136-0.439-0.151c-0.068-0.063,0.347-0.783,0.539-0.933
		c0.249-0.196,0.653-0.212,0.903-0.037c0.236,0.165,0.23,0.309-0.019,0.443c-0.111,0.059-0.277,0.267-0.369,0.463
		c-0.092,0.195-0.176,0.351-0.186,0.347C35.717,8.317,35.525,8.257,35.3,8.19z M30.489,7.566c-0.077-0.205-0.267-0.482-0.421-0.617
		c-0.295-0.259-0.305-0.436-0.032-0.581c0.569-0.305,1.304,0.285,1.503,1.207c0.052,0.24,0.038,0.265-0.133,0.266
		c-0.105,0.001-0.321,0.023-0.482,0.05C30.639,7.938,30.629,7.93,30.489,7.566z M33.483,7.863c-0.324-0.04-0.335-0.156-0.073-0.72
		c0.361-0.775,1.045-1.096,1.438-0.676c0.213,0.229,0.209,0.266-0.033,0.376C34.691,6.9,34.528,7.12,34.385,7.427
		C34.141,7.955,34.158,7.946,33.483,7.863z M32.198,6.945c-0.081-0.178-0.215-0.387-0.299-0.463
		c-0.209-0.189-0.192-0.345,0.085-0.78c0.388-0.613,0.477-0.603,0.854,0.09l0.22,0.404l-0.331,0.512
		c-0.182,0.281-0.343,0.523-0.357,0.537C32.357,7.258,32.279,7.124,32.198,6.945z M28.952,4.737c-0.741-0.402-0.747-1.47-0.008-1.47
		c0.301,0,0.516,0.221,0.516,0.527c0,0.218,0.016,0.227,0.297,0.181c0.163-0.027,0.361-0.107,0.44-0.179
		c0.138-0.124,0.136-0.14-0.05-0.326c-0.365-0.364-0.144-0.938,0.361-0.938c0.585,0,0.878,1.001,0.487,1.667
		C30.7,4.7,30.437,4.85,29.805,4.878C29.376,4.897,29.189,4.866,28.952,4.737z M34.273,4.714c-0.444-0.299-0.647-0.669-0.647-1.178
		c0-0.683,0.22-1.005,0.688-1.005c0.445,0,0.635,0.642,0.287,0.967l-0.168,0.157l0.22,0.173c0.121,0.095,0.326,0.173,0.454,0.173
		c0.203,0,0.235-0.031,0.235-0.232c0-0.47,0.668-0.701,0.934-0.321c0.288,0.412,0.039,1.037-0.531,1.332
		C35.375,4.971,34.602,4.936,34.273,4.714z M31.822,4.498c-0.525-0.526-0.165-1.394,0.578-1.394c0.266,0,0.39,0.052,0.578,0.239
		c0.526,0.526,0.166,1.394-0.578,1.394C32.134,4.737,32.01,4.685,31.822,4.498z M31.543,2.451l0.193-0.57l-0.497-0.349l-0.497-0.348
		l0.61-0.024l0.611-0.023l0.183-0.568C32.247,0.256,32.355,0,32.388,0c0.034,0,0.144,0.257,0.246,0.572l0.184,0.572h0.623h0.623
		l-0.51,0.379c-0.281,0.208-0.496,0.419-0.477,0.469c0.184,0.5,0.31,0.967,0.273,1.006c-0.026,0.025-0.252-0.108-0.503-0.297
		l-0.457-0.345l-0.44,0.333c-0.243,0.183-0.478,0.333-0.522,0.333C31.385,3.022,31.436,2.765,31.543,2.451z"/>
</g>
<g id="Layer_4">
</g>
</svg>
