<?xml version="1.0" encoding="utf-8"?>
<!-- Generator: Adobe Illustrator 18.0.0, SVG Export Plug-In . SVG Version: 6.00 Build 0)  -->
<!DOCTYPE svg PUBLIC "-//W3C//DTD SVG 1.1//EN" "http://www.w3.org/Graphics/SVG/1.1/DTD/svg11.dtd">
<svg version="1.1" xmlns="http://www.w3.org/2000/svg" xmlns:xlink="http://www.w3.org/1999/xlink" x="0px" y="0px" width="200px"
	 height="26px" viewBox="0 0 200 26" style="enable-background:new 0 0 200 26;" xml:space="preserve">
<style type="text/css">
	.st0{display:none;}
	.st1{display:inline;}
	.st2{fill:#ED2D27;}
	.st3{display:inline;fill:#F8B900;}
	.st4{display:inline;fill:#00235F;}
	.st5{fill:url(#SVGID_1_);}
	.st6{fill:#006CB6;}
	.st7{fill:url(#SVGID_2_);}
	.st8{fill:url(#SVGID_3_);}
	.st9{fill:url(#SVGID_4_);}
	.st10{fill:url(#SVGID_5_);}
	.st11{fill:url(#SVGID_6_);}
	.st12{fill-rule:evenodd;clip-rule:evenodd;fill:#FFFFFF;}
	.st13{fill-rule:evenodd;clip-rule:evenodd;fill:#E2231A;}
	.st14{fill:#FFFFFF;}
	.st15{fill-rule:evenodd;clip-rule:evenodd;fill:#001689;}
	.st16{fill:#00529B;}
	.st17{fill:#F47920;}
	.st18{fill:url(#SVGID_7_);}
	.st19{fill:url(#SVGID_8_);}
	.st20{fill:url(#SVGID_9_);}
	.st21{fill:url(#SVGID_10_);}
	.st22{fill:url(#SVGID_11_);}
	.st23{fill:url(#SVGID_12_);}
	.st24{fill:url(#SVGID_13_);}
	.st25{fill:#00054C;}
	.st26{fill:url(#path3364_3_);}
	.st27{fill:url(#path3366_3_);}
	.st28{fill:#22356B;}
	.st29{fill:#FCC210;}
	.st30{fill:#ED1C24;}
	.st31{display:inline;fill:url(#SVGID_14_);}
	.st32{fill:#002157;}
	.st33{fill:#CC2234;}
	.st34{fill:#E23546;}
	.st35{fill:#FCB130;}
	.st36{fill:#1D4886;}
	.st37{display:inline;fill:none;}
	.st38{display:inline;fill:#005DAA;}
	.st39{fill:#005DAA;}
	.st40{fill:#00A1E4;}
	.st41{fill:#00704A;}
	.st42{fill:#B10D28;}
	.st43{fill:#D31245;}
	.st44{fill:url(#path70_3_);}
	.st45{fill:url(#SVGID_15_);}
	.st46{fill:url(#SVGID_16_);}
	.st47{fill:#231916;}
	.st48{fill:#E60013;}
	.st49{fill:#C0231E;}
	.st50{fill:#014E84;}
	.st51{fill:#BA783E;}
	.st52{fill:#002052;}
	.st53{fill:#0093D0;}
	.st54{fill:#ED1B2F;}
	.st55{fill:#E3242B;}
	.st56{fill-rule:evenodd;clip-rule:evenodd;fill:#034EA2;}
	.st57{fill-rule:evenodd;clip-rule:evenodd;fill:#E11837;}
	.st58{fill:#034EA2;}
	.st59{opacity:0.8902;fill:#EB151C;}
	.st60{fill:#1A1A1A;}
	.st61{enable-background:new    ;}
	.st62{fill:#FF6600;}
	.st63{clip-path:url(#SVGID_18_);fill:url(#SVGID_19_);}
	.st64{fill:url(#SVGID_20_);}
	.st65{fill:#B2DB1F;}
	.st66{fill:#FA002C;}
	.st67{fill:#1C2D5B;}
	.st68{fill:#1C4E9D;}
	.st69{fill:#ED192D;}
	.st70{display:inline;fill:#FFFFFF;}
	.st71{display:inline;fill:#00529B;}
	.st72{display:inline;fill:#F47920;}
	.st73{display:inline;fill:url(#SVGID_21_);}
	.st74{display:inline;fill:url(#SVGID_22_);}
	.st75{display:inline;fill:url(#SVGID_23_);}
	.st76{display:inline;fill:url(#SVGID_24_);}
	.st77{display:inline;fill:url(#SVGID_25_);}
	.st78{display:inline;fill:url(#SVGID_26_);}
	.st79{display:inline;fill:url(#SVGID_27_);}
	.st80{display:inline;fill:url(#path3364_4_);}
	.st81{display:inline;fill:url(#path3366_4_);}
	.st82{display:inline;fill:url(#SVGID_28_);}
	.st83{display:inline;fill:url(#SVGID_29_);}
	.st84{display:inline;fill:url(#SVGID_30_);}
	.st85{display:inline;opacity:0.75;fill:#FFFFFF;}
	.st86{display:inline;fill:#ED1B2F;}
	.st87{opacity:0.8902;fill:#FFFFFF;}
	.st88{clip-path:url(#SVGID_32_);fill:#FFFFFF;}
	.st89{fill:url(#SVGID_33_);}
	.st90{fill:url(#SVGID_34_);}
	.st91{fill:url(#SVGID_35_);}
	.st92{fill:url(#SVGID_36_);}
	.st93{fill:url(#SVGID_37_);}
	.st94{fill:url(#SVGID_38_);}
	.st95{fill:url(#SVGID_39_);}
	.st96{fill:url(#SVGID_40_);}
	.st97{clip-path:url(#SVGID_42_);fill:url(#SVGID_43_);}
	.st98{fill:url(#SVGID_44_);}
	.st99{fill:url(#path70_5_);}
	.st100{fill:url(#SVGID_45_);}
	.st101{fill:url(#SVGID_46_);}
	.st102{fill:#F8B900;}
	.st103{fill:#00235F;}
	.st104{fill:url(#SVGID_47_);}
	.st105{fill:url(#SVGID_48_);}
	.st106{fill:url(#SVGID_49_);}
	.st107{fill:url(#SVGID_50_);}
	.st108{fill:url(#SVGID_51_);}
	.st109{fill:url(#SVGID_52_);}
	.st110{opacity:0.8902;fill:#EB151C;enable-background:new    ;}
	.st111{fill:#E11837;}
	.st112{fill:#E2231A;}
	.st113{fill:#001689;}
	.st114{fill:#EF3E34;}
	.st115{fill:#4D82C4;}
	.st116{fill:#8C7035;}
	.st117{fill:#5FBA45;}
	.st118{fill:#008F7E;}
	.st119{fill:#004595;}
	.st120{fill:#FFED00;}
	.st121{fill:#E53138;}
	.st122{fill:url(#SVGID_53_);}
	.st123{fill:url(#SVGID_54_);}
	.st124{fill:url(#SVGID_55_);}
	.st125{fill:url(#SVGID_56_);}
	.st126{fill:#11185E;}
	.st127{fill:#EE3024;}
	.st128{fill:#0675CC;}
	.st129{fill:#E2001A;}
	.st130{fill:#009036;}
	.st131{fill:#0B1560;}
	.st132{fill:#0070AF;}
	.st133{fill:#0F2C64;}
	.st134{fill:#EF001E;}
	.st135{fill:#1C2A8D;}
	.st136{fill:#334357;}
	.st137{fill:url(#SVGID_57_);}
	.st138{fill:#ED1B28;}
	.st139{fill:#1E5AAF;}
	.st140{fill:#991933;}
	.st141{fill:#E01933;}
	.st142{fill:#003366;}
	.st143{fill:#00265D;}
	.st144{fill:#003263;}
	.st145{fill:#EE452A;}
	.st146{fill:#011F65;}
	.st147{fill:#EC2227;}
	.st148{fill:#010101;}
	.st149{fill:#FCEE21;}
	.st150{fill:#18488B;}
	.st151{fill:#EC2427;}
	.st152{fill:#D09B2B;}
	.st153{fill:#156192;}
	.st154{fill:#021A31;}
	.st155{fill:#008E8F;}
	.st156{fill:#2B438F;}
	.st157{fill:#363F9E;}
	.st158{fill:#00ABBF;}
</style>
<g id="Layer_1" class="st0">
</g>
<g id="Layer_2" class="st0">
</g>
<g id="Layer_3">
	<g>
		<g>
			<polyline class="st35" points="174.714,26 175.582,24.888 0.285,24.888 0.285,26 			"/>
			<path class="st35" d="M185.14,23.644c0,0,3.367-5.091,3.735-5.618c0.438-0.613,0.438-1.634,0.038-2.155
				c-0.151-0.283-5.313-8.581-5.313-8.581c-0.49-0.894-0.358-1.5-0.066-1.954c0.499-0.754,1.142-1.723,1.142-1.723
				s6.072,9.705,6.344,10.141c0.675,1.108,0.537,2.249-0.107,3.156c-0.545,0.792-4.44,6.734-4.44,6.734"/>
			<path class="st35" d="M183.262,24.579c0,0,4.227-6.211,4.589-6.677c0.43-0.577,0.35-1.441,0-1.928
				c-0.163-0.289-5.636-8.764-5.636-8.764s-0.804,1.202-1.104,1.67c-0.304,0.446-0.482,1.031,0.06,1.952
				c0,0,4.004,6.297,4.153,6.569c0.328,0.517,0.312,1.467-0.062,2.05c-0.285,0.498-4.392,6.47-4.392,6.47H192.7
				c1.21,0,1.873-0.46,2.47-1.298c0.476-0.693,2.434-3.548,2.754-3.996c0.285-0.458,0.898-0.732,1.122-0.732H200l-1.809-2.76h-2.412
				c-0.581,0-1.23,0.498-1.594,1.005c-0.233,0.404-2.225,3.353-2.559,3.817c-0.211,0.295-0.486,0.515-0.77,0.515h-0.736
				c0.109-0.233,3.526-5.214,4.195-6.281c0.81-1.317,0.983-3.035,0.028-4.689C194.014,10.907,187.1,0,187.1,0s-0.84,1.26-1.21,1.843
				c-0.33,0.456-0.289,1.095,0.219,1.952c0,0,5.831,9.288,6.115,9.719c0.675,1.047,0.561,2.444,0,3.401
				c-0.464,0.772-4.48,6.792-4.48,6.792h3.019c1.15,0,1.483-0.38,1.743-0.79c0.283-0.404,2.191-3.188,2.398-3.491
				c0.205-0.277,0.704-1.047,1.363-1.047h2.215v0.464c-0.927,0.092-1.298,0.37-1.614,0.808c-0.338,0.428-2.619,3.717-2.854,4.062
				c-0.306,0.436-0.605,0.874-1.508,0.874"/>
			<path class="st36" d="M0.139,20.161h5.873c2.328,0,3.411-1.477,3.411-3.039c0-1.538-1.083-3.035-3.411-3.035H3.144
				c-0.639,0-1.045-0.372-1.045-1.065c0-0.728,0.406-1.089,1.045-1.089h6.153v-1.897h-5.91C1.114,10.034,0,11.353,0,13.057
				c0,1.672,1.112,3.009,3.387,3.009h2.844c0.661,0,1.087,0.374,1.087,1.095c0,0.738-0.426,1.114-1.087,1.114H0.103"/>
			<path class="st36" d="M38.36,20.201h-4.535c-3.807,0-5.672-2.732-5.672-5.083c0-2.36,1.865-5.081,5.672-5.081h4.555l-0.008,1.861
				H33.54c-1.871,0-3.166,1.069-3.166,3.134c0,2.105,1.296,3.2,3.166,3.2h2.601v-4.677h2.221"/>
			<rect x="11.707" y="10.034" class="st36" width="2.245" height="10.129"/>
			<path class="st36" d="M18.913,11.897v8.263h-2.225V10.034h2.223v1.684l1.28-1.684h2.903c1.986,0,3.222,1.425,3.222,3.182v6.947
				h-2.253v-6.689c0-0.758-0.571-1.576-1.459-1.576"/>
			<path class="st36" d="M82.758,16.392l3.17,3.769H83.25l-4.414-5.319h2.706c0.83,0,1.359-0.752,1.359-1.461
				c0-0.712-0.529-1.483-1.359-1.483h-3.455v8.263h-2.183V10.034h5.763c1.97,0,3.298,1.534,3.298,3.292
				c0,1.383-0.844,2.641-2.193,3.065"/>
			<polyline class="st36" points="89.668,11.897 89.668,13.873 94.854,13.873 94.854,15.717 89.668,15.717 89.668,18.316 
				95.604,18.316 95.604,20.161 87.445,20.161 87.445,10.034 95.604,10.034 95.604,11.897 			"/>
			<path class="st36" d="M58.663,10.034h-5.759v10.129h2.209v-4.919l1.276,1.717h2.273c1.992,0,3.327-1.618,3.327-3.463
				C61.99,11.658,60.655,10.034,58.663,10.034 M58.585,15.083h-3.473v-3.186h3.473c0.78,0,1.313,0.842,1.313,1.604
				C59.9,14.285,59.367,15.083,58.585,15.083"/>
			<path class="st36" d="M68.697,9.58c-3.027,0-5.501,2.466-5.501,5.504c0,3.049,2.474,5.493,5.501,5.493
				c3.063,0,5.502-2.45,5.502-5.493C74.199,12.044,71.761,9.58,68.697,9.58 M68.697,18.553c-1.899,0-3.435-1.548-3.435-3.469
				c0-1.895,1.538-3.473,3.435-3.473c1.914,0,3.481,1.578,3.481,3.473C72.179,17.005,70.611,18.553,68.697,18.553"/>
			<path class="st36" d="M46.792,10.034h-2.295l-4.951,10.129h2.44l1.317-2.913h4.716l1.3,2.913h2.432 M43.908,15.759l1.739-4.147
				l1.719,4.137L43.908,15.759z"/>
			<path class="st36" d="M166.945,20.119h5.861c2.31,0,3.431-1.5,3.431-3.047c0-1.532-1.122-3.057-3.431-3.057
				c-0.993,0-2.85,0.014-2.85,0.014c-0.663,0-1.079-0.37-1.079-1.065c0-0.71,0.416-1.069,1.079-1.069h6.129V9.978h-5.885
				c-2.293,0-3.423,1.339-3.423,3.033c0,1.66,1.13,2.997,3.423,2.997h2.804c0.685,0,1.132,0.38,1.132,1.12
				c0,0.716-0.446,1.104-1.132,1.104h-6.109"/>
			<rect x="113.618" y="10.016" class="st36" width="2.233" height="10.137"/>
			<rect x="139.431" y="10.016" class="st36" width="2.229" height="10.137"/>
			<path class="st36" d="M146.601,11.893v8.259h-2.203V10.016h2.203v1.69l1.298-1.69h2.919c1.964,0,3.204,1.439,3.204,3.182v6.959
				h-2.249v-6.681c0-0.768-0.555-1.58-1.465-1.58h-3.703"/>
			<path class="st36" d="M125.769,16.382l3.172,3.777h-2.673l-4.394-5.317h2.722c0.816,0,1.327-0.766,1.327-1.471
				c0-0.716-0.511-1.473-1.327-1.473H121.1v8.259h-2.197V10.016h5.799c1.968,0,3.325,1.552,3.325,3.28
				C128.026,14.71,127.168,15.958,125.769,16.382"/>
			<polyline class="st36" points="158.826,11.897 158.826,13.873 164.004,13.873 164.004,15.715 158.826,15.715 158.826,18.316 
				164.766,18.302 164.766,20.155 156.615,20.155 156.615,10.016 164.766,10.016 164.766,11.897 			"/>
			<polyline class="st36" points="132.681,10.016 132.681,18.316 137.885,18.302 137.885,20.155 130.444,20.155 130.444,10.016 			
				"/>
			<path class="st36" d="M107.272,10.016h-2.304l-4.949,10.137h2.432l1.309-2.921l4.7,0.01l1.3,2.911h2.452 M104.394,15.747
				l1.721-4.155l1.715,4.125L104.394,15.747z"/>
		</g>
	</g>
</g>
<g id="Layer_4">
</g>
</svg>
