<?xml version="1.0" encoding="utf-8"?>
<!-- Generator: Adobe Illustrator 18.0.0, SVG Export Plug-In . SVG Version: 6.00 Build 0)  -->
<!DOCTYPE svg PUBLIC "-//W3C//DTD SVG 1.1//EN" "http://www.w3.org/Graphics/SVG/1.1/DTD/svg11.dtd">
<svg version="1.1" xmlns="http://www.w3.org/2000/svg" xmlns:xlink="http://www.w3.org/1999/xlink" x="0px" y="0px" width="200px"
	 height="17.217px" viewBox="0 0 200 17.217" style="enable-background:new 0 0 200 17.217;" xml:space="preserve">
<style type="text/css">
	.st0{display:none;}
	.st1{display:inline;}
	.st2{fill:#ED2D27;}
	.st3{display:inline;fill:#F8B900;}
	.st4{display:inline;fill:#00235F;}
	.st5{fill:url(#SVGID_1_);}
	.st6{fill:#006CB6;}
	.st7{fill:url(#SVGID_2_);}
	.st8{fill:url(#SVGID_3_);}
	.st9{fill:url(#SVGID_4_);}
	.st10{fill:url(#SVGID_5_);}
	.st11{fill:url(#SVGID_6_);}
	.st12{fill-rule:evenodd;clip-rule:evenodd;fill:#FFFFFF;}
	.st13{fill-rule:evenodd;clip-rule:evenodd;fill:#E2231A;}
	.st14{fill:#FFFFFF;}
	.st15{fill-rule:evenodd;clip-rule:evenodd;fill:#001689;}
	.st16{fill:#00529B;}
	.st17{fill:#F47920;}
	.st18{fill:url(#SVGID_7_);}
	.st19{fill:url(#SVGID_8_);}
	.st20{fill:url(#SVGID_9_);}
	.st21{fill:url(#SVGID_10_);}
	.st22{fill:url(#SVGID_11_);}
	.st23{fill:url(#SVGID_12_);}
	.st24{fill:url(#SVGID_13_);}
	.st25{fill:#00054C;}
	.st26{fill:url(#path3364_3_);}
	.st27{fill:url(#path3366_3_);}
	.st28{fill:#22356B;}
	.st29{fill:#FCC210;}
	.st30{fill:#ED1C24;}
	.st31{display:inline;fill:url(#SVGID_14_);}
	.st32{fill:#002157;}
	.st33{fill:#CC2234;}
	.st34{fill:#E23546;}
	.st35{fill:#FCB130;}
	.st36{fill:#1D4886;}
	.st37{display:inline;fill:none;}
	.st38{display:inline;fill:#005DAA;}
	.st39{fill:#005DAA;}
	.st40{fill:#00A1E4;}
	.st41{fill:#00704A;}
	.st42{fill:#B10D28;}
	.st43{fill:#D31245;}
	.st44{fill:url(#path70_3_);}
	.st45{fill:url(#SVGID_15_);}
	.st46{fill:url(#SVGID_16_);}
	.st47{fill:#231916;}
	.st48{fill:#E60013;}
	.st49{fill:#C0231E;}
	.st50{fill:#014E84;}
	.st51{fill:#BA783E;}
	.st52{fill:#002052;}
	.st53{fill:#0093D0;}
	.st54{fill:#ED1B2F;}
	.st55{fill:#E3242B;}
	.st56{fill-rule:evenodd;clip-rule:evenodd;fill:#034EA2;}
	.st57{fill-rule:evenodd;clip-rule:evenodd;fill:#E11837;}
	.st58{fill:#034EA2;}
	.st59{opacity:0.8902;fill:#EB151C;}
	.st60{fill:#1A1A1A;}
	.st61{enable-background:new    ;}
	.st62{fill:#FF6600;}
	.st63{clip-path:url(#SVGID_18_);fill:url(#SVGID_19_);}
	.st64{fill:url(#SVGID_20_);}
	.st65{fill:#B2DB1F;}
	.st66{fill:#FA002C;}
	.st67{fill:#1C2D5B;}
	.st68{fill:#1C4E9D;}
	.st69{fill:#ED192D;}
	.st70{display:inline;fill:#FFFFFF;}
	.st71{display:inline;fill:#00529B;}
	.st72{display:inline;fill:#F47920;}
	.st73{display:inline;fill:url(#SVGID_21_);}
	.st74{display:inline;fill:url(#SVGID_22_);}
	.st75{display:inline;fill:url(#SVGID_23_);}
	.st76{display:inline;fill:url(#SVGID_24_);}
	.st77{display:inline;fill:url(#SVGID_25_);}
	.st78{display:inline;fill:url(#SVGID_26_);}
	.st79{display:inline;fill:url(#SVGID_27_);}
	.st80{display:inline;fill:url(#path3364_4_);}
	.st81{display:inline;fill:url(#path3366_4_);}
	.st82{display:inline;fill:url(#SVGID_28_);}
	.st83{display:inline;fill:url(#SVGID_29_);}
	.st84{display:inline;fill:url(#SVGID_30_);}
	.st85{display:inline;opacity:0.75;fill:#FFFFFF;}
	.st86{display:inline;fill:#ED1B2F;}
	.st87{opacity:0.8902;fill:#FFFFFF;}
	.st88{clip-path:url(#SVGID_32_);fill:#FFFFFF;}
	.st89{fill:url(#SVGID_33_);}
	.st90{fill:url(#SVGID_34_);}
	.st91{fill:url(#SVGID_35_);}
	.st92{fill:url(#SVGID_36_);}
	.st93{fill:url(#SVGID_37_);}
	.st94{fill:url(#SVGID_38_);}
	.st95{fill:url(#SVGID_39_);}
	.st96{fill:url(#SVGID_40_);}
	.st97{clip-path:url(#SVGID_42_);fill:url(#SVGID_43_);}
	.st98{fill:url(#SVGID_44_);}
	.st99{fill:url(#path70_5_);}
	.st100{fill:url(#SVGID_45_);}
	.st101{fill:url(#SVGID_46_);}
	.st102{fill:#F8B900;}
	.st103{fill:#00235F;}
	.st104{fill:url(#SVGID_47_);}
	.st105{fill:url(#SVGID_48_);}
	.st106{fill:url(#SVGID_49_);}
	.st107{fill:url(#SVGID_50_);}
	.st108{fill:url(#SVGID_51_);}
	.st109{fill:url(#SVGID_52_);}
	.st110{opacity:0.8902;fill:#EB151C;enable-background:new    ;}
	.st111{fill:#E11837;}
	.st112{fill:#E2231A;}
	.st113{fill:#001689;}
	.st114{fill:#EF3E34;}
	.st115{fill:#4D82C4;}
	.st116{fill:#8C7035;}
	.st117{fill:#5FBA45;}
	.st118{fill:#008F7E;}
	.st119{fill:#004595;}
	.st120{fill:#FFED00;}
	.st121{fill:#E53138;}
	.st122{fill:url(#SVGID_53_);}
	.st123{fill:url(#SVGID_54_);}
	.st124{fill:url(#SVGID_55_);}
	.st125{fill:url(#SVGID_56_);}
	.st126{fill:#11185E;}
	.st127{fill:#EE3024;}
	.st128{fill:#0675CC;}
	.st129{fill:#E2001A;}
	.st130{fill:#009036;}
	.st131{fill:#0B1560;}
	.st132{fill:#0070AF;}
	.st133{fill:#0F2C64;}
	.st134{fill:#EF001E;}
	.st135{fill:#1C2A8D;}
	.st136{fill:#334357;}
	.st137{fill:url(#SVGID_57_);}
	.st138{fill:#ED1B28;}
	.st139{fill:#1E5AAF;}
	.st140{fill:#991933;}
	.st141{fill:#E01933;}
	.st142{fill:#003366;}
	.st143{fill:#00265D;}
	.st144{fill:#003263;}
	.st145{fill:#EE452A;}
	.st146{fill:#011F65;}
	.st147{fill:#EC2227;}
	.st148{fill:#010101;}
	.st149{fill:#FCEE21;}
	.st150{fill:#18488B;}
	.st151{fill:#EC2427;}
	.st152{fill:#D09B2B;}
	.st153{fill:#156192;}
	.st154{fill:#021A31;}
	.st155{fill:#008E8F;}
	.st156{fill:#2B438F;}
	.st157{fill:#363F9E;}
	.st158{fill:#00ABBF;}
</style>
<g id="Layer_1" class="st0">
</g>
<g id="Layer_2" class="st0">
</g>
<g id="Layer_3">
	<g>
		<path class="st30" d="M189.29,0l-8.983,12.998c-1.183,1.709-3.102,3.356-5.419,3.533v0.399h9.991c2.652,0,4.587-1.727,5.897-3.629
			L200,0L189.29,0L189.29,0z"/>
	</g>
	<linearGradient id="SVGID_1_" gradientUnits="userSpaceOnUse" x1="187.4435" y1="16.9293" x2="187.4435" y2="5.917071e-005">
		<stop  offset="0" style="stop-color:#800F14"/>
		<stop  offset="0.0449" style="stop-color:#931116"/>
		<stop  offset="0.1281" style="stop-color:#9D1218"/>
		<stop  offset="0.2159" style="stop-color:#A61319"/>
		<stop  offset="0.3085" style="stop-color:#E81B23"/>
		<stop  offset="0.6648" style="stop-color:#FF1E27"/>
	</linearGradient>
	<path class="st5" d="M189.29,0l-8.983,12.996c-1.183,1.711-3.102,3.358-5.419,3.535v0.399h9.992c2.652,0,4.587-1.727,5.897-3.629
		L200,0H189.29z"/>
	<g>
		<path class="st32" d="M23.843,16.929V1.428h4.525v15.501L23.843,16.929L23.843,16.929z M128.156,16.929l-10.868-9.205v9.205h-3.82
			V1.428h3.245l10.724,9.061V1.428h3.82v15.501L128.156,16.929L128.156,16.929z M151.792,6.43c-2.045-1.006-4.346-1.821-7.399-1.821
			c-3.644,0-6.362,1.885-6.362,4.506c0,2.687,2.765,4.587,6.329,4.587c2.941,0,5.275-0.752,7.576-2.078v3.836
			c-2.032,1.008-4.732,1.757-7.767,1.757c-6.202,0-11.076-3.165-11.076-8.102c0-4.859,4.971-7.975,11.061-7.975
			c2.875,0,5.481,0.543,7.638,1.423V6.43L151.792,6.43z M53.538,16.929V1.428h15.118v3.323H58.059v3.853h10.358v3.325H58.059v5.001
			L53.538,16.929L53.538,16.929z M154.526,16.929V1.428h15.694v3.323h-11.171v2.687h10.994v3.323h-10.994v2.844h11.123v3.325
			L154.526,16.929L154.526,16.929z M84.366,11.113l6.25,5.816h-4.828c-1.07,0-1.773-0.335-2.334-0.879l-4.25-4.122
			c-0.081-0.081-0.208-0.127-0.368-0.127h-2.893v5.128H71.42V1.428h9.799c5.08,0,7.224,2.284,7.224,4.811
			C88.442,9.178,85.821,10.584,84.366,11.113L84.366,11.113L84.366,11.113z M80.754,8.555c1.79,0,2.654-0.912,2.654-1.933
			c0-1.023-0.767-1.871-2.654-1.871h-4.81v3.805H80.754L80.754,8.555z M45.548,11.113l6.248,5.816H46.97
			c-1.072,0-1.775-0.335-2.334-0.879l-4.252-4.122c-0.079-0.081-0.208-0.127-0.368-0.127h-2.891v5.128h-4.525V1.428h9.798
			c5.082,0,7.224,2.284,7.224,4.811C49.622,9.178,47.001,10.584,45.548,11.113L45.548,11.113L45.548,11.113z M41.936,8.555
			c1.788,0,2.652-0.912,2.652-1.933c0-1.023-0.767-1.871-2.652-1.871h-4.81v3.805H41.936L41.936,8.555z M16.766,16.929l-1.984-3.403
			H6.121l-1.806,3.403H0L8.628,1.444h3.932l9.781,15.486H16.766L16.766,16.929z M7.846,10.298h5.049l-2.621-4.732L7.846,10.298
			L7.846,10.298z M107.077,16.929l-1.935-3.403h-8.437l-1.742,3.403h-4.203l8.407-15.486h3.818l9.51,15.486H107.077L107.077,16.929z
			 M98.398,10.298h4.922l-2.557-4.732L98.398,10.298L98.398,10.298z"/>
	</g>
</g>
<g id="Layer_4">
</g>
</svg>
