<?xml version="1.0" encoding="utf-8"?>
<!-- Generator: Adobe Illustrator 18.0.0, SVG Export Plug-In . SVG Version: 6.00 Build 0)  -->
<!DOCTYPE svg PUBLIC "-//W3C//DTD SVG 1.1//EN" "http://www.w3.org/Graphics/SVG/1.1/DTD/svg11.dtd">
<svg version="1.1" xmlns="http://www.w3.org/2000/svg" xmlns:xlink="http://www.w3.org/1999/xlink" x="0px" y="0px" width="165px"
	 height="50px" viewBox="0 0 165 50" style="enable-background:new 0 0 165 50;" xml:space="preserve">
<style type="text/css">
	.st0{display:none;}
	.st1{display:inline;}
	.st2{fill:#ED2D27;}
	.st3{display:inline;fill:#F8B900;}
	.st4{display:inline;fill:#00235F;}
	.st5{fill:url(#SVGID_1_);}
	.st6{fill:#006CB6;}
	.st7{fill:url(#SVGID_2_);}
	.st8{fill:url(#SVGID_3_);}
	.st9{fill:url(#SVGID_4_);}
	.st10{fill:url(#SVGID_5_);}
	.st11{fill:url(#SVGID_6_);}
	.st12{fill-rule:evenodd;clip-rule:evenodd;fill:#FFFFFF;}
	.st13{fill-rule:evenodd;clip-rule:evenodd;fill:#E2231A;}
	.st14{fill:#FFFFFF;}
	.st15{fill-rule:evenodd;clip-rule:evenodd;fill:#001689;}
	.st16{fill:#00529B;}
	.st17{fill:#F47920;}
	.st18{fill:url(#SVGID_7_);}
	.st19{fill:url(#SVGID_8_);}
	.st20{fill:url(#SVGID_9_);}
	.st21{fill:url(#SVGID_10_);}
	.st22{fill:url(#SVGID_11_);}
	.st23{fill:url(#SVGID_12_);}
	.st24{fill:url(#SVGID_13_);}
	.st25{fill:#00054C;}
	.st26{fill:url(#path3364_3_);}
	.st27{fill:url(#path3366_3_);}
	.st28{fill:#22356B;}
	.st29{fill:#FCC210;}
	.st30{fill:#ED1C24;}
	.st31{display:inline;fill:url(#SVGID_14_);}
	.st32{fill:#002157;}
	.st33{fill:#CC2234;}
	.st34{fill:#E23546;}
	.st35{fill:#FCB130;}
	.st36{fill:#1D4886;}
	.st37{display:inline;fill:none;}
	.st38{display:inline;fill:#005DAA;}
	.st39{fill:#005DAA;}
	.st40{fill:#00A1E4;}
	.st41{fill:#00704A;}
	.st42{fill:#B10D28;}
	.st43{fill:#D31245;}
	.st44{fill:url(#path70_3_);}
	.st45{fill:url(#SVGID_15_);}
	.st46{fill:url(#SVGID_16_);}
	.st47{fill:#231916;}
	.st48{fill:#E60013;}
	.st49{fill:#C0231E;}
	.st50{fill:#014E84;}
	.st51{fill:#BA783E;}
	.st52{fill:#002052;}
	.st53{fill:#0093D0;}
	.st54{fill:#ED1B2F;}
	.st55{fill:#E3242B;}
	.st56{fill-rule:evenodd;clip-rule:evenodd;fill:#034EA2;}
	.st57{fill-rule:evenodd;clip-rule:evenodd;fill:#E11837;}
	.st58{fill:#034EA2;}
	.st59{opacity:0.8902;fill:#EB151C;}
	.st60{fill:#1A1A1A;}
	.st61{enable-background:new    ;}
	.st62{fill:#FF6600;}
	.st63{clip-path:url(#SVGID_18_);fill:url(#SVGID_19_);}
	.st64{fill:url(#SVGID_20_);}
	.st65{fill:#B2DB1F;}
	.st66{fill:#FA002C;}
	.st67{fill:#1C2D5B;}
	.st68{fill:#1C4E9D;}
	.st69{fill:#ED192D;}
	.st70{display:inline;fill:#FFFFFF;}
	.st71{display:inline;fill:#00529B;}
	.st72{display:inline;fill:#F47920;}
	.st73{display:inline;fill:url(#SVGID_21_);}
	.st74{display:inline;fill:url(#SVGID_22_);}
	.st75{display:inline;fill:url(#SVGID_23_);}
	.st76{display:inline;fill:url(#SVGID_24_);}
	.st77{display:inline;fill:url(#SVGID_25_);}
	.st78{display:inline;fill:url(#SVGID_26_);}
	.st79{display:inline;fill:url(#SVGID_27_);}
	.st80{display:inline;fill:url(#path3364_4_);}
	.st81{display:inline;fill:url(#path3366_4_);}
	.st82{display:inline;fill:url(#SVGID_28_);}
	.st83{display:inline;fill:url(#SVGID_29_);}
	.st84{display:inline;fill:url(#SVGID_30_);}
	.st85{display:inline;opacity:0.75;fill:#FFFFFF;}
	.st86{display:inline;fill:#ED1B2F;}
	.st87{opacity:0.8902;fill:#FFFFFF;}
	.st88{clip-path:url(#SVGID_32_);fill:#FFFFFF;}
	.st89{fill:url(#SVGID_33_);}
	.st90{fill:url(#SVGID_34_);}
	.st91{fill:url(#SVGID_35_);}
	.st92{fill:url(#SVGID_36_);}
	.st93{fill:url(#SVGID_37_);}
	.st94{fill:url(#SVGID_38_);}
	.st95{fill:url(#SVGID_39_);}
	.st96{fill:url(#SVGID_40_);}
	.st97{clip-path:url(#SVGID_42_);fill:url(#SVGID_43_);}
	.st98{fill:url(#SVGID_44_);}
	.st99{fill:url(#path70_5_);}
	.st100{fill:url(#SVGID_45_);}
	.st101{fill:url(#SVGID_46_);}
	.st102{fill:#F8B900;}
	.st103{fill:#00235F;}
	.st104{fill:url(#SVGID_47_);}
	.st105{fill:url(#SVGID_48_);}
	.st106{fill:url(#SVGID_49_);}
	.st107{fill:url(#SVGID_50_);}
	.st108{fill:url(#SVGID_51_);}
	.st109{fill:url(#SVGID_52_);}
	.st110{opacity:0.8902;fill:#EB151C;enable-background:new    ;}
	.st111{fill:#E11837;}
	.st112{fill:#E2231A;}
	.st113{fill:#001689;}
	.st114{fill:#EF3E34;}
	.st115{fill:#4D82C4;}
	.st116{fill:#8C7035;}
	.st117{fill:#5FBA45;}
	.st118{fill:#008F7E;}
	.st119{fill:#004595;}
	.st120{fill:#FFED00;}
	.st121{fill:#E53138;}
	.st122{fill:url(#SVGID_53_);}
	.st123{fill:url(#SVGID_54_);}
	.st124{fill:url(#SVGID_55_);}
	.st125{fill:url(#SVGID_56_);}
	.st126{fill:#11185E;}
	.st127{fill:#EE3024;}
	.st128{fill:#0675CC;}
	.st129{fill:#E2001A;}
	.st130{fill:#009036;}
	.st131{fill:#0B1560;}
	.st132{fill:#0070AF;}
	.st133{fill:#0F2C64;}
	.st134{fill:#EF001E;}
	.st135{fill:#1C2A8D;}
	.st136{fill:#334357;}
	.st137{fill:url(#SVGID_57_);}
	.st138{fill:#ED1B28;}
	.st139{fill:#1E5AAF;}
	.st140{fill:#991933;}
	.st141{fill:#E01933;}
	.st142{fill:#003366;}
	.st143{fill:#00265D;}
	.st144{fill:#003263;}
	.st145{fill:#EE452A;}
	.st146{fill:#011F65;}
	.st147{fill:#EC2227;}
	.st148{fill:#010101;}
	.st149{fill:#FCEE21;}
	.st150{fill:#18488B;}
	.st151{fill:#EC2427;}
	.st152{fill:#D09B2B;}
	.st153{fill:#156192;}
	.st154{fill:#021A31;}
	.st155{fill:#008E8F;}
	.st156{fill:#2B438F;}
	.st157{fill:#363F9E;}
	.st158{fill:#00ABBF;}
</style>
<g id="Layer_1" class="st0">
</g>
<g id="Layer_2" class="st0">
</g>
<g id="Layer_3">
</g>
<g id="Layer_4">
	<polygon class="st149" points="41.161,49.995 47.664,49.995 68.682,0 62.117,0 	"/>
	<path class="st150" d="M67.821,21.812l0.614-1.493c0.09-0.237,0.35-0.496,0.586-0.496h16.7c0.351,0,0.558,0.378,0.44,0.614
		l-0.675,1.64c-0.175,0.382-0.419,0.643-0.886,0.675h-3.362c-0.204,0-0.615,0.35-0.7,0.586l-5.099,12.334
		c-0.09,0.265-0.557,0.733-0.88,0.733h-6.71c-0.321,0-0.675-0.353-0.529-0.703l5.363-12.629c0.057-0.118-0.235-0.321-0.293-0.321
		h-3.899C68.025,22.752,67.584,22.313,67.821,21.812L67.821,21.812z"/>
	<path class="st150" d="M90.527,30.603l-1.818,2.726h1.876l-0.378,2.226c-0.089,0.615-0.033,0.851,0.497,0.851h4.777
		c0.467,0,1.025-0.382,1.11-0.851l2.553-15.06c0.055-0.411-0.208-0.614-0.53-0.614h-9.258c-0.293,0-0.675,0.203-0.821,0.44
		L78.161,35.583c-0.175,0.264,0.089,0.822,0.586,0.822h5.746c0.845,0,1.139-0.089,1.696-0.822l5.421-8.35l-0.526,3.37L90.527,30.603
		L90.527,30.603z"/>
	<path class="st150" d="M108.193,31.802l1.26-2.985h0.35c0.295,0,0.649-0.293,0.766-0.586l1.96-4.632
		c0.091-0.203-0.089-0.586-0.291-0.586h-1.231l-5.628,13.393H98.67c-0.467,0-1.054-0.382-0.878-0.879l6.332-15.004
		c0.291-0.671,0.732-0.643,1.025-0.643h10.018h0.029h3.369c1.318,0,2.315,1.29,1.759,2.727l-2.814,6.56
		c-0.291,0.822-1.318,1.584-2.344,1.584c0.704,0.585,0.969,2.462,0.643,3.312l-0.586,1.493c-0.175,0.411-0.79,0.851-1.229,0.851
		h-5.539c-0.439,0-0.878-0.586-0.671-1.025l0.994-2.345c0.263-0.647-0.204-1.2-0.38-1.2L108.193,31.802L108.193,31.802z"/>
	<path class="st150" d="M148.98,27.029l-0.146-6.536c0-0.293-0.469-0.614-0.704-0.614h-5.568c-0.409,0-0.76,0-1.024,0.586
		l-6.3,14.915c-0.293,0.671,0.176,1.025,0.675,1.025h5.799c0.558,0,1.201-0.411,1.436-0.969l2.463-5.917l0.495,6.035
		c0.028,0.936,1.054,0.497,1.437,0l4.806-6.356l-2.491,6.238c-0.293,0.822,0.558,0.969,1.025,0.969h5.303
		c0.497,0,1.025-0.44,1.229-0.907l5.685-14.74c0.147-0.439-0.146-0.879-0.524-0.879h-7.532c-0.441,0-0.879,0.237-1.144,0.614
		L148.98,27.029L148.98,27.029z"/>
	<path class="st150" d="M137.61,19.879h-12.571c-0.732,0-1.61,0.236-1.904,0.879l-5.242,12.396
		c-0.471,1.172,0.673,3.251,1.845,3.251h11.076c1.112,0,2.575-0.907,2.987-1.932l5.127-12.193
		C139.25,21.547,138.518,19.879,137.61,19.879z M131.079,23.863l-3.605,8.614c-0.147,0.351-0.616,0.677-1.027,0.677h-0.586
		c-0.237,0-0.586-0.5-0.467-0.766l3.635-8.525c0.146-0.378,0.585-0.761,1.024-0.761h0.672
		C130.962,23.102,131.193,23.631,131.079,23.863z"/>
	<path class="st150" d="M67.688,42.285l-0.342,0.07v-3.972h0.642c0.376,0,0.678,0.104,0.904,0.314
		c0.227,0.209,0.34,0.488,0.34,0.837c0,0.297-0.084,0.547-0.252,0.748c-0.17,0.203-0.395,0.326-0.676,0.369l1.202,1.493
		l-0.315,0.196l-1.501-1.968l0.272,0.004c0.284,0,0.504-0.072,0.663-0.219c0.158-0.147,0.238-0.351,0.238-0.612
		c0-0.262-0.079-0.466-0.238-0.613c-0.159-0.147-0.38-0.22-0.663-0.22h-0.272v3.572H67.688z"/>
	<path class="st150" d="M74.729,39.516c-0.11-0.255-0.268-0.479-0.476-0.671c-0.192-0.183-0.405-0.319-0.64-0.411
		c-0.235-0.092-0.488-0.137-0.76-0.137c-0.274,0-0.53,0.046-0.768,0.139c-0.238,0.093-0.452,0.229-0.639,0.409
		c-0.202,0.192-0.359,0.419-0.472,0.68c-0.112,0.26-0.168,0.53-0.168,0.808c0,0.276,0.056,0.544,0.168,0.808
		c0.113,0.262,0.27,0.49,0.472,0.683c0.188,0.179,0.401,0.315,0.639,0.409c0.238,0.093,0.494,0.139,0.768,0.139
		c0.274,0,0.528-0.047,0.764-0.139c0.236-0.094,0.448-0.229,0.636-0.409c0.201-0.19,0.357-0.416,0.469-0.679
		c0.114-0.263,0.17-0.535,0.17-0.812C74.892,40.043,74.838,39.771,74.729,39.516z M74.046,41.547
		c-0.327,0.329-0.727,0.493-1.198,0.493c-0.473,0-0.872-0.164-1.199-0.491c-0.326-0.327-0.489-0.732-0.489-1.216
		c0-0.484,0.165-0.89,0.493-1.219c0.328-0.329,0.728-0.492,1.201-0.492c0.471,0,0.87,0.164,1.196,0.492
		c0.326,0.329,0.49,0.735,0.49,1.219C74.538,40.813,74.374,41.219,74.046,41.547z"/>
	<path class="st150" d="M76.595,42.366l-0.337-0.075l0.81-4.039l1.321,3.252l1.327-3.252l0.804,4.039l-0.337,0.075l-0.581-2.962
		l-1.213,2.962l-1.212-2.962L76.595,42.366z"/>
	<path class="st150" d="M83.613,38.263L81.57,42.23l0.328,0.094l0.826-1.605h1.739l0.81,1.605l0.336-0.103L83.613,38.263z
		 M82.896,40.393l0.7-1.407l0.707,1.407H82.896z"/>
	<path class="st150" d="M87.328,42.285l-0.343,0.076v-4.045l2.637,3.145v-3.077l0.342-0.068v4.045l-2.637-3.158V42.285z"/>
	<path class="st150" d="M92.188,42.285l-0.354,0.05v-3.952l0.354-0.051V42.285z"/>
	<path class="st150" d="M95.629,38.263l-2.045,3.967l0.327,0.094l0.827-1.605h1.739l0.81,1.605l0.337-0.103L95.629,38.263z
		 M94.911,40.393l0.701-1.407l0.706,1.407H94.911z"/>
	<path class="st150" d="M99.343,42.285l-0.341,0.076v-4.045l2.636,3.145v-3.077l0.341-0.068v4.045l-2.636-3.158V42.285z"/>
	<path class="st150" d="M108.105,38.263l-2.045,3.967l0.329,0.094l0.827-1.605h1.737l0.81,1.605l0.337-0.103L108.105,38.263z
		 M107.387,40.393l0.701-1.407l0.708,1.407H107.387z"/>
	<path class="st150" d="M111.853,42.285l-0.353,0.05v-3.952l0.353-0.051V42.285z"/>
	<path class="st150" d="M114.076,42.285l-0.343,0.07v-3.972h0.643c0.376,0,0.677,0.104,0.905,0.314
		c0.225,0.209,0.338,0.488,0.338,0.837c0,0.297-0.085,0.547-0.253,0.748c-0.169,0.203-0.394,0.326-0.675,0.369l1.201,1.493
		l-0.313,0.196l-1.503-1.968l0.272,0.004c0.284,0,0.506-0.072,0.664-0.219c0.159-0.147,0.238-0.351,0.238-0.612
		c0-0.262-0.079-0.466-0.238-0.613c-0.158-0.147-0.379-0.22-0.664-0.22h-0.272L114.076,42.285L114.076,42.285z"/>
	<path class="st150" d="M121.161,42.285l-0.349,0.05v-3.616h-1.082l0.088-0.336h2.338v0.336h-0.996V42.285z"/>
	<path class="st150" d="M124.085,42.285l-0.342,0.07v-3.972h0.642c0.376,0,0.678,0.104,0.905,0.314
		c0.226,0.209,0.338,0.488,0.338,0.837c0,0.297-0.083,0.547-0.252,0.748c-0.169,0.203-0.394,0.326-0.675,0.369l1.202,1.493
		l-0.315,0.196l-1.503-1.968l0.273,0.004c0.283,0,0.504-0.072,0.665-0.219c0.157-0.147,0.237-0.351,0.237-0.612
		c0-0.262-0.079-0.466-0.237-0.613c-0.16-0.147-0.381-0.22-0.665-0.22h-0.273L124.085,42.285L124.085,42.285z"/>
	<path class="st150" d="M129.037,38.263l-2.045,3.967l0.327,0.094l0.827-1.605h1.739l0.81,1.605l0.336-0.103L129.037,38.263z
		 M128.32,40.393l0.701-1.407l0.707,1.407H128.32z"/>
	<path class="st150" d="M132.751,42.285l-0.343,0.076v-4.045l2.636,3.145v-3.077l0.343-0.068v4.045l-2.637-3.158V42.285z"/>
	<path class="st150" d="M137.085,41.671l0.282-0.206c0.116,0.188,0.252,0.328,0.409,0.423c0.157,0.094,0.333,0.141,0.53,0.141
		c0.254,0,0.461-0.072,0.624-0.216s0.248-0.327,0.248-0.548c0-0.368-0.312-0.644-0.935-0.831c-0.066-0.018-0.115-0.033-0.148-0.045
		c-0.32-0.097-0.553-0.228-0.701-0.393c-0.148-0.166-0.222-0.379-0.222-0.64c0-0.294,0.11-0.544,0.332-0.748
		c0.221-0.204,0.5-0.306,0.835-0.306c0.207,0,0.393,0.036,0.556,0.108c0.164,0.072,0.331,0.19,0.497,0.352l-0.228,0.264
		c-0.15-0.142-0.29-0.243-0.42-0.305c-0.132-0.059-0.274-0.09-0.427-0.09c-0.218,0-0.405,0.071-0.558,0.214
		c-0.153,0.142-0.228,0.313-0.228,0.516c0,0.125,0.03,0.236,0.088,0.331c0.059,0.094,0.148,0.174,0.271,0.239
		c0.09,0.05,0.253,0.109,0.488,0.177c0.131,0.037,0.229,0.067,0.299,0.089c0.286,0.099,0.502,0.234,0.648,0.406
		c0.145,0.173,0.215,0.381,0.215,0.626c0,0.322-0.116,0.593-0.35,0.809c-0.234,0.216-0.531,0.325-0.89,0.325
		c-0.249,0-0.479-0.06-0.69-0.181C137.401,42.064,137.227,41.893,137.085,41.671z"/>
	<path class="st150" d="M142.905,38.74c-0.251-0.238-0.583-0.357-0.998-0.357h-0.654v3.972l0.343-0.07v-1.293h0.311
		c0.415,0,0.748-0.12,0.998-0.358c0.251-0.239,0.376-0.554,0.376-0.947C143.281,39.294,143.155,38.977,142.905,38.74z
		 M142.656,40.401c-0.18,0.173-0.432,0.259-0.755,0.259h-0.306v-1.948h0.306c0.323,0,0.575,0.086,0.755,0.259
		c0.181,0.173,0.272,0.411,0.272,0.715C142.927,39.991,142.837,40.229,142.656,40.401z"/>
	<path class="st150" d="M148.711,39.516c-0.109-0.255-0.268-0.479-0.476-0.671c-0.191-0.183-0.405-0.319-0.64-0.411
		c-0.235-0.092-0.488-0.137-0.76-0.137c-0.275,0-0.53,0.046-0.767,0.139c-0.239,0.093-0.451,0.229-0.64,0.409
		c-0.202,0.192-0.359,0.419-0.471,0.68c-0.112,0.26-0.167,0.53-0.167,0.808c0,0.276,0.055,0.544,0.167,0.808
		c0.112,0.262,0.269,0.49,0.471,0.683c0.189,0.179,0.401,0.315,0.64,0.409c0.238,0.093,0.493,0.139,0.767,0.139
		c0.274,0,0.529-0.047,0.765-0.139c0.237-0.094,0.447-0.229,0.636-0.409c0.2-0.19,0.357-0.416,0.47-0.679
		c0.114-0.263,0.17-0.535,0.17-0.812C148.875,40.043,148.82,39.771,148.711,39.516z M148.03,41.547
		c-0.328,0.329-0.729,0.493-1.2,0.493c-0.471,0-0.872-0.164-1.198-0.491c-0.327-0.327-0.489-0.732-0.489-1.216
		c0-0.484,0.164-0.89,0.492-1.219c0.327-0.329,0.728-0.492,1.201-0.492c0.472,0,0.871,0.164,1.196,0.492
		c0.327,0.329,0.49,0.735,0.49,1.219C148.521,40.813,148.357,41.219,148.03,41.547z"/>
	<path class="st150" d="M150.897,42.285l-0.343,0.07v-3.972h0.644c0.375,0,0.677,0.104,0.903,0.314
		c0.225,0.209,0.34,0.488,0.34,0.837c0,0.297-0.085,0.547-0.253,0.748c-0.169,0.203-0.395,0.326-0.677,0.369l1.202,1.493
		l-0.314,0.196l-1.503-1.968l0.272,0.004c0.284,0,0.506-0.072,0.666-0.219c0.157-0.147,0.237-0.351,0.237-0.612
		c0-0.262-0.079-0.466-0.237-0.613c-0.16-0.147-0.381-0.22-0.666-0.22h-0.272V42.285z"/>
	<path class="st150" d="M155.265,42.285l-0.348,0.05v-3.616h-1.082l0.086-0.336h2.339v0.336h-0.996L155.265,42.285L155.265,42.285z"
		/>
	<polygon class="st151" points="46.351,49.995 49.229,49.995 70.246,0 67.306,0 	"/>
	<polygon class="st150" points="1.278,50 41.566,50 41.954,49.97 42.308,49.88 42.663,49.703 43.021,49.492 43.348,49.256 
		43.616,48.96 43.851,48.635 43.999,48.276 63.479,1.724 63.594,1.365 63.628,1.068 63.594,0.771 63.508,0.504 63.331,0.297 
		63.092,0.149 62.824,0.029 62.469,0 46.671,0 46.346,0.058 46.019,0.178 45.694,0.355 45.397,0.594 44.803,1.13 44.238,1.724 
		0.268,48.276 0.091,48.574 0,48.87 0.029,49.138 0.148,49.405 0.355,49.641 0.623,49.851 0.92,49.97 	"/>
	<path class="st14" d="M36.548,17.429c-6.575,0-11.954,5.351-11.954,11.892c0,6.574,5.379,11.926,11.954,11.926
		c6.546,0,11.863-5.351,11.863-11.926C48.41,22.78,43.094,17.429,36.548,17.429z M36.548,40.349c-4.304,0-8.011-2.448-9.862-6.006
		c0.955-0.148,1.793-0.299,2.719-0.27c0.81,0.03,1.644,0.091,2.511,0.328l9.472,4.666l-5.109-4.185l9.385,0.536
		C43.691,38.407,40.312,40.349,36.548,40.349z M35.771,33.177l8.098-12.012c2.213,2.03,3.645,4.96,3.645,8.157
		c0,2.125-0.564,4.005-1.581,5.711L35.771,33.177z"/>
	<path class="st150" d="M31.708,32.459c-0.959-0.116-1.494-0.265-2.275-0.178c-0.897,0.063-2.121,0.868-2.898,1.706
		c-0.656-1.407-1.016-2.989-1.016-4.665c0-6.036,4.931-10.996,11.028-10.996c2.598,0,5.051,0.955,6.931,2.511L31.708,32.459
		L31.708,32.459z"/>
</g>
</svg>
