<?xml version="1.0" encoding="utf-8"?>
<!-- Generator: Adobe Illustrator 18.0.0, SVG Export Plug-In . SVG Version: 6.00 Build 0)  -->
<!DOCTYPE svg PUBLIC "-//W3C//DTD SVG 1.1//EN" "http://www.w3.org/Graphics/SVG/1.1/DTD/svg11.dtd">
<svg version="1.1" xmlns="http://www.w3.org/2000/svg" xmlns:xlink="http://www.w3.org/1999/xlink" x="0px" y="0px" width="200px"
	 height="31.624px" viewBox="0 0 200 31.624" style="enable-background:new 0 0 200 31.624;" xml:space="preserve">
<style type="text/css">
	.st0{display:none;}
	.st1{display:inline;}
	.st2{fill:#ED2D27;}
	.st3{display:inline;fill:#F8B900;}
	.st4{display:inline;fill:#00235F;}
	.st5{fill:url(#SVGID_1_);}
	.st6{fill:#006CB6;}
	.st7{fill:url(#SVGID_2_);}
	.st8{fill:url(#SVGID_3_);}
	.st9{fill:url(#SVGID_4_);}
	.st10{fill:url(#SVGID_5_);}
	.st11{fill:url(#SVGID_6_);}
	.st12{fill-rule:evenodd;clip-rule:evenodd;fill:#FFFFFF;}
	.st13{fill-rule:evenodd;clip-rule:evenodd;fill:#E2231A;}
	.st14{fill:#FFFFFF;}
	.st15{fill-rule:evenodd;clip-rule:evenodd;fill:#001689;}
	.st16{fill:#00529B;}
	.st17{fill:#F47920;}
	.st18{fill:url(#SVGID_7_);}
	.st19{fill:url(#SVGID_8_);}
	.st20{fill:url(#SVGID_9_);}
	.st21{fill:url(#SVGID_10_);}
	.st22{fill:url(#SVGID_11_);}
	.st23{fill:url(#SVGID_12_);}
	.st24{fill:url(#SVGID_13_);}
	.st25{fill:#00054C;}
	.st26{fill:url(#path3364_3_);}
	.st27{fill:url(#path3366_3_);}
	.st28{fill:#22356B;}
	.st29{fill:#FCC210;}
	.st30{fill:#ED1C24;}
	.st31{display:inline;fill:url(#SVGID_14_);}
	.st32{fill:#002157;}
	.st33{fill:#CC2234;}
	.st34{fill:#E23546;}
	.st35{fill:#FCB130;}
	.st36{fill:#1D4886;}
	.st37{display:inline;fill:none;}
	.st38{display:inline;fill:#005DAA;}
	.st39{fill:#005DAA;}
	.st40{fill:#00A1E4;}
	.st41{fill:#00704A;}
	.st42{fill:#B10D28;}
	.st43{fill:#D31245;}
	.st44{fill:url(#path70_3_);}
	.st45{fill:url(#SVGID_15_);}
	.st46{fill:url(#SVGID_16_);}
	.st47{fill:#231916;}
	.st48{fill:#E60013;}
	.st49{fill:#C0231E;}
	.st50{fill:#014E84;}
	.st51{fill:#BA783E;}
	.st52{fill:#002052;}
	.st53{fill:#0093D0;}
	.st54{fill:#ED1B2F;}
	.st55{fill:#E3242B;}
	.st56{fill-rule:evenodd;clip-rule:evenodd;fill:#034EA2;}
	.st57{fill-rule:evenodd;clip-rule:evenodd;fill:#E11837;}
	.st58{fill:#034EA2;}
	.st59{opacity:0.8902;fill:#EB151C;}
	.st60{fill:#1A1A1A;}
	.st61{enable-background:new    ;}
	.st62{fill:#FF6600;}
	.st63{clip-path:url(#SVGID_18_);fill:url(#SVGID_19_);}
	.st64{fill:url(#SVGID_20_);}
	.st65{fill:#B2DB1F;}
	.st66{fill:#FA002C;}
	.st67{fill:#1C2D5B;}
	.st68{fill:#1C4E9D;}
	.st69{fill:#ED192D;}
	.st70{display:inline;fill:#FFFFFF;}
	.st71{display:inline;fill:#00529B;}
	.st72{display:inline;fill:#F47920;}
	.st73{display:inline;fill:url(#SVGID_21_);}
	.st74{display:inline;fill:url(#SVGID_22_);}
	.st75{display:inline;fill:url(#SVGID_23_);}
	.st76{display:inline;fill:url(#SVGID_24_);}
	.st77{display:inline;fill:url(#SVGID_25_);}
	.st78{display:inline;fill:url(#SVGID_26_);}
	.st79{display:inline;fill:url(#SVGID_27_);}
	.st80{display:inline;fill:url(#path3364_4_);}
	.st81{display:inline;fill:url(#path3366_4_);}
	.st82{display:inline;fill:url(#SVGID_28_);}
	.st83{display:inline;fill:url(#SVGID_29_);}
	.st84{display:inline;fill:url(#SVGID_30_);}
	.st85{display:inline;opacity:0.75;fill:#FFFFFF;}
	.st86{display:inline;fill:#ED1B2F;}
	.st87{opacity:0.8902;fill:#FFFFFF;}
	.st88{clip-path:url(#SVGID_32_);fill:#FFFFFF;}
	.st89{fill:url(#SVGID_33_);}
	.st90{fill:url(#SVGID_34_);}
	.st91{fill:url(#SVGID_35_);}
	.st92{fill:url(#SVGID_36_);}
	.st93{fill:url(#SVGID_37_);}
	.st94{fill:url(#SVGID_38_);}
	.st95{fill:url(#SVGID_39_);}
	.st96{fill:url(#SVGID_40_);}
	.st97{clip-path:url(#SVGID_42_);fill:url(#SVGID_43_);}
	.st98{fill:url(#SVGID_44_);}
	.st99{fill:url(#path70_5_);}
	.st100{fill:url(#SVGID_45_);}
	.st101{fill:url(#SVGID_46_);}
	.st102{fill:#F8B900;}
	.st103{fill:#00235F;}
	.st104{fill:url(#SVGID_47_);}
	.st105{fill:url(#SVGID_48_);}
	.st106{fill:url(#SVGID_49_);}
	.st107{fill:url(#SVGID_50_);}
	.st108{fill:url(#SVGID_51_);}
	.st109{fill:url(#SVGID_52_);}
	.st110{opacity:0.8902;fill:#EB151C;enable-background:new    ;}
	.st111{fill:#E11837;}
	.st112{fill:#E2231A;}
	.st113{fill:#001689;}
	.st114{fill:#EF3E34;}
	.st115{fill:#4D82C4;}
	.st116{fill:#8C7035;}
	.st117{fill:#5FBA45;}
	.st118{fill:#008F7E;}
	.st119{fill:#004595;}
	.st120{fill:#FFED00;}
	.st121{fill:#E53138;}
	.st122{fill:url(#SVGID_53_);}
	.st123{fill:url(#SVGID_54_);}
	.st124{fill:url(#SVGID_55_);}
	.st125{fill:url(#SVGID_56_);}
	.st126{fill:#11185E;}
	.st127{fill:#EE3024;}
	.st128{fill:#0675CC;}
	.st129{fill:#E2001A;}
	.st130{fill:#009036;}
	.st131{fill:#0B1560;}
	.st132{fill:#0070AF;}
	.st133{fill:#0F2C64;}
	.st134{fill:#EF001E;}
	.st135{fill:#1C2A8D;}
	.st136{fill:#334357;}
	.st137{fill:url(#SVGID_57_);}
	.st138{fill:#ED1B28;}
	.st139{fill:#1E5AAF;}
	.st140{fill:#991933;}
	.st141{fill:#E01933;}
	.st142{fill:#003366;}
	.st143{fill:#00265D;}
	.st144{fill:#003263;}
	.st145{fill:#EE452A;}
	.st146{fill:#011F65;}
	.st147{fill:#EC2227;}
	.st148{fill:#010101;}
	.st149{fill:#FCEE21;}
	.st150{fill:#18488B;}
	.st151{fill:#EC2427;}
	.st152{fill:#D09B2B;}
	.st153{fill:#156192;}
	.st154{fill:#021A31;}
	.st155{fill:#008E8F;}
	.st156{fill:#2B438F;}
	.st157{fill:#363F9E;}
	.st158{fill:#00ABBF;}
</style>
<g id="Layer_1" class="st0">
</g>
<g id="Layer_2" class="st0">
</g>
<g id="Layer_3">
	<g>
		<g>
			<path class="st58" d="M188.456,23.13c-4.547,0-7.203-3.428-6.127-7.724h5.91c-0.127,1.185,0.684,2.085,1.991,2.085
				c1.307,0,2.683-0.899,3.302-2.085h5.91C197.816,19.702,193.004,23.13,188.456,23.13L188.456,23.13L188.456,23.13z
				 M182.797,14.019c1.755-4.119,6.42-7.35,10.836-7.35c4.416,0,7.048,3.231,6.214,7.35h-5.986c-0.064-0.996-0.836-1.711-2-1.711
				c-1.167,0-2.388,0.716-3.078,1.711H182.797L182.797,14.019L182.797,14.019z"/>
			<path class="st58" d="M35.658,7.526h14.457l-1.391,4.423h-3.657l-0.651,2.069h-7.142l0.651-2.069h-3.657L35.658,7.526
				L35.658,7.526L35.658,7.526z M43.98,15.406l-2.205,7.012h-7.143l2.205-7.012L43.98,15.406L43.98,15.406L43.98,15.406z"/>
			<path class="st58" d="M52.49,7.526l-2.043,6.493h7.143l0.651-2.069h1.903c1.211,0,1.422,0.577,1.224,1.209
				c-0.101,0.325-0.303,0.645-0.693,0.86h5.662c0.23-0.451,0.37-0.867,0.497-1.197c1.037-2.703-0.231-5.296-4.151-5.296L52.49,7.526
				L52.49,7.526L52.49,7.526z M50.012,15.406l-2.204,7.012h7.142l1.661-5.283l2.124,5.283h6.046l-2.013-5.011
				c1.171-0.482,2.037-1.222,2.67-2.001L50.012,15.406L50.012,15.406L50.012,15.406z"/>
			<path class="st58" d="M82.699,7.526h-0.433h-5.614H76.22l-4.613,6.493h11.819L82.699,7.526L82.699,7.526L82.699,7.526z
				 M70.622,15.406l-4.979,7.012h6.046l1.751-2.465h4.604l0.277,2.465h6.046l-0.785-7.012h-6.046l0.125,1.116h-1.784l0.792-1.116
				H70.622L70.622,15.406L70.622,15.406z"/>
			<path class="st58" d="M107.862,7.526h-7.142L99.627,11L97.98,7.526h-1.858h-3.567h-1.717l-2.042,6.493h17.024L107.862,7.526
				L107.862,7.526L107.862,7.526z M88.36,15.406l-2.204,7.012h7.141l1.094-3.479l1.648,3.474l-0.002,0.005h0.004h1.858h2.169h1.858
				h1.253l2.206-7.012L88.36,15.406L88.36,15.406L88.36,15.406z"/>
			<path class="st58" d="M122.496,11.95h6.305c1.02-3.237-4.902-5.085-8.51-5.093c-3.565-0.008-8.853,0.669-9.914,4.251
				c-0.366,1.233-0.224,2.187,0.296,2.912h13.575c-1.085-0.364-2.389-0.535-3.634-0.614c-1.151-0.071-3.903,0.239-3.36-1.455
				c0.324-1.009,1.678-1.466,2.955-1.453C121.64,10.51,122.782,10.868,122.496,11.95L122.496,11.95L122.496,11.95z M112.756,15.406
				c1.131,0.387,2.557,0.56,4.12,0.576c1.517,0.017,3.113,0.234,2.604,1.847c-0.364,1.153-1.787,1.607-3.086,1.607
				c-1.246,0-3.129-0.433-2.764-1.607h-7.115c-0.801,2.545,3.394,5.187,8.808,5.187c4.453,0,9.821-0.599,11.246-5.187
				c0.317-1.022,0.195-1.812-0.22-2.423L112.756,15.406L112.756,15.406L112.756,15.406z"/>
			<path class="st58" d="M136.343,7.526h0.434h5.614h0.433l0.728,6.493h-11.82L136.343,7.526L136.343,7.526L136.343,7.526z
				 M143.706,15.406l0.786,7.012h-6.047l-0.276-2.465h-4.605l-1.752,2.465h-6.046l4.98-7.012h6.046l-0.792,1.116h1.784l-0.125-1.116
				H143.706L143.706,15.406L143.706,15.406z"/>
			<path class="st58" d="M163.004,7.526h-5.134v0h-7.143l-2.042,6.493h12.277c0.089-0.282,0.177-0.564,0.267-0.847h-5.136
				l0.384-1.223h5.136L163.004,7.526L163.004,7.526L163.004,7.526z M148.25,15.406l-2.205,7.012h5.993h1.149h5.136l1.39-4.424
				h-5.135l0.547-1.74h5.135c0.089-0.282,0.178-0.566,0.267-0.848L148.25,15.406L148.25,15.406L148.25,15.406z"/>
			<path class="st58" d="M166.606,7.526l-2.042,6.493h7.143l0.65-2.069h1.903c1.212,0,1.423,0.577,1.224,1.209
				c-0.101,0.325-0.303,0.645-0.693,0.86h5.662c0.231-0.451,0.371-0.867,0.497-1.197c1.037-2.703-0.23-5.296-4.151-5.296
				L166.606,7.526L166.606,7.526L166.606,7.526z M164.129,15.406l-2.205,7.012h7.142l1.661-5.283l2.124,5.283h6.046l-2.013-5.011
				c1.171-0.482,2.036-1.222,2.67-2.001L164.129,15.406L164.129,15.406L164.129,15.406z"/>
			<path class="st58" d="M155.938,29.652c-0.079,0-0.115,0.023-0.138,0.059c-0.016,0.023-0.1,0.099-0.218,0.257l-0.553,0.751
				c-0.042,0.057-0.118,0.138-0.158,0.276c-0.074,0.259,0.214,0.297,0.395,0.297c0.048,0,0.265-0.021,0.218,0.099
				c-0.03,0.076-0.099,0.099-0.237,0.099c-0.216,0-0.421-0.079-0.632-0.079c-0.278,0-0.551,0.079-0.829,0.079
				c-0.139,0-0.184-0.022-0.158-0.079c0.045-0.104,0.17-0.119,0.277-0.119c0.124,0,0.244-0.008,0.356-0.059
				c0.105-0.047,0.25-0.187,0.414-0.414l3.14-4.325c0.094-0.128,0.139-0.179,0.178-0.179c0.082,0,0.075,0.114,0.079,0.179
				l0.296,4.364c0.022,0.333,0.138,0.384,0.434,0.434c0.119,0.02,0.163,0.061,0.139,0.119c-0.016,0.041-0.079,0.06-0.159,0.06
				c-0.237,0-0.553-0.01-0.987,0c-0.434,0.008-0.751,0.019-0.988,0.019c-0.145,0-0.087-0.156,0.02-0.178
				c0.039-0.007,0.138-0.02,0.277-0.02c0.388,0,0.526-0.209,0.493-0.572l-0.079-0.85c-0.008-0.098,0-0.158-0.02-0.178
				c-0.02-0.02-0.098-0.039-0.198-0.039L155.938,29.652L155.938,29.652L155.938,29.652z M156.293,29.396h0.967
				c0.04,0,0.238,0.057,0.238-0.021c0,0,0.016-0.118,0-0.316l-0.098-1.243c-0.013-0.158,0-0.257-0.039-0.257
				c-0.039,0-0.114,0.095-0.217,0.237l-0.969,1.323c-0.075,0.102-0.177,0.168-0.177,0.256
				C155.996,29.462,156.227,29.396,156.293,29.396L156.293,29.396L156.293,29.396z M161.961,27.105
				c0.091-0.271-0.025-0.377-0.276-0.377c-0.075,0-0.32,0.002-0.296-0.118c0.017-0.086,0.119-0.118,0.237-0.118
				c0.25,0,0.5,0,0.751,0c0.342,0,0.684,0,1.026,0c0.118,0,0.181,0.04,0.158,0.099c-0.016,0.04-0.036,0.095-0.098,0.099
				c-0.364,0.017-0.681,0.03-0.809,0.414l-1.264,3.772c-0.114,0.341,0.017,0.381,0.296,0.414c0.047,0.006,0.331-0.023,0.276,0.099
				c-0.026,0.057-0.079,0.08-0.177,0.08c-0.218,0-0.515-0.01-0.929,0c-0.415,0.008-0.751,0.019-0.948,0.019
				c-0.098,0-0.127-0.018-0.119-0.099c0.012-0.091,0.157-0.099,0.218-0.099c0.3,0,0.556-0.035,0.672-0.375L161.961,27.105
				L161.961,27.105L161.961,27.105z M166.504,28.96c0.14,0,0.25,0.183,0.277,0.318l0.335,1.698c0.055,0.278,0.143,0.268,0.395,0.316
				c0.118,0.023,0.158,0.059,0.137,0.119c-0.019,0.06-0.079,0.079-0.137,0.079h-0.909c-0.058,0-0.095-0.021-0.119-0.079
				c-0.016-0.041-0.03-0.159-0.058-0.336l-0.297-1.836c-0.022-0.143-0.217-0.217-0.493-0.217c-0.218,0-0.34-0.009-0.416,0.217
				l-0.572,1.718c-0.11,0.329,0.143,0.304,0.375,0.317c0.159,0.007,0.215,0.059,0.197,0.118c-0.023,0.078-0.098,0.099-0.237,0.099
				c-0.28,0-0.55-0.046-0.829-0.046c-0.303,0-0.535,0.046-0.841,0.046c-0.138,0-0.275-0.021-0.265-0.059
				c0.039-0.15,0.234-0.088,0.355-0.099c0.291-0.026,0.477-0.151,0.573-0.435l1.283-3.791c0.105-0.309-0.004-0.414-0.296-0.414
				c-0.044,0-0.332,0.024-0.277-0.099c0.026-0.058,0.119-0.099,0.277-0.099c0.31,0,0.618,0,0.928,0c0.37,0,0.738,0,1.106,0
				c0.429,0,1,0.117,1.204,0.533c0.265,0.538-0.186,1.188-0.612,1.501C167.294,28.743,166.919,28.901,166.504,28.96L166.504,28.96
				L166.504,28.96z M165.931,27.105l-0.553,1.678c-0.025,0.078,0.021,0.119,0.179,0.119c0.356,0,0.686,0,1.027-0.138
				c0.433-0.176,0.763-0.57,0.908-1.008c0.118-0.354,0.099-0.632-0.059-0.83c-0.159-0.198-0.415-0.296-0.77-0.296
				c-0.179,0-0.298-0.004-0.376,0.02C166.103,26.707,165.985,26.939,165.931,27.105L165.931,27.105L165.931,27.105z M170.632,27.105
				c0.114-0.343-0.093-0.362-0.376-0.377c-0.159-0.006-0.216-0.062-0.192-0.138c0.023-0.077,0.113-0.098,0.271-0.098
				c0.277,0,0.553,0,0.829,0c0.29,0,0.58,0,0.869,0c0.158,0,0.224,0.057,0.212,0.114c-0.02,0.101-0.131,0.122-0.251,0.122
				c-0.153,0-0.313-0.011-0.454,0.06c-0.078,0.04-0.151,0.141-0.197,0.277l-1.205,3.574c-0.079,0.238-0.068,0.408,0,0.514
				c0.211,0.325,1.105,0.113,1.382-0.06c0.158-0.099,0.312-0.221,0.435-0.374c0.114-0.143,0.226-0.249,0.276-0.317
				c0.07-0.092,0.118-0.138,0.158-0.138c0.04,0,0.053,0.063,0.021,0.138c-0.145,0.323-0.247,0.706-0.454,0.988
				c-0.067,0.09-0.159,0.099-0.257,0.099h-3.023c-0.177,0-0.265-0.042-0.236-0.118c0.029-0.08,0.202-0.099,0.275-0.099
				c0.079,0,0.16,0.012,0.218,0c0.286-0.059,0.369-0.18,0.453-0.435L170.632,27.105L170.632,27.105L170.632,27.105z M175.213,27.105
				c0.093-0.276-0.014-0.377-0.296-0.377c-0.046,0-0.323,0-0.276-0.118c0.03-0.076,0.098-0.118,0.237-0.118c0.592,0,1.185,0,1.778,0
				c0.118,0,0.183,0.04,0.158,0.099c-0.033,0.074-0.098,0.1-0.17,0.109c-0.353,0.051-0.599-0.004-0.739,0.404l-1.283,3.772
				c-0.067,0.195-0.048,0.331,0.019,0.356c0.165,0.059,0.359,0.063,0.533,0.079c0.045,0.003,0.029,0.035,0.02,0.079
				c-0.011,0.059-0.078,0.08-0.158,0.08c-0.632,0-1.264,0.019-1.896,0.019c-0.08,0-0.144-0.021-0.118-0.099
				c0.013-0.042,0.035-0.074,0.078-0.079c0.126-0.016,0.334-0.025,0.455-0.039c0.198-0.025,0.32-0.194,0.375-0.357L175.213,27.105
				L175.213,27.105L175.213,27.105z M181.099,30.442l1.107-3.318c0.117-0.351-0.067-0.381-0.376-0.396
				c-0.12-0.004-0.196-0.04-0.177-0.098c0.026-0.083,0.118-0.119,0.217-0.119c0.453,0,0.908-0.019,1.363-0.019
				c0.118,0,0.16,0.059,0.138,0.138c-0.017,0.06-0.118,0.089-0.257,0.098c-0.324,0.023-0.533,0.048-0.652,0.396l-1.482,4.365
				c-0.026,0.077-0.04,0.118-0.099,0.118c-0.083,0-0.108-0.126-0.137-0.197l-1.897-4.425l-1.343,3.971
				c-0.046,0.136-0.035,0.229,0.06,0.277c0.063,0.032,0.177,0.059,0.355,0.059c0.073,0,0.199-0.016,0.178,0.08
				c-0.019,0.086-0.119,0.118-0.217,0.118c-0.229,0-0.444-0.079-0.672-0.079c-0.223,0-0.443,0.079-0.671,0.079
				c-0.139,0-0.198-0.04-0.158-0.118c0.019-0.04,0.079-0.08,0.217-0.08c0.138,0,0.258-0.019,0.316-0.019
				c0.196,0,0.326-0.266,0.376-0.415l1.264-3.752c0.111-0.335-0.062-0.377-0.356-0.377c-0.158,0-0.236-0.038-0.218-0.098
				c0.03-0.096,0.119-0.138,0.237-0.138h0.988c0.099,0,0.194,0.071,0.256,0.217L181.099,30.442L181.099,30.442L181.099,30.442z
				 M184.832,27.105c0.103-0.309,0.013-0.408-0.277-0.414c-0.056-0.002-0.322,0.023-0.277-0.099
				c0.034-0.095,0.158-0.139,0.355-0.139c0.08,0,0.297,0.011,0.651,0.019c0.337,0.011,0.693,0.021,1.008,0.021
				c0.56,0,1.12-0.04,1.678-0.04c0.211,0,0.222,0.048,0.158,0.238l-0.277,0.809c-0.026,0.077-0.058,0.119-0.098,0.119
				c-0.124,0-0.111-0.265-0.119-0.337c-0.056-0.495-0.527-0.591-0.948-0.591h-0.416c-0.216,0-0.373,0.002-0.473,0.038
				c-0.117,0.042-0.184,0.097-0.217,0.198l-0.474,1.422c-0.09,0.273,0.077,0.297,0.317,0.297h0.355c0.434,0,0.691-0.019,0.769-0.099
				c0.132-0.131,0.291-0.465,0.396-0.552c0.048-0.041,0.059-0.06,0.099-0.06c0.059,0,0.059,0.06,0.019,0.179
				c-0.07,0.21-0.175,0.423-0.253,0.635c-0.083,0.217-0.12,0.449-0.201,0.668c-0.053,0.14-0.099,0.216-0.158,0.216
				c-0.02,0-0.024-0.021-0.039-0.078c-0.022-0.077,0-0.323,0-0.414c0-0.209-0.184-0.208-0.355-0.219
				c-0.158-0.008-0.337-0.019-0.494-0.019h-0.375c-0.162,0-0.286,0.053-0.355,0.257l-0.514,1.521
				c-0.151,0.45,0.02,0.692,0.534,0.692h0.493c0.468,0,0.952-0.171,1.243-0.553c0.11-0.143,0.236-0.28,0.356-0.416
				c0.048-0.052,0.079-0.06,0.099-0.06c0.039,0,0.046,0.043,0.019,0.1l-0.454,0.968c-0.02,0.042-0.044,0.079-0.099,0.079h-3.239
				c-0.158,0-0.314,0.019-0.474,0.019c-0.118,0-0.181-0.02-0.157-0.078c0.016-0.042,0.118-0.046,0.296-0.059
				c0.309-0.025,0.512-0.157,0.613-0.455L184.832,27.105L184.832,27.105L184.832,27.105z M188.189,31.015l0.159-0.494
				c0.103-0.322,0.216-0.473,0.296-0.473c0.059,0,0.074,0.12,0.039,0.294c-0.083,0.419-0.058,0.692,0.099,0.87
				c0.335,0.377,0.908,0.308,1.323,0.138c0.397-0.162,0.796-0.532,0.929-0.948c0.171-0.538-0.053-0.937-0.513-1.204
				c-0.191-0.111-0.387-0.215-0.554-0.297c-0.446-0.219-0.719-0.612-0.611-1.109c0.163-0.762,0.968-1.336,1.7-1.449
				c0.368-0.057,0.779-0.04,1.142,0.031c0.275,0.053,0.383,0.14,0.336,0.296l-0.217,0.732c-0.019,0.059-0.055,0.118-0.1,0.118
				c-0.081,0-0.086-0.097-0.079-0.178c0.053-0.611-0.197-0.908-0.73-0.908c-0.387,0-0.739,0.135-1.027,0.395
				c-0.407,0.368-0.541,0.978-0.039,1.303c0.179,0.116,0.453,0.28,0.848,0.494c0.561,0.303,0.756,0.795,0.554,1.401
				c-0.233,0.699-0.899,1.216-1.579,1.443c-0.564,0.187-1.367,0.263-1.877-0.12C188.173,31.265,188.144,31.157,188.189,31.015
				L188.189,31.015L188.189,31.015z"/>
			<polygon class="st111" points="21.737,22.676 24.723,23.722 27.603,14.37 21.737,22.676 			"/>
			<polygon class="st111" points="17.31,21.126 17.714,21.267 31.482,1.773 31.872,0.508 17.31,21.126 			"/>
			<polygon class="st111" points="18.601,21.578 19.545,21.908 29.715,7.509 30.626,4.552 18.601,21.578 			"/>
			<polygon class="st111" points="20.147,22.119 21.333,22.535 27.992,13.105 29.135,9.391 20.147,22.119 			"/>
			<polygon class="st58" points="15.675,21.16 16.245,21.066 31.122,0 30.031,0.831 15.675,21.16 			"/>
			<polygon class="st58" points="13.092,21.582 14.423,21.364 27.634,2.659 25.083,4.603 13.092,21.582 			"/>
			<polygon class="st58" points="10.572,21.994 12.244,21.72 23.459,5.841 20.255,8.283 10.572,21.994 			"/>
			<polygon class="st58" points="0,23.722 10.002,22.087 19.164,9.114 0,23.722 			"/>
		</g>
	</g>
</g>
<g id="Layer_4">
</g>
</svg>
