<?xml version="1.0" encoding="utf-8"?>
<!-- Generator: Adobe Illustrator 18.0.0, SVG Export Plug-In . SVG Version: 6.00 Build 0)  -->
<!DOCTYPE svg PUBLIC "-//W3C//DTD SVG 1.1//EN" "http://www.w3.org/Graphics/SVG/1.1/DTD/svg11.dtd">
<svg version="1.1" xmlns="http://www.w3.org/2000/svg" xmlns:xlink="http://www.w3.org/1999/xlink" x="0px" y="0px"
	 width="158.788px" height="50px" viewBox="0 0 158.788 50" style="enable-background:new 0 0 158.788 50;" xml:space="preserve">
<style type="text/css">
	.st0{display:none;}
	.st1{display:inline;}
	.st2{fill:#ED2D27;}
	.st3{display:inline;fill:#F8B900;}
	.st4{display:inline;fill:#00235F;}
	.st5{fill:url(#SVGID_1_);}
	.st6{fill:#006CB6;}
	.st7{fill:url(#SVGID_2_);}
	.st8{fill:url(#SVGID_3_);}
	.st9{fill:url(#SVGID_4_);}
	.st10{fill:url(#SVGID_5_);}
	.st11{fill:url(#SVGID_6_);}
	.st12{fill-rule:evenodd;clip-rule:evenodd;fill:#FFFFFF;}
	.st13{fill-rule:evenodd;clip-rule:evenodd;fill:#E2231A;}
	.st14{fill:#FFFFFF;}
	.st15{fill-rule:evenodd;clip-rule:evenodd;fill:#001689;}
	.st16{fill:#00529B;}
	.st17{fill:#F47920;}
	.st18{fill:url(#SVGID_7_);}
	.st19{fill:url(#SVGID_8_);}
	.st20{fill:url(#SVGID_9_);}
	.st21{fill:url(#SVGID_10_);}
	.st22{fill:url(#SVGID_11_);}
	.st23{fill:url(#SVGID_12_);}
	.st24{fill:url(#SVGID_13_);}
	.st25{fill:#00054C;}
	.st26{fill:url(#path3364_3_);}
	.st27{fill:url(#path3366_3_);}
	.st28{fill:#22356B;}
	.st29{fill:#FCC210;}
	.st30{fill:#ED1C24;}
	.st31{display:inline;fill:url(#SVGID_14_);}
	.st32{fill:#002157;}
	.st33{fill:#CC2234;}
	.st34{fill:#E23546;}
	.st35{fill:#FCB130;}
	.st36{fill:#1D4886;}
	.st37{display:inline;fill:none;}
	.st38{display:inline;fill:#005DAA;}
	.st39{fill:#005DAA;}
	.st40{fill:#00A1E4;}
	.st41{fill:#00704A;}
	.st42{fill:#B10D28;}
	.st43{fill:#D31245;}
	.st44{fill:url(#path70_3_);}
	.st45{fill:url(#SVGID_15_);}
	.st46{fill:url(#SVGID_16_);}
	.st47{fill:#231916;}
	.st48{fill:#E60013;}
	.st49{fill:#C0231E;}
	.st50{fill:#014E84;}
	.st51{fill:#BA783E;}
	.st52{fill:#002052;}
	.st53{fill:#0093D0;}
	.st54{fill:#ED1B2F;}
	.st55{fill:#E3242B;}
	.st56{fill-rule:evenodd;clip-rule:evenodd;fill:#034EA2;}
	.st57{fill-rule:evenodd;clip-rule:evenodd;fill:#E11837;}
	.st58{fill:#034EA2;}
	.st59{opacity:0.8902;fill:#EB151C;}
	.st60{fill:#1A1A1A;}
	.st61{enable-background:new    ;}
	.st62{fill:#FF6600;}
	.st63{clip-path:url(#SVGID_18_);fill:url(#SVGID_19_);}
	.st64{fill:url(#SVGID_20_);}
	.st65{fill:#B2DB1F;}
	.st66{fill:#FA002C;}
	.st67{fill:#1C2D5B;}
	.st68{fill:#1C4E9D;}
	.st69{fill:#ED192D;}
	.st70{display:inline;fill:#FFFFFF;}
	.st71{display:inline;fill:#00529B;}
	.st72{display:inline;fill:#F47920;}
	.st73{display:inline;fill:url(#SVGID_21_);}
	.st74{display:inline;fill:url(#SVGID_22_);}
	.st75{display:inline;fill:url(#SVGID_23_);}
	.st76{display:inline;fill:url(#SVGID_24_);}
	.st77{display:inline;fill:url(#SVGID_25_);}
	.st78{display:inline;fill:url(#SVGID_26_);}
	.st79{display:inline;fill:url(#SVGID_27_);}
	.st80{display:inline;fill:url(#path3364_4_);}
	.st81{display:inline;fill:url(#path3366_4_);}
	.st82{display:inline;fill:url(#SVGID_28_);}
	.st83{display:inline;fill:url(#SVGID_29_);}
	.st84{display:inline;fill:url(#SVGID_30_);}
	.st85{display:inline;opacity:0.75;fill:#FFFFFF;}
	.st86{display:inline;fill:#ED1B2F;}
	.st87{opacity:0.8902;fill:#FFFFFF;}
	.st88{clip-path:url(#SVGID_32_);fill:#FFFFFF;}
	.st89{fill:url(#SVGID_33_);}
	.st90{fill:url(#SVGID_34_);}
	.st91{fill:url(#SVGID_35_);}
	.st92{fill:url(#SVGID_36_);}
	.st93{fill:url(#SVGID_37_);}
	.st94{fill:url(#SVGID_38_);}
	.st95{fill:url(#SVGID_39_);}
	.st96{fill:url(#SVGID_40_);}
	.st97{clip-path:url(#SVGID_42_);fill:url(#SVGID_43_);}
	.st98{fill:url(#SVGID_44_);}
	.st99{fill:url(#path70_5_);}
	.st100{fill:url(#SVGID_45_);}
	.st101{fill:url(#SVGID_46_);}
	.st102{fill:#F8B900;}
	.st103{fill:#00235F;}
	.st104{fill:url(#SVGID_47_);}
	.st105{fill:url(#SVGID_48_);}
	.st106{fill:url(#SVGID_49_);}
	.st107{fill:url(#SVGID_50_);}
	.st108{fill:url(#SVGID_51_);}
	.st109{fill:url(#SVGID_52_);}
	.st110{opacity:0.8902;fill:#EB151C;enable-background:new    ;}
	.st111{fill:#E11837;}
	.st112{fill:#E2231A;}
	.st113{fill:#001689;}
	.st114{fill:#EF3E34;}
	.st115{fill:#4D82C4;}
	.st116{fill:#8C7035;}
	.st117{fill:#5FBA45;}
	.st118{fill:#008F7E;}
	.st119{fill:#004595;}
	.st120{fill:#FFED00;}
	.st121{fill:#E53138;}
	.st122{fill:url(#SVGID_53_);}
	.st123{fill:url(#SVGID_54_);}
	.st124{fill:url(#SVGID_55_);}
	.st125{fill:url(#SVGID_56_);}
	.st126{fill:#11185E;}
	.st127{fill:#EE3024;}
	.st128{fill:#0675CC;}
	.st129{fill:#E2001A;}
	.st130{fill:#009036;}
	.st131{fill:#0B1560;}
	.st132{fill:#0070AF;}
	.st133{fill:#0F2C64;}
	.st134{fill:#EF001E;}
	.st135{fill:#1C2A8D;}
	.st136{fill:#334357;}
	.st137{fill:url(#SVGID_57_);}
	.st138{fill:#ED1B28;}
	.st139{fill:#1E5AAF;}
	.st140{fill:#991933;}
	.st141{fill:#E01933;}
	.st142{fill:#003366;}
	.st143{fill:#00265D;}
	.st144{fill:#003263;}
	.st145{fill:#EE452A;}
	.st146{fill:#011F65;}
	.st147{fill:#EC2227;}
	.st148{fill:#010101;}
	.st149{fill:#FCEE21;}
	.st150{fill:#18488B;}
	.st151{fill:#EC2427;}
	.st152{fill:#D09B2B;}
	.st153{fill:#156192;}
	.st154{fill:#021A31;}
	.st155{fill:#008E8F;}
	.st156{fill:#2B438F;}
	.st157{fill:#363F9E;}
	.st158{fill:#00ABBF;}
</style>
<g id="Layer_1" class="st0">
</g>
<g id="Layer_2" class="st0">
</g>
<g id="Layer_3">
	<g>
		<g>
			
				<linearGradient id="SVGID_1_" gradientUnits="userSpaceOnUse" x1="-960.9117" y1="-3097.3457" x2="-1005.4839" y2="-3124.2905" gradientTransform="matrix(1 0 0 1 1032.5 3141.168)">
				<stop  offset="0" style="stop-color:#106DB4"/>
				<stop  offset="1" style="stop-color:#20BAEA"/>
			</linearGradient>
			<polygon class="st5" points="0,50 0,48.314 28.61,40.172 62.478,0.567 80.905,0 68.003,50 			"/>
			<path class="st6" d="M104.952,14.027l-3.428,12.585c-0.105,0.438-0.659,2.41-0.908,4.124c-0.038-0.182-0.08-0.398-0.114-0.584
				c-0.072-0.364-0.108-0.691-0.182-1.056c-0.11-0.546-0.255-1.133-0.58-2.371l-3.326-12.699h-6.527l-2.375,25.357h5.071
				l0.877-13.242c0.109-1.423,0.076-0.256,0.182-4.56c0.257,1.493,0.547,2.66,1.023,4.484l3.609,13.318h4.346l4.008-13.864
				c0.329-1.17,0.657-2.372,0.952-3.904c0.107,3.941,0.071,2.88,0.179,4.231l0.949,13.536h5.002l-2.266-25.357L104.952,14.027
				L104.952,14.027z"/>
			<path class="st6" d="M153.525,14.098c0,0-4.01,11.315-4.689,14.285c-0.464-1.859-0.894-3.15-1.575-5.01l-3.44-9.275h-5.476
				l6.839,17.545l2.437-0.323c0,0-0.268,1.841-1.579,2.759c-1.282,0.894-3.413,1.245-3.413,1.245l1.123,4.077
				c0,0,3.47-0.14,5.764-2.502c0.976-1,1.357-1.533,2.756-5.292l6.517-17.51L153.525,14.098z"/>
			<path class="st6" d="M130.876,14.027h-5.493l-8.29,25.345h5.309l1.391-4.677c1.934,0.179,5.978,0.661,9.558,4.559l0.032,0.118
				h5.453L130.876,14.027z M125.022,30.516l0.397-1.36c0.401-1.274,0.73-2.367,1.345-4.69c0.294-1.165,0.838-3.31,1.199-4.838
				c0.476,2.438,0.693,3.055,1.019,4.437c0.292,1.277,0.581,2.545,1.383,5.092l1.04,3.556
				C129.224,31.439,126.972,30.864,125.022,30.516z"/>
			<g>
				
					<linearGradient id="SVGID_2_" gradientUnits="userSpaceOnUse" x1="-964.6776" y1="-3105.5422" x2="-982.8197" y2="-3123.6843" gradientTransform="matrix(1 0 0 1 1032.5 3141.168)">
					<stop  offset="0" style="stop-color:#FCBE1F"/>
					<stop  offset="1" style="stop-color:#F7F2A7"/>
				</linearGradient>
				<path class="st7" d="M58.869,14.089c-6.967,0.015-12.598,5.679-12.584,12.647c0.022,6.97,5.677,12.602,12.648,12.582
					c6.973-0.018,12.601-5.677,12.583-12.647C71.499,19.704,65.841,14.072,58.869,14.089z M58.933,38.531
					c-6.542,0.016-11.858-5.273-11.876-11.813c-0.013-6.525,5.277-11.841,11.816-11.855c6.537-0.017,11.854,5.271,11.875,11.794
					C70.763,33.195,65.474,38.512,58.933,38.531z"/>
				
					<linearGradient id="SVGID_3_" gradientUnits="userSpaceOnUse" x1="-964.6776" y1="-3105.5422" x2="-982.8197" y2="-3123.6843" gradientTransform="matrix(1 0 0 1 1032.5 3141.168)">
					<stop  offset="0" style="stop-color:#FCBE1F"/>
					<stop  offset="1" style="stop-color:#F7F2A7"/>
				</linearGradient>
				<path class="st8" d="M58.869,14.089c-6.967,0.015-12.598,5.679-12.584,12.647c0.022,6.97,5.677,12.602,12.648,12.582
					c6.973-0.018,12.601-5.677,12.583-12.647C71.499,19.704,65.841,14.072,58.869,14.089z M58.933,38.531
					c-6.542,0.016-11.858-5.273-11.876-11.813c-0.013-6.525,5.277-11.841,11.816-11.855c6.537-0.017,11.854,5.271,11.875,11.794
					C70.763,33.195,65.474,38.512,58.933,38.531z"/>
				
					<linearGradient id="SVGID_4_" gradientUnits="userSpaceOnUse" x1="-959.2943" y1="-3110.9495" x2="-977.4343" y2="-3129.0896" gradientTransform="matrix(1 0 0 1 1032.5 3141.168)">
					<stop  offset="0" style="stop-color:#FCBE1F"/>
					<stop  offset="1" style="stop-color:#F7F2A7"/>
				</linearGradient>
				<path class="st9" d="M64.055,23.701l-0.07,0.465l2.776-0.006l3.192-0.011c-0.035-0.163-0.074-0.303-0.111-0.465l-3.081,0.009
					L64.055,23.701z"/>
				
					<linearGradient id="SVGID_5_" gradientUnits="userSpaceOnUse" x1="-964.6846" y1="-3105.5571" x2="-982.8275" y2="-3123.7002" gradientTransform="matrix(1 0 0 1 1032.5 3141.168)">
					<stop  offset="0" style="stop-color:#FCBE1F"/>
					<stop  offset="1" style="stop-color:#F7F2A7"/>
				</linearGradient>
				<path class="st10" d="M51.106,27.709l-0.677,0.685l-0.004-2.941h0.088c2.472-0.004,4.659,0.222,6.741,0.788
					c-1.132-0.5-2.317-0.871-3.516-1.138l-0.006-2.294l13.027-0.032l2.792-0.009c-0.61-1.628-1.566-3.078-2.802-4.237
					c-2.034-1.967-4.812-3.163-7.857-3.154c-6.273,0.019-11.334,5.102-11.315,11.357c0.014,6.253,5.098,11.31,11.373,11.294
					c3.045-0.007,5.817-1.232,7.84-3.191c0.087-0.069,0.159-0.141,0.23-0.232c-0.071-0.075-0.145-0.142-0.233-0.216
					C62.745,30.37,57.224,27.84,51.106,27.709"/>
				
					<linearGradient id="SVGID_6_" gradientUnits="userSpaceOnUse" x1="-961.3361" y1="-3108.9075" x2="-979.4783" y2="-3127.0498" gradientTransform="matrix(1 0 0 1 1032.5 3141.168)">
					<stop  offset="0" style="stop-color:#FCBE1F"/>
					<stop  offset="1" style="stop-color:#F7F2A7"/>
				</linearGradient>
				<path class="st11" d="M67.176,32.187l0.006,2.256c1.91-2.047,3.073-4.778,3.062-7.768c0-0.555-0.038-1.075-0.113-1.614
					l-3.364,0.009l-7.049,0.02c2.821,1.585,5.228,3.802,7.064,6.432c0.144,0.197,0.265,0.393,0.394,0.591v0.013
					c0,0,0,0.021,0.017,0.021C67.193,32.148,67.176,32.149,67.176,32.187"/>
			</g>
		</g>
	</g>
</g>
<g id="Layer_4">
</g>
</svg>
