<?xml version="1.0" encoding="utf-8"?>
<!-- Generator: Adobe Illustrator 18.0.0, SVG Export Plug-In . SVG Version: 6.00 Build 0)  -->
<!DOCTYPE svg PUBLIC "-//W3C//DTD SVG 1.1//EN" "http://www.w3.org/Graphics/SVG/1.1/DTD/svg11.dtd">
<svg version="1.1" xmlns="http://www.w3.org/2000/svg" xmlns:xlink="http://www.w3.org/1999/xlink" x="0px" y="0px" width="200px"
	 height="34.986px" viewBox="0 0 200 34.986" style="enable-background:new 0 0 200 34.986;" xml:space="preserve">
<style type="text/css">
	.st0{display:none;}
	.st1{display:inline;}
	.st2{fill:#ED2D27;}
	.st3{display:inline;fill:#F8B900;}
	.st4{display:inline;fill:#00235F;}
	.st5{fill:url(#SVGID_1_);}
	.st6{fill:#006CB6;}
	.st7{fill:url(#SVGID_2_);}
	.st8{fill:url(#SVGID_3_);}
	.st9{fill:url(#SVGID_4_);}
	.st10{fill:url(#SVGID_5_);}
	.st11{fill:url(#SVGID_6_);}
	.st12{fill-rule:evenodd;clip-rule:evenodd;fill:#FFFFFF;}
	.st13{fill-rule:evenodd;clip-rule:evenodd;fill:#E2231A;}
	.st14{fill:#FFFFFF;}
	.st15{fill-rule:evenodd;clip-rule:evenodd;fill:#001689;}
	.st16{fill:#00529B;}
	.st17{fill:#F47920;}
	.st18{fill:url(#SVGID_7_);}
	.st19{fill:url(#SVGID_8_);}
	.st20{fill:url(#SVGID_9_);}
	.st21{fill:url(#SVGID_10_);}
	.st22{fill:url(#SVGID_11_);}
	.st23{fill:url(#SVGID_12_);}
	.st24{fill:url(#SVGID_13_);}
	.st25{fill:#00054C;}
	.st26{fill:url(#path3364_3_);}
	.st27{fill:url(#path3366_3_);}
	.st28{fill:#22356B;}
	.st29{fill:#FCC210;}
	.st30{fill:#ED1C24;}
	.st31{display:inline;fill:url(#SVGID_14_);}
	.st32{fill:#002157;}
	.st33{fill:#CC2234;}
	.st34{fill:#E23546;}
	.st35{fill:#FCB130;}
	.st36{fill:#1D4886;}
	.st37{display:inline;fill:none;}
	.st38{display:inline;fill:#005DAA;}
	.st39{fill:#005DAA;}
	.st40{fill:#00A1E4;}
	.st41{fill:#00704A;}
	.st42{fill:#B10D28;}
	.st43{fill:#D31245;}
	.st44{fill:url(#path70_3_);}
	.st45{fill:url(#SVGID_15_);}
	.st46{fill:url(#SVGID_16_);}
	.st47{fill:#231916;}
	.st48{fill:#E60013;}
	.st49{fill:#C0231E;}
	.st50{fill:#014E84;}
	.st51{fill:#BA783E;}
	.st52{fill:#002052;}
	.st53{fill:#0093D0;}
	.st54{fill:#ED1B2F;}
	.st55{fill:#E3242B;}
	.st56{fill-rule:evenodd;clip-rule:evenodd;fill:#034EA2;}
	.st57{fill-rule:evenodd;clip-rule:evenodd;fill:#E11837;}
	.st58{fill:#034EA2;}
	.st59{opacity:0.8902;fill:#EB151C;}
	.st60{fill:#1A1A1A;}
	.st61{enable-background:new    ;}
	.st62{fill:#FF6600;}
	.st63{clip-path:url(#SVGID_18_);fill:url(#SVGID_19_);}
	.st64{fill:url(#SVGID_20_);}
	.st65{fill:#B2DB1F;}
	.st66{fill:#FA002C;}
	.st67{fill:#1C2D5B;}
	.st68{fill:#1C4E9D;}
	.st69{fill:#ED192D;}
	.st70{display:inline;fill:#FFFFFF;}
	.st71{display:inline;fill:#00529B;}
	.st72{display:inline;fill:#F47920;}
	.st73{display:inline;fill:url(#SVGID_21_);}
	.st74{display:inline;fill:url(#SVGID_22_);}
	.st75{display:inline;fill:url(#SVGID_23_);}
	.st76{display:inline;fill:url(#SVGID_24_);}
	.st77{display:inline;fill:url(#SVGID_25_);}
	.st78{display:inline;fill:url(#SVGID_26_);}
	.st79{display:inline;fill:url(#SVGID_27_);}
	.st80{display:inline;fill:url(#path3364_4_);}
	.st81{display:inline;fill:url(#path3366_4_);}
	.st82{display:inline;fill:url(#SVGID_28_);}
	.st83{display:inline;fill:url(#SVGID_29_);}
	.st84{display:inline;fill:url(#SVGID_30_);}
	.st85{display:inline;opacity:0.75;fill:#FFFFFF;}
	.st86{display:inline;fill:#ED1B2F;}
	.st87{opacity:0.8902;fill:#FFFFFF;}
	.st88{clip-path:url(#SVGID_32_);fill:#FFFFFF;}
	.st89{fill:url(#SVGID_33_);}
	.st90{fill:url(#SVGID_34_);}
	.st91{fill:url(#SVGID_35_);}
	.st92{fill:url(#SVGID_36_);}
	.st93{fill:url(#SVGID_37_);}
	.st94{fill:url(#SVGID_38_);}
	.st95{fill:url(#SVGID_39_);}
	.st96{fill:url(#SVGID_40_);}
	.st97{clip-path:url(#SVGID_42_);fill:url(#SVGID_43_);}
	.st98{fill:url(#SVGID_44_);}
	.st99{fill:url(#path70_5_);}
	.st100{fill:url(#SVGID_45_);}
	.st101{fill:url(#SVGID_46_);}
	.st102{fill:#F8B900;}
	.st103{fill:#00235F;}
	.st104{fill:url(#SVGID_47_);}
	.st105{fill:url(#SVGID_48_);}
	.st106{fill:url(#SVGID_49_);}
	.st107{fill:url(#SVGID_50_);}
	.st108{fill:url(#SVGID_51_);}
	.st109{fill:url(#SVGID_52_);}
	.st110{opacity:0.8902;fill:#EB151C;enable-background:new    ;}
	.st111{fill:#E11837;}
	.st112{fill:#E2231A;}
	.st113{fill:#001689;}
	.st114{fill:#EF3E34;}
	.st115{fill:#4D82C4;}
	.st116{fill:#8C7035;}
	.st117{fill:#5FBA45;}
	.st118{fill:#008F7E;}
	.st119{fill:#004595;}
	.st120{fill:#FFED00;}
	.st121{fill:#E53138;}
	.st122{fill:url(#SVGID_53_);}
	.st123{fill:url(#SVGID_54_);}
	.st124{fill:url(#SVGID_55_);}
	.st125{fill:url(#SVGID_56_);}
	.st126{fill:#11185E;}
	.st127{fill:#EE3024;}
	.st128{fill:#0675CC;}
	.st129{fill:#E2001A;}
	.st130{fill:#009036;}
	.st131{fill:#0B1560;}
	.st132{fill:#0070AF;}
	.st133{fill:#0F2C64;}
	.st134{fill:#EF001E;}
	.st135{fill:#1C2A8D;}
	.st136{fill:#334357;}
	.st137{fill:url(#SVGID_57_);}
	.st138{fill:#ED1B28;}
	.st139{fill:#1E5AAF;}
	.st140{fill:#991933;}
	.st141{fill:#E01933;}
	.st142{fill:#003366;}
	.st143{fill:#00265D;}
	.st144{fill:#003263;}
	.st145{fill:#EE452A;}
	.st146{fill:#011F65;}
	.st147{fill:#EC2227;}
	.st148{fill:#010101;}
	.st149{fill:#FCEE21;}
	.st150{fill:#18488B;}
	.st151{fill:#EC2427;}
	.st152{fill:#D09B2B;}
	.st153{fill:#156192;}
	.st154{fill:#021A31;}
	.st155{fill:#008E8F;}
	.st156{fill:#2B438F;}
	.st157{fill:#363F9E;}
	.st158{fill:#00ABBF;}
</style>
<g id="Layer_1" class="st0">
</g>
<g id="Layer_2" class="st0">
</g>
<g id="Layer_3">
	<g>
		<g>
			<path class="st39" d="M164.999,0v4.87l1.394-0.343c6.061-1.247,12.227-0.034,17.082,3.057c5.137,3.249,8.761,8.512,10.068,14.046
				c1.085,4.358,0.743,9.33-0.792,13.35H200V0H164.999z"/>
			<path class="st39" d="M174.634,5.484c-1.862-1.028-4.309-1.179-6.502-0.803l0.773,0.088l0.11-0.054
				c1.016-0.075,2.088-0.039,3.036,0.17c-0.31,0.085-0.846,0.259-1.22,0.414c0.213,0.08,0.484,0.216,0.668,0.335
				c0.402-0.147,1.248-0.371,1.66-0.453c0.368,0.108,1.314,0.545,1.9,0.974c-0.697,0.074-1.643,0.211-2.407,0.388
				c0.18,0.157,0.333,0.344,0.47,0.548c0.74-0.135,1.823-0.259,2.76-0.295c0.473,0.409,0.861,0.903,1.124,1.414
				c-1.03-0.068-2.398-0.051-3.236,0.04c0.086,0.15,0.205,0.533,0.256,0.763c1.042-0.044,2.739,0.033,3.452,0.136
				c0.234,0.561,0.368,1.167,0.422,1.8c-1.189-0.234-2.589-0.432-3.683-0.484c0.012,0.352-0.003,0.688-0.035,1.018
				c1.301,0.135,2.563,0.37,3.783,0.685c-0.017,0.62-0.107,1.393-0.27,1.99c-0.968-0.346-2.517-0.804-3.827-1.07
				c-0.131,0.537-0.306,1.066-0.536,1.573c1.282,0.429,2.548,0.987,3.76,1.588c-0.199,0.575-0.489,1.219-0.757,1.696
				c-1.214-0.682-2.464-1.35-3.7-1.877c-0.375,0.684-0.851,1.414-1.298,2.013c1.206,0.733,2.345,1.528,3.477,2.38
				c-0.339,0.497-0.827,1.094-1.12,1.449c-1.085-0.903-3.312-2.674-3.312-2.674c-0.655,0.789-1.215,1.378-2.041,2.017
				c0.914,0.935,2.11,2.272,2.857,3.197c-0.384,0.403-0.762,0.723-1.216,1.037c-0.907-1.114-1.998-2.521-2.633-3.405
				c-0.891,0.699-1.436,1.078-2.347,1.549v1.309l1.447,2.894c-0.328,0.211-0.596,0.339-1.017,0.52l-0.43-0.844v1.521
				c5.58-2.478,11.26-7.943,12.911-13.876c0.605-2.051,0.71-4.69-0.279-6.602C177.051,7.295,175.879,6.122,174.634,5.484"/>
			<path class="st39" d="M173.802,4.622c0.243,0.08,0.475,0.188,0.708,0.289l0.131-0.023c1.192,0.197,2.33,0.595,3.352,1.152
				c-0.555,0.005-1.128-0.004-1.682,0.042c0.231,0.206,0.476,0.448,0.676,0.671c0.749-0.014,1.475,0.002,2.19,0.049
				c0.709,0.521,1.43,1.218,1.834,1.937c-0.829-0.191-1.969-0.353-2.986-0.441c0.132,0.302,0.266,0.614,0.378,0.937
				c1.13,0.166,2.249,0.372,3.339,0.648c0.359,0.744,0.632,1.528,0.75,2.357c-1.202-0.428-2.433-0.835-3.697-1.092
				c0.032,0.408,0.035,0.827,0.037,1.24c1.303,0.376,2.574,0.814,3.807,1.372c0.006,0.837-0.083,1.635-0.271,2.392
				c-1.239-0.618-2.503-1.23-3.819-1.676c-0.167,0.738-0.385,1.454-0.641,2.151c1.262,0.648,2.513,1.307,3.708,2.087
				c-0.225,0.641-0.554,1.337-0.935,1.96c-1.173-0.802-2.347-1.582-3.571-2.261c-0.416,0.866-0.944,1.753-1.569,2.561
				c1.09,0.858,2.207,1.753,3.257,2.703c-0.345,0.521-0.809,1.122-1.33,1.672c-0.767-0.808-2.048-1.959-3.114-2.858
				c-0.753,0.91-1.644,1.914-2.542,2.667c0.685,0.72,2.718,3.169,2.718,3.169c-0.406,0.405-0.914,0.823-1.433,1.196
				c0,0-2.076-2.663-2.587-3.304c-1.227,0.974-2.209,1.655-3.646,2.418c0.569,0.97,1.982,3.599,1.982,3.599
				c-0.363,0.222-0.742,0.431-1.121,0.57c-0.667-1.108-1.47-2.712-1.898-3.627c-0.413,0.227-0.829,0.374-0.829,0.374v4.787
				c4.328-1.406,8.316-3.891,11.691-7.488c3.076-3.333,5.509-6.932,6.231-11.233c0.576-3.428-0.559-6.658-3.281-8.84
				C177.989,5.365,175.943,4.873,173.802,4.622"/>
			<path class="st39" d="M172.361,6.905c-1.894-1.914-4.799-2.075-7.362-1.472c0.001-0.001,0,0.233,0,0.233
				c0.535-0.114,1.229-0.223,1.865-0.221c-0.415,0.251-0.815,0.555-1.175,0.852c0.154,0.033,0.316,0.085,0.466,0.148
				c0.578-0.413,1.137-0.771,1.603-1.025c0.605,0.005,1.387,0.117,1.896,0.322c-0.843,0.303-1.863,0.771-2.52,1.213
				c0.121,0.065,0.249,0.171,0.343,0.269c0.809-0.432,1.971-0.931,2.924-1.235c0.452,0.181,0.939,0.501,1.214,0.772
				c-1.219,0.289-2.387,0.608-3.561,1.086c0.113,0.134,0.237,0.336,0.296,0.461c0.849-0.302,2.514-0.787,3.819-1.036
				c0.239,0.256,0.526,0.663,0.672,1.043c-1.443,0.15-3.088,0.401-4.199,0.718c0.07,0.187,0.113,0.369,0.143,0.544
				c1.368-0.262,2.873-0.458,4.345-0.517c0.131,0.423,0.205,0.876,0.208,1.34c-1.467-0.093-3.148-0.028-4.484,0.105
				c0,0.174-0.025,0.522-0.047,0.737c1.355-0.041,2.869-0.026,4.487,0.156c-0.058,0.439-0.163,1.006-0.304,1.495
				c-1.512-0.345-2.889-0.513-4.413-0.613c-0.054,0.294-0.181,0.655-0.323,0.962c1.424,0.259,2.845,0.653,4.218,1.147
				c-0.189,0.444-0.409,0.877-0.65,1.301c-1.028-0.484-2.851-1.165-4.048-1.5c-0.197,0.399-0.528,0.943-0.858,1.346
				c0.86,0.419,2.508,1.349,3.638,2.08c-0.27,0.362-0.574,0.737-0.893,1.069c-1.094-0.853-2.18-1.654-3.369-2.41
				c-0.38,0.436-0.851,0.907-1.295,1.28v0.138l2.731,2.908c-0.303,0.276-0.612,0.531-0.936,0.766l-1.796-2.295v4.051
				c2.773-1.627,5.58-4.298,7.158-7.128c1.287-2.266,2.262-5.333,1.015-7.938C172.952,7.649,172.718,7.257,172.361,6.905"/>
			<path class="st39" d="M180.52,6.934l0.806,0.099c0.805,0.418,1.546,1.007,2.211,1.712c0.245,0.268,0.51,0.539,0.681,0.832
				c-0.665-0.188-1.31-0.417-1.997-0.566c0.233,0.365,0.398,0.722,0.569,1.139c0.767,0.221,1.529,0.486,2.274,0.751
				c0.478,0.907,0.826,1.88,0.993,2.911c-0.86-0.43-1.722-0.849-2.607-1.197c0.068,0.505,0.088,1.024,0.068,1.525
				c0.972,0.443,2.062,1.04,2.735,1.473c0.025,0.712-0.046,1.977-0.255,2.783c-0.776-0.565-1.893-1.29-2.8-1.758
				c-0.123,0.699-0.457,1.787-0.803,2.555c0.946,0.642,1.892,1.299,2.787,2.07c-0.274,0.757-0.626,1.484-1.006,2.191
				c-0.897-0.771-1.811-1.509-2.76-2.221c-0.539,1.065-1.135,2.026-1.948,3.025c0.913,0.842,1.783,1.665,2.655,2.567
				c-0.427,0.618-0.905,1.233-1.463,1.809c-0.83-0.89-1.684-1.804-2.552-2.657c-0.904,1.042-1.924,2.135-2.988,3.03
				c0.49,0.512,1.551,1.749,2.322,2.86c-0.53,0.454-1.025,0.882-1.555,1.27l-2.243-2.895c-1.385,1.08-2.856,1.971-4.327,2.774
				l1.177,1.964h3.648c5.576-3.807,10.612-9.461,12.164-15.772c0.937-3.859,0.047-7.815-2.612-10.689
				c-1.421-1.531-2.997-2.043-4.109-2.387C179.871,6.321,180.198,6.607,180.52,6.934"/>
			<path class="st39" d="M165,6.612v0.674l0.377-0.262c0.315,0.072,0.673,0.231,0.913,0.387c-0.436,0.256-0.883,0.507-1.286,0.783
				v0.423c0.538-0.328,1.17-0.712,1.671-0.965c0.202,0.129,0.383,0.321,0.524,0.513c-0.723,0.288-1.731,0.78-2.2,1.028v0.436
				c0.802-0.391,1.689-0.783,2.533-1.045c0.108,0.192,0.219,0.433,0.257,0.656c-0.897,0.174-1.936,0.552-2.785,0.881v0.398
				c0.899-0.313,2.106-0.63,2.898-0.757c0.059,0.255,0.066,0.584,0.067,0.816c-1.192,0.114-1.994,0.253-2.963,0.449v0.455
				c0.863-0.115,2.295-0.22,2.915-0.197c-0.06,0.312-0.128,0.635-0.247,0.918c-0.713-0.066-1.867-0.118-2.671-0.097
				c-0.006,0-0.006,0.607-0.006,0.609c0.786,0.043,1.648,0.236,2.338,0.367c-0.094,0.241-0.269,0.576-0.42,0.819
				c-0.538-0.182-1.331-0.432-1.919-0.525v1.196c0.378,0.17,0.926,0.442,1.112,0.563c-0.125,0.184-0.373,0.484-0.541,0.635
				c-0.251-0.167-0.572-0.353-0.572-0.353v1.529c0.631-0.621,1.252-1.271,1.745-1.957c1.221-1.76,2.183-4.044,1.307-6.245
				C167.52,7.537,166.232,6.779,165,6.612"/>
			<path class="st39" d="M185.442,9.982c0.255,0.433,0.498,0.876,0.699,1.329l0.973,0.448c0.69,1.125,1.241,2.309,1.542,3.599
				c-0.537-0.339-1.083-0.69-1.63-0.988c0.086,0.585,0.106,1.112,0.121,1.727c0.615,0.431,1.258,0.885,1.853,1.414
				c0.057,1.081-0.021,2.147-0.185,3.147c-0.653-0.635-1.333-1.196-2.002-1.663c-0.163,0.925-0.498,1.971-0.886,2.899
				c0.684,0.545,1.433,1.256,2.088,1.973c-0.286,0.829-0.626,1.598-1.035,2.346c-0.662-0.713-1.385-1.453-2.107-2.088
				c-0.443,0.863-1.343,2.257-2.132,3.329c0.721,0.739,1.389,1.513,2.049,2.289c-0.468,0.656-1.004,1.281-1.555,1.888
				c-0.669-0.771-1.296-1.563-1.995-2.315c-1.058,1.233-1.944,2.19-3.208,3.252c0.747,0.906,1.878,2.411,1.878,2.411h0.638
				c1.182-1.05,2.322-2.233,3.358-3.428c2.552-3.122,4.57-6.457,5.274-10.332c0.763-4.064-0.302-8.02-2.991-10.959L185.442,9.982
				L185.442,9.982z"/>
			<path class="st39" d="M187.994,12.017l-0.012,0.03c1.166,1.434,2.094,2.972,2.573,4.684l-0.009,0.018l-0.9-0.681
				c0.115,0.695,0.206,1.341,0.231,2.066c0.424,0.32,0.888,0.739,1.25,1.178c0.062,1.18,0.062,2.439-0.141,3.599
				c-0.404-0.537-0.763-0.928-1.395-1.557c-0.139,0.858-0.461,2.211-0.849,3.113c0.554,0.598,1.117,1.356,1.474,1.908
				c-0.208,0.712-0.609,1.667-1.037,2.465c-0.508-0.655-0.868-1.186-1.53-1.966c-0.658,1.214-1.43,2.448-2.284,3.581
				c0.579,0.683,1.112,1.395,1.616,2.115c-0.476,0.67-0.992,1.332-1.55,1.958c-0.527-0.725-1.089-1.445-1.637-2.162
				c-0.765,0.892-1.535,1.798-2.467,2.614h4.295c2.766-3.209,4.772-6.76,5.591-10.776c0.845-4.045,0.177-8.328-2.43-11.378
				C188.54,12.557,188.286,12.216,187.994,12.017"/>
			<path class="st39" d="M191.66,17.642c0.168,0.772,0.239,1.412,0.337,2.429c0.318,0.346,0.7,0.934,0.7,0.934
				c0.04,1.182-0.027,2.374-0.274,3.597l-0.652-0.803c-0.196,1.124-0.474,2.17-0.883,3.315l0.721,1.253
				c-0.214,0.752-0.624,1.79-1.024,2.617c-0.27-0.438-0.522-0.92-0.8-1.303c-0.649,1.262-1.427,2.491-2.269,3.675l1.008,1.626h0.234
				c2.432-3.608,4.061-7.588,4.229-12.114c0.083-1.894-0.511-3.546-1.226-5.126L191.66,17.642L191.66,17.642z"/>
			<path class="st39" d="M193.59,24.131c-0.083,0.608-0.124,1.223-0.234,1.8l-0.192-0.262c-0.207,1.24-0.507,2.392-0.937,3.541
				l0.3,0.83c-0.244,0.833-0.555,1.725-0.954,2.661c-0.092-0.285-0.271-0.624-0.432-0.886c-0.538,1.073-1.177,2.215-1.818,3.165
				h1.61c0.88-1.693,1.562-3.494,2.07-5.351c0.423-1.738,0.809-3.594,0.595-5.498L193.59,24.131L193.59,24.131z"/>
			<path class="st39" d="M193.689,28.564c-0.338,1.774-0.949,3.962-1.46,5.523c-0.062-0.122-0.121-0.24-0.171-0.37
				c-0.241,0.485-0.606,1.263-0.606,1.263h0.826C192.989,33.303,193.49,30.881,193.689,28.564"/>
			<path class="st39" d="M168.067,33.611c-1.008,0.459-2.011,0.842-3.068,1.178v0.188h3.831L168.067,33.611L168.067,33.611z"/>
			<path class="st39" d="M176.456,33.868c-0.399,0.285-0.905,0.735-1.513,1.119h2.245C177.188,34.986,176.703,34.256,176.456,33.868
				"/>
			<g>
				<path class="st39" d="M140.532,9.41h-9.244v0v18.363h9.244c7.612-0.006,11.347-3.447,11.347-9.202
					C151.88,13.127,148.515,9.419,140.532,9.41z M140.416,23.654h-3.915V13.533h3.915c4.29,0.006,6.033,1.803,6.033,5.064
					C146.449,21.944,144.658,23.647,140.416,23.654z"/>
				<polygon class="st39" points="109.242,20.422 119.363,20.422 119.363,16.69 109.242,16.69 109.242,13.434 121.192,13.434 
					121.192,9.411 104.044,9.411 104.044,27.774 121.269,27.774 121.269,23.777 109.242,23.777 				"/>
				<polygon class="st39" points="76.258,13.57 82.988,13.57 82.988,27.773 88.213,27.773 88.213,13.57 94.954,13.57 94.954,9.411 
					76.258,9.411 				"/>
				<polygon class="st39" points="61.701,13.622 61.701,27.774 67.017,27.774 67.017,9.411 61.701,9.411 				"/>
				<polygon class="st39" points="45.251,20.422 34.577,9.411 30.055,9.411 30.055,27.774 34.924,27.774 34.924,16.28 
					46.215,27.774 50.119,27.774 50.119,9.411 45.251,9.411 				"/>
				<path class="st39" d="M14.853,19.751c-0.003,2.781-1.534,4.146-4.773,4.157c-3.276,0.011-4.86-1.388-4.865-4.189V9.411H0v10.295
					c0,5.598,3.553,8.404,10.062,8.404c6.492,0,9.989-2.82,9.988-8.437V9.411h-5.198L14.853,19.751z"/>
			</g>
		</g>
	</g>
</g>
<g id="Layer_4">
</g>
</svg>
