<?xml version="1.0" encoding="utf-8"?>
<!-- Generator: Adobe Illustrator 18.0.0, SVG Export Plug-In . SVG Version: 6.00 Build 0)  -->
<!DOCTYPE svg PUBLIC "-//W3C//DTD SVG 1.1//EN" "http://www.w3.org/Graphics/SVG/1.1/DTD/svg11.dtd">
<svg version="1.1" xmlns="http://www.w3.org/2000/svg" xmlns:xlink="http://www.w3.org/1999/xlink" x="0px" y="0px" width="200px"
	 height="22px" viewBox="0 0 200 22" style="enable-background:new 0 0 200 22;" xml:space="preserve">
<style type="text/css">
	.st0{display:none;}
	.st1{display:inline;}
	.st2{fill:#ED2D27;}
	.st3{display:inline;fill:#F8B900;}
	.st4{display:inline;fill:#00235F;}
	.st5{fill:url(#SVGID_1_);}
	.st6{fill:#006CB6;}
	.st7{fill:url(#SVGID_2_);}
	.st8{fill:url(#SVGID_3_);}
	.st9{fill:url(#SVGID_4_);}
	.st10{fill:url(#SVGID_5_);}
	.st11{fill:url(#SVGID_6_);}
	.st12{fill-rule:evenodd;clip-rule:evenodd;fill:#FFFFFF;}
	.st13{fill-rule:evenodd;clip-rule:evenodd;fill:#E2231A;}
	.st14{fill:#FFFFFF;}
	.st15{fill-rule:evenodd;clip-rule:evenodd;fill:#001689;}
	.st16{fill:#00529B;}
	.st17{fill:#F47920;}
	.st18{fill:url(#SVGID_7_);}
	.st19{fill:url(#SVGID_8_);}
	.st20{fill:url(#SVGID_9_);}
	.st21{fill:url(#SVGID_10_);}
	.st22{fill:url(#SVGID_11_);}
	.st23{fill:url(#SVGID_12_);}
	.st24{fill:url(#SVGID_13_);}
	.st25{fill:#00054C;}
	.st26{fill:url(#path3364_3_);}
	.st27{fill:url(#path3366_3_);}
	.st28{fill:#22356B;}
	.st29{fill:#FCC210;}
	.st30{fill:#ED1C24;}
	.st31{display:inline;fill:url(#SVGID_14_);}
	.st32{fill:#002157;}
	.st33{fill:#CC2234;}
	.st34{fill:#E23546;}
	.st35{fill:#FCB130;}
	.st36{fill:#1D4886;}
	.st37{display:inline;fill:none;}
	.st38{display:inline;fill:#005DAA;}
	.st39{fill:#005DAA;}
	.st40{fill:#00A1E4;}
	.st41{fill:#00704A;}
	.st42{fill:#B10D28;}
	.st43{fill:#D31245;}
	.st44{fill:url(#path70_3_);}
	.st45{fill:url(#SVGID_15_);}
	.st46{fill:url(#SVGID_16_);}
	.st47{fill:#231916;}
	.st48{fill:#E60013;}
	.st49{fill:#C0231E;}
	.st50{fill:#014E84;}
	.st51{fill:#BA783E;}
	.st52{fill:#002052;}
	.st53{fill:#0093D0;}
	.st54{fill:#ED1B2F;}
	.st55{fill:#E3242B;}
	.st56{fill-rule:evenodd;clip-rule:evenodd;fill:#034EA2;}
	.st57{fill-rule:evenodd;clip-rule:evenodd;fill:#E11837;}
	.st58{fill:#034EA2;}
	.st59{opacity:0.8902;fill:#EB151C;}
	.st60{fill:#1A1A1A;}
	.st61{enable-background:new    ;}
	.st62{fill:#FF6600;}
	.st63{clip-path:url(#SVGID_18_);fill:url(#SVGID_19_);}
	.st64{fill:url(#SVGID_20_);}
	.st65{fill:#B2DB1F;}
	.st66{fill:#FA002C;}
	.st67{fill:#1C2D5B;}
	.st68{fill:#1C4E9D;}
	.st69{fill:#ED192D;}
	.st70{display:inline;fill:#FFFFFF;}
	.st71{display:inline;fill:#00529B;}
	.st72{display:inline;fill:#F47920;}
	.st73{display:inline;fill:url(#SVGID_21_);}
	.st74{display:inline;fill:url(#SVGID_22_);}
	.st75{display:inline;fill:url(#SVGID_23_);}
	.st76{display:inline;fill:url(#SVGID_24_);}
	.st77{display:inline;fill:url(#SVGID_25_);}
	.st78{display:inline;fill:url(#SVGID_26_);}
	.st79{display:inline;fill:url(#SVGID_27_);}
	.st80{display:inline;fill:url(#path3364_4_);}
	.st81{display:inline;fill:url(#path3366_4_);}
	.st82{display:inline;fill:url(#SVGID_28_);}
	.st83{display:inline;fill:url(#SVGID_29_);}
	.st84{display:inline;fill:url(#SVGID_30_);}
	.st85{display:inline;opacity:0.75;fill:#FFFFFF;}
	.st86{display:inline;fill:#ED1B2F;}
	.st87{opacity:0.8902;fill:#FFFFFF;}
	.st88{clip-path:url(#SVGID_32_);fill:#FFFFFF;}
	.st89{fill:url(#SVGID_33_);}
	.st90{fill:url(#SVGID_34_);}
	.st91{fill:url(#SVGID_35_);}
	.st92{fill:url(#SVGID_36_);}
	.st93{fill:url(#SVGID_37_);}
	.st94{fill:url(#SVGID_38_);}
	.st95{fill:url(#SVGID_39_);}
	.st96{fill:url(#SVGID_40_);}
	.st97{clip-path:url(#SVGID_42_);fill:url(#SVGID_43_);}
	.st98{fill:url(#SVGID_44_);}
	.st99{fill:url(#path70_5_);}
	.st100{fill:url(#SVGID_45_);}
	.st101{fill:url(#SVGID_46_);}
	.st102{fill:#F8B900;}
	.st103{fill:#00235F;}
	.st104{fill:url(#SVGID_47_);}
	.st105{fill:url(#SVGID_48_);}
	.st106{fill:url(#SVGID_49_);}
	.st107{fill:url(#SVGID_50_);}
	.st108{fill:url(#SVGID_51_);}
	.st109{fill:url(#SVGID_52_);}
	.st110{opacity:0.8902;fill:#EB151C;enable-background:new    ;}
	.st111{fill:#E11837;}
	.st112{fill:#E2231A;}
	.st113{fill:#001689;}
	.st114{fill:#EF3E34;}
	.st115{fill:#4D82C4;}
	.st116{fill:#8C7035;}
	.st117{fill:#5FBA45;}
	.st118{fill:#008F7E;}
	.st119{fill:#004595;}
	.st120{fill:#FFED00;}
	.st121{fill:#E53138;}
	.st122{fill:url(#SVGID_53_);}
	.st123{fill:url(#SVGID_54_);}
	.st124{fill:url(#SVGID_55_);}
	.st125{fill:url(#SVGID_56_);}
	.st126{fill:#11185E;}
	.st127{fill:#EE3024;}
	.st128{fill:#0675CC;}
	.st129{fill:#E2001A;}
	.st130{fill:#009036;}
	.st131{fill:#0B1560;}
	.st132{fill:#0070AF;}
	.st133{fill:#0F2C64;}
	.st134{fill:#EF001E;}
	.st135{fill:#1C2A8D;}
	.st136{fill:#334357;}
	.st137{fill:url(#SVGID_57_);}
	.st138{fill:#ED1B28;}
	.st139{fill:#1E5AAF;}
	.st140{fill:#991933;}
	.st141{fill:#E01933;}
	.st142{fill:#003366;}
	.st143{fill:#00265D;}
	.st144{fill:#003263;}
	.st145{fill:#EE452A;}
	.st146{fill:#011F65;}
	.st147{fill:#EC2227;}
	.st148{fill:#010101;}
	.st149{fill:#FCEE21;}
	.st150{fill:#18488B;}
	.st151{fill:#EC2427;}
	.st152{fill:#D09B2B;}
	.st153{fill:#156192;}
	.st154{fill:#021A31;}
	.st155{fill:#008E8F;}
	.st156{fill:#2B438F;}
	.st157{fill:#363F9E;}
	.st158{fill:#00ABBF;}
</style>
<g id="Layer_1" class="st0">
</g>
<g id="Layer_2" class="st0">
</g>
<g id="Layer_3">
</g>
<g id="Layer_4">
	<g>
		<path class="st152" d="M18.283,19.79c-0.318,0.171-2.6,2.112-7.147,2.112c-3.828,0-7.916-1.949-9.196-1.911
			c-0.451-0.016-0.816,0.072-1.099,0.199c-0.534,0.222-0.884-0.132-0.837-0.433c0.05-0.302,0.488-0.865,0.807-1.27
			c0.389-0.504,0.998-1.06,1.647-1.503c1.814-1.238,3.496-1.264,4.241-1.131c0.114,0.019,0.439,0.035,0.953,0.538
			c1.238,1.187,3.468,2.682,5.183,2.989c0.181,0.02,0.961,0.098,0.973-0.124c0.008-0.132-0.209-0.183-0.282-0.199
			c-2.757-0.623-4.346-1.969-5.864-3.354c-1.235-1.125-2.174-2.521-2.883-3.883C4.221,10.736,3.436,8.596,2.01,7.88
			c-0.318-0.155-0.328-0.737,0.337-0.89c0.463-0.113,3.275-0.376,6.625,1.433c1.318,0.714,1.743,1.51,1.793,1.706
			c0,0,0.078,0.045,0.098,0.387c0.177,4.826,2.302,6.445,3.329,7.19c0.415,0.323,0.935,0.461,1.078,0.318
			c0.063-0.07-0.106-0.221-0.217-0.294c-2.962-1.951-3.534-4.494-3.694-7.222c-0.155-2.713,0.989-5.071,1.713-6.997
			c0.103-0.274,0.522-1.513,0.207-2.566c-0.211-0.714,0.013-0.88,0.405-0.94c0.399-0.058,1.003,0.761,1.214,1.017
			c0.161,0.193,0.696,0.813,1.496,2.405c1.583,3.139,1.595,6.615,1.593,7.013c-0.028,2.261-0.446,2.398-1.521,2.923
			c-0.897,0.351-1.4,1.07-1.4,1.77c0,0.714,0.534,1.243,1.504,1.658c0.065,0.019,0.179,0.055,0.229,0.068
			c0.426,0.104,0.785,0.009,0.785-0.153c0-0.145-0.423-0.199-0.423-0.199c-0.947-0.233-1.604-0.768-1.604-1.377
			c0-0.828,1.163-1.668,2.651-1.668h0.076l0.083-0.002c1.482,0,2.644,0.838,2.644,1.668c0,0.609-0.655,1.143-1.601,1.377
			c0,0-0.422,0.055-0.422,0.197c0.003,0.163,0.354,0.259,0.783,0.154c0.054-0.012,0.163-0.047,0.233-0.07
			c0.971-0.412,1.499-0.944,1.499-1.658c0-0.699-0.5-1.416-1.399-1.768c-1.076-0.522-1.486-0.664-1.521-2.924
			c-0.004-0.397,0.014-3.873,1.589-7.011c0.803-1.593,1.335-2.214,1.5-2.405c0.208-0.255,0.813-1.074,1.216-1.018
			c0.396,0.061,0.613,0.227,0.401,0.939c-0.314,1.056,0.102,2.294,0.207,2.567c0.718,1.927,1.868,4.283,1.711,6.997
			c-0.156,2.728-0.729,5.271-3.691,7.22c-0.118,0.075-0.276,0.224-0.211,0.297c0.136,0.145,0.658,0.005,1.073-0.316
			c1.026-0.745,3.148-2.365,3.326-7.192c0.025-0.34,0.105-0.389,0.105-0.389c0.047-0.194,0.469-0.989,1.785-1.703
			c3.358-1.813,6.166-1.546,6.629-1.436c0.665,0.157,0.654,0.739,0.338,0.89c-1.43,0.72-2.212,2.856-2.77,3.938
			c-0.704,1.366-1.648,2.762-2.881,3.887c-1.518,1.383-3.11,2.728-5.867,3.354c-0.07,0.015-0.29,0.065-0.28,0.199
			c0.009,0.221,0.789,0.142,0.977,0.124c1.711-0.307,3.936-1.803,5.182-2.99c0.515-0.502,0.836-0.516,0.955-0.538
			c0.737-0.13,2.418-0.104,4.236,1.133c0.653,0.437,1.262,0.997,1.642,1.5c0.32,0.407,0.759,0.97,0.811,1.272
			c0.046,0.301-0.302,0.653-0.838,0.432c-0.283-0.124-0.647-0.214-1.098-0.197c-1.282-0.039-5.369,1.912-9.198,1.909
			C20.889,21.899,18.606,19.961,18.283,19.79z"/>
	</g>
	<path class="st153" d="M53.489,6.827h-1.312l-5.049,11.002L41.997,6.827h-3.269c0.936,0.98,1.228,1.191,1.751,2.361l5.632,12.118
		h0.438l5.686-12.461C52.671,7.915,52.903,7.546,53.489,6.827z"/>
	<path class="st153" d="M56.663,8.176c0-0.657-0.644-1.242-1.372-1.242c-0.698,0-1.336,0.585-1.336,1.242
		c0,0.64,0.638,1.222,1.336,1.222C56.02,9.398,56.663,8.816,56.663,8.176z M56.84,21.093c-0.439-0.956-0.409-1.511-0.409-2.228
		v-5.756c0-0.688-0.029-1.272,0.409-2.199h-3.065c0.441,0.927,0.411,1.51,0.411,2.199v5.756c0,1.06,0.029,1.325-0.411,2.228H56.84z"
		/>
	<path class="st153" d="M69.938,14.964c-0.407-4.053-3.644-4.503-5.658-4.293c-4.407,0.502-5.92,3.951-5.571,6.071
		c0.198,1.063,0.759,2.466,2.129,3.474c1.226,0.877,4.784,2.254,8.078-0.211l-0.433-0.48c-0.847,0.746-2.335,1.038-3.329,1.009
		c-2.184-0.103-4.141-2.07-3.822-5.571H69.938z M67.253,14.17H61.51c0.347-1.482,1.395-2.651,3.119-2.755
		C65.302,11.361,67.11,11.442,67.253,14.17z"/>
	<path class="st153" d="M78.791,18.973c-1.047,1.141-1.835,1.67-2.888,1.64c-1.255-0.025-2.187-0.658-2.187-2.095v-6.811h4.49
		v-0.796h-4.49V9.053l-2.514,0.585c0.183,0.557,0.209,0.557,0.238,1.273h-0.639v0.796h0.666v6.546c0,2.466,2.249,2.998,3.586,3.025
		c1.054,0,2.072-0.107,3.358-0.903L78.791,18.973z"/>
	<path class="st153" d="M91.06,21.093c-0.408-0.956-0.38-1.884-0.38-2.203v-4.931c0-1.485-0.204-1.802-0.935-2.412
		c-0.842-0.717-2.42-0.848-3.149-0.822c-1.543,0.105-2.887,0.822-4.231,2.308c0.034-1.221-0.056-1.777-0.26-2.121
		c-0.702,0-2.13,0-2.683,0c0.758,1.138,0.698,2.466,0.698,2.648v5.332c0,1.035,0.029,1.299-0.409,2.203h3.067
		c-0.441-0.956-0.415-1.854-0.415-2.203v-3.287c0-1.832,1.929-3.952,3.916-3.978c1.893-0.054,2.155,0.876,2.155,3.418v3.847
		c0,1.035,0,1.299-0.411,2.203L91.06,21.093L91.06,21.093z"/>
	<path class="st153" d="M103.767,21.093c-0.872-1.246-0.961-2.07-0.961-2.707v-3.392c0-0.61,0.059-1.378-0.204-2.017
		c-0.842-2.306-4.696-2.596-6.941-2.121c-0.846,0.185-1.341,0.399-2.274,0.851l-0.207,1.459c1.43-1.302,2.95-1.699,4.119-1.723
		c2.475-0.081,3.321,0.897,3.265,1.696c-0.059,1.645-2.656,1.484-4.434,1.803c-2.594,0.476-3.794,1.539-3.794,3.127
		c0,1.486,1.432,3.104,3.937,3.263c1.261,0.081,2.772-0.503,4.318-2.336c0.06,1.121,0.119,1.619,0.411,2.099
		C101.761,21.093,102.986,21.093,103.767,21.093z M100.564,16.239c0,2.598-2.072,4.057-3.414,4.032
		c-1.808-0.081-3.176-1.671-1.808-3.553c0.349-0.51,1.341-1.09,2.772-1.327c0.322-0.054,1.313-0.241,2.45-0.69
		C100.564,15.338,100.564,16.239,100.564,16.239z"/>
	<path class="st153" d="M121.706,21.067c-0.411-0.952-0.411-1.882-0.411-2.202v-4.959c0-2.677-1.165-3.286-2.536-3.206
		c-1.43,0.078-2.949,0.819-4.2,2.41c-0.349-2.015-1.373-2.466-2.541-2.384c-1.517,0.078-2.829,0.822-4.167,2.308
		c0.031-1.221-0.06-1.777-0.265-2.121c-0.7,0-2.127,0-2.68,0c0.755,1.139,0.696,2.466,0.696,2.648v5.331
		c0,1.035,0.03,1.298-0.409,2.203h3.065c-0.435-0.955-0.407-1.855-0.407-2.203v-3.287c0-1.436,1.106-2.969,2.507-3.607
		c2.158-1.006,1.981,2.758,1.981,3.024v3.845c0,1.034,0.029,1.324-0.404,2.202h3.062c-0.438-0.952-0.409-1.828-0.409-2.202v-3.261
		c0-1.436,1.08-2.996,2.511-3.631c2.156-1.01,1.978,2.755,1.978,3.022v3.871c0,1.007,0,1.299-0.408,2.202L121.706,21.067
		L121.706,21.067z"/>
	<path class="st153" d="M140.203,21.121c-0.931-1.007-1.222-1.196-1.751-2.363L132.825,6.64h-0.436l-5.722,12.462
		c-0.406,0.928-0.639,1.274-1.25,2.02h1.344l2.422-5.304h5.31l2.442,5.304L140.203,21.121L140.203,21.121z M133.992,14.807h-4.32
		l2.163-4.72L133.992,14.807z"/>
	<path class="st153" d="M143.845,8.176c0-0.657-0.641-1.242-1.371-1.242c-0.702,0-1.342,0.585-1.342,1.242
		c0,0.64,0.64,1.222,1.342,1.222C143.204,9.398,143.845,8.816,143.845,8.176z M144.018,21.093c-0.432-0.956-0.409-1.511-0.409-2.228
		v-5.756c0-0.688-0.022-1.272,0.409-2.199h-3.063c0.441,0.927,0.409,1.51,0.409,2.199v5.756c0,1.06,0.031,1.325-0.409,2.228H144.018
		z"/>
	<path class="st153" d="M154.932,10.724c-3.471-0.581-5.191,1.06-6.151,2.308c0.026-1.195-0.062-1.751-0.265-2.121
		c-0.699,0-2.132,0-2.684,0c0.761,1.138,0.695,2.466,0.695,2.648v5.332c0,1.035,0.031,1.299-0.402,2.203h3.054
		c-0.431-0.929-0.4-1.54-0.4-2.203v-3.287c0-1.698,2.068-5.013,4.982-3.447L154.932,10.724z"/>
	<path class="st153" d="M158.404,21.093c-0.439-0.929-0.414-1.195-0.414-2.256V8.072c0-1.06-0.025-1.325,0.414-2.28h-3.061
		c0.433,0.955,0.408,1.22,0.408,2.28v10.765c0,0.716,0.025,1.278-0.408,2.256C155.343,21.093,158.404,21.093,158.404,21.093z"/>
	<path class="st153" d="M163.393,8.176c0-0.657-0.64-1.242-1.367-1.242c-0.704,0-1.343,0.585-1.343,1.242
		c0,0.64,0.639,1.222,1.343,1.222C162.752,9.398,163.393,8.816,163.393,8.176z M163.566,21.093
		c-0.434-0.956-0.407-1.511-0.407-2.228v-5.756c0-0.688-0.027-1.272,0.407-2.199h-3.059c0.437,0.927,0.407,1.51,0.407,2.199v5.756
		c0,1.06,0.03,1.325-0.407,2.228H163.566z"/>
	<path class="st153" d="M177.013,21.093c-0.404-0.956-0.373-1.884-0.373-2.203v-4.931c0-1.485-0.207-1.802-0.935-2.412
		c-0.849-0.717-2.421-0.848-3.149-0.822c-1.547,0.105-2.887,0.822-4.23,2.308c0.033-1.221-0.057-1.777-0.262-2.121
		c-0.7,0-2.131,0-2.685,0c0.759,1.138,0.703,2.466,0.703,2.648v5.332c0,1.035,0.023,1.299-0.414,2.203h3.061
		c-0.432-0.956-0.404-1.854-0.404-2.203v-3.287c0-1.832,1.926-3.952,3.909-3.978c1.896-0.054,2.157,0.876,2.157,3.418v3.847
		c0,1.035,0,1.299-0.404,2.203L177.013,21.093L177.013,21.093z"/>
	<path class="st153" d="M189.991,14.964c-0.405-4.053-3.643-4.503-5.657-4.293c-4.407,0.502-5.924,3.951-5.571,6.071
		c0.206,1.063,0.76,2.466,2.133,3.474c1.224,0.877,4.777,2.254,8.074-0.211l-0.438-0.48c-0.844,0.746-2.327,1.038-3.32,1.009
		c-2.192-0.103-4.145-2.07-3.828-5.571H189.991z M187.31,14.17h-5.748c0.349-1.482,1.402-2.651,3.122-2.755
		C185.356,11.361,187.161,11.442,187.31,14.17z"/>
	<path class="st153" d="M199.984,18.363c0.288-2.125-3.355-3.343-4.495-3.741c-1.808-0.663-2.45-1.14-2.389-2.042
		c0.027-0.69,0.877-1.167,1.868-1.194c0.906-0.025,2.508,0.265,4.284,1.671l-0.204-1.432c-1.981-0.983-3.588-1.006-4.142-0.983
		c-2.186,0.081-3.615,0.983-3.82,2.045c-0.498,2.276,1.779,3.129,3.615,3.793c5.165,1.882,2.655,4.19,0.12,4.19
		c-1.895,0-3.708-1.276-4.32-1.805l0.178,1.408c1.544,0.9,3.032,1.113,4.023,1.139C197.332,21.461,199.75,20.19,199.984,18.363z"/>
</g>
</svg>
