<?xml version="1.0" encoding="utf-8"?>
<!-- Generator: Adobe Illustrator 18.0.0, SVG Export Plug-In . SVG Version: 6.00 Build 0)  -->
<!DOCTYPE svg PUBLIC "-//W3C//DTD SVG 1.1//EN" "http://www.w3.org/Graphics/SVG/1.1/DTD/svg11.dtd">
<svg version="1.1" xmlns="http://www.w3.org/2000/svg" xmlns:xlink="http://www.w3.org/1999/xlink" x="0px" y="0px" width="200px"
	 height="39.949px" viewBox="0 0 200 39.949" style="enable-background:new 0 0 200 39.949;" xml:space="preserve">
<style type="text/css">
	.st0{display:none;}
	.st1{display:inline;}
	.st2{fill:#ED2D27;}
	.st3{display:inline;fill:#F8B900;}
	.st4{display:inline;fill:#00235F;}
	.st5{fill:url(#SVGID_1_);}
	.st6{fill:#006CB6;}
	.st7{fill:url(#SVGID_2_);}
	.st8{fill:url(#SVGID_3_);}
	.st9{fill:url(#SVGID_4_);}
	.st10{fill:url(#SVGID_5_);}
	.st11{fill:url(#SVGID_6_);}
	.st12{fill-rule:evenodd;clip-rule:evenodd;fill:#FFFFFF;}
	.st13{fill-rule:evenodd;clip-rule:evenodd;fill:#E2231A;}
	.st14{fill:#FFFFFF;}
	.st15{fill-rule:evenodd;clip-rule:evenodd;fill:#001689;}
	.st16{fill:#00529B;}
	.st17{fill:#F47920;}
	.st18{fill:url(#SVGID_7_);}
	.st19{fill:url(#SVGID_8_);}
	.st20{fill:url(#SVGID_9_);}
	.st21{fill:url(#SVGID_10_);}
	.st22{fill:url(#SVGID_11_);}
	.st23{fill:url(#SVGID_12_);}
	.st24{fill:url(#SVGID_13_);}
	.st25{fill:#00054C;}
	.st26{fill:url(#path3364_3_);}
	.st27{fill:url(#path3366_3_);}
	.st28{fill:#22356B;}
	.st29{fill:#FCC210;}
	.st30{fill:#ED1C24;}
	.st31{display:inline;fill:url(#SVGID_14_);}
	.st32{fill:#002157;}
	.st33{fill:#CC2234;}
	.st34{fill:#E23546;}
	.st35{fill:#FCB130;}
	.st36{fill:#1D4886;}
	.st37{display:inline;fill:none;}
	.st38{display:inline;fill:#005DAA;}
	.st39{fill:#005DAA;}
	.st40{fill:#00A1E4;}
	.st41{fill:#00704A;}
	.st42{fill:#B10D28;}
	.st43{fill:#D31245;}
	.st44{fill:url(#path70_3_);}
	.st45{fill:url(#SVGID_15_);}
	.st46{fill:url(#SVGID_16_);}
	.st47{fill:#231916;}
	.st48{fill:#E60013;}
	.st49{fill:#C0231E;}
	.st50{fill:#014E84;}
	.st51{fill:#BA783E;}
	.st52{fill:#002052;}
	.st53{fill:#0093D0;}
	.st54{fill:#ED1B2F;}
	.st55{fill:#E3242B;}
	.st56{fill-rule:evenodd;clip-rule:evenodd;fill:#034EA2;}
	.st57{fill-rule:evenodd;clip-rule:evenodd;fill:#E11837;}
	.st58{fill:#034EA2;}
	.st59{opacity:0.8902;fill:#EB151C;}
	.st60{fill:#1A1A1A;}
	.st61{enable-background:new    ;}
	.st62{fill:#FF6600;}
	.st63{clip-path:url(#SVGID_18_);fill:url(#SVGID_19_);}
	.st64{fill:url(#SVGID_20_);}
	.st65{fill:#B2DB1F;}
	.st66{fill:#FA002C;}
	.st67{fill:#1C2D5B;}
	.st68{fill:#1C4E9D;}
	.st69{fill:#ED192D;}
	.st70{display:inline;fill:#FFFFFF;}
	.st71{display:inline;fill:#00529B;}
	.st72{display:inline;fill:#F47920;}
	.st73{display:inline;fill:url(#SVGID_21_);}
	.st74{display:inline;fill:url(#SVGID_22_);}
	.st75{display:inline;fill:url(#SVGID_23_);}
	.st76{display:inline;fill:url(#SVGID_24_);}
	.st77{display:inline;fill:url(#SVGID_25_);}
	.st78{display:inline;fill:url(#SVGID_26_);}
	.st79{display:inline;fill:url(#SVGID_27_);}
	.st80{display:inline;fill:url(#path3364_4_);}
	.st81{display:inline;fill:url(#path3366_4_);}
	.st82{display:inline;fill:url(#SVGID_28_);}
	.st83{display:inline;fill:url(#SVGID_29_);}
	.st84{display:inline;fill:url(#SVGID_30_);}
	.st85{display:inline;opacity:0.75;fill:#FFFFFF;}
	.st86{display:inline;fill:#ED1B2F;}
	.st87{opacity:0.8902;fill:#FFFFFF;}
	.st88{clip-path:url(#SVGID_32_);fill:#FFFFFF;}
	.st89{fill:url(#SVGID_33_);}
	.st90{fill:url(#SVGID_34_);}
	.st91{fill:url(#SVGID_35_);}
	.st92{fill:url(#SVGID_36_);}
	.st93{fill:url(#SVGID_37_);}
	.st94{fill:url(#SVGID_38_);}
	.st95{fill:url(#SVGID_39_);}
	.st96{fill:url(#SVGID_40_);}
	.st97{clip-path:url(#SVGID_42_);fill:url(#SVGID_43_);}
	.st98{fill:url(#SVGID_44_);}
	.st99{fill:url(#path70_5_);}
	.st100{fill:url(#SVGID_45_);}
	.st101{fill:url(#SVGID_46_);}
	.st102{fill:#F8B900;}
	.st103{fill:#00235F;}
	.st104{fill:url(#SVGID_47_);}
	.st105{fill:url(#SVGID_48_);}
	.st106{fill:url(#SVGID_49_);}
	.st107{fill:url(#SVGID_50_);}
	.st108{fill:url(#SVGID_51_);}
	.st109{fill:url(#SVGID_52_);}
	.st110{opacity:0.8902;fill:#EB151C;enable-background:new    ;}
	.st111{fill:#E11837;}
	.st112{fill:#E2231A;}
	.st113{fill:#001689;}
	.st114{fill:#EF3E34;}
	.st115{fill:#4D82C4;}
	.st116{fill:#8C7035;}
	.st117{fill:#5FBA45;}
	.st118{fill:#008F7E;}
	.st119{fill:#004595;}
	.st120{fill:#FFED00;}
	.st121{fill:#E53138;}
	.st122{fill:url(#SVGID_53_);}
	.st123{fill:url(#SVGID_54_);}
	.st124{fill:url(#SVGID_55_);}
	.st125{fill:url(#SVGID_56_);}
	.st126{fill:#11185E;}
	.st127{fill:#EE3024;}
	.st128{fill:#0675CC;}
	.st129{fill:#E2001A;}
	.st130{fill:#009036;}
	.st131{fill:#0B1560;}
	.st132{fill:#0070AF;}
	.st133{fill:#0F2C64;}
	.st134{fill:#EF001E;}
	.st135{fill:#1C2A8D;}
	.st136{fill:#334357;}
	.st137{fill:url(#SVGID_57_);}
	.st138{fill:#ED1B28;}
	.st139{fill:#1E5AAF;}
	.st140{fill:#991933;}
	.st141{fill:#E01933;}
	.st142{fill:#003366;}
	.st143{fill:#00265D;}
	.st144{fill:#003263;}
	.st145{fill:#EE452A;}
	.st146{fill:#011F65;}
	.st147{fill:#EC2227;}
	.st148{fill:#010101;}
	.st149{fill:#FCEE21;}
	.st150{fill:#18488B;}
	.st151{fill:#EC2427;}
	.st152{fill:#D09B2B;}
	.st153{fill:#156192;}
	.st154{fill:#021A31;}
	.st155{fill:#008E8F;}
	.st156{fill:#2B438F;}
	.st157{fill:#363F9E;}
	.st158{fill:#00ABBF;}
</style>
<g id="Layer_1" class="st0">
</g>
<g id="Layer_2" class="st0">
</g>
<g id="Layer_3">
	<g>
		<g id="layer1_5_" transform="translate(-93.702257,-409.81391)">
			<path id="path38_4_" class="st2" d="M288.312,435.108c-1.169,0-2.149,0.25-3.026,0.694c-0.785,0.395-1.474,0.966-2.095,1.713
				h-0.062c-0.685-1.456-2.286-2.407-4.378-2.407c-2.712,0-4.136,1.316-4.821,2.237h-0.106l-0.198-1.927h-4.199
				c0.064,1.264,0.126,2.726,0.126,4.473v9.557h4.838V441.3c0-0.372,0.028-0.77,0.194-1.115c0.287-0.691,1.035-1.554,2.312-1.554
				c1.598,0,2.313,1.207,2.313,2.96v7.857h4.834v-8.201c0-0.349,0.069-0.776,0.163-1.096c0.354-0.833,1.14-1.52,2.312-1.52
				c1.604,0,2.357,1.175,2.357,3.215v7.602h4.829v-8.264C293.702,436.996,291.384,435.108,288.312,435.108 M257.936,446.635h-0.035
				c-2.082,0-3.231-1.81-3.231-4.185c0-2.095,0.922-4.215,3.266-4.215c2.255,0,3.171,2.121,3.171,4.186
				C261.107,444.947,259.897,446.635,257.936,446.635 M258.129,435.108c-5.152,0-8.546,2.894-8.546,7.425
				c0,4.536,3.591,7.23,8.256,7.23h0.031c4.245,0,8.385-2.349,8.385-7.455C266.255,438.062,262.994,435.108,258.129,435.108
				 M244.362,438.458c1.311,0,2.183,0.203,2.773,0.432l0.785-3.24c-1.047-0.345-2.48-0.543-3.786-0.543
				c-5.937,0-9.138,3.351-9.138,7.453c0,4.426,3.294,7.202,8.453,7.202c1.89,0,3.557-0.28,4.44-0.657l-0.602-3.211
				c-0.743,0.287-1.656,0.455-2.83,0.455c-2.409,0-4.373-1.376-4.373-3.955C240.053,440.096,241.755,438.458,244.362,438.458
				 M229.777,444.458c-1.733,0-2.94,1.093-2.94,2.673c0,1.515,1.207,2.631,2.874,2.631h0.035c1.759,0,2.936-1.116,2.936-2.631
				C232.646,445.523,231.472,444.458,229.777,444.458 M218.224,444.345c0,0.253-0.024,0.514-0.094,0.744
				c-0.328,0.893-1.374,1.61-2.581,1.61c-1.105,0-1.96-0.552-1.96-1.668c0-1.659,2.022-2.214,4.635-2.214V444.345L218.224,444.345z
				 M223.022,441.161c0-3.296-1.666-6.054-6.981-6.054c-2.907,0-5.092,0.715-6.202,1.258l0.916,2.784
				c1.046-0.546,2.772-1.031,4.404-1.031c2.455,0,2.903,1.063,2.903,1.81v0.168c-5.637,0-9.366,1.724-9.366,5.367
				c0,2.241,1.928,4.299,5.157,4.299c1.891,0,3.523-0.595,4.571-1.718h0.103l0.286,1.403h4.468
				c-0.194-0.771-0.258-2.063-0.258-3.385L223.022,441.161L223.022,441.161z M112.117,449.448h4.963v-13.143h-4.963V449.448z
				 M114.632,429.83c-1.697,0-2.804,1.003-2.804,2.319c0,1.293,1.076,2.319,2.736,2.319h0.032c1.727,0,2.811-1.026,2.811-2.319
				C117.373,430.833,116.322,429.83,114.632,429.83 M200.575,449.448h4.956v-13.492h-4.956V449.448z M203.091,429.476
				c-1.704,0-2.811,1.007-2.811,2.331c0,1.292,1.075,2.318,2.745,2.318h0.019c1.731,0,2.818-1.026,2.818-2.318
				C205.824,430.483,204.775,429.476,203.091,429.476 M188.791,446.325c-1.43,0-2.568-0.921-2.899-2.069
				c-0.072-0.227-0.106-0.486-0.106-0.771v-2.065c0-0.282,0.035-0.546,0.106-0.808c0.331-1.264,1.562-2.153,2.899-2.153
				c2.321,0,3.429,1.725,3.429,3.9C192.22,444.885,190.917,446.325,188.791,446.325 M190.687,435.108
				c-2.219,0-3.882,0.775-4.832,1.976h-0.069v-7.564h-4.956v15.739c0,1.577-0.062,3.276-0.123,4.187h4.201l0.195-1.947h0.072
				c1.102,1.669,2.938,2.262,4.798,2.262c3.655,0,7.272-2.521,7.272-7.571C197.279,437.891,194.505,435.108,190.687,435.108
				 M171.855,444.345c0,0.253-0.031,0.514-0.099,0.744c-0.318,0.893-1.365,1.61-2.573,1.61c-1.112,0-1.954-0.552-1.954-1.668
				c0-1.659,2.015-2.214,4.626-2.214V444.345z M176.653,441.161c0-3.296-1.657-6.054-6.984-6.054c-2.902,0-5.09,0.715-6.2,1.258
				l0.916,2.784c1.043-0.546,2.777-1.031,4.405-1.031c2.445,0,2.904,1.063,2.904,1.81v0.168c-5.646,0-9.367,1.724-9.367,5.367
				c0,2.241,1.929,4.299,5.16,4.299c1.891,0,3.525-0.595,4.564-1.718h0.096l0.292,1.403h4.475c-0.195-0.771-0.262-2.063-0.262-3.385
				L176.653,441.161L176.653,441.161z M155.577,438.034h-0.139l-0.192-2.616h-4.237c0.091,1.208,0.122,2.561,0.122,4.623
				l-0.031,9.407h4.966v-7.09c0-0.367,0.029-0.684,0.096-0.969c0.33-1.379,1.569-2.208,3.389-2.208c0.553,0,0.949,0.055,1.371,0.115
				v-4.103c-0.355-0.06-0.582-0.087-1.043-0.087C158.316,435.108,156.392,435.971,155.577,438.034 M142.134,444.345
				c0,0.253-0.038,0.514-0.1,0.744c-0.323,0.893-1.38,1.61-2.581,1.61c-1.105,0-1.959-0.552-1.959-1.668
				c0-1.659,2.026-2.214,4.64-2.214V444.345z M146.929,441.161c0-3.296-1.67-6.054-6.988-6.054c-2.897,0-5.085,0.715-6.197,1.258
				l0.916,2.784c1.044-0.547,2.772-1.031,4.407-1.031c2.443,0,2.902,1.063,2.902,1.81v0.168c-5.644,0-9.37,1.724-9.37,5.367
				c0,2.241,1.927,4.299,5.16,4.299c1.893,0,3.52-0.595,4.571-1.718h0.089l0.299,1.403h4.469c-0.189-0.771-0.257-2.063-0.257-3.385
				V441.161L146.929,441.161z M125.845,438.034h-0.133l-0.186-2.616h-4.25c0.106,1.208,0.135,2.561,0.135,4.623l-0.028,9.407h4.953
				v-7.09c0-0.367,0.036-0.684,0.101-0.969c0.323-1.379,1.566-2.208,3.391-2.208c0.558,0,0.947,0.055,1.369,0.115v-4.103
				c-0.353-0.06-0.59-0.087-1.043-0.087C128.585,435.108,126.666,435.971,125.845,438.034 M103.23,444.345
				c0,0.253-0.022,0.514-0.092,0.744c-0.326,0.893-1.373,1.61-2.577,1.61c-1.116,0-1.961-0.552-1.961-1.668
				c0-1.659,2.02-2.214,4.631-2.214V444.345z M108.033,441.161c0-3.296-1.67-6.054-6.985-6.054c-2.904,0-5.09,0.715-6.201,1.258
				l0.915,2.784c1.042-0.546,2.771-1.031,4.409-1.031c2.442,0,2.899,1.063,2.899,1.81v0.168c-5.647,0-9.367,1.724-9.367,5.367
				c0,2.241,1.929,4.299,5.156,4.299c1.902,0,3.525-0.595,4.577-1.718h0.091l0.291,1.403h4.477
				c-0.198-0.771-0.262-2.063-0.262-3.385L108.033,441.161L108.033,441.161z M102.327,412.825h0.022c1.148,0,1.86-0.673,1.86-1.505
				c-0.027-0.852-0.712-1.506-1.837-1.506c-1.122,0-1.856,0.654-1.856,1.506C100.515,412.151,101.229,412.825,102.327,412.825
				 M246.062,420.34c0,1.27-0.343,1.854-1.371,1.854h-5.047c0.076-0.402,0.115-0.848,0.115-1.357v-6.514h-3.412v6.018
				c0,1.27-0.343,1.854-1.376,1.854h-22.002v-7.871h-5.411c-4.172,0-6.419,2.443-6.419,5.367c0,3.153,2.097,5.152,6.644,5.152h0.455
				l1.247-2.453h-1.702c-1.696,0-3.07-0.966-3.07-2.822c-0.019-1.629,1.173-2.802,3.006-2.802h1.766v5.624v2.481h26.68
				c1.12,0,2.06-0.368,2.635-0.907c0.123-0.121,0.23-0.26,0.332-0.409v1.316h6.748c1.12,0,2.06-0.368,2.632-0.907
				c0.641-0.625,0.962-1.638,0.962-3.126v-6.514h-3.412L246.062,420.34L246.062,420.34z M210.459,412.825h0.026
				c1.143,0,1.855-0.673,1.855-1.505c-0.023-0.852-0.712-1.506-1.829-1.506c-1.125,0-1.861,0.654-1.861,1.506
				C208.649,412.151,209.36,412.825,210.459,412.825 M107.405,419.794c0,1.964-2.377,3.138-5.228,3.138
				c-2.853,0-4.974-1.174-4.974-3.138v-5.473h-3.373v4.718c0,2.026,0.53,3.688,2.078,4.745c1.465,0.992,3.394,1.648,6.4,1.648
				c2.999,0,4.929-0.657,6.394-1.648c1.552-1.057,2.077-2.72,2.077-4.745v-4.718h-3.375L107.405,419.794z M235.528,427.99
				c-0.024-0.852-0.713-1.505-1.836-1.505c-1.122,0-1.855,0.653-1.855,1.505c0,0.831,0.709,1.505,1.809,1.505h0.023
				C234.815,429.495,235.528,428.822,235.528,427.99 M206.339,412.825h0.022c1.146,0,1.855-0.673,1.855-1.505
				c-0.022-0.852-0.709-1.506-1.829-1.506c-1.122,0-1.856,0.654-1.856,1.506C204.53,412.151,205.238,412.825,206.339,412.825
				 M229.548,429.495c1.147,0,1.856-0.673,1.856-1.505c-0.023-0.852-0.709-1.505-1.834-1.505c-1.12,0-1.854,0.653-1.854,1.505
				c0,0.831,0.709,1.505,1.807,1.505H229.548z M157.04,416.764h7.648c1.834,0,3.027,1.173,3.006,2.802
				c0,1.376-0.758,2.259-1.838,2.627h-8.816V416.764L157.04,416.764z M184.55,424.869c1.122,0,2.063-0.368,2.635-0.907
				c0.091-0.089,0.173-0.186,0.249-0.289v1.196h4.099c1.125,0,2.062-0.368,2.634-0.907c0.644-0.625,0.962-1.638,0.962-3.126v-10.944
				h-3.415v10.447c0,1.27-0.341,1.854-1.373,1.854h-2.31c0.074-0.402,0.117-0.848,0.117-1.357v-10.944h-3.415v10.447
				c0,1.27-0.343,1.854-1.374,1.854h-12.671c0.385-0.717,0.577-1.557,0.577-2.504c0-2.925-2.242-5.367-6.414-5.367h-7.811v-4.43
				h-3.483v12.301h-4.33c0.074-0.402,0.113-0.848,0.113-1.357v-6.514h-3.411v6.018c0,1.27-0.346,1.854-1.375,1.854h-19.099v-7.882
				h-3.48v8.497c0,2.092-0.186,2.933-0.689,3.429c-0.434,0.431-0.543,0.625-1.435,0.689v2.568c1.654,0,2.838-0.113,4.023-1.296
				c0.783-0.777,1.319-1.79,1.505-3.33h20.365c1.122,0,2.064-0.368,2.638-0.907c0.165-0.162,0.313-0.354,0.435-0.571v1.478H184.55
				L184.55,424.869z M293.643,409.892h-3.484v14.977h3.484V409.892z M143.182,429.495c1.148,0,1.858-0.673,1.858-1.505
				c-0.024-0.852-0.709-1.505-1.832-1.505c-1.128,0-1.859,0.653-1.859,1.505c0,0.831,0.711,1.505,1.813,1.505H143.182
				L143.182,429.495z M243.871,429.495c1.148,0,1.856-0.673,1.856-1.505c-0.023-0.852-0.708-1.505-1.833-1.505
				c-1.122,0-1.855,0.653-1.855,1.505c0,0.831,0.709,1.505,1.81,1.505H243.871L243.871,429.495z M139.061,429.495
				c1.147,0,1.856-0.673,1.856-1.505c-0.021-0.852-0.709-1.505-1.834-1.505c-1.122,0-1.854,0.653-1.854,1.505
				c0,0.831,0.709,1.505,1.81,1.505H139.061L139.061,429.495z M113.954,424.869h3.48v-14.977h-3.48L113.954,424.869L113.954,424.869
				z M256.521,424.869h27.568c1.125,0,2.062-0.368,2.632-0.907c0.647-0.625,0.962-1.638,0.962-3.126v-10.944h-3.411v10.447
				c0,1.27-0.346,1.854-1.375,1.854h-15.93c-1.25-0.299-2.167-1.243-2.167-2.798c-0.021-1.681,1.171-2.894,3.004-2.894
				c1.323,0,2.308,0.634,2.748,1.618l2.761-1.711c-1.128-1.441-3.089-2.394-5.666-2.394c-4.174,0-6.417,2.487-6.417,5.508
				c0,1.015,0.222,1.915,0.639,2.671h-5.27v-7.882h-3.484v8.497c0,2.092-0.182,2.933-0.685,3.429
				c-0.437,0.431-0.629,0.625-1.52,0.689v2.568c1.648,0,2.921-0.113,4.108-1.296C255.797,427.422,256.332,426.41,256.521,424.869"/>
		</g>
	</g>
</g>
<g id="Layer_4">
</g>
</svg>
