<?xml version="1.0" encoding="utf-8"?>
<!-- Generator: Adobe Illustrator 18.0.0, SVG Export Plug-In . SVG Version: 6.00 Build 0)  -->
<!DOCTYPE svg PUBLIC "-//W3C//DTD SVG 1.1//EN" "http://www.w3.org/Graphics/SVG/1.1/DTD/svg11.dtd">
<svg version="1.1" xmlns="http://www.w3.org/2000/svg" xmlns:xlink="http://www.w3.org/1999/xlink" x="0px" y="0px" width="200px"
	 height="32.5px" viewBox="0 0 200 32.5" style="enable-background:new 0 0 200 32.5;" xml:space="preserve">
<style type="text/css">
	.st0{display:none;}
	.st1{display:inline;}
	.st2{fill:#ED2D27;}
	.st3{display:inline;fill:#F8B900;}
	.st4{display:inline;fill:#00235F;}
	.st5{fill:url(#SVGID_1_);}
	.st6{fill:#006CB6;}
	.st7{fill:url(#SVGID_2_);}
	.st8{fill:url(#SVGID_3_);}
	.st9{fill:url(#SVGID_4_);}
	.st10{fill:url(#SVGID_5_);}
	.st11{fill:url(#SVGID_6_);}
	.st12{fill-rule:evenodd;clip-rule:evenodd;fill:#FFFFFF;}
	.st13{fill-rule:evenodd;clip-rule:evenodd;fill:#E2231A;}
	.st14{fill:#FFFFFF;}
	.st15{fill-rule:evenodd;clip-rule:evenodd;fill:#001689;}
	.st16{fill:#00529B;}
	.st17{fill:#F47920;}
	.st18{fill:url(#SVGID_7_);}
	.st19{fill:url(#SVGID_8_);}
	.st20{fill:url(#SVGID_9_);}
	.st21{fill:url(#SVGID_10_);}
	.st22{fill:url(#SVGID_11_);}
	.st23{fill:url(#SVGID_12_);}
	.st24{fill:url(#SVGID_13_);}
	.st25{fill:#00054C;}
	.st26{fill:url(#path3364_3_);}
	.st27{fill:url(#path3366_3_);}
	.st28{fill:#22356B;}
	.st29{fill:#FCC210;}
	.st30{fill:#ED1C24;}
	.st31{display:inline;fill:url(#SVGID_14_);}
	.st32{fill:#002157;}
	.st33{fill:#CC2234;}
	.st34{fill:#E23546;}
	.st35{fill:#FCB130;}
	.st36{fill:#1D4886;}
	.st37{display:inline;fill:none;}
	.st38{display:inline;fill:#005DAA;}
	.st39{fill:#005DAA;}
	.st40{fill:#00A1E4;}
	.st41{fill:#00704A;}
	.st42{fill:#B10D28;}
	.st43{fill:#D31245;}
	.st44{fill:url(#path70_3_);}
	.st45{fill:url(#SVGID_15_);}
	.st46{fill:url(#SVGID_16_);}
	.st47{fill:#231916;}
	.st48{fill:#E60013;}
	.st49{fill:#C0231E;}
	.st50{fill:#014E84;}
	.st51{fill:#BA783E;}
	.st52{fill:#002052;}
	.st53{fill:#0093D0;}
	.st54{fill:#ED1B2F;}
	.st55{fill:#E3242B;}
	.st56{fill-rule:evenodd;clip-rule:evenodd;fill:#034EA2;}
	.st57{fill-rule:evenodd;clip-rule:evenodd;fill:#E11837;}
	.st58{fill:#034EA2;}
	.st59{opacity:0.8902;fill:#EB151C;}
	.st60{fill:#1A1A1A;}
	.st61{enable-background:new    ;}
	.st62{fill:#FF6600;}
	.st63{clip-path:url(#SVGID_18_);fill:url(#SVGID_19_);}
	.st64{fill:url(#SVGID_20_);}
	.st65{fill:#B2DB1F;}
	.st66{fill:#FA002C;}
	.st67{fill:#1C2D5B;}
	.st68{fill:#1C4E9D;}
	.st69{fill:#ED192D;}
	.st70{display:inline;fill:#FFFFFF;}
	.st71{display:inline;fill:#00529B;}
	.st72{display:inline;fill:#F47920;}
	.st73{display:inline;fill:url(#SVGID_21_);}
	.st74{display:inline;fill:url(#SVGID_22_);}
	.st75{display:inline;fill:url(#SVGID_23_);}
	.st76{display:inline;fill:url(#SVGID_24_);}
	.st77{display:inline;fill:url(#SVGID_25_);}
	.st78{display:inline;fill:url(#SVGID_26_);}
	.st79{display:inline;fill:url(#SVGID_27_);}
	.st80{display:inline;fill:url(#path3364_4_);}
	.st81{display:inline;fill:url(#path3366_4_);}
	.st82{display:inline;fill:url(#SVGID_28_);}
	.st83{display:inline;fill:url(#SVGID_29_);}
	.st84{display:inline;fill:url(#SVGID_30_);}
	.st85{display:inline;opacity:0.75;fill:#FFFFFF;}
	.st86{display:inline;fill:#ED1B2F;}
	.st87{opacity:0.8902;fill:#FFFFFF;}
	.st88{clip-path:url(#SVGID_32_);fill:#FFFFFF;}
	.st89{fill:url(#SVGID_33_);}
	.st90{fill:url(#SVGID_34_);}
	.st91{fill:url(#SVGID_35_);}
	.st92{fill:url(#SVGID_36_);}
	.st93{fill:url(#SVGID_37_);}
	.st94{fill:url(#SVGID_38_);}
	.st95{fill:url(#SVGID_39_);}
	.st96{fill:url(#SVGID_40_);}
	.st97{clip-path:url(#SVGID_42_);fill:url(#SVGID_43_);}
	.st98{fill:url(#SVGID_44_);}
	.st99{fill:url(#path70_5_);}
	.st100{fill:url(#SVGID_45_);}
	.st101{fill:url(#SVGID_46_);}
	.st102{fill:#F8B900;}
	.st103{fill:#00235F;}
	.st104{fill:url(#SVGID_47_);}
	.st105{fill:url(#SVGID_48_);}
	.st106{fill:url(#SVGID_49_);}
	.st107{fill:url(#SVGID_50_);}
	.st108{fill:url(#SVGID_51_);}
	.st109{fill:url(#SVGID_52_);}
	.st110{opacity:0.8902;fill:#EB151C;enable-background:new    ;}
	.st111{fill:#E11837;}
	.st112{fill:#E2231A;}
	.st113{fill:#001689;}
	.st114{fill:#EF3E34;}
	.st115{fill:#4D82C4;}
	.st116{fill:#8C7035;}
	.st117{fill:#5FBA45;}
	.st118{fill:#008F7E;}
	.st119{fill:#004595;}
	.st120{fill:#FFED00;}
	.st121{fill:#E53138;}
	.st122{fill:url(#SVGID_53_);}
	.st123{fill:url(#SVGID_54_);}
	.st124{fill:url(#SVGID_55_);}
	.st125{fill:url(#SVGID_56_);}
	.st126{fill:#11185E;}
	.st127{fill:#EE3024;}
	.st128{fill:#0675CC;}
	.st129{fill:#E2001A;}
	.st130{fill:#009036;}
	.st131{fill:#0B1560;}
	.st132{fill:#0070AF;}
	.st133{fill:#0F2C64;}
	.st134{fill:#EF001E;}
	.st135{fill:#1C2A8D;}
	.st136{fill:#334357;}
	.st137{fill:url(#SVGID_57_);}
	.st138{fill:#ED1B28;}
	.st139{fill:#1E5AAF;}
	.st140{fill:#991933;}
	.st141{fill:#E01933;}
	.st142{fill:#003366;}
	.st143{fill:#00265D;}
	.st144{fill:#003263;}
	.st145{fill:#EE452A;}
	.st146{fill:#011F65;}
	.st147{fill:#EC2227;}
	.st148{fill:#010101;}
	.st149{fill:#FCEE21;}
	.st150{fill:#18488B;}
	.st151{fill:#EC2427;}
	.st152{fill:#D09B2B;}
	.st153{fill:#156192;}
	.st154{fill:#021A31;}
	.st155{fill:#008E8F;}
	.st156{fill:#2B438F;}
	.st157{fill:#363F9E;}
	.st158{fill:#00ABBF;}
</style>
<g id="Layer_1" class="st0">
</g>
<g id="Layer_2" class="st0">
</g>
<g id="Layer_3">
	<g>
		<g>
			<path id="path2987_3_" class="st28" d="M0,0h200v32.5H0V0z"/>
			<g>
				<path id="path2993_4_" class="st14" d="M53.26,4.241c2.621-0.009,5.25-0.009,7.87-0.017c2.008,2.707,4,5.422,6.017,8.12
					c2.034-2.672,4.138-5.293,6.077-8.043c2.621-0.086,5.241-0.086,7.862-0.06c-3.483,4.138-6.948,8.293-10.439,12.43
					c-0.009,2.75-0.009,5.5-0.009,8.249c-2.379,0-4.767,0-7.146,0c0.009-2.793,0.009-5.586-0.034-8.37
					C60.018,12.473,56.656,8.344,53.26,4.241z"/>
				<path id="path2997_4_" class="st14" d="M105.825,4.232c3.155,0.009,6.31,0.026,9.456-0.06c2.733,3.776,5.267,7.689,7.931,11.508
					c0.009-3.81,0.069-7.629,0.06-11.439c2.388-0.009,4.776-0.009,7.163,0c-0.103,6.887-0.06,13.784-0.06,20.671
					c-2.422,0.009-4.845,0.009-7.267,0.009c-3.37-4.784-6.741-9.568-10.12-14.335c0,4.776-0.017,9.56-0.069,14.335
					c-2.371,0-4.741,0-7.103,0C105.851,18.024,105.825,11.128,105.825,4.232z"/>
				<path id="path3001_4_" class="st14" d="M160.804,4.232c2.379,0,4.758,0,7.137,0c0,6.896,0,13.792,0,20.688
					c-2.379,0-4.758,0-7.137,0C160.796,18.024,160.796,11.128,160.804,4.232z"/>
				<g>
					<path class="st14" d="M48.329,15.921c2.129-1.181,4.724-2.836,4.569-5.62c-0.371-3.62-4.215-5.586-7.491-5.888
						c-4.879-0.397-9.784-0.086-14.671-0.181c-0.103,6.896-0.026,13.792-0.052,20.688c2.379,0,4.767,0,7.146,0
						c0-2.707,0-5.405,0.009-8.111c1.164,0.009,2.319,0.009,3.483,0.017c1.75,2.689,3.508,5.37,5.232,8.077
						c2.569,0.026,5.138,0.017,7.698,0.009C52.294,21.912,50.337,18.895,48.329,15.921z M37.838,12.361
						c0-1.198-0.009-2.405-0.009-3.612c2.543,0.336,6.189-0.888,7.853,1.595C44.631,13.369,40.321,11.913,37.838,12.361z"/>
				</g>
				<g>
					<path class="st14" d="M190.242,15.912c2.129-1.198,4.715-2.81,4.577-5.62c-0.353-3.526-4.026-5.457-7.206-5.845
						c-4.982-0.465-9.999-0.103-14.999-0.215c0,6.896,0,13.792,0,20.688c2.379,0,4.767,0,7.146,0c0-2.698,0-5.405,0-8.103
						c1.155,0,2.31,0,3.465,0c1.759,2.698,3.517,5.405,5.275,8.103c2.56,0,5.112,0,7.672-0.009
						C194.199,21.912,192.251,18.895,190.242,15.912z M179.76,12.361c0-1.207,0-2.405,0-3.612c2.474,0.414,7.198-1.155,7.827,2.207
						C185.613,13.016,182.32,12.051,179.76,12.361z"/>
				</g>
				<g>
					<path class="st14" d="M95.059,4.318c-2.965-0.121-5.939-0.112-8.905-0.069c-2.896,6.896-5.801,13.784-8.749,20.654
						c2.466,0.017,4.922,0.017,7.388,0.017c0.647-1.629,1.293-3.258,1.94-4.888c2.56,0.009,5.129,0.009,7.689-0.043
						c0.69,1.638,1.353,3.276,2,4.931c2.457,0,4.905,0,7.361,0C100.903,18.042,97.817,11.249,95.059,4.318z M88.369,15.723
						c0.75-1.974,1.491-3.948,2.241-5.913c0.759,1.965,1.508,3.939,2.25,5.922C91.36,15.723,89.869,15.723,88.369,15.723z"/>
				</g>
				<g>
					<path class="st14" d="M149.865,4.215c-2.905,0.017-5.81,0.017-8.715,0.017c-2.914,6.896-5.836,13.792-8.75,20.688
						c2.465,0.009,4.939,0.009,7.413-0.034c0.621-1.621,1.241-3.233,1.862-4.844c2.595-0.009,5.189-0.009,7.784-0.009
						c0.647,1.629,1.284,3.258,1.931,4.888c2.457,0,4.913,0,7.37,0C155.787,18.016,152.882,11.094,149.865,4.215z M143.349,15.723
						c0.741-1.974,1.491-3.948,2.258-5.913c0.741,1.965,1.491,3.939,2.224,5.922C146.331,15.723,144.84,15.723,143.349,15.723z"/>
				</g>
				<path class="st29" d="M26.17,1.852l-0.254,0.152L24.842,2.79c0,0-0.932,0.621-2.538,0.725c-1.606,0.104-5.697-0.466-5.697-0.466
					s-2.279-0.311-4.61,0.155C9.667,3.67,9.874,5.068,9.822,5.276C9.77,5.483,8.335,8.158,8.024,8.468S7.906,6.933,7.906,6.933
					S7.726,5.376,6.352,5.586C5.164,5.768,4.073,6.104,4.073,6.104S3.711,6.57,3.866,6.933c0.155,0.363,0.311,0.414,0.311,0.414
					L4.125,8.904c0.073,0.311,0.414,0.877,0.414,0.877l0.88-0.104c0,0,0.583,0.607,0.375,0.868
					c-0.442,0.554-1.203,2.187-1.203,2.187s-0.125,0.737,0.082,1.151c0.207,0.414,0.392,1.519,1.033,2.471
					c0.33,0.458,3.339,3.939,3.598,4.25s6.526,3.522,6.526,3.522s1.836,0.895,4.299,3.574c1.319,1.435,2.592,2.888,2.592,2.888
					s0.72,0.471,0.464-0.298c-0.518-1.554-3.004-5.076-3.004-5.076l-1.968-2.331c0,0-1.088-1.191-2.434-1.45
					c-0.91-0.175-1.916-1.502-1.916-1.502l-1.864-2.02c0,0-0.621-1.916-2.227-2.382c-0.693-0.201-0.789-0.673-0.789-0.673
					s0.064-2.382,0.271-3.315s1.657-3.159,3.366-3.677c1.709-0.518,4.143-0.363,4.143-0.363s3.936-0.052,6.526-1.864
					c2.59-1.813,3.135-2.878,3.135-2.878S26.868,1.427,26.17,1.852z"/>
				<path class="st29" d="M12.998,9.621c-0.221,1.019-0.055,5.75,0.238,7.196c0.22,1.088,0.922,1.063,0.861-0.33
					c-0.11-2.472,0.586-6.793,0.586-6.793C14.719,7.863,13.236,8.522,12.998,9.621z"/>
				<path class="st29" d="M16.056,9.053c-0.073,0.366-0.146,1.025-0.146,1.025s-0.568,3.626-0.421,6.336s0.439,3.351,0.531,3.589
					c0.092,0.238,0.604,0.677,0.623-0.311c0.018-0.989,0.421-4.907,0.842-7.361s0.293-2.38,0.293-3.113
					C17.777,8.486,16.318,7.741,16.056,9.053z"/>
				<path class="st29" d="M21.183,8.962c0-0.641-0.623-1.941-1.795-0.476l-0.073,0.201c0,0-0.33,1.648-0.439,2.344
					c-0.11,0.696-1.099,5.933-0.421,9.467c0.201,1.41,0.348,1.923,0.348,1.923s0.732,1.373,0.787-0.073
					c0.055-1.447-0.275-3.571,0.549-7.434C20.963,11.049,21.183,9.603,21.183,8.962z"/>
				<path class="st29" d="M24.699,7.753c-0.201-1.373-1.52-0.879-1.904-0.238c0,0-0.33,0.806-0.33,1.41
					c0,0.604-0.146,2.179-0.201,2.564c-0.055,0.385-0.531,2.948-0.952,5.933s-0.055,7.691,0.092,8.203
					c0.092,0.623,0.952,1.63,0.897,0.055c-0.263-2.859,0.769-8.716,0.934-9.687C23.308,15.554,24.9,9.127,24.699,7.753z"/>
			</g>
		</g>
	</g>
</g>
<g id="Layer_4">
</g>
</svg>
