<?xml version="1.0" encoding="utf-8"?>
<!-- Generator: Adobe Illustrator 18.0.0, SVG Export Plug-In . SVG Version: 6.00 Build 0)  -->
<!DOCTYPE svg PUBLIC "-//W3C//DTD SVG 1.1//EN" "http://www.w3.org/Graphics/SVG/1.1/DTD/svg11.dtd">
<svg version="1.1" xmlns="http://www.w3.org/2000/svg" xmlns:xlink="http://www.w3.org/1999/xlink" x="0px" y="0px"
	 width="143.218px" height="50px" viewBox="0 0 143.218 50" style="enable-background:new 0 0 143.218 50;" xml:space="preserve">
<style type="text/css">
	.st0{display:none;}
	.st1{display:inline;}
	.st2{fill:#ED2D27;}
	.st3{display:inline;fill:#F8B900;}
	.st4{display:inline;fill:#00235F;}
	.st5{fill:url(#SVGID_1_);}
	.st6{fill:#006CB6;}
	.st7{fill:url(#SVGID_2_);}
	.st8{fill:url(#SVGID_3_);}
	.st9{fill:url(#SVGID_4_);}
	.st10{fill:url(#SVGID_5_);}
	.st11{fill:url(#SVGID_6_);}
	.st12{fill-rule:evenodd;clip-rule:evenodd;fill:#FFFFFF;}
	.st13{fill-rule:evenodd;clip-rule:evenodd;fill:#E2231A;}
	.st14{fill:#FFFFFF;}
	.st15{fill-rule:evenodd;clip-rule:evenodd;fill:#001689;}
	.st16{fill:#00529B;}
	.st17{fill:#F47920;}
	.st18{fill:url(#SVGID_7_);}
	.st19{fill:url(#SVGID_8_);}
	.st20{fill:url(#SVGID_9_);}
	.st21{fill:url(#SVGID_10_);}
	.st22{fill:url(#SVGID_11_);}
	.st23{fill:url(#SVGID_12_);}
	.st24{fill:url(#SVGID_13_);}
	.st25{fill:#00054C;}
	.st26{fill:url(#path3364_3_);}
	.st27{fill:url(#path3366_3_);}
	.st28{fill:#22356B;}
	.st29{fill:#FCC210;}
	.st30{fill:#ED1C24;}
	.st31{display:inline;fill:url(#SVGID_14_);}
	.st32{fill:#002157;}
	.st33{fill:#CC2234;}
	.st34{fill:#E23546;}
	.st35{fill:#FCB130;}
	.st36{fill:#1D4886;}
	.st37{display:inline;fill:none;}
	.st38{display:inline;fill:#005DAA;}
	.st39{fill:#005DAA;}
	.st40{fill:#00A1E4;}
	.st41{fill:#00704A;}
	.st42{fill:#B10D28;}
	.st43{fill:#D31245;}
	.st44{fill:url(#path70_3_);}
	.st45{fill:url(#SVGID_15_);}
	.st46{fill:url(#SVGID_16_);}
	.st47{fill:#231916;}
	.st48{fill:#E60013;}
	.st49{fill:#C0231E;}
	.st50{fill:#014E84;}
	.st51{fill:#BA783E;}
	.st52{fill:#002052;}
	.st53{fill:#0093D0;}
	.st54{fill:#ED1B2F;}
	.st55{fill:#E3242B;}
	.st56{fill-rule:evenodd;clip-rule:evenodd;fill:#034EA2;}
	.st57{fill-rule:evenodd;clip-rule:evenodd;fill:#E11837;}
	.st58{fill:#034EA2;}
	.st59{opacity:0.8902;fill:#EB151C;}
	.st60{fill:#1A1A1A;}
	.st61{enable-background:new    ;}
	.st62{fill:#FF6600;}
	.st63{clip-path:url(#SVGID_18_);fill:url(#SVGID_19_);}
	.st64{fill:url(#SVGID_20_);}
	.st65{fill:#B2DB1F;}
	.st66{fill:#FA002C;}
	.st67{fill:#1C2D5B;}
	.st68{fill:#1C4E9D;}
	.st69{fill:#ED192D;}
	.st70{display:inline;fill:#FFFFFF;}
	.st71{display:inline;fill:#00529B;}
	.st72{display:inline;fill:#F47920;}
	.st73{display:inline;fill:url(#SVGID_21_);}
	.st74{display:inline;fill:url(#SVGID_22_);}
	.st75{display:inline;fill:url(#SVGID_23_);}
	.st76{display:inline;fill:url(#SVGID_24_);}
	.st77{display:inline;fill:url(#SVGID_25_);}
	.st78{display:inline;fill:url(#SVGID_26_);}
	.st79{display:inline;fill:url(#SVGID_27_);}
	.st80{display:inline;fill:url(#path3364_4_);}
	.st81{display:inline;fill:url(#path3366_4_);}
	.st82{display:inline;fill:url(#SVGID_28_);}
	.st83{display:inline;fill:url(#SVGID_29_);}
	.st84{display:inline;fill:url(#SVGID_30_);}
	.st85{display:inline;opacity:0.75;fill:#FFFFFF;}
	.st86{display:inline;fill:#ED1B2F;}
	.st87{opacity:0.8902;fill:#FFFFFF;}
	.st88{clip-path:url(#SVGID_32_);fill:#FFFFFF;}
	.st89{fill:url(#SVGID_33_);}
	.st90{fill:url(#SVGID_34_);}
	.st91{fill:url(#SVGID_35_);}
	.st92{fill:url(#SVGID_36_);}
	.st93{fill:url(#SVGID_37_);}
	.st94{fill:url(#SVGID_38_);}
	.st95{fill:url(#SVGID_39_);}
	.st96{fill:url(#SVGID_40_);}
	.st97{clip-path:url(#SVGID_42_);fill:url(#SVGID_43_);}
	.st98{fill:url(#SVGID_44_);}
	.st99{fill:url(#path70_5_);}
	.st100{fill:url(#SVGID_45_);}
	.st101{fill:url(#SVGID_46_);}
	.st102{fill:#F8B900;}
	.st103{fill:#00235F;}
	.st104{fill:url(#SVGID_47_);}
	.st105{fill:url(#SVGID_48_);}
	.st106{fill:url(#SVGID_49_);}
	.st107{fill:url(#SVGID_50_);}
	.st108{fill:url(#SVGID_51_);}
	.st109{fill:url(#SVGID_52_);}
	.st110{opacity:0.8902;fill:#EB151C;enable-background:new    ;}
	.st111{fill:#E11837;}
	.st112{fill:#E2231A;}
	.st113{fill:#001689;}
	.st114{fill:#EF3E34;}
	.st115{fill:#4D82C4;}
	.st116{fill:#8C7035;}
	.st117{fill:#5FBA45;}
	.st118{fill:#008F7E;}
	.st119{fill:#004595;}
	.st120{fill:#FFED00;}
	.st121{fill:#E53138;}
	.st122{fill:url(#SVGID_53_);}
	.st123{fill:url(#SVGID_54_);}
	.st124{fill:url(#SVGID_55_);}
	.st125{fill:url(#SVGID_56_);}
	.st126{fill:#11185E;}
	.st127{fill:#EE3024;}
	.st128{fill:#0675CC;}
	.st129{fill:#E2001A;}
	.st130{fill:#009036;}
	.st131{fill:#0B1560;}
	.st132{fill:#0070AF;}
	.st133{fill:#0F2C64;}
	.st134{fill:#EF001E;}
	.st135{fill:#1C2A8D;}
	.st136{fill:#334357;}
	.st137{fill:url(#SVGID_57_);}
	.st138{fill:#ED1B28;}
	.st139{fill:#1E5AAF;}
	.st140{fill:#991933;}
	.st141{fill:#E01933;}
	.st142{fill:#003366;}
	.st143{fill:#00265D;}
	.st144{fill:#003263;}
	.st145{fill:#EE452A;}
	.st146{fill:#011F65;}
	.st147{fill:#EC2227;}
	.st148{fill:#010101;}
	.st149{fill:#FCEE21;}
	.st150{fill:#18488B;}
	.st151{fill:#EC2427;}
	.st152{fill:#D09B2B;}
	.st153{fill:#156192;}
	.st154{fill:#021A31;}
	.st155{fill:#008E8F;}
	.st156{fill:#2B438F;}
	.st157{fill:#363F9E;}
	.st158{fill:#00ABBF;}
</style>
<g id="Layer_1" class="st0">
</g>
<g id="Layer_2" class="st0">
</g>
<g id="Layer_3">
	<g>
		<g id="_x23_004595ff">
			<path id="path5_3_" class="st119" d="M87.58,0h0.133c-3.354,2.781-7.013,5.172-10.787,7.341
				c-6.254,3.546-12.991,6.361-20.082,7.686c-9.211,1.708-18.424,3.4-27.635,5.105c-2.026,0.351-3.781,1.633-5.036,3.222
				c-2.08,2.653-4.166,5.302-6.254,7.95c-2.143,2.775-5.338,4.722-8.804,5.289c3.39-4.706,6.794-9.401,10.188-14.105
				c3.13-4.474,7.973-7.685,13.278-8.941C48.169,9.712,63.759,5.893,79.347,2.063C82.092,1.38,84.851,0.746,87.58,0z"/>
			<path id="path7_3_" class="st119" d="M8.119,39.404c1.444-0.543,3.014-0.393,4.526-0.395c1.232,3.676,2.481,7.347,3.801,10.991
				h-2.58c-0.652-0.153-1.344-0.446-1.698-1.049c-0.262-0.511-0.393-1.076-0.585-1.615c-1.613-0.009-3.225-0.009-4.837-0.017
				c0.427-0.814,1.103-1.533,2-1.814c0.681-0.239,1.408-0.269,2.122-0.301c-0.388-1.125-0.772-2.248-1.16-3.371
				c-1.683,2.341-3.255,4.762-4.981,7.073C4.245,49.586,3.418,49.885,2.625,50H0c2.314-3.215,4.595-6.454,6.897-9.676
				C7.196,39.898,7.628,39.575,8.119,39.404z"/>
			<path id="path9" class="st119" d="M24.557,39.789c0.974-0.648,2.185-0.791,3.33-0.789c1.91-0.001,3.818-0.017,5.726,0.023
				c0.99,0.034,2.119,0.448,2.524,1.428c0.427,1.189,0.271,2.534-0.242,3.672c-0.348,0.764-1.069,1.249-1.745,1.698
				c0.563,0.245,1.338,0.446,1.451,1.155c0.099,1.021-0.238,2.024-0.4,3.024h-1.056c-0.673-0.165-1.411-0.398-1.817-1.004
				c-0.351-0.487-0.219-1.14-0.487-1.659c-0.299-0.444-0.897-0.474-1.38-0.51c-1.203-0.029-2.408-0.014-3.612-0.032
				c0.417-0.95,1.226-1.738,2.244-2.004c0.94-0.295,2,0.04,2.891-0.437c0.615-0.433,0.779-1.252,0.837-1.956
				c0.052-0.453-0.128-1.02-0.642-1.093c-0.895-0.153-1.809-0.056-2.712-0.085c-0.749,0.024-1.597-0.082-2.225,0.418
				c-0.479,0.341-0.625,0.943-0.739,1.486c-0.241,1.234-0.391,2.484-0.612,3.722c-0.158,0.854-0.489,1.715-1.123,2.328
				c-0.493,0.456-1.145,0.699-1.795,0.825h-1.181c0.444-2.486,0.851-4.979,1.328-7.457C23.325,41.521,23.665,40.42,24.557,39.789z"
				/>
			<path id="path11" class="st119" d="M64.15,39.53c0.974-0.456,2.072-0.536,3.132-0.533c2.013,0.003,4.026-0.01,6.037,0.027
				c0.933,0.033,2.019,0.229,2.547,1.089c0.619,0.973,0.292,2.169,0.122,3.223c-0.309,1.52-0.43,3.089-0.933,4.563
				c-0.398,1.169-1.51,1.994-2.734,2.1h-8.774c-0.787-0.162-1.567-0.636-1.86-1.415c-0.34-0.987-0.112-2.043,0.053-3.04
				c0.242-1.284,0.388-2.593,0.788-3.842C62.824,40.842,63.288,39.936,64.15,39.53 M67.06,41.342
				c-0.493,0.092-0.877,0.47-1.076,0.915c-0.425,0.956-0.461,2.024-0.675,3.037c-0.077,0.695-0.395,1.467-0.021,2.123
				c0.444,0.534,1.222,0.49,1.852,0.507c1.15-0.026,2.312,0.076,3.456-0.092c0.665-0.076,1.213-0.636,1.314-1.291
				c0.231-1.229,0.477-2.458,0.668-3.695c0.063-0.463,0.046-1.054-0.375-1.35c-0.629-0.317-1.361-0.262-2.044-0.278
				C69.126,41.251,68.08,41.143,67.06,41.342z"/>
			<path id="path13" class="st119" d="M88.923,38.997C92.029,39,95.136,38.991,98.242,39c1.017,0.017,2.178,0.125,2.904,0.928
				c0.685,0.87,0.583,2.062,0.403,3.086c-0.315,1.722-0.437,3.519-1.188,5.125c-0.47,1.032-1.54,1.656-2.62,1.861h-7.229
				c0.4-0.66,0.838-1.361,1.572-1.691c1.305-0.67,2.822-0.159,4.186-0.569c0.537-0.169,0.95-0.629,1.11-1.162
				c0.307-0.987,0.407-2.023,0.617-3.032c0.093-0.586,0.234-1.259-0.133-1.781c-0.332-0.474-0.974-0.483-1.494-0.52
				c-1.447-0.032-2.895-0.021-4.342-0.024c-0.307,1.764-0.607,3.529-0.926,5.289c-0.195,0.94-0.481,1.926-1.176,2.625
				c-0.487,0.486-1.158,0.721-1.815,0.864h-1.119C87.635,46.332,88.278,42.665,88.923,38.997z"/>
			<path id="path15" class="st119" d="M103.549,40.255c0.693-0.903,1.904-1.13,2.974-1.222c1.774-0.072,3.552-0.02,5.327-0.036
				c1.092,0.016,2.222-0.073,3.272,0.294c0.636,0.202,1.095,0.778,1.256,1.413c0.307,1.093-0.074,2.208-0.229,3.292
				c-0.282,1.408-0.367,2.877-0.944,4.208c-0.443,1.007-1.479,1.645-2.543,1.797h-8.824c-0.749-0.17-1.562-0.559-1.84-1.33
				c-0.433-1.203-0.063-2.483,0.125-3.696C102.427,43.364,102.547,41.62,103.549,40.255 M107.315,41.351
				c-0.436,0.105-0.865,0.375-1.032,0.809c-0.436,1.043-0.501,2.186-0.713,3.285c-0.087,0.585-0.284,1.193-0.097,1.778
				c0.142,0.447,0.65,0.609,1.072,0.65c0.948,0.099,1.904,0.037,2.857,0.053c0.755-0.02,1.595,0.054,2.238-0.42
				c0.47-0.345,0.554-0.964,0.659-1.496c0.181-1.064,0.414-2.119,0.566-3.188c0.06-0.461,0.032-1.047-0.393-1.334
				c-0.638-0.308-1.374-0.254-2.062-0.269C109.378,41.251,108.332,41.14,107.315,41.351z"/>
			<path id="path17" class="st119" d="M116.712,38.994c1.126,0.024,2.292-0.037,3.368,0.352c0.648,0.235,1.001,0.881,1.211,1.497
				c0.741,2.181,1.468,4.365,2.206,6.547c1.451-2.054,2.9-4.112,4.35-6.168c0.468-0.617,0.828-1.403,1.583-1.721
				c1.193-0.534,2.53-0.519,3.812-0.504c-2.291,3.256-4.586,6.51-6.89,9.758c-0.489,0.721-1.33,1.097-2.162,1.244h-3.546
				C119.249,46.361,118.034,42.659,116.712,38.994z"/>
			<path id="path19" class="st119" d="M135.334,39.278c1.327-0.385,2.723-0.268,4.086-0.271c1.299,3.619,2.517,7.266,3.798,10.891
				V50h-2.585c-0.613-0.152-1.234-0.444-1.597-0.98c-0.291-0.526-0.413-1.122-0.61-1.685c-1.613-0.003-3.225,0.01-4.837-0.014
				c0.315-0.543,0.649-1.113,1.201-1.448c0.858-0.567,1.917-0.643,2.917-0.663c-0.391-1.129-0.781-2.259-1.172-3.388
				c-1.42,2.036-2.807,4.096-4.261,6.109c-0.414,0.537-0.744,1.169-1.322,1.552c-0.461,0.298-1.001,0.443-1.54,0.519h-2.579
				c2.33-3.234,4.652-6.476,6.933-9.744C134.145,39.745,134.734,39.447,135.334,39.278z"/>
			<path id="path21" class="st119" d="M19.878,39.99c0.784-0.721,1.894-0.88,2.913-0.956c-0.44,2.65-0.91,5.295-1.421,7.931
				c-0.13,0.636-0.347,1.269-0.744,1.794c-0.499,0.705-1.325,1.092-2.156,1.241h-1.12c0.427-2.39,0.844-4.779,1.271-7.169
				C18.821,41.812,19.13,40.748,19.878,39.99z"/>
			<path id="path23" class="st119" d="M44.65,39.685c1.069-0.613,2.372-0.756,3.569-0.516c0.758,0.158,1.479,0.702,1.648,1.487
				c0.539,2.116,1.013,4.248,1.526,6.37c1.245-2.11,2.491-4.219,3.731-6.332c0.321-0.57,0.821-1.043,1.441-1.269
				c0.904-0.334,1.898-0.441,2.854-0.305c0.764,0.115,1.566,0.527,1.832,1.298c0.381,1.073,0.056,2.215-0.117,3.295
				c-0.371,2.097-0.735,4.196-1.143,6.288h-0.986c-0.688-0.168-1.383-0.529-1.725-1.176c-0.36-0.673-0.289-1.468-0.198-2.199
				c0.202-1.403,0.473-2.794,0.723-4.189c-1.244,2.037-2.468,4.087-3.702,6.13c-0.48,0.814-1.374,1.288-2.285,1.434h-1.769
				c-0.709-0.136-1.45-0.491-1.779-1.17c-0.268-0.595-0.385-1.241-0.547-1.868c-0.355-1.521-0.746-3.033-1.148-4.543
				c-0.254,1.404-0.483,2.812-0.744,4.215c-0.183,0.946-0.513,1.923-1.252,2.583c-0.481,0.456-1.132,0.668-1.772,0.784h-1.099
				c0.497-2.5,0.871-5.024,1.34-7.53C43.292,41.424,43.703,40.291,44.65,39.685z"/>
			<path id="path25" class="st119" d="M77.986,40.231c0.764-0.937,2.042-1.113,3.172-1.195c-0.434,2.464-0.88,4.927-1.289,7.395
				c-0.092,0.481-0.053,1.182,0.511,1.347c1.554,0.404,3.281-0.212,4.752,0.576c0.63,0.309,0.814,1.03,0.997,1.646h-7.867
				c-0.946-0.169-1.898-0.857-2.007-1.871c-0.112-1.298,0.269-2.57,0.443-3.847C76.953,42.897,77.062,41.367,77.986,40.231z"/>
		</g>
		<g id="_x23_ffed00ff">
			<path id="path28_3_" class="st120" d="M30.619,22.324c9.073-1.487,18.146-2.977,27.218-4.466
				c-3.89,3.176-8.256,5.801-12.971,7.553c-2.566,0.947-5.249,1.58-7.973,1.848c-4.758,0.504-9.516,1.011-14.274,1.517
				c1.128-1.387,2.239-2.787,3.374-4.168C27.149,23.261,28.88,22.527,30.619,22.324z"/>
		</g>
		<g id="_x23_e53138ff">
			<path id="path31" class="st121" d="M20.564,31.36c5.84-0.537,11.679-1.066,17.521-1.566c-3.766,3.281-8.464,5.659-13.48,6.132
				c-3.199,0.189-6.405,0.269-9.61,0.345C17.191,35.067,18.974,33.265,20.564,31.36z"/>
		</g>
	</g>
</g>
<g id="Layer_4">
</g>
</svg>
