<?xml version="1.0" encoding="utf-8"?>
<!-- Generator: Adobe Illustrator 18.0.0, SVG Export Plug-In . SVG Version: 6.00 Build 0)  -->
<!DOCTYPE svg PUBLIC "-//W3C//DTD SVG 1.1//EN" "http://www.w3.org/Graphics/SVG/1.1/DTD/svg11.dtd">
<svg version="1.1" xmlns="http://www.w3.org/2000/svg" xmlns:xlink="http://www.w3.org/1999/xlink" x="0px" y="0px"
	 width="275.603px" height="50px" viewBox="0 0 275.603 50" style="enable-background:new 0 0 275.603 50;" xml:space="preserve">
<style type="text/css">
	.st0{display:none;}
	.st1{display:inline;}
	.st2{fill:#ED2D27;}
	.st3{display:inline;fill:#F8B900;}
	.st4{display:inline;fill:#00235F;}
	.st5{fill:url(#SVGID_1_);}
	.st6{fill:#006CB6;}
	.st7{fill:url(#SVGID_2_);}
	.st8{fill:url(#SVGID_3_);}
	.st9{fill:url(#SVGID_4_);}
	.st10{fill:url(#SVGID_5_);}
	.st11{fill:url(#SVGID_6_);}
	.st12{fill-rule:evenodd;clip-rule:evenodd;fill:#FFFFFF;}
	.st13{fill-rule:evenodd;clip-rule:evenodd;fill:#E2231A;}
	.st14{fill:#FFFFFF;}
	.st15{fill-rule:evenodd;clip-rule:evenodd;fill:#001689;}
	.st16{fill:#00529B;}
	.st17{fill:#F47920;}
	.st18{fill:url(#SVGID_7_);}
	.st19{fill:url(#SVGID_8_);}
	.st20{fill:url(#SVGID_9_);}
	.st21{fill:url(#SVGID_10_);}
	.st22{fill:url(#SVGID_11_);}
	.st23{fill:url(#SVGID_12_);}
	.st24{fill:url(#SVGID_13_);}
	.st25{fill:#00054C;}
	.st26{fill:url(#path3364_3_);}
	.st27{fill:url(#path3366_3_);}
	.st28{fill:#22356B;}
	.st29{fill:#FCC210;}
	.st30{fill:#ED1C24;}
	.st31{display:inline;fill:url(#SVGID_14_);}
	.st32{fill:#002157;}
	.st33{fill:#CC2234;}
	.st34{fill:#E23546;}
	.st35{fill:#FCB130;}
	.st36{fill:#1D4886;}
	.st37{display:inline;fill:none;}
	.st38{display:inline;fill:#005DAA;}
	.st39{fill:#005DAA;}
	.st40{fill:#00A1E4;}
	.st41{fill:#00704A;}
	.st42{fill:#B10D28;}
	.st43{fill:#D31245;}
	.st44{fill:url(#path70_3_);}
	.st45{fill:url(#SVGID_15_);}
	.st46{fill:url(#SVGID_16_);}
	.st47{fill:#231916;}
	.st48{fill:#E60013;}
	.st49{fill:#C0231E;}
	.st50{fill:#014E84;}
	.st51{fill:#BA783E;}
	.st52{fill:#002052;}
	.st53{fill:#0093D0;}
	.st54{fill:#ED1B2F;}
	.st55{fill:#E3242B;}
	.st56{fill-rule:evenodd;clip-rule:evenodd;fill:#034EA2;}
	.st57{fill-rule:evenodd;clip-rule:evenodd;fill:#E11837;}
	.st58{fill:#034EA2;}
	.st59{opacity:0.8902;fill:#EB151C;}
	.st60{fill:#1A1A1A;}
	.st61{enable-background:new    ;}
	.st62{fill:#FF6600;}
	.st63{clip-path:url(#SVGID_18_);fill:url(#SVGID_19_);}
	.st64{fill:url(#SVGID_20_);}
	.st65{fill:#B2DB1F;}
	.st66{fill:#FA002C;}
	.st67{fill:#1C2D5B;}
	.st68{fill:#1C4E9D;}
	.st69{fill:#ED192D;}
	.st70{display:inline;fill:#FFFFFF;}
	.st71{display:inline;fill:#00529B;}
	.st72{display:inline;fill:#F47920;}
	.st73{display:inline;fill:url(#SVGID_21_);}
	.st74{display:inline;fill:url(#SVGID_22_);}
	.st75{display:inline;fill:url(#SVGID_23_);}
	.st76{display:inline;fill:url(#SVGID_24_);}
	.st77{display:inline;fill:url(#SVGID_25_);}
	.st78{display:inline;fill:url(#SVGID_26_);}
	.st79{display:inline;fill:url(#SVGID_27_);}
	.st80{display:inline;fill:url(#path3364_4_);}
	.st81{display:inline;fill:url(#path3366_4_);}
	.st82{display:inline;fill:url(#SVGID_28_);}
	.st83{display:inline;fill:url(#SVGID_29_);}
	.st84{display:inline;fill:url(#SVGID_30_);}
	.st85{display:inline;opacity:0.75;fill:#FFFFFF;}
	.st86{display:inline;fill:#ED1B2F;}
	.st87{opacity:0.8902;fill:#FFFFFF;}
	.st88{clip-path:url(#SVGID_32_);fill:#FFFFFF;}
	.st89{fill:url(#SVGID_33_);}
	.st90{fill:url(#SVGID_34_);}
	.st91{fill:url(#SVGID_35_);}
	.st92{fill:url(#SVGID_36_);}
	.st93{fill:url(#SVGID_37_);}
	.st94{fill:url(#SVGID_38_);}
	.st95{fill:url(#SVGID_39_);}
	.st96{fill:url(#SVGID_40_);}
	.st97{clip-path:url(#SVGID_42_);fill:url(#SVGID_43_);}
	.st98{fill:url(#SVGID_44_);}
	.st99{fill:url(#path70_5_);}
	.st100{fill:url(#SVGID_45_);}
	.st101{fill:url(#SVGID_46_);}
	.st102{fill:#F8B900;}
	.st103{fill:#00235F;}
	.st104{fill:url(#SVGID_47_);}
	.st105{fill:url(#SVGID_48_);}
	.st106{fill:url(#SVGID_49_);}
	.st107{fill:url(#SVGID_50_);}
	.st108{fill:url(#SVGID_51_);}
	.st109{fill:url(#SVGID_52_);}
	.st110{opacity:0.8902;fill:#EB151C;enable-background:new    ;}
	.st111{fill:#E11837;}
	.st112{fill:#E2231A;}
	.st113{fill:#001689;}
	.st114{fill:#EF3E34;}
	.st115{fill:#4D82C4;}
	.st116{fill:#8C7035;}
	.st117{fill:#5FBA45;}
	.st118{fill:#008F7E;}
	.st119{fill:#004595;}
	.st120{fill:#FFED00;}
	.st121{fill:#E53138;}
	.st122{fill:url(#SVGID_53_);}
	.st123{fill:url(#SVGID_54_);}
	.st124{fill:url(#SVGID_55_);}
	.st125{fill:url(#SVGID_56_);}
	.st126{fill:#11185E;}
	.st127{fill:#EE3024;}
	.st128{fill:#0675CC;}
	.st129{fill:#E2001A;}
	.st130{fill:#009036;}
	.st131{fill:#0B1560;}
	.st132{fill:#0070AF;}
	.st133{fill:#0F2C64;}
	.st134{fill:#EF001E;}
	.st135{fill:#1C2A8D;}
	.st136{fill:#334357;}
	.st137{fill:url(#SVGID_57_);}
	.st138{fill:#ED1B28;}
	.st139{fill:#1E5AAF;}
	.st140{fill:#991933;}
	.st141{fill:#E01933;}
	.st142{fill:#003366;}
	.st143{fill:#00265D;}
	.st144{fill:#003263;}
	.st145{fill:#EE452A;}
	.st146{fill:#011F65;}
	.st147{fill:#EC2227;}
	.st148{fill:#010101;}
	.st149{fill:#FCEE21;}
	.st150{fill:#18488B;}
	.st151{fill:#EC2427;}
	.st152{fill:#D09B2B;}
	.st153{fill:#156192;}
	.st154{fill:#021A31;}
	.st155{fill:#008E8F;}
	.st156{fill:#2B438F;}
	.st157{fill:#363F9E;}
	.st158{fill:#00ABBF;}
</style>
<g id="Layer_1" class="st0">
	<g class="st1">
		<path id="path2191_1_" class="st65" d="M108.854-2H-45v54.998l153.854,0V-2z"/>
		<path id="path2193_1_" class="st66" d="M2.353,25.504c0,10.024-8.117,18.141-18.142,18.141s-18.15-8.117-18.15-18.141
			c0-10.024,8.126-18.151,18.15-18.151S2.353,15.481,2.353,25.504z"/>
		<path id="path2199_1_" class="st66" d="M21.571,33.624h-2.279c-0.194,0-0.366-0.172-0.409-0.366l-0.99-4.087h-4.947l-0.989,4.087
			c-0.043,0.194-0.215,0.366-0.409,0.366h-2.28c-0.215,0-0.387-0.15-0.387-0.366c0-0.022,0.022-0.065,0.022-0.108l3.528-13.486
			c0.516-2,2.065-2.194,2.99-2.194c0.925,0,2.473,0.193,2.989,2.194l3.528,13.486c0,0.043,0.021,0.086,0.021,0.108
			C21.959,33.473,21.787,33.624,21.571,33.624z M15.765,20.331c-0.065-0.259-0.13-0.344-0.344-0.344
			c-0.215,0-0.28,0.085-0.344,0.344l-1.549,6.387h3.785L15.765,20.331z"/>
		<path id="path2201_1_" class="st66" d="M26.541,33.624h-2.13c-0.236,0-0.43-0.193-0.43-0.43V18.051
			c0-0.236,0.194-0.409,0.43-0.409h2.13c0.236,0,0.43,0.172,0.43,0.409v15.142C26.971,33.43,26.777,33.624,26.541,33.624z"/>
		<path id="path2203_1_" class="st66" d="M41.822,33.624h-2.615c-0.237,0-0.323-0.214-0.43-0.43l-3.098-5.743h-0.3
			c-0.56,0-1.42-0.064-1.915-0.085v5.828c0,0.237-0.172,0.43-0.409,0.43h-2.151c-0.237,0-0.431-0.193-0.431-0.43V18.395
			c0-0.43,0.259-0.58,0.688-0.645c1.119-0.172,2.646-0.28,4.217-0.28c3.312,0,6.185,1.183,6.185,4.862v0.193
			c0,2.28-1.131,3.7-2.895,4.388l3.369,6.28c0.042,0.065,0.042,0.128,0.042,0.173C42.08,33.516,41.995,33.624,41.822,33.624z
			 M38.604,22.332c0-1.613-1.076-2.302-3.226-2.302c-0.452,0-1.528,0.043-1.915,0.086v4.839c0.344,0.021,1.549,0.065,1.915,0.065
			c2.214,0,3.226-0.602,3.226-2.495V22.332z"/>
		<path id="path2205_1_" class="st66" d="M52.873,33.495c-0.645,0.15-2.517,0.301-3.656,0.301c-2.797,0-4.969-0.752-4.969-4.409
			V18.072c0-0.236,0.194-0.43,0.431-0.43h2.129c0.237,0,0.431,0.193,0.431,0.43v11.315c0,1.418,0.43,1.85,1.678,1.85h3.958
			c0.237,0,0.43,0.192,0.43,0.43v1.377C53.303,33.344,53.195,33.43,52.873,33.495z"/>
		<path id="path2207_1_" class="st66" d="M57.629,33.624h-2.13c-0.236,0-0.43-0.193-0.43-0.43V18.051
			c0-0.236,0.193-0.409,0.43-0.409h2.13c0.237,0,0.43,0.172,0.43,0.409v15.142C58.059,33.43,57.865,33.624,57.629,33.624z"/>
		<path id="path2209_1_" class="st66" d="M72.79,33.624h-2.172c-0.517,0-0.969,0-1.313-0.775L64.53,22.374
			c-0.065-0.129-0.129-0.172-0.194-0.172c-0.064,0-0.107,0.043-0.107,0.172v10.819c0,0.237-0.173,0.43-0.409,0.43h-1.828
			c-0.236,0-0.43-0.193-0.43-0.43v-14.69c0-0.474,0.387-0.861,0.86-0.861h2.323c0.452,0,0.689,0.129,0.947,0.688l5.012,11.056
			c0.043,0.107,0.108,0.171,0.172,0.171c0.043,0,0.108-0.064,0.108-0.193V18.051c0-0.236,0.172-0.409,0.409-0.409h1.85
			c0.236,0,0.409,0.172,0.409,0.409v14.712C73.65,33.236,73.263,33.624,72.79,33.624z"/>
		<path id="path2211_1_" class="st66" d="M85.931,33.495c-0.687,0.108-1.527,0.301-4.086,0.301c-2.797,0-4.968-0.752-4.968-4.409
			V21.88c0-3.656,2.172-4.409,4.968-4.409c2.56,0,3.399,0.193,4.086,0.301c0.324,0.043,0.431,0.15,0.431,0.451V19.6
			c0,0.236-0.194,0.43-0.431,0.43h-4.388c-1.248,0-1.7,0.431-1.7,1.85v2.323h5.829c0.237,0,0.43,0.194,0.43,0.43v1.549
			c0,0.236-0.193,0.43-0.43,0.43h-5.829v2.776c0,1.418,0.451,1.85,1.7,1.85h4.388c0.237,0,0.431,0.192,0.431,0.43v1.377
			C86.362,33.344,86.254,33.452,85.931,33.495z"/>
		<path id="path2213_1_" class="st66" d="M93.279,33.796c-1.613,0-2.774-0.151-3.807-0.386c-0.214-0.043-0.409-0.195-0.409-0.432
			V31.43c0-0.236,0.194-0.408,0.409-0.408c0.021,0,0.021,0,0.044,0c0.86,0.107,3.011,0.216,3.807,0.216
			c1.914,0,2.494-0.689,2.494-1.937c0-0.838-0.409-1.268-1.827-2.107l-2.84-1.7c-2.001-1.182-2.538-2.43-2.538-3.936
			c0-2.366,1.377-4.087,5.378-4.087c1.419,0,3.398,0.216,4.129,0.387c0.215,0.043,0.387,0.194,0.387,0.409v1.592
			c0,0.215-0.151,0.387-0.365,0.387c-0.022,0-0.022,0-0.043,0c-1.42-0.129-2.839-0.215-4.238-0.215
			c-1.591,0-2.258,0.559-2.258,1.527c0,0.71,0.365,1.14,1.763,1.915l2.582,1.441c2.366,1.312,2.989,2.687,2.989,4.387
			C98.936,31.473,97.58,33.796,93.279,33.796z"/>
		<path id="path2215_1_" class="st66" d="M21.571,33.624h-2.279c-0.194,0-0.366-0.172-0.409-0.366l-0.99-4.087h-4.947l-0.989,4.087
			c-0.043,0.194-0.215,0.366-0.409,0.366h-2.28c-0.215,0-0.387-0.15-0.387-0.366c0-0.022,0.022-0.065,0.022-0.108l3.528-13.486
			c0.516-2,2.065-2.194,2.99-2.194c0.925,0,2.473,0.193,2.989,2.194l3.528,13.486c0,0.043,0.021,0.086,0.021,0.108
			C21.959,33.473,21.787,33.624,21.571,33.624z M15.765,20.331c-0.065-0.259-0.13-0.344-0.344-0.344
			c-0.215,0-0.28,0.085-0.344,0.344l-1.549,6.387h3.785L15.765,20.331z"/>
		<path id="path2217_1_" class="st66" d="M26.541,33.624h-2.13c-0.236,0-0.43-0.193-0.43-0.43V18.051
			c0-0.236,0.194-0.409,0.43-0.409h2.13c0.236,0,0.43,0.172,0.43,0.409v15.142C26.971,33.43,26.777,33.624,26.541,33.624z"/>
		<path id="path2219_1_" class="st66" d="M41.822,33.624h-2.615c-0.237,0-0.323-0.214-0.43-0.43l-3.098-5.743h-0.3
			c-0.56,0-1.42-0.064-1.915-0.085v5.828c0,0.237-0.172,0.43-0.409,0.43h-2.151c-0.237,0-0.431-0.193-0.431-0.43V18.395
			c0-0.43,0.259-0.58,0.688-0.645c1.119-0.172,2.646-0.28,4.217-0.28c3.312,0,6.185,1.183,6.185,4.862v0.193
			c0,2.28-1.131,3.7-2.895,4.388l3.369,6.28c0.042,0.065,0.042,0.128,0.042,0.173C42.08,33.516,41.995,33.624,41.822,33.624z
			 M38.604,22.332c0-1.613-1.076-2.302-3.226-2.302c-0.452,0-1.528,0.043-1.915,0.086v4.839c0.344,0.021,1.549,0.065,1.915,0.065
			c2.214,0,3.226-0.602,3.226-2.495V22.332z"/>
		<path id="path2221_1_" class="st66" d="M52.873,33.495c-0.645,0.15-2.517,0.301-3.656,0.301c-2.797,0-4.969-0.752-4.969-4.409
			V18.072c0-0.236,0.194-0.43,0.431-0.43h2.129c0.237,0,0.431,0.193,0.431,0.43v11.315c0,1.418,0.43,1.85,1.678,1.85h3.958
			c0.237,0,0.43,0.192,0.43,0.43v1.377C53.303,33.344,53.195,33.43,52.873,33.495z"/>
		<path id="path2223_1_" class="st66" d="M57.629,33.624h-2.13c-0.236,0-0.43-0.193-0.43-0.43V18.051
			c0-0.236,0.193-0.409,0.43-0.409h2.13c0.237,0,0.43,0.172,0.43,0.409v15.142C58.059,33.43,57.865,33.624,57.629,33.624z"/>
		<path id="path2225_1_" class="st66" d="M72.79,33.624h-2.172c-0.517,0-0.969,0-1.313-0.775L64.53,22.374
			c-0.065-0.129-0.129-0.172-0.194-0.172c-0.064,0-0.107,0.043-0.107,0.172v10.819c0,0.237-0.173,0.43-0.409,0.43h-1.828
			c-0.236,0-0.43-0.193-0.43-0.43v-14.69c0-0.474,0.387-0.861,0.86-0.861h2.323c0.452,0,0.689,0.129,0.947,0.688l5.012,11.056
			c0.043,0.107,0.108,0.171,0.172,0.171c0.043,0,0.108-0.064,0.108-0.193V18.051c0-0.236,0.172-0.409,0.409-0.409h1.85
			c0.236,0,0.409,0.172,0.409,0.409v14.712C73.65,33.236,73.263,33.624,72.79,33.624z"/>
		<path id="path2227_1_" class="st66" d="M85.931,33.495c-0.687,0.108-1.527,0.301-4.086,0.301c-2.797,0-4.968-0.752-4.968-4.409
			V21.88c0-3.656,2.172-4.409,4.968-4.409c2.56,0,3.399,0.193,4.086,0.301c0.324,0.043,0.431,0.15,0.431,0.451V19.6
			c0,0.236-0.194,0.43-0.431,0.43h-4.388c-1.248,0-1.7,0.431-1.7,1.85v2.323h5.829c0.237,0,0.43,0.194,0.43,0.43v1.549
			c0,0.236-0.193,0.43-0.43,0.43h-5.829v2.776c0,1.418,0.451,1.85,1.7,1.85h4.388c0.237,0,0.431,0.192,0.431,0.43v1.377
			C86.362,33.344,86.254,33.452,85.931,33.495z"/>
		<path id="path2229_1_" class="st66" d="M93.279,33.796c-1.613,0-2.774-0.151-3.807-0.386c-0.214-0.043-0.409-0.195-0.409-0.432
			V31.43c0-0.236,0.194-0.408,0.409-0.408c0.021,0,0.021,0,0.044,0c0.86,0.107,3.011,0.216,3.807,0.216
			c1.914,0,2.494-0.689,2.494-1.937c0-0.838-0.409-1.268-1.827-2.107l-2.84-1.7c-2.001-1.182-2.538-2.43-2.538-3.936
			c0-2.366,1.377-4.087,5.378-4.087c1.419,0,3.398,0.216,4.129,0.387c0.215,0.043,0.387,0.194,0.387,0.409v1.592
			c0,0.215-0.151,0.387-0.365,0.387c-0.022,0-0.022,0-0.043,0c-1.42-0.129-2.839-0.215-4.238-0.215
			c-1.591,0-2.258,0.559-2.258,1.527c0,0.71,0.365,1.14,1.763,1.915l2.582,1.441c2.366,1.312,2.989,2.687,2.989,4.387
			C98.936,31.473,97.58,33.796,93.279,33.796z"/>
	</g>
	<g class="st1">
		<path id="path18_1_" class="st67" d="M201.989,26.236c0.329-1.101,0.483-2.168,0.57-3.255c0.276-4.099-2.531-8.731-8.301-9.42l0,0
			h-2.895l0,0c-5.718,0.689-8.319,5.322-8.319,9.42c0,1.119,0.242,2.514,0.622,3.651c1.049,2.843,3.374,5.305,7.63,5.77
			C196.359,32.593,200.077,31.471,201.989,26.236L201.989,26.236L201.989,26.236z M193.999-1.559h75.503l-3.941,15.12h-15.365
			l-9.109,33.999h-16.948l9.112-33.999h-15.949l0,0c1.756,3.084,2.703,6.305,2.479,9.42c-0.758,11.231-7.025,24.113-26.212,24.543
			l0,0l0,0h-46.123v0.035h-16.948l13.159-49.102h16.948l-9.095,33.944h15.554l0,0c-1.171-3.063-1.724-6.302-1.724-9.42
			c0-11.435,8.732-24.523,27.213-24.523c0.482,0,0.947,0,1.43,0.032l0,0L193.999-1.559z"/>
	</g>
</g>
<g id="Layer_2" class="st0">
	<path class="st70" d="M-15.788,7.353c-10.024,0-18.15,8.127-18.15,18.151c0,10.025,8.126,18.141,18.15,18.141
		S2.353,35.528,2.353,25.504C2.353,15.481-5.765,7.353-15.788,7.353z M-14.649,16.407c-0.16,0.439-0.536,1.438-0.718,1.839
		c-0.161,0.399-0.34,0.558-0.88,0.558c-0.338,0-0.917,0-1.157,0c-1.899,0-3.117,0.082-3.776,0.301
		c-0.639,0.198-1.142,0.538-1.4,0.917c-0.24,0.302-0.319,0.719-0.319,1.08c0,0.378,0.042,0.739,0.419,1.219
		c0.459,0.459,1.22,1.057,2.717,1.976c2.979,1.858,3.858,3.333,3.858,5.273c0,3.157-2.979,6.174-7.972,6.174
		c-1.499,0-3.596-0.222-4.476-0.5c-0.299-0.139-0.379-0.299-0.258-0.78c0.179-0.6,0.377-1.117,0.639-1.818
		c0.118-0.34,0.319-0.48,0.657-0.38c0.98,0.239,2.517,0.38,3.536,0.38c2.92,0,4.057-1.319,4.057-2.477
		c0-1.057-0.578-1.638-3.478-3.396c-2.717-1.678-3.653-3.136-3.653-5.154c0-2.417,1.556-4.334,3.812-5.214
		c1.34-0.5,3.198-0.658,6.055-0.658c0.46,0,0.879,0,1.959,0C-14.728,15.748-14.427,15.885-14.649,16.407z M-3.63,16.365
		c-0.578,1.438-4.903,11.107-5.481,12.428c-0.202,0.479-0.422,0.577-0.922,0.577c-0.22,0-2.058,0-2.176,0
		c-0.301,0-0.419-0.22-0.259-0.577c0.118-0.302,3.775-8.391,4.494-10.031c-0.497,0-1.179,0.041-3.158,0.041c-0.32,0-1.716,0-1.839,0
		c-0.295,0-0.417-0.28-0.295-0.578c0.1-0.381,0.596-1.599,0.677-1.899c0.202-0.441,0.418-0.578,0.841-0.578c0.199,0,7.783,0,7.783,0
		C-3.549,15.748-3.469,16.045-3.63,16.365z"/>
	<path id="path2199_2_" class="st70" d="M21.571,33.624h-2.279c-0.194,0-0.366-0.172-0.409-0.366l-0.99-4.087h-4.947l-0.989,4.087
		c-0.043,0.194-0.215,0.366-0.409,0.366h-2.28c-0.215,0-0.387-0.15-0.387-0.366c0-0.022,0.022-0.065,0.022-0.108l3.528-13.486
		c0.516-2,2.065-2.194,2.99-2.194c0.925,0,2.473,0.193,2.989,2.194l3.528,13.486c0,0.043,0.021,0.086,0.021,0.108
		C21.959,33.473,21.787,33.624,21.571,33.624z M15.765,20.331c-0.065-0.259-0.13-0.344-0.344-0.344c-0.215,0-0.28,0.085-0.344,0.344
		l-1.549,6.387h3.785L15.765,20.331z"/>
	<path id="path2201_2_" class="st70" d="M26.541,33.624h-2.13c-0.236,0-0.43-0.193-0.43-0.43V18.051c0-0.236,0.194-0.409,0.43-0.409
		h2.13c0.236,0,0.43,0.172,0.43,0.409v15.142C26.971,33.43,26.777,33.624,26.541,33.624z"/>
	<path id="path2203_2_" class="st70" d="M41.822,33.624h-2.615c-0.237,0-0.323-0.214-0.43-0.43l-3.098-5.743h-0.3
		c-0.56,0-1.42-0.064-1.915-0.085v5.828c0,0.237-0.172,0.43-0.409,0.43h-2.151c-0.237,0-0.431-0.193-0.431-0.43V18.395
		c0-0.43,0.259-0.58,0.688-0.645c1.119-0.172,2.646-0.28,4.217-0.28c3.312,0,6.185,1.183,6.185,4.862v0.193
		c0,2.28-1.131,3.7-2.895,4.388l3.369,6.28c0.042,0.065,0.042,0.128,0.042,0.173C42.08,33.516,41.995,33.624,41.822,33.624z
		 M38.604,22.332c0-1.613-1.076-2.302-3.226-2.302c-0.452,0-1.528,0.043-1.915,0.086v4.839c0.344,0.021,1.549,0.065,1.915,0.065
		c2.214,0,3.226-0.602,3.226-2.495V22.332z"/>
	<path id="path2205_2_" class="st70" d="M52.873,33.495c-0.645,0.15-2.517,0.301-3.656,0.301c-2.797,0-4.969-0.752-4.969-4.409
		V18.072c0-0.236,0.194-0.43,0.431-0.43h2.129c0.237,0,0.431,0.193,0.431,0.43v11.315c0,1.418,0.43,1.85,1.678,1.85h3.958
		c0.237,0,0.43,0.192,0.43,0.43v1.377C53.303,33.344,53.195,33.43,52.873,33.495z"/>
	<path id="path2207_2_" class="st70" d="M57.629,33.624h-2.13c-0.236,0-0.43-0.193-0.43-0.43V18.051c0-0.236,0.193-0.409,0.43-0.409
		h2.13c0.237,0,0.43,0.172,0.43,0.409v15.142C58.059,33.43,57.865,33.624,57.629,33.624z"/>
	<path id="path2209_2_" class="st70" d="M72.79,33.624h-2.172c-0.517,0-0.969,0-1.313-0.775L64.53,22.374
		c-0.065-0.129-0.129-0.172-0.194-0.172c-0.064,0-0.107,0.043-0.107,0.172v10.819c0,0.237-0.173,0.43-0.409,0.43h-1.828
		c-0.236,0-0.43-0.193-0.43-0.43v-14.69c0-0.474,0.387-0.861,0.86-0.861h2.323c0.452,0,0.689,0.129,0.947,0.688l5.012,11.056
		c0.043,0.107,0.108,0.171,0.172,0.171c0.043,0,0.108-0.064,0.108-0.193V18.051c0-0.236,0.172-0.409,0.409-0.409h1.85
		c0.236,0,0.409,0.172,0.409,0.409v14.712C73.65,33.236,73.263,33.624,72.79,33.624z"/>
	<path id="path2211_2_" class="st70" d="M85.931,33.495c-0.687,0.108-1.527,0.301-4.086,0.301c-2.797,0-4.968-0.752-4.968-4.409
		V21.88c0-3.656,2.172-4.409,4.968-4.409c2.56,0,3.399,0.193,4.086,0.301c0.324,0.043,0.431,0.15,0.431,0.451V19.6
		c0,0.236-0.194,0.43-0.431,0.43h-4.388c-1.248,0-1.7,0.431-1.7,1.85v2.323h5.829c0.237,0,0.43,0.194,0.43,0.43v1.549
		c0,0.236-0.193,0.43-0.43,0.43h-5.829v2.776c0,1.418,0.451,1.85,1.7,1.85h4.388c0.237,0,0.431,0.192,0.431,0.43v1.377
		C86.362,33.344,86.254,33.452,85.931,33.495z"/>
	<path id="path2213_2_" class="st70" d="M93.279,33.796c-1.613,0-2.774-0.151-3.807-0.386c-0.214-0.043-0.409-0.195-0.409-0.432
		V31.43c0-0.236,0.194-0.408,0.409-0.408c0.021,0,0.021,0,0.044,0c0.86,0.107,3.011,0.216,3.807,0.216
		c1.914,0,2.494-0.689,2.494-1.937c0-0.838-0.409-1.268-1.827-2.107l-2.84-1.7c-2.001-1.182-2.538-2.43-2.538-3.936
		c0-2.366,1.377-4.087,5.378-4.087c1.419,0,3.398,0.216,4.129,0.387c0.215,0.043,0.387,0.194,0.387,0.409v1.592
		c0,0.215-0.151,0.387-0.365,0.387c-0.022,0-0.022,0-0.043,0c-1.42-0.129-2.839-0.215-4.238-0.215c-1.591,0-2.258,0.559-2.258,1.527
		c0,0.71,0.365,1.14,1.763,1.915l2.582,1.441c2.366,1.312,2.989,2.687,2.989,4.387C98.936,31.473,97.58,33.796,93.279,33.796z"/>
	<path id="path2215_2_" class="st70" d="M21.571,33.624h-2.279c-0.194,0-0.366-0.172-0.409-0.366l-0.99-4.087h-4.947l-0.989,4.087
		c-0.043,0.194-0.215,0.366-0.409,0.366h-2.28c-0.215,0-0.387-0.15-0.387-0.366c0-0.022,0.022-0.065,0.022-0.108l3.528-13.486
		c0.516-2,2.065-2.194,2.99-2.194c0.925,0,2.473,0.193,2.989,2.194l3.528,13.486c0,0.043,0.021,0.086,0.021,0.108
		C21.959,33.473,21.787,33.624,21.571,33.624z M15.765,20.331c-0.065-0.259-0.13-0.344-0.344-0.344c-0.215,0-0.28,0.085-0.344,0.344
		l-1.549,6.387h3.785L15.765,20.331z"/>
	<path id="path2217_2_" class="st70" d="M26.541,33.624h-2.13c-0.236,0-0.43-0.193-0.43-0.43V18.051c0-0.236,0.194-0.409,0.43-0.409
		h2.13c0.236,0,0.43,0.172,0.43,0.409v15.142C26.971,33.43,26.777,33.624,26.541,33.624z"/>
	<path id="path2219_2_" class="st70" d="M41.822,33.624h-2.615c-0.237,0-0.323-0.214-0.43-0.43l-3.098-5.743h-0.3
		c-0.56,0-1.42-0.064-1.915-0.085v5.828c0,0.237-0.172,0.43-0.409,0.43h-2.151c-0.237,0-0.431-0.193-0.431-0.43V18.395
		c0-0.43,0.259-0.58,0.688-0.645c1.119-0.172,2.646-0.28,4.217-0.28c3.312,0,6.185,1.183,6.185,4.862v0.193
		c0,2.28-1.131,3.7-2.895,4.388l3.369,6.28c0.042,0.065,0.042,0.128,0.042,0.173C42.08,33.516,41.995,33.624,41.822,33.624z
		 M38.604,22.332c0-1.613-1.076-2.302-3.226-2.302c-0.452,0-1.528,0.043-1.915,0.086v4.839c0.344,0.021,1.549,0.065,1.915,0.065
		c2.214,0,3.226-0.602,3.226-2.495V22.332z"/>
	<path id="path2221_2_" class="st70" d="M52.873,33.495c-0.645,0.15-2.517,0.301-3.656,0.301c-2.797,0-4.969-0.752-4.969-4.409
		V18.072c0-0.236,0.194-0.43,0.431-0.43h2.129c0.237,0,0.431,0.193,0.431,0.43v11.315c0,1.418,0.43,1.85,1.678,1.85h3.958
		c0.237,0,0.43,0.192,0.43,0.43v1.377C53.303,33.344,53.195,33.43,52.873,33.495z"/>
	<path id="path2223_2_" class="st70" d="M57.629,33.624h-2.13c-0.236,0-0.43-0.193-0.43-0.43V18.051c0-0.236,0.193-0.409,0.43-0.409
		h2.13c0.237,0,0.43,0.172,0.43,0.409v15.142C58.059,33.43,57.865,33.624,57.629,33.624z"/>
	<path id="path2225_2_" class="st70" d="M72.79,33.624h-2.172c-0.517,0-0.969,0-1.313-0.775L64.53,22.374
		c-0.065-0.129-0.129-0.172-0.194-0.172c-0.064,0-0.107,0.043-0.107,0.172v10.819c0,0.237-0.173,0.43-0.409,0.43h-1.828
		c-0.236,0-0.43-0.193-0.43-0.43v-14.69c0-0.474,0.387-0.861,0.86-0.861h2.323c0.452,0,0.689,0.129,0.947,0.688l5.012,11.056
		c0.043,0.107,0.108,0.171,0.172,0.171c0.043,0,0.108-0.064,0.108-0.193V18.051c0-0.236,0.172-0.409,0.409-0.409h1.85
		c0.236,0,0.409,0.172,0.409,0.409v14.712C73.65,33.236,73.263,33.624,72.79,33.624z"/>
	<path id="path2227_2_" class="st70" d="M85.931,33.495c-0.687,0.108-1.527,0.301-4.086,0.301c-2.797,0-4.968-0.752-4.968-4.409
		V21.88c0-3.656,2.172-4.409,4.968-4.409c2.56,0,3.399,0.193,4.086,0.301c0.324,0.043,0.431,0.15,0.431,0.451V19.6
		c0,0.236-0.194,0.43-0.431,0.43h-4.388c-1.248,0-1.7,0.431-1.7,1.85v2.323h5.829c0.237,0,0.43,0.194,0.43,0.43v1.549
		c0,0.236-0.193,0.43-0.43,0.43h-5.829v2.776c0,1.418,0.451,1.85,1.7,1.85h4.388c0.237,0,0.431,0.192,0.431,0.43v1.377
		C86.362,33.344,86.254,33.452,85.931,33.495z"/>
	<path id="path2229_2_" class="st70" d="M93.279,33.796c-1.613,0-2.774-0.151-3.807-0.386c-0.214-0.043-0.409-0.195-0.409-0.432
		V31.43c0-0.236,0.194-0.408,0.409-0.408c0.021,0,0.021,0,0.044,0c0.86,0.107,3.011,0.216,3.807,0.216
		c1.914,0,2.494-0.689,2.494-1.937c0-0.838-0.409-1.268-1.827-2.107l-2.84-1.7c-2.001-1.182-2.538-2.43-2.538-3.936
		c0-2.366,1.377-4.087,5.378-4.087c1.419,0,3.398,0.216,4.129,0.387c0.215,0.043,0.387,0.194,0.387,0.409v1.592
		c0,0.215-0.151,0.387-0.365,0.387c-0.022,0-0.022,0-0.043,0c-1.42-0.129-2.839-0.215-4.238-0.215c-1.591,0-2.258,0.559-2.258,1.527
		c0,0.71,0.365,1.14,1.763,1.915l2.582,1.441c2.366,1.312,2.989,2.687,2.989,4.387C98.936,31.473,97.58,33.796,93.279,33.796z"/>
	<g class="st1">
		<path id="path18_2_" class="st14" d="M201.989,26.236c0.329-1.101,0.483-2.168,0.57-3.255c0.276-4.099-2.531-8.731-8.301-9.42l0,0
			h-2.895l0,0c-5.718,0.689-8.319,5.322-8.319,9.42c0,1.119,0.242,2.514,0.622,3.651c1.049,2.843,3.374,5.305,7.63,5.77
			C196.359,32.593,200.077,31.471,201.989,26.236L201.989,26.236L201.989,26.236z M193.999-1.559h75.503l-3.941,15.12h-15.365
			l-9.109,33.999h-16.948l9.112-33.999h-15.949l0,0c1.756,3.084,2.703,6.305,2.479,9.42c-0.758,11.231-7.025,24.113-26.212,24.543
			l0,0l0,0h-46.123v0.035h-16.948l13.159-49.102h16.948l-9.095,33.944h15.554l0,0c-1.171-3.063-1.724-6.302-1.724-9.42
			c0-11.435,8.732-24.523,27.213-24.523c0.482,0,0.947,0,1.43,0.032l0,0L193.999-1.559z"/>
	</g>
</g>
<g id="Layer_3">
	<g>
		<path class="st117" d="M273.304,25.795l0.753-0.745c1.051-1.04,1.546-2.365,1.546-4.134c0-1.385-0.098-1.606-1.167-2.622
			c-0.642-0.61-1.687-1.25-2.323-1.421c-0.636-0.171-1.275-0.524-1.42-0.784c-0.234-0.418-0.549-0.436-2.744-0.152
			c-1.364,0.176-3.236,0.586-4.161,0.911c-2.71,0.952-9.132,4.836-13.695,8.281c-0.961,0.726-1.782,1.283-1.826,1.24
			c-0.043-0.044,0.115-0.544,0.353-1.112c0.547-1.309,1.63-2.149,6.865-5.322c8.066-4.889,10.925-7.785,12.084-12.237
			c0.556-2.134,0.563-2.49,0.05-2.49c-0.232,0-0.538-0.536-0.72-1.262c-0.432-1.714-1.26-2.68-2.803-3.269
			c-1.729-0.66-4.551-0.485-6.222,0.386c-1.072,0.559-1.264,0.585-1.412,0.198c-0.68-1.771-5.032-1.648-6.997,0.198
			c-0.41,0.385-0.839,0.532-1.211,0.414c-0.795-0.252-3.245,2.541-4.596,5.239c-2.192,4.379-1.879,10.036,0.785,14.188
			c0.492,0.766,1.234,1.641,1.649,1.943l0.755,0.55l-0.515,1.349c-0.283,0.742-0.606,1.349-0.716,1.349s-0.711-1.064-1.334-2.365
			c-1.976-4.123-4.285-6.638-6.684-7.285c-0.655-0.176-2.156-0.272-3.335-0.213c-1.716,0.087-2.242,0.226-2.632,0.699
			c-0.269,0.325-0.969,0.943-1.556,1.373c-1.185,0.868-2.154,2.937-1.928,4.118c0.113,0.591-0.025,0.789-0.764,1.095
			c-2.348,0.972-4.469,4-4.757,6.791c-0.187,1.81,0.402,3.174,1.685,3.902c0.47,0.267,0.797,0.638,0.727,0.825
			c-0.07,0.187,0.072,0.417,0.315,0.51c0.748,0.287,4.652,0.188,6.285-0.158c2.948-0.626,7.715-2.982,11.576-5.72
			c0.688-0.488,0.685-0.472-0.115,0.808c-1.89,3.022-5.136,6.775-7.56,8.742c-1.549,1.257-1.873,1.694-2.325,3.134
			c-0.289,0.921-0.707,2.1-0.929,2.621c-0.656,1.539,0.063,1.193,3.115-1.495c4.223-3.721,7.641-7.887,10.304-12.561l1.218-2.136
			l1.586,2.038c3.932,5.053,8.38,7.611,13.905,7.998c2.099,0.147,2.964,0.067,4.883-0.454c2.732-0.742,5.246-2.02,5.253-2.672
			c0.003-0.252,0.383-0.907,0.846-1.456c1.88-2.23,2.121-4.457,0.77-7.136L273.304,25.795z"/>
		<g>
			<path class="st118" d="M190.177,37.647c-0.552-1.03-0.584-1.643-0.584-11.371V15.994h-6.978l0.646,1.094
				c0.612,1.036,0.646,1.417,0.646,7.224c0,6.003-0.016,6.161-0.745,7.578c-1.916,3.722-6.516,4.773-8.65,1.977l-0.81-1.061
				L173.61,24.4l-0.093-8.406h-6.375c-6.018,0-6.385,0.031-6.552,0.557c-0.344,1.083-0.94,1.305-1.765,0.656
				c-1.456-1.145-3.445-1.578-6.652-1.448c-4.48,0.181-6.663,1.354-8.306,4.464c-0.658,1.245-0.771,1.82-0.771,3.936
				c0,1.983,0.126,2.715,0.631,3.664c0.621,1.167,2.544,3.131,3.319,3.389c0.302,0.101,0.247,0.319-0.234,0.931
				c-1.574,2-1.553,4.258,0.051,5.666c1.113,0.977,1.755,1.096,7.451,1.384c5.29,0.267,6.706,1.005,6.706,3.495
				c0,1.54-1.636,3.119-3.918,3.783c-2.383,0.693-6.512,0.506-8.333-0.377c-2.1-1.018-2.942-3.141-1.859-4.687
				c0.257-0.367,0.398-0.736,0.313-0.821s-0.918-0.168-1.852-0.184c-2.991-0.052-4.706,1.504-4.375,3.97
				c0.359,2.68,2.926,4.411,8.071,5.442c0.722,0.145,2.886,0.222,4.811,0.171c5.693-0.149,9.046-1.613,10.597-4.626
				c1.852-3.599,0.678-7.876-2.624-9.561c-1.27-0.648-4.724-1.135-8.118-1.145c-2.582-0.008-3.645-0.435-3.645-1.464
				c0-0.693,0.077-0.722,2.041-0.766c5.518-0.124,8.119-1.369,9.656-4.619c0.899-1.901,0.949-4.952,0.111-6.798l-0.571-1.258
				l1.35-0.597c1.673-0.74,3.653-0.602,4.575,0.319c0.592,0.591,0.631,0.97,0.779,7.54c0.169,7.483,0.339,8.364,1.935,10.031
				c1.836,1.917,5.995,2.743,9.3,1.849c1.505-0.407,2.245-0.824,3.496-1.967l1.587-1.45v3.266h6.415L190.177,37.647z
				 M155.178,28.459c-0.704,0.361-1.749,0.656-2.322,0.656c-1.515,0-3.5-1.118-4.133-2.328c-0.743-1.419-0.718-4.216,0.05-5.474
				c0.962-1.578,2.188-2.159,4.299-2.041c2.983,0.168,4.448,1.778,4.449,4.89C157.521,26.314,156.807,27.623,155.178,28.459z"/>
		</g>
		<g>
			<path class="st118" d="M45.704,35.456c-3.743-0.3-6.084-2.651-6.68-6.706l-0.203-1.385h15.488l-0.005-1.093
				c-0.006-1.491-0.747-4.523-1.428-5.84c-0.755-1.46-2.829-3.428-4.228-4.01c-4.164-1.733-9.414-0.805-12.414,2.195
				c-3.569,3.569-4.233,9.993-1.544,14.934c1.468,2.697,4.625,4.892,7.892,5.487h0c1.931,0.352,5.9,0.082,7.684-0.522l1.503-0.509
				l0.834-2.284c0.458-1.256,0.735-2.235,0.614-2.174C49.996,35.164,48.09,35.648,45.704,35.456z M39.263,22.927
				c0.419-2.094,2.784-4.016,4.943-4.017c2.274-0.001,4.401,1.811,4.619,3.936l0.09,0.875l-9.843,0.16L39.263,22.927z"/>
		</g>
		<path class="st118" d="M199.36,39.009c-0.962-0.151-2.402-0.438-3.199-0.638l-1.45-0.364l-0.787-2.478
			c-0.433-1.363-0.797-2.631-0.81-2.817s0.666,0.043,1.508,0.511c3.328,1.847,7.697,2.553,9.956,1.609
			c1.283-0.536,1.811-1.904,1.195-3.095c-0.444-0.859-1.667-1.542-5.743-3.205c-4.266-1.741-5.773-3.454-5.773-6.56
			c0-1.703,0.651-3.392,1.645-4.267c0.298-0.262,1.132-0.787,1.853-1.166c1.213-0.638,1.643-0.689,5.685-0.683
			c2.658,0.004,4.86,0.152,5.613,0.376l1.239,0.369v2.207c0,1.985-0.051,2.186-0.51,2.002c-2.748-1.102-6.646-1.597-8.291-1.054
			c-0.622,0.205-1.162,0.636-1.371,1.095c-0.498,1.094,0.222,2.03,2.251,2.927c6.641,2.935,7.698,3.638,8.692,5.772
			c1.676,3.599-0.071,7.69-3.853,9.019C205.48,39.177,201.759,39.386,199.36,39.009L199.36,39.009z"/>
		<g>
			<path class="st118" d="M33.079,37.449c-0.653-0.708-1.607-2.119-2.12-3.134c-0.681-1.348-9.628-22.174-10.971-25.536
				c-0.104-0.26-1.045-0.365-3.283-0.365h-3.137L8.396,21.315c-5.455,13.61-6.518,15.943-7.679,16.856L0,38.736h9.089l-0.715-0.771
				c-1.066-1.151-0.924-2.566,0.686-6.809l1.383-3.645l5.678-0.078l5.678-0.078l1.531,4.027c1.755,4.618,1.856,5.49,0.762,6.585
				l-0.769,0.769h10.941L33.079,37.449z M12.029,23.648c-0.01-0.593,3.952-10.526,4.126-10.343
				c0.247,0.259,4.041,9.928,4.041,10.298C20.196,23.918,12.034,23.964,12.029,23.648z"/>
		</g>
		<path class="st118" d="M57.515,37.647c0.549-1.023,0.584-1.643,0.584-10.282s-0.035-9.258-0.584-10.282l-0.584-1.089h3.208h3.208
			l0.015,1.822c0.015,1.804,0.02,1.815,0.507,1.093c1.473-2.185,3.47-3.28,5.74-3.147l1.464,0.086v2.382
			c0,1.31-0.066,2.447-0.146,2.527c-0.08,0.08-0.767,0.004-1.525-0.17c-1.872-0.428-3.461,0.059-4.459,1.368
			c-1.055,1.383-1.391,3.992-1.258,9.779c0.099,4.336,0.176,4.942,0.751,5.916l0.641,1.086h-4.073h-4.073L57.515,37.647
			L57.515,37.647z"/>
		<path class="st118" d="M81.779,38.517c0.062-0.12,0.433-0.875,0.826-1.676l0.714-1.458V23.721c0-10.492-0.052-11.793-0.518-12.96
			c-0.285-0.714-0.732-1.534-0.993-1.822c-0.455-0.503-0.275-0.525,4.405-0.525c2.684,0,4.83,0.098,4.768,0.219
			c-0.062,0.12-0.433,0.875-0.825,1.676l-0.713,1.458l-0.098,11.324l-0.098,11.324l4.616-0.102c3.991-0.089,4.803-0.188,6.001-0.739
			c0.762-0.35,1.385-0.545,1.385-0.435s-0.404,1.415-0.899,2.899l-0.899,2.698H90.56C85.669,38.736,81.717,38.638,81.779,38.517z"/>
		<path class="st118" d="M104.54,37.643c0.63-1.067,0.646-1.318,0.646-10.277c0-8.197-0.055-9.284-0.51-10.117
			c-0.281-0.513-0.51-1.01-0.51-1.103c0-0.093,1.476-0.133,3.28-0.087l3.28,0.082l0.146,10.496c0.134,9.62,0.191,10.563,0.69,11.298
			l0.544,0.802h-4.106h-4.106L104.54,37.643z"/>
		<path class="st118" d="M115.828,38.652c0-0.046,0.262-0.599,0.583-1.228c0.546-1.071,0.583-1.719,0.583-10.132
			c0-8.443-0.036-9.058-0.589-10.143l-0.589-1.155h3.213h3.213v1.79v1.79l1.155-1.312c1.752-1.99,3.593-2.699,7.008-2.699
			c2.284,0,3.038,0.121,4.298,0.688c1.798,0.809,3.394,2.461,3.886,4.023c0.215,0.682,0.42,4.164,0.53,8.986
			c0.159,7.021,0.237,7.959,0.722,8.674l0.544,0.802h-4.106h-4.106l0.646-1.093c0.619-1.047,0.646-1.389,0.646-8.091
			c0-6.835-0.016-7.023-0.684-8.098c-0.89-1.431-2.147-2.074-4.019-2.057c-3,0.028-5.363,2.193-5.961,5.461
			c-0.177,0.969-0.273,3.984-0.219,6.901c0.09,4.856,0.137,5.236,0.761,6.078l0.665,0.898h-4.091
			C117.669,38.736,115.828,38.698,115.828,38.652L115.828,38.652z"/>
		<path class="st118" d="M106.32,13.975c-0.991-0.426-1.863-1.756-1.863-2.845c0-3.49,4.33-4.949,6.139-2.067
			c0.805,1.282,0.628,3.213-0.387,4.228C109.413,14.087,107.404,14.44,106.32,13.975z"/>
	</g>
</g>
<g id="Layer_4">
</g>
</svg>
