<?xml version="1.0" encoding="utf-8"?>
<!-- Generator: Adobe Illustrator 18.0.0, SVG Export Plug-In . SVG Version: 6.00 Build 0)  -->
<!DOCTYPE svg PUBLIC "-//W3C//DTD SVG 1.1//EN" "http://www.w3.org/Graphics/SVG/1.1/DTD/svg11.dtd">
<svg version="1.1" xmlns="http://www.w3.org/2000/svg" xmlns:xlink="http://www.w3.org/1999/xlink" x="0px" y="0px" width="200px"
	 height="38.319px" viewBox="0 0 200 38.319" style="enable-background:new 0 0 200 38.319;" xml:space="preserve">
<style type="text/css">
	.st0{display:none;}
	.st1{display:inline;}
	.st2{fill:#ED2D27;}
	.st3{display:inline;fill:#F8B900;}
	.st4{display:inline;fill:#00235F;}
	.st5{fill:url(#SVGID_1_);}
	.st6{fill:#006CB6;}
	.st7{fill:url(#SVGID_2_);}
	.st8{fill:url(#SVGID_3_);}
	.st9{fill:url(#SVGID_4_);}
	.st10{fill:url(#SVGID_5_);}
	.st11{fill:url(#SVGID_6_);}
	.st12{fill-rule:evenodd;clip-rule:evenodd;fill:#FFFFFF;}
	.st13{fill-rule:evenodd;clip-rule:evenodd;fill:#E2231A;}
	.st14{fill:#FFFFFF;}
	.st15{fill-rule:evenodd;clip-rule:evenodd;fill:#001689;}
	.st16{fill:#00529B;}
	.st17{fill:#F47920;}
	.st18{fill:url(#SVGID_7_);}
	.st19{fill:url(#SVGID_8_);}
	.st20{fill:url(#SVGID_9_);}
	.st21{fill:url(#SVGID_10_);}
	.st22{fill:url(#SVGID_11_);}
	.st23{fill:url(#SVGID_12_);}
	.st24{fill:url(#SVGID_13_);}
	.st25{fill:#00054C;}
	.st26{fill:url(#path3364_3_);}
	.st27{fill:url(#path3366_3_);}
	.st28{fill:#22356B;}
	.st29{fill:#FCC210;}
	.st30{fill:#ED1C24;}
	.st31{display:inline;fill:url(#SVGID_14_);}
	.st32{fill:#002157;}
	.st33{fill:#CC2234;}
	.st34{fill:#E23546;}
	.st35{fill:#FCB130;}
	.st36{fill:#1D4886;}
	.st37{display:inline;fill:none;}
	.st38{display:inline;fill:#005DAA;}
	.st39{fill:#005DAA;}
	.st40{fill:#00A1E4;}
	.st41{fill:#00704A;}
	.st42{fill:#B10D28;}
	.st43{fill:#D31245;}
	.st44{fill:url(#path70_3_);}
	.st45{fill:url(#SVGID_15_);}
	.st46{fill:url(#SVGID_16_);}
	.st47{fill:#231916;}
	.st48{fill:#E60013;}
	.st49{fill:#C0231E;}
	.st50{fill:#014E84;}
	.st51{fill:#BA783E;}
	.st52{fill:#002052;}
	.st53{fill:#0093D0;}
	.st54{fill:#ED1B2F;}
	.st55{fill:#E3242B;}
	.st56{fill-rule:evenodd;clip-rule:evenodd;fill:#034EA2;}
	.st57{fill-rule:evenodd;clip-rule:evenodd;fill:#E11837;}
	.st58{fill:#034EA2;}
	.st59{opacity:0.8902;fill:#EB151C;}
	.st60{fill:#1A1A1A;}
	.st61{enable-background:new    ;}
	.st62{fill:#FF6600;}
	.st63{clip-path:url(#SVGID_18_);fill:url(#SVGID_19_);}
	.st64{fill:url(#SVGID_20_);}
	.st65{fill:#B2DB1F;}
	.st66{fill:#FA002C;}
	.st67{fill:#1C2D5B;}
	.st68{fill:#1C4E9D;}
	.st69{fill:#ED192D;}
	.st70{display:inline;fill:#FFFFFF;}
	.st71{display:inline;fill:#00529B;}
	.st72{display:inline;fill:#F47920;}
	.st73{display:inline;fill:url(#SVGID_21_);}
	.st74{display:inline;fill:url(#SVGID_22_);}
	.st75{display:inline;fill:url(#SVGID_23_);}
	.st76{display:inline;fill:url(#SVGID_24_);}
	.st77{display:inline;fill:url(#SVGID_25_);}
	.st78{display:inline;fill:url(#SVGID_26_);}
	.st79{display:inline;fill:url(#SVGID_27_);}
	.st80{display:inline;fill:url(#path3364_4_);}
	.st81{display:inline;fill:url(#path3366_4_);}
	.st82{display:inline;fill:url(#SVGID_28_);}
	.st83{display:inline;fill:url(#SVGID_29_);}
	.st84{display:inline;fill:url(#SVGID_30_);}
	.st85{display:inline;opacity:0.75;fill:#FFFFFF;}
	.st86{display:inline;fill:#ED1B2F;}
	.st87{opacity:0.8902;fill:#FFFFFF;}
	.st88{clip-path:url(#SVGID_32_);fill:#FFFFFF;}
	.st89{fill:url(#SVGID_33_);}
	.st90{fill:url(#SVGID_34_);}
	.st91{fill:url(#SVGID_35_);}
	.st92{fill:url(#SVGID_36_);}
	.st93{fill:url(#SVGID_37_);}
	.st94{fill:url(#SVGID_38_);}
	.st95{fill:url(#SVGID_39_);}
	.st96{fill:url(#SVGID_40_);}
	.st97{clip-path:url(#SVGID_42_);fill:url(#SVGID_43_);}
	.st98{fill:url(#SVGID_44_);}
	.st99{fill:url(#path70_5_);}
	.st100{fill:url(#SVGID_45_);}
	.st101{fill:url(#SVGID_46_);}
	.st102{fill:#F8B900;}
	.st103{fill:#00235F;}
	.st104{fill:url(#SVGID_47_);}
	.st105{fill:url(#SVGID_48_);}
	.st106{fill:url(#SVGID_49_);}
	.st107{fill:url(#SVGID_50_);}
	.st108{fill:url(#SVGID_51_);}
	.st109{fill:url(#SVGID_52_);}
	.st110{opacity:0.8902;fill:#EB151C;enable-background:new    ;}
	.st111{fill:#E11837;}
	.st112{fill:#E2231A;}
	.st113{fill:#001689;}
	.st114{fill:#EF3E34;}
	.st115{fill:#4D82C4;}
	.st116{fill:#8C7035;}
	.st117{fill:#5FBA45;}
	.st118{fill:#008F7E;}
	.st119{fill:#004595;}
	.st120{fill:#FFED00;}
	.st121{fill:#E53138;}
	.st122{fill:url(#SVGID_53_);}
	.st123{fill:url(#SVGID_54_);}
	.st124{fill:url(#SVGID_55_);}
	.st125{fill:url(#SVGID_56_);}
	.st126{fill:#11185E;}
	.st127{fill:#EE3024;}
	.st128{fill:#0675CC;}
	.st129{fill:#E2001A;}
	.st130{fill:#009036;}
	.st131{fill:#0B1560;}
	.st132{fill:#0070AF;}
	.st133{fill:#0F2C64;}
	.st134{fill:#EF001E;}
	.st135{fill:#1C2A8D;}
	.st136{fill:#334357;}
	.st137{fill:url(#SVGID_57_);}
	.st138{fill:#ED1B28;}
	.st139{fill:#1E5AAF;}
	.st140{fill:#991933;}
	.st141{fill:#E01933;}
	.st142{fill:#003366;}
	.st143{fill:#00265D;}
	.st144{fill:#003263;}
	.st145{fill:#EE452A;}
	.st146{fill:#011F65;}
	.st147{fill:#EC2227;}
	.st148{fill:#010101;}
	.st149{fill:#FCEE21;}
	.st150{fill:#18488B;}
	.st151{fill:#EC2427;}
	.st152{fill:#D09B2B;}
	.st153{fill:#156192;}
	.st154{fill:#021A31;}
	.st155{fill:#008E8F;}
	.st156{fill:#2B438F;}
	.st157{fill:#363F9E;}
	.st158{fill:#00ABBF;}
</style>
<g id="Layer_1" class="st0">
</g>
<g id="Layer_2" class="st0">
</g>
<g id="Layer_3">
	<g>
		<g>
			<path id="path2889_4_" class="st41" d="M180.011,17.554h-9.663c0,0-0.689-9.286,17.547-9.752
				c14.296-0.368,11.964,8.113,11.964,8.113l-4.745,21.598c0,0-6.357,0.807-11.965,0.807c-11.419,0-18.433-0.292-17.266-8.219
				c1.664-11.402,16.13-9.506,20.529-11.2c0.345-0.126,3.558-0.978,3.558-2.985c0-2.002-2.872-2.395-4.029-2.395
				C184.808,13.522,180.808,14.28,180.011,17.554 M180.401,25.278c0,0-3.962,0.637-3.962,3.615c0,3.837,4.162,3.182,5.804,3.182
				c1.652,0,4.209-0.197,4.209-0.197l1.849-8.165L180.401,25.278L180.401,25.278z"/>
			<path id="path2891_4_" class="st41" d="M117.254,17.554h-9.642c0,0-0.709-9.286,17.527-9.752
				c14.3-0.368,11.955,8.113,11.955,8.113l-4.74,21.598c0,0-6.36,0.807-11.97,0.807c-11.409,0-18.423-0.292-17.273-8.219
				c1.662-11.402,16.137-9.506,20.535-11.2c0.345-0.126,3.555-0.978,3.555-2.985c0-2.002-2.851-2.395-4.012-2.395
				C122.047,13.522,118.022,14.28,117.254,17.554 M117.644,25.278c0,0-3.958,0.637-3.958,3.615c0,3.837,4.163,3.182,5.809,3.182
				c1.62,0,4.182-0.197,4.182-0.197l1.857-8.165L117.644,25.278z"/>
			<polygon id="polygon2893_4_" class="st41" points="50.382,37.709 58.892,0 68.623,0 60.124,37.709 			"/>
			<polygon id="polygon2895_4_" class="st41" points="65.159,37.709 71.579,9.284 81.319,9.284 74.906,37.709 			"/>
			<polygon id="polygon2897_4_" class="st41" points="72.132,6.886 73.684,0 83.414,0 81.867,6.886 			"/>
			<polygon id="polygon2899_4_" class="st41" points="136.982,37.672 145.507,0.017 155.247,0.017 146.724,37.672 			"/>
			<polygon id="polygon2901_4_" class="st41" points="151.821,37.67 158.23,9.269 167.953,9.269 161.555,37.67 			"/>
			<polygon id="polygon2903_4_" class="st41" points="158.746,6.92 160.314,0 170.037,0 168.469,6.92 			"/>
			<path id="path2905_4_" class="st41" d="M43.866,4.908l-7.565,32.806h5.533c0,0,1.622,0.097,3.291-1.639
				c1.14-1.151,1.256-2.306,1.256-2.306L53.785,0H40.213c-3.827,0-5.76,2.15-5.76,2.15L0,37.714h11.879L43.866,4.908z"/>
			<path id="path2907_4_" class="st42" d="M28.64,37.736c1.513,0.025,3.017-1.121,3.365-2.551l3.679-15.076L18.092,37.736H28.64
				L28.64,37.736z"/>
			<path id="path2909_4_" class="st43" d="M28.64,37.736c1.513,0.025,3.017-1.121,3.365-2.551l3.679-15.076L18.092,37.736H28.64
				L28.64,37.736z"/>
			<path id="path2911_4_" class="st41" d="M87.777,3.382h9.202L95.69,9.081h10.096c0,0-0.889,4.622-2.084,5.834
				c-1.783,1.805-3.494,1.708-3.494,1.708h-5.869l0.01-0.037l-2.462,10.913c0,0-0.676,2.592,2.417,2.592h7.064l-1.719,7.589H87.953
				c0,0-8.032,0.501-6.313-7.099L87.777,3.382"/>
			<path id="path2913_4_" class="st41" d="M87.777,3.382h9.202L95.69,9.081h10.096c0,0-0.889,4.622-2.084,5.834
				c-1.783,1.805-3.494,1.708-3.494,1.708h-5.869l0.01-0.037l-2.462,10.913c0,0-0.676,2.592,2.417,2.592h7.064l-1.719,7.589H87.953
				c0,0-8.032,0.501-6.313-7.099L87.777,3.382"/>
		</g>
	</g>
</g>
<g id="Layer_4">
</g>
</svg>
