<?xml version="1.0" encoding="utf-8"?>
<!-- Generator: Adobe Illustrator 18.0.0, SVG Export Plug-In . SVG Version: 6.00 Build 0)  -->
<!DOCTYPE svg PUBLIC "-//W3C//DTD SVG 1.1//EN" "http://www.w3.org/Graphics/SVG/1.1/DTD/svg11.dtd">
<svg version="1.1" xmlns="http://www.w3.org/2000/svg" xmlns:xlink="http://www.w3.org/1999/xlink" x="0px" y="0px" width="200px"
	 height="30.949px" viewBox="0 0 200 30.949" style="enable-background:new 0 0 200 30.949;" xml:space="preserve">
<style type="text/css">
	.st0{display:none;}
	.st1{display:inline;}
	.st2{fill:#ED2D27;}
	.st3{display:inline;fill:#F8B900;}
	.st4{display:inline;fill:#00235F;}
	.st5{fill:url(#SVGID_1_);}
	.st6{fill:#006CB6;}
	.st7{fill:url(#SVGID_2_);}
	.st8{fill:url(#SVGID_3_);}
	.st9{fill:url(#SVGID_4_);}
	.st10{fill:url(#SVGID_5_);}
	.st11{fill:url(#SVGID_6_);}
	.st12{fill-rule:evenodd;clip-rule:evenodd;fill:#FFFFFF;}
	.st13{fill-rule:evenodd;clip-rule:evenodd;fill:#E2231A;}
	.st14{fill:#FFFFFF;}
	.st15{fill-rule:evenodd;clip-rule:evenodd;fill:#001689;}
	.st16{fill:#00529B;}
	.st17{fill:#F47920;}
	.st18{fill:url(#SVGID_7_);}
	.st19{fill:url(#SVGID_8_);}
	.st20{fill:url(#SVGID_9_);}
	.st21{fill:url(#SVGID_10_);}
	.st22{fill:url(#SVGID_11_);}
	.st23{fill:url(#SVGID_12_);}
	.st24{fill:url(#SVGID_13_);}
	.st25{fill:#00054C;}
	.st26{fill:url(#path3364_3_);}
	.st27{fill:url(#path3366_3_);}
	.st28{fill:#22356B;}
	.st29{fill:#FCC210;}
	.st30{fill:#ED1C24;}
	.st31{display:inline;fill:url(#SVGID_14_);}
	.st32{fill:#002157;}
	.st33{fill:#CC2234;}
	.st34{fill:#E23546;}
	.st35{fill:#FCB130;}
	.st36{fill:#1D4886;}
	.st37{display:inline;fill:none;}
	.st38{display:inline;fill:#005DAA;}
	.st39{fill:#005DAA;}
	.st40{fill:#00A1E4;}
	.st41{fill:#00704A;}
	.st42{fill:#B10D28;}
	.st43{fill:#D31245;}
	.st44{fill:url(#path70_3_);}
	.st45{fill:url(#SVGID_15_);}
	.st46{fill:url(#SVGID_16_);}
	.st47{fill:#231916;}
	.st48{fill:#E60013;}
	.st49{fill:#C0231E;}
	.st50{fill:#014E84;}
	.st51{fill:#BA783E;}
	.st52{fill:#002052;}
	.st53{fill:#0093D0;}
	.st54{fill:#ED1B2F;}
	.st55{fill:#E3242B;}
	.st56{fill-rule:evenodd;clip-rule:evenodd;fill:#034EA2;}
	.st57{fill-rule:evenodd;clip-rule:evenodd;fill:#E11837;}
	.st58{fill:#034EA2;}
	.st59{opacity:0.8902;fill:#EB151C;}
	.st60{fill:#1A1A1A;}
	.st61{enable-background:new    ;}
	.st62{fill:#FF6600;}
	.st63{clip-path:url(#SVGID_18_);fill:url(#SVGID_19_);}
	.st64{fill:url(#SVGID_20_);}
	.st65{fill:#B2DB1F;}
	.st66{fill:#FA002C;}
	.st67{fill:#1C2D5B;}
	.st68{fill:#1C4E9D;}
	.st69{fill:#ED192D;}
	.st70{display:inline;fill:#FFFFFF;}
	.st71{display:inline;fill:#00529B;}
	.st72{display:inline;fill:#F47920;}
	.st73{display:inline;fill:url(#SVGID_21_);}
	.st74{display:inline;fill:url(#SVGID_22_);}
	.st75{display:inline;fill:url(#SVGID_23_);}
	.st76{display:inline;fill:url(#SVGID_24_);}
	.st77{display:inline;fill:url(#SVGID_25_);}
	.st78{display:inline;fill:url(#SVGID_26_);}
	.st79{display:inline;fill:url(#SVGID_27_);}
	.st80{display:inline;fill:url(#path3364_4_);}
	.st81{display:inline;fill:url(#path3366_4_);}
	.st82{display:inline;fill:url(#SVGID_28_);}
	.st83{display:inline;fill:url(#SVGID_29_);}
	.st84{display:inline;fill:url(#SVGID_30_);}
	.st85{display:inline;opacity:0.75;fill:#FFFFFF;}
	.st86{display:inline;fill:#ED1B2F;}
	.st87{opacity:0.8902;fill:#FFFFFF;}
	.st88{clip-path:url(#SVGID_32_);fill:#FFFFFF;}
	.st89{fill:url(#SVGID_33_);}
	.st90{fill:url(#SVGID_34_);}
	.st91{fill:url(#SVGID_35_);}
	.st92{fill:url(#SVGID_36_);}
	.st93{fill:url(#SVGID_37_);}
	.st94{fill:url(#SVGID_38_);}
	.st95{fill:url(#SVGID_39_);}
	.st96{fill:url(#SVGID_40_);}
	.st97{clip-path:url(#SVGID_42_);fill:url(#SVGID_43_);}
	.st98{fill:url(#SVGID_44_);}
	.st99{fill:url(#path70_5_);}
	.st100{fill:url(#SVGID_45_);}
	.st101{fill:url(#SVGID_46_);}
	.st102{fill:#F8B900;}
	.st103{fill:#00235F;}
	.st104{fill:url(#SVGID_47_);}
	.st105{fill:url(#SVGID_48_);}
	.st106{fill:url(#SVGID_49_);}
	.st107{fill:url(#SVGID_50_);}
	.st108{fill:url(#SVGID_51_);}
	.st109{fill:url(#SVGID_52_);}
	.st110{opacity:0.8902;fill:#EB151C;enable-background:new    ;}
	.st111{fill:#E11837;}
	.st112{fill:#E2231A;}
	.st113{fill:#001689;}
	.st114{fill:#EF3E34;}
	.st115{fill:#4D82C4;}
	.st116{fill:#8C7035;}
	.st117{fill:#5FBA45;}
	.st118{fill:#008F7E;}
	.st119{fill:#004595;}
	.st120{fill:#FFED00;}
	.st121{fill:#E53138;}
	.st122{fill:url(#SVGID_53_);}
	.st123{fill:url(#SVGID_54_);}
	.st124{fill:url(#SVGID_55_);}
	.st125{fill:url(#SVGID_56_);}
	.st126{fill:#11185E;}
	.st127{fill:#EE3024;}
	.st128{fill:#0675CC;}
	.st129{fill:#E2001A;}
	.st130{fill:#009036;}
	.st131{fill:#0B1560;}
	.st132{fill:#0070AF;}
	.st133{fill:#0F2C64;}
	.st134{fill:#EF001E;}
	.st135{fill:#1C2A8D;}
	.st136{fill:#334357;}
	.st137{fill:url(#SVGID_57_);}
	.st138{fill:#ED1B28;}
	.st139{fill:#1E5AAF;}
	.st140{fill:#991933;}
	.st141{fill:#E01933;}
	.st142{fill:#003366;}
	.st143{fill:#00265D;}
	.st144{fill:#003263;}
	.st145{fill:#EE452A;}
	.st146{fill:#011F65;}
	.st147{fill:#EC2227;}
	.st148{fill:#010101;}
	.st149{fill:#FCEE21;}
	.st150{fill:#18488B;}
	.st151{fill:#EC2427;}
	.st152{fill:#D09B2B;}
	.st153{fill:#156192;}
	.st154{fill:#021A31;}
	.st155{fill:#008E8F;}
	.st156{fill:#2B438F;}
	.st157{fill:#363F9E;}
	.st158{fill:#00ABBF;}
</style>
<g id="Layer_1" class="st0">
</g>
<g id="Layer_2" class="st0">
</g>
<g id="Layer_3">
	<linearGradient id="SVGID_1_" gradientUnits="userSpaceOnUse" x1="190.8716" y1="18.0938" x2="190.8716" y2="30.9167">
		<stop  offset="0" style="stop-color:#EB2023"/>
		<stop  offset="0.0963" style="stop-color:#E92026"/>
		<stop  offset="0.2039" style="stop-color:#E31E27"/>
		<stop  offset="0.2986" style="stop-color:#E01E26"/>
		<stop  offset="0.4043" style="stop-color:#D81F27"/>
		<stop  offset="0.5" style="stop-color:#CF2027"/>
		<stop  offset="0.6" style="stop-color:#C62127"/>
		<stop  offset="0.7" style="stop-color:#B92025"/>
		<stop  offset="0.8" style="stop-color:#AE1F23"/>
		<stop  offset="0.9" style="stop-color:#A01D22"/>
		<stop  offset="1" style="stop-color:#901C1C"/>
	</linearGradient>
	<path class="st5" d="M189.298,17.981l-1.518-0.865l-4.007,1.307l-2.03,2.938l0.385,1.111l3.553,5.904
		c1.101,1.77,2.916,2.573,5.177,2.573H200L189.298,17.981z"/>
	<linearGradient id="SVGID_2_" gradientUnits="userSpaceOnUse" x1="181.0794" y1="20.8683" x2="188.2066" y2="16.3102">
		<stop  offset="0" style="stop-color:#6C221F"/>
		<stop  offset="0.2491" style="stop-color:#7F2620"/>
		<stop  offset="0.4983" style="stop-color:#982B24"/>
		<stop  offset="0.7491" style="stop-color:#B53125"/>
		<stop  offset="1" style="stop-color:#CB3327"/>
	</linearGradient>
	<path class="st7" d="M187.064,15.272l-5.905,3.176l0.626,3.206l0.343,0.818c-0.134-2.173,3.596-4.695,7.17-4.492L187.064,15.272z"
		/>
	<linearGradient id="SVGID_3_" gradientUnits="userSpaceOnUse" x1="179.3046" y1="14.0356" x2="189.7446" y2="20.0759">
		<stop  offset="0" style="stop-color:#E7EBEE"/>
		<stop  offset="0.2491" style="stop-color:#DFE4E8"/>
		<stop  offset="0.4983" style="stop-color:#CAD1D7"/>
		<stop  offset="0.7491" style="stop-color:#A8B5BD"/>
		<stop  offset="1" style="stop-color:#93A6AD"/>
	</linearGradient>
	<path class="st8" d="M186.351,12.951c-2.66,0-5.24,0.267-6.521,0.88c-1.1,0.583-1.386,0.952-1.386,1.624
		c0,0.611,0.105,1.135,0.49,1.734l3.195,5.282c0,0-0.216-0.621-0.216-1.323c0-3.346,3.639-5.556,8.192-5.556
		c1.435,0,2.045,0.242,2.045,0.242C191.709,14.338,190.673,12.951,186.351,12.951z"/>
	<linearGradient id="SVGID_4_" gradientUnits="userSpaceOnUse" x1="176.5818" y1="12.3984" x2="176.5818" y2="1.746230e-010">
		<stop  offset="0" style="stop-color:#184485"/>
		<stop  offset="0.1" style="stop-color:#135393"/>
		<stop  offset="0.2" style="stop-color:#0F63A3"/>
		<stop  offset="0.3" style="stop-color:#0E70AD"/>
		<stop  offset="0.4" style="stop-color:#127CB8"/>
		<stop  offset="0.5" style="stop-color:#0F87C3"/>
		<stop  offset="0.5957" style="stop-color:#0A92CC"/>
		<stop  offset="0.7014" style="stop-color:#089DD5"/>
		<stop  offset="0.7961" style="stop-color:#07A3DC"/>
		<stop  offset="0.9037" style="stop-color:#00A9E0"/>
		<stop  offset="1" style="stop-color:#05AEE9"/>
	</linearGradient>
	<path class="st9" d="M175.993,1.469C175.26,0.741,174.516,0,172.704,0h-4.297l6.472,10.588c0.921,1.404,1.674,1.81,4.055,1.81
		h5.823C179.377,5.676,176.832,2.231,175.993,1.469z"/>
	<g>
		<path class="st136" d="M102.8,9.651h-3.045L94.02,24.766h2.733l1.2-3.396h6.402l1.198,3.396h2.894L102.8,9.651z M98.682,19.32
			l2.446-6.913h0.048l2.451,6.913H98.682z"/>
	</g>
	<rect x="128.75" y="9.046" class="st136" width="2.673" height="2.527"/>
	<rect x="128.78" y="13.253" class="st136" width="2.613" height="11.513"/>
	<rect x="109.488" y="9.044" class="st136" width="2.675" height="2.528"/>
	<rect x="109.519" y="13.253" class="st136" width="2.613" height="11.513"/>
	<rect x="123.315" y="9.059" class="st136" width="2.613" height="15.707"/>
	<path class="st136" d="M117.599,19.152v5.615h-2.621v-8.555c0-0.822-0.094-2.387-0.126-2.956h2.11c0.228,0,0.293,0.096,0.3,0.321
		c0.005,0.34,0.023,1.427,0.023,1.427h0.06c0.206-0.498,0.949-1.989,3.12-1.989c0.727,0,1.265,0.235,1.353,0.27
		c0,0.496-0.052,1.583-0.078,1.871c-0.016,0.189-0.098,0.251-0.192,0.251c-0.089,0-0.131-0.021-0.18-0.04
		c-0.163-0.069-0.543-0.184-1.07-0.184C118.904,15.181,117.599,16.188,117.599,19.152"/>
	<path class="st136" d="M141.395,24.766v-7.435c0-1.42-0.648-2.285-1.864-2.285c-1.607,0-2.675,1.71-2.675,4.019v5.702h-2.614
		v-8.457c0-0.931-0.085-2.288-0.128-3.053h2.1c0.237,0,0.305,0.097,0.307,0.31c0.007,0.246,0.027,1.437,0.027,1.437h0.06
		c0.315-0.542,1.12-1.99,3.529-1.99c2.483,0,3.871,1.698,3.871,3.604v8.149H141.395z"/>
	<g>
		<path class="st136" d="M156.067,17.987c0-2.755-1.578-4.974-4.896-4.974c-3.38,0-5.26,2.49-5.26,5.995
			c0,4.082,2.205,5.978,5.87,5.978c1.887,0,3.292-0.516,3.571-0.606c0.007-0.283-0.036-1.393-0.08-1.885
			c-0.011-0.13-0.054-0.258-0.199-0.258c-0.093,0-0.14,0.033-0.22,0.072c-0.403,0.195-1.417,0.652-2.693,0.652
			c-2.315,0-3.568-1.411-3.568-3.376h7.381C156.032,18.859,156.067,18.312,156.067,17.987z M148.627,17.827
			c0.07-1.783,0.953-2.896,2.491-2.896c1.47,0,2.444,1.04,2.345,2.896H148.627z"/>
	</g>
	<path class="st136" d="M161.194,24.986c3.402,0,5.03-1.391,5.03-3.459c0-2.036-1.446-2.892-2.978-3.398
		c-0.44-0.142-0.87-0.286-1.272-0.421c-1.049-0.347-1.593-0.803-1.593-1.483c0-0.718,0.655-1.22,2.015-1.22
		c1.209,0,2.197,0.493,2.589,0.682c0.065,0.03,0.124,0.072,0.228,0.072c0.082,0,0.184-0.052,0.198-0.255
		c0.026-0.386,0.072-1.085,0.072-1.757c-0.317-0.145-1.461-0.733-3.301-0.733c-2.811,0-4.538,1.462-4.538,3.391
		c0,1.871,1.279,2.725,2.686,3.191c0.324,0.11,0.925,0.307,1.277,0.426c1.469,0.488,1.888,0.931,1.888,1.618
		c0,0.896-0.955,1.34-2.598,1.34c-1.348,0-2.274-0.495-2.646-0.669c-0.076-0.033-0.12-0.072-0.224-0.072
		c-0.193,0-0.197,0.258-0.199,0.3c-0.008,0.124-0.07,1.317-0.07,1.714C158.065,24.385,159.4,24.986,161.194,24.986"/>
	<g>
		<path class="st136" d="M8.778,9.65H5.735L0,24.766h2.732l1.199-3.396h6.402l1.199,3.396h2.893L8.778,9.65z M4.661,19.32
			l2.447-6.913h0.048l2.447,6.913H4.661z"/>
	</g>
	<rect x="54.236" y="9.045" class="st136" width="2.672" height="2.527"/>
	<rect x="54.266" y="13.253" class="st136" width="2.61" height="11.513"/>
	<path class="st136" d="M48.656,19.152v5.615H46.04v-8.555c0-0.823-0.094-2.388-0.128-2.958h2.111c0.228,0,0.295,0.098,0.297,0.322
		c0.007,0.339,0.027,1.428,0.027,1.428h0.058c0.207-0.498,0.948-1.989,3.12-1.989c0.725,0,1.267,0.234,1.357,0.269
		c0,0.496-0.054,1.583-0.079,1.872c-0.017,0.188-0.101,0.248-0.193,0.248c-0.088,0-0.133-0.018-0.181-0.038
		c-0.165-0.07-0.544-0.185-1.067-0.185C49.966,15.18,48.656,16.188,48.656,19.152"/>
	<path class="st136" d="M29.357,24.766V17.4c0-1.327-0.561-2.356-1.915-2.356c-1.525,0-2.404,1.669-2.404,4.007v5.715h-2.612v-7.389
		c0-1.207-0.504-2.333-1.905-2.333c-1.547,0-2.412,1.666-2.412,4.09v5.633h-2.617v-8.385c0-1.083-0.096-2.615-0.127-3.128h2.092
		c0.236,0,0.314,0.078,0.318,0.322c0.006,0.306,0.024,1.428,0.024,1.428h0.06c0.159-0.329,1.019-1.99,3.419-1.99
		c2.236,0,3.091,1.604,3.303,2.099c0.206-0.435,1.199-2.099,3.451-2.099c2.342,0,3.941,1.257,3.941,3.783v7.971H29.357
		L29.357,24.766z"/>
	<g>
		<path class="st136" d="M44.031,17.987c0-2.756-1.581-4.974-4.896-4.974c-3.383,0-5.262,2.492-5.262,5.992
			c0,4.082,2.205,5.98,5.871,5.98c1.887,0,3.292-0.516,3.57-0.606c0.007-0.282-0.035-1.393-0.08-1.885
			c-0.011-0.13-0.055-0.258-0.198-0.258c-0.095,0-0.141,0.031-0.221,0.07c-0.402,0.197-1.419,0.654-2.695,0.654
			c-2.312,0-3.565-1.411-3.565-3.379h7.381C43.994,18.859,44.031,18.312,44.031,17.987z M36.586,17.825
			c0.073-1.78,0.954-2.894,2.492-2.894c1.473,0,2.444,1.042,2.345,2.894H36.586z"/>
	</g>
	<g>
		<path class="st136" d="M78.431,21.626v-4.489c0-2.536-1.469-4.124-4.89-4.124c-1.721,0-3.285,0.58-3.756,0.76
			c0.007,0.528,0.052,1.36,0.072,1.793c0.007,0.136,0.077,0.213,0.2,0.213c0.078,0,0.163-0.049,0.193-0.064
			c0.466-0.237,1.664-0.743,3.106-0.743c1.603,0,2.46,0.646,2.46,1.851v0.423h-0.515c-3.871,0-6.48,1.35-6.48,4.037
			c0,1.938,1.314,3.704,3.605,3.704c2.392,0,3.344-1.486,3.499-1.698h0.036c0,0,0.052,0.727,0.077,1.103
			c0.023,0.306,0.198,0.375,0.409,0.375h2.19C78.583,24.335,78.431,23.263,78.431,21.626z M75.817,19.841
			c0,1.657-0.891,3.231-2.521,3.231c-1.227,0-1.852-0.898-1.852-1.846c0-1.16,0.646-2.301,3.929-2.301h0.444V19.841z"/>
	</g>
	<path class="st136" d="M67.415,22.239c0.069,0,0.166,0.046,0.189,0.247c0.05,0.548,0.071,1.446,0.073,1.728
		c-0.522,0.258-1.653,0.773-3.041,0.773c-3.487,0-5.626-2.024-5.626-5.984c0-3.711,1.902-5.988,5.626-5.988
		c1.235,0,2.372,0.43,3.041,0.774c0,0.41-0.04,1.338-0.073,1.729c-0.016,0.164-0.095,0.243-0.189,0.243
		c-0.104,0-0.14-0.027-0.201-0.055c-0.842-0.412-1.633-0.611-2.345-0.611c-2.22,0-3.134,1.453-3.134,3.909
		c0,2.189,0.73,3.905,3.134,3.905c0.918,0,1.755-0.327,2.274-0.577C67.282,22.265,67.306,22.239,67.415,22.239"/>
	<path class="st136" d="M87.846,24.766v-7.435c0-1.421-0.648-2.286-1.862-2.286c-1.609,0-2.678,1.709-2.678,4.02v5.702h-2.612
		v-8.457c0-0.931-0.085-2.288-0.126-3.056h2.096c0.239,0,0.308,0.1,0.309,0.313c0.006,0.244,0.025,1.437,0.025,1.437h0.057
		c0.318-0.543,1.122-1.991,3.531-1.991c2.487,0,3.874,1.699,3.874,3.603v8.152H87.846z"/>
</g>
<g id="Layer_4">
</g>
</svg>
