<?xml version="1.0" encoding="utf-8"?>
<!-- Generator: Adobe Illustrator 18.0.0, SVG Export Plug-In . SVG Version: 6.00 Build 0)  -->
<!DOCTYPE svg PUBLIC "-//W3C//DTD SVG 1.1//EN" "http://www.w3.org/Graphics/SVG/1.1/DTD/svg11.dtd">
<svg version="1.1" xmlns="http://www.w3.org/2000/svg" xmlns:xlink="http://www.w3.org/1999/xlink" x="0px" y="0px"
	 width="176.651px" height="50px" viewBox="0 0 176.651 50" style="enable-background:new 0 0 176.651 50;" xml:space="preserve">
<style type="text/css">
	.st0{display:none;}
	.st1{display:inline;}
	.st2{fill:#ED2D27;}
	.st3{display:inline;fill:#F8B900;}
	.st4{display:inline;fill:#00235F;}
	.st5{fill:url(#SVGID_1_);}
	.st6{fill:#006CB6;}
	.st7{fill:url(#SVGID_2_);}
	.st8{fill:url(#SVGID_3_);}
	.st9{fill:url(#SVGID_4_);}
	.st10{fill:url(#SVGID_5_);}
	.st11{fill:url(#SVGID_6_);}
	.st12{fill-rule:evenodd;clip-rule:evenodd;fill:#FFFFFF;}
	.st13{fill-rule:evenodd;clip-rule:evenodd;fill:#E2231A;}
	.st14{fill:#FFFFFF;}
	.st15{fill-rule:evenodd;clip-rule:evenodd;fill:#001689;}
	.st16{fill:#00529B;}
	.st17{fill:#F47920;}
	.st18{fill:url(#SVGID_7_);}
	.st19{fill:url(#SVGID_8_);}
	.st20{fill:url(#SVGID_9_);}
	.st21{fill:url(#SVGID_10_);}
	.st22{fill:url(#SVGID_11_);}
	.st23{fill:url(#SVGID_12_);}
	.st24{fill:url(#SVGID_13_);}
	.st25{fill:#00054C;}
	.st26{fill:url(#path3364_3_);}
	.st27{fill:url(#path3366_3_);}
	.st28{fill:#22356B;}
	.st29{fill:#FCC210;}
	.st30{fill:#ED1C24;}
	.st31{display:inline;fill:url(#SVGID_14_);}
	.st32{fill:#002157;}
	.st33{fill:#CC2234;}
	.st34{fill:#E23546;}
	.st35{fill:#FCB130;}
	.st36{fill:#1D4886;}
	.st37{display:inline;fill:none;}
	.st38{display:inline;fill:#005DAA;}
	.st39{fill:#005DAA;}
	.st40{fill:#00A1E4;}
	.st41{fill:#00704A;}
	.st42{fill:#B10D28;}
	.st43{fill:#D31245;}
	.st44{fill:url(#path70_3_);}
	.st45{fill:url(#SVGID_15_);}
	.st46{fill:url(#SVGID_16_);}
	.st47{fill:#231916;}
	.st48{fill:#E60013;}
	.st49{fill:#C0231E;}
	.st50{fill:#014E84;}
	.st51{fill:#BA783E;}
	.st52{fill:#002052;}
	.st53{fill:#0093D0;}
	.st54{fill:#ED1B2F;}
	.st55{fill:#E3242B;}
	.st56{fill-rule:evenodd;clip-rule:evenodd;fill:#034EA2;}
	.st57{fill-rule:evenodd;clip-rule:evenodd;fill:#E11837;}
	.st58{fill:#034EA2;}
	.st59{opacity:0.8902;fill:#EB151C;}
	.st60{fill:#1A1A1A;}
	.st61{enable-background:new    ;}
	.st62{fill:#FF6600;}
	.st63{clip-path:url(#SVGID_18_);fill:url(#SVGID_19_);}
	.st64{fill:url(#SVGID_20_);}
	.st65{fill:#B2DB1F;}
	.st66{fill:#FA002C;}
	.st67{fill:#1C2D5B;}
	.st68{fill:#1C4E9D;}
	.st69{fill:#ED192D;}
	.st70{display:inline;fill:#FFFFFF;}
	.st71{display:inline;fill:#00529B;}
	.st72{display:inline;fill:#F47920;}
	.st73{display:inline;fill:url(#SVGID_21_);}
	.st74{display:inline;fill:url(#SVGID_22_);}
	.st75{display:inline;fill:url(#SVGID_23_);}
	.st76{display:inline;fill:url(#SVGID_24_);}
	.st77{display:inline;fill:url(#SVGID_25_);}
	.st78{display:inline;fill:url(#SVGID_26_);}
	.st79{display:inline;fill:url(#SVGID_27_);}
	.st80{display:inline;fill:url(#path3364_4_);}
	.st81{display:inline;fill:url(#path3366_4_);}
	.st82{display:inline;fill:url(#SVGID_28_);}
	.st83{display:inline;fill:url(#SVGID_29_);}
	.st84{display:inline;fill:url(#SVGID_30_);}
	.st85{display:inline;opacity:0.75;fill:#FFFFFF;}
	.st86{display:inline;fill:#ED1B2F;}
	.st87{opacity:0.8902;fill:#FFFFFF;}
	.st88{clip-path:url(#SVGID_32_);fill:#FFFFFF;}
	.st89{fill:url(#SVGID_33_);}
	.st90{fill:url(#SVGID_34_);}
	.st91{fill:url(#SVGID_35_);}
	.st92{fill:url(#SVGID_36_);}
	.st93{fill:url(#SVGID_37_);}
	.st94{fill:url(#SVGID_38_);}
	.st95{fill:url(#SVGID_39_);}
	.st96{fill:url(#SVGID_40_);}
	.st97{clip-path:url(#SVGID_42_);fill:url(#SVGID_43_);}
	.st98{fill:url(#SVGID_44_);}
	.st99{fill:url(#path70_5_);}
	.st100{fill:url(#SVGID_45_);}
	.st101{fill:url(#SVGID_46_);}
	.st102{fill:#F8B900;}
	.st103{fill:#00235F;}
	.st104{fill:url(#SVGID_47_);}
	.st105{fill:url(#SVGID_48_);}
	.st106{fill:url(#SVGID_49_);}
	.st107{fill:url(#SVGID_50_);}
	.st108{fill:url(#SVGID_51_);}
	.st109{fill:url(#SVGID_52_);}
	.st110{opacity:0.8902;fill:#EB151C;enable-background:new    ;}
	.st111{fill:#E11837;}
	.st112{fill:#E2231A;}
	.st113{fill:#001689;}
	.st114{fill:#EF3E34;}
	.st115{fill:#4D82C4;}
	.st116{fill:#8C7035;}
	.st117{fill:#5FBA45;}
	.st118{fill:#008F7E;}
	.st119{fill:#004595;}
	.st120{fill:#FFED00;}
	.st121{fill:#E53138;}
	.st122{fill:url(#SVGID_53_);}
	.st123{fill:url(#SVGID_54_);}
	.st124{fill:url(#SVGID_55_);}
	.st125{fill:url(#SVGID_56_);}
	.st126{fill:#11185E;}
	.st127{fill:#EE3024;}
	.st128{fill:#0675CC;}
	.st129{fill:#E2001A;}
	.st130{fill:#009036;}
	.st131{fill:#0B1560;}
	.st132{fill:#0070AF;}
	.st133{fill:#0F2C64;}
	.st134{fill:#EF001E;}
	.st135{fill:#1C2A8D;}
	.st136{fill:#334357;}
	.st137{fill:url(#SVGID_57_);}
	.st138{fill:#ED1B28;}
	.st139{fill:#1E5AAF;}
	.st140{fill:#991933;}
	.st141{fill:#E01933;}
	.st142{fill:#003366;}
	.st143{fill:#00265D;}
	.st144{fill:#003263;}
	.st145{fill:#EE452A;}
	.st146{fill:#011F65;}
	.st147{fill:#EC2227;}
	.st148{fill:#010101;}
	.st149{fill:#FCEE21;}
	.st150{fill:#18488B;}
	.st151{fill:#EC2427;}
	.st152{fill:#D09B2B;}
	.st153{fill:#156192;}
	.st154{fill:#021A31;}
	.st155{fill:#008E8F;}
	.st156{fill:#2B438F;}
	.st157{fill:#363F9E;}
	.st158{fill:#00ABBF;}
</style>
<g id="Layer_1" class="st0">
</g>
<g id="Layer_2" class="st0">
</g>
<g id="Layer_3">
	<g>
		<g>
			<path class="st16" d="M166.017,4.437L166.017,4.437L166.017,4.437z"/>
			<path class="st16" d="M156.032,10.388c-0.231,0.297-2.077,2.698-2.077,2.698l-0.887,1.163
				c-6.407,0.738-13.19,4.085-20.575,10.116C137.173,19.349,144.091,12.538,156.032,10.388"/>
			<path class="st16" d="M167.059,4.302c2.532-0.307,5.267-0.787,8.073-2.788c-0.99,1.318-2.241,3.012-2.241,3.012
				c-2.486,3.412-4.28,3.699-5.96,3.923l-3.614,0.252l-3.1,0.197c-1.318,0.155-2.261,0.442-3.105,0.852
				c1.173-1.473,2.714-3.236,4.071-4.106c1.428-0.911,3.091-1.049,4.192-1.149l0.638-0.059L167.059,4.302z"/>
			<path class="st16" d="M166.993,3.781l-1.049,0.138l-0.614,0.059c-1.149,0.097-2.895,0.248-4.423,1.228
				c-1.532,0.973-3.254,2.998-4.468,4.558c-13.201,2.198-20.429,10.023-25.221,15.198l-2.984,3.495l0.486-0.145
				c9-8.291,17.018-12.742,24.521-13.566l0.11-0.017l1.011-1.325l2.094-2.722c0.869-0.783,2.056-1.059,3.816-1.259l3.067-0.2
				l3.659-0.255c1.685-0.231,3.693-0.542,6.309-4.13l3.343-4.496l-0.001-0.001l-0.391-0.34L176.257,0
				C173.228,2.991,170.055,3.412,166.993,3.781"/>
			<polygon class="st16" points="10.599,33.408 10.433,32.956 2.629,33.408 4.209,34.171 			"/>
			<polygon class="st16" points="11.665,34.788 11.465,34.616 11.136,34.271 7.238,35.006 8.891,35.568 			"/>
			<path class="st16" d="M14.757,34.471c0.19-0.038,0.467-0.138,0.687-0.3l-1.132-2.243l1.178-0.552l-0.992-0.866l-0.404,0.183
				l-1.715,0.78l0.504,1.118l0.811-0.362L14.757,34.471L14.757,34.471z"/>
			<path class="st16" d="M16.685,29.792c0.435,0.511,0.752,1.145,0.921,1.863h-0.714c-0.055-0.2-0.121-0.418-0.207-0.618
				c-0.474-1.256-1.461-2.16-2.591-2.905l-0.435-0.273l0.435,0.155C15.126,28.433,16.043,28.992,16.685,29.792"/>
			<path class="st16" d="M16.685,36.582l0.221,0.4l-0.221,0.1l-0.576,0.269l-0.666-1.318c-0.416,0.148-0.876,0.228-1.349,0.245
				c-0.5,0.024-1.014-0.048-1.465-0.2l-0.564,1.273c-0.186,0.014-0.431,0-0.6-0.117l-0.2-0.252l0.2-0.338l0.486-0.856l-0.421-0.304
				l0.4-0.479c0.686,0.407,1.428,0.645,2.163,0.645c0.735,0.017,1.461-0.217,2.143-0.7l0.449,0.131l0.186,0.072l-0.186,0.145
				c-0.131,0.134-0.245,0.269-0.462,0.39L16.685,36.582L16.685,36.582z"/>
			<path class="st16" d="M26.011,33.184l2.056-1.311H16.909c0,0.466-0.067,0.869-0.221,1.214c-0.431,1.114-1.508,1.642-2.591,1.632
				c-1.063-0.028-2.143-0.576-2.629-1.597c-0.166-0.369-0.266-0.763-0.266-1.249H0.003l2.046,1.311l8.553-0.442
				c0.164,0.618,0.469,1.145,0.866,1.539c0.683,0.725,1.663,1.114,2.629,1.114c0.952,0.017,1.915-0.324,2.591-1.09
				c0.369-0.4,0.652-0.914,0.818-1.535L26.011,33.184L26.011,33.184z"/>
			<polygon class="st16" points="25.435,33.408 23.858,34.143 17.551,33.408 17.703,32.956 			"/>
			<polygon class="st16" points="20.87,35.016 19.138,35.603 16.689,34.854 16.476,34.788 16.689,34.571 16.973,34.281 			"/>
			<path class="st16" d="M21.695,34.919l1.383-0.638l-5.674-0.676c-0.05,0.183-0.2,0.331-0.304,0.483L21.695,34.919z"/>
			<path class="st16" d="M6.376,34.919l-1.38-0.597l5.703-0.704c0.104,0.169,0.2,0.317,0.317,0.469L6.376,34.919z"/>
			<path id="path279_4_" class="st17" d="M59.647,46.212c2.581,0.407,7.525,1.049,13.556,1.176c6.024,0.152,13.118-0.2,19.811-1.201
				c6.697-0.976,12.985-2.612,17.43-4.378c4.502-1.673,7.018-3.74,7.009-3.747c0.022,0.007-2.6,2.395-7.364,4.437
				c-4.703,2.129-11.36,4.171-18.359,5.493c-6.992,1.352-14.32,1.97-20.297,2.001c-5.96,0.073-10.604-0.466-12.231-0.721
				c-5.61-0.838-9.69-2.312-12.169-3.743c-2.512-1.428-3.35-2.733-3.09-2.981c0.278-0.3,1.527,0.304,4.066,1.094
				C50.535,44.435,54.399,45.429,59.647,46.212"/>
			
				<linearGradient id="SVGID_1_" gradientUnits="userSpaceOnUse" x1="-206.1574" y1="-28.426" x2="-191.2995" y2="-38.6965" gradientTransform="matrix(1 0 0 -1 338.5 -9.8936)">
				<stop  offset="0" style="stop-color:#C4161C"/>
				<stop  offset="0.3" style="stop-color:#ED1C24"/>
				<stop  offset="0.5" style="stop-color:#F8ABAD"/>
				<stop  offset="0.7191" style="stop-color:#ED1C24"/>
				<stop  offset="1" style="stop-color:#C4161C"/>
			</linearGradient>
			<path class="st5" d="M128.555,28.133l-1.956,2.025c9.838-7.159,15.491-7.766,23.589-7.697c0.752,0.045,1.47,0.086,1.925-0.883
				l2.446-3.285C143.225,18.386,138.103,21.163,128.555,28.133z"/>
			
				<linearGradient id="SVGID_2_" gradientUnits="userSpaceOnUse" x1="-203.0852" y1="-23.9815" x2="-188.2272" y2="-34.252" gradientTransform="matrix(1 0 0 -1 338.5 -9.8936)">
				<stop  offset="0" style="stop-color:#FFFFFF"/>
				<stop  offset="0.3427" style="stop-color:#FFFFFF"/>
				<stop  offset="0.55" style="stop-color:#FFFFFF"/>
				<stop  offset="0.9101" style="stop-color:#C7D2EC"/>
				<stop  offset="1" style="stop-color:#C7D2EC"/>
			</linearGradient>
			<path class="st7" d="M128.551,28.123c9.605-8.86,17.618-12.856,24.662-13.635c0.623-0.825,2.777-3.578,3.433-4.502
				C140.572,12.597,133.475,23.475,128.551,28.123z"/>
			
				<linearGradient id="SVGID_3_" gradientUnits="userSpaceOnUse" x1="-204.9131" y1="-26.6259" x2="-190.0552" y2="-36.8964" gradientTransform="matrix(1 0 0 -1 338.5 -9.8936)">
				<stop  offset="0" style="stop-color:#00529B"/>
				<stop  offset="0.1067" style="stop-color:#00529B"/>
				<stop  offset="0.5" style="stop-color:#7D97CD"/>
				<stop  offset="0.5271" style="stop-color:#7492C9"/>
				<stop  offset="0.7323" style="stop-color:#3670B1"/>
				<stop  offset="0.8825" style="stop-color:#0F5AA1"/>
				<stop  offset="0.9607" style="stop-color:#00529B"/>
				<stop  offset="1" style="stop-color:#00529B"/>
			</linearGradient>
			<path class="st8" d="M129.033,27.612c-0.181,0.179-0.833,0.897-1.023,1.07c5.627-4.164,10.351-8.481,22.088-10.081
				c0.585-0.662,2.296-2.912,3.105-4.113C142.492,15.95,135.486,21.922,129.033,27.612z"/>
			
				<linearGradient id="SVGID_4_" gradientUnits="userSpaceOnUse" x1="-188.0287" y1="-27.5758" x2="-184.8791" y2="-30.1092" gradientTransform="matrix(1 0 0 -1 338.5 -9.8936)">
				<stop  offset="0" style="stop-color:#C4161C"/>
				<stop  offset="0.5" style="stop-color:#ED1C24"/>
				<stop  offset="1" style="stop-color:#F8ABAD"/>
			</linearGradient>
			<path class="st9" d="M154.933,18.151c-0.474-0.162-0.992-0.228-1.506-0.228c-1.867,0-3.761,0.887-3.94,1.39
				c-0.311,0.839,0.174,0.487,1.58,1.322c1.19,0.704,0.939,0.956,0.831,1.314C152.982,20.404,154.933,18.151,154.933,18.151z"/>
			
				<linearGradient id="SVGID_5_" gradientUnits="userSpaceOnUse" x1="-187.9058" y1="-12.0648" x2="-170.5829" y2="-22.6777" gradientTransform="matrix(1 0 0 -1 338.5 -9.8936)">
				<stop  offset="0" style="stop-color:#C7D6EE"/>
				<stop  offset="0.073" style="stop-color:#C7D6EE"/>
				<stop  offset="0.1184" style="stop-color:#AFC6E4"/>
				<stop  offset="0.2144" style="stop-color:#719DCA"/>
				<stop  offset="0.3524" style="stop-color:#0E5BA1"/>
				<stop  offset="0.3708" style="stop-color:#00529B"/>
				<stop  offset="0.4298" style="stop-color:#08579E"/>
				<stop  offset="0.5221" style="stop-color:#1E66A8"/>
				<stop  offset="0.6362" style="stop-color:#437EB7"/>
				<stop  offset="0.7675" style="stop-color:#75A0CC"/>
				<stop  offset="0.9118" style="stop-color:#B5CAE7"/>
				<stop  offset="0.9494" style="stop-color:#C7D6EE"/>
				<stop  offset="1" style="stop-color:#C7D6EE"/>
			</linearGradient>
			<path class="st10" d="M160.341,8.943c-2.187,0.293-3.578,0.842-4.454,1.956l-3.078,4.102c0.669-0.6,2.698-0.894,4.887-0.949
				h0.309h0.28c0.293-0.01,0.623-0.024,0.966-0.038c3.114-0.121,7.435-0.555,9.94-3.485l3.778-5.224l0.455-0.621
				C170.143,9.012,162.667,8.636,160.341,8.943z"/>
			
				<linearGradient id="SVGID_6_" gradientUnits="userSpaceOnUse" x1="-185.1071" y1="-7.4967" x2="-167.7842" y2="-18.1096" gradientTransform="matrix(1 0 0 -1 338.5 -9.8936)">
				<stop  offset="0" style="stop-color:#FFFFFF"/>
				<stop  offset="0.1742" style="stop-color:#FFFFFF"/>
				<stop  offset="0.2301" style="stop-color:#F9FAFD"/>
				<stop  offset="0.3056" style="stop-color:#E8ECF6"/>
				<stop  offset="0.3539" style="stop-color:#D9E0F1"/>
				<stop  offset="0.4693" style="stop-color:#EDF0F8"/>
				<stop  offset="0.5916" style="stop-color:#FAFBFD"/>
				<stop  offset="0.7" style="stop-color:#FFFFFF"/>
				<stop  offset="1" style="stop-color:#FFFFFF"/>
			</linearGradient>
			<path class="st11" d="M165.981,4.181c-0.961,0.124-3.128,0.093-4.935,1.246c-1.804,1.146-3.964,3.885-5.032,5.32
				c0.994-1.059,2.31-1.359,4.228-1.58c1.939-0.224,4.734-0.186,6.724-0.462c1.894-0.248,3.664-0.631,6.131-4.019l3.347-4.499
				C172.976,3.605,169.191,3.743,165.981,4.181z"/>
			
				<linearGradient id="SVGID_7_" gradientUnits="userSpaceOnUse" x1="-191.1461" y1="-17.3538" x2="-173.8232" y2="-27.9667" gradientTransform="matrix(1 0 0 -1 338.5 -9.8936)">
				<stop  offset="0" style="stop-color:#F8ABAD"/>
				<stop  offset="0.0562" style="stop-color:#F8ABAD"/>
				<stop  offset="0.1011" style="stop-color:#F8A6A8"/>
				<stop  offset="0.1557" style="stop-color:#F6979A"/>
				<stop  offset="0.2151" style="stop-color:#F57E82"/>
				<stop  offset="0.2782" style="stop-color:#F25C62"/>
				<stop  offset="0.3433" style="stop-color:#EF3138"/>
				<stop  offset="0.3708" style="stop-color:#ED1C24"/>
				<stop  offset="0.46" style="stop-color:#D1181E"/>
				<stop  offset="0.5169" style="stop-color:#C4161C"/>
				<stop  offset="0.6065" style="stop-color:#D1181E"/>
				<stop  offset="0.7472" style="stop-color:#ED1C24"/>
				<stop  offset="0.9607" style="stop-color:#F8ABAD"/>
				<stop  offset="1" style="stop-color:#F8ABAD"/>
			</linearGradient>
			<path class="st18" d="M162.165,13.507c-2.363,0.324-5.049,0.421-5.821,0.469c-1.327,0.055-3.083,0.476-3.566,1.059
				c-1.491,1.846-2.905,3.564-3.292,4.278c0.908-0.845,3.885-0.752,7.508-0.918c3.595-0.169,7.252-1.729,10.14-5.013l2.181-3.015
				C167.863,12.231,165.275,13.069,162.165,13.507z"/>
			<polygon id="polygon472_4_" class="st16" points="19.371,22.682 31.411,22.682 31.411,20.863 24.189,20.863 24.189,17.413 
				30.683,17.413 30.683,15.602 24.189,15.602 24.189,12.459 31.031,12.459 31.031,10.661 19.371,10.661 			"/>
			<path id="path482_4_" class="st16" d="M38.463,22.682V12.459h2.821c0.861,0,1.661,0.069,2.386,0.545
				c0.535,0.376,0.863,0.918,0.863,1.58c0,0.552-0.197,1.128-0.928,1.587c-0.949,0.624-2.608,0.707-3.647,0.576l-0.6-0.062
				l4.803,5.996h5.558l-4.547-5.006c0.825-0.093,2.13-0.414,2.924-0.928c0.937-0.638,1.423-1.591,1.423-2.481
				c0-0.99-0.533-2.074-1.732-2.77c-1.442-0.811-3.404-0.835-5.218-0.835h-8.948v12.021H38.463z"/>
			<polygon id="polygon484_4_" class="st16" points="77.33,12.459 84.349,12.459 84.349,10.661 72.515,10.661 72.515,22.682 
				77.33,22.682 77.33,17.613 83.819,17.613 83.819,15.795 77.33,15.795 			"/>
			<polygon id="polygon486_4_" class="st16" points="90.932,20.863 90.932,10.661 86.1,10.661 86.1,22.682 98.031,22.682 
				98.031,20.863 			"/>
			<polygon id="polygon488_4_" class="st16" points="127.934,22.682 127.934,12.459 133.114,12.459 133.114,10.661 117.907,10.661 
				117.907,12.459 123.086,12.459 123.086,22.682 			"/>
			<path class="st16" d="M115.209,12.321c-2.129-1.508-5.313-1.991-7.552-2.015c-2.256,0-5.417,0.507-7.542,2.015
				c-1.667,1.197-2.46,2.898-2.46,4.368c0,1.435,0.794,3.14,2.46,4.33c2.125,1.49,5.286,1.998,7.542,1.998
				c2.239,0,5.424-0.507,7.552-1.998c1.68-1.19,2.453-2.895,2.453-4.33C117.662,15.219,116.89,13.518,115.209,12.321z
				 M111.311,20.004c-1.059,1.301-2.453,1.559-3.654,1.559c-1.194,0-2.61-0.259-3.65-1.559c-0.866-1.063-1.018-2.281-1.018-3.316
				c0-1.087,0.152-2.284,1.018-3.343c1.04-1.332,2.456-1.597,3.65-1.597c1.201,0,2.595,0.266,3.654,1.597
				c0.863,1.059,1.021,2.257,1.021,3.343C112.332,17.724,112.173,18.942,111.311,20.004z"/>
			<path class="st16" d="M68.404,12.321c-2.125-1.508-5.312-1.991-7.566-2.015c-2.244,0-5.399,0.507-7.526,2.015
				c-1.682,1.197-2.479,2.898-2.479,4.368c0,1.435,0.797,3.14,2.479,4.33c2.127,1.49,5.282,1.998,7.526,1.998
				c2.255,0,5.441-0.507,7.566-1.998c1.667-1.19,2.439-2.895,2.439-4.33C70.843,15.219,70.07,13.518,68.404,12.321z M64.512,20.004
				c-1.066,1.301-2.463,1.559-3.675,1.559c-1.192,0-2.591-0.259-3.63-1.559c-0.866-1.063-1.021-2.281-1.021-3.316
				c0-1.087,0.155-2.284,1.021-3.343c1.038-1.332,2.438-1.597,3.63-1.597c1.211,0,2.608,0.266,3.675,1.597
				c0.863,1.059,1.016,2.257,1.016,3.343C65.528,17.724,65.374,18.942,64.512,20.004z"/>
			<path id="path502_4_" class="st16" d="M5.199,17.565l2.281-4.199h0.066l2.463,4.199H5.199z M2.412,22.682l1.901-3.485h6.69
				l2.055,3.485h5.419l-7.34-12.021H6.659L0,22.682H2.412z"/>
			<path id="path512_4_" class="st16" d="M50.666,32.332l-1.07,3.964c-0.138,0.152-0.345,0.283-0.528,0.387
				c-0.29,0.155-0.566,0.241-0.825,0.241c-0.266,0-0.497-0.11-0.604-0.266c-0.079-0.135-0.159-0.345-0.052-0.711l0.964-3.616h-0.992
				l-0.942,3.485c-0.076,0.321-0.21,0.866,0.076,1.287c0.162,0.241,0.505,0.5,1.204,0.5c0.293,0,0.583-0.052,0.935-0.211
				c0.235-0.134,0.493-0.29,0.707-0.449l-0.16,0.549h0.892l1.397-5.162L50.666,32.332z"/>
			<path id="path514_4_" class="st16" d="M57.049,32.925c-0.24-0.307-0.528-0.466-0.58-0.486c-0.331-0.183-0.709-0.214-1.025-0.214
				c-0.338,0-0.759,0.031-1.227,0.311c-0.343,0.241-0.762,0.607-0.918,1.211c-0.14,0.445-0.081,0.787,0.078,0.997
				c0.178,0.235,0.497,0.362,0.762,0.445l0.492,0.159c0.264,0.048,0.526,0.048,0.682,0.259c0.081,0.104,0.166,0.238,0.11,0.497
				c-0.079,0.241-0.235,0.393-0.369,0.497c-0.183,0.162-0.5,0.3-0.942,0.3c-0.293,0-0.528-0.062-0.763-0.193
				c-0.207-0.155-0.366-0.29-0.448-0.411L52.243,36.9c0.476,0.618,1.057,0.704,1.632,0.704c0.39,0,1.18-0.052,1.836-0.556
				c0.366-0.307,0.628-0.704,0.735-1.049c0.052-0.266,0.105-0.652-0.026-0.894c-0.188-0.362-0.607-0.528-0.84-0.573l-0.369-0.114
				c-0.466-0.097-0.68-0.152-0.783-0.276c-0.107-0.083-0.185-0.238-0.107-0.552c0.052-0.135,0.16-0.342,0.366-0.504
				c0.266-0.162,0.504-0.179,0.685-0.179c0.235,0,0.442,0.055,0.63,0.179l0.39,0.369L57.049,32.925z"/>
			<path id="path516_4_" class="st16" d="M62.411,32.925c-0.207-0.307-0.495-0.466-0.573-0.486
				c-0.314-0.183-0.683-0.214-0.997-0.214c-0.362,0-0.763,0.031-1.232,0.311c-0.342,0.241-0.762,0.607-0.945,1.211
				c-0.093,0.445-0.045,0.787,0.103,0.997c0.186,0.235,0.531,0.362,0.763,0.445l0.473,0.159c0.26,0.048,0.526,0.048,0.707,0.259
				c0.083,0.104,0.155,0.238,0.083,0.497c-0.083,0.241-0.238,0.393-0.348,0.497c-0.181,0.162-0.493,0.3-0.939,0.3
				c-0.288,0-0.524-0.062-0.783-0.193c-0.207-0.155-0.337-0.29-0.438-0.411L57.629,36.9c0.5,0.618,1.066,0.704,1.639,0.704
				c0.393,0,1.177-0.052,1.836-0.556c0.369-0.307,0.631-0.704,0.711-1.049c0.076-0.266,0.102-0.652-0.029-0.894
				c-0.157-0.362-0.574-0.528-0.837-0.573l-0.369-0.114c-0.445-0.097-0.652-0.152-0.766-0.276c-0.1-0.083-0.179-0.238-0.1-0.552
				c0.055-0.135,0.131-0.342,0.366-0.504c0.242-0.162,0.5-0.179,0.656-0.179c0.266,0,0.476,0.055,0.661,0.179l0.39,0.369
				L62.411,32.925z"/>
			<path id="path518_4_" class="st16" d="M64.971,30.645c-0.086,0.359,0.133,0.652,0.473,0.652c0.366,0,0.707-0.293,0.811-0.652
				c0.102-0.349-0.103-0.635-0.473-0.635C65.44,30.01,65.074,30.296,64.971,30.645 M64.336,32.332l-0.183,0.68h0.6l-1.201,4.482
				h0.992l1.389-5.162H64.336z"/>
			<path id="path520_4_" class="st16" d="M74.069,37.493l1.099-4.068c0.35-0.29,0.871-0.517,1.34-0.517
				c0.34,0,0.528,0.131,0.607,0.283c0.155,0.235,0.072,0.628,0.024,0.783l-0.945,3.519h0.994l0.949-3.436
				c0.107-0.418,0.155-0.921-0.076-1.339c-0.216-0.338-0.604-0.493-1.159-0.493c-0.338,0-0.914,0.073-1.546,0.493l0.104-0.386
				h-1.601l-0.183,0.676h0.602l-1.206,4.485L74.069,37.493L74.069,37.493z"/>
			<path id="path522_4_" class="st16" d="M43.172,33.374h-0.186h-1.468l0.656-2.446h0.999h0.497c0.162,0,0.652,0,0.918,0.266
				c0.157,0.159,0.288,0.404,0.181,0.821c-0.102,0.39-0.319,0.707-0.623,0.969C43.793,33.25,43.428,33.35,43.172,33.374
				 M41.302,30.062l-2.018,7.432h1.128l0.871-3.274h0.754l1.052,3.274h0.079h1.276l-1.197-3.326
				c0.545-0.059,1.284-0.317,1.727-0.659c0.495-0.366,0.864-0.89,0.992-1.435c0.16-0.528,0.084-1.07-0.228-1.428
				c-0.421-0.531-1.261-0.583-1.866-0.583h-0.704L41.302,30.062L41.302,30.062z"/>
			<path id="path524_4_" class="st16" d="M69.209,36.834l-0.474,0.086c-0.191,0-0.452-0.024-0.606-0.238
				c-0.133-0.186-0.16-0.369-0.081-0.635c0.053-0.203,0.155-0.414,0.412-0.628c0.154-0.104,0.357-0.235,0.749-0.286
				c0.133-0.028,0.288-0.055,0.474-0.055h0.738l-0.293,1.104c-0.159,0.207-0.314,0.338-0.504,0.473L69.209,36.834L69.209,36.834z
				 M69.209,34.474c-1.03,0.107-1.901,0.531-2.189,1.604l-0.052,0.338v0.186c0.028,0.58,0.418,1.001,1.29,1.001
				c0.302,0,0.611-0.052,0.951-0.193l0.107-0.045c0.34-0.159,0.599-0.421,0.685-0.497h0.048l-0.178,0.628h0.892l0.914-3.329
				c0.131-0.528,0.262-1.049-0.028-1.446c-0.236-0.362-0.838-0.493-1.311-0.493c-0.445,0-0.842,0.052-1.13,0.131
				c-0.899,0.231-1.24,0.783-1.273,1.28l0.913,0.052c0.071-0.262,0.179-0.442,0.361-0.573c0.212-0.155,0.53-0.207,0.919-0.207
				c0.21,0,0.473,0.014,0.576,0.207c0.159,0.183,0.107,0.445,0.059,0.683l-0.186,0.652h-0.735
				C69.625,34.454,69.401,34.454,69.209,34.474"/>
			<path id="path526_4_" class="st16" d="M94.058,30.645c-0.078,0.359,0.129,0.652,0.471,0.652c0.345,0,0.707-0.293,0.812-0.652
				c0.109-0.349-0.105-0.635-0.467-0.635C94.525,30.01,94.156,30.296,94.058,30.645 M93.137,32.332l-0.181,0.68h0.604l-1.209,4.482
				h0.995l1.394-5.162H93.137z"/>
			<path id="path528_4_" class="st16" d="M96.937,32.332l-1.387,5.162h1.001l0.787-2.96c0.128-0.342,0.259-0.683,0.443-0.942
				c0.316-0.504,0.674-0.58,0.881-0.58l0.39,0.131c0.074,0.076,0.105,0.231,0.105,0.421l0.894-0.262
				c0.178-0.524,0-0.818-0.312-0.969c-0.166-0.076-0.35-0.107-0.531-0.107c-0.571,0-1.135,0.311-1.534,0.863l0.209-0.756
				L96.937,32.332L96.937,32.332z"/>
			<path id="path530_4_" class="st16" d="M102.444,29.955l-1.656,6.121c-0.121,0.476-0.366,1.418,0.818,1.418h0.574l0.181-0.683
				h-0.283c-0.497,0-0.369-0.421-0.348-0.517l1.709-6.338L102.444,29.955L102.444,29.955z"/>
			<path id="path532_4_" class="st16" d="M106.052,30.645c-0.079,0.359,0.135,0.652,0.474,0.652c0.367,0,0.712-0.293,0.816-0.652
				c0.076-0.349-0.131-0.635-0.473-0.635C106.504,30.01,106.161,30.296,106.052,30.645 M105.138,32.332l-0.183,0.68h0.607
				l-1.235,4.482h1.018l1.397-5.162H105.138L105.138,32.332z"/>
			<path id="path534_4_" class="st16" d="M108.788,37.493l1.073-4.068c0.366-0.29,0.89-0.517,1.363-0.517
				c0.341,0,0.528,0.131,0.604,0.283c0.183,0.235,0.055,0.628,0.028,0.783l-0.942,3.519h0.994l0.942-3.436
				c0.107-0.418,0.159-0.921-0.072-1.339c-0.214-0.338-0.611-0.493-1.156-0.493c-0.369,0-0.894,0.073-1.547,0.493l0.105-0.386
				h-1.597l-0.179,0.676h0.595l-1.187,4.485L108.788,37.493L108.788,37.493z"/>
			<path id="path536_4_" class="st16" d="M124.169,32.925c-0.209-0.307-0.468-0.466-0.556-0.486
				c-0.338-0.183-0.669-0.214-0.99-0.214c-0.373,0-0.761,0.031-1.23,0.311c-0.371,0.241-0.788,0.607-0.942,1.211
				c-0.138,0.445-0.057,0.787,0.098,0.997c0.154,0.235,0.5,0.362,0.735,0.445l0.5,0.159c0.262,0.048,0.528,0.048,0.676,0.259
				c0.109,0.104,0.162,0.238,0.109,0.497c-0.074,0.241-0.233,0.393-0.367,0.497c-0.155,0.162-0.474,0.3-0.945,0.3
				c-0.293,0-0.5-0.062-0.759-0.193c-0.211-0.155-0.366-0.29-0.449-0.411l-0.654,0.604c0.474,0.618,1.056,0.704,1.627,0.704
				c0.418,0,1.18-0.052,1.839-0.556c0.366-0.307,0.625-0.704,0.732-1.049c0.078-0.266,0.109-0.652-0.021-0.894
				c-0.162-0.362-0.611-0.528-0.842-0.573l-0.373-0.114c-0.435-0.097-0.652-0.152-0.783-0.276c-0.079-0.083-0.181-0.238-0.104-0.552
				c0.052-0.135,0.124-0.342,0.366-0.504c0.259-0.162,0.521-0.179,0.681-0.179c0.262,0,0.443,0.055,0.65,0.179l0.366,0.369
				L124.169,32.925z"/>
			<path id="path538_4_" class="st16" d="M87.08,34.816l2.006-3.171h0.022l0.241,3.171H87.08z M84.302,37.493h1.128l1.127-1.808
				h2.838l0.135,1.808h1.287l-0.706-7.432h-0.921L84.302,37.493z"/>
			<path id="path548_4_" class="st16" d="M115.558,34.45l0.054-0.235c0.112-0.266,0.236-0.683,0.578-0.969
				c0.217-0.221,0.559-0.338,0.869-0.338c0.261,0,0.521,0.072,0.65,0.228c0.238,0.317,0.133,0.769,0.029,1.111l-0.054,0.203
				L115.558,34.45L115.558,34.45z M115.404,35.137h3.11l0.079-0.338c0.207-0.69,0.411-1.394,0.048-1.97
				c-0.299-0.497-0.933-0.6-1.38-0.6c-0.666,0-1.297,0.235-1.804,0.683c-0.686,0.6-0.968,1.411-1.128,2.094
				c-0.159,0.552-0.317,1.387,0.104,1.994c0.39,0.517,1.104,0.604,1.601,0.604c0.404,0,0.769-0.052,1.158-0.193
				c0.205-0.066,0.467-0.176,0.702-0.307l-0.155-0.604c-0.238,0.104-0.419,0.186-0.68,0.241c-0.252,0.045-0.48,0.097-0.738,0.097
				c-0.39,0-0.735-0.131-0.916-0.359c-0.29-0.338-0.157-0.869-0.074-1.132L115.404,35.137L115.404,35.137z"/>
		</g>
	</g>
</g>
<g id="Layer_4">
</g>
</svg>
