<?xml version="1.0" encoding="utf-8"?>
<!-- Generator: Adobe Illustrator 18.0.0, SVG Export Plug-In . SVG Version: 6.00 Build 0)  -->
<!DOCTYPE svg PUBLIC "-//W3C//DTD SVG 1.1//EN" "http://www.w3.org/Graphics/SVG/1.1/DTD/svg11.dtd">
<svg version="1.1" xmlns="http://www.w3.org/2000/svg" xmlns:xlink="http://www.w3.org/1999/xlink" x="0px" y="0px" width="97.22px"
	 height="50px" viewBox="0 0 97.22 50" style="enable-background:new 0 0 97.22 50;" xml:space="preserve">
<style type="text/css">
	.st0{display:none;}
	.st1{display:inline;}
	.st2{fill:#ED2D27;}
	.st3{display:inline;fill:#F8B900;}
	.st4{display:inline;fill:#00235F;}
	.st5{fill:url(#SVGID_1_);}
	.st6{fill:#006CB6;}
	.st7{fill:url(#SVGID_2_);}
	.st8{fill:url(#SVGID_3_);}
	.st9{fill:url(#SVGID_4_);}
	.st10{fill:url(#SVGID_5_);}
	.st11{fill:url(#SVGID_6_);}
	.st12{fill-rule:evenodd;clip-rule:evenodd;fill:#FFFFFF;}
	.st13{fill-rule:evenodd;clip-rule:evenodd;fill:#E2231A;}
	.st14{fill:#FFFFFF;}
	.st15{fill-rule:evenodd;clip-rule:evenodd;fill:#001689;}
	.st16{fill:#00529B;}
	.st17{fill:#F47920;}
	.st18{fill:url(#SVGID_7_);}
	.st19{fill:url(#SVGID_8_);}
	.st20{fill:url(#SVGID_9_);}
	.st21{fill:url(#SVGID_10_);}
	.st22{fill:url(#SVGID_11_);}
	.st23{fill:url(#SVGID_12_);}
	.st24{fill:url(#SVGID_13_);}
	.st25{fill:#00054C;}
	.st26{fill:url(#path3364_3_);}
	.st27{fill:url(#path3366_3_);}
	.st28{fill:#22356B;}
	.st29{fill:#FCC210;}
	.st30{fill:#ED1C24;}
	.st31{display:inline;fill:url(#SVGID_14_);}
	.st32{fill:#002157;}
	.st33{fill:#CC2234;}
	.st34{fill:#E23546;}
	.st35{fill:#FCB130;}
	.st36{fill:#1D4886;}
	.st37{display:inline;fill:none;}
	.st38{display:inline;fill:#005DAA;}
	.st39{fill:#005DAA;}
	.st40{fill:#00A1E4;}
	.st41{fill:#00704A;}
	.st42{fill:#B10D28;}
	.st43{fill:#D31245;}
	.st44{fill:url(#path70_3_);}
	.st45{fill:url(#SVGID_15_);}
	.st46{fill:url(#SVGID_16_);}
	.st47{fill:#231916;}
	.st48{fill:#E60013;}
	.st49{fill:#C0231E;}
	.st50{fill:#014E84;}
	.st51{fill:#BA783E;}
	.st52{fill:#002052;}
	.st53{fill:#0093D0;}
	.st54{fill:#ED1B2F;}
	.st55{fill:#E3242B;}
	.st56{fill-rule:evenodd;clip-rule:evenodd;fill:#034EA2;}
	.st57{fill-rule:evenodd;clip-rule:evenodd;fill:#E11837;}
	.st58{fill:#034EA2;}
	.st59{opacity:0.8902;fill:#EB151C;}
	.st60{fill:#1A1A1A;}
	.st61{enable-background:new    ;}
	.st62{fill:#FF6600;}
	.st63{clip-path:url(#SVGID_18_);fill:url(#SVGID_19_);}
	.st64{fill:url(#SVGID_20_);}
	.st65{fill:#B2DB1F;}
	.st66{fill:#FA002C;}
	.st67{fill:#1C2D5B;}
	.st68{fill:#1C4E9D;}
	.st69{fill:#ED192D;}
	.st70{display:inline;fill:#FFFFFF;}
	.st71{display:inline;fill:#00529B;}
	.st72{display:inline;fill:#F47920;}
	.st73{display:inline;fill:url(#SVGID_21_);}
	.st74{display:inline;fill:url(#SVGID_22_);}
	.st75{display:inline;fill:url(#SVGID_23_);}
	.st76{display:inline;fill:url(#SVGID_24_);}
	.st77{display:inline;fill:url(#SVGID_25_);}
	.st78{display:inline;fill:url(#SVGID_26_);}
	.st79{display:inline;fill:url(#SVGID_27_);}
	.st80{display:inline;fill:url(#path3364_4_);}
	.st81{display:inline;fill:url(#path3366_4_);}
	.st82{display:inline;fill:url(#SVGID_28_);}
	.st83{display:inline;fill:url(#SVGID_29_);}
	.st84{display:inline;fill:url(#SVGID_30_);}
	.st85{display:inline;opacity:0.75;fill:#FFFFFF;}
	.st86{display:inline;fill:#ED1B2F;}
	.st87{opacity:0.8902;fill:#FFFFFF;}
	.st88{clip-path:url(#SVGID_32_);fill:#FFFFFF;}
	.st89{fill:url(#SVGID_33_);}
	.st90{fill:url(#SVGID_34_);}
	.st91{fill:url(#SVGID_35_);}
	.st92{fill:url(#SVGID_36_);}
	.st93{fill:url(#SVGID_37_);}
	.st94{fill:url(#SVGID_38_);}
	.st95{fill:url(#SVGID_39_);}
	.st96{fill:url(#SVGID_40_);}
	.st97{clip-path:url(#SVGID_42_);fill:url(#SVGID_43_);}
	.st98{fill:url(#SVGID_44_);}
	.st99{fill:url(#path70_5_);}
	.st100{fill:url(#SVGID_45_);}
	.st101{fill:url(#SVGID_46_);}
	.st102{fill:#F8B900;}
	.st103{fill:#00235F;}
	.st104{fill:url(#SVGID_47_);}
	.st105{fill:url(#SVGID_48_);}
	.st106{fill:url(#SVGID_49_);}
	.st107{fill:url(#SVGID_50_);}
	.st108{fill:url(#SVGID_51_);}
	.st109{fill:url(#SVGID_52_);}
	.st110{opacity:0.8902;fill:#EB151C;enable-background:new    ;}
	.st111{fill:#E11837;}
	.st112{fill:#E2231A;}
	.st113{fill:#001689;}
	.st114{fill:#EF3E34;}
	.st115{fill:#4D82C4;}
	.st116{fill:#8C7035;}
	.st117{fill:#5FBA45;}
	.st118{fill:#008F7E;}
	.st119{fill:#004595;}
	.st120{fill:#FFED00;}
	.st121{fill:#E53138;}
	.st122{fill:url(#SVGID_53_);}
	.st123{fill:url(#SVGID_54_);}
	.st124{fill:url(#SVGID_55_);}
	.st125{fill:url(#SVGID_56_);}
	.st126{fill:#11185E;}
	.st127{fill:#EE3024;}
	.st128{fill:#0675CC;}
	.st129{fill:#E2001A;}
	.st130{fill:#009036;}
	.st131{fill:#0B1560;}
	.st132{fill:#0070AF;}
	.st133{fill:#0F2C64;}
	.st134{fill:#EF001E;}
	.st135{fill:#1C2A8D;}
	.st136{fill:#334357;}
	.st137{fill:url(#SVGID_57_);}
	.st138{fill:#ED1B28;}
	.st139{fill:#1E5AAF;}
	.st140{fill:#991933;}
	.st141{fill:#E01933;}
	.st142{fill:#003366;}
	.st143{fill:#00265D;}
	.st144{fill:#003263;}
	.st145{fill:#EE452A;}
	.st146{fill:#011F65;}
	.st147{fill:#EC2227;}
	.st148{fill:#010101;}
	.st149{fill:#FCEE21;}
	.st150{fill:#18488B;}
	.st151{fill:#EC2427;}
	.st152{fill:#D09B2B;}
	.st153{fill:#156192;}
	.st154{fill:#021A31;}
	.st155{fill:#008E8F;}
	.st156{fill:#2B438F;}
	.st157{fill:#363F9E;}
	.st158{fill:#00ABBF;}
</style>
<g id="Layer_1" class="st0">
</g>
<g id="Layer_2" class="st0">
</g>
<g id="Layer_3">
	<g>
		<path id="path2469" class="st132" d="M72.423,2.48h-0.957v6.769h0.993V5.93c0-0.475,0.03-1.233,0.258-1.728
			c0.248-0.54,0.719-1.018,1.594-1.018c0.428,0,0.774,0.135,1.007,0.375c0.334,0.341,0.475,0.87,0.475,1.605v4.083h0.993V5.081
			c0-0.888-0.19-1.649-0.679-2.142c-0.392-0.397-0.954-0.61-1.657-0.61c-0.941,0-1.604,0.369-2.023,1.058L72.423,2.48"/>
		<path id="path2471" class="st132" d="M34.36,2.656c-0.335-0.146-1.085-0.326-1.716-0.326c-1.061,0-2.259,0.399-2.259,1.774
			c0,1.144,1.028,1.626,1.814,2.004c0.756,0.362,1.403,0.697,1.403,1.358c0,0.771-0.593,1.075-1.397,1.075
			c-0.627,0-1.175-0.157-1.789-0.472l-0.096,0.985c0.571,0.21,1.1,0.348,1.916,0.348c1.634,0,2.4-0.905,2.4-1.984
			c0-1.274-1.078-1.751-1.988-2.169c-0.852-0.392-1.24-0.649-1.24-1.164c0-0.5,0.345-0.889,1.275-0.889
			c0.606,0,1.183,0.165,1.581,0.355L34.36,2.656"/>
		<path id="path2473" class="st132" d="M19.263,3.491c0-0.202,0-1.01,0-1.01h-0.956v6.769h0.991V5.902
			c0-0.576,0.055-1.576,0.665-2.187c0.237-0.237,0.553-0.359,0.912-0.359c0.252,0,0.498,0.037,0.689,0.115V2.428
			c-0.16-0.063-0.461-0.105-0.658-0.105C20.246,2.323,19.654,2.75,19.263,3.491"/>
		<path id="path2475" class="st132" d="M27.46,8.35c-0.212,0.079-0.466,0.189-0.835,0.189c-0.229,0-0.426-0.053-0.556-0.183
			c-0.197-0.195-0.234-0.534-0.234-0.903V3.347h1.497V2.479h-1.497V0.073h-0.991v2.406h-0.736v0.868h0.736v3.769
			c0,0.834,0.025,1.476,0.453,1.897C25.552,9.263,25.912,9.4,26.435,9.4c0.43,0,0.889-0.126,1.083-0.212L27.46,8.35"/>
		<path id="path2477" class="st132" d="M22.208,2.48H23.2v6.769h-0.991V2.48z M22.048,0.651C22.048,0.292,22.342,0,22.705,0
			c0.362,0,0.656,0.292,0.656,0.651c0,0.36-0.294,0.651-0.656,0.651S22.048,1.012,22.048,0.651z"/>
		<rect id="rect2479" x="63.091" y="0.073" class="st132" width="0.991" height="9.175"/>
		<path id="path2481" class="st132" d="M67.414,8.665c1.25,0,1.806-1.313,1.806-2.371V5.799c-1.067,0-3.163-0.014-3.163,1.595
			C66.056,8.037,66.422,8.665,67.414,8.665 M67.646,2.329c1.692,0,2.546,0.775,2.546,2.588v4.332h-0.957V8.326
			C68.786,9.157,67.998,9.4,67.257,9.4c-1.136,0-2.227-0.598-2.227-2.007c0-2.317,2.969-2.314,4.189-2.318V4.864
			c0-0.823-0.218-1.678-1.555-1.678c-0.831,0-1.596,0.21-2.129,0.557v-0.93C66.165,2.514,66.963,2.329,67.646,2.329L67.646,2.329z"
			/>
		<path id="path2483" class="st132" d="M14.444,3.263c-1.081,0-1.888,1.065-1.888,2.58c0,1.687,0.65,2.697,1.857,2.697
			c1.144,0,1.844-0.999,1.844-2.599C16.256,4.3,15.54,3.263,14.444,3.263 M12.523,0.073v3.33c0.325-0.519,0.892-1.073,1.959-1.073
			c1.732,0,2.799,1.408,2.799,3.597c0,2.145-1.059,3.474-2.85,3.474c-1.903,0-2.9-1.325-2.9-3.632V0.073H12.523L12.523,0.073z"/>
		<path id="path2485" class="st132" d="M28.356,2.48h0.991v6.769h-0.991V2.48z M28.195,0.651C28.195,0.292,28.49,0,28.852,0
			s0.655,0.292,0.655,0.651c0,0.36-0.291,0.651-0.655,0.651S28.195,1.012,28.195,0.651z"/>
		<path id="path2487" class="st132" d="M36.536,3.332c0.421-0.654,1.073-1.003,1.989-1.003c0.703,0,1.266,0.213,1.658,0.61
			c0.488,0.493,0.678,1.255,0.678,2.142v4.166h-0.991V5.164c0-0.734-0.142-1.264-0.475-1.605c-0.236-0.241-0.578-0.375-1.008-0.375
			c-0.872,0-1.343,0.477-1.592,1.018c-0.228,0.495-0.26,1.253-0.26,1.728v3.319h-0.993V0.073h0.993v3.259"/>
		<path id="path2489" class="st132" d="M48.483,3.582c0.446-0.816,1.182-1.255,2.098-1.255c0.626,0,1.156,0.204,1.536,0.583
			c0.486,0.486,0.626,1.287,0.626,2.035v4.305h-0.991V4.975c0-0.582-0.064-1.126-0.388-1.449c-0.214-0.213-0.519-0.32-0.912-0.32
			c-0.387,0-0.761,0.156-1.052,0.438c-0.306,0.315-0.626,0.799-0.626,1.872v3.733h-0.991V4.781c0-0.567-0.132-0.991-0.397-1.255
			c-0.21-0.213-0.514-0.32-0.904-0.32c-0.393,0-0.766,0.156-1.053,0.438c-0.288,0.291-0.632,0.85-0.632,1.869v3.735h-0.99V2.48
			h0.956v0.907c0.185-0.36,0.743-1.061,1.934-1.061C47.033,2.327,48.103,2.419,48.483,3.582"/>
		<path id="path2491" class="st132" d="M53.977,2.48h0.991v6.769h-0.991V2.48z M53.817,0.651C53.817,0.292,54.111,0,54.473,0
			s0.656,0.292,0.656,0.651c0,0.36-0.292,0.651-0.656,0.651C54.111,1.303,53.817,1.012,53.817,0.651z"/>
		<path id="path2493" class="st132" d="M58.917,3.263c1.081,0,1.888,1.065,1.888,2.58c0,1.704-0.61,2.697-1.838,2.697
			c-1.144,0-1.863-0.999-1.863-2.599C57.105,4.3,57.821,3.263,58.917,3.263 M60.838,0.073v3.33
			c-0.325-0.519-0.879-1.073-1.959-1.073c-1.732,0-2.798,1.408-2.798,3.597c0,2.145,1.077,3.474,2.867,3.474
			c1.924,0,2.881-1.387,2.881-3.786V0.073L60.838,0.073L60.838,0.073z"/>
		<path id="path2495" class="st132" d="M80.668,3.263c1.083,0,1.888,1.065,1.888,2.58c0,1.704-0.61,2.697-1.837,2.697
			c-1.144,0-1.863-0.999-1.863-2.599C78.857,4.3,79.573,3.263,80.668,3.263 M82.59,0.073v3.33c-0.328-0.519-0.881-1.073-1.96-1.073
			c-1.732,0-2.799,1.408-2.799,3.597c0,2.145,1.077,3.474,2.868,3.474c1.924,0,2.88-1.387,2.88-3.786V0.073L82.59,0.073L82.59,0.073
			z"/>
		<rect id="rect2497" x="89.268" y="14.073" class="st132" width="7.149" height="35.168"/>
		<path id="path2499" class="st132" d="M92.867,10.791c2.399,0,4.353-1.987,4.353-4.434c0-2.454-1.954-4.449-4.353-4.449
			c-2.426,0-4.375,1.995-4.375,4.449C88.492,8.804,90.441,10.791,92.867,10.791"/>
		<path id="path2501" class="st132" d="M55.702,49.24V28.453c0-6.125-2.698-8.41-6.796-8.41c-4.767,0-6.796,3.485-6.796,10.542
			V49.24h-7.148v-20.42c0-9.026,4.734-15.52,14.286-15.52c4.51,0,7.981,1.989,10.021,4.428c2.042-2.439,5.513-4.428,10.024-4.428
			c9.549,0,14.284,6.494,14.284,15.52v20.42h-7.148V30.585c0-7.057-2.027-10.542-6.795-10.542c-4.098,0-6.798,2.285-6.798,8.41
			V49.24H55.702"/>
		<path id="path2503" class="st132" d="M15.506,19.991c-4.475,0-8.124,3.991-8.124,11.471c0,8.385,3.414,12.239,7.874,12.239
			c4.665,0,7.993-3.529,7.993-11.711C23.248,23.68,19.797,19.991,15.506,19.991 M0.001,2.486h7.147v14.111
			c0.93-0.908,4.068-3.292,8.215-3.292c8.215,0,14.884,5.63,14.884,18.526c0,11.93-5.166,18.17-15.409,18.17
			c-6.124,0-10.697-2.991-13.185-9.175C0.16,37.118,0,31.543,0,27.32V2.486H0.001z"/>
	</g>
</g>
<g id="Layer_4">
</g>
</svg>
