<?xml version="1.0" encoding="utf-8"?>
<!-- Generator: Adobe Illustrator 18.0.0, SVG Export Plug-In . SVG Version: 6.00 Build 0)  -->
<!DOCTYPE svg PUBLIC "-//W3C//DTD SVG 1.1//EN" "http://www.w3.org/Graphics/SVG/1.1/DTD/svg11.dtd">
<svg version="1.1" xmlns="http://www.w3.org/2000/svg" xmlns:xlink="http://www.w3.org/1999/xlink" x="0px" y="0px" width="200px"
	 height="30.866px" viewBox="0 0 200 30.866" style="enable-background:new 0 0 200 30.866;" xml:space="preserve">
<style type="text/css">
	.st0{display:none;}
	.st1{display:inline;}
	.st2{fill:#ED2D27;}
	.st3{display:inline;fill:#F8B900;}
	.st4{display:inline;fill:#00235F;}
	.st5{fill:url(#SVGID_1_);}
	.st6{fill:#006CB6;}
	.st7{fill:url(#SVGID_2_);}
	.st8{fill:url(#SVGID_3_);}
	.st9{fill:url(#SVGID_4_);}
	.st10{fill:url(#SVGID_5_);}
	.st11{fill:url(#SVGID_6_);}
	.st12{fill-rule:evenodd;clip-rule:evenodd;fill:#FFFFFF;}
	.st13{fill-rule:evenodd;clip-rule:evenodd;fill:#E2231A;}
	.st14{fill:#FFFFFF;}
	.st15{fill-rule:evenodd;clip-rule:evenodd;fill:#001689;}
	.st16{fill:#00529B;}
	.st17{fill:#F47920;}
	.st18{fill:url(#SVGID_7_);}
	.st19{fill:url(#SVGID_8_);}
	.st20{fill:url(#SVGID_9_);}
	.st21{fill:url(#SVGID_10_);}
	.st22{fill:url(#SVGID_11_);}
	.st23{fill:url(#SVGID_12_);}
	.st24{fill:url(#SVGID_13_);}
	.st25{fill:#00054C;}
	.st26{fill:url(#path3364_3_);}
	.st27{fill:url(#path3366_3_);}
	.st28{fill:#22356B;}
	.st29{fill:#FCC210;}
	.st30{fill:#ED1C24;}
	.st31{display:inline;fill:url(#SVGID_14_);}
	.st32{fill:#002157;}
	.st33{fill:#CC2234;}
	.st34{fill:#E23546;}
	.st35{fill:#FCB130;}
	.st36{fill:#1D4886;}
	.st37{display:inline;fill:none;}
	.st38{display:inline;fill:#005DAA;}
	.st39{fill:#005DAA;}
	.st40{fill:#00A1E4;}
	.st41{fill:#00704A;}
	.st42{fill:#B10D28;}
	.st43{fill:#D31245;}
	.st44{fill:url(#path70_3_);}
	.st45{fill:url(#SVGID_15_);}
	.st46{fill:url(#SVGID_16_);}
	.st47{fill:#231916;}
	.st48{fill:#E60013;}
	.st49{fill:#C0231E;}
	.st50{fill:#014E84;}
	.st51{fill:#BA783E;}
	.st52{fill:#002052;}
	.st53{fill:#0093D0;}
	.st54{fill:#ED1B2F;}
	.st55{fill:#E3242B;}
	.st56{fill-rule:evenodd;clip-rule:evenodd;fill:#034EA2;}
	.st57{fill-rule:evenodd;clip-rule:evenodd;fill:#E11837;}
	.st58{fill:#034EA2;}
	.st59{opacity:0.8902;fill:#EB151C;}
	.st60{fill:#1A1A1A;}
	.st61{enable-background:new    ;}
	.st62{fill:#FF6600;}
	.st63{clip-path:url(#SVGID_18_);fill:url(#SVGID_19_);}
	.st64{fill:url(#SVGID_20_);}
	.st65{fill:#B2DB1F;}
	.st66{fill:#FA002C;}
	.st67{fill:#1C2D5B;}
	.st68{fill:#1C4E9D;}
	.st69{fill:#ED192D;}
	.st70{display:inline;fill:#FFFFFF;}
	.st71{display:inline;fill:#00529B;}
	.st72{display:inline;fill:#F47920;}
	.st73{display:inline;fill:url(#SVGID_21_);}
	.st74{display:inline;fill:url(#SVGID_22_);}
	.st75{display:inline;fill:url(#SVGID_23_);}
	.st76{display:inline;fill:url(#SVGID_24_);}
	.st77{display:inline;fill:url(#SVGID_25_);}
	.st78{display:inline;fill:url(#SVGID_26_);}
	.st79{display:inline;fill:url(#SVGID_27_);}
	.st80{display:inline;fill:url(#path3364_4_);}
	.st81{display:inline;fill:url(#path3366_4_);}
	.st82{display:inline;fill:url(#SVGID_28_);}
	.st83{display:inline;fill:url(#SVGID_29_);}
	.st84{display:inline;fill:url(#SVGID_30_);}
	.st85{display:inline;opacity:0.75;fill:#FFFFFF;}
	.st86{display:inline;fill:#ED1B2F;}
	.st87{opacity:0.8902;fill:#FFFFFF;}
	.st88{clip-path:url(#SVGID_32_);fill:#FFFFFF;}
	.st89{fill:url(#SVGID_33_);}
	.st90{fill:url(#SVGID_34_);}
	.st91{fill:url(#SVGID_35_);}
	.st92{fill:url(#SVGID_36_);}
	.st93{fill:url(#SVGID_37_);}
	.st94{fill:url(#SVGID_38_);}
	.st95{fill:url(#SVGID_39_);}
	.st96{fill:url(#SVGID_40_);}
	.st97{clip-path:url(#SVGID_42_);fill:url(#SVGID_43_);}
	.st98{fill:url(#SVGID_44_);}
	.st99{fill:url(#path70_5_);}
	.st100{fill:url(#SVGID_45_);}
	.st101{fill:url(#SVGID_46_);}
	.st102{fill:#F8B900;}
	.st103{fill:#00235F;}
	.st104{fill:url(#SVGID_47_);}
	.st105{fill:url(#SVGID_48_);}
	.st106{fill:url(#SVGID_49_);}
	.st107{fill:url(#SVGID_50_);}
	.st108{fill:url(#SVGID_51_);}
	.st109{fill:url(#SVGID_52_);}
	.st110{opacity:0.8902;fill:#EB151C;enable-background:new    ;}
	.st111{fill:#E11837;}
	.st112{fill:#E2231A;}
	.st113{fill:#001689;}
	.st114{fill:#EF3E34;}
	.st115{fill:#4D82C4;}
	.st116{fill:#8C7035;}
	.st117{fill:#5FBA45;}
	.st118{fill:#008F7E;}
	.st119{fill:#004595;}
	.st120{fill:#FFED00;}
	.st121{fill:#E53138;}
	.st122{fill:url(#SVGID_53_);}
	.st123{fill:url(#SVGID_54_);}
	.st124{fill:url(#SVGID_55_);}
	.st125{fill:url(#SVGID_56_);}
	.st126{fill:#11185E;}
	.st127{fill:#EE3024;}
	.st128{fill:#0675CC;}
	.st129{fill:#E2001A;}
	.st130{fill:#009036;}
	.st131{fill:#0B1560;}
	.st132{fill:#0070AF;}
	.st133{fill:#0F2C64;}
	.st134{fill:#EF001E;}
	.st135{fill:#1C2A8D;}
	.st136{fill:#334357;}
	.st137{fill:url(#SVGID_57_);}
	.st138{fill:#ED1B28;}
	.st139{fill:#1E5AAF;}
	.st140{fill:#991933;}
	.st141{fill:#E01933;}
	.st142{fill:#003366;}
	.st143{fill:#00265D;}
	.st144{fill:#003263;}
	.st145{fill:#EE452A;}
	.st146{fill:#011F65;}
	.st147{fill:#EC2227;}
	.st148{fill:#010101;}
	.st149{fill:#FCEE21;}
	.st150{fill:#18488B;}
	.st151{fill:#EC2427;}
	.st152{fill:#D09B2B;}
	.st153{fill:#156192;}
	.st154{fill:#021A31;}
	.st155{fill:#008E8F;}
	.st156{fill:#2B438F;}
	.st157{fill:#363F9E;}
	.st158{fill:#00ABBF;}
</style>
<g id="Layer_1" class="st0">
</g>
<g id="Layer_2" class="st0">
</g>
<g id="Layer_3">
	<linearGradient id="SVGID_1_" gradientUnits="userSpaceOnUse" x1="191.4345" y1="4.7411" x2="181.137" y2="22.5769">
		<stop  offset="0" style="stop-color:#E4E6F5"/>
		<stop  offset="0.2948" style="stop-color:#4D72BF"/>
		<stop  offset="0.4" style="stop-color:#4D72BF"/>
		<stop  offset="0.9" style="stop-color:#1E5AAF"/>
		<stop  offset="1" style="stop-color:#1E5AAF"/>
	</linearGradient>
	<path class="st5" d="M199.987,11.121c-0.004-0.147-0.031-0.246-0.031-0.246s-0.048-0.262-0.113-0.447
		c-0.068-0.185-0.352-0.754-0.812-1.124c-0.308-0.25-0.838-0.871-2.761-1.548c-0.655-0.227-1.712-0.437-1.712-0.437l-0.184,0.205
		c-2.307,2.293-7.306,4.261-9.765,5.184c-3.36,1.262-4.851,1.708-6.732,2.321c-2.128,0.69-6.384,1.979-6.384,1.979
		c8.818,2.632,15.031,3.426,15.031,3.426s2.895-0.894,7.481-3.346c2.483-1.263,3.705-2.113,4.58-2.925
		c0.321-0.29,1.154-1.157,1.361-2.267c0.013-0.08,0.053-0.292,0.053-0.5C200,11.397,200,11.249,199.987,11.121z"/>
	<path class="st138" d="M199.987,11.104c-0.004-0.076-0.031-0.418-0.136-0.793c-0.049-0.15-0.111-0.364-0.262-0.718
		c-0.154-0.357-0.312-0.721-0.492-1.071c-0.166-0.334-0.644-1.292-1.65-2.815c-0.122-0.198-0.482-0.728-0.792-1.159
		c-0.275-0.371-0.48-0.579-0.48-0.579c-0.688-0.907-2.08-1.793-3.734-2.405c-0.785-0.292-2.132-0.722-3.616-0.976
		c-1.654-0.281-2.97-0.402-4.386-0.48c-2.76-0.16-6.209-0.13-11.07,0.007C165.947,0.312,125.264,2,118.291,2.242
		c0,0,4.385,1.492,12.291,3.062c9.292,1.863,17.642,2.276,36.822,2.188c1.859,0,8.952-0.015,14.746-0.135
		c1.305-0.024,6.381-0.065,7.166-0.054c0.232,0.008,2.674-0.042,4.803,0.241c1.375,0.188,2.927,0.632,4.13,1.42
		c0.297,0.2,0.545,0.39,0.773,0.603c0.3,0.288,0.502,0.547,0.653,0.768c0.124,0.186,0.206,0.363,0.254,0.549
		c0.06,0.208,0.073,0.453,0.073,0.453L199.987,11.104z"/>
	<path class="st139" d="M73.231,29.407V18.272c0-0.618,0.297-1.073,0.598-1.223h-4.013c0.296,0.15,0.609,0.605,0.609,1.223v4.562
		c-0.726,0.067-1.741,0.117-2.879,0.117c-1.174,0-2.177-0.038-2.922-0.117v-4.562c0-0.618,0.307-1.073,0.606-1.223h-4.021
		c0.298,0.15,0.616,0.605,0.616,1.223v11.135c0,0.61-0.318,1.076-0.616,1.208h4.021c-0.299-0.154-0.606-0.599-0.606-1.208V24.36
		c0.744-0.082,1.767-0.117,2.922-0.117c1.138,0,2.153,0.035,2.879,0.117v5.047c0,0.61-0.313,1.076-0.609,1.208h4.013
		C73.529,30.461,73.231,30.017,73.231,29.407z"/>
	<path class="st139" d="M53.47,19.615c0-1.126,1.033-1.613,2.016-1.613c1.246,0,2.587,0.812,3.122,1.932l-0.151-2.536
		c-0.871-0.401-2.25-0.533-3.202-0.533c-2.136,0-4.565,0.836-4.565,3.39c0,4.125,6.086,4.707,6.086,7.291
		c0,1.473-1.006,2.063-2.359,2.063c-1.78,0-3.203-1.227-3.893-2.795c-0.081,0.545-0.131,1.102-0.131,1.655
		c0,0.463,0.031,0.938,0.098,1.392c1.103,0.755,2.882,1.006,4.19,1.006c2.502,0,4.978-1.174,4.978-4.01
		C59.659,22.95,53.47,22.296,53.47,19.615z"/>
	<path class="st139" d="M47.952,29.407V18.272c0-0.618,0.339-1.056,0.695-1.223h-4.176c0.334,0.167,0.684,0.605,0.684,1.223v11.135
		c0,0.61-0.35,1.054-0.684,1.208h4.176C48.291,30.461,47.952,30.017,47.952,29.407z"/>
	<path class="st139" d="M41.562,17.049h-9.944l-0.932,1.994c0.596-0.354,1.419-0.438,2.111-0.438h2.997v10.802
		c0,0.475-0.219,1.004-0.665,1.208h4.141c-0.44-0.205-0.674-0.733-0.674-1.208V18.572c1.125,0,2.433,0.052,3.222,0.07
		c0.65,0,1.778-0.757,2.156-1.778C43.192,17.031,42.368,17.049,41.562,17.049z"/>
	<path class="st139" d="M29.559,29.407V18.272c0-0.618,0.326-1.056,0.686-1.223H26.07c0.337,0.167,0.688,0.605,0.688,1.223v11.135
		c0,0.61-0.352,1.054-0.688,1.208h4.175C29.885,30.461,29.559,30.017,29.559,29.407z"/>
	<g>
		<path class="st139" d="M18.264,23.686c1.986,0,3.764-1.103,3.764-3.255c0-2.563-2.67-3.383-4.804-3.383h-4.905
			c0.427,0.236,0.632,0.752,0.632,1.223v11.135c0,0.475-0.205,0.984-0.632,1.208h4.074c-0.438-0.205-0.643-0.755-0.643-1.208v-5.184
			c1.768,0.02,2.452,1.847,3.241,3.174c0.508,0.816,1.782,2.896,2.706,3.17c0.497,0.147,1.07,0.128,1.591,0.128
			c0.871,0,1.742-0.101,2.578-0.348C22.747,30.328,21.088,23.702,18.264,23.686z M16.392,23.021c-0.22,0-0.421-0.023-0.643-0.038
			v-4.691c0.24-0.034,0.454-0.074,0.697-0.074c1.493,0,2.603,0.605,2.603,2.301C19.049,22.178,17.92,23.021,16.392,23.021z"/>
	</g>
	<g>
		<path class="st139" d="M7.402,23.507c1.339-0.253,2.581-1.378,2.581-2.802c0-2.687-2.308-3.656-4.675-3.656H0
			c0.437,0.236,0.632,0.752,0.632,1.223v11.135c0,0.454-0.195,0.984-0.632,1.208h5.758c2.246,0,5.437-0.776,5.437-3.82
			C11.195,24.667,9.33,23.488,7.402,23.507z M3.427,18.272c0.454-0.055,0.623-0.055,0.87-0.055l0,0h0h0
			c1.61,0,2.867,0.546,2.867,2.417c0,1.884-1.573,2.387-3.2,2.387H3.427V18.272z M5.238,29.445c-0.586,0-1.222-0.038-1.812-0.153
			v-5.014c0.472-0.035,0.821-0.035,1.208-0.035l0,0h0h0c1.713,0,3.349,0.462,3.349,2.515C7.984,28.839,6.6,29.445,5.238,29.445z"/>
	</g>
	<path class="st139" d="M152.879,19.615c0-1.126,1.024-1.613,2.011-1.613c1.246,0,2.581,0.812,3.123,1.932l-0.151-2.537
		c-0.877-0.4-2.247-0.532-3.204-0.532c-2.137,0-4.559,0.836-4.559,3.39c0,4.125,6.087,4.707,6.087,7.291
		c0,1.472-1.008,2.062-2.366,2.062c-1.779,0-3.208-1.226-3.896-2.794c-0.083,0.545-0.136,1.101-0.136,1.655
		c0,0.463,0.034,0.938,0.106,1.391c1.105,0.756,2.888,1.006,4.197,1.006c2.519,0,4.979-1.174,4.979-4.01
		C159.069,22.95,152.879,22.296,152.879,19.615z"/>
	<path class="st139" d="M147.127,17.049c0.198,0.131,0.282,0.258,0.282,0.453c0,0.152-0.17,0.457-0.417,0.891
		c0,0-2.046,3.559-2.263,3.961l-2.584-4.097c-0.805-1.26-1.457-1.381-2.771-1.381c-0.787,0-1.962,0.225-2.348,0.37
		c1.42,0,2.584,1.951,2.834,2.369l2.794,4.476v5.316c0,0.416-0.188,0.984-0.596,1.208h3.997c-0.429-0.205-0.606-0.776-0.606-1.208
		v-5.298l3.214-5.636c0.31-0.534,0.778-1.154,1.345-1.424H147.127z"/>
	<g>
		<path class="st139" d="M140.298,30.616c-0.333-0.187-0.735-0.554-0.924-1.056l-4.564-12.511h-3.522
			c0.293,0.15,0.505,0.453,0.505,0.771c0,0.065-0.013,0.119-0.025,0.167l-4.504,11.583c-0.169,0.42-0.516,0.84-0.92,1.045h2.731
			c-0.146-0.072-0.311-0.169-0.311-0.371c0-0.089,0.046-0.227,0.219-0.636c0,0,1.185-3.016,1.301-3.319
			c0.807-0.083,1.632-0.103,2.434-0.103c0.855,0,1.727,0,2.57,0.103c0.135,0.353,1.242,3.385,1.242,3.385
			c0.082,0.254,0.122,0.388,0.122,0.47c0,0.24-0.107,0.339-0.247,0.472H140.298z M132.68,24.995c-0.617,0-1.254-0.014-1.873-0.081
			l2.057-5.283l1.921,5.283C134.097,24.995,133.384,24.995,132.68,24.995z"/>
	</g>
	<path class="st139" d="M126.294,17.049c0.167,0.131,0.24,0.236,0.24,0.403c0,0.136-0.039,0.217-0.106,0.434l-2.669,7.991
		l-3.524-8.828l-3.199,9.157l-3.005-8.12c-0.049-0.147-0.117-0.335-0.117-0.472c0-0.285,0.117-0.434,0.285-0.565h-4.01
		c0.503,0.27,0.84,0.771,1.039,1.294l4.615,12.272h1.278l2.684-7.595l1.861,4.708c0.233,0.604,0.875,2.245,1.281,2.637
		c0.189,0.133,0.523,0.25,0.862,0.25l4.122-12.243c0.171-0.505,0.526-1.066,1.016-1.324H126.294z"/>
	<g>
		<path class="st139" d="M106.002,23.687c1.47,0,3.416-1.103,3.416-3.255c0-2.563-2.666-3.383-4.793-3.383h-4.917
			c0.437,0.236,0.64,0.752,0.64,1.223v11.135c0,0.475-0.203,0.984-0.64,1.208h4.07c-0.43-0.205-0.628-0.756-0.628-1.208v-5.184
			c1.756,0,2.78,1.847,3.564,3.174c0.507,0.816,1.78,2.896,2.704,3.17c0.51,0.147,1.071,0.128,1.59,0.128
			c0.878,0,1.749-0.101,2.591-0.348C110.694,30.347,108.928,23.855,106.002,23.687z M103.778,23.021
			c-0.211,0-0.411-0.023-0.628-0.038v-4.691c0.235-0.034,0.451-0.074,0.677-0.074c1.495,0,2.609,0.605,2.609,2.301
			C106.436,22.178,105.309,23.021,103.778,23.021z"/>
	</g>
	<path class="st139" d="M96.797,29.407V18.272c0-0.618,0.33-1.056,0.685-1.223h-4.172c0.337,0.167,0.686,0.605,0.686,1.223v11.135
		c0,0.61-0.349,1.054-0.686,1.208h4.172C97.127,30.461,96.797,30.017,96.797,29.407z"/>
	<g>
		<path class="st139" d="M92.615,30.616c-0.335-0.187-0.733-0.554-0.919-1.056l-4.564-12.511h-3.521
			c0.285,0.15,0.498,0.453,0.498,0.771c0,0.065-0.008,0.119-0.028,0.167l-4.489,11.583c-0.171,0.42-0.521,0.84-0.923,1.045h2.73
			c-0.147-0.072-0.32-0.169-0.32-0.371c0-0.089,0.055-0.227,0.216-0.636c0,0,1.194-3.016,1.308-3.319
			c0.803-0.083,1.625-0.103,2.436-0.103c0.854,0,1.726,0,2.563,0.103c0.131,0.353,1.246,3.385,1.246,3.385
			c0.099,0.254,0.129,0.388,0.129,0.47c0,0.24-0.116,0.339-0.247,0.472H92.615z M84.999,24.995c-0.621,0-1.257-0.014-1.87-0.081
			l2.058-5.283l1.917,5.283C86.413,24.995,85.709,24.995,84.999,24.995z"/>
	</g>
</g>
<g id="Layer_4">
</g>
</svg>
