<?xml version="1.0" encoding="utf-8"?>
<!-- Generator: Adobe Illustrator 18.0.0, SVG Export Plug-In . SVG Version: 6.00 Build 0)  -->
<!DOCTYPE svg PUBLIC "-//W3C//DTD SVG 1.1//EN" "http://www.w3.org/Graphics/SVG/1.1/DTD/svg11.dtd">
<svg version="1.1" xmlns="http://www.w3.org/2000/svg" xmlns:xlink="http://www.w3.org/1999/xlink" x="0px" y="0px" width="200px"
	 height="30px" viewBox="0 0 200 30" style="enable-background:new 0 0 200 30;" xml:space="preserve">
<style type="text/css">
	.st0{display:none;}
	.st1{display:inline;}
	.st2{fill:#ED2D27;}
	.st3{display:inline;fill:#F8B900;}
	.st4{display:inline;fill:#00235F;}
	.st5{fill:url(#SVGID_1_);}
	.st6{fill:#006CB6;}
	.st7{fill:url(#SVGID_2_);}
	.st8{fill:url(#SVGID_3_);}
	.st9{fill:url(#SVGID_4_);}
	.st10{fill:url(#SVGID_5_);}
	.st11{fill:url(#SVGID_6_);}
	.st12{fill-rule:evenodd;clip-rule:evenodd;fill:#FFFFFF;}
	.st13{fill-rule:evenodd;clip-rule:evenodd;fill:#E2231A;}
	.st14{fill:#FFFFFF;}
	.st15{fill-rule:evenodd;clip-rule:evenodd;fill:#001689;}
	.st16{fill:#00529B;}
	.st17{fill:#F47920;}
	.st18{fill:url(#SVGID_7_);}
	.st19{fill:url(#SVGID_8_);}
	.st20{fill:url(#SVGID_9_);}
	.st21{fill:url(#SVGID_10_);}
	.st22{fill:url(#SVGID_11_);}
	.st23{fill:url(#SVGID_12_);}
	.st24{fill:url(#SVGID_13_);}
	.st25{fill:#00054C;}
	.st26{fill:url(#path3364_3_);}
	.st27{fill:url(#path3366_3_);}
	.st28{fill:#22356B;}
	.st29{fill:#FCC210;}
	.st30{fill:#ED1C24;}
	.st31{display:inline;fill:url(#SVGID_14_);}
	.st32{fill:#002157;}
	.st33{fill:#CC2234;}
	.st34{fill:#E23546;}
	.st35{fill:#FCB130;}
	.st36{fill:#1D4886;}
	.st37{display:inline;fill:none;}
	.st38{display:inline;fill:#005DAA;}
	.st39{fill:#005DAA;}
	.st40{fill:#00A1E4;}
	.st41{fill:#00704A;}
	.st42{fill:#B10D28;}
	.st43{fill:#D31245;}
	.st44{fill:url(#path70_3_);}
	.st45{fill:url(#SVGID_15_);}
	.st46{fill:url(#SVGID_16_);}
	.st47{fill:#231916;}
	.st48{fill:#E60013;}
	.st49{fill:#C0231E;}
	.st50{fill:#014E84;}
	.st51{fill:#BA783E;}
	.st52{fill:#002052;}
	.st53{fill:#0093D0;}
	.st54{fill:#ED1B2F;}
	.st55{fill:#E3242B;}
	.st56{fill-rule:evenodd;clip-rule:evenodd;fill:#034EA2;}
	.st57{fill-rule:evenodd;clip-rule:evenodd;fill:#E11837;}
	.st58{fill:#034EA2;}
	.st59{opacity:0.8902;fill:#EB151C;}
	.st60{fill:#1A1A1A;}
	.st61{enable-background:new    ;}
	.st62{fill:#FF6600;}
	.st63{clip-path:url(#SVGID_18_);fill:url(#SVGID_19_);}
	.st64{fill:url(#SVGID_20_);}
	.st65{fill:#B2DB1F;}
	.st66{fill:#FA002C;}
	.st67{fill:#1C2D5B;}
	.st68{fill:#1C4E9D;}
	.st69{fill:#ED192D;}
	.st70{display:inline;fill:#FFFFFF;}
	.st71{display:inline;fill:#00529B;}
	.st72{display:inline;fill:#F47920;}
	.st73{display:inline;fill:url(#SVGID_21_);}
	.st74{display:inline;fill:url(#SVGID_22_);}
	.st75{display:inline;fill:url(#SVGID_23_);}
	.st76{display:inline;fill:url(#SVGID_24_);}
	.st77{display:inline;fill:url(#SVGID_25_);}
	.st78{display:inline;fill:url(#SVGID_26_);}
	.st79{display:inline;fill:url(#SVGID_27_);}
	.st80{display:inline;fill:url(#path3364_4_);}
	.st81{display:inline;fill:url(#path3366_4_);}
	.st82{display:inline;fill:url(#SVGID_28_);}
	.st83{display:inline;fill:url(#SVGID_29_);}
	.st84{display:inline;fill:url(#SVGID_30_);}
	.st85{display:inline;opacity:0.75;fill:#FFFFFF;}
	.st86{display:inline;fill:#ED1B2F;}
	.st87{opacity:0.8902;fill:#FFFFFF;}
	.st88{clip-path:url(#SVGID_32_);fill:#FFFFFF;}
	.st89{fill:url(#SVGID_33_);}
	.st90{fill:url(#SVGID_34_);}
	.st91{fill:url(#SVGID_35_);}
	.st92{fill:url(#SVGID_36_);}
	.st93{fill:url(#SVGID_37_);}
	.st94{fill:url(#SVGID_38_);}
	.st95{fill:url(#SVGID_39_);}
	.st96{fill:url(#SVGID_40_);}
	.st97{clip-path:url(#SVGID_42_);fill:url(#SVGID_43_);}
	.st98{fill:url(#SVGID_44_);}
	.st99{fill:url(#path70_5_);}
	.st100{fill:url(#SVGID_45_);}
	.st101{fill:url(#SVGID_46_);}
	.st102{fill:#F8B900;}
	.st103{fill:#00235F;}
	.st104{fill:url(#SVGID_47_);}
	.st105{fill:url(#SVGID_48_);}
	.st106{fill:url(#SVGID_49_);}
	.st107{fill:url(#SVGID_50_);}
	.st108{fill:url(#SVGID_51_);}
	.st109{fill:url(#SVGID_52_);}
	.st110{opacity:0.8902;fill:#EB151C;enable-background:new    ;}
	.st111{fill:#E11837;}
	.st112{fill:#E2231A;}
	.st113{fill:#001689;}
	.st114{fill:#EF3E34;}
	.st115{fill:#4D82C4;}
	.st116{fill:#8C7035;}
	.st117{fill:#5FBA45;}
	.st118{fill:#008F7E;}
	.st119{fill:#004595;}
	.st120{fill:#FFED00;}
	.st121{fill:#E53138;}
	.st122{fill:url(#SVGID_53_);}
	.st123{fill:url(#SVGID_54_);}
	.st124{fill:url(#SVGID_55_);}
	.st125{fill:url(#SVGID_56_);}
	.st126{fill:#11185E;}
	.st127{fill:#EE3024;}
	.st128{fill:#0675CC;}
	.st129{fill:#E2001A;}
	.st130{fill:#009036;}
	.st131{fill:#0B1560;}
	.st132{fill:#0070AF;}
	.st133{fill:#0F2C64;}
	.st134{fill:#EF001E;}
	.st135{fill:#1C2A8D;}
	.st136{fill:#334357;}
	.st137{fill:url(#SVGID_57_);}
	.st138{fill:#ED1B28;}
	.st139{fill:#1E5AAF;}
	.st140{fill:#991933;}
	.st141{fill:#E01933;}
	.st142{fill:#003366;}
	.st143{fill:#00265D;}
	.st144{fill:#003263;}
	.st145{fill:#EE452A;}
	.st146{fill:#011F65;}
	.st147{fill:#EC2227;}
	.st148{fill:#010101;}
	.st149{fill:#FCEE21;}
	.st150{fill:#18488B;}
	.st151{fill:#EC2427;}
	.st152{fill:#D09B2B;}
	.st153{fill:#156192;}
	.st154{fill:#021A31;}
	.st155{fill:#008E8F;}
	.st156{fill:#2B438F;}
	.st157{fill:#363F9E;}
	.st158{fill:#00ABBF;}
</style>
<g id="Layer_1" class="st0">
</g>
<g id="Layer_2" class="st0">
</g>
<g id="Layer_3">
</g>
<g id="Layer_4">
	<g>
		<path class="st145" d="M6.513,27.611C6.513,28.934,5.059,30,3.253,30C1.453,30,0,28.934,0,27.611c0-1.317,1.455-2.395,3.257-2.395
			C5.059,25.211,6.513,26.289,6.513,27.611"/>
		<path class="st145" d="M8.788,21.903c0,1.108-1.273,2.001-2.853,2.011c-1.584-0.01-2.861-0.903-2.861-2.011
			s1.277-1.987,2.861-1.987C7.515,19.909,8.788,20.794,8.788,21.903"/>
		<path class="st145" d="M10.657,17.14c0,0.887-1.087,1.609-2.43,1.613c-1.348,0-2.441-0.722-2.441-1.613
			c0-0.885,1.095-1.609,2.441-1.609C9.57,15.531,10.657,16.259,10.657,17.14"/>
		<path class="st145" d="M15.629,4.139c-0.004,0.35-0.568,0.636-1.269,0.636s-1.273-0.286-1.273-0.636
			c0-0.356,0.572-0.636,1.273-0.636S15.625,3.781,15.629,4.139"/>
		<path class="st145" d="M17.098,0.461c0,0.253-0.426,0.455-0.954,0.455c-0.531,0-0.954-0.201-0.958-0.455
			C15.186,0.211,15.613,0,16.144,0C16.671,0,17.098,0.211,17.098,0.461"/>
		<path class="st145" d="M16.405,2.204c0,0.296-0.489,0.527-1.105,0.531c-0.604,0-1.097-0.235-1.097-0.531
			c0-0.29,0.493-0.525,1.097-0.525C15.914,1.679,16.405,1.915,16.405,2.204"/>
		<path class="st145" d="M12.235,12.957c0,0.718-0.927,1.297-2.073,1.297c-1.137,0-2.067-0.579-2.067-1.297
			c0-0.714,0.927-1.299,2.067-1.299C11.308,11.659,12.235,12.243,12.235,12.957"/>
		<path class="st145" d="M13.603,9.471c0,0.567-0.79,1.036-1.774,1.036c-0.976,0-1.766-0.469-1.766-1.036
			c0-0.579,0.79-1.046,1.766-1.046C12.813,8.425,13.603,8.892,13.603,9.471"/>
		<path class="st145" d="M14.112,27.212c0,1.193-1.323,2.148-2.956,2.148s-2.96-0.959-2.96-2.148c0-1.189,1.327-2.156,2.956-2.156
			C12.788,25.056,14.112,26.022,14.112,27.212"/>
		<path class="st145" d="M20.615,25.426c0,1.048-1.194,1.893-2.667,1.893c-1.469,0-2.663-0.845-2.663-1.893
			c0-1.048,1.194-1.905,2.663-1.905C19.419,23.52,20.615,24.377,20.615,25.426"/>
		<path class="st145" d="M23.934,21.776c0,0.821-0.976,1.492-2.188,1.492c-1.198,0-2.174-0.672-2.174-1.492
			c0-0.835,0.976-1.506,2.174-1.506C22.954,20.27,23.934,20.941,23.934,21.776"/>
		<path class="st145" d="M20.758,15.267c0,0.551-0.713,0.992-1.584,0.992c-0.883,0-1.596-0.44-1.596-0.992c0-0.547,0.713-1,1.596-1
			C20.047,14.268,20.758,14.718,20.758,15.267"/>
		<path class="st145" d="M14.772,6.557c0,0.459-0.671,0.833-1.503,0.833c-0.826,0-1.499-0.376-1.499-0.833
			c0-0.457,0.673-0.827,1.499-0.827C14.1,5.73,14.772,6.102,14.772,6.557"/>
		<path class="st145" d="M23.352,17.989c0,0.672-0.826,1.213-1.855,1.213c-1.02,0-1.849-0.545-1.849-1.213
			c0-0.66,0.828-1.209,1.855-1.209C22.524,16.784,23.352,17.329,23.352,17.989"/>
		<path class="st146" d="M33.714,27.11V9.407h2.836v6.539c0.909-0.318,1.774-0.477,2.586-0.477c1.774,0,3.144,0.585,4.119,1.76
			c0.844,1.02,1.271,2.357,1.271,3.994c0,2.148-0.719,3.767-2.162,4.833c-1.251,0.947-2.99,1.414-5.212,1.414
			C36.205,27.47,35.056,27.355,33.714,27.11 M36.551,18.111v6.999c0.404,0.062,0.772,0.101,1.097,0.101
			c2.649,0,3.974-1.271,3.974-3.805c0-1.233-0.331-2.164-0.98-2.788c-0.576-0.551-1.339-0.833-2.317-0.833
			C37.767,17.79,37.177,17.894,36.551,18.111"/>
		<path class="st146" d="M47.442,27.319V16.494c1.651-0.67,3.317-1.006,5.008-1.006c0.808,0,1.572,0.109,2.281,0.332v2.383
			c-0.602-0.221-1.269-0.324-1.988-0.324c-0.834,0-1.651,0.147-2.459,0.449v8.996"/>
		<path class="st146" d="M56.612,15.678h2.843v6.949c0,0.971,0.208,1.633,0.612,1.973c0.354,0.308,0.962,0.461,1.81,0.461
			c0.572,0,1.202-0.078,1.899-0.215v-9.167h2.849v11.237c-1.903,0.37-3.562,0.553-4.99,0.553c-1.8,0-3.109-0.362-3.925-1.078
			c-0.426-0.412-0.715-0.907-0.885-1.506c-0.141-0.535-0.212-1.241-0.212-2.14"/>
		<path class="st146" d="M69.742,26.917v-2.578c1.117,0.698,2.174,1.048,3.168,1.048c1.265,0,1.899-0.394,1.899-1.185
			c0-0.539-0.376-0.967-1.117-1.311l-1.15-0.543c-1.061-0.489-1.796-1.03-2.232-1.611c-0.378-0.507-0.568-1.118-0.568-1.812
			c0-1.13,0.453-2.003,1.366-2.635c0.798-0.545,1.82-0.823,3.083-0.823c1.038,0,2.051,0.213,3.012,0.64v2.436
			c-0.958-0.587-1.895-0.885-2.812-0.885c-1.265,0-1.893,0.376-1.893,1.126c0,0.3,0.127,0.559,0.386,0.758
			c0.238,0.183,0.782,0.459,1.62,0.863c1.166,0.589,1.952,1.116,2.346,1.559c0.505,0.583,0.764,1.285,0.764,2.122
			c0,1.175-0.471,2.082-1.394,2.719c-0.808,0.561-1.871,0.843-3.198,0.843C71.886,27.641,70.791,27.397,69.742,26.917"/>
		<path class="st146" d="M79.886,26.917v-2.578c1.127,0.698,2.186,1.048,3.176,1.048c1.265,0,1.899-0.394,1.899-1.185
			c0-0.539-0.378-0.967-1.127-1.311l-1.139-0.543c-1.065-0.489-1.802-1.03-2.232-1.611c-0.382-0.507-0.576-1.118-0.576-1.812
			c0-1.13,0.461-2.003,1.372-2.635c0.79-0.545,1.81-0.823,3.083-0.823c1.042,0,2.04,0.213,3.016,0.64v2.436
			c-0.964-0.587-1.895-0.885-2.82-0.885c-1.261,0-1.889,0.376-1.889,1.126c0,0.3,0.127,0.559,0.386,0.758
			c0.242,0.183,0.776,0.459,1.622,0.863c1.166,0.589,1.948,1.116,2.342,1.559c0.511,0.583,0.76,1.285,0.76,2.122
			c0,1.175-0.467,2.082-1.392,2.719c-0.804,0.561-1.873,0.843-3.194,0.843C82.038,27.641,80.941,27.397,79.886,26.917"/>
		<path class="st146" d="M100.691,22.035H92.67c0.119,2.152,1.329,3.24,3.62,3.24c1.402,0,2.675-0.404,3.806-1.235v2.375
			c-1.313,0.79-2.727,1.183-4.241,1.183c-1.992,0-3.517-0.585-4.57-1.782c-0.913-1.024-1.37-2.42-1.37-4.157
			c0-1.991,0.584-3.566,1.766-4.73c1.032-1.006,2.346-1.512,3.931-1.512c1.117,0,2.089,0.28,2.911,0.813
			c0.723,0.471,1.259,1.102,1.61,1.889c0.376,0.837,0.554,2.126,0.554,3.87 M92.854,20.01h5.091
			c-0.127-1.625-0.917-2.438-2.374-2.438c-0.772,0-1.394,0.247-1.881,0.73C93.256,18.729,92.982,19.292,92.854,20.01"/>
		<rect x="103.616" y="9.407" class="st146" width="2.847" height="17.916"/>
		<path class="st146" d="M109.608,26.917v-2.578c1.117,0.698,2.178,1.048,3.174,1.048c1.259,0,1.893-0.394,1.893-1.185
			c0-0.539-0.374-0.967-1.123-1.311l-1.141-0.543c-1.059-0.489-1.8-1.03-2.23-1.611c-0.386-0.507-0.572-1.118-0.572-1.812
			c0-1.13,0.455-2.003,1.374-2.635c0.792-0.545,1.812-0.823,3.077-0.823c1.042,0,2.045,0.213,3.006,0.64v2.436
			c-0.952-0.587-1.893-0.885-2.802-0.885c-1.275,0-1.895,0.376-1.895,1.126c0,0.3,0.125,0.559,0.384,0.758
			c0.228,0.183,0.778,0.459,1.618,0.863c1.168,0.589,1.952,1.116,2.348,1.559c0.505,0.583,0.766,1.285,0.766,2.122
			c0,1.175-0.467,2.082-1.398,2.719c-0.81,0.561-1.875,0.843-3.194,0.843C111.75,27.641,110.665,27.397,109.608,26.917"/>
		<path class="st146" d="M125.221,19.095v-2.436c1.485-0.796,3.006-1.191,4.542-1.191c1.681,0,2.774,0.491,3.279,1.474
			c0.253,0.497,0.386,1.414,0.386,2.765v7.379c-2.01,0.292-3.647,0.428-4.909,0.428c-1.475,0-2.521-0.294-3.158-0.899
			c-0.554-0.535-0.822-1.329-0.822-2.387c0-1.589,0.667-2.705,2.008-3.351c0.885-0.432,2.23-0.74,4.026-0.941l0.236-0.02v-0.416
			c0-0.692-0.131-1.152-0.418-1.39c-0.253-0.215-0.667-0.322-1.261-0.322C127.902,17.79,126.591,18.226,125.221,19.095
			 M130.864,25.149v-3.099c-1.461,0.121-2.459,0.336-3.008,0.67c-0.475,0.292-0.705,0.718-0.705,1.299
			c0,0.881,0.509,1.315,1.552,1.315C129.28,25.34,129.997,25.276,130.864,25.149"/>
		<path class="st146" d="M136.902,10.453h2.925v3.029h-2.925V10.453z M136.951,15.704h2.843v11.619h-2.843V15.704z"/>
		<path class="st146" d="M143.458,27.319V16.494c1.651-0.67,3.317-1.006,5.018-1.006c0.8,0,1.56,0.109,2.275,0.332v2.383
			c-0.608-0.221-1.273-0.324-1.988-0.324c-0.842,0-1.657,0.147-2.459,0.449v8.996"/>
		<rect x="153.037" y="9.407" class="st146" width="2.849" height="17.916"/>
		<path class="st146" d="M159.53,10.453h2.929v3.029h-2.929V10.453z M159.574,15.704h2.845v11.619h-2.845V15.704z"/>
		<path class="st146" d="M166.092,27.319v-11.05c1.836-0.527,3.598-0.782,5.297-0.782c1.836,0,3.131,0.39,3.883,1.187
			c0.624,0.67,0.939,1.728,0.939,3.182v7.464h-2.849v-7.271c0-0.881-0.198-1.476-0.6-1.81c-0.362-0.294-0.939-0.449-1.727-0.449
			c-0.671,0-1.374,0.111-2.095,0.322v9.208"/>
		<path class="st146" d="M189.787,22.035h-8.023c0.119,2.152,1.323,3.24,3.608,3.24c1.414,0,2.683-0.404,3.814-1.235v2.375
			c-1.309,0.79-2.731,1.183-4.237,1.183c-1.99,0-3.517-0.585-4.574-1.782c-0.905-1.024-1.372-2.42-1.372-4.157
			c0-1.991,0.592-3.566,1.764-4.73c1.032-1.006,2.348-1.512,3.929-1.512c1.121,0,2.091,0.28,2.915,0.813
			c0.725,0.471,1.257,1.102,1.618,1.889c0.364,0.837,0.548,2.126,0.548,3.87 M181.953,20.01h5.091
			c-0.127-1.625-0.917-2.438-2.38-2.438c-0.766,0-1.394,0.247-1.879,0.73C182.351,18.729,182.08,19.292,181.953,20.01"/>
		<path class="st146" d="M192.143,26.917v-2.578c1.121,0.698,2.178,1.048,3.172,1.048c1.263,0,1.895-0.394,1.895-1.185
			c0-0.539-0.38-0.967-1.127-1.311l-1.143-0.543c-1.053-0.489-1.8-1.03-2.232-1.611c-0.376-0.507-0.564-1.118-0.564-1.814
			c0-1.13,0.449-2.003,1.366-2.635c0.794-0.545,1.814-0.823,3.081-0.823c1.04,0,2.049,0.213,3.006,0.64v2.436
			c-0.95-0.587-1.895-0.885-2.818-0.885c-1.251,0-1.883,0.376-1.883,1.126c0,0.3,0.127,0.559,0.38,0.758
			c0.238,0.183,0.786,0.459,1.624,0.863c1.168,0.589,1.954,1.116,2.348,1.559c0.505,0.583,0.754,1.285,0.754,2.122
			c0,1.175-0.463,2.082-1.386,2.719c-0.814,0.561-1.875,0.843-3.196,0.843C194.289,27.641,193.19,27.397,192.143,26.917"/>
	</g>
</g>
</svg>
