<?xml version="1.0" encoding="utf-8"?>
<!-- Generator: Adobe Illustrator 18.0.0, SVG Export Plug-In . SVG Version: 6.00 Build 0)  -->
<!DOCTYPE svg PUBLIC "-//W3C//DTD SVG 1.1//EN" "http://www.w3.org/Graphics/SVG/1.1/DTD/svg11.dtd">
<svg version="1.1" xmlns="http://www.w3.org/2000/svg" xmlns:xlink="http://www.w3.org/1999/xlink" x="0px" y="0px" width="200px"
	 height="32.839px" viewBox="0 0 200 32.839" style="enable-background:new 0 0 200 32.839;" xml:space="preserve">
<style type="text/css">
	.st0{display:none;}
	.st1{display:inline;}
	.st2{fill:#ED2D27;}
	.st3{display:inline;fill:#F8B900;}
	.st4{display:inline;fill:#00235F;}
	.st5{fill:url(#SVGID_1_);}
	.st6{fill:#006CB6;}
	.st7{fill:url(#SVGID_2_);}
	.st8{fill:url(#SVGID_3_);}
	.st9{fill:url(#SVGID_4_);}
	.st10{fill:url(#SVGID_5_);}
	.st11{fill:url(#SVGID_6_);}
	.st12{fill-rule:evenodd;clip-rule:evenodd;fill:#FFFFFF;}
	.st13{fill-rule:evenodd;clip-rule:evenodd;fill:#E2231A;}
	.st14{fill:#FFFFFF;}
	.st15{fill-rule:evenodd;clip-rule:evenodd;fill:#001689;}
	.st16{fill:#00529B;}
	.st17{fill:#F47920;}
	.st18{fill:url(#SVGID_7_);}
	.st19{fill:url(#SVGID_8_);}
	.st20{fill:url(#SVGID_9_);}
	.st21{fill:url(#SVGID_10_);}
	.st22{fill:url(#SVGID_11_);}
	.st23{fill:url(#SVGID_12_);}
	.st24{fill:url(#SVGID_13_);}
	.st25{fill:#00054C;}
	.st26{fill:url(#path3364_3_);}
	.st27{fill:url(#path3366_3_);}
	.st28{fill:#22356B;}
	.st29{fill:#FCC210;}
	.st30{fill:#ED1C24;}
	.st31{display:inline;fill:url(#SVGID_14_);}
	.st32{fill:#002157;}
	.st33{fill:#CC2234;}
	.st34{fill:#E23546;}
	.st35{fill:#FCB130;}
	.st36{fill:#1D4886;}
	.st37{display:inline;fill:none;}
	.st38{display:inline;fill:#005DAA;}
	.st39{fill:#005DAA;}
	.st40{fill:#00A1E4;}
	.st41{fill:#00704A;}
	.st42{fill:#B10D28;}
	.st43{fill:#D31245;}
	.st44{fill:url(#path70_3_);}
	.st45{fill:url(#SVGID_15_);}
	.st46{fill:url(#SVGID_16_);}
	.st47{fill:#231916;}
	.st48{fill:#E60013;}
	.st49{fill:#C0231E;}
	.st50{fill:#014E84;}
	.st51{fill:#BA783E;}
	.st52{fill:#002052;}
	.st53{fill:#0093D0;}
	.st54{fill:#ED1B2F;}
	.st55{fill:#E3242B;}
	.st56{fill-rule:evenodd;clip-rule:evenodd;fill:#034EA2;}
	.st57{fill-rule:evenodd;clip-rule:evenodd;fill:#E11837;}
	.st58{fill:#034EA2;}
	.st59{opacity:0.8902;fill:#EB151C;}
	.st60{fill:#1A1A1A;}
	.st61{enable-background:new    ;}
	.st62{fill:#FF6600;}
	.st63{clip-path:url(#SVGID_18_);fill:url(#SVGID_19_);}
	.st64{fill:url(#SVGID_20_);}
	.st65{fill:#B2DB1F;}
	.st66{fill:#FA002C;}
	.st67{fill:#1C2D5B;}
	.st68{fill:#1C4E9D;}
	.st69{fill:#ED192D;}
	.st70{display:inline;fill:#FFFFFF;}
	.st71{display:inline;fill:#00529B;}
	.st72{display:inline;fill:#F47920;}
	.st73{display:inline;fill:url(#SVGID_21_);}
	.st74{display:inline;fill:url(#SVGID_22_);}
	.st75{display:inline;fill:url(#SVGID_23_);}
	.st76{display:inline;fill:url(#SVGID_24_);}
	.st77{display:inline;fill:url(#SVGID_25_);}
	.st78{display:inline;fill:url(#SVGID_26_);}
	.st79{display:inline;fill:url(#SVGID_27_);}
	.st80{display:inline;fill:url(#path3364_4_);}
	.st81{display:inline;fill:url(#path3366_4_);}
	.st82{display:inline;fill:url(#SVGID_28_);}
	.st83{display:inline;fill:url(#SVGID_29_);}
	.st84{display:inline;fill:url(#SVGID_30_);}
	.st85{display:inline;opacity:0.75;fill:#FFFFFF;}
	.st86{display:inline;fill:#ED1B2F;}
	.st87{opacity:0.8902;fill:#FFFFFF;}
	.st88{clip-path:url(#SVGID_32_);fill:#FFFFFF;}
	.st89{fill:url(#SVGID_33_);}
	.st90{fill:url(#SVGID_34_);}
	.st91{fill:url(#SVGID_35_);}
	.st92{fill:url(#SVGID_36_);}
	.st93{fill:url(#SVGID_37_);}
	.st94{fill:url(#SVGID_38_);}
	.st95{fill:url(#SVGID_39_);}
	.st96{fill:url(#SVGID_40_);}
	.st97{clip-path:url(#SVGID_42_);fill:url(#SVGID_43_);}
	.st98{fill:url(#SVGID_44_);}
	.st99{fill:url(#path70_5_);}
	.st100{fill:url(#SVGID_45_);}
	.st101{fill:url(#SVGID_46_);}
	.st102{fill:#F8B900;}
	.st103{fill:#00235F;}
	.st104{fill:url(#SVGID_47_);}
	.st105{fill:url(#SVGID_48_);}
	.st106{fill:url(#SVGID_49_);}
	.st107{fill:url(#SVGID_50_);}
	.st108{fill:url(#SVGID_51_);}
	.st109{fill:url(#SVGID_52_);}
	.st110{opacity:0.8902;fill:#EB151C;enable-background:new    ;}
	.st111{fill:#E11837;}
	.st112{fill:#E2231A;}
	.st113{fill:#001689;}
	.st114{fill:#EF3E34;}
	.st115{fill:#4D82C4;}
	.st116{fill:#8C7035;}
	.st117{fill:#5FBA45;}
	.st118{fill:#008F7E;}
	.st119{fill:#004595;}
	.st120{fill:#FFED00;}
	.st121{fill:#E53138;}
	.st122{fill:url(#SVGID_53_);}
	.st123{fill:url(#SVGID_54_);}
	.st124{fill:url(#SVGID_55_);}
	.st125{fill:url(#SVGID_56_);}
	.st126{fill:#11185E;}
	.st127{fill:#EE3024;}
	.st128{fill:#0675CC;}
	.st129{fill:#E2001A;}
	.st130{fill:#009036;}
	.st131{fill:#0B1560;}
	.st132{fill:#0070AF;}
	.st133{fill:#0F2C64;}
	.st134{fill:#EF001E;}
	.st135{fill:#1C2A8D;}
	.st136{fill:#334357;}
	.st137{fill:url(#SVGID_57_);}
	.st138{fill:#ED1B28;}
	.st139{fill:#1E5AAF;}
	.st140{fill:#991933;}
	.st141{fill:#E01933;}
	.st142{fill:#003366;}
	.st143{fill:#00265D;}
	.st144{fill:#003263;}
	.st145{fill:#EE452A;}
	.st146{fill:#011F65;}
	.st147{fill:#EC2227;}
	.st148{fill:#010101;}
	.st149{fill:#FCEE21;}
	.st150{fill:#18488B;}
	.st151{fill:#EC2427;}
	.st152{fill:#D09B2B;}
	.st153{fill:#156192;}
	.st154{fill:#021A31;}
	.st155{fill:#008E8F;}
	.st156{fill:#2B438F;}
	.st157{fill:#363F9E;}
	.st158{fill:#00ABBF;}
</style>
<g id="Layer_1" class="st0">
</g>
<g id="Layer_2" class="st0">
</g>
<g id="Layer_3">
	<g>
		<g>
			<g>
				<path class="st51" d="M32.838,16.421c0,9.068-7.352,16.418-16.419,16.418C7.351,32.839,0,25.489,0,16.421S7.351,0,16.419,0
					C25.486,0,32.838,7.353,32.838,16.421L32.838,16.421z"/>
				<path class="st52" d="M31.63,16.421c0,8.401-6.811,15.211-15.211,15.211c-8.401,0-15.211-6.81-15.211-15.211
					c0-8.403,6.81-15.211,15.211-15.211C24.819,1.21,31.63,8.018,31.63,16.421L31.63,16.421z"/>
				<polygon class="st53" points="28.104,8.08 21.418,8.08 4.733,24.759 21.418,24.759 				"/>
				<path class="st14" d="M20.285,14.504c-0.257-0.124-0.433-0.386-0.433-0.688c0-0.421,0.342-0.765,0.764-0.765
					c0.423,0,0.765,0.345,0.765,0.765c0,0.305-0.18,0.568-0.436,0.689l-0.002,0.216c0.24,0.024,0.523,0.12,0.698,0.21
					c0.078-0.007,0.18-0.009,0.282-0.009c0.966,0,1.642,0.636,1.642,1.513c0,0.547-0.486,1.038-1.031,1.038
					c-0.547,0-1.042-0.537-0.943-1.076c0,0-0.058,0.185-0.058,0.412c0,0.146,0,2.76,0,2.76c-0.022,0.313-0.444,2.047-2.394,2.047
					c-1.949,0-2.373-1.735-2.395-2.047c0,0,0-2.614,0-2.76c0-0.227-0.059-0.412-0.059-0.412c0.106,0.52-0.397,1.076-0.942,1.076
					c-0.546,0-1.032-0.491-1.032-1.038c0-0.877,0.676-1.513,1.644-1.513c0.1,0,0.202,0.003,0.28,0.009
					c0.175-0.09,0.473-0.194,0.697-0.21v-0.218c-0.255-0.124-0.433-0.385-0.433-0.686c0-0.421,0.343-0.765,0.765-0.765
					c0.423,0,0.765,0.345,0.765,0.765c0,0.305-0.178,0.571-0.437,0.691l-0.002,0.286c0.065,0.023,0.133,0.045,0.197,0.075
					c0.116-0.255,0.355-0.453,0.624-0.544v-0.233c-0.258-0.124-0.437-0.384-0.437-0.689c0-0.422,0.343-0.765,0.765-0.765
					s0.765,0.343,0.765,0.765c0,0.305-0.179,0.568-0.435,0.69l-0.001,0.231c0.268,0.091,0.505,0.29,0.62,0.545
					c0.063-0.03,0.132-0.053,0.196-0.075L20.285,14.504L20.285,14.504z"/>
				<path class="st54" d="M23.258,16.433c0.005-0.71-0.483-1.29-1.478-1.29c-0.663,0-1.45,0.556-1.45,1.973c0,1.112,0,2.108,0,2.108
					c0.286-0.189,0.684-0.363,0.902-0.365c0-0.622,0-1.854,0-1.963c0-0.751,0.541-0.973,0.794-0.972
					c-0.145,0.13-0.229,0.292-0.229,0.508c0,0.401,0.331,0.732,0.732,0.732C22.928,17.165,23.241,16.872,23.258,16.433
					L23.258,16.433z"/>
				<path class="st54" d="M15.016,16.433c-0.006-0.71,0.483-1.29,1.478-1.29c0.662,0,1.451,0.556,1.451,1.973
					c0,1.112,0,2.108,0,2.108c-0.287-0.189-0.685-0.363-0.903-0.365c0-0.622,0-1.854,0-1.963c0-0.751-0.541-0.973-0.794-0.972
					c0.144,0.13,0.23,0.292,0.23,0.508c0,0.401-0.332,0.732-0.733,0.732C15.345,17.165,15.034,16.872,15.016,16.433L15.016,16.433z"
					/>
				<path class="st54" d="M19.137,21.307c1.671,0,2.048-1.398,2.097-1.755c0,0,0-0.395,0-0.472
					c-0.516,0.128-0.977,0.403-1.291,0.813c-0.11-0.481-0.413-0.889-0.806-1.155c-0.393,0.265-0.695,0.674-0.809,1.155
					c-0.312-0.411-0.773-0.684-1.289-0.813c0,0.077,0,0.472,0,0.472C17.089,19.909,17.467,21.307,19.137,21.307L19.137,21.307z"/>
				<path class="st54" d="M19.255,13.925v0.58c0.283,0.039,0.539,0.238,0.626,0.472c-0.339,0.221-0.614,0.555-0.745,0.971
					c-0.131-0.416-0.404-0.75-0.743-0.971c0.104-0.234,0.345-0.433,0.625-0.472v-0.581c-0.236-0.054-0.415-0.267-0.415-0.522
					c0-0.297,0.241-0.536,0.537-0.536c0.296,0,0.538,0.238,0.538,0.536C19.676,13.658,19.495,13.873,19.255,13.925L19.255,13.925z"
					/>
				<path class="st54" d="M17.78,14.339v0.617c0.729,0.146,1.247,0.917,1.247,1.627c0,0.755,0,1.974,0,1.974
					c-0.343,0.192-0.674,0.594-0.783,0.93c-0.027-0.032-0.052-0.063-0.089-0.096c0,0,0-1.446,0-2.554
					c0-0.769-0.413-1.543-1.151-1.796c0,0,0.24-0.101,0.539-0.098v-0.606c-0.238-0.052-0.416-0.266-0.416-0.52
					c0-0.297,0.24-0.538,0.537-0.538s0.537,0.24,0.537,0.538C18.2,14.07,18.021,14.285,17.78,14.339L17.78,14.339z"/>
				<path class="st54" d="M20.73,14.339v0.602c0.3-0.003,0.54,0.098,0.54,0.098c-0.737,0.254-1.15,1.039-1.15,1.796
					c0,1.108,0,2.554,0,2.554c-0.038,0.033-0.063,0.064-0.091,0.096c-0.108-0.337-0.439-0.738-0.782-0.93
					c0,0-0.001-1.219-0.001-1.974c0-0.71,0.518-1.481,1.248-1.627v-0.618c-0.236-0.055-0.415-0.266-0.415-0.52
					c0-0.297,0.239-0.538,0.536-0.538s0.538,0.24,0.538,0.538C21.152,14.07,20.969,14.287,20.73,14.339L20.73,14.339z"/>
			</g>
			<g>
				<path class="st52" d="M116.76,16.36c0-2.859,1.872-5.186,4.172-5.186c2.305,0,4.181,2.326,4.181,5.186
					c0,2.856-1.876,5.183-4.181,5.183C118.631,21.543,116.76,19.216,116.76,16.36z M120.932,9.038c-3.979,0-7.219,3.281-7.219,7.31
					c0,4.033,3.239,7.314,7.219,7.314c3.985,0,7.227-3.281,7.227-7.314C128.159,12.319,124.917,9.038,120.932,9.038z"/>
				<path class="st52" d="M66.271,9.273h-2.766c0,0,0,4.955,0,5.644c-0.638,0-4.272,0-4.911,0c0-0.689,0-5.644,0-5.644H55.42v14.243
					h3.174c0,0,0-5.438,0-6.134c0.638,0,4.272,0,4.911,0c0,0.695,0,6.134,0,6.134h3.165V9.273H66.271z"/>
				<polygon class="st52" points="71.789,9.28 71.571,9.281 71.572,9.281 69.016,9.292 69.016,23.516 72.191,23.516 72.191,9.275 
									"/>
				<path class="st52" d="M75.802,9.31h-1.211v14.205h2.469c0,0,0-6.514,0-8.119c1.158,1.27,7.397,8.119,7.397,8.119h1.378V9.31
					h-2.401c0,0,0,6.608,0,8.222c-1.161-1.279-7.454-8.222-7.454-8.222H75.802z"/>
				<path class="st52" d="M41.573,16.264c0,3.689,2.516,7.422,7.329,7.422c1.447,0,2.89-0.207,4.411-0.634l0.158-0.045l0.293-0.079
					l-0.002-2.957l-0.992,0.468c-1.014,0.487-1.809,0.827-2.946,0.827c-1.498,0-2.731-0.524-3.563-1.513
					c-0.739-0.877-1.146-2.085-1.146-3.404c0-2.399,1.359-4.826,3.957-4.826c2.037,0,2.983,0.32,3.675,0.554
					c0.006,0.001,1.019,0.345,1.019,0.345l-0.001-0.862V9.65l-0.498-0.099c-1.095-0.216-2.33-0.425-4.328-0.425
					C43.879,9.126,41.573,12.826,41.573,16.264z"/>
				<path class="st52" d="M174.911,9.31h-9.251v14.205h9.655V21.03c0,0-5.741,0-6.447,0c0-0.605,0-3.165,0-3.77
					c0.707,0,6.459,0,6.459,0v-2.431c0,0-5.752,0-6.459,0c0-0.572,0-2.501,0-3.073c0.707,0,6.447,0,6.447,0V9.31L174.911,9.31
					L174.911,9.31z"/>
				<path class="st52" d="M140.85,9.31v2.524c0,0,3.301,0,3.945,0c0,0.743,0,11.682,0,11.682h3.179c0,0,0-10.938,0-11.682
					c0.644,0,3.907,0,3.907,0V9.31H140.85z"/>
				<path class="st52" d="M139.546,9.314h-2.001v9.2c0,1.494-1.328,2.608-2.516,2.608c-1.408,0-2.862-0.964-2.862-2.58V9.314h-3.145
					v9.095c0,2.475,2.079,5.149,5.44,5.149c3.994,0,5.482-3.175,5.482-5.175v-9.07H139.546z"/>
				<path class="st52" d="M189.943,9.287h-1.213v14.229h2.475c0,0,0-6.521,0-8.124c1.157,1.267,7.415,8.124,7.415,8.124H200V9.287
					h-2.407c0,0,0,6.624,0,8.239c-1.16-1.279-7.474-8.239-7.474-8.239H189.943z"/>
				<path class="st52" d="M163.647,9.31h-2.754c0,0,0,4.942,0,5.628c-0.636,0-4.264,0-4.901,0c0-0.685,0-5.628,0-5.628h-3.164
					v14.205h3.164c0,0,0-5.425,0-6.12c0.636,0,4.265,0,4.901,0c0,0.695,0,6.12,0,6.12h3.152V9.31H163.647z"/>
				<path class="st52" d="M94.117,9.197l4.365,14.319l-3.573,0.009c0,0-0.964-3.516-1.102-4.021c-0.462,0-2.49,0-2.946,0
					c-0.144,0.496-1.173,4.021-1.173,4.021l-2.849-0.009L91.15,9.197h2.67H94.117z M92.238,13.251l-1.103,3.822h2.089l-0.081-0.37
					L92.238,13.251z"/>
				<path class="st52" d="M111.679,16.194c-1.221-0.931-2.139-1.543-3.311-2.288c-0.69-0.434-1.02-1.129-0.769-1.613
					c0.276-0.536,1.49-1.137,4.283,0.008l0.851,0.348l-0.001-2.938l-0.451-0.127c-5.191-1.468-6.899,0.847-7.392,1.91
					c-0.251,0.541-0.369,1.127-0.369,1.71c0,1.277,0.571,2.532,1.579,3.211c0.003,0.002,3.614,2.401,3.614,2.401
					c0.264,0.174,0.572,0.482,0.572,0.955c0,0.023-0.002,0.046-0.003,0.071c-0.029,0.475-0.366,0.926-0.878,1.181
					c-0.964,0.477-2.331,0.206-3.751-0.743c-0.001,0-0.96-0.636-0.96-0.636s0,2.652,0,2.776c-0.001,0.005-0.005,0.016-0.01,0.029
					l0.015,0.48l0.538,0.215c4.216,1.419,6.734,0.045,7.686-1.726C113.865,19.657,113.343,17.462,111.679,16.194z"/>
				<g>
					<g>
						<g>
							<path class="st52" d="M184.318,16.851c1.347-0.471,2.496-1.324,2.496-3.663c0-2.863-2.441-3.88-4.532-3.88h-5.124v14.22
								h3.181c0,0,0-5.541,0-6.239h0.719c0.21,0.403,3.224,6.232,3.224,6.232h3.46C187.743,23.52,184.692,17.58,184.318,16.851z
								 M181.837,15.203l-1.716-0.004v-3.657h1.716c1.002,0.003,1.817,0.817,1.817,1.832
								C183.653,14.385,182.839,15.202,181.837,15.203z"/>
						</g>
					</g>
				</g>
			</g>
		</g>
	</g>
</g>
<g id="Layer_4">
</g>
</svg>
