<?xml version="1.0" encoding="utf-8"?>
<!-- Generator: Adobe Illustrator 18.0.0, SVG Export Plug-In . SVG Version: 6.00 Build 0)  -->
<!DOCTYPE svg PUBLIC "-//W3C//DTD SVG 1.1//EN" "http://www.w3.org/Graphics/SVG/1.1/DTD/svg11.dtd">
<svg version="1.1" xmlns="http://www.w3.org/2000/svg" xmlns:xlink="http://www.w3.org/1999/xlink" x="0px" y="0px" width="200px"
	 height="37px" viewBox="0 0 200 37" style="enable-background:new 0 0 200 37;" xml:space="preserve">
<style type="text/css">
	.st0{display:none;}
	.st1{display:inline;}
	.st2{fill:#ED2D27;}
	.st3{display:inline;fill:#F8B900;}
	.st4{display:inline;fill:#00235F;}
	.st5{fill:url(#SVGID_1_);}
	.st6{fill:#006CB6;}
	.st7{fill:url(#SVGID_2_);}
	.st8{fill:url(#SVGID_3_);}
	.st9{fill:url(#SVGID_4_);}
	.st10{fill:url(#SVGID_5_);}
	.st11{fill:url(#SVGID_6_);}
	.st12{fill-rule:evenodd;clip-rule:evenodd;fill:#FFFFFF;}
	.st13{fill-rule:evenodd;clip-rule:evenodd;fill:#E2231A;}
	.st14{fill:#FFFFFF;}
	.st15{fill-rule:evenodd;clip-rule:evenodd;fill:#001689;}
	.st16{fill:#00529B;}
	.st17{fill:#F47920;}
	.st18{fill:url(#SVGID_7_);}
	.st19{fill:url(#SVGID_8_);}
	.st20{fill:url(#SVGID_9_);}
	.st21{fill:url(#SVGID_10_);}
	.st22{fill:url(#SVGID_11_);}
	.st23{fill:url(#SVGID_12_);}
	.st24{fill:url(#SVGID_13_);}
	.st25{fill:#00054C;}
	.st26{fill:url(#path3364_3_);}
	.st27{fill:url(#path3366_3_);}
	.st28{fill:#22356B;}
	.st29{fill:#FCC210;}
	.st30{fill:#ED1C24;}
	.st31{display:inline;fill:url(#SVGID_14_);}
	.st32{fill:#002157;}
	.st33{fill:#CC2234;}
	.st34{fill:#E23546;}
	.st35{fill:#FCB130;}
	.st36{fill:#1D4886;}
	.st37{display:inline;fill:none;}
	.st38{display:inline;fill:#005DAA;}
	.st39{fill:#005DAA;}
	.st40{fill:#00A1E4;}
	.st41{fill:#00704A;}
	.st42{fill:#B10D28;}
	.st43{fill:#D31245;}
	.st44{fill:url(#path70_3_);}
	.st45{fill:url(#SVGID_15_);}
	.st46{fill:url(#SVGID_16_);}
	.st47{fill:#231916;}
	.st48{fill:#E60013;}
	.st49{fill:#C0231E;}
	.st50{fill:#014E84;}
	.st51{fill:#BA783E;}
	.st52{fill:#002052;}
	.st53{fill:#0093D0;}
	.st54{fill:#ED1B2F;}
	.st55{fill:#E3242B;}
	.st56{fill-rule:evenodd;clip-rule:evenodd;fill:#034EA2;}
	.st57{fill-rule:evenodd;clip-rule:evenodd;fill:#E11837;}
	.st58{fill:#034EA2;}
	.st59{opacity:0.8902;fill:#EB151C;}
	.st60{fill:#1A1A1A;}
	.st61{enable-background:new    ;}
	.st62{fill:#FF6600;}
	.st63{clip-path:url(#SVGID_18_);fill:url(#SVGID_19_);}
	.st64{fill:url(#SVGID_20_);}
	.st65{fill:#B2DB1F;}
	.st66{fill:#FA002C;}
	.st67{fill:#1C2D5B;}
	.st68{fill:#1C4E9D;}
	.st69{fill:#ED192D;}
	.st70{display:inline;fill:#FFFFFF;}
	.st71{display:inline;fill:#00529B;}
	.st72{display:inline;fill:#F47920;}
	.st73{display:inline;fill:url(#SVGID_21_);}
	.st74{display:inline;fill:url(#SVGID_22_);}
	.st75{display:inline;fill:url(#SVGID_23_);}
	.st76{display:inline;fill:url(#SVGID_24_);}
	.st77{display:inline;fill:url(#SVGID_25_);}
	.st78{display:inline;fill:url(#SVGID_26_);}
	.st79{display:inline;fill:url(#SVGID_27_);}
	.st80{display:inline;fill:url(#path3364_4_);}
	.st81{display:inline;fill:url(#path3366_4_);}
	.st82{display:inline;fill:url(#SVGID_28_);}
	.st83{display:inline;fill:url(#SVGID_29_);}
	.st84{display:inline;fill:url(#SVGID_30_);}
	.st85{display:inline;opacity:0.75;fill:#FFFFFF;}
	.st86{display:inline;fill:#ED1B2F;}
	.st87{opacity:0.8902;fill:#FFFFFF;}
	.st88{clip-path:url(#SVGID_32_);fill:#FFFFFF;}
	.st89{fill:url(#SVGID_33_);}
	.st90{fill:url(#SVGID_34_);}
	.st91{fill:url(#SVGID_35_);}
	.st92{fill:url(#SVGID_36_);}
	.st93{fill:url(#SVGID_37_);}
	.st94{fill:url(#SVGID_38_);}
	.st95{fill:url(#SVGID_39_);}
	.st96{fill:url(#SVGID_40_);}
	.st97{clip-path:url(#SVGID_42_);fill:url(#SVGID_43_);}
	.st98{fill:url(#SVGID_44_);}
	.st99{fill:url(#path70_5_);}
	.st100{fill:url(#SVGID_45_);}
	.st101{fill:url(#SVGID_46_);}
	.st102{fill:#F8B900;}
	.st103{fill:#00235F;}
	.st104{fill:url(#SVGID_47_);}
	.st105{fill:url(#SVGID_48_);}
	.st106{fill:url(#SVGID_49_);}
	.st107{fill:url(#SVGID_50_);}
	.st108{fill:url(#SVGID_51_);}
	.st109{fill:url(#SVGID_52_);}
	.st110{opacity:0.8902;fill:#EB151C;enable-background:new    ;}
	.st111{fill:#E11837;}
	.st112{fill:#E2231A;}
	.st113{fill:#001689;}
	.st114{fill:#EF3E34;}
	.st115{fill:#4D82C4;}
	.st116{fill:#8C7035;}
	.st117{fill:#5FBA45;}
	.st118{fill:#008F7E;}
	.st119{fill:#004595;}
	.st120{fill:#FFED00;}
	.st121{fill:#E53138;}
	.st122{fill:url(#SVGID_53_);}
	.st123{fill:url(#SVGID_54_);}
	.st124{fill:url(#SVGID_55_);}
	.st125{fill:url(#SVGID_56_);}
	.st126{fill:#11185E;}
	.st127{fill:#EE3024;}
	.st128{fill:#0675CC;}
	.st129{fill:#E2001A;}
	.st130{fill:#009036;}
	.st131{fill:#0B1560;}
	.st132{fill:#0070AF;}
	.st133{fill:#0F2C64;}
	.st134{fill:#EF001E;}
	.st135{fill:#1C2A8D;}
	.st136{fill:#334357;}
	.st137{fill:url(#SVGID_57_);}
	.st138{fill:#ED1B28;}
	.st139{fill:#1E5AAF;}
	.st140{fill:#991933;}
	.st141{fill:#E01933;}
	.st142{fill:#003366;}
	.st143{fill:#00265D;}
	.st144{fill:#003263;}
	.st145{fill:#EE452A;}
	.st146{fill:#011F65;}
	.st147{fill:#EC2227;}
	.st148{fill:#010101;}
	.st149{fill:#FCEE21;}
	.st150{fill:#18488B;}
	.st151{fill:#EC2427;}
	.st152{fill:#D09B2B;}
	.st153{fill:#156192;}
	.st154{fill:#021A31;}
	.st155{fill:#008E8F;}
	.st156{fill:#2B438F;}
	.st157{fill:#363F9E;}
	.st158{fill:#00ABBF;}
</style>
<g id="Layer_1" class="st0">
</g>
<g id="Layer_2" class="st0">
</g>
<g id="Layer_3">
</g>
<g id="Layer_4">
	<path class="st144" d="M199.961,19.165L199.961,19.165c-0.002-0.037-0.007-0.068-0.01-0.103c-0.066-1.48-0.558-2.802-1.248-3.827
		c-1.439-2.256-3.962-3.472-6.998-3.435c-3.036-0.037-5.56,1.179-6.999,3.435c-0.69,1.025-1.182,2.346-1.247,3.827
		c-0.003,0.034-0.008,0.066-0.01,0.103c-0.414,4.952,2.471,8.378,7.391,8.772c0.295,0.024,0.583,0.034,0.866,0.03
		c0.283,0.004,0.57-0.006,0.863-0.03C197.489,27.542,200.375,24.117,199.961,19.165z M195.594,21.01
		c-0.096,1.15-0.464,2.575-1.263,3.458c-0.142,0.159-0.287,0.3-0.434,0.422c-0.521,0.398-1.136,0.668-1.811,0.722
		c-0.131,0.011-0.258,0.015-0.38,0.017c-0.123-0.002-0.25-0.006-0.38-0.017c-0.723-0.067-1.291-0.323-1.811-0.722
		c-0.147-0.122-0.294-0.263-0.436-0.422c-0.755-0.855-1.166-2.308-1.262-3.458c-0.224-2.677,0.315-6.588,3.603-6.851
		c0.083-0.007,0.166-0.011,0.248-0.013c0.013,0,0.025-0.001,0.039,0c0.012-0.001,0.025,0,0.039,0
		c0.081,0.002,0.164,0.006,0.248,0.013C195.279,14.422,195.816,18.333,195.594,21.01z"/>
	<path class="st144" d="M167.249,15.479c0-1.225,0.121-3.379,0.121-3.379h-0.006h-4.027h-0.006c0,0,0.121,2.154,0.121,3.379
		l-0.008,8.826c0,1.224-0.11,3.313-0.11,3.313h0.007h4.02h0.01c0,0-0.111-2.089-0.111-3.313L167.249,15.479z"/>
	<path class="st144" d="M143.687,25.218c-0.842,0-1.951,0-2.805,0.002c-0.038-1.558-0.055-3.064-0.061-4.433l-0.003-0.212h0.002
		c0-0.013,0-0.026,0-0.036h4.658v-2.195h-4.654c0.014-2.363,0.058-3.915,0.058-3.915l5.784-0.005v-2.326c-4.042,0.015-9.88,0-9.88,0
		s0.087,2.143,0.087,3.367v8.809c0,1.12-0.071,3.023-0.083,3.34h10.255l0.009-2.462C147.054,25.152,145.035,25.218,143.687,25.218z"
		/>
	<path class="st144" d="M76.445,25.218c-0.843,0-1.951,0-2.805,0.002c-0.039-1.558-0.056-3.064-0.062-4.433l-0.003-0.21h0.003
		c0-0.015,0-0.028,0-0.038h4.658v-2.195h-4.654c0.013-2.362,0.058-3.915,0.058-3.915l5.782-0.004v-2.326
		c-4.041,0.014-9.879,0-9.879,0s0.087,2.141,0.087,3.365v8.809c0,1.12-0.07,3.025-0.083,3.34h10.255l0.007-2.462
		C79.811,25.152,77.793,25.218,76.445,25.218z"/>
	<path class="st144" d="M156.888,19.27l4.452-7.166h-3.084l-0.025,0.065c-0.934,1.615-2.095,3.566-2.558,4.279l-0.179,0.29
		l-2.58-4.634h-4.638l4.472,8.023l-4.66,7.491h3.067c1.988-3.396,3.007-4.958,3.007-4.958l2.767,4.958h4.618L156.888,19.27z"/>
	<path class="st144" d="M182.923,25.034c-0.333,0.114-1.464,0.471-3.094,0.471c-3.588,0-5.522-2.638-5.424-5.886
		c0.084-2.829,1.38-5.235,4.46-5.441c1.18-0.079,2.143,0.126,3.799,0.571l-0.169-2.425c0,0-1.401-0.448-3.412-0.525
		c-2.557-0.097-4.87,0.396-6.718,2.096c-1.641,1.51-2.625,3.744-2.625,5.912c0,2.402,0.987,4.615,2.841,6.145
		c1.926,1.624,3.994,1.991,6.449,1.991c1.614,0,2.562-0.107,4.127-0.529L182.923,25.034z"/>
	<path class="st144" d="M132.639,10.81l-0.124-1.036l-4.496,0.002l-3.834,10.449l-3.806-10.451h-4.589c0,0-0.173,1.542-0.281,2.452
		c-0.106,0.884-1.535,15.395-1.535,15.395h3.492c0,0,0.243-2.943,0.517-6.423c0.134-1.736,0.483-5.794,0.483-5.794l2.271,7.287
		c0.228,0.604,1.485,4.921,1.485,4.921s1.456,0.005,2.504,0l3.964-12.151l0.428,5.736l0.464,6.423h4.679
		C134.26,27.622,133.643,21.175,132.639,10.81z"/>
	<path class="st144" d="M112.089,19.184C112.089,19.184,112.089,19.184,112.089,19.184c-0.002-0.034-0.007-0.067-0.011-0.102
		c-0.065-1.474-0.554-2.791-1.241-3.81c-1.432-2.245-3.944-3.457-6.966-3.419c-3.023-0.038-5.536,1.174-6.969,3.419
		c-0.687,1.019-1.177,2.336-1.242,3.81c-0.002,0.035-0.007,0.068-0.01,0.102c-0.412,4.93,2.461,8.341,7.36,8.734
		c0.291,0.023,0.578,0.032,0.86,0.03c0.281,0.002,0.567-0.006,0.859-0.03C109.626,27.526,112.5,24.115,112.089,19.184z
		 M107.74,21.021c-0.095,1.146-0.462,2.565-1.257,3.444c-0.142,0.158-0.287,0.298-0.433,0.422c-0.519,0.396-1.132,0.664-1.802,0.718
		c-0.13,0.01-0.257,0.015-0.379,0.017c-0.124-0.002-0.249-0.005-0.379-0.017c-0.719-0.067-1.285-0.322-1.803-0.718
		c-0.146-0.124-0.291-0.261-0.432-0.422c-0.753-0.848-1.161-2.297-1.257-3.444c-0.223-2.663,0.313-6.558,3.586-6.819
		c0.084-0.006,0.166-0.01,0.247-0.012c0.013,0,0.025,0,0.039,0c0.012,0,0.025,0,0.038,0c0.08,0.002,0.163,0.006,0.246,0.012
		C107.428,14.463,107.963,18.358,107.74,21.021z"/>
	<path class="st144" d="M66.992,23.738L61.749,9.775h-4.08c0,0-1.165,3.271-1.332,3.813l-3.828,10.827
		c-0.5,1.384-1.194,3.203-1.194,3.203h3.33c0,0,0.943-3.013,1.138-3.555l0.512-1.506h5.776l0.787,2.293
		c0.166,0.431,0.849,2.729,0.86,2.764h4.855C68.436,27.294,67.603,25.327,66.992,23.738z M57.139,20.015l1.945-5.776l0.111-0.338
		l2.033,6.114H57.139z"/>
	<path class="st144" d="M93.796,24.642l-2.783-4.324c1.338-0.656,2.594-1.766,2.785-4.081c0.119-1.449-0.656-2.652-1.118-3.062
		c-0.668-0.594-1.323-0.834-2.249-0.946c-0.739-0.099-1.276-0.105-1.723-0.134h-6.551c0,0,0.079,2.146,0.079,3.372v8.775
		c0,1.225-0.079,3.372-0.079,3.372h4.031c0,0-0.12-2.147-0.12-3.372l0.028-2.816c0,0,0.876,0.002,1.494,0.005l2.551,4.673
		c0.344,0.596,0.837,1.339,0.954,1.515h4.76v0C94.89,26.231,94.535,25.659,93.796,24.642z M88.73,18.954
		c-0.603,0.314-1.961,0.226-2.634,0.185l0.052-4.434l0.378-0.026c1.234-0.099,2.137,0.07,2.508,0.235
		c0.553,0.244,0.879,0.769,0.908,1.641C89.988,17.863,89.49,18.56,88.73,18.954z"/>
	<path class="st144" d="M42.857,18.496c-0.716-2.635-2.073-5.515-2.81-6.903c-0.208-0.394-0.855-0.742-1.525-0.283
		c-0.104,0.071-2.079,1.476-2.079,1.47c-1.222-0.586-2.197-1.041-3.03-1.434c-0.4-0.189-0.894-0.408-1.613-0.415
		c-1.45-0.017-3.042,1.176-3.05,2.95c-0.004,0.919-0.005,9.108-0.003,10.285c0.01,1.789,1.61,3.471,3.599,3.46
		c-0.025,0,5.105,0.002,5.259,0.002c2.306,0.002,2.773-1.992,2.756-2.603c0-0.994-0.006-3.906-0.006-4.337
		c0-0.349-0.014-0.926,0.7-1.015c0.514-0.065,1.005-0.135,1.289-0.219C42.842,19.307,42.943,18.814,42.857,18.496z"/>
	<path class="st144" d="M39.887,4.424c-3.291-0.077-5.117,1.107-5.787,1.436c-0.051,0.025-0.135,0.013-0.21-0.07
		c-0.606-0.601-1.903-1.496-3.36-1.913c-0.217-0.048-0.238-0.367,0.013-0.395c3.115-0.335,5.842,0.018,6.979,0.204
		c0.262,0.042,0.456-0.111,0.353-0.353c-0.078-0.182-0.145-0.269-0.276-0.552c-0.277-0.595-1.011-1.228-1.944-1.489
		C33.208,0.611,29.037,0.022,25.322,0c-4.183-0.025-8.589,0.811-9.703,1.059c-0.267,0.059-0.642,0.154-0.708,0.167
		c-0.305,0.061-0.377,0.348-0.245,0.493c0.083,0.091,0.312,0.284,0.422,0.42c0.138,0.172,0.202,0.417-0.061,0.673L7.295,9.759h5.291
		l0.061-0.006c0.344-0.007,0.669,0.305,0.671,0.701c0.001,0.357-0.284,0.693-0.645,0.693l-0.046,0.003H5.755l-2.103,1.911h8.999
		l0.049-0.003c0.354,0.002,0.628,0.37,0.623,0.702c-0.004,0.308-0.264,0.685-0.623,0.685l-0.054,0.003H2.111l-2.108,1.904h18.177
		l0.058,0.003c0.358,0,0.634,0.367,0.64,0.687c0.005,0.374-0.258,0.711-0.625,0.708l-0.049-0.001H0v1.897h18.161l0.056,0.006
		c0.416,0,0.657,0.377,0.656,0.724c-0.001,0.315-0.305,0.653-0.665,0.653h-0.048H0v1.916h23.709h0.058
		c0.394,0.011,0.646,0.349,0.635,0.718c-0.01,0.321-0.278,0.666-0.634,0.666l-0.049-0.002H6.385v1.909h17.098h0.358
		c0.322,0,0.599,0.398,0.599,0.72c0,0.321-0.283,0.671-0.605,0.671h-0.352v0.001H6.381v1.901h20.067c0,0,0.723-1.682,0.723-3.538
		c0-0.101,0.007-12.896,0.007-12.896c0-1.016,0.414-2.732,2.502-3.188c0.058-0.013,0.117-0.025,0.175-0.038
		c5.926-1.4,12.03-0.125,15.469,1.36c0.622,0.3,0.764-0.196,0.744-0.405C46.144,7.926,43.941,4.624,39.887,4.424z"/>
	<path class="st144" d="M12.765,34.196l-0.003,1.942c0,0,2.571,0.009,4.035,0c3.611-0.021,5.981-1.942,5.981-1.942H12.765z"/>
	<path class="st144" d="M12.765,30.921L12.765,30.921l-0.003,1.903h11.607c0.537-0.54,1.227-1.534,1.406-1.9L12.765,30.921z"/>
</g>
</svg>
