<?xml version="1.0" encoding="utf-8"?>
<!-- Generator: Adobe Illustrator 18.0.0, SVG Export Plug-In . SVG Version: 6.00 Build 0)  -->
<!DOCTYPE svg PUBLIC "-//W3C//DTD SVG 1.1//EN" "http://www.w3.org/Graphics/SVG/1.1/DTD/svg11.dtd">
<svg version="1.1" xmlns="http://www.w3.org/2000/svg" xmlns:xlink="http://www.w3.org/1999/xlink" x="0px" y="0px" width="200px"
	 height="17px" viewBox="0 0 200 17" style="enable-background:new 0 0 200 17;" xml:space="preserve">
<style type="text/css">
	.st0{display:none;}
	.st1{display:inline;}
	.st2{fill:#ED2D27;}
	.st3{display:inline;fill:#F8B900;}
	.st4{display:inline;fill:#00235F;}
	.st5{fill:url(#SVGID_1_);}
	.st6{fill:#006CB6;}
	.st7{fill:url(#SVGID_2_);}
	.st8{fill:url(#SVGID_3_);}
	.st9{fill:url(#SVGID_4_);}
	.st10{fill:url(#SVGID_5_);}
	.st11{fill:url(#SVGID_6_);}
	.st12{fill-rule:evenodd;clip-rule:evenodd;fill:#FFFFFF;}
	.st13{fill-rule:evenodd;clip-rule:evenodd;fill:#E2231A;}
	.st14{fill:#FFFFFF;}
	.st15{fill-rule:evenodd;clip-rule:evenodd;fill:#001689;}
	.st16{fill:#00529B;}
	.st17{fill:#F47920;}
	.st18{fill:url(#SVGID_7_);}
	.st19{fill:url(#SVGID_8_);}
	.st20{fill:url(#SVGID_9_);}
	.st21{fill:url(#SVGID_10_);}
	.st22{fill:url(#SVGID_11_);}
	.st23{fill:url(#SVGID_12_);}
	.st24{fill:url(#SVGID_13_);}
	.st25{fill:#00054C;}
	.st26{fill:url(#path3364_3_);}
	.st27{fill:url(#path3366_3_);}
	.st28{fill:#22356B;}
	.st29{fill:#FCC210;}
	.st30{fill:#ED1C24;}
	.st31{display:inline;fill:url(#SVGID_14_);}
	.st32{fill:#002157;}
	.st33{fill:#CC2234;}
	.st34{fill:#E23546;}
	.st35{fill:#FCB130;}
	.st36{fill:#1D4886;}
	.st37{display:inline;fill:none;}
	.st38{display:inline;fill:#005DAA;}
	.st39{fill:#005DAA;}
	.st40{fill:#00A1E4;}
	.st41{fill:#00704A;}
	.st42{fill:#B10D28;}
	.st43{fill:#D31245;}
	.st44{fill:url(#path70_3_);}
	.st45{fill:url(#SVGID_15_);}
	.st46{fill:url(#SVGID_16_);}
	.st47{fill:#231916;}
	.st48{fill:#E60013;}
	.st49{fill:#C0231E;}
	.st50{fill:#014E84;}
	.st51{fill:#BA783E;}
	.st52{fill:#002052;}
	.st53{fill:#0093D0;}
	.st54{fill:#ED1B2F;}
	.st55{fill:#E3242B;}
	.st56{fill-rule:evenodd;clip-rule:evenodd;fill:#034EA2;}
	.st57{fill-rule:evenodd;clip-rule:evenodd;fill:#E11837;}
	.st58{fill:#034EA2;}
	.st59{opacity:0.8902;fill:#EB151C;}
	.st60{fill:#1A1A1A;}
	.st61{enable-background:new    ;}
	.st62{fill:#FF6600;}
	.st63{clip-path:url(#SVGID_18_);fill:url(#SVGID_19_);}
	.st64{fill:url(#SVGID_20_);}
	.st65{fill:#B2DB1F;}
	.st66{fill:#FA002C;}
	.st67{fill:#1C2D5B;}
	.st68{fill:#1C4E9D;}
	.st69{fill:#ED192D;}
	.st70{display:inline;fill:#FFFFFF;}
	.st71{display:inline;fill:#00529B;}
	.st72{display:inline;fill:#F47920;}
	.st73{display:inline;fill:url(#SVGID_21_);}
	.st74{display:inline;fill:url(#SVGID_22_);}
	.st75{display:inline;fill:url(#SVGID_23_);}
	.st76{display:inline;fill:url(#SVGID_24_);}
	.st77{display:inline;fill:url(#SVGID_25_);}
	.st78{display:inline;fill:url(#SVGID_26_);}
	.st79{display:inline;fill:url(#SVGID_27_);}
	.st80{display:inline;fill:url(#path3364_4_);}
	.st81{display:inline;fill:url(#path3366_4_);}
	.st82{display:inline;fill:url(#SVGID_28_);}
	.st83{display:inline;fill:url(#SVGID_29_);}
	.st84{display:inline;fill:url(#SVGID_30_);}
	.st85{display:inline;opacity:0.75;fill:#FFFFFF;}
	.st86{display:inline;fill:#ED1B2F;}
	.st87{opacity:0.8902;fill:#FFFFFF;}
	.st88{clip-path:url(#SVGID_32_);fill:#FFFFFF;}
	.st89{fill:url(#SVGID_33_);}
	.st90{fill:url(#SVGID_34_);}
	.st91{fill:url(#SVGID_35_);}
	.st92{fill:url(#SVGID_36_);}
	.st93{fill:url(#SVGID_37_);}
	.st94{fill:url(#SVGID_38_);}
	.st95{fill:url(#SVGID_39_);}
	.st96{fill:url(#SVGID_40_);}
	.st97{clip-path:url(#SVGID_42_);fill:url(#SVGID_43_);}
	.st98{fill:url(#SVGID_44_);}
	.st99{fill:url(#path70_5_);}
	.st100{fill:url(#SVGID_45_);}
	.st101{fill:url(#SVGID_46_);}
	.st102{fill:#F8B900;}
	.st103{fill:#00235F;}
	.st104{fill:url(#SVGID_47_);}
	.st105{fill:url(#SVGID_48_);}
	.st106{fill:url(#SVGID_49_);}
	.st107{fill:url(#SVGID_50_);}
	.st108{fill:url(#SVGID_51_);}
	.st109{fill:url(#SVGID_52_);}
	.st110{opacity:0.8902;fill:#EB151C;enable-background:new    ;}
	.st111{fill:#E11837;}
	.st112{fill:#E2231A;}
	.st113{fill:#001689;}
	.st114{fill:#EF3E34;}
	.st115{fill:#4D82C4;}
	.st116{fill:#8C7035;}
	.st117{fill:#5FBA45;}
	.st118{fill:#008F7E;}
	.st119{fill:#004595;}
	.st120{fill:#FFED00;}
	.st121{fill:#E53138;}
	.st122{fill:url(#SVGID_53_);}
	.st123{fill:url(#SVGID_54_);}
	.st124{fill:url(#SVGID_55_);}
	.st125{fill:url(#SVGID_56_);}
	.st126{fill:#11185E;}
	.st127{fill:#EE3024;}
	.st128{fill:#0675CC;}
	.st129{fill:#E2001A;}
	.st130{fill:#009036;}
	.st131{fill:#0B1560;}
	.st132{fill:#0070AF;}
	.st133{fill:#0F2C64;}
	.st134{fill:#EF001E;}
	.st135{fill:#1C2A8D;}
	.st136{fill:#334357;}
	.st137{fill:url(#SVGID_57_);}
	.st138{fill:#ED1B28;}
	.st139{fill:#1E5AAF;}
	.st140{fill:#991933;}
	.st141{fill:#E01933;}
	.st142{fill:#003366;}
	.st143{fill:#00265D;}
	.st144{fill:#003263;}
	.st145{fill:#EE452A;}
	.st146{fill:#011F65;}
	.st147{fill:#EC2227;}
	.st148{fill:#010101;}
	.st149{fill:#FCEE21;}
	.st150{fill:#18488B;}
	.st151{fill:#EC2427;}
	.st152{fill:#D09B2B;}
	.st153{fill:#156192;}
	.st154{fill:#021A31;}
	.st155{fill:#008E8F;}
	.st156{fill:#2B438F;}
	.st157{fill:#363F9E;}
	.st158{fill:#00ABBF;}
</style>
<g id="Layer_1" class="st0">
</g>
<g id="Layer_2" class="st0">
</g>
<g id="Layer_3">
</g>
<g id="Layer_4">
	<polygon class="st30" points="11.119,10.429 11.119,10.78 11.859,11.45 12.36,11.45 12.36,10.429 	"/>
	<polygon class="st30" points="9.408,8.828 9.408,9.232 10.457,10.181 10.733,10.181 10.733,8.828 	"/>
	<rect x="10.733" y="7.201" class="st30" width="1.545" height="1.49"/>
	<path class="st30" d="M14.954,8.553h0.339c0.024-0.444,0.074-0.874,0.138-1.296h-0.477V8.553z"/>
	<path class="st30" d="M14.126,0.717v0.938h-1.435V0.717h-2.262v0.966H9.105V0.717H6.898v0.69H5.766v-0.69H0l8.689,7.863h0.416
		c0-0.366,0-1.518,0-1.518h1.545V5.297h1.655V3.614h1.849v-1.71h1.738V0.717H14.126z M5.27,3.173H4.304V2.042H5.27V3.173z
		 M6.925,5.021H5.656V3.725h1.269V5.021z M8.774,6.704H7.311V5.325h1.462V6.704z M8.801,3.587H7.256V1.904h1.545V3.587z
		 M10.429,5.187H9.077V3.835h1.352V5.187z M12.305,3.504h-1.573V1.959h1.573V3.504z"/>
	<path class="st30" d="M18.072,0.717v1.187h-2.125v1.904h-1.738v1.38h1.741c0.668-1.823,1.867-3.353,3.804-4.47H18.072z"/>
	<polygon class="st30" points="12.967,11.918 12.967,12.453 13.933,13.326 13.933,11.918 	"/>
	<rect x="12.553" y="5.518" class="st30" width="1.655" height="1.545"/>
	<rect x="12.498" y="8.967" class="st30" width="1.269" height="1.021"/>
	<path class="st157" d="M142.309,15.478c-0.083-0.193-0.11-0.359-0.138-0.469c-0.028-0.138-0.055-0.276-0.055-0.469l-0.193-2.29
		c-0.11-1.297-0.303-2.18-0.552-2.594c-0.276-0.414-0.717-0.745-1.352-0.966c0.8-0.276,1.435-0.745,1.849-1.379
		c0.414-0.635,0.635-1.435,0.635-2.373c0-0.772-0.166-1.435-0.497-2.042c-0.331-0.607-0.8-1.076-1.407-1.407
		c-0.386-0.221-0.855-0.386-1.38-0.469c-0.276-0.083-0.635-0.11-1.021-0.138c-0.331,0-0.745-0.028-1.214-0.028
		c-0.11,0-0.221,0-0.331,0h-5.104v15.313h1.407V9.325h4.47c1.186,0,1.959,0.193,2.373,0.579c0.221,0.221,0.414,0.552,0.552,1.021
		c0.138,0.441,0.193,0.993,0.193,1.655l0.166,2.014c0,0.194,0.028,0.359,0.055,0.524c0,0.055,0.028,0.193,0.083,0.386
		c0.028,0.193,0.083,0.331,0.11,0.414c0.028,0.083,0.055,0.165,0.11,0.249h1.545v-0.221
		C142.475,15.837,142.392,15.671,142.309,15.478z M137.012,8.056h-0.028v0h-4.028V2.125h3.973c0.028,0,0.028,0,0.055,0
		c0.883,0,1.517,0.055,1.904,0.138c0.386,0.083,0.717,0.221,0.993,0.414c0.386,0.248,0.662,0.552,0.855,0.966
		c0.193,0.386,0.303,0.828,0.303,1.352c0,1.076-0.331,1.876-0.938,2.345C139.468,7.835,138.447,8.056,137.012,8.056z"/>
	<path class="st157" d="M26.017,11.229c0,0.635-0.138,1.214-0.359,1.71c-0.248,0.524-0.579,0.938-0.993,1.325
		c-0.8,0.745-1.849,1.131-3.173,1.131c-1.628,0-2.897-0.607-3.807-1.821c-0.911-1.214-1.352-2.924-1.352-5.076
		c0-2.125,0.441-3.807,1.352-4.994c0.883-1.186,2.152-1.766,3.752-1.766c1.242,0,2.263,0.303,3.063,0.966
		c0.8,0.635,1.241,1.545,1.379,2.676h1.324c0-0.745-0.138-1.407-0.414-2.014c-0.304-0.579-0.717-1.104-1.269-1.545
		c-1.021-0.91-2.4-1.352-4.083-1.352c-2.014,0-3.614,0.717-4.773,2.152c-1.187,1.435-1.766,3.394-1.766,5.904
		s0.579,4.497,1.738,5.931c1.186,1.463,2.759,2.18,4.773,2.18c1.738,0,3.145-0.497,4.194-1.435c0.552-0.524,0.993-1.103,1.297-1.738
		c0.303-0.69,0.469-1.435,0.469-2.235H26.017z"/>
	<path class="st157" d="M198.924,9.381c-0.717-0.69-1.959-1.241-3.697-1.683l-1.793-0.469c-0.938-0.248-1.628-0.552-2.014-0.966
		c-0.386-0.386-0.607-0.938-0.607-1.656c0-0.91,0.331-1.628,0.938-2.152c0.607-0.497,1.49-0.745,2.621-0.745
		c1.186,0,2.125,0.304,2.787,0.911s0.993,1.435,0.993,2.511h1.435c0-1.462-0.469-2.594-1.38-3.421
		c-0.91-0.828-2.18-1.241-3.78-1.241c-1.517,0-2.731,0.359-3.642,1.131c-0.911,0.745-1.38,1.738-1.38,2.98
		c0,1.104,0.304,1.986,0.911,2.621c0.607,0.607,1.71,1.131,3.256,1.518l1.462,0.358c1.435,0.387,2.373,0.801,2.842,1.27
		c0.497,0.441,0.717,1.104,0.717,1.986c0,0.938-0.331,1.655-1.021,2.179c-0.69,0.552-1.628,0.801-2.814,0.801
		c-1.352,0-2.4-0.331-3.173-0.994c-0.745-0.662-1.131-1.572-1.131-2.786h-1.407l0,0v0.11c0,1.6,0.497,2.814,1.49,3.669
		c0.993,0.855,2.4,1.269,4.221,1.269c1.628,0,2.897-0.386,3.835-1.187c0.938-0.801,1.407-1.849,1.407-3.2
		C200,10.981,199.641,10.043,198.924,9.381z"/>
	<polygon class="st157" points="177.873,14.899 177.873,8.912 185.763,8.912 185.763,7.698 177.873,7.698 177.873,2.125 
		186.481,2.125 186.481,0.855 176.466,0.855 176.466,16.168 176.466,16.168 186.757,16.168 186.757,14.899 	"/>
	<polygon class="st157" points="171.665,0.855 171.665,13.988 163.001,0.855 161.457,0.855 161.457,16.168 162.836,16.168 
		162.836,3.035 171.472,16.168 173.017,16.168 173.017,0.855 	"/>
	<rect x="156.491" y="0.855" class="st157" width="1.434" height="15.313"/>
	<polygon class="st157" points="146.779,14.899 146.779,0.855 145.317,0.855 145.317,16.168 154.587,16.168 154.587,14.899 	"/>
	<rect x="126.997" y="0.855" class="st157" width="1.462" height="15.313"/>
	<rect x="83.874" y="0.855" class="st157" width="1.435" height="15.313"/>
	<polygon class="st157" points="70.934,0.855 70.934,2.125 75.679,2.125 75.679,16.168 77.142,16.168 77.142,2.125 81.887,2.125 
		81.887,0.855 	"/>
	<path class="st157" d="M40.944,15.478c-0.083-0.193-0.138-0.359-0.166-0.469c-0.028-0.138-0.028-0.276-0.028-0.469l-0.193-2.29
		c-0.11-1.297-0.303-2.18-0.579-2.594c-0.248-0.414-0.717-0.745-1.352-0.966c0.828-0.276,1.435-0.745,1.876-1.379
		c0.414-0.635,0.607-1.435,0.607-2.373c0-0.772-0.166-1.435-0.497-2.042S39.84,1.821,39.233,1.49
		c-0.414-0.221-0.855-0.386-1.38-0.469c-0.303-0.083-0.635-0.11-1.048-0.138c-0.331,0-0.717-0.028-1.186-0.028
		c-0.11,0-0.221,0-0.359,0h-5.104v15.313h1.407V9.325h4.056h0.414c1.186,0,1.986,0.193,2.4,0.579
		c0.221,0.221,0.386,0.552,0.524,1.021c0.138,0.441,0.221,0.993,0.221,1.655l0.166,2.014c0,0.194,0.028,0.359,0.055,0.524
		c0,0.055,0.028,0.193,0.055,0.386c0.055,0.193,0.083,0.331,0.11,0.414c0.028,0.083,0.083,0.165,0.11,0.249h1.573v-0.221
		C41.109,15.837,40.999,15.671,40.944,15.478z M35.646,8.056h-4.083V2.125h4.001c0,0,0.028,0,0.055,0
		c0.855,0,1.49,0.055,1.876,0.138c0.414,0.083,0.745,0.221,1.021,0.414c0.386,0.248,0.662,0.552,0.855,0.966
		c0.193,0.386,0.303,0.828,0.303,1.352c0,1.076-0.331,1.876-0.966,2.345C38.074,7.835,37.053,8.056,35.646,8.056z"/>
	<path class="st157" d="M55.208,2.649c-1.241-1.462-2.952-2.18-5.104-2.18c0,0,0,0-0.028,0c-2.152,0-3.835,0.717-5.104,2.18
		c-1.269,1.435-1.904,3.394-1.904,5.877c0,2.511,0.635,4.469,1.904,5.877c1.269,1.462,2.952,2.179,5.104,2.179
		c0.028,0,0.028,0,0.028,0c2.152,0,3.863-0.718,5.104-2.179c1.269-1.435,1.904-3.394,1.904-5.877
		C57.112,6.042,56.477,4.083,55.208,2.649z M54.159,13.519c-1.021,1.187-2.373,1.793-4.056,1.793c0,0,0,0-0.028,0
		c-1.711,0-3.063-0.607-4.056-1.793c-0.993-1.242-1.49-2.897-1.49-4.994c0-2.069,0.497-3.752,1.517-4.966
		c0.993-1.241,2.345-1.876,4.028-1.876c0.028,0,0.028,0,0.028,0c1.711,0,3.063,0.635,4.056,1.848
		c1.021,1.241,1.517,2.897,1.517,4.994C55.677,10.622,55.18,12.305,54.159,13.519z"/>
	<path class="st157" d="M65.554,0.855h-1.683L58.05,16.168h1.462l1.793-4.69h3.394h3.449l1.738,4.69h1.49L65.554,0.855z
		 M61.747,10.236l2.952-7.863l2.98,7.863H61.747z"/>
	<path class="st157" d="M94.523,0.855H92.84l-5.822,15.313h1.49l1.766-4.69h3.421h3.421l1.766,4.69h1.462L94.523,0.855z
		 M90.716,10.236l2.952-7.863h0.028l2.952,7.863H90.716z"/>
	<path class="st157" d="M119.465,0.855h-1.683l-5.794,15.313h1.462l1.766-4.69h3.421h3.449l1.738,4.69h1.462L119.465,0.855z
		 M115.657,10.236l2.979-7.863l2.952,7.863H115.657z"/>
</g>
</svg>
