<?xml version="1.0" encoding="utf-8"?>
<!-- Generator: Adobe Illustrator 18.0.0, SVG Export Plug-In . SVG Version: 6.00 Build 0)  -->
<!DOCTYPE svg PUBLIC "-//W3C//DTD SVG 1.1//EN" "http://www.w3.org/Graphics/SVG/1.1/DTD/svg11.dtd">
<svg version="1.1" xmlns="http://www.w3.org/2000/svg" xmlns:xlink="http://www.w3.org/1999/xlink" x="0px" y="0px"
	 width="150.56px" height="50px" viewBox="0 0 150.56 50" style="enable-background:new 0 0 150.56 50;" xml:space="preserve">
<style type="text/css">
	.st0{display:none;}
	.st1{display:inline;}
	.st2{fill:#ED2D27;}
	.st3{display:inline;fill:#F8B900;}
	.st4{display:inline;fill:#00235F;}
	.st5{fill:url(#SVGID_1_);}
	.st6{fill:#006CB6;}
	.st7{fill:url(#SVGID_2_);}
	.st8{fill:url(#SVGID_3_);}
	.st9{fill:url(#SVGID_4_);}
	.st10{fill:url(#SVGID_5_);}
	.st11{fill:url(#SVGID_6_);}
	.st12{fill-rule:evenodd;clip-rule:evenodd;fill:#FFFFFF;}
	.st13{fill-rule:evenodd;clip-rule:evenodd;fill:#E2231A;}
	.st14{fill:#FFFFFF;}
	.st15{fill-rule:evenodd;clip-rule:evenodd;fill:#001689;}
	.st16{fill:#00529B;}
	.st17{fill:#F47920;}
	.st18{fill:url(#SVGID_7_);}
	.st19{fill:url(#SVGID_8_);}
	.st20{fill:url(#SVGID_9_);}
	.st21{fill:url(#SVGID_10_);}
	.st22{fill:url(#SVGID_11_);}
	.st23{fill:url(#SVGID_12_);}
	.st24{fill:url(#SVGID_13_);}
	.st25{fill:#00054C;}
	.st26{fill:url(#path3364_3_);}
	.st27{fill:url(#path3366_3_);}
	.st28{fill:#22356B;}
	.st29{fill:#FCC210;}
	.st30{fill:#ED1C24;}
	.st31{display:inline;fill:url(#SVGID_14_);}
	.st32{fill:#002157;}
	.st33{fill:#CC2234;}
	.st34{fill:#E23546;}
	.st35{fill:#FCB130;}
	.st36{fill:#1D4886;}
	.st37{display:inline;fill:none;}
	.st38{display:inline;fill:#005DAA;}
	.st39{fill:#005DAA;}
	.st40{fill:#00A1E4;}
	.st41{fill:#00704A;}
	.st42{fill:#B10D28;}
	.st43{fill:#D31245;}
	.st44{fill:url(#path70_3_);}
	.st45{fill:url(#SVGID_15_);}
	.st46{fill:url(#SVGID_16_);}
	.st47{fill:#231916;}
	.st48{fill:#E60013;}
	.st49{fill:#C0231E;}
	.st50{fill:#014E84;}
	.st51{fill:#BA783E;}
	.st52{fill:#002052;}
	.st53{fill:#0093D0;}
	.st54{fill:#ED1B2F;}
	.st55{fill:#E3242B;}
	.st56{fill-rule:evenodd;clip-rule:evenodd;fill:#034EA2;}
	.st57{fill-rule:evenodd;clip-rule:evenodd;fill:#E11837;}
	.st58{fill:#034EA2;}
	.st59{opacity:0.8902;fill:#EB151C;}
	.st60{fill:#1A1A1A;}
	.st61{enable-background:new    ;}
	.st62{fill:#FF6600;}
	.st63{clip-path:url(#SVGID_18_);fill:url(#SVGID_19_);}
	.st64{fill:url(#SVGID_20_);}
	.st65{fill:#B2DB1F;}
	.st66{fill:#FA002C;}
	.st67{fill:#1C2D5B;}
	.st68{fill:#1C4E9D;}
	.st69{fill:#ED192D;}
	.st70{display:inline;fill:#FFFFFF;}
	.st71{display:inline;fill:#00529B;}
	.st72{display:inline;fill:#F47920;}
	.st73{display:inline;fill:url(#SVGID_21_);}
	.st74{display:inline;fill:url(#SVGID_22_);}
	.st75{display:inline;fill:url(#SVGID_23_);}
	.st76{display:inline;fill:url(#SVGID_24_);}
	.st77{display:inline;fill:url(#SVGID_25_);}
	.st78{display:inline;fill:url(#SVGID_26_);}
	.st79{display:inline;fill:url(#SVGID_27_);}
	.st80{display:inline;fill:url(#path3364_4_);}
	.st81{display:inline;fill:url(#path3366_4_);}
	.st82{display:inline;fill:url(#SVGID_28_);}
	.st83{display:inline;fill:url(#SVGID_29_);}
	.st84{display:inline;fill:url(#SVGID_30_);}
	.st85{display:inline;opacity:0.75;fill:#FFFFFF;}
	.st86{display:inline;fill:#ED1B2F;}
	.st87{opacity:0.8902;fill:#FFFFFF;}
	.st88{clip-path:url(#SVGID_32_);fill:#FFFFFF;}
	.st89{fill:url(#SVGID_33_);}
	.st90{fill:url(#SVGID_34_);}
	.st91{fill:url(#SVGID_35_);}
	.st92{fill:url(#SVGID_36_);}
	.st93{fill:url(#SVGID_37_);}
	.st94{fill:url(#SVGID_38_);}
	.st95{fill:url(#SVGID_39_);}
	.st96{fill:url(#SVGID_40_);}
	.st97{clip-path:url(#SVGID_42_);fill:url(#SVGID_43_);}
	.st98{fill:url(#SVGID_44_);}
	.st99{fill:url(#path70_5_);}
	.st100{fill:url(#SVGID_45_);}
	.st101{fill:url(#SVGID_46_);}
	.st102{fill:#F8B900;}
	.st103{fill:#00235F;}
	.st104{fill:url(#SVGID_47_);}
	.st105{fill:url(#SVGID_48_);}
	.st106{fill:url(#SVGID_49_);}
	.st107{fill:url(#SVGID_50_);}
	.st108{fill:url(#SVGID_51_);}
	.st109{fill:url(#SVGID_52_);}
	.st110{opacity:0.8902;fill:#EB151C;enable-background:new    ;}
	.st111{fill:#E11837;}
	.st112{fill:#E2231A;}
	.st113{fill:#001689;}
	.st114{fill:#EF3E34;}
	.st115{fill:#4D82C4;}
	.st116{fill:#8C7035;}
	.st117{fill:#5FBA45;}
	.st118{fill:#008F7E;}
	.st119{fill:#004595;}
	.st120{fill:#FFED00;}
	.st121{fill:#E53138;}
	.st122{fill:url(#SVGID_53_);}
	.st123{fill:url(#SVGID_54_);}
	.st124{fill:url(#SVGID_55_);}
	.st125{fill:url(#SVGID_56_);}
	.st126{fill:#11185E;}
	.st127{fill:#EE3024;}
	.st128{fill:#0675CC;}
	.st129{fill:#E2001A;}
	.st130{fill:#009036;}
	.st131{fill:#0B1560;}
	.st132{fill:#0070AF;}
	.st133{fill:#0F2C64;}
	.st134{fill:#EF001E;}
	.st135{fill:#1C2A8D;}
	.st136{fill:#334357;}
	.st137{fill:url(#SVGID_57_);}
	.st138{fill:#ED1B28;}
	.st139{fill:#1E5AAF;}
	.st140{fill:#991933;}
	.st141{fill:#E01933;}
	.st142{fill:#003366;}
	.st143{fill:#00265D;}
	.st144{fill:#003263;}
	.st145{fill:#EE452A;}
	.st146{fill:#011F65;}
	.st147{fill:#EC2227;}
	.st148{fill:#010101;}
	.st149{fill:#FCEE21;}
	.st150{fill:#18488B;}
	.st151{fill:#EC2427;}
	.st152{fill:#D09B2B;}
	.st153{fill:#156192;}
	.st154{fill:#021A31;}
	.st155{fill:#008E8F;}
	.st156{fill:#2B438F;}
	.st157{fill:#363F9E;}
	.st158{fill:#00ABBF;}
</style>
<g id="Layer_1" class="st0">
</g>
<g id="Layer_2" class="st0">
</g>
<g id="Layer_3">
	<g>
		<path id="path2670" class="st133" d="M60.383,15.547c-1.795,0-3.269,0.313-4.403,0.993c-0.221,0.134-0.405,0.313-0.604,0.475
			c-0.202,0.165-0.394,0.334-0.561,0.518c-0.607,0.669-1.079,1.519-1.381,2.547c-0.296,1.009-0.432,2.185-0.432,3.54
			c0,1.004,0.096,1.913,0.302,2.72c0.041,0.167,0.084,0.329,0.13,0.475c0.045,0.147,0.113,0.281,0.173,0.432
			c0.201,0.515,0.43,1.004,0.734,1.425c0.305,0.423,0.674,0.799,1.079,1.122c0.446,0.361,0.935,0.652,1.425,0.863
			c0.097,0.04,0.162,0.051,0.259,0.086c0.101,0.036,0.206,0.059,0.302,0.086v0.043c0.294,0.088,0.651,0.122,1.036,0.173
			c0.078,0.011,0.142,0.035,0.216,0.043c0.475,0.051,1.008,0.086,1.597,0.086h5.698v-2.288h-5.525c-0.642,0-1.156-0.061-1.597-0.216
			c-0.422-0.146-0.755-0.399-0.993-0.691c-0.244-0.299-0.433-0.716-0.561-1.252c-0.13-0.556-0.216-1.232-0.216-2.029
			c0-1.328,0.148-4.229,0.432-5.007c0.051-0.142,0.108-0.302,0.173-0.432c0.063-0.127,0.146-0.245,0.216-0.345
			c0.254-0.368,0.578-0.636,0.993-0.82c0.431-0.189,0.943-0.302,1.554-0.302h5.525v-2.245H60.383z M67.29,15.547v2.245h9.022
			L67.29,28.756v2.417h13.296v-2.288h-8.633l8.633-10.921v-2.417H67.29z M89.089,15.547c-1.793,0-3.228,0.313-4.36,0.993
			c-0.22,0.134-0.449,0.313-0.648,0.475c-0.203,0.165-0.393,0.334-0.561,0.518c-0.605,0.669-1.038,1.519-1.338,2.547
			c-0.298,1.009-0.475,2.185-0.475,3.54c0,1.004,0.098,1.913,0.302,2.72c0.041,0.167,0.084,0.329,0.13,0.475
			c0.045,0.147,0.115,0.281,0.173,0.432c0.201,0.515,0.474,1.004,0.777,1.425c0.306,0.423,0.628,0.799,1.036,1.122
			c0.448,0.361,0.933,0.652,1.425,0.863c0.098,0.04,0.207,0.051,0.302,0.086c0.101,0.036,0.207,0.059,0.302,0.086v0.043
			c0.292,0.088,0.61,0.122,0.993,0.173c0.077,0.011,0.187,0.035,0.259,0.043c0.475,0.051,1.007,0.086,1.597,0.086h5.655v-2.288
			h-5.482c-0.639,0-1.197-0.061-1.64-0.216c-0.421-0.146-0.753-0.399-0.993-0.691c-0.241-0.299-0.435-0.716-0.561-1.252
			c-0.13-0.556-0.173-1.232-0.173-2.029c0-0.075-0.002-0.134,0-0.216h8.849v-2.288h-8.763c0.069-1.073,0.193-2.087,0.345-2.504
			c0.053-0.142,0.109-0.302,0.173-0.432c0.063-0.127,0.104-0.245,0.173-0.345c0.252-0.368,0.621-0.636,1.036-0.82
			c0.433-0.189,0.946-0.302,1.554-0.302h5.482v-2.245H89.089z M103.248,15.547c-1.793,0-3.271,0.313-4.403,0.993
			c-0.222,0.134-0.448,0.313-0.648,0.475c-0.202,0.165-0.351,0.334-0.518,0.518c-0.606,0.669-1.079,1.519-1.381,2.547
			c-0.297,1.009-0.432,2.185-0.432,3.54c0,1.004,0.097,1.913,0.302,2.72c0.04,0.167,0.083,0.329,0.13,0.475
			c0.047,0.147,0.071,0.281,0.13,0.432h0.043c0.201,0.515,0.43,1.004,0.734,1.425c0.305,0.423,0.674,0.799,1.079,1.122
			c0.448,0.361,0.89,0.652,1.381,0.863c0.098,0.04,0.207,0.051,0.302,0.086c0.101,0.036,0.206,0.059,0.302,0.086v0.043
			c0.292,0.088,0.653,0.122,1.036,0.173c0.078,0.011,0.142,0.035,0.216,0.043c0.476,0.051,1.007,0.086,1.597,0.086h5.698v-2.288
			h-5.525c-0.643,0-1.157-0.061-1.597-0.216c-0.424-0.146-0.752-0.399-0.993-0.691h-0.043c-0.244-0.299-0.392-0.716-0.518-1.252
			c-0.132-0.556-0.216-1.232-0.216-2.029c0-1.328,0.149-4.229,0.432-5.007c0.054-0.142,0.109-0.302,0.173-0.432
			c0.064-0.127,0.145-0.245,0.216-0.345c0.254-0.368,0.577-0.636,0.993-0.82c0.429-0.189,0.945-0.302,1.554-0.302h5.525v-2.245
			H103.248z M110.5,15.547v15.627h3.756v-6.691h5.18v6.691h3.799V15.547h-3.799v6.648h-5.18v-6.346v-0.302H110.5z M55.678,34.368
			l-0.086,0.173l-6.346,15.022l-0.173,0.432h4.015l0.086-0.216l1.597-4.187h5.439l1.597,4.187l0.086,0.216h4.187l-0.173-0.432
			l-6.389-15.022l-0.086-0.173h-3.54H55.678z M66.772,34.368v15.627h3.626H70.7V34.368H66.772z M72.815,34.368v15.627h3.799v-5.914
			h3.194l3.238,5.741l0.086,0.173h4.274l-0.302-0.475l-3.497-5.914c0.574-0.178,1.056-0.454,1.468-0.82
			c0.101-0.091,0.216-0.164,0.302-0.259c0.081-0.09,0.13-0.226,0.216-0.345h0.043c0.283-0.393,0.464-0.833,0.604-1.338
			c0.137-0.497,0.216-1.038,0.216-1.64c0-1.173-0.223-2.151-0.691-2.892c-0.093-0.145-0.192-0.302-0.302-0.432
			c-0.112-0.128-0.259-0.232-0.389-0.345c-0.457-0.392-1.019-0.67-1.727-0.863c-0.689-0.188-1.527-0.302-2.461-0.302h-7.77H72.815z
			 M88.139,34.368v9.238c0,0.598,0.034,1.124,0.086,1.597c0.053,0.479,0.151,0.906,0.259,1.252c0.156,0.5,0.373,0.956,0.691,1.381
			c0.462,0.619,1.093,1.204,1.77,1.554c0.098,0.051,0.205,0.089,0.302,0.13c0.449,0.193,0.898,0.277,1.381,0.345
			c0.084,0.011,0.177,0.034,0.259,0.043c0.531,0.062,1.155,0.086,1.856,0.086h4.317c0-0.759,0-1.527,0-2.288h-4.015
			c-0.562,0-1.192,0.011-1.727-0.173c-1.002-0.345-1.318-1.058-1.381-2.072c-0.018-0.31,0-0.697,0-1.122v-9.972H88.139z
			 M100.14,34.368v15.627h3.626h0.302V34.368H100.14z M106.14,34.368v15.627h3.885l-0.043-0.302l-0.13-10.144l5.871,10.274
			l0.086,0.173h4.187V34.368h-3.885v0.302l0.13,9.583l-5.525-9.713l-0.086-0.173h-4.187H106.14z M128.846,34.368
			c-1.795,0-3.27,0.354-4.403,1.036c-0.22,0.134-0.448,0.268-0.648,0.432c-0.202,0.165-0.35,0.336-0.518,0.518
			c-0.608,0.667-1.079,1.523-1.381,2.547c-0.296,1.013-0.432,2.185-0.432,3.54c0,1.004,0.097,1.911,0.302,2.72
			c0.042,0.166,0.083,0.329,0.13,0.475c0.044,0.147,0.074,0.283,0.13,0.432h0.043v0.043c0.203,0.513,0.428,0.957,0.734,1.381
			c0.303,0.421,0.674,0.799,1.079,1.122c0.446,0.359,0.934,0.653,1.425,0.863c0.097,0.04,0.162,0.095,0.259,0.13
			c0.102,0.036,0.207,0.058,0.302,0.086c0.291,0.087,0.653,0.167,1.036,0.216c0.078,0.011,0.145-0.008,0.216,0
			c0.474,0.052,1.007,0.086,1.597,0.086h5.698v-2.288h-5.525c-0.641,0-1.155-0.06-1.597-0.216c-0.422-0.149-0.753-0.357-0.993-0.648
			c-0.244-0.299-0.435-0.719-0.561-1.252c-0.129-0.555-0.216-1.231-0.216-2.029c0-0.075-0.001-0.179,0-0.259h8.892v-2.288h-8.806
			c0.071-1.075,0.194-2.087,0.345-2.504c0.053-0.143,0.106-0.257,0.173-0.389c0.06-0.124,0.145-0.247,0.216-0.345v-0.043
			c0.256-0.367,0.578-0.635,0.993-0.82c0.429-0.189,0.946-0.259,1.554-0.259h5.525v-2.288H128.846z M141.279,34.368
			c-1.436,0-3.105,0.182-4.23,1.166c-1.065,0.933-1.338,2.4-1.338,3.756c0,1.06,0.488,2.189,1.295,2.892
			c1.071,0.923,2.657,1.122,4.015,1.122h3.497c1.788,0,2.256,1.273,2.202,2.331c-0.038,0.798-0.664,1.943-2.417,1.943h-7.986
			c0,1.101,0,1.316,0,2.417h8.72c1.886,0,3.285-0.39,4.187-1.166c1.054-0.905,1.336-2.286,1.338-3.626
			c0-1.419-0.131-2.182-1.166-3.108c-0.337-0.299-0.774-0.518-1.295-0.691c-0.832-0.274-1.717-0.389-2.59-0.389h-3.756
			c-1.771-0.024-2.19-1.244-2.202-1.986c-0.023-1.57,1.298-2.245,2.849-2.245h7.468c0-1.099,0-1.317,0-2.417H141.279z
			 M76.614,36.656h3.54c0.517,0,0.95,0.02,1.295,0.13c0.322,0.101,0.57,0.283,0.734,0.475c0.311,0.363,0.475,1.025,0.475,1.986
			c0,0.707-0.092,1.213-0.259,1.597c-0.033,0.075-0.096,0.159-0.13,0.216c-0.033,0.056-0.083,0.118-0.13,0.173
			c-0.354,0.409-1.004,0.604-1.986,0.604h-3.54V36.656z M57.447,38.512l1.856,4.792h-3.669L57.447,38.512z"/>
		<path class="st134" d="M44.156,25.922l-0.187-6.332c-0.008-0.222-0.197-0.238-0.297-0.016l-2.881,6.395
			c-0.119,0.25-0.046,0.49,0.171,0.472h2.891C44.102,26.426,44.182,26.228,44.156,25.922L44.156,25.922z"/>
		<path class="st134" d="M48.88,15.584c0.304-4.011,0.298-8.047-0.031-12.073c-0.165-1.985-1.863-3.559-3.868-3.511
			C29.505,0.361,14.39,5.272,1.608,13.99c-1.656,1.128-2.081,3.426-1.048,5.091c1.675,2.705,3.471,5.27,5.424,7.75l2.24-9.184
			c0.216-0.789,0.741-1.319,1.431-1.641c0.765-0.357,1.855-0.496,3.415-0.477h0.688l-0.467,1.823l4.864-1.823h3.863l-0.748,3.101
			h-5.619c-1.69,0.045-2.954,0.951-3.316,2.465h-0.002l-0.818,3.271l-0.006,0.031c-0.017,0.099-0.303,1.296-0.31,1.393
			c-0.06,0.381,0.02,0.857,0.293,1.277c0.27,0.42,0.751,0.767,1.575,0.875c0.155,0.019,0.312,0.013,0.467,0.015h5.481l-0.773,3.128
			h-8.67c6.953,7.705,15.318,14.04,24.81,18.559c1.782,0.847,3.998,0.124,4.936-1.615c2.905-5.392,5.203-11.097,6.841-16.978h-1.854
			l-0.051-2.1c-0.008-0.201-0.179-0.233-0.258-0.229h-4.101c-0.27-0.005-0.365,0.061-0.455,0.27l-0.923,2.059h-5.718l7.827-15.472
			L48.88,15.584z M35.181,18.66h-5.864c-1.612-0.028-1.964,1.746-0.92,2.396l3.753,2.788c3.096,2.337,1.281,7.236-3.483,7.243
			h-9.268l0.744-3.153h5.962c2.038,0.01,3.028-1.777,1.573-2.774c-1.429-0.997-2.356-1.792-3.773-2.802
			c-2.87-2.034-1.519-6.777,3.297-6.804h8.74L35.181,18.66z"/>
	</g>
</g>
<g id="Layer_4">
</g>
</svg>
