<?xml version="1.0" encoding="utf-8"?>
<!-- Generator: Adobe Illustrator 18.1.1, SVG Export Plug-In . SVG Version: 6.00 Build 0)  -->
<svg version="1.1" id="Layer_1" xmlns="http://www.w3.org/2000/svg" xmlns:xlink="http://www.w3.org/1999/xlink" x="0px" y="0px"
	 width="196.29px" height="73.76px" viewBox="0 0 196.29 73.76" style="enable-background:new 0 0 196.29 73.76;"
	 xml:space="preserve">
<style type="text/css">
	.st0{fill:#343879;}
	.st1{fill:#649EDD;}
	.st2{fill:#8DC6E3;}
	.st3{fill:#BBD9E2;}
	.st4{fill:#FEFEFE;}
</style>
<g>
	<g>
		<g>
			<rect x="0" y="22.54" class="st0" width="114.01" height="0.64"/>
		</g>
		<g>
			<rect x="0" y="63.64" class="st0" width="114.01" height="0.64"/>
		</g>
	</g>
	<g>
		<path class="st0" d="M182.03,52.5c-3.83,11.59-14.75,19.97-27.6,19.97c-16.02,0-29.06-13.04-29.06-29.06s13.04-29.06,29.06-29.06
			c4.88,0,9.48,1.21,13.52,3.35l1.04-0.92c-4.33-2.37-9.29-3.73-14.56-3.73c-16.74,0-30.36,13.62-30.36,30.36
			c0,16.74,13.62,30.36,30.36,30.36c13.6,0,25.14-8.99,28.99-21.33L182.03,52.5z"/>
		<g>
			<g>
				<path class="st1" d="M134.98,52.76c17.53-1.61,34.89-4.3,52.01-8.61c-0.27,1.18-0.53,2.36-0.79,3.55
					C164.3,52.69,149.02,53.15,134.98,52.76"/>
			</g>
			<g>
				<path class="st1" d="M137.77,51.02c16.41-2.58,33.22-6.66,50.48-12.5c-0.27,1.21-0.54,2.42-0.81,3.63
					C168.3,48.17,151.97,50.86,137.77,51.02"/>
			</g>
			<g>
				<path class="st2" d="M140.44,49.17c16.1-4.01,32.49-9.63,49.09-16.36c-0.27,1.22-0.55,2.44-0.82,3.65
					C171.14,43.37,154.87,47.91,140.44,49.17"/>
			</g>
			<g>
				<path class="st3" d="M143.11,46.98c16.23-4.93,32.2-12.35,48-21.24c-0.33,1.49-0.67,2.99-1,4.48
					C171.18,39.62,155.15,45.64,143.11,46.98"/>
			</g>
			<g>
				<path class="st2" d="M146.57,44.67c18.23-8.82,33.05-17.95,46.4-27.22c-0.37,1.65-0.74,3.29-1.1,4.94
					C176.72,32.05,161.61,40.05,146.57,44.67"/>
			</g>
			<g>
				<path class="st1" d="M149.22,41.8c17.92-11.33,33.47-22.86,46.05-34.63c-0.45,2.01-0.9,4.02-1.35,6.03
					C179.05,26.04,163.83,34.88,149.22,41.8"/>
			</g>
			<g>
				<path class="st1" d="M196.29,0c-1.69,0.04-3.38,0.09-5.07,0.13c-6.27,7.66-12.59,14.3-18.95,20.35
					c-6.89,6.56-13.81,12.45-20.74,18.24C166.71,28.48,181.77,17.01,196.29,0"/>
			</g>
		</g>
	</g>
	<g>
		<g>
			<path class="st0" d="M6.74,49.62l-3.51,6.84c-0.78,1.6-3.64,0.48-2.86-1.26l13.07-25.76c0.26-0.56,0.87-0.82,1.43-0.82
				c0.56,0,1.08,0.26,1.39,0.82l13.03,25.63c1.13,1.86-2.08,2.94-2.9,1.26l-3.38-6.71H6.74z M14.88,33.25L8.04,46.89h13.64
				L14.88,33.25z"/>
			<path class="st0" d="M37.22,53.9H55.7c2.04,0,2.08,2.86,0,2.99H34.32c-1.69,0-2.21-1.34-1.26-2.51l19.4-22.21H34.92
				c-1.9,0-1.95-2.73,0-2.86h20.61c1.78,0,2.25,1.34,1.26,2.6L37.22,53.9z"/>
			<path class="st0" d="M65.79,49.62l-3.51,6.84c-0.78,1.6-3.64,0.48-2.86-1.26L72.5,29.44c0.26-0.56,0.87-0.82,1.43-0.82
				c0.56,0,1.08,0.26,1.39,0.82l13.03,25.63c1.13,1.86-2.08,2.94-2.9,1.26l-3.38-6.71H65.79z M73.93,33.25l-6.84,13.64h13.64
				L73.93,33.25z"/>
			<path class="st0" d="M94.45,56.89c-1.17,0-1.64-0.56-1.64-1.6V30.44c0-2.04,3.2-2.04,3.2,0v23.59h16.19c2.21,0,2.21,2.86,0,2.86
				H94.45z"/>
		</g>
	</g>
</g>
</svg>
