<?xml version="1.0" encoding="utf-8"?>
<!-- Generator: Adobe Illustrator 18.1.1, SVG Export Plug-In . SVG Version: 6.00 Build 0)  -->
<svg version="1.1" id="Layer_1" xmlns="http://www.w3.org/2000/svg" xmlns:xlink="http://www.w3.org/1999/xlink" x="0px" y="0px"
	 width="120px" height="18.9px" viewBox="0 0 120 18.9" style="enable-background:new 0 0 120 18.9;" xml:space="preserve">
<style type="text/css">
	.st0{fill:#4B4F55;}
	.st1{fill:#94C1E6;}
</style>
<path class="st0" d="M120,14.45c-2.74,0.13-8.22,0.05-8.22,0.05l0.51-0.51l-0.01-9.02l-0.57-0.6H120v2.36c0,0,0,0,0,0
	c-0.23-0.05-0.44-0.14-0.44-0.14h-4.44V8h2.79c0,0,0.37-0.18,0.53-0.27c0,0.96,0,1.93,0,2.88c-0.2-0.13-0.6-0.33-0.6-0.33h-2.71v2
	h4.33l0.54-0.4C120,11.88,120,13.6,120,14.45z"/>
<path class="st0" d="M48.82,5.06c-0.2-0.18-0.41-0.36-0.7-0.63c1.58,0,3.05,0,4.63,0c0.37,1.41,0.75,2.86,1.19,4.53
	C54.47,7.54,55,5.06,55,5.06l-0.52-0.64c0,0,3.07,0,4.59,0c0,3.13,0,9.32,0,9.32l0.58,0.71h-3.46v-5.7c0,0-1.4,3.81-2.1,5.72
	c-0.09,0.01-0.17,0.02-0.26,0.02c-0.72-1.95-2.16-5.86-2.16-5.86v5.84h-3.31l0.46-0.72C48.82,13.75,48.82,8.07,48.82,5.06z"/>
<path class="st0" d="M100.29,14.45l-2.97-5.07v4.5l0.41,0.58h-3.67l0.51-0.58l-0.02-8.85l-0.49-0.61c0,0,2.05,0,3.21,0
	c1,1.68,2.03,3.4,3.06,5.13c0.06-0.02,0.12-0.04,0.17-0.06c0-1.44,0-4.46,0-4.46l-0.52-0.6c0,0,2.12,0,3.25,0c0,3.13,0,9.32,0,9.32
	l0.59,0.71H100.29z"/>
<path class="st0" d="M92.32,14.48h-2.71v-0.59l-0.08,0.07c-1.84,1.66-5.37,0.94-6.68-1.58c-0.81-1.56-0.97-3.19-0.39-4.87
	c0.7-2,2.12-3.21,4.21-3.48c2.15-0.28,3.88,0.57,5.28,2.33c-0.86,0.62-1.66,1.2-2.48,1.79c-0.4-1.49-2.4-1.99-3.64-0.98
	c-1.19,0.96-1.35,3.24-0.31,4.36c0.91,0.98,2.46,0.8,3.32-0.46c-0.52-0.04-1.53,0-1.53,0V8.96h4.65v4.9L92.32,14.48z"/>
<path class="st0" d="M61.6,14.44l0.6-0.84c0,0,0-5.86-0.02-8.43c-0.02-0.38-0.53-0.37-0.57-0.79c2,0,3.98-0.03,5.97,0.01
	c2.23,0.04,3.45,1.21,3.52,3.31c0.07,1.91-1.2,3.32-3.26,3.52c-0.88,0.09-2.8,0.01-2.8,0.01v2.37l0.52,0.84H61.6z M65.04,9.13
	C65.88,9.25,66.6,9.2,67.3,9.1c0.74-0.11,0.99-0.64,1.01-1.3c0.02-0.7-0.35-1.17-1.04-1.26c-0.73-0.09-1.48-0.09-2.22,0.01
	C65.04,7.46,65.04,8.26,65.04,9.13z"/>
<path class="st0" d="M78.31,14.43c0.22-0.48-0.09-0.89-0.19-1.41c-1.14,0-2.27,0-3.48,0c-0.17,0.43-0.47,0.86-0.14,1.45
	c-1.26,0-2.43,0-3.75,0c0.78-0.65,0.97-1.5,1.27-2.3c0.88-2.33,1.76-4.66,2.58-6.85c0.07-0.54-0.46-0.55-0.49-0.91
	c1.21,0,2.42,0,3.67,0c1.07,2.85,2.14,5.67,3.19,8.51c0.2,0.53,0.35,1.07,1.11,1.51C80.65,14.43,79.51,14.43,78.31,14.43z
	 M76.34,7.44c-0.39,1.25-0.95,3.31-0.95,3.31h1.99C77.37,10.75,76.73,8.7,76.34,7.44z"/>
<path class="st0" d="M105.7,14.48c0.29-0.27,0.47-0.44,0.66-0.62c0-2.89,0-8.8,0-8.8l-0.58-0.64h3.37v9.27l0.63,0.78
	C109.78,14.48,107.16,14.48,105.7,14.48z"/>
<path class="st0" d="M11.78,13c-0.22,0.48-0.45,0.91-0.21,1.48c-1.23,0-2.39,0-3.77,0c0.68-0.48,0.89-1.07,1.11-1.66
	c0.96-2.57,2.86-7.63,2.86-7.63l-0.58-0.76c0,0,2.46,0,3.72,0c1.03,2.75,2.06,5.51,3.09,8.27c0.23,0.62,0.39,1.28,1.22,1.77
	c-1.43,0-2.58,0-3.76,0c0.05-0.53-0.02-1-0.32-1.47C14.08,13,12.98,13,11.78,13z M13.41,7.5c-0.36,1.24-0.96,3.29-0.96,3.29h2.01
	C14.46,10.79,13.91,8.68,13.41,7.5z"/>
<path class="st0" d="M3.39,12.29c0.81,0,2.1,0,2.1,0l0.68-0.51c0,0,0,1.74,0,2.67c-2.03,0-6.06,0-6.06,0l0.51-0.75V5.18L0,4.44
	c0,0,2.22,0,3.39,0C3.39,7.02,3.39,9.6,3.39,12.29z"/>
<path class="st1" d="M41.86,4.24c-2.89,0-5.22,2.34-5.22,5.22c0,2.89,2.34,5.22,5.22,5.22c2.89,0,5.22-2.34,5.22-5.22
	C47.09,6.58,44.75,4.24,41.86,4.24z M41.86,11.85c-1.32,0-2.39-1.07-2.39-2.39c0-1.32,1.07-2.39,2.39-2.39
	c1.32,0,2.39,1.07,2.39,2.39C44.25,10.78,43.18,11.85,41.86,11.85z"/>
<path class="st0" d="M36.42,13.68c-1.06,0.95-2.46,1.54-4.02,1.54c-3.27,0-5.93-2.58-5.93-5.77c0-3.18,2.65-5.77,5.93-5.77
	c1.56,0,2.97,0.59,4.03,1.54c0.79-1,1.84-1.78,3.06-2.23c-1.77-1.84-4.29-3-7.09-3c-5.36,0-9.71,4.23-9.71,9.45
	c0,5.22,4.35,9.45,9.71,9.45c2.79,0,5.3-1.15,7.07-2.98C38.26,15.47,37.2,14.69,36.42,13.68z"/>
</svg>
