<?xml version="1.0" encoding="utf-8"?>
<!-- Generator: Adobe Illustrator 18.1.1, SVG Export Plug-In . SVG Version: 6.00 Build 0)  -->
<svg version="1.1" id="Layer_1" xmlns="http://www.w3.org/2000/svg" xmlns:xlink="http://www.w3.org/1999/xlink" x="0px" y="0px"
	 width="99.72px" height="20px" viewBox="0 0 99.72 20" style="enable-background:new 0 0 99.72 20;" xml:space="preserve">
<style type="text/css">
	.st0{fill:#3E4F85;}
</style>
<g>
	<path class="st0" d="M45.44,14.53l0.83-3.98c0.17-0.8,0.42-1.47,0.76-2.01c0.34-0.54,0.75-0.97,1.21-1.3
		c0.44-0.3,0.93-0.53,1.47-0.66c0.54-0.14,1.07-0.21,1.61-0.2c0.04,0,0.09,0,0.15,0c0.06,0,0.57,0,0.61,0c0,0-0.31,0.37-0.52,0.92
		c-0.16,0.42-0.17,1.26-0.17,1.26l-0.85-0.01c-0.64,0-1.1,0.14-1.43,0.42c-0.34,0.29-0.57,0.73-0.7,1.35l-0.88,4.2L45.44,14.53z"/>
	<path class="st0" d="M51.74,11.63l1.91,0c-0.08,0.54,0.03,0.92,0.32,1.13c0.29,0.25,0.76,0.38,1.39,0.38c0.56,0,1.02-0.1,1.36-0.3
		c0.34-0.2,0.57-0.48,0.67-0.86c0.16-0.57-0.53-1.04-2.07-1.4l-0.05-0.03l-0.2-0.05c-0.87-0.2-1.43-0.41-1.68-0.62
		c-0.31-0.2-0.49-0.49-0.53-0.86c-0.09-0.32-0.07-0.74,0.07-1.24c0.24-0.88,0.74-1.57,1.49-2.07c0.75-0.49,1.71-0.72,2.89-0.72
		c1.11,0,1.89,0.25,2.35,0.76c0.46,0.56,0.59,1.28,0.38,2.18l-1.09,0c-0.42,0-0.66-0.19-0.74-0.57c-0.04-0.18-0.13-0.33-0.26-0.46
		c-0.26-0.23-0.68-0.35-1.24-0.35c-0.54,0-0.96,0.1-1.25,0.3c-0.33,0.2-0.54,0.48-0.64,0.83c-0.13,0.49,0.3,0.84,1.28,1.08
		c0.28,0.09,0.5,0.14,0.64,0.16c0.3,0.11,0.56,0.19,0.79,0.26c0.23,0.06,0.41,0.11,0.54,0.15c0.23,0.11,0.45,0.22,0.68,0.32
		c0.3,0.22,0.51,0.49,0.62,0.84c0.1,0.38,0.08,0.79-0.04,1.24c-0.27,0.97-0.8,1.72-1.6,2.26c-0.79,0.5-1.79,0.75-2.98,0.75
		c-1.23,0-2.09-0.26-2.56-0.78C51.67,13.42,51.52,12.65,51.74,11.63"/>
	<path class="st0" d="M60.2,14.52l2.27-8.29c0.07-0.27,0.23-0.5,0.47-0.69c0.24-0.19,0.5-0.28,0.77-0.28l5.83,0l-0.43,1.59h-4.9
		l-0.55,1.99l3.65,0l-0.17,0.62c-0.07,0.27-0.23,0.5-0.47,0.68c-0.24,0.19-0.5,0.28-0.77,0.28l-2.66,0l-0.65,2.37l4.9,0l-0.47,1.72
		L60.2,14.52L60.2,14.52z"/>
	<path class="st0" d="M68.76,14.53l2.27-8.3c0.07-0.27,0.23-0.5,0.47-0.69c0.24-0.19,0.51-0.28,0.78-0.28l3.56,0.01
		c1.02,0,1.71,0.22,2.08,0.65c0.38,0.45,0.46,1.1,0.22,1.96C78,8.46,77.74,8.93,77.38,9.31c-0.32,0.36-0.73,0.62-1.25,0.78
		c0.38,0.14,0.61,0.36,0.69,0.65c0.09,0.27,0.06,0.73-0.08,1.37l-0.25,1.1c-0.03,0.11-0.06,0.23-0.1,0.35
		c-0.03,0.13-0.06,0.24-0.07,0.35c-0.03,0.32,0.02,0.53,0.16,0.62h-2.13c-0.04-0.18-0.04-0.37-0.01-0.57
		c0.04-0.29,0.08-0.48,0.11-0.59l0.25-0.99c0.11-0.54,0.11-0.92-0.01-1.16c-0.15-0.2-0.47-0.3-0.98-0.3l-2.04,0l-0.99,3.61
		L68.76,14.53L68.76,14.53z M72.13,9.3l2.26,0c0.49,0,0.88-0.1,1.17-0.29c0.29-0.2,0.49-0.5,0.61-0.91c0.11-0.41,0.08-0.72-0.1-0.92
		c-0.16-0.22-0.46-0.32-0.89-0.32l-2.37,0L72.13,9.3z"/>
	<path class="st0" d="M78.04,14.53l2.27-8.29c0.07-0.27,0.23-0.5,0.47-0.69c0.24-0.19,0.51-0.29,0.78-0.29h3.42
		c0.96,0,1.64,0.21,2.04,0.6c0.39,0.43,0.49,1.02,0.28,1.75c-0.13,0.47-0.34,0.86-0.62,1.18c-0.28,0.3-0.63,0.55-1.04,0.73
		c0.42,0.2,0.7,0.48,0.86,0.84c0.14,0.34,0.14,0.79-0.01,1.34c-0.25,0.9-0.73,1.6-1.45,2.1c-0.73,0.49-1.64,0.72-2.73,0.72
		L78.04,14.53L78.04,14.53z M81.45,8.86l2.21,0c0.47,0,0.84-0.08,1.1-0.24c0.26-0.16,0.44-0.41,0.53-0.75
		c0.09-0.34,0.05-0.59-0.12-0.76c-0.14-0.14-0.48-0.22-1-0.22l-2.18,0L81.45,8.86z M80.35,12.86l2.29,0c0.51,0,0.93-0.1,1.25-0.3
		c0.3-0.18,0.51-0.48,0.63-0.92c0.12-0.43,0.08-0.74-0.12-0.94c-0.19-0.18-0.56-0.27-1.12-0.27l-2.26,0L80.35,12.86z"/>
	<path class="st0" d="M87.48,14.53l2.27-8.28c0.07-0.27,0.23-0.5,0.48-0.69c0.24-0.19,0.51-0.3,0.78-0.3h0.95l-2.54,9.26
		L87.48,14.53L87.48,14.53z"/>
	<path class="st0" d="M44.97,6.92c0.04-0.26-0.01-0.49-0.15-0.68c-0.16-0.21-0.37-0.31-0.65-0.31l-1.07-0.01l-0.45,2.14
		C43.66,7.59,44.52,7.15,44.97,6.92"/>
	<path class="st0" d="M44.62,8.57c-0.82,0.37-1.58,0.66-2.28,0.9l-1.07,5.06h2.1l1.27-6.01L44.62,8.57z"/>
	<path class="st0" d="M97.28,11.07L97.28,11.07h-2.41l2.38-3.92l0.25,4.18c0.56-0.07,1.26,0.21,1.91,0.01l-0.57-6.07h-1.5
		c-0.45,0-0.84,0.22-1.12,0.64l-5.47,8.63h2.05l1.13-1.9l3.64,0l0.1,1.9h2.05l-0.34-3.67C98.03,11.11,97.28,11.07,97.28,11.07"/>
	<path class="st0" d="M37.1,11.07L37.1,11.07h-2.41l2.38-3.92l0.19,3.27c0.56-0.07,1.19-0.22,1.85-0.42l-0.44-4.73h-1.5
		c-0.45,0-0.84,0.22-1.12,0.64l-5.47,8.63h2.05l1.13-1.9l3.64,0l0.1,1.9h2.05l-0.34-3.67C37.85,11.11,37.1,11.07,37.1,11.07"/>
	<polygon class="st0" points="12.03,13.91 13.33,15.41 14.16,14.45 12.51,12.54 11.68,11.58 10.91,10.67 10.14,11.69 11.01,12.7 
		11.01,12.7 	"/>
	<path class="st0" d="M28.66,6.64c-1.18-1.16-2.43-1.72-3.73-1.66c-1.03,0.04-1.87,0.47-2.43,0.87c-0.02,0.02-0.04,0.03-0.06,0.05
		c-0.01,0.01-0.01,0.01-0.02,0.02c-0.07,0.05-0.14,0.1-0.2,0.15l-0.9-0.97c-0.22-0.26-0.55-0.67-0.64-0.91
		c-0.07-0.18-0.08-0.37-0.1-0.48c-0.07-0.38-0.12-1.02-0.12-1.02s0-0.15-0.07-0.32L20.3,2.13c0,0,0.75-0.33,1.28-0.3l0.32,0.39
		l0.01-0.39V1.27c0,0-0.03-0.3-0.32-0.53c-0.21-0.17-0.31-0.18-0.57-0.22c-0.33-0.05-0.39,0.04-0.63-0.19L20.16,0l-1.39,0.01
		l-0.55,0.2c0,0-0.3,0.07-0.5,0.58L17.3,2.11c0,0-0.11,0.44-0.14,1.09c-0.03,0.66-0.01,0.02-0.01,0.02S17.12,4.21,17,4.5l-0.23,0.78
		c-0.32,0.77-0.65,1.15-0.66,1.16l-1.25,1.45h0l-0.35,0.41l-0.35-0.41l0,0L13.4,7l-0.11-0.13h0l-0.38-0.44
		c-0.01-0.01-0.36-0.41-0.69-1.23L12.02,4.5c-0.12-0.29-0.15-1.28-0.15-1.28s0.01,0.64-0.01-0.02c-0.02-0.66-0.14-1.09-0.14-1.09
		L11.3,0.79c-0.2-0.51-0.5-0.58-0.5-0.58l-0.55-0.2L8.86,0L8.63,0.33C8.39,0.56,8.33,0.47,8,0.52C7.74,0.56,7.64,0.57,7.43,0.74
		C7.14,0.97,7.11,1.27,7.11,1.27v0.56l0.01,0.39l0.32-0.39c0.53-0.03,1.28,0.3,1.28,0.3L8.63,2.35C8.55,2.52,8.55,2.67,8.55,2.67
		S8.51,3.31,8.44,3.69C8.42,3.8,8.4,3.99,8.34,4.18C8.22,4.5,7.65,5.14,7.53,5.28L6.81,6.06c-0.55-0.44-1.5-1.03-2.72-1.08
		C2.8,4.92,1.54,5.48,0.36,6.64L0,6.99l0.27,0.43c0.04,0.07,1.01,1.57,2.75,1.9C4.15,9.54,5.37,9.2,6.54,8.37L5.69,7.41
		C4.82,8.03,4.04,8.24,3.27,8.09C2.55,7.95,1.99,7.5,1.67,7.15C2.45,6.51,3.24,6.2,4.03,6.23c1.38,0.05,2.34,1.13,2.35,1.14
		l2.04,2.36l0.83-0.97L7.69,6.96l1.83-2.28l0.75-0.93c0.17,0.92,1.01,2.5,1.37,3.06L9.6,9.17l0,0l-0.81,0.94h0l-0.01,0.01
		l-0.01,0.01h0l-0.87,1.01c-0.45,0.47-2.03,2.03-3.87,3.03c0,0,0.58,0.4,1.34,0.38c0.46-0.01,0.98-0.16,1.48-0.64
		c0.21-0.2,0.51-0.47,0.8-0.75c0,0-0.14,0.34,0.19,0.95c0.25,0.47,0.7,0.75,1.3,0.77c0.94,0.03,1.61-0.46,2.08-1.02l-0.67-0.74
		c0,0-0.61,0.87-1.35,0.34c-0.27-0.26-0.25-0.69-0.25-0.69s-0.01-0.14,0.14-0.45c0.5-0.86,1.89-2.66,2.71-3.71l0.63-0.8l0.9,1.04
		l0,0l0.35,0.41l0,0l0.02,0.02l-1.58,1.96l0.72,0.8l1.67-1.82l0,0l0,0l2.04,2.27l0,0l0.84,0.95v0l0.3,0.32l0.21,0.23
		c0.46,0.51,1.11,0.93,1.97,0.9c0.6-0.02,1.04-0.3,1.3-0.77c0.33-0.61,0.19-0.95,0.19-0.95c0.3,0.29,0.6,0.56,0.8,0.75
		c1.34,1.27,2.82,0.25,2.82,0.25c-1.85-0.99-3.42-2.56-3.87-3.03l-0.49-0.58l-1.03,1.15c0.5,0.68,0.47,1.05,0.47,1.05
		s0.02,0.43-0.25,0.69c-0.74,0.54-1.39-0.39-1.39-0.39l-2.05-2.49l-0.01-0.01l-1.05-1.3l0.02-0.02l0,0l0.78-0.9l0,0l0.47-0.54
		l0.21,0.26l1.34,1.81l0.94-1.12l-1.53-1.79l0,0.01L17.4,6.81c0.36-0.55,1.19-2.14,1.37-3.06l0.74,0.93l1.83,2.28L20.96,7.4h0
		l-1.54,1.78l-1.33,1.53l-0.4,0.46l0.83,0.96l0.66-0.77l0.07-0.08l0.99-1.15l0.58-0.67l1.81-2.09c0.01-0.01,0.97-1.09,2.35-1.14
		c0.79-0.03,1.58,0.28,2.36,0.92c-0.33,0.34-0.88,0.8-1.6,0.94c-0.77,0.14-1.56-0.07-2.43-0.69l-0.83,0.96
		c1.16,0.83,2.38,1.18,3.5,0.97c1.74-0.34,2.71-1.84,2.75-1.9l0.27-0.43L28.66,6.64z"/>
	<path class="st0" d="M15.7,16.19l-0.85,1.01l0.1,0.11l0,0l0.52,0.6c0.27,0.33,1.02,1.2,1.14,2.09c0,0,0.74-1.02,0.18-2.45
		C16.78,17.55,16.69,17.18,15.7,16.19"/>
	<path class="st0" d="M15.03,14.26l-1.35,1.56c-1.35,1.26-1.46,1.73-1.46,1.73C11.66,18.98,12.4,20,12.4,20
		c0.12-0.89,0.86-1.75,1.14-2.08l0.52-0.6l0,0l1.86-2.15l0,0l1.1-1.27l-0.82-0.98L15.03,14.26z"/>
</g>
</svg>
