<?xml version="1.0" encoding="UTF-8" standalone="no"?>
<svg width="158px" height="32px" viewBox="0 0 158 32" version="1.1" xmlns="http://www.w3.org/2000/svg" xmlns:xlink="http://www.w3.org/1999/xlink" xmlns:sketch="http://www.bohemiancoding.com/sketch/ns">
    <!-- Generator: Sketch 3.2.2 (9983) - http://www.bohemiancoding.com/sketch -->
    <title>a. Logo</title>
    <desc>Created with Sketch.</desc>
    <defs></defs>
    <g id="C1.0_Navigation" stroke="none" stroke-width="1" fill="none" fill-rule="evenodd" sketch:type="MSPage">
        <g id="C2.5.1_Interactions_Desktop-Phablet" sketch:type="MSArtboardGroup" transform="translate(-139.000000, -356.000000)">
            <g id="a.-Logo" sketch:type="MSLayerGroup" transform="translate(139.000000, 356.000000)">
                <path d="M39.0593742,6.85248045 L39.0593742,21.1553893 C39.0593742,22.4720166 38.4878956,24.4405798 33.2252377,24.4405798 C27.9625799,24.4405798 27.3896971,22.4720166 27.3896971,21.1553893 L27.3896971,6.85248045 L24.4003165,6.85248045 L24.4003165,21.3183733 C24.4003165,24.8600865 27.3082579,26.4034741 32.7057117,26.4034741 C35.4662201,26.4034741 37.5007962,25.9371981 39.0270793,25.503519 L39.0270793,31.9690233 L41.9701238,31.9690233 L41.9546785,6.85248045 L39.0593742,6.85248045 L39.0593742,6.85248045 Z M11.9415216,0.0269940179 C8.79066673,0.0269940179 4.11633695,0.688850779 4.11633695,3.93435824 L4.11633695,6.85248045 L0.702910785,6.85248045 L0.702910785,8.52625526 L4.11633695,8.52625526 L4.11633695,25.9485361 L6.97794226,25.9485361 L6.97794226,8.52625526 L11.482373,8.52625526 L11.4837771,6.85248045 L6.97794226,6.85248045 L6.97794226,4.29434029 C6.97794226,1.80281098 9.85920531,1.40598038 11.9415216,1.40598038 C15.3872427,1.40598038 17.1016784,1.66817203 17.1016784,5.47491134 L17.1002743,25.9485361 L19.9604755,25.9485361 L19.9604755,0.487600972 L17.1016784,0.487600972 C15.5079974,0.487600972 14.7385372,0.0269940179 11.9415216,0.0269940179 L11.9415216,0.0269940179 Z M154.398356,8.67931849 C152.668475,8.67931849 151.264351,10.1008224 151.264351,11.8511288 C151.264351,13.6042698 152.668475,15.0271909 154.398356,15.0271909 C156.145087,15.0271909 157.54219,13.6042698 157.54219,11.8511288 C157.54219,10.1008224 156.145087,8.67931849 154.398356,8.67931849 L154.398356,8.67931849 Z" id="Fill-5" fill="#FF8200" sketch:type="MSShapeGroup"></path>
                <path d="M131.561679,11.1748075 C133.785811,10.9197021 135.778264,10.794984 137.033551,10.7907322 C136.342722,8.10220484 133.18625,7.05202098 127.978353,7.05202098 C123.479539,7.05202098 119.465148,8.61950188 119.465148,8.61950188 L119.465148,12.3539613 C119.465148,12.3539613 122.246718,10.0934441 128.05558,10.0934441 C129.958169,10.0934441 131.008454,10.4364192 131.561679,11.1748075 L131.561679,11.1748075 Z M62.1501982,20.5584341 C61.9887239,22.6276223 59.7800364,23.7472515 57.6345345,23.7472515 C52.986883,23.7472515 52.3353694,21.7078256 52.3353694,17.0493178 C52.3353694,12.3964789 53.246646,10.3613048 57.4056622,10.3613048 C60.1015808,10.3613048 61.9887239,11.4738477 62.1501982,13.5416186 C62.2793776,15.2139762 62.3467756,16.0685793 62.3467756,17.0493178 C62.3467756,18.0328908 62.2793776,18.9867015 62.1501982,20.5584341 L62.1501982,20.5584341 Z M62.3467756,8.19290897 C60.4273377,7.43893082 58.9670484,7.04493472 56.5926742,7.04493472 C49.3459887,7.04493472 47.1358971,9.80290743 47.1358971,17.0493178 C47.1358971,24.2659658 50.3850407,27.0565353 57.6345345,27.0565353 C62.0519095,27.0565353 65.2631418,25.3884295 67.5462479,25.3884295 L67.5462479,1.1406622 L62.3467756,1.1406622 L62.3467756,8.19290897 L62.3467756,8.19290897 Z M146.733242,7.48853465 L141.533769,7.4899519 L141.533769,10.637669 L146.733242,10.637669 L146.733242,7.48853465 L146.733242,7.48853465 Z M132.16826,20.5116648 C132.16826,23.238458 129.640837,23.9272425 127.909551,23.9272425 C124.956678,23.9272425 123.444436,23.0301219 123.444436,21.0998244 C123.444436,17.8401445 127.586603,16.1635352 132.16826,15.8843365 L132.16826,20.5116648 L132.16826,20.5116648 Z M147.828459,12.4999383 L146.319025,12.5027728 C125.238907,12.5027728 118.407842,16.4540718 118.407842,20.9722718 C118.407842,25.1687554 121.982743,27.009766 127.769139,27.009766 C131.502705,27.009766 135.281204,25.3813432 137.258211,25.3813432 L137.258211,15.2068899 C139.723853,14.89226 141.567468,14.8412389 141.567468,14.8412389 L141.567468,26.6044319 L146.762728,26.6044319 L146.762728,17.7494403 C146.762728,14.5861335 147.828459,12.4999383 147.828459,12.4999383 L147.828459,12.4999383 Z M105.179587,23.7472515 C103.032681,23.7472515 100.825398,22.6276223 100.663923,20.5584341 C100.534744,18.9867015 100.46875,18.0328908 100.46875,17.0493178 C100.46875,16.0685793 100.534744,15.2139762 100.663923,13.5402014 C100.825398,11.4738477 102.713945,10.3613048 105.409864,10.3613048 C109.567476,10.3613048 110.478752,12.3964789 110.478752,17.0493178 C110.478752,21.7078256 109.828643,23.7472515 105.179587,23.7472515 L105.179587,23.7472515 Z M106.220043,7.04493472 C103.847073,7.04493472 102.38538,7.43893082 100.46875,8.19290897 L100.46875,1.1406622 L95.2692779,1.1406622 L95.2692779,25.3884295 C97.5509799,25.3884295 100.759404,27.0565353 105.179587,27.0565353 C112.427677,27.0565353 115.678225,24.2659658 115.678225,17.0493178 C115.678225,9.80290743 113.466729,7.04493472 106.220043,7.04493472 L106.220043,7.04493472 Z M85.7830142,20.6902386 C85.7830142,22.0068658 85.3575645,23.9711773 81.4583114,23.9711773 C77.5590582,23.9711773 77.139225,22.0068658 77.139225,20.6902386 L77.139225,7.50554167 L71.9355404,7.50554167 L71.9355404,21.9714345 C71.9369445,25.5131477 75.5413316,27.0565353 80.9415936,27.0565353 C85.7170204,27.0565353 88.8004773,25.5797585 90.3295687,25.4153573 L90.9796782,25.3473292 L90.9796782,7.50554167 L85.7830142,7.50554167 L85.7830142,20.6902386 L85.7830142,20.6902386 Z" id="Fill-6" fill="#006496" sketch:type="MSShapeGroup"></path>
            </g>
        </g>
    </g>
</svg>