<?xml version="1.0" encoding="utf-8"?>
<!-- Generator: Adobe Illustrator 18.1.1, SVG Export Plug-In . SVG Version: 6.00 Build 0)  -->
<svg version="1.1" id="Layer_1" xmlns="http://www.w3.org/2000/svg" xmlns:xlink="http://www.w3.org/1999/xlink" x="0px" y="0px"
	 width="16.92px" height="30px" viewBox="0 0 16.92 30" style="enable-background:new 0 0 16.92 30;" xml:space="preserve">
<style type="text/css">
	.st0{fill:#344589;}
	.st1{fill:#1798C8;}
</style>
<g>
	<path class="st0" d="M13.67,29.98c-0.51,0-1.02-0.01-1.54,0c-0.18,0-0.27-0.05-0.33-0.23c-0.3-0.87-0.61-1.74-0.92-2.61
		c-0.47-1.31-0.93-2.62-1.4-3.93c-0.08-0.23-0.2-0.45-0.28-0.68c-0.05-0.15-0.1-0.13-0.18-0.03c-0.91,1.07-1.81,2.14-2.72,3.2
		c-1.14,1.34-2.29,2.68-3.43,4.02c-0.15,0.18-0.3,0.27-0.53,0.25C2.1,29.97,1.83,30,1.57,30c-0.05,0-0.11-0.02-0.16-0.03
		c0.03-0.05,0.05-0.1,0.09-0.14c0.64-0.76,1.28-1.51,1.92-2.26c1.31-1.54,2.64-3.06,3.94-4.61c0.42-0.5,0.93-0.7,1.55-0.62
		c0.22,0.03,0.26-0.02,0.18-0.23c-0.63-1.74-1.24-3.49-1.87-5.23c-0.08-0.21-0.05-0.27,0.18-0.26c0.95,0.02,1.87,0.12,2.75,0.52
		c0.58,0.26,0.99,0.66,1.2,1.28c1.06,3.02,2.14,6.04,3.22,9.05c0.26,0.74,0.53,1.48,0.8,2.23c0.11,0.31,0.1,0.31-0.22,0.31
		C14.66,29.98,14.17,29.98,13.67,29.98z"/>
	<path class="st1" d="M7.58,5.73C7.12,7.18,6.66,8.63,6.2,10.08c-0.85,2.68-1.71,5.36-2.56,8.04c-0.59,1.86-1.18,3.72-1.76,5.58
		c-0.05,0.17-0.13,0.24-0.32,0.24c-0.46-0.01-0.92,0.01-1.37,0.01c-0.24,0-0.2-0.16-0.16-0.3c0.25-0.78,0.5-1.56,0.75-2.34
		c0.51-1.59,1.01-3.18,1.51-4.76c0.73-2.28,1.46-4.56,2.18-6.85C5.2,7.43,5.92,5.14,6.64,2.86c0.05-0.17,0.1-0.34,0.15-0.51
		c0.17,0.06,0.34,0.1,0.49,0.18c0.09,0.05,0.14,0.16,0.19,0.25c0.03,0.04,0.03,0.1,0.05,0.16C7.58,2.91,7.66,2.9,7.69,2.86
		c0.1-0.13,0.24-0.19,0.36-0.09C8.12,2.83,8.14,2.99,8.12,3.1C8.03,3.64,7.91,4.18,7.82,4.72c-0.04,0.25-0.11,0.4-0.41,0.36
		C7.27,5.06,7.1,5.09,6.95,5.13C6.86,5.16,6.8,5.26,6.72,5.33c0.08,0.08,0.14,0.2,0.23,0.23C7.16,5.64,7.37,5.67,7.58,5.73z
		 M1.08,21.9c0.04,0,0.07,0,0.11,0.01c0.06-0.07,0.16-0.13,0.19-0.21c0.1-0.26,0.18-0.52,0.25-0.79c0.02-0.07-0.01-0.22-0.03-0.23
		c-0.12-0.02-0.26-0.07-0.32,0.13C1.2,21.11,1.08,21.4,1,21.69C0.99,21.75,1.05,21.83,1.08,21.9z M0.56,23.81
		c0.02-0.01,0.12-0.04,0.15-0.1c0.12-0.26,0.23-0.53,0.31-0.8c0.03-0.08-0.01-0.26-0.06-0.28c-0.14-0.05-0.27-0.02-0.32,0.17
		c-0.08,0.28-0.15,0.57-0.28,0.83C0.26,23.82,0.35,23.81,0.56,23.81z M1.75,22.59c-0.04-0.01-0.08-0.01-0.12-0.02
		c-0.08,0.09-0.18,0.16-0.23,0.27c-0.09,0.23-0.16,0.47-0.23,0.71c-0.02,0.08-0.02,0.24,0.01,0.25c0.14,0.04,0.28,0.05,0.34-0.14
		c0.09-0.29,0.2-0.58,0.28-0.88C1.82,22.72,1.77,22.65,1.75,22.59z"/>
	<path class="st1" d="M10.49,3.41c-0.67,2.1-1.33,4.2-2,6.3c-0.66,2.09-1.32,4.19-1.98,6.28c-0.58,1.84-1.18,3.67-1.77,5.5
		c-0.24,0.74-0.49,1.47-0.73,2.21c-0.06,0.17-0.14,0.25-0.34,0.24c-0.42-0.02-0.84-0.01-1.26,0c-0.19,0-0.22-0.05-0.16-0.23
		c0.68-2.1,1.35-4.19,2.02-6.29c0.84-2.64,1.67-5.29,2.51-7.93c0.39-1.22,0.78-2.44,1.16-3.66c0.13,0.04,0.26,0.1,0.4,0.13
		C8.54,5.99,8.84,6.07,8.89,6c0.17-0.27-0.11-0.38-0.28-0.51c-0.38-0.29-0.38-0.29-0.2-0.73C8.42,4.74,8.42,4.72,8.43,4.7
		c0.17-0.47,0.33-0.94,0.51-1.4c0.04-0.1,0.15-0.22,0.24-0.23c0.15-0.02,0.23,0.1,0.23,0.27c0,0.05,0.04,0.1,0.07,0.15
		c0.06-0.03,0.14-0.04,0.16-0.09c0.08-0.19,0.23-0.17,0.38-0.13C10.17,3.32,10.33,3.37,10.49,3.41z M4.1,21.89
		c0.04,0,0.08,0.01,0.12,0.01c0.06-0.07,0.15-0.13,0.19-0.21c0.1-0.27,0.19-0.54,0.26-0.81c0.02-0.06-0.03-0.14-0.05-0.22
		c-0.1,0.04-0.27,0.06-0.3,0.13c-0.12,0.28-0.2,0.59-0.28,0.88C4.02,21.74,4.08,21.82,4.1,21.89z M2.82,23.85
		c0.07-0.07,0.17-0.13,0.2-0.22c0.09-0.24,0.16-0.49,0.22-0.74c0.02-0.09,0.01-0.26-0.01-0.26c-0.14-0.03-0.28-0.04-0.34,0.15
		c-0.08,0.28-0.17,0.56-0.27,0.83C2.57,23.77,2.61,23.83,2.82,23.85z M3.57,23.84c0.07-0.06,0.17-0.12,0.2-0.2
		c0.1-0.25,0.17-0.51,0.24-0.77c0.02-0.08,0-0.25-0.03-0.25c-0.14-0.04-0.28-0.02-0.33,0.17c-0.08,0.28-0.16,0.56-0.26,0.83
		C3.33,23.78,3.38,23.83,3.57,23.84z"/>
	<path class="st1" d="M7.95,16.21c-0.36-0.04-0.76-0.07-1.16-0.12c-0.07-0.01-0.13-0.05-0.2-0.08c0.04-0.05,0.07-0.11,0.11-0.16
		c1.21-1.4,2.41-2.8,3.62-4.21c1.18-1.37,2.36-2.74,3.55-4.1c0.07-0.08,0.19-0.14,0.29-0.14c0.86-0.01,1.71-0.01,2.57-0.02
		c0.06,0,0.13,0.02,0.19,0.03c-0.03,0.05-0.06,0.12-0.1,0.16c-1.76,2.02-3.52,4.04-5.27,6.06c-0.55,0.63-1.09,1.28-1.62,1.93
		c-0.31,0.38-0.73,0.52-1.19,0.58C8.49,16.18,8.24,16.19,7.95,16.21z"/>
	<path class="st0" d="M10.49,3.41c-0.16-0.05-0.32-0.1-0.48-0.14c-0.15-0.04-0.3-0.06-0.38,0.13C9.61,3.45,9.52,3.46,9.47,3.49
		C9.44,3.44,9.4,3.39,9.4,3.34c0.01-0.17-0.08-0.28-0.23-0.27C9.09,3.09,8.98,3.21,8.94,3.3C8.76,3.77,8.59,4.24,8.43,4.7
		C8.42,4.72,8.42,4.74,8.41,4.75c-0.18,0.44-0.18,0.44,0.2,0.73C8.78,5.62,9.06,5.73,8.89,6C8.84,6.07,8.54,5.99,8.35,5.96
		c-0.14-0.02-0.27-0.08-0.4-0.13c-0.12-0.03-0.25-0.07-0.37-0.1C7.37,5.67,7.16,5.64,6.95,5.56C6.86,5.53,6.8,5.41,6.72,5.33
		c0.08-0.07,0.14-0.17,0.23-0.2C7.1,5.09,7.27,5.06,7.42,5.08c0.29,0.03,0.37-0.11,0.41-0.36c0.09-0.54,0.2-1.08,0.29-1.62
		c0.02-0.11,0-0.27-0.06-0.33C7.93,2.67,7.8,2.73,7.69,2.86C7.66,2.9,7.58,2.91,7.53,2.94C7.51,2.89,7.51,2.83,7.48,2.78
		c-0.06-0.09-0.11-0.2-0.19-0.25C7.13,2.45,6.96,2.41,6.79,2.35C6.28,2.17,5.77,1.99,5.25,1.81C5.19,1.79,5.12,1.78,5.07,1.74
		C5.01,1.69,4.98,1.62,4.93,1.56C5,1.52,5.07,1.45,5.13,1.45c0.43,0.04,0.87,0.1,1.3,0.13C6.65,1.6,6.88,1.54,7.1,1.57
		C7.58,1.63,7.86,1.41,8.03,1c0.01-0.02,0.05-0.03,0.08-0.05c0.01,0.03,0.03,0.06,0.03,0.08c0,0.06,0,0.12,0,0.18
		c0,0.15-0.02,0.3,0.01,0.44c0.01,0.07,0.11,0.18,0.18,0.19c0.23,0.03,0.2-0.16,0.21-0.31c0.1-0.25,0.19-0.51,0.31-0.76
		C8.95,0.54,9.07,0.31,9.21,0.1C9.25,0.03,9.38-0.01,9.46,0c0.05,0.01,0.12,0.15,0.11,0.22C9.54,0.65,9.49,1.08,9.45,1.51
		C9.4,1.66,9.34,1.81,9.32,1.96c-0.01,0.06,0.06,0.18,0.12,0.2c0.07,0.02,0.19-0.03,0.23-0.09c0.11-0.17,0.18-0.35,0.27-0.53
		c0.07-0.01,0.14-0.01,0.21-0.02c-0.03,0.27-0.07,0.53-0.09,0.8c0,0.03,0.05,0.08,0.09,0.1c0.19,0.1,0.39,0.18,0.58,0.27
		c0.46,0.23,0.91,0.45,1.37,0.68c0.07,0.03,0.15,0.05,0.2,0.11c0.06,0.06,0.09,0.15,0.14,0.23c-0.09,0.02-0.18,0.08-0.26,0.06
		c-0.51-0.11-1.01-0.23-1.51-0.35C10.61,3.41,10.55,3.42,10.49,3.41z"/>
	<path class="st0" d="M8.12,27.4c-0.73,0-1.46,0-2.19,0c-0.06,0-0.13-0.04-0.19-0.06c0.04-0.07,0.07-0.14,0.12-0.2
		c0.07-0.08,0.18-0.13,0.23-0.21c0.2-0.34,0.48-0.42,0.86-0.41c1,0.03,2.01,0.01,3.02,0c0.17,0,0.26,0.04,0.3,0.21
		c0.04,0.16,0.1,0.32,0.18,0.47c0.08,0.17,0.03,0.19-0.13,0.19C9.58,27.39,8.85,27.4,8.12,27.4C8.12,27.4,8.12,27.4,8.12,27.4z"/>
	<path class="st1" d="M10.74,2.7c-0.2-0.09-0.39-0.18-0.58-0.27c-0.04-0.02-0.09-0.07-0.09-0.1c0.02-0.27,0.06-0.53,0.09-0.8
		c0.25,0,0.5,0.01,0.75-0.01c0.19-0.01,0.18,0.07,0.14,0.21C10.93,2.04,10.83,2.37,10.74,2.7z"/>
	<path class="st1" d="M9.94,1.54C9.85,1.72,9.78,1.91,9.67,2.07C9.63,2.13,9.51,2.18,9.44,2.16c-0.06-0.02-0.13-0.13-0.12-0.2
		c0.02-0.15,0.08-0.3,0.13-0.46C9.61,1.52,9.78,1.53,9.94,1.54z"/>
	<path class="st1" d="M8.54,1.54C8.52,1.68,8.55,1.87,8.32,1.84C8.26,1.83,8.16,1.73,8.15,1.65C8.12,1.51,8.14,1.36,8.14,1.21
		C8.11,1.52,8.32,1.54,8.54,1.54z"/>
</g>
</svg>
