<?xml version="1.0" standalone="no"?>
<!DOCTYPE svg PUBLIC "-//W3C//DTD SVG 20010904//EN"
 "http://www.w3.org/TR/2001/REC-SVG-20010904/DTD/svg10.dtd">
<svg version="1.0" xmlns="http://www.w3.org/2000/svg"
 width="282.000000pt" height="251.000000pt" viewBox="0 0 282.000000 251.000000"
 preserveAspectRatio="xMidYMid meet">
<metadata>
Created by potrace 1.13, written by Peter Selinger 2001-2015
</metadata>
<g transform="translate(0.000000,251.000000) scale(0.100000,-0.100000)"
fill="#000000" stroke="none">
<path d="M1260 2414 c-247 -32 -456 -106 -641 -230 -90 -60 -234 -196 -298
-282 -242 -328 -281 -752 -103 -1103 59 -115 107 -183 199 -279 180 -190 425
-322 706 -381 137 -29 397 -32 537 -5 170 33 361 105 484 184 70 45 199 148
242 194 130 136 235 321 281 493 23 89 26 118 26 260 0 142 -3 171 -26 260
-116 432 -489 763 -975 865 -95 20 -350 34 -432 24z m355 -89 c275 -45 502
-156 685 -335 149 -146 243 -301 292 -482 30 -109 33 -366 6 -465 -89 -321
-316 -587 -624 -728 -497 -229 -1090 -138 -1470 228 -340 325 -416 802 -193
1200 177 314 529 539 924 590 78 10 298 6 380 -8z"/>
<path d="M1025 1965 c-337 -61 -597 -245 -675 -476 -18 -52 -21 -80 -18 -151
4 -75 9 -96 42 -163 67 -135 190 -247 372 -338 164 -82 211 -92 429 -91 164 0
201 3 270 22 158 44 324 135 424 233 l53 53 -40 19 -40 20 -83 -61 c-101 -72
-180 -113 -297 -152 -231 -77 -480 -61 -653 42 -435 260 -272 851 268 971 161
36 332 30 531 -19 165 -41 140 -18 -49 46 -175 59 -371 75 -534 45z"/>
<path d="M1440 1755 c-209 -35 -375 -115 -515 -246 -51 -48 -58 -59 -47 -72 8
-9 26 -18 41 -22 24 -5 42 4 112 55 105 75 259 152 364 182 64 17 106 22 210
22 220 -1 337 -45 460 -176 137 -144 173 -311 107 -486 -107 -281 -478 -464
-833 -412 -46 6 -133 23 -193 36 -60 14 -110 23 -113 21 -5 -6 121 -58 206
-86 125 -41 225 -54 381 -49 179 6 274 29 420 100 90 45 118 65 191 138 242
242 262 547 49 760 -83 83 -175 138 -309 185 -184 63 -358 80 -531 50z"/>
<path d="M710 1300 c-43 -43 -48 -63 -24 -95 18 -25 116 -30 150 -9 19 13 24
13 37 -1 20 -19 66 -19 91 0 27 20 8 42 -22 26 -28 -15 -32 -14 -32 9 0 14 7
20 23 20 12 0 37 9 55 20 18 11 35 20 37 20 10 0 5 -22 -14 -60 -10 -21 -16
-41 -13 -44 14 -15 50 -4 59 17 13 29 62 87 73 87 5 0 4 -14 -2 -30 -8 -24 -7
-35 6 -55 9 -14 22 -26 29 -26 41 -4 80 1 93 12 11 9 18 8 32 -5 25 -22 87
-21 111 3 18 18 19 18 32 0 20 -28 36 -30 80 -12 36 14 39 18 26 30 -12 12
-19 13 -37 3 -25 -13 -35 -8 -27 15 4 8 17 15 30 15 14 0 36 9 50 20 32 26 41
12 22 -34 -20 -48 -19 -56 10 -56 18 0 29 9 44 38 25 48 51 72 80 69 22 -1 22
-4 16 -54 -5 -44 -4 -54 10 -59 18 -7 103 59 121 95 18 36 26 6 10 -34 -8 -19
-13 -42 -10 -50 7 -17 41 -20 63 -6 8 5 26 4 46 -5 48 -20 105 -1 105 35 0 10
-11 28 -25 41 -40 38 -30 66 15 38 22 -14 35 -6 27 16 -14 35 -108 30 -115 -5
-2 -9 9 -31 24 -48 25 -30 26 -34 11 -49 -15 -14 -18 -14 -35 1 -10 9 -26 17
-35 17 -21 0 -21 0 -1 50 22 54 9 70 -42 51 -26 -9 -39 -10 -47 -2 -20 20 -37
12 -37 -18 0 -16 -7 -34 -15 -41 -13 -11 -15 -7 -15 23 0 38 -3 40 -72 51 -22
4 -39 2 -43 -4 -5 -8 -11 -7 -21 1 -11 9 -20 9 -37 0 -24 -13 -48 -12 -58 3
-4 5 -23 6 -42 2 -40 -7 -87 -55 -87 -87 0 -16 -5 -14 -30 14 -16 19 -30 37
-30 41 0 11 36 6 48 -6 16 -16 29 -1 16 20 -15 24 -93 24 -108 0 -8 -14 -5
-23 17 -46 15 -15 27 -33 27 -39 0 -20 -21 -26 -45 -13 -19 10 -22 18 -18 45
8 50 -23 76 -90 75 -28 -1 -72 1 -97 3 -25 3 -58 0 -73 -6 -20 -7 -31 -7 -40
2 -37 37 -137 -23 -137 -82 0 -29 -1 -30 -16 -15 -14 14 -14 18 1 48 24 47 14
60 -45 60 -45 0 -54 -4 -90 -40z"/>
</g>
</svg>
