<?xml version="1.0" encoding="utf-8"?>
<!-- Generator: Adobe Illustrator 18.1.1, SVG Export Plug-In . SVG Version: 6.00 Build 0)  -->
<svg version="1.1" id="Layer_1" xmlns="http://www.w3.org/2000/svg" xmlns:xlink="http://www.w3.org/1999/xlink" x="0px" y="0px"
	 width="94px" height="30px" viewBox="0 0 94 30" style="enable-background:new 0 0 94 30;" xml:space="preserve">
<style type="text/css">
	.st0{fill:#676A6F;}
	.st1{fill:#A9CE3C;}
	.st2{fill:#FEFEFE;}
</style>
<path id="path14" class="st0" d="M47.53,10.74h2.52v9.48h-2.52V10.74z M47.53,7.17h2.52v2.25
	h-2.52V7.17"/>
<path id="path16" class="st0" d="M53.88,12.25h0.06c0.57-1.07,1.22-1.63,2.33-1.63
	c0.28,0,0.44,0.02,0.59,0.07v2.2h-0.06c-1.65-0.17-2.83,0.7-2.83,2.7v4.62h-2.52v-9.48h2.43L53.88,12.25"/>
<path id="path18" class="st0" d="M61.77,10.74h2.52v9.48h-2.52V10.74z M61.77,7.17h2.52v2.25
	h-2.52V7.17"/>
<path id="path20" class="st0" d="M68.16,12.03h0.06c0.65-1.02,1.52-1.55,2.82-1.55
	c1.96,0,3.28,1.48,3.28,3.55v6.19h-2.52V14.4c0-1.02-0.59-1.74-1.65-1.74c-1.11,0-1.93,0.89-1.93,2.18v5.38H65.7v-9.48h2.46
	L68.16,12.03"/>
<g>
	<g>
		<path class="st0" d="M80.26,18.56c-1.43,0-2.24-0.91-2.43-2.37h6.89c0-3.38-1.63-5.71-4.69-5.71c-2.78,0-4.69,2.18-4.69,4.99
			c0,2.83,1.78,5.03,4.93,5.03c2.45,0,3.95-1.42,4.3-3.1h-2.48C81.81,18.11,81.24,18.56,80.26,18.56z M80.07,12.42
			c1.15,0,1.94,0.83,2.02,2.03h-4.22C78.09,13.22,78.74,12.42,80.07,12.42z"/>
	</g>
</g>
<path id="path24" class="st0" d="M85.3,17.15h2.33c0.17,1.09,0.94,1.57,2.07,1.57
	c1.11,0,1.74-0.43,1.74-1.09c0-0.91-1.2-1-2.5-1.26c-1.7-0.33-3.37-0.79-3.37-2.86c0-2.05,1.7-3.03,3.87-3.03
	c2.5,0,3.89,1.24,4.08,3.14h-2.28c-0.11-1.02-0.76-1.39-1.83-1.39c-0.98,0-1.63,0.37-1.63,1.05c0,0.81,1.26,0.89,2.61,1.16
	c1.59,0.33,3.35,0.78,3.35,2.99c0,1.9-1.63,3.05-4,3.05C86.99,20.5,85.45,19.17,85.3,17.15"/>
<g>
	<g>
		<path class="st0" d="M41.58,7.17h-2.93l-5.3,13.04h3l0.98-2.68h5.41l1,2.68h3.02L41.58,7.17z M38.05,15.34L40,9.8l2,5.54H38.05z"
			/>
	</g>
</g>
<path id="path28" class="st0" d="M57.84,7.17v13.04h2.52l0-13.04H57.84"/>
<path id="path30" class="st1" d="M30.08,15c0,8.29-6.73,15-15.03,15C6.74,30,0,23.29,0,15
	C0,6.72,6.74,0,15.04,0C23.35,0,30.08,6.72,30.08,15"/>
<path id="path32" class="st2" d="M25.01,7.17h-7.36l-1.05,2.61h2.44c1.64,0,1.96-0.04,2.37-0.04
	c-0.59,1.36-4.18,10.47-4.18,10.47h3.03c0,0,4.54-11.35,5.02-12.53C25.43,7.42,25.36,7.17,25.01,7.17z M13.95,7.17
	c-2.37,0-3.91,0.13-5.02,0.54c-1.87,0.73-3.16,2.25-3.16,4.25c0,1.67,0.78,2.87,3.03,4.26c2.4,1.45,2.88,1.93,2.88,2.81
	c0,0.96-0.94,2.05-3.36,2.05c-0.84,0-2.12-0.12-2.93-0.31L5,20.67c-0.22,0.58-0.71,1.95-0.86,2.44l0.38,0.11
	c0.73,0.23,2.47,0.41,3.71,0.41c4.14,0,6.61-2.49,6.61-5.1c0-1.6-0.73-2.82-3.2-4.36c-1.24-0.76-1.87-1.25-2.25-1.63
	c-0.31-0.4-0.35-0.69-0.35-1.01c0-0.3,0.07-0.64,0.26-0.9c0.21-0.31,0.61-0.51,1.14-0.67c0.54-0.18,1.55-0.19,3.13-0.19h1.46
	l1.05-2.61H13.95"/>
</svg>
