<?xml version="1.0" encoding="utf-8"?>
<!-- Generator: Adobe Illustrator 18.1.1, SVG Export Plug-In . SVG Version: 6.00 Build 0)  -->
<svg version="1.1" id="Layer_1" xmlns="http://www.w3.org/2000/svg" xmlns:xlink="http://www.w3.org/1999/xlink" x="0px" y="0px"
	 width="144.16px" height="29.7px" viewBox="0 0 144.16 29.7" style="enable-background:new 0 0 144.16 29.7;" xml:space="preserve"
	>
<style type="text/css">
	.st0{fill:#33518D;}
	.st1{fill:#CA382C;}
	.st2{fill:#D9D8D7;}
</style>
<g>
	<path class="st0" d="M123.37,14.44c0,0-1.7-2.15-1.91-2c-0.19,0.13,0,0.46,0.46,1.59c-1.04-0.16-4.97-1-8.18-5.3l-1.45,2.41
		c0,0,5.19,2.99,9.74,3.15c0.04,0.09,0.07,0.17,0.11,0.27c-4.42,0-11.37-1.09-11.37-1.09l-0.91,1.38l0.91,1.38
		c0,0,6.95-1.09,11.37-1.09c-0.04,0.09-0.08,0.18-0.11,0.27c-4.56,0.15-9.74,3.15-9.74,3.15l1.45,2.41c3.21-4.3,7.14-5.14,8.18-5.3
		c-0.46,1.14-0.65,1.46-0.46,1.59c0.21,0.15,1.91-2,1.91-2c1.37,0,2.35-0.06,2.35-0.41S124.74,14.44,123.37,14.44z"/>
	<path class="st0" d="M130.66,15.27c0,0,1.7,2.15,1.91,2c0.19-0.13,0-0.46-0.46-1.59c1.04,0.16,4.97,1,8.18,5.3l1.45-2.41
		c0,0-5.19-2.99-9.74-3.15c-0.04-0.09-0.07-0.17-0.11-0.27c4.42,0,11.37,1.09,11.37,1.09l0.91-1.38l-0.91-1.38
		c0,0-6.95,1.09-11.37,1.09c0.04-0.09,0.08-0.18,0.11-0.27c4.56-0.15,9.74-3.15,9.74-3.15l-1.45-2.41c-3.21,4.3-7.14,5.14-8.18,5.3
		c0.46-1.14,0.65-1.46,0.46-1.59c-0.21-0.15-1.91,2-1.91,2c-1.37,0-2.35,0.06-2.35,0.41S129.29,15.27,130.66,15.27z"/>
	<path class="st1" d="M124.83,17.8c0,0-2.71,0.39-2.68,0.65c0.02,0.23,0.4,0.23,1.61,0.4c-0.66,0.82-3.35,3.81-8.68,4.44l1.36,2.46
		c0,0,5.19-3,7.6-6.87c0.09,0.01,0.19,0.02,0.29,0.04c-2.21,3.83-6.63,9.3-6.63,9.3l0.74,1.48l1.65-0.1c0,0,2.53-6.57,4.74-10.39
		c0.06,0.08,0.12,0.16,0.18,0.23c-2.15,4.02-2.15,10.01-2.15,10.01l2.82-0.05c-2.11-4.93-0.88-8.76-0.5-9.74
		c0.76,0.97,0.94,1.29,1.15,1.2c0.24-0.11-0.78-2.65-0.78-2.65c0.69-1.19,1.12-2.07,0.82-2.24C126.06,15.8,125.52,16.62,124.83,17.8
		z"/>
	<path class="st1" d="M129.2,11.9c0,0,2.71-0.39,2.68-0.65c-0.02-0.23-0.4-0.23-1.61-0.4c0.66-0.82,3.35-3.81,8.68-4.44l-1.36-2.46
		c0,0-5.19,3-7.6,6.87c-0.09-0.01-0.19-0.02-0.29-0.04c2.21-3.83,6.63-9.3,6.63-9.3L135.59,0l-1.65,0.1c0,0-2.53,6.57-4.74,10.39
		c-0.06-0.08-0.12-0.16-0.18-0.23c2.15-4.02,2.15-10.01,2.15-10.01l-2.82,0.05c2.11,4.93,0.88,8.76,0.5,9.74
		c-0.76-0.97-0.94-1.29-1.15-1.2c-0.24,0.11,0.78,2.65,0.78,2.65c-0.69,1.19-1.12,2.07-0.82,2.24
		C127.97,13.91,128.51,13.09,129.2,11.9z"/>
	<path class="st2" d="M128.48,18.22c0,0-1.01,2.54-0.78,2.65c0.21,0.09,0.39-0.23,1.15-1.2c0.39,0.98,1.62,4.81-0.5,9.74l2.82,0.05
		c0,0,0-5.99-2.15-10.01c0.06-0.07,0.11-0.15,0.18-0.23c2.21,3.83,4.74,10.39,4.74,10.39l1.65,0.1l0.74-1.48c0,0-4.42-5.47-6.63-9.3
		c0.1-0.01,0.2-0.02,0.29-0.04c2.41,3.87,7.6,6.87,7.6,6.87l1.36-2.46c-5.33-0.63-8.02-3.61-8.68-4.44c1.22-0.17,1.59-0.17,1.61-0.4
		c0.03-0.26-2.68-0.65-2.68-0.65c-0.69-1.19-1.23-2.01-1.53-1.83C127.36,16.15,127.79,17.03,128.48,18.22z"/>
	<path class="st2" d="M125.55,11.49c0,0,1.01-2.54,0.78-2.65c-0.21-0.09-0.39,0.23-1.15,1.2c-0.39-0.98-1.62-4.81,0.5-9.74
		l-2.82-0.05c0,0,0,5.99,2.15,10.01c-0.06,0.07-0.11,0.15-0.18,0.23c-2.21-3.83-4.74-10.39-4.74-10.39L118.44,0l-0.74,1.48
		c0,0,4.42,5.47,6.63,9.3c-0.1,0.01-0.2,0.02-0.29,0.04c-2.41-3.87-7.6-6.87-7.6-6.87l-1.36,2.46c5.33,0.63,8.02,3.61,8.68,4.44
		c-1.22,0.17-1.59,0.17-1.61,0.4c-0.03,0.26,2.68,0.65,2.68,0.65c0.69,1.19,1.23,2.01,1.53,1.83S126.23,12.67,125.55,11.49z"/>
	<g>
		<path class="st0" d="M1.08,5.02h1.8v3.22l2.53-3.22h2.13L4.28,9.18l3.58,5.17H5.75L2.88,10.2v4.15h-1.8V5.02z"/>
		<path class="st0" d="M12.88,4.78c1.32,0,2.46,0.48,3.41,1.43c0.95,0.96,1.43,2.12,1.43,3.5c0,1.36-0.47,2.52-1.41,3.46
			s-2.08,1.42-3.41,1.42c-1.4,0-2.57-0.48-3.49-1.45c-0.93-0.97-1.39-2.12-1.39-3.45c0-0.89,0.22-1.71,0.65-2.46
			s1.03-1.34,1.78-1.78S12.01,4.78,12.88,4.78z M12.86,6.52c-0.86,0-1.59,0.3-2.18,0.9C10.09,8.02,9.8,8.79,9.8,9.71
			c0,1.03,0.37,1.85,1.11,2.45c0.58,0.47,1.24,0.7,1.98,0.7c0.84,0,1.56-0.3,2.15-0.91s0.89-1.36,0.89-2.25
			c0-0.89-0.3-1.64-0.9-2.26C14.44,6.83,13.72,6.52,12.86,6.52z"/>
		<path class="st0" d="M27.96,6.66l-1.24,1.18c-0.85-0.89-1.8-1.34-2.85-1.34c-0.89,0-1.64,0.3-2.25,0.91
			C21,8.03,20.7,8.78,20.7,9.67c0,0.62,0.14,1.17,0.41,1.66c0.27,0.48,0.65,0.86,1.15,1.14s1.04,0.41,1.65,0.41
			c0.52,0,0.99-0.1,1.41-0.29c0.43-0.19,0.9-0.54,1.41-1.05l1.21,1.26c-0.69,0.67-1.34,1.14-1.96,1.4c-0.61,0.26-1.31,0.39-2.1,0.39
			c-1.45,0-2.64-0.46-3.56-1.38c-0.93-0.92-1.39-2.1-1.39-3.54c0-0.93,0.21-1.76,0.63-2.48c0.42-0.72,1.02-1.31,1.81-1.75
			C22.15,5,22.99,4.78,23.9,4.78c0.77,0,1.51,0.16,2.22,0.49S27.45,6.06,27.96,6.66z"/>
		<path class="st0" d="M28.89,5.02h5.16v1.75h-1.7v7.58h-1.8V6.77h-1.66V5.02z"/>
		<path class="st0" d="M35.26,5.02h1.88c1.02,0,1.75,0.09,2.21,0.28s0.81,0.49,1.07,0.91s0.39,0.93,0.39,1.51
			c0,0.65-0.17,1.19-0.51,1.63c-0.34,0.43-0.8,0.73-1.39,0.9c-0.34,0.1-0.97,0.15-1.87,0.15v3.95h-1.78V5.02z M37.04,8.67h0.57
			c0.44,0,0.75-0.03,0.93-0.1s0.31-0.17,0.41-0.32s0.15-0.32,0.15-0.53c0-0.36-0.14-0.62-0.42-0.79c-0.2-0.12-0.58-0.18-1.13-0.18
			h-0.5V8.67z"/>
		<path class="st0" d="M46.84,4.78c1.32,0,2.46,0.48,3.41,1.43s1.43,2.12,1.43,3.5c0,1.36-0.47,2.52-1.41,3.46
			c-0.94,0.94-2.08,1.42-3.41,1.42c-1.4,0-2.57-0.48-3.49-1.45s-1.39-2.12-1.39-3.45c0-0.89,0.22-1.71,0.65-2.46
			c0.43-0.75,1.03-1.34,1.78-1.78C45.15,5,45.96,4.78,46.84,4.78z M46.82,6.52c-0.86,0-1.59,0.3-2.18,0.9s-0.88,1.36-0.88,2.29
			c0,1.03,0.37,1.85,1.11,2.45c0.58,0.47,1.24,0.7,1.98,0.7c0.84,0,1.56-0.3,2.15-0.91c0.59-0.61,0.89-1.36,0.89-2.25
			c0-0.89-0.3-1.64-0.9-2.26C48.4,6.83,47.67,6.52,46.82,6.52z"/>
		<path class="st0" d="M54.07,5.02h1.73l2.16,6.51l2.18-6.51h1.73l1.57,9.34h-1.72l-1-5.9l-1.98,5.9h-1.57l-1.97-5.9l-1.03,5.9
			h-1.73L54.07,5.02z"/>
		<path class="st0" d="M73.31,6.66l-1.24,1.18c-0.85-0.89-1.8-1.34-2.85-1.34c-0.89,0-1.64,0.3-2.25,0.91
			c-0.61,0.61-0.92,1.36-0.92,2.26c0,0.62,0.14,1.17,0.41,1.66c0.27,0.48,0.65,0.86,1.15,1.14s1.04,0.41,1.65,0.41
			c0.52,0,0.99-0.1,1.41-0.29c0.43-0.19,0.9-0.54,1.41-1.05l1.21,1.26c-0.69,0.67-1.34,1.14-1.96,1.4c-0.61,0.26-1.31,0.39-2.1,0.39
			c-1.45,0-2.64-0.46-3.56-1.38c-0.93-0.92-1.39-2.1-1.39-3.54c0-0.93,0.21-1.76,0.63-2.48c0.42-0.72,1.02-1.31,1.81-1.75
			c0.79-0.44,1.63-0.66,2.54-0.66c0.77,0,1.51,0.16,2.22,0.49S72.79,6.06,73.31,6.66z"/>
		<path class="st0" d="M74.7,5.02h1.8v3.22l2.53-3.22h2.13L77.9,9.18l3.58,5.17h-2.11L76.5,10.2v4.15h-1.8V5.02z"/>
		<path class="st0" d="M86.5,4.78c1.32,0,2.46,0.48,3.41,1.43c0.95,0.96,1.43,2.12,1.43,3.5c0,1.36-0.47,2.52-1.41,3.46
			s-2.08,1.42-3.41,1.42c-1.4,0-2.57-0.48-3.49-1.45c-0.93-0.97-1.39-2.12-1.39-3.45c0-0.89,0.22-1.71,0.65-2.46
			s1.03-1.34,1.78-1.78S85.63,4.78,86.5,4.78z M86.48,6.52c-0.86,0-1.59,0.3-2.18,0.9c-0.59,0.6-0.88,1.36-0.88,2.29
			c0,1.03,0.37,1.85,1.11,2.45c0.58,0.47,1.24,0.7,1.98,0.7c0.84,0,1.56-0.3,2.15-0.91s0.89-1.36,0.89-2.25
			c0-0.89-0.3-1.64-0.9-2.26C88.07,6.83,87.34,6.52,86.48,6.52z"/>
		<path class="st0" d="M92.92,5.02h5.1v1.74h-3.33v1.69h3.33v1.71h-3.33v2.46h3.33v1.75h-5.1V5.02z"/>
	</g>
	<g>
		<path class="st0" d="M3.99,18.51h1.39l2.76,7.18H6.72l-0.56-1.48H3.22L2.64,25.7H1.22L3.99,18.51z M4.69,20.42l-0.96,2.47h1.92
			L4.69,20.42z"/>
		<path class="st0" d="M9.42,25.7v-7.18h1.13c0.65,0,1.13,0.04,1.44,0.13c0.43,0.11,0.77,0.33,1.03,0.63
			c0.25,0.31,0.38,0.67,0.38,1.09c0,0.27-0.06,0.52-0.17,0.75c-0.12,0.22-0.3,0.43-0.56,0.63c0.44,0.21,0.76,0.46,0.96,0.77
			c0.2,0.31,0.3,0.67,0.3,1.09c0,0.4-0.1,0.77-0.31,1.1c-0.21,0.33-0.48,0.58-0.81,0.75c-0.33,0.16-0.78,0.25-1.36,0.25H9.42z
			 M10.79,19.82v1.51h0.3c0.33,0,0.58-0.07,0.74-0.21c0.16-0.14,0.24-0.33,0.24-0.57c0-0.22-0.08-0.4-0.23-0.54
			c-0.15-0.13-0.39-0.2-0.7-0.2H10.79z M10.79,22.55v1.84h0.34c0.57,0,0.95-0.07,1.15-0.21s0.3-0.35,0.3-0.63
			c0-0.31-0.12-0.55-0.35-0.73s-0.62-0.27-1.16-0.27H10.79z"/>
		<path class="st0" d="M20.68,18.51v7.18h-1.37v-4.5l-2.68,4.5h-1.19v-7.18h1.37v4.64l2.71-4.64H20.68z"/>
		<path class="st0" d="M24.73,18.51h1.39l2.76,7.18h-1.42l-0.56-1.48h-2.93l-0.58,1.48h-1.42L24.73,18.51z M25.43,20.42l-0.96,2.47
			h1.92L25.43,20.42z"/>
		<path class="st0" d="M30.17,18.51h5.17v7.18h-1.38v-5.9h-2.4v5.9h-1.39V18.51z"/>
		<path class="st0" d="M37.22,18.51h1.45c0.78,0,1.35,0.07,1.7,0.22c0.35,0.14,0.62,0.38,0.82,0.7c0.2,0.32,0.3,0.71,0.3,1.16
			c0,0.5-0.13,0.92-0.39,1.25s-0.62,0.56-1.07,0.69c-0.26,0.08-0.74,0.11-1.44,0.11v3.04h-1.37V18.51z M38.59,21.32h0.44
			c0.34,0,0.58-0.02,0.71-0.07c0.13-0.05,0.24-0.13,0.31-0.24c0.08-0.11,0.12-0.25,0.12-0.41c0-0.28-0.11-0.48-0.32-0.61
			c-0.16-0.09-0.45-0.14-0.87-0.14h-0.39V21.32z"/>
		<path class="st0" d="M42.93,18.51h3.92v1.34h-2.56v1.3h2.56v1.31h-2.56v1.89h2.56v1.34h-3.92V18.51z"/>
		<path class="st0" d="M50.95,18.51h1.38l2.31,5.9h0.8v2.36h-1.32V25.7h-4.94v1.07h-1.32v-2.36h0.79L50.95,18.51z M51.66,20.42
			l-1.57,3.99h3.14L51.66,20.42z"/>
		<path class="st0" d="M56.64,18.51h5.17v7.18h-1.38v-5.9h-2.4v5.9h-1.39V18.51z"/>
		<path class="st0" d="M63.7,18.51h1.45c0.79,0,1.35,0.07,1.7,0.22c0.35,0.14,0.62,0.38,0.82,0.7c0.2,0.32,0.3,0.71,0.3,1.16
			c0,0.5-0.13,0.92-0.39,1.25s-0.62,0.56-1.07,0.69c-0.26,0.08-0.74,0.11-1.44,0.11v3.04H63.7V18.51z M65.07,21.32h0.43
			c0.34,0,0.58-0.02,0.71-0.07c0.13-0.05,0.24-0.13,0.32-0.24c0.08-0.11,0.11-0.25,0.11-0.41c0-0.28-0.11-0.48-0.32-0.61
			c-0.16-0.09-0.45-0.14-0.87-0.14h-0.38V21.32z"/>
		<path class="st0" d="M74.63,18.51v7.18h-1.37v-4.5l-2.68,4.5H69.4v-7.18h1.37v4.64l2.71-4.64H74.63z"/>
		<path class="st0" d="M80.7,18.51v7.18h-1.37v-2.89h-0.34l-1.44,2.89h-1.49l1.63-3.11c-0.94-0.27-1.41-0.9-1.41-1.88
			c0-0.35,0.05-0.66,0.15-0.92c0.1-0.26,0.24-0.48,0.42-0.66s0.4-0.31,0.64-0.4c0.24-0.09,0.44-0.14,0.58-0.15
			c0.14-0.01,0.54-0.03,1.2-0.05H80.7z M79.33,21.47v-1.62h-0.38c-0.34,0-0.59,0.02-0.74,0.06c-0.15,0.04-0.27,0.13-0.37,0.26
			c-0.09,0.13-0.14,0.3-0.14,0.5c0,0.3,0.09,0.5,0.28,0.62c0.19,0.12,0.49,0.18,0.91,0.18H79.33z"/>
		<path class="st0" d="M81.92,18.51h3.97v1.35h-1.31v5.83h-1.39v-5.83h-1.27V18.51z"/>
		<path class="st0" d="M92.35,18.51v7.18h-1.37v-4.5l-2.68,4.5h-1.19v-7.18h1.37v4.64l2.71-4.64H92.35z"/>
		<path class="st0" d="M94.24,18.51h3.92v1.34h-2.56v1.3h2.56v1.31h-2.56v1.89h2.56v1.34h-3.92V18.51z"/>
	</g>
</g>
</svg>
