<?xml version="1.0" encoding="utf-8"?>
<!-- Generator: Adobe Illustrator 18.1.1, SVG Export Plug-In . SVG Version: 6.00 Build 0)  -->
<svg version="1.1"
	 id="svg26784" xmlns:rdf="http://www.w3.org/1999/02/22-rdf-syntax-ns#" xmlns:cc="http://creativecommons.org/ns#" xmlns:svg="http://www.w3.org/2000/svg" xmlns:dc="http://purl.org/dc/elements/1.1/"
	 xmlns="http://www.w3.org/2000/svg" xmlns:xlink="http://www.w3.org/1999/xlink" x="0px" y="0px" width="122px" height="30px"
	 viewBox="-778.48 1058 122 30" style="enable-background:new -778.48 1058 122 30;" xml:space="preserve">
<style type="text/css">
	.st0{fill:none;}
	.st1{fill:#E60012;}
</style>
<rect x="-1554.79" y="-3665.26" class="st0" width="4171.86" height="5919.53"/>
<rect x="-1554.79" y="-3665.26" class="st0" width="4171.86" height="5919.53"/>
<g>
	<path class="st1" d="M-770.82,1082.75c0.32,0.18,0.58,0.59,0.63,1.02c0.09,0.73-0.45,1.41-1.19,1.5c-0.74,0.09-1.44-0.48-1.51-1.25
		c-0.07-0.73,0.39-1.47,1.18-1.87c1.19-0.6,2.77-0.44,3.96,0c2.67,0.98,4.89,3.5,5.72,4.77c-1.39-5-7.04-9.4-12.1-7.18
		c-1.73,0.76-2.85,2.49-2.72,4.35c0.15,2.1,1.8,3.88,4.31,3.91c1.17,0.01,2.28-0.52,2.86-1.29
		C-768.7,1085.42-769.09,1083.41-770.82,1082.75"/>
	<path class="st1" d="M-752.87,1082.75c-0.32,0.18-0.58,0.59-0.63,1.02c-0.09,0.73,0.45,1.41,1.19,1.5
		c0.74,0.09,1.44-0.48,1.51-1.25c0.07-0.73-0.39-1.47-1.18-1.87c-1.19-0.6-2.77-0.44-3.96,0c-2.67,0.98-4.89,3.5-5.72,4.77
		c1.39-5,7.04-9.4,12.1-7.18c1.73,0.76,2.85,2.49,2.72,4.35c-0.15,2.1-1.8,3.88-4.31,3.91c-1.17,0.01-2.28-0.52-2.85-1.29
		C-754.99,1085.42-754.61,1083.41-752.87,1082.75"/>
	<path class="st1" d="M-761.83,1069.44c4.66,0,8.44-2.43,8.44-5.42c0-2.33-2.3-4.32-5.53-5.09c3.82,0.78,6.58,3.04,6.58,5.72
		c0,3.08-3.6,5.28-7.03,5.79c-1.68,0.25-2.04,0.3-2.47,0.76c-0.42-0.46-0.79-0.51-2.47-0.76c-3.43-0.51-7.03-2.71-7.03-5.79
		c0-2.68,2.76-4.95,6.58-5.72c-3.23,0.76-5.53,2.75-5.53,5.09C-770.27,1067.02-766.49,1069.44-761.83,1069.44"/>
	<path class="st1" d="M-761.83,1072.9c0.87-0.8,2.01-0.9,3.02-1.11c4.7-1,7.78-3.46,7.78-6.58c0-1.26-0.53-2.44-1.46-3.45
		c-1.54-1.69-4.19-2.92-7.31-3.3c5.77,0.61,10.16,3.79,10.16,7.61c0,3.41-3.27,5.92-8.35,7.33c-2.2,0.61-3.26,1.02-3.84,1.98
		c-0.57-0.97-1.63-1.38-3.83-1.98c-5.08-1.4-8.35-3.91-8.35-7.33c0-3.83,4.4-7,10.16-7.61c-3.12,0.38-5.77,1.61-7.31,3.3
		c-0.93,1.01-1.46,2.19-1.46,3.45c0,3.12,3.08,5.59,7.78,6.58C-763.84,1072-762.7,1072.1-761.83,1072.9"/>
	<path class="st1" d="M-761.83,1078.14c0.9-1.8,3.25-2.75,5.23-3.4c0.57-0.19,0.83-0.27,1.52-0.53c4-1.51,6.69-4.32,6.69-7.53
		c0-4.52-5.27-8.22-12.04-8.68c8.54,0.45,15.25,4.98,15.25,10.5c0,3.69-2.61,6.77-7.54,8.82c-1.98,0.82-7.83,2.54-9.11,8.6
		c-1.35-6.08-7.13-7.77-9.11-8.6c-4.93-2.04-7.54-5.13-7.54-8.82c0-5.52,6.71-10.04,15.25-10.5c-6.76,0.45-12.04,4.16-12.04,8.68
		c0.01,3.21,2.69,6.02,6.69,7.53c0.69,0.26,0.94,0.34,1.52,0.53C-765.09,1075.39-762.73,1076.33-761.83,1078.14"/>
	<path class="st1" d="M-765,1063.03c0-1.77,1.42-3.2,3.17-3.2c1.75,0,3.17,1.43,3.17,3.2c0,1.77-1.42,3.2-3.17,3.2
		C-763.58,1066.23-765,1064.8-765,1063.03"/>
	<path id="path26291" class="st1" d="M-684.26,1064.77v-1.78h2.74v-1.97h2.05v1.97h3.1v1.78H-684.26z M-687.76,1064.67
		c0.34,0.73,0.64,1.68,0.86,2.7l-1.51,0.48c-0.15-0.91-0.52-2.18-0.79-2.84C-689.21,1065.01-687.76,1064.67-687.76,1064.67z
		 M-686.52,1064.23h-2.96v3.86h2.96C-686.52,1068.09-686.52,1064.23-686.52,1064.23z M-691.2,1068.09v-5.53h2.03
		c0.13-0.52,0.25-1.19,0.34-1.77l1.89,0.24c-0.14,0.62-0.27,1.08-0.38,1.53h2.51v13.21c0,0.8-0.7,1.48-1.52,1.48h-1.76l-0.44-1.77
		l1.5,0.01c0.3,0,0.5-0.15,0.5-0.45v-5.31h-2.96c-0.01,3.18-0.42,5.67-1.24,7.57l-0.05,0.13l-1.61-1.16l0.04-0.09
		c0.77-1.61,1.15-3.73,1.15-6.35v-0.1h-1.16v-1.65C-692.36,1068.09-691.2,1068.09-691.2,1068.09z M-689.21,1071.08l1.43-0.45
		c0.31,0.71,0.63,1.77,0.9,2.94l-1.55,0.42C-688.68,1072.82-688.95,1071.78-689.21,1071.08 M-677.99,1075.08
		c0,0.26,0.11,0.35,0.34,0.35h0.17c0.15,0,0.25-0.06,0.3-0.17c0.08-0.17,0.19-1.02,0.27-1.77l1.71,0.46c-0.07,0.37-0.14,1-0.25,1.45
		c-0.34,1.36-1.19,1.69-1.76,1.69h-1.56c-0.41,0-1.1-0.45-1.1-1.28v-8.02l-1.42,0v1.95c0,3.22-0.55,5.76-1.74,7.63l-1.52-1.36
		c0.96-1.35,1.5-3.68,1.5-6.87v-3.07l5.07,0C-677.99,1066.06-677.99,1075.08-677.99,1075.08z"/>
	<path id="path26295" class="st1" d="M-656.49,1075.07v1.85h-15.65v-1.85h6.8v-2.7h-5.16v-1.85h12.51v1.83h-5.34v2.71H-656.49z
		 M-669.92,1066.57h-1.93v-4.03h6.52V1061h2v1.55h6.61v4.03h-1.93v-2.25h-11.27V1066.57L-669.92,1066.57z M-661.42,1066.73
		c0,0.5,0.44,0.82,0.8,0.82h3.9v1.76h-4.71c-0.98,0-1.9-0.86-1.9-1.82V1065h1.91C-661.42,1065-661.42,1066.73-661.42,1066.73z
		 M-671.26,1070.13l-0.86-1.87c2.9-0.4,4.52-1.43,5.56-3.37l1.84,0.79C-665.99,1068.15-668.34,1069.63-671.26,1070.13"/>
	<path id="path26299" class="st1" d="M-727.43,1063.02l-1.02,1.51c-0.12-0.08-1.74-1.23-3.11-1.93l1-1.45
		C-729.65,1061.58-728.32,1062.36-727.43,1063.02 M-728.13,1067.81l-1,1.6c-0.36-0.28-2.36-1.65-3.43-2.17l0.94-1.57
		C-730.64,1066.1-728.76,1067.29-728.13,1067.81 M-729.68,1070.74l1.75,0.71c-0.52,1.46-2.15,4.84-3.16,6.17l-1.74-1.02
		C-731.83,1075.09-730.31,1072.36-729.68,1070.74 M-724.37,1062.56h9.03v1.52h-9.88c-0.59,0.95-1.21,1.77-1.7,2.38l-1.47-1
		c0.96-1.21,2.27-3.01,2.88-4.59l1.63,0.58C-724.02,1061.82-724.19,1062.19-724.37,1062.56 M-724.33,1069.45h6.25l0.15-2.91H-724
		C-724.08,1067.36-724.2,1068.38-724.33,1069.45 M-715.61,1073.88v1.46h-1.01c-0.14,1.55-0.98,2.16-2.57,2.16h-1.18l-0.31-1.58
		c0,0,0.77,0.14,1.25,0.14c0.6,0,0.93-0.19,1-0.72h-8.54c0.15-0.83,0.43-2.67,0.68-4.47h-1.11v-1.43h1.29
		c0.24-1.81,0.45-3.59,0.49-4.4h9.57c-0.05,1.03-0.16,2.73-0.24,4.4h1.04v1.43h-1.11c-0.05,1.08-0.11,2.17-0.16,3H-715.61z
		 M-724.95,1073.88h3.95c-0.63-0.64-1.32-1.28-2.08-1.83l1.04-1.12c0.67,0.45,1.68,1.3,2.23,1.85l-0.95,1.1h2.44
		c0.01-0.13,0.09-1.74,0.15-3h-6.33C-724.64,1071.95-724.82,1073.04-724.95,1073.88 M-721.71,1066.62c0.69,0.52,1.32,1.05,1.98,1.68
		l-1.05,1.14c-0.57-0.55-1.28-1.15-2-1.71C-722.78,1067.73-721.71,1066.62-721.71,1066.62z"/>
	<path id="path26303" class="st1" d="M-702.58,1069.14c0.38-0.72,0.66-1.38,0.85-1.97h0.34l1.22,0.49
		c-0.23,0.59-0.46,1.08-0.67,1.47h1.68v1.46h-3.5v1.25h3.51v1.44h-3.51v3.39h-1.71v-3.39h-3.58v-1.44h3.58v-1.25h-3.59v-1.46h1.86
		c-0.15-0.5-0.35-0.96-0.67-1.49l1.29-0.47l-3.39,0.01v9.9h-1.74v-11.51h6.19v-1.39h-6.89v-1.62h6.89v-1.53h1.77v1.53h6.82v1.62
		h-6.82v1.39h6.19v10.04c0,0.72-0.59,1.47-1.45,1.47h-1.78l-0.41-1.61h1.48c0.19,0,0.42-0.13,0.42-0.42v-7.89l-3.2,0.01l-3.88,0.01
		c0.32,0.58,0.58,1.23,0.81,1.96H-702.58z"/>
	<path id="path26307" class="st1" d="M-658.58,1080.92L-658.58,1080.92c-0.67,0.01-1.29,0.35-1.61,0.89
		c-0.23,0.4-0.34,1.04,0.06,1.67c0.28,0.43,0.79,0.79,1.52,1.06c0.38,0.14,1.25,0.55,1,1.28c-0.14,0.4-0.52,0.66-0.98,0.67
		c-0.64,0.01-1.08-0.54-1.18-1.05l-1.01,0.2c0.12,0.67,0.68,1.88,2.15,1.88c0.83,0,1.33-0.36,1.61-0.67
		c0.33-0.36,0.53-0.86,0.53-1.32c0-0.83-0.51-1.46-1.53-1.85c-0.89-0.35-1.33-0.7-1.35-1.07c-0.04-0.48,0.45-0.71,0.82-0.67
		c0.42,0.03,0.79,0.27,0.93,0.6l0.91-0.44C-657.03,1081.36-657.75,1080.91-658.58,1080.92"/>
	<path id="path26311" class="st1" d="M-683.88,1081.15v6.2h1.02v-5.32h0.97c0.45,0,0.94,0.37,0.94,0.92c0,0.68-0.58,0.93-0.94,0.93
		h-0.84l2.32,3.47h1.19c0,0-1.85-2.66-1.94-2.79c0.65-0.23,1.21-0.78,1.21-1.7c0-0.93-0.8-1.7-1.76-1.7H-683.88z"/>
	<path id="path26315" class="st1" d="M-727.72,1081.15v2.4h-2.77v-2.4h-1.02v6.2h1.02v-2.87h2.77v2.87h1.02v-6.2H-727.72z"/>
	<path id="path26317" class="st1" d="M-718.97,1087.35h1.02v-6.2h-1.02V1087.35z"/>
	<path id="path26319" class="st1" d="M-686.21,1087.35h1.02v-6.2h-1.02V1087.35z"/>
	<path id="path26321" class="st1" d="M-674.66,1087.35h1.02v-6.2h-1.02V1087.35z"/>
	<path id="path26333" class="st1" d="M-716.71,1087.35h1.01v-4.14c0.19,0.19,4.76,4.4,4.76,4.4v-6.46h-1.03v4.11
		c-0.19-0.19-4.74-4.4-4.74-4.4V1087.35z"/>
	<path id="path26337" class="st1" d="M-703.2,1087.35h1.01v-4.14c0.19,0.19,4.76,4.4,4.76,4.4v-6.46h-1.03v4.11
		c-0.19-0.19-4.74-4.4-4.74-4.4V1087.35z"/>
	<path id="path26341" class="st1" d="M-672.32,1087.35h1.01v-4.14c0.19,0.19,4.76,4.4,4.76,4.4v-6.46h-1.03v4.11
		c-0.19-0.19-4.74-4.4-4.74-4.4V1087.35z"/>
	<path id="path26345" class="st1" d="M-726.04,1087.35h1.12c0,0,0.69-1.43,0.72-1.49h2.73c0.03,0.06,0.72,1.49,0.72,1.49h1.1
		l-3.2-6.6L-726.04,1087.35z M-722.84,1082.93c0.1,0.2,0.94,2,0.94,2.01h-1.87C-723.7,1084.79-722.93,1083.12-722.84,1082.93"/>
	<path id="path26349" class="st1" d="M-710.25,1087.35h1.12c0,0,0.7-1.43,0.73-1.49h2.73c0.03,0.06,0.72,1.49,0.72,1.49h1.1
		l-3.2-6.6L-710.25,1087.35z M-707.05,1082.93c0.09,0.2,0.92,1.97,0.94,2.01h-1.87C-707.91,1084.79-707.14,1083.12-707.05,1082.93"
		/>
	<path id="path26353" class="st1" d="M-693.31,1087.35h1.12c0,0,0.69-1.43,0.72-1.49h2.73c0.03,0.06,0.72,1.49,0.72,1.49h1.1
		l-3.2-6.6L-693.31,1087.35z M-690.1,1082.93c0.09,0.19,0.88,1.88,0.94,2.01h-1.87C-690.98,1084.83-690.2,1083.13-690.1,1082.93"/>
	<path id="path26357" class="st1" d="M-678.44,1081.18v6.17h3.06v-0.87h-2.04v-5.29H-678.44z"/>
	<path id="path26361" class="st1" d="M-665.25,1081.15v6.2h3.82v-0.88h-2.79v-2.08h2.71v-0.88h-2.71v-1.49h2.79v-0.88H-665.25z"/>
</g>
</svg>
