<?xml version="1.0" encoding="utf-8"?>
<!-- Generator: Adobe Illustrator 18.1.1, SVG Export Plug-In . SVG Version: 6.00 Build 0)  -->
<svg version="1.1" id="Layer_1" xmlns="http://www.w3.org/2000/svg" xmlns:xlink="http://www.w3.org/1999/xlink" x="0px" y="0px"
	 width="130px" height="25.15px" viewBox="0 0 130 25.15" style="enable-background:new 0 0 130 25.15;" xml:space="preserve">
<style type="text/css">
	.st0{fill:#FEFEFE;}
	.st1{fill:#B73328;}
</style>
<g>
	<g>
		<path class="st0" d="M37.56,16.33h-0.13c-0.29,1.15-2.01,1.34-3.33,1.34c-2.65,0-4.19-0.46-4.19-2.6c0-2.01,1.46-2.64,4.19-2.64
			c1.08,0,2.74-0.02,3.15,0.94h0.18v-1.33c0-0.78-0.07-1.28-1.72-1.28c-0.95,0-1.54,0.16-1.54,0.91h-3.79c0-2.6,2.63-2.59,5.34-2.59
			c3.88,0,5.52,0.35,5.52,3.24v5.24h-3.79L37.56,16.33z M33.7,14.99c0,0.91,1.08,0.91,1.65,0.91c1.59,0,2.07-0.14,2.07-1.02
			c0-0.7-0.84-0.77-2.07-0.77C34.43,14.11,33.7,14.22,33.7,14.99z"/>
		<path class="st0" d="M51.46,11.2h-4.39v3.76c0.02,0.5,0.15,0.7,0.86,0.7c0.99,0,0.95-0.51,0.99-1.09l0.02-0.45h3.02v0.75
			c0,2.29-1.17,2.8-4.26,2.8c-2.43,0-4.43-0.22-4.43-2.33V11.2h-1.41V9.19h1.41V7.41h3.79v1.77h4.39V11.2z"/>
		<path class="st0" d="M56.47,17.58h-3.79V5.59h3.79V17.58z"/>
		<path class="st0" d="M64.98,16.33h-0.13c-0.29,1.15-2.01,1.34-3.33,1.34c-2.65,0-4.19-0.46-4.19-2.6c0-2.01,1.46-2.64,4.19-2.64
			c1.08,0,2.74-0.02,3.15,0.94h0.18v-1.33c0-0.78-0.07-1.28-1.72-1.28c-0.95,0-1.54,0.16-1.54,0.91h-3.79c0-2.6,2.63-2.59,5.34-2.59
			c3.88,0,5.52,0.35,5.52,3.24v5.24h-3.79L64.98,16.33z M61.12,14.99c0,0.91,1.08,0.91,1.65,0.91c1.59,0,2.07-0.14,2.07-1.02
			c0-0.7-0.84-0.77-2.07-0.77C61.85,14.11,61.12,14.22,61.12,14.99z"/>
		<path class="st0" d="M76.9,11.57c-0.13-0.7-0.95-0.7-1.54-0.7c-1.99,0-1.99,0.18-1.99,0.67c0,0.41,0.04,0.7,1.99,0.73
			c3.93,0.06,5.67,0.22,5.67,2.57c0,2.46-2.63,2.83-5.67,2.83c-3,0-5.67,0.05-5.67-2.72h3.8c0,0.94,0.95,0.94,1.88,0.94
			c1.72,0,1.99-0.08,1.99-0.74c0-0.83-0.66-0.83-1.99-0.83c-4.81,0-5.67-0.78-5.67-2.49c0-2.7,2.45-2.75,5.67-2.75
			c2.12,0,5.12,0.02,5.12,2.08v0.4H76.9z"/>
		<path class="st0" d="M89.89,9.19h1.74v9.38c0,1.03-0.5,1.77-1.5,2.21c-0.81,0.35-2.01,0.53-3.6,0.53c-1.59,0-2.72-0.15-3.4-0.45
			c-0.9-0.42-1.31-1.18-1.24-2.29h1.74c0,0.75,0.25,1.23,0.75,1.45c0.37,0.17,1.08,0.26,2.14,0.26c1.19,0,2.01-0.1,2.45-0.29
			c0.6-0.26,0.9-0.76,0.9-1.52v-1.93h-0.04c-0.35,0.76-1.6,1.13-3.73,1.13c-1.79,0-3.02-0.36-3.68-1.07
			c-0.59-0.61-0.88-1.68-0.88-3.21c0-1.53,0.26-2.6,0.79-3.2c0.65-0.74,1.9-1.1,3.77-1.1c1.96,0,3.2,0.39,3.73,1.17l0.04-0.02V9.19z
			 M83.36,13.39c0,1.27,0.11,2.06,0.33,2.38c0.38,0.59,1.33,0.88,2.85,0.88c1.51,0,2.49-0.31,2.93-0.93
			c0.28-0.39,0.42-1.17,0.42-2.33c0-1.28-0.17-2.11-0.51-2.51c-0.43-0.51-1.38-0.77-2.85-0.77c-1.47,0-2.4,0.27-2.8,0.82
			C83.48,11.28,83.36,12.1,83.36,13.39z"/>
		<path class="st0" d="M92.78,5.59h1.74v11.98h-1.74V5.59z"/>
		<path class="st0" d="M100.52,17.67c-2.15,0-3.54-0.27-4.18-0.82c-0.64-0.54-0.96-1.7-0.96-3.47c0-1.78,0.32-2.94,0.96-3.48
			c0.64-0.54,2.03-0.81,4.18-0.81c2.15,0,3.54,0.27,4.18,0.81c0.64,0.54,0.96,1.7,0.96,3.48c0,1.77-0.32,2.92-0.96,3.47
			C104.07,17.4,102.67,17.67,100.52,17.67z M100.52,10.11c-1.53,0-2.47,0.18-2.81,0.53c-0.35,0.35-0.52,1.27-0.52,2.75
			c0,1.47,0.17,2.38,0.52,2.73c0.35,0.35,1.28,0.53,2.81,0.53c1.53,0,2.47-0.18,2.81-0.53c0.35-0.35,0.52-1.26,0.52-2.73
			c0-1.48-0.17-2.4-0.52-2.75C102.99,10.29,102.05,10.11,100.52,10.11z"/>
		<path class="st0" d="M108.29,17.58h-1.74V5.59h1.74v4.68h0.04c0.41-0.79,1.65-1.18,3.73-1.18c1.85,0,3.1,0.39,3.75,1.17
			c0.51,0.61,0.77,1.65,0.77,3.13c0,1.52-0.25,2.58-0.75,3.16c-0.65,0.75-1.9,1.12-3.77,1.12c-1.96,0-3.2-0.37-3.73-1.12l-0.04,0.03
			V17.58z M111.58,16.65c1.44,0,2.36-0.26,2.76-0.77c0.29-0.37,0.44-1.2,0.44-2.49c0-1.38-0.19-2.28-0.56-2.68
			c-0.38-0.4-1.25-0.6-2.64-0.6c-1.43,0-2.35,0.25-2.76,0.74c-0.32,0.38-0.49,1.23-0.49,2.54c0,1.34,0.22,2.22,0.65,2.64
			C109.42,16.44,110.28,16.65,111.58,16.65z"/>
		<path class="st0" d="M127.07,11.85v5.72h-1.74v-0.86l-0.04-0.03c-0.29,0.43-0.83,0.71-1.61,0.85c-0.49,0.1-1.22,0.14-2.21,0.14
			c-1.47,0-2.53-0.15-3.18-0.45c-0.82-0.38-1.23-1.08-1.23-2.09c0-1.08,0.4-1.81,1.19-2.19c0.62-0.3,1.73-0.45,3.33-0.45
			c2.25,0,3.46,0.28,3.64,0.85h0.11v-1.55c0-0.71-0.27-1.19-0.82-1.42c-0.4-0.17-1.15-0.26-2.27-0.26c-0.96,0-1.63,0.05-2.03,0.14
			c-0.66,0.16-0.99,0.5-0.99,1.01v0.29h-1.81v-0.18c0-0.98,0.45-1.63,1.35-1.95c0.62-0.22,1.71-0.34,3.29-0.34
			c1.72,0,2.93,0.14,3.62,0.41C126.59,9.91,127.07,10.69,127.07,11.85z M118.86,14.97c0,0.75,0.24,1.23,0.71,1.44
			c0.34,0.16,1.07,0.24,2.21,0.24c1.15,0,1.95-0.07,2.4-0.21c0.74-0.22,1.1-0.68,1.1-1.36c0-0.71-0.31-1.17-0.93-1.37
			c-0.4-0.13-1.26-0.19-2.58-0.19c-1.13,0-1.88,0.07-2.23,0.22C119.09,13.92,118.86,14.33,118.86,14.97z"/>
		<path class="st0" d="M128.26,5.59H130v11.98h-1.74V5.59z"/>
	</g>
	<path class="st0" d="M13.75,0C6.16,0,0,5.63,0,12.57c0,2.98,1.13,5.71,3.02,7.86L1.8,22.41l1.54-1.62c0,0,0,0,0,0l1.01-1.07
		c0,0,0,0,0,0l9.35-9.86l4.01,7.17L7.25,19.36l15.56-0.03l-9.01-16.4L3.83,19.12c-1.49-1.84-2.37-4.1-2.37-6.54
		c0-6.13,5.5-11.1,12.28-11.1c6.78,0,12.28,4.97,12.28,11.1c0,6.13-5.5,11.1-12.28,11.1c-3.49,0-6.63-1.32-8.87-3.43l-1.06,1.02
		c2.5,2.39,6.03,3.88,9.93,3.88c7.59,0,13.75-5.63,13.75-12.57C27.5,5.63,21.34,0,13.75,0z"/>
</g>
<g>
	<g>
		<path class="st1" d="M37.56,16.33h-0.13c-0.29,1.15-2.01,1.34-3.33,1.34c-2.65,0-4.19-0.46-4.19-2.6c0-2.01,1.46-2.64,4.19-2.64
			c1.08,0,2.74-0.02,3.15,0.94h0.18v-1.33c0-0.78-0.07-1.28-1.72-1.28c-0.95,0-1.54,0.16-1.54,0.91h-3.79c0-2.6,2.63-2.59,5.34-2.59
			c3.88,0,5.52,0.35,5.52,3.24v5.24h-3.79L37.56,16.33z M33.7,14.99c0,0.91,1.08,0.91,1.65,0.91c1.59,0,2.07-0.14,2.07-1.02
			c0-0.7-0.84-0.77-2.07-0.77C34.43,14.11,33.7,14.22,33.7,14.99z"/>
		<path class="st1" d="M51.46,11.2h-4.39v3.76c0.02,0.5,0.15,0.7,0.86,0.7c0.99,0,0.95-0.51,0.99-1.09l0.02-0.45h3.02v0.75
			c0,2.29-1.17,2.8-4.26,2.8c-2.43,0-4.43-0.22-4.43-2.33V11.2h-1.41V9.19h1.41V7.41h3.79v1.77h4.39V11.2z"/>
		<path class="st1" d="M56.47,17.58h-3.79V5.59h3.79V17.58z"/>
		<path class="st1" d="M64.98,16.33h-0.13c-0.29,1.15-2.01,1.34-3.33,1.34c-2.65,0-4.19-0.46-4.19-2.6c0-2.01,1.46-2.64,4.19-2.64
			c1.08,0,2.74-0.02,3.15,0.94h0.18v-1.33c0-0.78-0.07-1.28-1.72-1.28c-0.95,0-1.54,0.16-1.54,0.91h-3.79c0-2.6,2.63-2.59,5.34-2.59
			c3.88,0,5.52,0.35,5.52,3.24v5.24h-3.79L64.98,16.33z M61.12,14.99c0,0.91,1.08,0.91,1.65,0.91c1.59,0,2.07-0.14,2.07-1.02
			c0-0.7-0.84-0.77-2.07-0.77C61.85,14.11,61.12,14.22,61.12,14.99z"/>
		<path class="st1" d="M76.9,11.57c-0.13-0.7-0.95-0.7-1.54-0.7c-1.99,0-1.99,0.18-1.99,0.67c0,0.41,0.04,0.7,1.99,0.73
			c3.93,0.06,5.67,0.22,5.67,2.57c0,2.46-2.63,2.83-5.67,2.83c-3,0-5.67,0.05-5.67-2.72h3.8c0,0.94,0.95,0.94,1.88,0.94
			c1.72,0,1.99-0.08,1.99-0.74c0-0.83-0.66-0.83-1.99-0.83c-4.81,0-5.67-0.78-5.67-2.49c0-2.7,2.45-2.75,5.67-2.75
			c2.12,0,5.12,0.02,5.12,2.08v0.4H76.9z"/>
		<path class="st1" d="M89.89,9.19h1.74v9.38c0,1.03-0.5,1.77-1.5,2.21c-0.81,0.35-2.01,0.53-3.6,0.53c-1.59,0-2.72-0.15-3.4-0.45
			c-0.9-0.42-1.31-1.18-1.24-2.29h1.74c0,0.75,0.25,1.23,0.75,1.45c0.37,0.17,1.08,0.26,2.14,0.26c1.19,0,2.01-0.1,2.45-0.29
			c0.6-0.26,0.9-0.76,0.9-1.52v-1.93h-0.04c-0.35,0.76-1.6,1.13-3.73,1.13c-1.79,0-3.02-0.36-3.68-1.07
			c-0.59-0.61-0.88-1.68-0.88-3.21c0-1.53,0.26-2.6,0.79-3.2c0.65-0.74,1.9-1.1,3.77-1.1c1.96,0,3.2,0.39,3.73,1.17l0.04-0.02V9.19z
			 M83.36,13.39c0,1.27,0.11,2.06,0.33,2.38c0.38,0.59,1.33,0.88,2.85,0.88c1.51,0,2.49-0.31,2.93-0.93
			c0.28-0.39,0.42-1.17,0.42-2.33c0-1.28-0.17-2.11-0.51-2.51c-0.43-0.51-1.38-0.77-2.85-0.77c-1.47,0-2.4,0.27-2.8,0.82
			C83.48,11.28,83.36,12.1,83.36,13.39z"/>
		<path class="st1" d="M92.78,5.59h1.74v11.98h-1.74V5.59z"/>
		<path class="st1" d="M100.52,17.67c-2.15,0-3.54-0.27-4.18-0.82c-0.64-0.54-0.96-1.7-0.96-3.47c0-1.78,0.32-2.94,0.96-3.48
			c0.64-0.54,2.03-0.81,4.18-0.81c2.15,0,3.54,0.27,4.18,0.81c0.64,0.54,0.96,1.7,0.96,3.48c0,1.77-0.32,2.92-0.96,3.47
			C104.07,17.4,102.67,17.67,100.52,17.67z M100.52,10.11c-1.53,0-2.47,0.18-2.81,0.53c-0.35,0.35-0.52,1.27-0.52,2.75
			c0,1.47,0.17,2.38,0.52,2.73c0.35,0.35,1.28,0.53,2.81,0.53c1.53,0,2.47-0.18,2.81-0.53c0.35-0.35,0.52-1.26,0.52-2.73
			c0-1.48-0.17-2.4-0.52-2.75C102.99,10.29,102.05,10.11,100.52,10.11z"/>
		<path class="st1" d="M108.29,17.58h-1.74V5.59h1.74v4.68h0.04c0.41-0.79,1.65-1.18,3.73-1.18c1.85,0,3.1,0.39,3.75,1.17
			c0.51,0.61,0.77,1.65,0.77,3.13c0,1.52-0.25,2.58-0.75,3.16c-0.65,0.75-1.9,1.12-3.77,1.12c-1.96,0-3.2-0.37-3.73-1.12l-0.04,0.03
			V17.58z M111.58,16.65c1.44,0,2.36-0.26,2.76-0.77c0.29-0.37,0.44-1.2,0.44-2.49c0-1.38-0.19-2.28-0.56-2.68
			c-0.38-0.4-1.25-0.6-2.64-0.6c-1.43,0-2.35,0.25-2.76,0.74c-0.32,0.38-0.49,1.23-0.49,2.54c0,1.34,0.22,2.22,0.65,2.64
			C109.42,16.44,110.28,16.65,111.58,16.65z"/>
		<path class="st1" d="M127.07,11.85v5.72h-1.74v-0.86l-0.04-0.03c-0.29,0.43-0.83,0.71-1.61,0.85c-0.49,0.1-1.22,0.14-2.21,0.14
			c-1.47,0-2.53-0.15-3.18-0.45c-0.82-0.38-1.23-1.08-1.23-2.09c0-1.08,0.4-1.81,1.19-2.19c0.62-0.3,1.73-0.45,3.33-0.45
			c2.25,0,3.46,0.28,3.64,0.85h0.11v-1.55c0-0.71-0.27-1.19-0.82-1.42c-0.4-0.17-1.15-0.26-2.27-0.26c-0.96,0-1.63,0.05-2.03,0.14
			c-0.66,0.16-0.99,0.5-0.99,1.01v0.29h-1.81v-0.18c0-0.98,0.45-1.63,1.35-1.95c0.62-0.22,1.71-0.34,3.29-0.34
			c1.72,0,2.93,0.14,3.62,0.41C126.59,9.91,127.07,10.69,127.07,11.85z M118.86,14.97c0,0.75,0.24,1.23,0.71,1.44
			c0.34,0.16,1.07,0.24,2.21,0.24c1.15,0,1.95-0.07,2.4-0.21c0.74-0.22,1.1-0.68,1.1-1.36c0-0.71-0.31-1.17-0.93-1.37
			c-0.4-0.13-1.26-0.19-2.58-0.19c-1.13,0-1.88,0.07-2.23,0.22C119.09,13.92,118.86,14.33,118.86,14.97z"/>
		<path class="st1" d="M128.26,5.59H130v11.98h-1.74V5.59z"/>
	</g>
	<path class="st1" d="M13.75,0C6.16,0,0,5.63,0,12.57c0,2.98,1.13,5.71,3.02,7.86L1.8,22.41l1.54-1.62c0,0,0,0,0,0l1.01-1.07
		c0,0,0,0,0,0l9.35-9.86l4.01,7.17L7.25,19.36l15.56-0.03l-9.01-16.4L3.83,19.12c-1.49-1.84-2.37-4.1-2.37-6.54
		c0-6.13,5.5-11.1,12.28-11.1c6.78,0,12.28,4.97,12.28,11.1c0,6.13-5.5,11.1-12.28,11.1c-3.49,0-6.63-1.32-8.87-3.43l-1.06,1.02
		c2.5,2.39,6.03,3.88,9.93,3.88c7.59,0,13.75-5.63,13.75-12.57C27.5,5.63,21.34,0,13.75,0z"/>
</g>
</svg>
