<?xml version="1.0" encoding="utf-8"?>
<!-- Generator: Adobe Illustrator 18.1.1, SVG Export Plug-In . SVG Version: 6.00 Build 0)  -->
<svg version="1.1" id="Layer_1" xmlns="http://www.w3.org/2000/svg" xmlns:xlink="http://www.w3.org/1999/xlink" x="0px" y="0px"
	 width="123.68px" height="18.39px" viewBox="0 0 123.68 18.39" style="enable-background:new 0 0 123.68 18.39;"
	 xml:space="preserve">
<style type="text/css">
	.st0{fill:#22A7E5;}
</style>
<g>
	<path class="st0" d="M35.91,4.21L37.06,0H22.78l0.83,1.13l-3.87,16.67c-0.07,0.31,0.16,0.6,0.48,0.6h12.55
		c0.23,0,0.42-0.15,0.48-0.37l1.15-4.64l-1.2,1.15h-5.11l1.01-4.29h4.42L34.3,6.7h-4.37l0.59-2.49H35.91z"/>
	<path class="st0" d="M39.73,0h8.29c0,0,0.83,0.85-0.32,4.12l2.86-2.81L49.92,0c0,0,6.22,0,7.79,0c0.51,0,1.08,0.5,0.32,1.26
		C57.29,2,52.22,6.79,52.22,6.79l3.23,7.69h1.47c0,0-0.65,3.91-1.66,3.91h-4.63c-0.19,0-0.36-0.1-0.44-0.27l-3.14-6.26l-1.75,1.24
		l-0.87,4.03c-0.03,0.16,0.01,0.33,0.13,0.44l0.79,0.82h-8.18c-0.32,0-0.55-0.3-0.48-0.6L40.75,0.9L39.73,0z"/>
	<path class="st0" d="M95.07,0h9.58l-4.97,17.08c-0.06,0.21,0.02,0.44,0.21,0.55l1.21,0.76h-8.85c-0.32,0-0.56-0.31-0.47-0.62
		l4.49-16.84L95.07,0z"/>
	<path class="st0" d="M119.59,10.71C124.01,10.34,125.67,0,120.37,0c-7.88,0-13.87,0-13.87,0l1.01,1.13l-3.96,16.67
		c-0.07,0.31,0.16,0.6,0.48,0.6h6.91c0.44,0,0.66-0.54,0.34-0.85l0,0c-0.13-0.13-0.18-0.31-0.13-0.49l1.44-5.11l2.32,6.12
		c0.07,0.19,0.25,0.32,0.46,0.32h4.55c1.89,0,1.98-2.29,2.12-3.91C120.69,14.17,120.05,13.57,119.59,10.71z M116.13,5.5
		c-0.28,1.66-2.26,1.29-2.26,1.29l0.51-3.09C115.85,3.71,116.41,3.84,116.13,5.5z"/>
	<path class="st0" d="M17.06,7.71C20.24,6.79,21.03,0,16.83,0C12.64,0,2.78,0,2.78,0l1.06,1.03L0.01,17.8
		c-0.07,0.31,0.16,0.6,0.48,0.6h12.43C18.49,18.39,20.66,8.77,17.06,7.71z M11.11,12.55c-0.3,2.08-2.44,1.62-2.44,1.62l0.6-3.74
		C10.87,10.43,11.41,10.47,11.11,12.55z M12.55,5.5c-0.28,1.66-2.26,1.29-2.26,1.29l0.51-3.09C12.27,3.71,12.82,3.84,12.55,5.5z"/>
	<path class="st0" d="M90.56,18.39l-1.12-0.87c-0.11-0.08-0.18-0.21-0.19-0.35L87.84,0H78.3l0.83,1.22l-8.61,16.46
		c-0.17,0.33,0.07,0.72,0.43,0.72h7.85l-1.03-0.62c-0.22-0.13-0.3-0.42-0.18-0.65l1.26-2.36h3.27v3.14c0,0.27,0.22,0.49,0.49,0.49
		H90.56z M80.24,11.03l1.52-2.53l0.28,2.53H80.24z"/>
</g>
</svg>
