<?xml version="1.0" encoding="utf-8"?>
<!-- Generator: Adobe Illustrator 18.0.0, SVG Export Plug-In . SVG Version: 6.00 Build 0)  -->
<!DOCTYPE svg PUBLIC "-//W3C//DTD SVG 1.1//EN" "http://www.w3.org/Graphics/SVG/1.1/DTD/svg11.dtd">
<svg version="1.1" xmlns="http://www.w3.org/2000/svg" xmlns:xlink="http://www.w3.org/1999/xlink" x="0px" y="0px" width="60px"
	 height="33px" viewBox="0 0 60 33" style="enable-background:new 0 0 60 33;" xml:space="preserve">
<style type="text/css">
	.st0{fill:#111183;}
	.st1{fill:#0580B8;}
</style>
<g id="Layer_1">
	<g>
		<path class="st0" d="M38.724,31.49C62.038,30.697,58.421,1.5,58.421,1.5L44.9,9.29l4.34,1.502c0,0,1.335,4.173-0.334,9.348
			S43.12,29.654,38.724,31.49"/>
		<path class="st1" d="M23.089,22.476c0,0,9.313,10.545,22.545,3.659c-2.549,3.548-6.799,5.355-6.799,5.355
			S28.876,32.158,23.089,22.476z"/>
		<path class="st1" d="M3.546,15.165h3.969c0.289,0,0.524-0.235,0.524-0.524v-0.989c0-0.289-0.235-0.524-0.524-0.524H1.9
			c-0.289,0-0.524,0.235-0.524,0.524v8.25c0,0.289,0.235,0.524,0.524,0.524h1.122c0.289,0,0.524-0.235,0.524-0.524v-3.148h2.982
			c0.289,0,0.524-0.235,0.524-0.524v-1.156c0-0.289-0.235-0.524-0.524-0.524H3.546V15.165z"/>
		<path class="st1" d="M10.682,20.261v-6.633c0-0.289-0.235-0.524-0.524-0.524H9.036c-0.289,0-0.524,0.235-0.524,0.524v8.299
			c0,0.289,0.235,0.524,0.524,0.524h5.649c0.289,0,0.524-0.235,0.524-0.524v-1.143c0-0.289-0.235-0.524-0.524-0.524H10.682z"/>
		<path class="st0" d="M25.58,13.083c-2.593,0-4.695,2.102-4.695,4.695s2.102,4.695,4.695,4.695s4.695-2.102,4.695-4.695
			S28.173,13.083,25.58,13.083z M25.58,20.281c-1.383,0-2.504-1.121-2.504-2.504s1.121-2.504,2.504-2.504
			c1.383,0,2.504,1.121,2.504,2.504S26.963,20.281,25.58,20.281z"/>
		<path class="st1" d="M20.877,13.104H19.64c-0.162,0-0.313,0.078-0.407,0.209l-1.811,2.524l-0.042-0.053l-0.042,0.053l-1.811-2.524
			c-0.094-0.131-0.246-0.209-0.407-0.209h-1.237c-0.403,0-0.641,0.45-0.415,0.783l2.785,4.099v3.968
			c0,0.275,0.223,0.497,0.497,0.497h0.629h0.629c0.275,0,0.497-0.223,0.497-0.497v-3.968l2.785-4.099
			C21.518,13.554,21.28,13.104,20.877,13.104z"/>
		<path class="st0" d="M45.657,15.21c0.289,0,0.524-0.244,0.524-0.544v-1.028c0-0.301-0.235-0.544-0.524-0.544h-5.615
			c-0.289,0-0.524,0.244-0.524,0.544v4.14v4.14c0,0.301,0.235,0.544,0.524,0.544h5.615c0.289,0,0.524-0.244,0.524-0.544V20.89
			c0-0.301-0.235-0.544-0.524-0.544h-3.969v-1.44h3.816c0.289,0,0.524-0.244,0.524-0.544v-0.583v-0.583
			c0-0.301-0.235-0.544-0.524-0.544h-3.816v-1.44H45.657z"/>
		<path class="st0" d="M38.006,13.093h-0.899c-0.289,0-0.524,0.235-0.524,0.524v4.808l-3.993-5.112l0,0.001
			c-0.095-0.133-0.25-0.221-0.426-0.221h-0.899c-0.289,0-0.524,0.235-0.524,0.524v8.32c0,0.289,0.235,0.524,0.524,0.524h0.899
			c0.289,0,0.524-0.235,0.524-0.524v-4.81l3.992,5.119l0-0.006c0.095,0.134,0.25,0.221,0.427,0.221h0.899
			c0.289,0,0.524-0.235,0.524-0.524v-8.32C38.53,13.328,38.295,13.093,38.006,13.093z"/>
	</g>
</g>
<g id="Layer_2">
</g>
</svg>
