<?xml version="1.0" encoding="utf-8"?>
<!-- Generator: Adobe Illustrator 18.1.1, SVG Export Plug-In . SVG Version: 6.00 Build 0)  -->
<svg version="1.1" id="Layer_1" xmlns="http://www.w3.org/2000/svg" xmlns:xlink="http://www.w3.org/1999/xlink" x="0px" y="0px"
	 width="92.69px" height="30px" viewBox="0 0 92.69 30" style="enable-background:new 0 0 92.69 30;" xml:space="preserve">
<style type="text/css">
	.st0{fill:#003E69;}
	.st1{fill:url(#SVGID_1_);}
	.st2{fill:url(#SVGID_2_);}
</style>
<g>
	<path class="st0" d="M13,2.74h8.26c0.16,0,0.28,0.13,0.28,0.28v2.18c0,0.06-0.02,0.12-0.06,0.17l-3.73,4.81
		c-0.14,0.18-0.01,0.45,0.22,0.45h3.28c0.16,0,0.28,0.13,0.28,0.28v2.22c0,0.16-0.13,0.28-0.28,0.28H13c-0.16,0-0.28-0.13-0.28-0.28
		v-2.62c0-0.08,0.03-0.15,0.09-0.2l3.98-3.84c0.18-0.18,0.06-0.48-0.2-0.48H13c-0.16,0-0.28-0.13-0.28-0.28V3.02
		C12.72,2.86,12.85,2.74,13,2.74z"/>
	<path class="st0" d="M23.87,2.74h3.03c0.11,0,0.21,0.09,0.21,0.21V9c0,1.28,3.25,1.31,3.25,0.19V2.94c0-0.11,0.09-0.21,0.21-0.21
		h2.83c0.11,0,0.21,0.09,0.21,0.21v10.31c0,0.09-0.07,0.16-0.16,0.16h-3.2c-0.07,0-0.14-0.05-0.15-0.12l-0.12-0.51
		c-0.02-0.09-0.12-0.15-0.21-0.11c-0.48,0.19-1.9,0.7-3.35,0.7c-1.78,0-2.75-1.51-2.75-2.98V2.94C23.67,2.83,23.76,2.74,23.87,2.74z
		"/>
	<path class="st0" d="M36.5,2.52h3.37c0.14,0,0.26,0.12,0.26,0.26v1.05c0,0.37,0.34-0.15,0.92-0.53c1.08-0.69,2.75-1.25,3-0.92
		s0.66,3.17,0.37,3.6c-0.25,0.37-3.17,0.96-3.99,1.12c-0.12,0.02-0.21,0.13-0.21,0.26v5.8c0,0.14-0.12,0.26-0.26,0.26H36.5
		c-0.14,0-0.26-0.12-0.26-0.26V2.79C36.24,2.64,36.36,2.52,36.5,2.52z"/>
	<path class="st0" d="M54.83,13.13c-0.99,0-1.6-0.08-1.6-1.23V5.15c0-0.9-0.33-2.1-3.2-2.1c-1.77,0-3.02,0.55-3.03,0.55l-0.25-0.55
		c0.06-0.02,1.38-0.61,3.27-0.61c2.52,0,3.8,0.91,3.8,2.7v6.75c0,0.54,0,0.63,0.99,0.63V13.13z"/>
	<path class="st0" d="M48.86,13.29c-2.07,0-2.91-0.64-2.91-2.22c0-1.06,0-3.86,2.64-3.86h4.97v0.6h-4.97c-1.8,0-2.04,1.65-2.04,3.26
		c0,0.88,0.17,1.61,2.31,1.61c2.07,0,4.46-2,4.48-2.02l0.39,0.46C53.63,11.21,51.15,13.29,48.86,13.29z"/>
	<rect x="57.59" y="2.91" class="st0" width="0.6" height="10.05"/>
	<rect x="61.86" y="2.87" class="st0" width="0.6" height="10.23"/>
	<path class="st0" d="M62.31,4.98l-0.34-0.5c0.09-0.06,2.3-1.58,3.73-1.58v0.6C64.46,3.5,62.33,4.96,62.31,4.98z"/>
	<circle class="st0" cx="57.89" cy="0.64" r="0.64"/>
	<linearGradient id="SVGID_1_" gradientUnits="userSpaceOnUse" x1="54.2865" y1="16.0241" x2="54.2865" y2="30.3828">
		<stop  offset="0" style="stop-color:#003E69"/>
		<stop  offset="1" style="stop-color:#003E69"/>
	</linearGradient>
	<path class="st1" d="M42.93,16.08c0,0,5.12,0,9.28,0s6.14,2.71,7.89,5.48c1.75,2.77,5.54,8.43,5.54,8.43s-3.8-0.06-8.73-0.06
		s-7.83-4.34-9.22-6.75C46.3,20.78,42.93,16.08,42.93,16.08z"/>
	<linearGradient id="SVGID_2_" gradientUnits="userSpaceOnUse" x1="78.0515" y1="2.2892" x2="78.0515" y2="30.6719">
		<stop  offset="0" style="stop-color:#DB1F26"/>
		<stop  offset="1" style="stop-color:#770809"/>
	</linearGradient>
	<path class="st2" d="M63.41,23.8c0,0,5.84-8.92,9.46-14.46s7.41-7.23,12.47-7.23s7.35,0,7.35,0S84.14,15,79.14,22.47
		s-11.69,7.47-11.69,7.47L63.41,23.8z"/>
	<g>
		<path class="st0" d="M10.07,9.71c0-1.43,0.01-3.93,0.01-5.13c0-1.2-1.17-2.29-4.35-2.29s-4.83,0.68-4.9,1.11
			c-0.1,0.56-0.21,2.15,0.48,2.22c0.7,0.08,2.78-0.5,3.83-0.5S6.5,5.75,6.5,6.18C6.5,6.6,6.67,6.6,3.87,6.6C1.82,6.6,0,7.26,0,9.89
			c0,0.63,0.01,0.92,0.01,1.43c0,1.2,1.19,2.16,2.81,2.16c2.32,0,4.06-1.47,4.06-1.47s-0.04,1.41,1.43,1.41h2.77
			c0.13,0,0.24-0.11,0.24-0.24v-2.33c0-0.16-0.15-0.27-0.3-0.23C10.65,10.7,10.07,10.69,10.07,9.71z M5.1,10.48
			c-0.75,0-1.08-0.24-1.08-0.54c0-1.17,0.84-1.14,1.33-1.14s0.99,0.12,0.99,0.54S5.85,10.48,5.1,10.48z"/>
	</g>
</g>
</svg>
