<?xml version="1.0" encoding="utf-8"?>
<!-- Generator: Adobe Illustrator 18.0.0, SVG Export Plug-In . SVG Version: 6.00 Build 0)  -->
<!DOCTYPE svg PUBLIC "-//W3C//DTD SVG 1.1//EN" "http://www.w3.org/Graphics/SVG/1.1/DTD/svg11.dtd">
<svg version="1.1" xmlns="http://www.w3.org/2000/svg" xmlns:xlink="http://www.w3.org/1999/xlink" x="0px" y="0px"
	 width="166px" height="50px" viewBox="0 0 166 50" style="enable-background:new 0 0 166 50;"
	 xml:space="preserve">
<style type="text/css">
	.st0{display:none;}
	.st1{display:inline;}
	.st2{fill:#ED2D27;}
	.st3{display:inline;fill:#F8B900;}
	.st4{display:inline;fill:#00235F;}
	.st5{fill:url(#SVGID_1_);}
	.st6{fill:#006CB6;}
	.st7{fill:url(#SVGID_2_);}
	.st8{fill:url(#SVGID_3_);}
	.st9{fill:url(#SVGID_4_);}
	.st10{fill:url(#SVGID_5_);}
	.st11{fill:url(#SVGID_6_);}
	.st12{fill-rule:evenodd;clip-rule:evenodd;fill:#FFFFFF;}
	.st13{fill-rule:evenodd;clip-rule:evenodd;fill:#E2231A;}
	.st14{fill:#FFFFFF;}
	.st15{fill-rule:evenodd;clip-rule:evenodd;fill:#001689;}
	.st16{fill:#00529B;}
	.st17{fill:#F47920;}
	.st18{fill:url(#SVGID_7_);}
	.st19{fill:url(#SVGID_8_);}
	.st20{fill:url(#SVGID_9_);}
	.st21{fill:url(#SVGID_10_);}
	.st22{fill:url(#SVGID_11_);}
	.st23{fill:url(#SVGID_12_);}
	.st24{fill:url(#SVGID_13_);}
	.st25{fill:#00054C;}
	.st26{fill:url(#path3364_3_);}
	.st27{fill:url(#path3366_3_);}
	.st28{fill:#22356B;}
	.st29{fill:#FCC210;}
	.st30{fill:#ED1C24;}
	.st31{display:inline;fill:url(#SVGID_14_);}
	.st32{fill:#002157;}
	.st33{fill:#CC2234;}
	.st34{fill:#E23546;}
	.st35{fill:#FCB130;}
	.st36{fill:#1D4886;}
	.st37{display:inline;fill:none;}
	.st38{display:inline;fill:#005DAA;}
	.st39{fill:#005DAA;}
	.st40{fill:#00A1E4;}
	.st41{fill:#00704A;}
	.st42{fill:#B10D28;}
	.st43{fill:#D31245;}
	.st44{fill:url(#path70_3_);}
	.st45{fill:url(#SVGID_15_);}
	.st46{fill:url(#SVGID_16_);}
	.st47{fill:#231916;}
	.st48{fill:#E60013;}
	.st49{fill:#C0231E;}
	.st50{fill:#014E84;}
	.st51{fill:#BA783E;}
	.st52{fill:#002052;}
	.st53{fill:#0093D0;}
	.st54{fill:#ED1B2F;}
	.st55{fill:#E3242B;}
	.st56{fill-rule:evenodd;clip-rule:evenodd;fill:#034EA2;}
	.st57{fill-rule:evenodd;clip-rule:evenodd;fill:#E11837;}
	.st58{fill:#034EA2;}
	.st59{opacity:0.8902;fill:#EB151C;}
	.st60{fill:#1A1A1A;}
	.st61{enable-background:new    ;}
	.st62{fill:#FF6600;}
	.st63{clip-path:url(#SVGID_18_);fill:url(#SVGID_19_);}
	.st64{fill:url(#SVGID_20_);}
	.st65{fill:#B2DB1F;}
	.st66{fill:#FA002C;}
	.st67{fill:#1C2D5B;}
	.st68{fill:#1C4E9D;}
	.st69{fill:#ED192D;}
	.st70{display:inline;fill:#FFFFFF;}
	.st71{display:inline;fill:#00529B;}
	.st72{display:inline;fill:#F47920;}
	.st73{display:inline;fill:url(#SVGID_21_);}
	.st74{display:inline;fill:url(#SVGID_22_);}
	.st75{display:inline;fill:url(#SVGID_23_);}
	.st76{display:inline;fill:url(#SVGID_24_);}
	.st77{display:inline;fill:url(#SVGID_25_);}
	.st78{display:inline;fill:url(#SVGID_26_);}
	.st79{display:inline;fill:url(#SVGID_27_);}
	.st80{display:inline;fill:url(#path3364_4_);}
	.st81{display:inline;fill:url(#path3366_4_);}
	.st82{display:inline;fill:url(#SVGID_28_);}
	.st83{display:inline;fill:url(#SVGID_29_);}
	.st84{display:inline;fill:url(#SVGID_30_);}
	.st85{display:inline;opacity:0.75;fill:#FFFFFF;}
	.st86{display:inline;fill:#ED1B2F;}
	.st87{opacity:0.8902;fill:#FFFFFF;}
	.st88{clip-path:url(#SVGID_32_);fill:#FFFFFF;}
	.st89{fill:url(#SVGID_33_);}
	.st90{fill:url(#SVGID_34_);}
	.st91{fill:url(#SVGID_35_);}
	.st92{fill:url(#SVGID_36_);}
	.st93{fill:url(#SVGID_37_);}
	.st94{fill:url(#SVGID_38_);}
	.st95{fill:url(#SVGID_39_);}
	.st96{fill:url(#SVGID_40_);}
	.st97{clip-path:url(#SVGID_42_);fill:url(#SVGID_43_);}
	.st98{fill:url(#SVGID_44_);}
	.st99{fill:url(#path70_5_);}
	.st100{fill:url(#SVGID_45_);}
	.st101{fill:url(#SVGID_46_);}
	.st102{fill:#F8B900;}
	.st103{fill:#00235F;}
	.st104{fill:url(#SVGID_47_);}
	.st105{fill:url(#SVGID_48_);}
	.st106{fill:url(#SVGID_49_);}
	.st107{fill:url(#SVGID_50_);}
	.st108{fill:url(#SVGID_51_);}
	.st109{fill:url(#SVGID_52_);}
	.st110{opacity:0.8902;fill:#EB151C;enable-background:new    ;}
	.st111{fill:#E11837;}
	.st112{fill:#E2231A;}
	.st113{fill:#001689;}
	.st114{fill:#EF3E34;}
	.st115{fill:#4D82C4;}
	.st116{fill:#8C7035;}
	.st117{fill:#5FBA45;}
	.st118{fill:#008F7E;}
	.st119{fill:#004595;}
	.st120{fill:#FFED00;}
	.st121{fill:#E53138;}
	.st122{fill:url(#SVGID_53_);}
	.st123{fill:url(#SVGID_54_);}
	.st124{fill:url(#SVGID_55_);}
	.st125{fill:url(#SVGID_56_);}
	.st126{fill:#11185E;}
	.st127{fill:#EE3024;}
	.st128{fill:#0675CC;}
	.st129{fill:#E2001A;}
	.st130{fill:#009036;}
	.st131{fill:#0B1560;}
	.st132{fill:#0070AF;}
	.st133{fill:#0F2C64;}
	.st134{fill:#EF001E;}
	.st135{fill:#1C2A8D;}
	.st136{fill:#334357;}
	.st137{fill:url(#SVGID_57_);}
	.st138{fill:#ED1B28;}
	.st139{fill:#1E5AAF;}
	.st140{fill:#991933;}
	.st141{fill:#E01933;}
	.st142{fill:#003366;}
	.st143{fill:#00265D;}
	.st144{fill:#003263;}
	.st145{fill:#EE452A;}
	.st146{fill:#011F65;}
	.st147{fill:#EC2227;}
	.st148{fill:#010101;}
	.st149{fill:#FCEE21;}
	.st150{fill:#18488B;}
	.st151{fill:#EC2427;}
	.st152{fill:#D09B2B;}
	.st153{fill:#156192;}
	.st154{fill:#021A31;}
	.st155{fill:#008E8F;}
	.st156{fill:#2B438F;}
	.st157{fill:#363F9E;}
	.st158{fill:#00ABBF;}
</style>
<g id="Layer_1" class="st0">
</g>
<g id="Layer_2" class="st0">
</g>
<g id="Layer_3">
	<g>
		<g>
			<g>
				<circle class="st14" cx="141.159" cy="24.999" r="24.999"/>
				<g>
					<circle class="st112" cx="141.159" cy="24.71" r="22.53"/>
					<path class="st14" d="M159.773,28.866l-37.753,8.026c0,0-0.067,0.017-0.129,0.026c-0.252-0.405-0.493-0.825-0.718-1.247
						c0.064-0.014,0.127-0.025,0.127-0.025c6.138-1.161,11.718-3.833,14.082-10.738c2.531-7.399,0.789-15.46-4.408-20.012
						c0.003,0-0.06-0.053-0.102-0.086c0.502-0.256,1.014-0.494,1.535-0.713c0.064,0.028,0.157,0.07,0.157,0.07
						c10.568,4.426,16.001,10.414,16.001,16.159c-0.047,3.546-1.864,5.981-4.166,7.914h15.374
						C160.206,28.24,160.308,28.752,159.773,28.866z"/>
				</g>
			</g>
			<g>
				<path class="st113" d="M17.663,43.613l-6.166-16.384h-5.33L0,43.613h4.79l0.811-2.36h6.461l0.811,2.36H17.663z M10.908,37.57
					H6.756l2.089-6.167L10.908,37.57z"/>
				<rect x="19.358" y="27.229" class="st113" width="4.226" height="16.384"/>
				<path class="st113" d="M41,43.613l-3.341-6.019c1.547-0.541,3.267-2.062,3.267-4.914c0-3.044-2.063-5.451-5.699-5.451h-8.205
					v16.384h4.226v-5.502h2.162l2.75,5.502L41,43.613L41,43.613z M34.588,34.425h-3.34v-3.513h3.34c1.131,0,2.039,0.615,2.039,1.745
					C36.628,33.81,35.719,34.425,34.588,34.425z"/>
				<polygon class="st113" points="54.486,43.613 54.486,39.928 47.903,39.928 47.903,27.229 43.677,27.229 43.677,43.613 				"/>
				<rect x="57.139" y="27.229" class="st113" width="4.225" height="16.384"/>
				<polygon class="st113" points="80.034,43.613 80.034,27.229 75.786,27.229 75.786,36.243 69.15,27.229 64.804,27.229 
					64.804,43.613 69.029,43.613 69.029,34.129 75.957,43.613 				"/>
				<polygon class="st113" points="95.486,43.613 95.486,39.928 87.698,39.928 87.698,37.151 95.314,37.151 95.314,33.468 
					87.698,33.468 87.698,30.912 95.486,30.912 95.486,27.229 83.473,27.229 83.473,43.613 				"/>
				<path class="st113" d="M104.524,43.907c4.399,0,6.83-2.185,6.83-5.477c0-6.093-9.261-4.571-9.261-6.584
					c0-0.714,0.542-1.13,1.768-1.13c1.621,0,3.415,0.564,4.791,1.72l2.308-3.169c-1.743-1.5-4.027-2.285-6.657-2.285
					c-4.2,0-6.51,2.458-6.51,5.207c0,6.313,9.262,4.522,9.262,6.683c0,0.811-0.885,1.303-2.308,1.303
					c-2.26,0-4.08-0.985-5.259-2.164l-2.234,3.292C98.9,42.852,101.209,43.907,104.524,43.907z"/>
				<g>
					<polygon class="st113" points="9.771,22.77 9.771,10.071 14.34,10.071 14.34,6.385 0.952,6.385 0.952,10.071 5.546,10.071 
						5.546,22.77 					"/>
					<path class="st113" d="M24.846,23.066c5.257,0,7.714-2.875,7.714-6.952V6.385h-4.275v9.605c0,1.941-1.178,3.341-3.438,3.341
						c-2.283,0-3.463-1.4-3.463-3.341V6.385h-4.299v9.752C17.084,20.167,19.589,23.066,24.846,23.066z"/>
					<path class="st113" d="M50.55,22.77l-3.341-6.017c1.549-0.541,3.267-2.064,3.267-4.914c0-3.047-2.063-5.454-5.698-5.454h-8.206
						V22.77h4.225v-5.503h2.163l2.75,5.503L50.55,22.77z M44.139,13.584h-3.341v-3.513h3.341c1.131,0,2.041,0.615,2.041,1.745
						C46.179,12.969,45.27,13.584,44.139,13.584z"/>
					<polygon class="st113" points="68.656,22.77 61.95,14.05 68.312,6.385 63.105,6.385 58.068,13.116 58.068,6.385 53.843,6.385 
						53.843,22.77 58.068,22.77 58.068,17.98 59.172,16.606 63.473,22.77 					"/>
					<rect x="70.94" y="6.385" class="st113" width="4.226" height="16.385"/>
					<path class="st113" d="M85.238,23.066c4.398,0,6.83-2.188,6.83-5.479c0-6.09-9.261-4.569-9.261-6.581
						c0-0.713,0.539-1.13,1.769-1.13c1.62,0,3.412,0.564,4.79,1.719l2.308-3.171c-1.743-1.498-4.029-2.283-6.658-2.283
						c-4.2,0-6.509,2.455-6.509,5.207c0,6.313,9.261,4.52,9.261,6.684c0,0.808-0.885,1.3-2.309,1.3
						c-2.259,0-4.078-0.983-5.258-2.162l-2.235,3.292C79.611,22.008,81.923,23.066,85.238,23.066z"/>
					<polygon class="st113" points="110.32,22.77 110.32,6.385 106.094,6.385 106.094,12.526 99.29,12.526 99.29,6.385 
						95.066,6.385 95.066,22.77 99.29,22.77 99.29,16.212 106.094,16.212 106.094,22.77 					"/>
				</g>
			</g>
		</g>
	</g>
</g>
<g id="Layer_4">
</g>
</svg>
