<svg xmlns="http://www.w3.org/2000/svg" xmlns:xlink="http://www.w3.org/1999/xlink" x="0" y="0" width="1213.95" height="453.54" viewBox="0 0 1213.95 453.49"><defs><clipPath id="clip-path" transform="translate(-0.01)"><rect width="1213.95" height="453.54" style="fill:none"/></clipPath></defs><title>Asset 1</title><g id="Layer_2" data-name="Layer 2"><g id="Слой_1" data-name="Слой 1"><g style="clip-path:url(#clip-path)"><path d="M427.43,28.76v86.91H382.69V168.3h44.74V352.51c0,65.49,25.39,91.8,90.07,91.8h24.19V388h-4.23c-28.42,0-38.69-11-38.69-39.78V168.3h52.59V115.67H498.77V28.76ZM177.75,385.56c-67.11,0-101-41-101-132.81V0H0V249.7C0,394.13,62.28,453.49,177.75,453.49S356.09,394.13,356.09,249.7V0H279.31V252.75c0,91.81-34.46,132.81-101.56,132.81m602.14-97.92v19c0,54.47-37.49,91.19-89.48,91.19-27.81,0-50.78-17.14-50.78-45.29,0-27.54,19.34-47.73,59.25-53.24ZM673.48,453.49c51.39,0,92.5-18.36,111.24-52v42.84h67.11V252.15c0-127.3-67.11-149.95-137.24-149.95C623.91,102.2,581,153,576.15,216.65h75.56c4.85-37.34,28.42-58.76,63.49-58.76,37.48,0,64.69,19.58,64.69,80.18l-97.34,10.41c-98.54,10.39-122.72,62.42-122.72,104,0,63.65,50.78,101,113.65,101M980.59,0H906.84V74.05h73.75Zm0,115.67H906.84V444.31h73.75ZM1214,110.78c-2.42-1.24-9.07-3.07-16.92-3.07-47.77,0-76.17,28.77-92.5,64.26v-56.3H1035V444.31H1107V266.83c0-55.07,27.2-81.39,81.61-81.39H1214Z" transform="translate(-0.01)" style="fill:#003594"/></g></g></g></svg>