<?xml version="1.0" encoding="UTF-8" standalone="no"?>
<!-- Created with Inkscape (http://www.inkscape.org/) -->

<svg
   xmlns:dc="http://purl.org/dc/elements/1.1/"
   xmlns:cc="http://creativecommons.org/ns#"
   xmlns:rdf="http://www.w3.org/1999/02/22-rdf-syntax-ns#"
   xmlns:svg="http://www.w3.org/2000/svg"
   xmlns="http://www.w3.org/2000/svg"
   version="1.1"
   width="715.74799"
   height="157.32283"
   id="svg3176">
  <defs
     id="defs3178">
    <clipPath
       id="clipPath3043">
      <path
         d="m 38.74,664.816 163.067,0 0,40.717 -163.067,0 0,-40.717 z"
         id="path3045" />
    </clipPath>
  </defs>
  <metadata
     id="metadata3181">
    <rdf:RDF>
      <cc:Work
         rdf:about="">
        <dc:format>image/svg+xml</dc:format>
        <dc:type
           rdf:resource="http://purl.org/dc/dcmitype/StillImage" />
        <dc:title></dc:title>
      </cc:Work>
    </rdf:RDF>
  </metadata>
  <g
     transform="translate(-17.046512,-424.68235)"
     id="layer1">
    <g
       transform="matrix(4.0341665,0,0,4.0341665,-696.56441,-1071.5904)"
       id="g3267">
      <path
         d="m 291.05624,398.16996 54.75875,0 0,-26.395 -54.75875,0 0,26.395 z"
         id="path3037"
         style="fill:#e5312a;fill-opacity:1;fill-rule:nonzero;stroke:none" />
      <g
         transform="matrix(1.25,0,0,-1.25,122.23748,1248.7537)"
         id="g3039">
        <g
           clip-path="url(#clipPath3043)"
           id="g3041">
          <g
             transform="translate(44.4261,688.0771)"
             id="g3047">
            <path
               d="m 0,0 0,6.378 2.84,0 0,-0.965 C 3.216,5.789 3.645,6.056 4.073,6.271 4.502,6.432 5.038,6.538 5.574,6.538 6.056,6.538 6.485,6.485 6.86,6.324 7.236,6.217 7.557,6.003 7.825,5.789 8.039,5.52 8.2,5.252 8.307,4.931 8.414,4.61 8.468,4.073 8.468,3.323 l 0,-3.323 -3.109,0 0,3.27 C 5.359,3.752 5.306,4.127 5.145,4.288 4.984,4.502 4.717,4.556 4.288,4.556 3.912,4.556 3.645,4.449 3.43,4.234 3.216,4.02 3.108,3.698 3.108,3.27 L 3.108,0 0,0 z"
               id="path3049"
               style="fill:#003772;fill-opacity:1;fill-rule:evenodd;stroke:none" />
          </g>
          <g
             transform="translate(54.6088,691.2392)"
             id="g3051">
            <path
               d="M 0,0 C 0,1.072 0.375,1.93 1.179,2.519 1.93,3.109 3.055,3.431 4.395,3.431 5.789,3.431 6.86,3.109 7.664,2.519 8.414,1.93 8.843,1.072 8.843,0 8.843,-1.018 8.414,-1.875 7.664,-2.465 6.86,-3.108 5.789,-3.376 4.395,-3.376 c -1.34,0 -2.411,0.268 -3.216,0.911 C 0.375,-1.875 0,-1.018 0,0 m 3.108,0 c 0,-0.589 0.108,-0.964 0.322,-1.233 0.215,-0.267 0.536,-0.375 0.965,-0.375 0.482,0 0.804,0.108 1.018,0.375 C 5.575,-0.964 5.681,-0.589 5.681,0 5.681,0.59 5.575,1.019 5.413,1.287 5.199,1.555 4.877,1.661 4.395,1.661 3.966,1.661 3.645,1.555 3.43,1.287 3.216,1.019 3.108,0.59 3.108,0"
               id="path3053"
               style="fill:#003772;fill-opacity:1;fill-rule:evenodd;stroke:none" />
          </g>
          <g
             transform="translate(65.2207,688.0771)"
             id="g3055">
            <path
               d="m 0,0 0,6.378 2.84,0 0,-1.18 c 0.215,0.483 0.537,0.805 0.912,1.019 0.375,0.215 0.911,0.321 1.554,0.321 l 0.268,0 0,-2.518 -0.322,0 -0.321,0 C 4.288,4.02 3.859,3.913 3.537,3.698 3.269,3.484 3.108,3.108 3.108,2.627 L 3.108,0 0,0 z"
               id="path3057"
               style="fill:#003772;fill-opacity:1;fill-rule:evenodd;stroke:none" />
          </g>
          <g
             transform="translate(74.3323,688.0771)"
             id="g3059">
            <path
               d="m 0,0 -2.627,6.378 3.109,0 1.179,-3.913 1.179,3.913 2.626,0 1.233,-3.913 1.126,3.913 3.001,0 L 8.361,0 5.306,0 4.18,3.698 3.055,0 0,0 z"
               id="path3061"
               style="fill:#003772;fill-opacity:1;fill-rule:evenodd;stroke:none" />
          </g>
          <g
             transform="translate(91.9646,689.9533)"
             id="g3063">
            <path
               d="M 0,0 2.948,0 C 2.733,-0.697 2.251,-1.233 1.555,-1.555 0.804,-1.929 -0.161,-2.09 -1.34,-2.09 c -1.393,0 -2.412,0.268 -3.216,0.911 -0.803,0.589 -1.179,1.393 -1.179,2.411 0,1.072 0.376,1.93 1.179,2.573 0.858,0.59 1.93,0.912 3.323,0.912 1.394,0 2.466,-0.322 3.27,-1.019 C 2.841,3.055 3.215,2.09 3.215,0.911 l 0,-0.16 -5.841,0 c 0,-0.429 0.161,-0.751 0.375,-0.965 0.268,-0.215 0.643,-0.322 1.072,-0.322 0.321,0 0.536,0.054 0.751,0.161 C -0.214,-0.322 -0.107,-0.161 0,0 m -2.626,2.036 2.787,0 C 0.108,2.412 0,2.734 -0.268,2.894 -0.482,3.108 -0.858,3.216 -1.286,3.216 -1.661,3.216 -1.983,3.108 -2.251,2.894 -2.465,2.68 -2.626,2.412 -2.626,2.036"
               id="path3065"
               style="fill:#003772;fill-opacity:1;fill-rule:evenodd;stroke:none" />
          </g>
          <g
             transform="translate(97.056,687.3809)"
             id="g3067">
            <path
               d="m 0,0 3.109,0 c 0.053,-0.161 0.107,-0.268 0.268,-0.322 0.16,-0.053 0.321,-0.107 0.643,-0.107 0.482,0 0.75,0.107 0.911,0.268 C 5.092,0 5.199,0.374 5.199,0.911 l 0,0.322 C 4.931,1.072 4.609,0.911 4.234,0.804 3.913,0.696 3.484,0.643 3.001,0.643 c -1.072,0 -1.875,0.268 -2.519,0.858 -0.643,0.589 -0.964,1.393 -0.964,2.357 0,1.019 0.321,1.877 0.911,2.466 0.59,0.589 1.393,0.911 2.411,0.911 0.59,0 1.073,-0.107 1.502,-0.268 0.428,-0.161 0.75,-0.376 1.071,-0.75 l 0,0.857 2.787,0 0,-5.895 C 8.2,0.053 7.825,-0.697 7.182,-1.179 6.485,-1.662 5.413,-1.875 3.805,-1.875 c -1.072,0 -1.983,0.16 -2.626,0.481 C 0.536,-1.072 0.108,-0.59 0,0 M 2.626,3.912 C 2.626,3.429 2.733,3.055 2.894,2.787 3.109,2.519 3.43,2.412 3.859,2.412 c 0.429,0 0.804,0.107 0.964,0.375 0.269,0.214 0.322,0.589 0.322,1.125 0,0.483 -0.107,0.804 -0.322,1.072 C 4.609,5.252 4.288,5.359 3.859,5.359 3.43,5.359 3.109,5.252 2.894,4.984 2.733,4.77 2.626,4.395 2.626,3.912"
               id="path3069"
               style="fill:#003772;fill-opacity:1;fill-rule:evenodd;stroke:none" />
          </g>
          <path
             d="m 107.454,694.455 3.162,0 0,-6.378 -3.162,0 0,6.378 z m 0,2.465 3.162,0 0,-1.822 -3.162,0 0,1.822 z"
             id="path3071"
             style="fill:#003772;fill-opacity:1;fill-rule:evenodd;stroke:none" />
          <g
             transform="translate(118.4403,688.0771)"
             id="g3073">
            <path
               d="M 0,0 -0.214,0.59 C -0.59,0.322 -1.018,0.108 -1.501,-0.053 -1.929,-0.16 -2.465,-0.214 -3.055,-0.214 c -0.857,0 -1.555,0.161 -2.036,0.482 -0.483,0.375 -0.75,0.858 -0.75,1.501 0,0.643 0.267,1.126 0.75,1.393 0.481,0.322 1.393,0.536 2.679,0.697 0.161,0 0.376,0 0.697,0.054 0.964,0.053 1.447,0.268 1.447,0.643 0,0.161 -0.108,0.268 -0.268,0.375 -0.161,0.107 -0.482,0.107 -0.858,0.107 -0.321,0 -0.535,0 -0.749,-0.161 C -2.305,4.77 -2.412,4.663 -2.412,4.449 l -3.054,0 c 0,0.696 0.375,1.232 1.072,1.607 0.696,0.376 1.768,0.537 3.108,0.537 0.643,0 1.233,-0.055 1.768,-0.161 C 1.072,6.378 1.501,6.217 1.769,6.056 2.144,5.842 2.412,5.627 2.572,5.359 2.68,5.092 2.787,4.77 2.787,4.288 l 0,-3.591 c 0,-0.107 0,-0.215 0.054,-0.322 0.107,-0.053 0.16,-0.16 0.268,-0.214 L 3.109,0 0,0 z M -0.268,2.841 C -0.59,2.733 -0.964,2.627 -1.501,2.519 -2.251,2.359 -2.626,2.144 -2.626,1.876 c 0,-0.214 0.054,-0.321 0.214,-0.428 0.161,-0.108 0.376,-0.161 0.644,-0.161 0.535,0 0.911,0.107 1.125,0.268 0.267,0.214 0.375,0.535 0.375,0.964 l 0,0.214 0,0.108 z"
               id="path3075"
               style="fill:#003772;fill-opacity:1;fill-rule:evenodd;stroke:none" />
          </g>
          <g
             transform="translate(123.478,688.0771)"
             id="g3077">
            <path
               d="m 0,0 0,6.378 2.841,0 0,-0.965 c 0.375,0.376 0.804,0.643 1.233,0.858 0.428,0.161 0.964,0.267 1.5,0.267 0.483,0 0.912,-0.053 1.286,-0.214 C 7.236,6.217 7.557,6.003 7.825,5.789 8.04,5.52 8.201,5.252 8.308,4.931 8.414,4.61 8.468,4.073 8.468,3.323 L 8.468,0 5.36,0 l 0,3.27 C 5.36,3.752 5.306,4.127 5.145,4.288 4.984,4.502 4.717,4.556 4.288,4.556 3.913,4.556 3.591,4.449 3.43,4.234 3.216,4.02 3.109,3.698 3.109,3.27 L 3.109,0 0,0 z"
               id="path3079"
               style="fill:#003772;fill-opacity:1;fill-rule:evenodd;stroke:none" />
          </g>
          <g
             transform="translate(151.3949,691.2392)"
             id="g3081">
            <path
               d="m 0,0 c 0,1.072 0.429,1.93 1.179,2.519 0.805,0.59 1.875,0.912 3.269,0.912 1.34,0 2.466,-0.322 3.216,-0.912 C 8.468,1.93 8.843,1.072 8.843,0 8.843,-1.018 8.468,-1.875 7.664,-2.465 6.914,-3.108 5.788,-3.376 4.448,-3.376 3.054,-3.376 1.984,-3.108 1.179,-2.465 0.429,-1.875 0,-1.018 0,0 m 3.161,0 c 0,-0.589 0.109,-0.964 0.269,-1.233 0.215,-0.267 0.536,-0.375 1.018,-0.375 0.429,0 0.751,0.108 0.965,0.375 C 5.627,-0.964 5.735,-0.589 5.735,0 5.735,0.59 5.627,1.019 5.413,1.287 5.199,1.555 4.877,1.661 4.448,1.661 3.966,1.661 3.645,1.555 3.43,1.287 3.27,1.019 3.161,0.59 3.161,0"
               id="path3083"
               style="fill:#ffffff;fill-opacity:1;fill-rule:evenodd;stroke:none" />
          </g>
          <g
             transform="translate(146.8355,692.1043)"
             id="g3085">
            <path
               d="m 0,0 c -0.031,0.263 -0.142,0.476 -0.346,0.613 -0.189,0.138 -0.457,0.213 -0.787,0.213 -1.196,0 -1.369,-0.826 -1.369,-1.614 0,-0.788 0.173,-1.6 1.369,-1.6 0.676,0 1.149,0.437 1.212,0.95 l 2.974,0 C 2.754,-3.202 1.007,-4.19 -1.196,-4.19 c -2.455,0 -4.422,1.351 -4.422,3.402 0,2.052 1.967,3.415 4.422,3.415 C 0.944,2.627 2.77,1.789 2.959,0 L 0,0 z"
               id="path3087"
               style="fill:#ffffff;fill-opacity:1;fill-rule:nonzero;stroke:none" />
          </g>
          <g
             transform="translate(161.8333,694.5685)"
             id="g3089">
            <path
               d="m 0,0 3.006,0 0,-0.863 0.031,0 c 0.63,0.75 1.543,1.026 2.676,1.026 0.881,0 1.824,-0.363 2.203,-1.013 0.125,0.074 0.756,1.013 2.785,1.013 2.093,0 2.801,-1.151 2.801,-2.202 l 0,-4.453 -3.116,0 0,3.515 c 0,0.613 -0.078,1.163 -1.022,1.163 -0.787,0 -1.055,-0.488 -1.055,-1.163 l 0,-3.515 -3.116,0 0,3.515 c 0,0.613 -0.078,1.163 -1.023,1.163 -0.786,0 -1.054,-0.488 -1.054,-1.163 l 0,-3.515 L 0,-6.492 0,0 z"
               id="path3091"
               style="fill:#ffffff;fill-opacity:1;fill-rule:nonzero;stroke:none" />
          </g>
          <path
             d="m 136.448,690.65 3.109,0 0,-2.573 -3.109,0 0,2.573 z"
             id="path3093"
             style="fill:#ffffff;fill-opacity:1;fill-rule:evenodd;stroke:none" />
          <g
             transform="translate(164.6284,684.798)"
             id="g3095">
            <path
               d="m 0,0 c 0.403,-0.549 0.726,-1.19 1.291,-1.463 0.404,-0.276 1.374,-0.549 1.776,-0.276 1.615,0.916 2.665,1.557 4.119,2.565 0.08,0.09 0,0.365 -0.083,0.549 C 7.024,1.465 6.862,1.557 6.701,1.557 6.539,1.557 5.893,1.645 5.731,1.554 4.843,0.914 4.481,0.648 3.512,0.099 3.189,-0.083 2.754,-0.31 2.431,-0.218 1.785,-0.035 1.21,0 0.645,0.276 0.484,0.367 0.322,0.55 0.16,0.55 0.08,0.55 -0.23,0.396 -0.31,0.304 -0.31,0.121 -0.082,0.184 0,0"
               id="path3097"
               style="fill:#ffffff;fill-opacity:1;fill-rule:evenodd;stroke:none" />
          </g>
          <g
             transform="translate(171.8792,687.9592)"
             id="g3099">
            <path
               d="M 0,0 C 0,0.154 -0.329,0.477 -0.252,0.63 -0.098,0.783 0.247,1.05 0.513,1.096 0.725,1.132 0.917,1.3 1.07,1.148 1.3,0.918 1.223,0.536 1.146,0.306 1.146,0.154 0.994,0 0.841,-0.075 0.612,-0.152 0.458,-0.304 0.23,-0.304 0.076,-0.304 0.076,-0.075 0,0"
               id="path3101"
               style="fill:#ffffff;fill-opacity:1;fill-rule:evenodd;stroke:none" />
          </g>
          <g
             transform="translate(175.5563,688.3331)"
             id="g3103">
            <path
               d="M 0,0 C 0.993,0.611 1.834,1.375 2.827,1.91 3.591,2.369 4.355,2.675 5.12,2.981 5.654,3.133 6.266,3.21 6.724,3.439 6.801,3.439 7.241,4.078 7.165,4.078 6.859,4.232 6.26,4.227 5.953,4.227 5.266,4.15 4.328,3.822 3.715,3.593 2.875,3.288 2.019,2.784 1.254,2.325 0.261,1.79 -0.536,1.069 -1.376,0.383 -1.454,0.305 -1.606,0.152 -1.529,0.152 -1.147,0 -0.689,0 -0.307,0 -0.23,0 -0.078,-0.076 0,0"
               id="path3105"
               style="fill:#ffffff;fill-opacity:1;fill-rule:evenodd;stroke:none" />
          </g>
          <g
             transform="translate(166.9279,682.8024)"
             id="g3107">
            <path
               d="m 0,0 c -3.556,-1.936 -29.526,-11.781 -32.987,-7.185 -3.059,4.061 2.645,9.505 4.015,10.717 l -1.784,0.013 c -1.291,-0.993 -7.734,-6.174 -7.768,-10.755 -0.037,-5.091 10.226,-6.999 39.645,6.781 L 0,0 z"
               id="path3109"
               style="fill:#003772;fill-opacity:1;fill-rule:evenodd;stroke:none" />
          </g>
          <g
             transform="translate(175.3705,688.4467)"
             id="g3111">
            <path
               d="M 0,0 C -0.464,0.061 -0.929,0.121 -1.396,0.183 -0.393,0.87 0.75,1.637 1.139,1.911 1.589,2.228 2.408,2.742 3.37,3.169 4.332,3.598 5.44,3.934 6.451,3.932 6.675,3.932 6.965,3.902 7.104,3.883 7.243,3.864 7.309,3.793 6.798,3.755 4.722,3.56 1.051,0.799 0,0 m -3.351,-0.718 c 0,0 -0.469,0.677 -0.07,0.952 0.399,0.275 0.721,0.486 0.721,0.486 0,0 0.022,-0.527 0.275,-0.854 l -0.926,-0.584 z m -1.312,-2.443 c 0,0 -0.62,-0.421 -2.156,-1.428 -1.395,-0.915 -2.402,-0.137 -2.402,-0.137 l -1.739,1.347 c 0,0 0.142,0.093 0.248,0.159 0.089,0.056 0.134,0.032 0.299,-0.034 0.131,-0.056 1.611,-0.649 1.75,-0.7 0.157,-0.056 0.326,-0.09 0.494,-0.09 0.256,0 0.489,0.075 0.706,0.176 0.218,0.101 0.434,0.233 0.694,0.391 0.101,0.062 0.268,0.171 0.501,0.325 0.358,0.237 1.202,0.776 1.202,0.776 0.815,-0.305 1.003,-0.384 0.403,-0.785 M 9.406,-4.107 c -0.145,0.065 -2.335,1.149 -4.015,1.981 0.229,0.431 0.148,0.647 -0.188,0.815 -0.366,0.184 -0.878,0.112 -1.366,-0.045 -0.236,0.117 -0.374,0.186 -0.374,0.186 0,0 1.469,0.898 3.013,2.025 C 8.357,2.227 9.333,3.51 8.566,3.961 6.121,5.398 2.129,3.348 0.858,2.35 0.545,2.13 0.159,1.862 -0.58,1.353 -0.863,1.18 -1.073,1.046 -1.258,0.988 -1.946,1.954 -2.927,1.114 -2.946,1.097 -3.019,1.045 -3.093,0.988 -3.17,0.93 -3.619,0.589 -3.823,0.567 -4.138,0.567 c -0.314,0 -4.669,0.581 -5.419,0.701 -0.75,0.122 -1.331,0.243 -1.645,0.05 -0.246,-0.152 -0.877,-0.57 -1.14,-0.745 -0.103,-0.064 -0.092,-0.088 -0.019,-0.117 l 6.695,-2.577 c -0.678,-0.457 -1.181,-0.792 -1.355,-0.898 -0.688,-0.42 -1.003,-0.551 -1.459,-0.432 -0.467,0.123 -1.862,0.565 -2.059,0.63 -0.115,0.039 -0.145,0.025 -0.22,-0.029 -0.052,-0.037 -0.814,-0.54 -0.814,-0.54 l 1.241,-1.48 -1.662,0.19 c -0.114,0.013 -0.277,-0.039 -0.363,-0.114 l -0.315,-0.277 c -0.086,-0.075 -0.067,-0.164 0.043,-0.197 l 5.969,-1.781 c 0.11,-0.033 0.286,-0.026 0.392,0.017 l 0.336,0.132 c 0.106,0.042 0.133,0.148 0.06,0.237 l -0.742,0.892 c 2.212,0.899 3.745,1.442 3.745,1.442 0.557,0.272 1.293,0.277 3.3,0.307 0.855,0.014 1.516,0.086 3.924,-0.322 2.7,-0.457 3.516,-0.661 3.639,-0.669 0.102,-0.006 0.284,-0.009 0.57,0.131 0.346,0.17 0.706,0.375 0.886,0.477 0.181,0.102 0.2,0.19 -0.044,0.298"
               id="path3113"
               style="fill:#003772;fill-opacity:1;fill-rule:nonzero;stroke:none" />
          </g>
        </g>
      </g>
    </g>
  </g>
</svg>
