<?xml version="1.0" encoding="UTF-8"?>
<!DOCTYPE svg PUBLIC "-//W3C//DTD SVG 1.1//EN" "http://www.w3.org/Graphics/SVG/1.1/DTD/svg11.dtd">
<!-- Creator: CorelDRAW X7 -->
<svg xmlns="http://www.w3.org/2000/svg" xml:space="preserve" width="1485.71mm" height="253.149mm" version="1.1" style="shape-rendering:geometricPrecision; text-rendering:geometricPrecision; image-rendering:optimizeQuality; fill-rule:evenodd; clip-rule:evenodd"
viewBox="0 0 148571 25315"
 xmlns:xlink="http://www.w3.org/1999/xlink">
 <defs>
  <style type="text/css">
   <![CDATA[
    .fil0 {fill:#0033A0}
    .fil1 {fill:#D90012}
    .fil2 {fill:#F2A800}
    .fil3 {fill:#0033A0;fill-rule:nonzero}
   ]]>
  </style>
 </defs>
 <g id="Layer_x0020_1">
  <metadata id="CorelCorpID_0Corel-Layer"/>
  <g id="_627372176">
   <path class="fil0" d="M122475 7942c1922,-2280 4770,-3746 7947,-3830l10763 10762 7386 0 -14874 -14874 -293 0c-8085,0 -14694,6462 -14871,14544l-7 330 1412 0 18 -433c143,-2665 2352,-4753 5021,-4753l293 0 2762 0 0 -2762 -1709 0c-1397,0 -2711,368 -3848,1016zm-118526 0c1922,-2280 4769,-3746 7947,-3830l10763 10762 7386 0 -14874 -14874 -294 0c-8084,0 -14693,6462 -14870,14544l-7 330 1412 0 17 -433c143,-2665 2353,-4753 5022,-4753l293 0 9727 0 -2762 -2762 -5912 0c-1397,0 -2711,368 -3848,1016zm33958 -1017c777,0 1407,-630 1407,-1406 0,-777 -630,-1407 -1407,-1407l-12452 0 0 2814 12452 -1zm-12028 2764l-3247 -3247 0 -6442 16682 0c2675,0 4843,2168 4843,4844 0,2674 -2167,4842 -4842,4843l5188 5188 -7386 0 -5187 -5187 -6051 1zm22513 -2689l0 7874 -2823 0 0 -14874 3209 0 11247 11247 -3693 3692 -7940 -7939zm13859 7874l4844 0 0 -14874 -3210 0 -7046 7047 3693 3692 1719 -1719 0 5854zm11099 -14874l16682 0 0 4112 -15237 0c-777,0 -1407,630 -1407,1407 0,777 630,1407 1407,1407l15237 0 0 2762 -15820 0c-455,0 -824,369 -824,824 0,455 369,824 824,824l15820 0 0 3538 -17552 0c-2194,0 -3974,-1779 -3974,-3974 0,-1120 464,-2132 1209,-2854 -752,-854 -1209,-1974 -1209,-3202 0,-2675 2169,-4844 4844,-4844zm20938 7043l0 7831 -2840 0 0 -14874 3228 0 14875 14874 -7431 0 -7832 -7831zm15122 6676l0 -13719 -4844 0 0 8876 4844 4843zm2117 -13719l4882 0 0 14874 -4882 0 0 -14874zm17214 6926l3494 0 2762 2762 -6256 0 0 -2762z"/>
   <g>
    <path class="fil1" d="M125661 0l-7135 0 0 2526 3680 0c1037,-980 2197,-1830 3455,-2526z"/>
    <path class="fil0" d="M122206 2526l-3680 0 0 2526 1484 0c648,-913 1384,-1759 2196,-2526z"/>
    <path class="fil2" d="M120010 5052l-1484 0 0 2526c423,-888 920,-1732 1484,-2526z"/>
   </g>
   <path class="fil3" d="M13018 24770l-153 464 -969 0 1185 -3232 979 0 1181 3232 -997 0 -144 -464 -1082 0zm226 -668l635 0 -306 -955 -329 955zm12758 -2100l0 3232 -969 0 0 -3232 969 0zm11145 2118l0 1114 -974 0 0 -3232 1551 0c450,0 790,82 1018,245 229,164 343,402 343,715 0,382 -179,646 -536,793 168,63 284,150 349,260 65,109 102,244 113,403 10,159 21,311 31,455 11,144 42,265 93,361l-1001 0c-24,-81 -43,-232 -56,-453 -14,-221 -57,-386 -129,-496 -72,-110 -209,-165 -410,-165l-392 0zm0 -1325l0 627 545 0c271,0 406,-110 406,-329 0,-115 -30,-193 -90,-235 -60,-42 -166,-63 -316,-63l-545 0zm14940 1213c-30,261 -110,491 -241,689 -131,199 -302,351 -514,458 -212,107 -455,160 -728,160 -463,0 -850,-159 -1161,-478 -311,-319 -466,-714 -466,-1185 0,-334 66,-632 200,-895 134,-263 321,-467 561,-611 241,-144 513,-216 816,-216 271,0 518,54 742,162 224,108 402,258 534,451 132,192 207,410 225,653l-946 0c-18,-147 -74,-263 -167,-347 -93,-84 -216,-126 -370,-126 -189,0 -339,83 -450,248 -112,165 -167,391 -167,676 0,273 59,485 178,633 118,149 282,223 489,223 135,0 246,-43 334,-130 87,-87 138,-209 153,-365l978 0zm9819 -397c0,-252 39,-482 117,-690 79,-207 188,-384 330,-532 141,-147 314,-260 518,-340 204,-80 428,-119 672,-119 252,0 480,39 683,119 202,80 376,192 520,338 144,146 256,323 334,532 78,209 117,440 117,692 0,334 -68,629 -203,888 -135,259 -330,459 -584,602 -254,142 -543,214 -867,214 -490,0 -885,-156 -1186,-469 -300,-312 -451,-724 -451,-1235zm978 0c0,271 61,487 181,649 120,162 279,243 478,243 201,0 361,-79 480,-238 118,-160 178,-378 178,-654 0,-270 -60,-486 -178,-647 -119,-161 -279,-241 -480,-241 -196,0 -354,82 -476,246 -122,163 -183,378 -183,642zm15811 -1609l0 3232 -893 0 0 -1893 -487 1893 -721 0 -482 -1893 0 1893 -893 0 0 -3232 1303 0 437 1731 451 -1731 1285 0zm11131 2245l0 987 -974 0 0 -3232 1533 0c219,0 387,14 502,43 116,28 229,80 341,155 138,93 250,226 335,397 86,171 129,351 129,541 0,345 -107,617 -322,813 -215,197 -513,296 -895,296l-649 0zm0 -1452l0 699 486 0c133,0 233,-32 300,-95 68,-63 102,-152 102,-266 0,-117 -32,-203 -95,-257 -63,-54 -162,-81 -297,-81l-496 0zm12573 1975l-153 464 -969 0 1185 -3232 979 0 1181 3232 -997 0 -144 -464 -1082 0zm226 -668l635 0 -306 -955 -329 955zm14719 -2100l0 3232 -987 0 -699 -1195c-81,-132 -174,-306 -279,-523l0 1718 -974 0 0 -3232 978 0 690 1176c48,75 147,253 297,532l0 -1708 974 0zm11884 2060l0 1172 -960 0 0 -1172 -1172 -2060 1073 0 576 1244 587 -1244 1090 0 -1194 2060z"/>
  </g>
 </g>
</svg>
