<?xml version="1.0" encoding="utf-8"?>
<!-- Generator: Adobe Illustrator 19.2.1, SVG Export Plug-In . SVG Version: 6.00 Build 0)  -->
<svg version="1.1" id="Layer_1" xmlns="http://www.w3.org/2000/svg" xmlns:xlink="http://www.w3.org/1999/xlink" x="0px" y="0px"
	 viewBox="0 0 188.3 51" style="enable-background:new 0 0 188.3 51;" xml:space="preserve">
<style type="text/css">
	.st0{fill:#2D2D75;}
	.st1{fill:url(#SVGID_1_);}
</style>
<g>
	<g>
		<g>
			<path class="st0" d="M81.2,31.8l6.1-29h16.6L103.2,6h-13l-2,9.3h11.5l-0.7,3.2H87.6l-2.8,13.2H81.2z"/>
		</g>
		<g>
			<path class="st0" d="M107.1,28.6h14.1l-0.7,3.2h-17.7l6.1-29h3.6L107.1,28.6z"/>
		</g>
		<g>
			<path class="st0" d="M122.7,31.8l16.4-29h3l5.8,29h-3.6l-1.7-8.7h-11l-4.9,8.7H122.7z M133.4,19.9h8.6l-1.1-5.6
				c-0.5-2.6-0.9-4.7-1.1-6.3h-0.1c-0.8,1.8-2,4-3.5,6.8L133.4,19.9z"/>
		</g>
		<g>
			<path class="st0" d="M152.9,31.8l6.1-29h3.6l-6.1,29H152.9z"/>
		</g>
		<g>
			<path class="st0" d="M170.3,19.8l-2.5,12h-3.6l6.1-29h7.7c0.9,0,1.7,0,2.5,0.1c0.8,0.1,1.5,0.2,2.1,0.3c1.9,0.5,3.4,1.3,4.3,2.5
				c0.9,1.2,1.4,2.6,1.4,4.1c0,1.1-0.2,2.2-0.5,3.2c-0.4,1-0.9,1.9-1.7,2.7c-0.8,0.8-1.7,1.5-2.9,2.1c-1.2,0.6-2.6,1-4.3,1.3v0.1
				l6.8,12.4h-4l-6.4-12H170.3z M171,16.6h3.3c1.1,0,2,0,2.7-0.1c0.8-0.1,1.5-0.2,2.1-0.4c1.1-0.3,1.9-0.6,2.6-1.1s1.2-1,1.6-1.5
				c0.4-0.5,0.7-1.1,0.8-1.7c0.2-0.6,0.2-1.2,0.2-1.7c0-0.9-0.3-1.6-0.8-2.3c-0.5-0.7-1.3-1.2-2.4-1.5c-0.7-0.2-1.8-0.3-3.1-0.3h-5
				L171,16.6z"/>
		</g>
	</g>
	<g>
		<g>
			<path class="st0" d="M133.4,49.8l6.4-11.3h1.2l2.3,11.3h-1.4l-0.7-3.4h-4.3l-1.9,3.4H133.4z M137.6,45.1h3.4l-0.4-2.2
				c-0.2-1-0.3-1.8-0.4-2.5h0c-0.3,0.7-0.8,1.6-1.4,2.7L137.6,45.1z"/>
		</g>
		<g>
			<path class="st0" d="M145.1,49.8l1.7-8.1h1.3l-1.7,8.1H145.1z M147.2,39.9l0.3-1.4h1.4l-0.3,1.4H147.2z"/>
		</g>
		<g>
			<path class="st0" d="M154.5,42.9c-0.2,0-0.4,0-0.5,0c-0.4,0-0.8,0.1-1.1,0.2c-0.3,0.1-0.6,0.3-0.8,0.5c-0.2,0.2-0.4,0.5-0.6,0.8
				c-0.2,0.3-0.3,0.6-0.3,1l-0.9,4.4h-1.3l1.7-8.1h1.1v1.1h0c0.1-0.2,0.3-0.4,0.5-0.5c0.2-0.2,0.4-0.3,0.6-0.4
				c0.2-0.1,0.4-0.2,0.7-0.3c0.2-0.1,0.5-0.1,0.8-0.1c0.1,0,0.2,0,0.3,0c0.1,0,0.2,0,0.3,0L154.5,42.9z"/>
		</g>
		<g>
			<path class="st0" d="M157.1,49.8c-0.1,0-0.2,0-0.4,0.1c-0.1,0-0.3,0-0.5,0c-0.5,0-0.8-0.1-1.1-0.3c-0.2-0.2-0.4-0.5-0.4-0.9
				c0-0.2,0-0.4,0.1-0.6l2.3-10.6h1.3l-2.2,10.3c-0.1,0.3-0.1,0.4-0.1,0.6c0,0.1,0,0.2,0.1,0.3c0.1,0.1,0.2,0.1,0.4,0.1
				c0.2,0,0.4,0,0.6-0.1L157.1,49.8z"/>
		</g>
		<g>
			<path class="st0" d="M158.7,49.8l1.7-8.1h1.3l-1.7,8.1H158.7z M160.8,39.9l0.3-1.4h1.4l-0.3,1.4H160.8z"/>
		</g>
		<g>
			<path class="st0" d="M163.9,49.8h-1.3l1.7-8.1h1.1v1.1h0c0.4-0.4,0.8-0.7,1.2-1c0.5-0.2,1-0.3,1.6-0.3c0.3,0,0.6,0,0.9,0.1
				c0.3,0.1,0.5,0.2,0.7,0.4c0.2,0.2,0.3,0.4,0.5,0.6c0.1,0.2,0.2,0.5,0.2,0.8c0,0.2,0,0.5-0.1,0.7c0,0.2-0.1,0.5-0.1,0.8l-1,4.8
				h-1.3l1.1-5c0.1-0.4,0.1-0.8,0.1-1c0-0.2,0-0.4-0.1-0.5c-0.1-0.1-0.1-0.3-0.3-0.3c-0.1-0.1-0.2-0.2-0.4-0.2
				c-0.2,0-0.3-0.1-0.5-0.1c-0.4,0-0.7,0.1-1.1,0.2c-0.3,0.1-0.6,0.3-0.9,0.6c-0.3,0.2-0.5,0.5-0.7,0.9c-0.2,0.3-0.3,0.7-0.4,1.1
				L163.9,49.8z"/>
		</g>
		<g>
			<path class="st0" d="M178.9,43.6c0,0.5-0.1,0.9-0.4,1.3c-0.3,0.3-0.6,0.6-1.1,0.8c-0.5,0.2-1.1,0.4-1.8,0.5
				c-0.7,0.1-1.5,0.2-2.4,0.2c0,0.1,0,0.1,0,0.2c0,0.1,0,0.1,0,0.2c0,0.7,0.2,1.3,0.6,1.6c0.4,0.3,0.9,0.5,1.7,0.5
				c0.2,0,0.4,0,0.6,0c0.2,0,0.4-0.1,0.6-0.1c0.2,0,0.4-0.1,0.6-0.2c0.2-0.1,0.4-0.1,0.5-0.2l-0.2,1.2c-0.3,0.1-0.6,0.2-1,0.3
				c-0.4,0.1-0.8,0.1-1.3,0.1c-0.6,0-1.1-0.1-1.5-0.2c-0.4-0.2-0.8-0.4-1-0.7c-0.3-0.3-0.5-0.6-0.6-1c-0.1-0.4-0.2-0.8-0.2-1.3
				c0-0.4,0-0.9,0.1-1.3c0.1-0.4,0.2-0.8,0.4-1.2c0.2-0.4,0.4-0.8,0.6-1.1c0.3-0.3,0.5-0.6,0.9-0.9s0.7-0.4,1.1-0.6
				c0.4-0.1,0.8-0.2,1.3-0.2c0.3,0,0.7,0,1,0.1c0.3,0.1,0.6,0.2,0.8,0.4c0.2,0.2,0.4,0.4,0.6,0.7C178.9,42.9,178.9,43.3,178.9,43.6z
				 M173.6,45.2c0.6,0,1.2,0,1.7-0.1c0.5-0.1,0.9-0.2,1.3-0.3c0.3-0.1,0.6-0.3,0.8-0.5c0.2-0.2,0.3-0.4,0.3-0.7c0-0.1,0-0.2-0.1-0.3
				c-0.1-0.1-0.1-0.2-0.2-0.3c-0.1-0.1-0.2-0.2-0.4-0.2c-0.2-0.1-0.3-0.1-0.5-0.1c-0.3,0-0.6,0.1-0.9,0.2c-0.3,0.1-0.6,0.3-0.8,0.5
				c-0.2,0.2-0.5,0.5-0.6,0.8C173.8,44.4,173.7,44.8,173.6,45.2z"/>
		</g>
		<g>
			<path class="st0" d="M181.9,43.9c0,0.2,0,0.3,0.1,0.5c0.1,0.1,0.2,0.2,0.3,0.3c0.1,0.1,0.3,0.2,0.4,0.2c0.2,0.1,0.3,0.1,0.5,0.2
				c0.2,0.1,0.5,0.2,0.8,0.3c0.3,0.1,0.5,0.2,0.7,0.4c0.2,0.2,0.4,0.4,0.5,0.6c0.1,0.2,0.2,0.5,0.2,0.9c0,0.4-0.1,0.8-0.3,1.2
				c-0.2,0.3-0.4,0.6-0.7,0.9c-0.3,0.2-0.7,0.4-1.1,0.5c-0.4,0.1-0.9,0.2-1.4,0.2c-0.4,0-0.9,0-1.3-0.1c-0.5-0.1-0.8-0.2-1.1-0.4
				l0.3-1.1c0.3,0.1,0.6,0.2,1,0.3c0.4,0.1,0.7,0.1,1.2,0.1c0.4,0,0.8-0.1,1.1-0.2c0.3-0.1,0.5-0.2,0.6-0.4c0.2-0.1,0.3-0.3,0.3-0.5
				c0-0.2,0.1-0.3,0.1-0.4c0-0.2-0.1-0.4-0.2-0.6c-0.1-0.1-0.2-0.3-0.4-0.4c-0.2-0.1-0.4-0.2-0.6-0.3c-0.2-0.1-0.4-0.2-0.7-0.2
				c-0.2-0.1-0.4-0.2-0.6-0.3c-0.2-0.1-0.4-0.2-0.5-0.4c-0.2-0.1-0.3-0.3-0.4-0.5c-0.1-0.2-0.1-0.5-0.1-0.8c0-0.4,0.1-0.8,0.2-1.1
				c0.2-0.3,0.4-0.6,0.7-0.8c0.3-0.2,0.6-0.4,0.9-0.5c0.4-0.1,0.7-0.2,1.1-0.2c0.2,0,0.5,0,0.7,0c0.2,0,0.5,0.1,0.7,0.1
				c0.2,0.1,0.4,0.1,0.6,0.2c0.2,0.1,0.4,0.1,0.5,0.2l-0.2,1.1c-0.3-0.1-0.7-0.3-1.1-0.4c-0.4-0.1-0.7-0.1-1.1-0.1
				c-0.3,0-0.5,0-0.7,0.1c-0.2,0.1-0.4,0.2-0.5,0.3c-0.1,0.1-0.3,0.2-0.3,0.4C181.9,43.5,181.9,43.7,181.9,43.9z"/>
		</g>
	</g>
	<g>
		<linearGradient id="SVGID_1_" gradientUnits="userSpaceOnUse" x1="21.8403" y1="20.6684" x2="76.2356" y2="20.6684">
			<stop  offset="0" style="stop-color:#E01D38"/>
			<stop  offset="1" style="stop-color:#26265F"/>
		</linearGradient>
		<path class="st1" d="M63.3,0c-3.3,0-6.5,0.3-9.7,1.2c-3.7,1-7,2.8-10.1,5.1c-2,1.4-5.6,4.7-9.9,8.7c-2.7,2.6-6.4,4.6-10.4,4.2
			c-0.4,0-0.9-0.1-1.3-0.2c4,2.3,3.8,1.9,14.7,9.1c4.7,3.1,10.2,7,16,11.9c0.5,0.5,1.1,0.9,1.6,1.3c-3.9-4-6.2-9.2-6.3-14.8
			c0-6.7,3.3-12.8,8.6-17.1C61.4,5.5,68,3,75.3,3c0.3,0,0.6,0,1,0C72.4,1.3,67.9,0,63.3,0z"/>
		<g>
			<path class="st0" d="M61,12.2c-5.4,1.3-9.3,5.6-10.3,11.2c-0.4,2.2-0.4,4.5,0.1,6.9c0,0.2,0.1,0.4,0.1,0.6c0,0,0,0,0,0s0,0,0,0
				c0.1-0.3,5.5-12.1,21.9-14.6C72.8,16.3,67.5,10.7,61,12.2z"/>
		</g>
		<g>
			<g>
				<path class="st0" d="M36.8,31.5c-3.1-2.1-6-4-8.6-5.6C18.4,19.7,0,13.3,0,13.3c0,0,2.5,4,3.2,4.9C4.6,20,6.3,21.7,8,23.3
					c3.5,3,7.5,4.8,11.7,6.7c5.9,2.7,11.9,4.9,17.8,7.5c6,2.6,12,5.4,17.9,8.3c0.3,0.1,0.6,0.3,0.9,0.4c2.5,1.2,4.9,2.4,7.3,3.8
					C63.7,50,49.2,39.8,36.8,31.5z"/>
			</g>
		</g>
	</g>
</g>
</svg>
