<?xml version="1.0" encoding="UTF-8" standalone="no"?>
<svg
   xmlns:dc="http://purl.org/dc/elements/1.1/"
   xmlns:cc="http://creativecommons.org/ns#"
   xmlns:rdf="http://www.w3.org/1999/02/22-rdf-syntax-ns#"
   xmlns:svg="http://www.w3.org/2000/svg"
   xmlns="http://www.w3.org/2000/svg"
   viewBox="0 0 1122.52 793.70667"
   height="793.70667"
   width="1122.52"
   xml:space="preserve"
   id="svg2"
   version="1.1"><metadata
     id="metadata8"><rdf:RDF><cc:Work
         rdf:about=""><dc:format>image/svg+xml</dc:format><dc:type
           rdf:resource="http://purl.org/dc/dcmitype/StillImage" /><dc:title></dc:title></cc:Work></rdf:RDF></metadata><defs
     id="defs6"><clipPath
       id="clipPath26"
       clipPathUnits="userSpaceOnUse"><path
         id="path24"
         d="M 0,595.28 H 841.89 V 0 H 0 Z" /></clipPath><clipPath
       id="clipPath108"
       clipPathUnits="userSpaceOnUse"><path
         id="path106"
         d="m 623.557,319.326 h 96.628 v -57.704 h -96.628 z" /></clipPath><clipPath
       id="clipPath120"
       clipPathUnits="userSpaceOnUse"><path
         id="path118"
         d="m 375.839,491.235 h 57.704 v -96.629 h -57.704 z" /></clipPath><clipPath
       id="clipPath132"
       clipPathUnits="userSpaceOnUse"><path
         id="path130"
         d="m 421.144,223.508 h 57.704 V 126.88 h -57.704 z" /></clipPath></defs><g
     transform="matrix(1.3333333,0,0,-1.3333333,0,793.70667)"
     id="g10"><g
       transform="translate(436.7879,405.0222)"
       id="g12"><path
         id="path14"
         style="fill:#cb9900;fill-opacity:1;fill-rule:nonzero;stroke:none"
         d="M 0,0 6.064,6.09 11.618,0.501 12.174,0.019 6.064,-6.104 Z" /></g><g
       transform="translate(448.9927,405.0222)"
       id="g16"><path
         id="path18"
         style="fill:#cb9900;fill-opacity:1;fill-rule:nonzero;stroke:none"
         d="M 0,0 6.07,6.089 11.626,0.508 12.157,0.009 6.07,-6.105 Z" /></g><g
       id="g20"><g
         clip-path="url(#clipPath26)"
         id="g22"><g
           transform="translate(440.7078,344.4061)"
           id="g28"><path
             id="path30"
             style="fill:#cb9900;fill-opacity:1;fill-rule:nonzero;stroke:none"
             d="m 0,0 c -1.669,0 -2.802,0.628 -2.848,0.655 -2.316,0.928 -3.616,3.476 -3.616,7.153 0,0.635 0.01,1.017 0.061,1.243 v 0.956 h -51.592 v 46.44 c 0,1.976 -1.284,2.515 -2.374,3.089 -0.913,0.479 -1.857,0.975 -2.039,2.3 -0.002,0.215 -0.015,0.338 -0.025,0.443 l -0.015,0.265 C -55.339,67.768 -50.18,74.6 -50.18,74.6 l 0.003,-56.739 h 43.774 v 2.219 c -0.074,1.944 -0.22,5.989 -9.795,6.059 -0.005,0 -4.456,-0.075 -8.922,-0.075 -2.504,0 -4.985,0.035 -6.71,0.111 -2.754,0.21 -4.261,3.26 -4.289,6.023 0,1.884 0.723,3.423 1.983,4.226 l 0.65,0.45 0.397,-0.717 c 0.865,-1.638 4.468,-2.398 11.34,-2.398 l 0.645,0.002 c 2.703,0 5.836,0.076 9.407,0.172 0.175,0.017 0.398,0.017 0.59,0.017 11.575,0 12.903,-10.062 12.935,-14.39 l 0.011,-0.791 c 0,-0.344 -0.003,-0.654 -0.013,-0.908 h 11.483 v 17.133 c 0,0 0.18,1.25 -2.217,2.568 -1.617,0.888 -1.95,2.735 -1.95,2.735 C 18.401,46.996 20.968,52.7 20.968,52.7 L 20.98,10.007 H 1.747 V 9.388 C 1.722,6.847 2.231,3.481 3.735,2.348 L 4.575,1.679 3.69,1.127 C 2.521,0.379 1.277,0 0,0" /></g><g
           transform="translate(348.5494,347.9631)"
           id="g32"><path
             id="path34"
             style="fill:#cb9900;fill-opacity:1;fill-rule:nonzero;stroke:none"
             d="m 0,0 v 6.45 h -26.446 v 7.976 H 7.25 L 7.228,3.95 c 0.038,0 -0.39,-3.248 5.998,-3.248 3.989,0 4.029,3.868 4.029,4.032 v 18.622 c -0.03,2.587 -1.707,2.924 -2.966,2.952 -0.225,0 -0.4,-0.017 -0.408,-0.018 l -40.317,-10e-4 -0.01,23.256 c 0,0 4.672,-5.842 9.431,-8.563 0.748,-0.482 0.358,-1.771 -1.999,-3.229 -0.471,-0.292 -1.078,-0.547 -1.078,-1.198 v -2.906 h 40.263 c 4.732,-0.055 5.139,-5.013 5.152,-6.532 0,-0.253 -0.028,-26.676 -0.028,-26.676 0,-0.069 -0.385,-7.234 -11.929,-7.234 C -0.837,-6.793 0,0 0,0" /></g><g
           transform="translate(508.4592,354.4234)"
           id="g36"><path
             id="path38"
             style="fill:#cb9900;fill-opacity:1;fill-rule:nonzero;stroke:none"
             d="m 0,0 v 64.89 l 1.378,-2.213 c 0.015,-0.024 1.022,-1.668 5.154,-5.235 2.464,-2.102 3.804,-2.926 4.492,-3.247 0.705,-0.301 1.269,-0.543 1.269,-1.299 L 12.276,52.24 C 12.088,50.873 11.148,50.378 10.237,49.9 9.145,49.326 8.111,48.784 8.009,46.811 7.87,45.322 8.009,0 8.009,0 Z" /></g><g
           transform="translate(483.7713,340.5266)"
           id="g40"><path
             id="path42"
             style="fill:#cb9900;fill-opacity:1;fill-rule:nonzero;stroke:none"
             d="M 0,0 5.45,5.502 0,11.004 -5.503,5.502 Z m -13.204,5.502 8.154,8.17 -9.833,9.674 v 55.405 c 0,0 4.297,-8.195 10.118,-12.267 L -4.78,65.851 c -0.149,-1.309 -0.895,-1.798 -1.618,-2.271 -0.878,-0.574 -1.707,-1.117 -1.788,-3.151 -0.112,-1.431 -0.003,-32.41 0,-32.916 L 0,19.014 l 8.153,8.5 c 0,0 0.091,31.398 0,32.908 -0.088,2.034 -0.92,2.577 -1.803,3.153 -0.728,0.474 -1.482,0.964 -1.608,2.239 l -0.015,0.434 c 6.418,4.171 10.095,12.509 10.095,12.509 V 24.102 L 4.974,13.688 13.146,5.502 0,-7.697 Z" /></g><g
           transform="translate(449.7815,271.4566)"
           id="g44"><path
             id="path46"
             style="fill:#cb9900;fill-opacity:1;fill-rule:nonzero;stroke:none"
             d="m 0,0 13.908,14.91 v 29.489 c 0,0.219 0.274,0.446 0.274,0.446 l 2.014,1.009 v 1.701 h -18.65 v -1.671 l 1.917,-1.222 C 0.012,44.33 0.059,44.099 0.059,43.91 V 26.965 h -37.334 l -8.426,-10.688 -0.002,27.557 0.054,0.534 c 0.017,0.023 0.144,0.141 0.442,0.298 l 1.767,1.105 0.186,0.101 v 1.683 H -61.873 V 45.89 l 1.841,-1.195 c 0.271,-0.186 0.393,-0.29 0.435,-0.29 0.005,0 0.01,0.003 0.012,0.007 l 0.005,-50.653 -0.098,-0.656 c -0.075,-0.12 -0.217,-0.256 -0.349,-0.343 l -1.846,-1.239 v -1.633 h 18.619 v 1.653 l -1.944,1.234 c -0.3,0.166 -0.439,0.265 -0.488,0.265 -0.005,0 -0.01,-0.002 -0.012,-0.004 l -0.003,23.241 2.012,-0.615 2.583,1.484 c 0.466,0.287 0.877,0.483 1.17,0.553 0.156,0.055 0.463,0.122 1.044,0.122 l 38.892,0 z" /></g><g
           transform="translate(647.8943,296.4615)"
           id="g48"><path
             id="path50"
             style="fill:#cb9900;fill-opacity:1;fill-rule:nonzero;stroke:none"
             d="m 0,0 c -2.183,6.912 -7.187,12.582 -14.871,16.854 -6.926,3.876 -16.748,5.76 -30.027,5.76 h -50.69 v -1.646 c 0,0 2.121,-1.416 2.19,-1.416 0.009,0 0.017,0.004 0.019,0.012 l -0.01,-6.011 h 48.411 c 9.785,0 16.946,-1.306 21.287,-3.852 6.914,-4.036 10.283,-9.274 10.3,-16.012 0,-3.383 -0.906,-6.476 -2.691,-9.194 -1.767,-2.702 -4.48,-5.017 -8.064,-6.881 -4.687,-2.428 -11.833,-3.659 -21.235,-3.659 H -70.62 V 9.4 h -13.806 l 0.007,-40.683 -0.088,-0.6 c -0.088,-0.109 -0.234,-0.253 -0.366,-0.376 l -1.699,-1.075 -0.149,-0.106 v -1.65 h 41.389 c 7.961,0 14.224,0.45 18.611,1.341 6.01,1.256 11.343,3.44 15.852,6.491 4.604,3.093 7.898,6.677 9.79,10.653 1.406,2.906 2.119,6.118 2.119,9.545 C 1.04,-4.623 0.691,-2.248 0,0" /></g><g
           transform="translate(465.9192,263.5514)"
           id="g52"><path
             id="path54"
             style="fill:#cb9900;fill-opacity:1;fill-rule:nonzero;stroke:none"
             d="M 0,0 C -0.405,0.065 -0.635,0.15 -0.762,0.22 L 33.982,36.353 25.95,44.911 -19.009,-2.069 H 1.685 v 1.977 H 0.962 C 0.615,-0.092 0.295,-0.044 0,0" /></g><g
           transform="translate(495.6018,310.6986)"
           id="g56"><path
             id="path58"
             style="fill:#cb9900;fill-opacity:1;fill-rule:nonzero;stroke:none"
             d="m 0,0 8.877,-9.424 9.18,-9.238 H 2.551 l -8.5,-8.899 1.84,-1.259 2.005,1.083 c 0.192,0.081 0.39,0.16 0.561,0.175 0.129,0.022 0.645,0.029 1.453,0.029 l 26.516,-0.004 18.296,-19.553 c -0.003,-0.002 -0.279,-0.338 -1.868,-0.338 h -0.71 v -1.984 H 62.832 L 7.993,8.372 Z" /></g><g
           transform="translate(362.677,317.3416)"
           id="g60"><path
             id="path62"
             style="fill:#cb9900;fill-opacity:1;fill-rule:nonzero;stroke:none"
             d="M 0,0 1.851,-1.196 C 2.28,-1.488 2.498,-1.755 2.498,-1.993 L 2.512,-52.075 2.38,-52.72 C 2.212,-52.867 2.019,-53.035 1.882,-53.124 L 0,-54.338 v -1.679 h 18.474 v 1.66 l -1.706,1.204 c -0.237,0.162 -0.374,0.272 -0.425,0.272 -0.01,0 -0.015,-0.004 -0.02,-0.01 l -0.007,50.823 0.049,0.541 0.42,0.388 1.689,1.133 V 1.67 L 0,1.67 Z" /></g><g
           transform="translate(285.2014,272.4198)"
           id="g64"><path
             id="path66"
             style="fill:#cb9900;fill-opacity:1;fill-rule:nonzero;stroke:none"
             d="M 0,0 -2.429,-1.394 C -3.079,-1.793 -3.44,-1.92 -3.508,-1.949 l -41.365,-0.109 c -9.448,0 -16.633,1.225 -21.355,3.64 -7.124,3.701 -10.593,8.977 -10.608,16.124 0,3.217 0.928,6.269 2.752,9.065 3.571,5.258 8.709,8.831 16.074,10.197 1.949,0.35 3.829,0.434 5.068,0.434 h 21.307 c 1.272,0.055 1.078,-0.252 1.117,-0.388 l -0.234,-1.493 h 1.765 l 9.124,11.026 h -25.445 c -5.883,0 -10.478,-0.192 -13.657,-0.57 -1.684,-0.21 -3.269,-0.491 -4.841,-0.857 -4.16,-0.949 -8.223,-2.533 -12.075,-4.71 -6.223,-3.529 -10.681,-8.016 -13.25,-13.342 -1.44,-3.037 -2.163,-6.422 -2.148,-10.062 -0.015,-9.302 4.992,-16.725 14.883,-22.062 4.458,-2.45 9.475,-4.145 14.914,-5.038 4.068,-0.664 9.666,-1.001 16.636,-1.001 H -6.372 L 2.795,0.046 H 2.046 Z" /></g><g
           transform="translate(266.8445,286.2882)"
           id="g68"><path
             id="path70"
             style="fill:#cb9900;fill-opacity:1;fill-rule:nonzero;stroke:none"
             d="M 0,0 8.96,11.194 H -51.348 L -57.419,2.136 -3.054,2.137 C -2.031,2.026 -1.68,1.775 -1.643,1.604 L -1.865,0 Z" /></g><g
           transform="translate(263.114,308.4635)"
           id="g72"><path
             id="path74"
             style="fill:#cb9900;fill-opacity:1;fill-rule:nonzero;stroke:none"
             d="M 0,0 1.716,-0.599 1.96,-0.66 4.58,0.659 C 5.3,1.141 6.02,1.377 6.782,1.377 H 40.1 l 0.012,-44.652 -0.146,-0.625 c -0.142,-0.171 -0.301,-0.281 -0.405,-0.33 l -1.902,-1.257 v -1.652 h 18.613 v 1.68 l -1.934,1.177 -0.464,0.428 c -0.009,0.105 -0.024,0.274 -0.014,0.481 v 44.75 l 29.555,0.002 c 1.136,-0.136 1.282,-0.398 1.277,-0.426 v -1.577 h 1.66 L 95.52,10.548 H 8.411 Z" /></g><g
           transform="translate(277.8313,197.8083)"
           id="g76"><path
             id="path78"
             style="fill:#cb9900;fill-opacity:1;fill-rule:nonzero;stroke:none"
             d="m 0,0 14.05,35.386 h 4.527 L 32.471,0 H 25.29 l -2.81,7.337 h -9.211 l -1.977,5.048 h 9.313 L 16.912,22.117 15.923,25.186 14.934,22.117 6.609,0 Z" /></g><path
           id="path80"
           style="fill:#cb9900;fill-opacity:1;fill-rule:nonzero;stroke:none"
           d="m 327.736,233.194 h 6.868 v -35.386 h -6.868 z" /><g
           transform="translate(362.5481,214.2512)"
           id="g82"><path
             id="path84"
             style="fill:#cb9900;fill-opacity:1;fill-rule:nonzero;stroke:none"
             d="m 0,0 h 4.475 c 3.884,0 5.828,2.324 5.828,6.975 0,2.114 -0.45,3.728 -1.353,4.839 -0.901,1.108 -2.412,1.665 -4.526,1.665 H 0 Z M 12.021,-16.443 3.904,-4.839 H 0 V -16.443 H -6.868 V 18.943 H 4.475 c 4.163,0 7.339,-0.945 9.524,-2.837 2.185,-1.89 3.279,-4.71 3.279,-8.455 0,-2.741 -0.625,-5.127 -1.875,-7.155 -1.248,-2.029 -3.018,-3.497 -5.308,-4.397 l 9.627,-12.542 z" /></g><g
           transform="translate(406.4153,197.8083)"
           id="g86"><path
             id="path88"
             style="fill:#cb9900;fill-opacity:1;fill-rule:nonzero;stroke:none"
             d="M 0,0 -10.461,35.386 H -3.33 L 3.174,10.2 h 0.259 l 6.296,19.566 -1.821,5.62 h 6.765 L 22.844,10.2 h 0.208 l 6.557,25.186 h 6.766 L 25.654,0 H 19.878 L 12.749,21.907 5.566,0 Z" /></g><g
           transform="translate(454.1863,197.8083)"
           id="g90"><path
             id="path92"
             style="fill:#cb9900;fill-opacity:1;fill-rule:nonzero;stroke:none"
             d="m 0,0 14.05,35.386 h 4.527 L 32.471,0 H 25.29 l -2.81,7.337 h -9.211 l -1.977,5.048 h 9.313 L 16.912,22.117 15.923,25.186 14.934,22.117 6.609,0 Z" /></g><g
           transform="translate(508.1487,197.8083)"
           id="g94"><path
             id="path96"
             style="fill:#cb9900;fill-opacity:1;fill-rule:nonzero;stroke:none"
             d="m 0,0 v 14.519 l -11.553,20.867 h 7.598 l 7.702,-14.883 7.911,14.883 h 6.816 L 6.87,14.519 V 0 Z" /></g><g
           transform="translate(551.1321,196.9758)"
           id="g98"><path
             id="path100"
             style="fill:#cb9900;fill-opacity:1;fill-rule:nonzero;stroke:none"
             d="m 0,0 c -3.748,0 -6.748,0.781 -9.004,2.341 v 7.183 c 2.708,-2.429 5.776,-3.643 9.212,-3.643 4.267,0 6.401,1.646 6.401,4.942 0,1.284 -0.425,2.282 -1.275,2.993 C 4.482,14.526 3,15.124 0.884,15.61 l -1.301,0.313 c -5.967,1.457 -8.951,4.839 -8.951,10.149 0,3.467 1.084,6.164 3.252,8.091 2.168,1.926 5.283,2.888 9.341,2.888 3.853,0 6.87,-0.764 9.055,-2.29 v -7.18 c -0.971,0.901 -2.29,1.716 -3.955,2.443 -1.665,0.73 -3.452,1.094 -5.359,1.094 -2.014,0 -3.469,-0.347 -4.372,-1.04 -0.901,-0.696 -1.353,-1.77 -1.353,-3.227 0,-1.319 0.374,-2.315 1.118,-2.991 0.747,-0.676 2.195,-1.277 4.346,-1.797 l 1.301,-0.312 c 3.191,-0.762 5.533,-1.917 7.024,-3.46 1.492,-1.543 2.239,-3.721 2.239,-6.531 0,-3.608 -1.111,-6.47 -3.33,-8.586 C 7.717,1.057 4.404,0 0,0" /></g><g
           id="g102"><g
             id="g104" /><g
             id="g112"><g
               style="opacity:0.10000598"
               id="g110"
               clip-path="url(#clipPath108)" /></g></g><g
           id="g114"><g
             id="g116" /><g
             id="g124"><g
               style="opacity:0.10000598"
               id="g122"
               clip-path="url(#clipPath120)" /></g></g><g
           id="g126"><g
             id="g128" /><g
             id="g136"><g
               style="opacity:0.10000598"
               id="g134"
               clip-path="url(#clipPath132)" /></g></g></g></g></g></svg>