<?xml version="1.0" encoding="UTF-8" standalone="no"?>
<!DOCTYPE svg PUBLIC "-//W3C//DTD SVG 1.1//EN"
"http://www.w3.org/Graphics/SVG/1.1/DTD/svg11.dtd">


<!-- Page 1 -->
<svg x="0" y="0" width="695" height="339" viewBox="0 0 695 339" version="1.1" xmlns="http://www.w3.org/2000/svg" xmlns:xlink="http://www.w3.org/1999/xlink"
style="display: block;margin-left: auto;margin-right: auto;">
<defs>
<clipPath id="c0_1"><path d="M0,339.7L0,0L695.2,0l0,339.7Z" /></clipPath>

<style type="text/css"><![CDATA[

.g1_1{
fill: #CB9800;
}


]]></style>

</defs>
<path d="M371,21.8l9.3,-9.3l8.5,8.6l0.8,0.7l-9.3,9.4Z" class="g1_1" />
<path d="M389.7,21.8L399,12.5l8.5,8.6l0.8,0.7L399,31.2Z" class="g1_1" />
<path d="M377,114.4c-2.5,0,-4.2,-0.9,-4.3,-1c-3.6,-1.4,-5.5,-5.3,-5.5,-10.9c0,-1,0,-1.5,0.1,-1.9l0,-1.4l-78.9,0l0,-71c0,-3,-1.9,-3.8,-3.6,-4.7C283.4,22.7,282,22,281.7,20c0,-0.4,0,-0.5,0,-0.7l-0.1,-0.4c10.9,-8,18.8,-18.4,18.8,-18.4l0,86.7l66.9,0l0,-3.4c-0.2,-3,-0.4,-9.2,-15,-9.3c0,0,-6.8,0.1,-13.6,0.1c-3.9,0,-7.7,0,-10.3,-0.1c-4.2,-0.4,-6.5,-5,-6.5,-9.3c0,-2.8,1.1,-5.2,3,-6.4l1,-0.7l0.6,1.1c1.3,2.5,6.8,3.7,17.3,3.7l1,0c4.1,0,8.9,-0.2,14.4,-0.3c0.2,0,0.6,0,0.9,0c17.6,0,19.7,15.3,19.7,22l0,1.2c0,0.5,0,1,0,1.4l17.6,0l0,-26.2c0,0,0.2,-1.9,-3.4,-3.9c-2.5,-1.4,-3,-4.2,-3,-4.2c14.1,-10.3,18.1,-19,18.1,-19l0,65.3l-29.4,0l0,0.9c0,3.9,0.7,9,3,10.8l1.3,1l-1.3,0.8c-1.8,1.2,-3.7,1.7,-5.7,1.7Z" class="g1_1" />
<path d="M236.2,109l0,-9.8l-40.4,0l0,-12.2l51.5,0l0,16c0,0,-0.6,4.9,9.1,4.9c6.1,0,6.2,-5.9,6.2,-6.1l0,-28.5c0,-3.9,-2.6,-4.4,-4.5,-4.5c-0.4,0,-0.6,0,-0.7,0l-61.6,0l0,-35.5c0,0,7.2,8.9,14.4,13.1c1.2,0.7,0.6,2.7,-3,4.9c-0.7,0.5,-1.7,0.9,-1.7,1.9l0,4.4l61.6,0c7.2,0.1,7.8,7.7,7.8,10c0,0.4,0,40.7,0,40.7c0,0.1,-0.6,11.1,-18.2,11.1C235,119.4,236.2,109,236.2,109Z" class="g1_1" />
<g clip-path="url(#c0_1)">
<path d="M480.5,99.1L480.5,0l2.1,3.4c0.1,0,1.6,2.5,7.9,8c3.8,3.2,5.8,4.4,6.9,4.9c1.1,0.5,1.9,0.9,1.9,2l0,1c-0.3,2.1,-1.7,2.9,-3.1,3.6c-1.7,0.9,-3.3,1.7,-3.4,4.7c-0.2,2.3,0,71.5,0,71.5Z" class="g1_1" />
</g>
<path d="M442.8,120.4l8.4,-8.4l-8.4,-8.4l-8.4,8.4ZM422.7,112L435.1,99.5l-15,-14.8l0,-84.6c0,0,6.6,12.5,15.4,18.7l0,1c-0.2,2,-1.3,2.7,-2.4,3.4c-1.4,0.9,-2.7,1.7,-2.8,4.8c-0.2,2.2,0,49.6,0,50.3l12.5,13l12.5,-13c0,0,0.1,-47.9,0,-50.2c-0.2,-3.2,-1.4,-4,-2.8,-4.9c-1.1,-0.7,-2.2,-1.4,-2.4,-3.4L450,19.2C459.9,12.8,465.5,0,465.5,0l0,83.5l-15.1,16L462.9,112l-20.1,20.1Z" class="g1_1" />
<path d="M390.9,225.9l21.2,-22.8l0,-45c0,-0.4,0.5,-0.7,0.5,-0.7l3,-1.6l0,-2.6l-28.5,0l0,2.6l3,1.9c0.8,0.5,0.9,0.8,0.9,1.1l0,25.9l-57.1,0L321.1,201l0,-42.1l0.1,-0.8c0,0,0.2,-0.2,0.6,-0.4l2.7,-1.7l0.3,-0.2l0,-2.6l-28.4,0l0,2.6l2.8,1.8c0.4,0.3,0.6,0.5,0.6,0.5c0.1,0,0.1,-0.1,0.1,-0.1l0,77.4l-0.2,1c-0.1,0.2,-0.3,0.4,-0.5,0.6l-2.8,1.8l0,2.5l28.4,0l0,-2.5l-3,-1.9c-0.4,-0.2,-0.6,-0.4,-0.7,-0.4l0,-35.5l3,1l4,-2.3c0.7,-0.4,1.3,-0.7,1.8,-0.8c0.2,-0.1,0.7,-0.2,1.6,-0.2l59.4,0Z" class="g1_1" />
<g clip-path="url(#c0_1)">
<path d="M693.6,187.7c-3.4,-10.6,-11,-19.2,-22.8,-25.8C660.3,156,645.3,153.1,625,153.1l-77.5,0l0,2.6c0,0,3.3,2.1,3.4,2.1l0,9.2l74,0c14.9,0,25.8,2,32.5,5.9c10.5,6.1,15.7,14.1,15.7,24.4c0,5.2,-1.4,9.9,-4.1,14.1c-2.7,4.1,-6.8,7.6,-12.3,10.5c-7.2,3.7,-18.1,5.6,-32.5,5.6l-38.5,0l0,-54.2l-21.1,0l0,62.2l-0.1,0.9c-0.2,0.2,-0.4,0.4,-0.6,0.6l-2.6,1.6l-0.2,0.2l0,2.5l63.2,0c12.2,0,21.7,-0.7,28.4,-2c9.2,-2,17.4,-5.3,24.3,-10c7,-4.7,12,-10.2,14.9,-16.2c2.2,-4.5,3.3,-9.4,3.3,-14.6c0,-3.7,-0.6,-7.4,-1.6,-10.8Z" class="g1_1" />
</g>
<path d="M415.6,238c-0.7,-0.1,-1,-0.3,-1.2,-0.4l53.1,-55.2l-12.3,-13l-68.7,71.7l31.6,0l0,-3l-1.1,0c-0.5,0,-1,-0.1,-1.4,-0.1Z" class="g1_1" />
<path d="M460.9,165.9l13.6,14.4l14,14.1l-23.7,0l-13,13.6l2.8,2l3.1,-1.7c0.3,-0.1,0.6,-0.2,0.8,-0.3c0.2,0,1,0,2.3,0l40.5,0l27.9,29.9c0,0,-0.4,0.5,-2.8,0.5l-1.1,0l0,3l31.6,0L473.1,153.1Z" class="g1_1" />
<path d="M257.8,155.8l2.8,1.8c0.7,0.5,1,0.9,1,1.2l0.1,76.5l-0.2,1c-0.3,0.3,-0.6,0.5,-0.8,0.7l-2.9,1.8l0,2.6l28.2,0l0,-2.6L283.4,237c-0.3,-0.3,-0.5,-0.4,-0.6,-0.4l-0.1,-77.7l0.1,-0.8l0.7,-0.6l2.5,-1.7l0,-2.6l-28.2,0Z" class="g1_1" />
<g clip-path="url(#c0_1)">
<path d="M139.5,224.4l-3.8,2.1c-0.9,0.7,-1.5,0.9,-1.6,0.9l-63.2,0.2c-14.4,0,-25.4,-1.9,-32.6,-5.6C27.4,216.3,22.1,208.3,22.1,197.4c0,-4.9,1.4,-9.6,4.2,-13.9c5.4,-8,13.3,-13.5,24.5,-15.6c3,-0.5,5.9,-0.6,7.8,-0.6l32.5,0c2,-0.1,1.7,0.4,1.7,0.6l-0.3,2.3l2.7,0l13.9,-16.9l-38.9,0c-9,0,-16,0.3,-20.8,0.9c-2.6,0.3,-5,0.7,-7.4,1.3c-6.4,1.4,-12.6,3.9,-18.5,7.2C14,168.1,7.2,174.9,3.3,183.1C1.1,187.7,0,192.9,0,198.4c0,14.3,7.6,25.6,22.7,33.7c6.8,3.8,14.5,6.4,22.8,7.7c6.2,1.1,14.8,1.6,25.4,1.6l58.8,0l14,-17.1l-1.1,0Z" class="g1_1" />
</g>
<path d="M111.4,203.2l13.7,-17.1l-92.1,0L23.7,200l83,0c1.6,0.1,2.1,0.5,2.2,0.8l-0.3,2.4Z" class="g1_1" />
<path d="M105.7,169.4l2.6,0.9l0.4,0.1l4,-2.1c1.1,-0.7,2.2,-1.1,3.4,-1.1l50.9,0l0,68.3l-0.2,0.9c-0.2,0.3,-0.5,0.5,-0.6,0.5l-3,1.9l0,2.6l28.5,0l0,-2.6l-3,-1.8L188,236.4c0,-0.2,0,-0.5,0,-0.8l0,-68.4l45.2,0c1.7,0.3,1.9,0.7,1.9,0.7l0,2.4l2.5,0l14,-17.1l-133,0Z" class="g1_1" />
<path d="M128.2,338.4l21.5,-54.1l6.9,0l21.2,54.1l-11,0l-4.3,-11.2l-14,0l-3.1,-7.7l14.3,0L154,304.6l-1.5,-4.7l-1.5,4.7l-12.7,33.8Z" class="g1_1" />
<path d="M204.4,284.3l10.5,0l0,54.1l-10.5,0l0,-54.1Z" class="g1_1" />
<path d="M257.6,313.3l6.9,0c5.9,0,8.9,-3.6,8.9,-10.7c0,-3.2,-0.7,-5.7,-2.1,-7.4c-1.4,-1.7,-3.7,-2.5,-6.9,-2.5l-6.8,0ZM276,338.4L263.6,320.7l-6,0l0,17.7l-10.5,0l0,-54.1l17.4,0c6.3,0,11.2,1.5,14.5,4.4c3.4,2.9,5,7.2,5,12.9c0,4.2,-0.9,7.8,-2.8,10.9c-2,3.1,-4.7,5.4,-8.2,6.7l14.8,19.2Z" class="g1_1" />
<path d="M324.6,338.4L308.7,284.3l10.9,0l9.9,38.5l0.4,0l9.6,-29.9l-2.8,-8.6l10.4,0l12.4,38.5l0.4,0l10,-38.5l10.3,0l-16.4,54.1l-8.8,0L344.1,304.9l-11,33.5Z" class="g1_1" />
<path d="M397.6,338.4l21.5,-54.1l6.9,0l21.2,54.1l-10.9,0L432,327.2l-14.1,0l-3,-7.7l14.2,0l-5.6,-14.9L422,299.9l-1.6,4.7l-12.7,33.8Z" class="g1_1" />
<path d="M480.1,338.4l0,-22.2L462.4,284.3l11.6,0l11.8,22.8l12.1,-22.8l10.4,0l-17.7,31.9l0,22.2Z" class="g1_1" />
<g clip-path="url(#c0_1)">
<path d="M545.7,339.7c-5.7,0,-10.3,-1.2,-13.7,-3.6l0,-11c4.1,3.7,8.8,5.6,14.1,5.6c6.5,0,9.7,-2.5,9.7,-7.6c0,-1.9,-0.6,-3.4,-1.9,-4.5c-1.3,-1.1,-3.6,-2,-6.8,-2.8l-2,-0.4C536,313.1,531.4,308,531.4,299.9c0,-5.3,1.7,-9.5,5,-12.4c3.3,-3,8.1,-4.4,14.3,-4.4c5.9,0,10.5,1.1,13.8,3.5l0,10.9c-1.5,-1.3,-3.5,-2.6,-6,-3.7c-2.6,-1.1,-5.3,-1.7,-8.2,-1.7c-3.1,0,-5.3,0.6,-6.7,1.6c-1.4,1.1,-2.1,2.7,-2.1,5c0,2,0.6,3.5,1.7,4.5c1.2,1.1,3.4,2,6.7,2.8l2,0.5c4.8,1.1,8.4,2.9,10.7,5.2c2.3,2.4,3.4,5.7,3.4,10c0,5.5,-1.7,9.9,-5.1,13.1c-3.4,3.3,-8.4,4.9,-15.2,4.9Z" class="g1_1" />
</g>

</svg>
