<?xml version="1.0" encoding="UTF-8" standalone="no"?>
<!-- Created with Inkscape (http://www.inkscape.org/) -->
<!DOCTYPE svg PUBLIC "-//W3C//DTD SVG 1.1//EN" "http://www.w3.org/Graphics/SVG/1.1/DTD/svg11.dtd">
<svg
   xmlns:svg="http://www.w3.org/2000/svg"
   xmlns="http://www.w3.org/2000/svg"
   version="1.1"
   width="400"
   height="130"
   id="svg15504"
   xml:space="preserve"><defs
     id="defs15508"><clipPath
       id="clipPath15616"><path
         d="m 166.859,314.73 c -4.129,-3.082 -8.129,-5.429 -11.996,-7.05 -3.871,-1.641 -8.414,-2.45 -13.64,-2.45 -2.516,0 -7.114,0.192 -13.778,0.559 l -4.507,0.231 2.921,6.621 c 8.223,-0.621 12.692,-0.93 13.418,-0.93 4.551,0 9.5,1.988 14.821,6 l 2.59,1.969 -34.36,43.691 16.578,0 28.477,-36.223 47.211,36.223 17.16,0 -64.895,-48.641 z m 179.258,27.321 c -2.07,-2.449 -4.679,-4.461 -7.824,-6.051 -3.152,-1.609 -6.359,-2.801 -9.594,-3.609 -3.23,-0.801 -6.691,-1.391 -10.379,-1.789 -7.871,-0.872 -15.808,-1.293 -23.851,-1.293 l -30.719,0 -10.41,-23.297 -16.406,0 25.609,57.359 51.297,0 c 8.89,0 15.547,-0.48 20,-1.441 4.437,-0.942 8.109,-2.571 11.015,-4.891 2.911,-2.289 4.356,-4.891 4.356,-7.75 0,-2.379 -1.023,-4.777 -3.094,-7.238 z m -15.316,11.66 c -1.571,1.187 -3.789,2.07 -6.637,2.629 -2.851,0.558 -8.324,0.851 -16.437,0.851 l -31.539,0 -9.547,-21.421 27.089,0 c 10.524,0 18.239,0.539 23.161,1.589 4.906,1.051 8.847,2.672 11.808,4.84 2.965,2.172 4.442,4.461 4.442,6.903 0,1.886 -0.778,3.418 -2.34,4.609 z m 106.578,-47.699 -5.891,16.547 -49.718,0 -19.625,-16.547 -18.223,0 69.246,57.359 19.812,0 20.297,-57.359 -15.898,0 z m -12.524,36.808 c -2,5.711 -3.234,10.469 -3.718,14.27 -2.809,-3.281 -6.918,-7.168 -12.309,-11.66 l -19.898,-16.969 40.488,0 -4.563,14.359 z m 151.489,-36.808 -16.406,0 22.691,50.867 -47.453,0 -14.238,-31.5 c -3.715,-8.258 -7.731,-13.66 -12.055,-16.207 -4.328,-2.563 -11.262,-3.832 -20.809,-3.832 -2.41,0 -5.996,0.199 -10.804,0.609 l 2.933,6.481 c 4.684,-0.41 7.508,-0.621 8.453,-0.621 3.352,0 6.254,0.832 8.75,2.543 2.489,1.687 4.922,5.168 7.321,10.468 l 17.16,38.551 80.027,0 -25.57,-57.359 z m 137.226,8.679 c -4.765,-3.203 -10.609,-5.441 -17.531,-6.73 -6.906,-1.301 -18.066,-1.949 -33.473,-1.949 l -41.918,0 25.614,57.359 16.41,0 -10.91,-24.449 24.918,0 c 12.308,0 21.008,-0.422 26.093,-1.274 5.094,-0.847 9.344,-2.347 12.793,-4.507 3.434,-2.141 5.161,-4.813 5.161,-7.993 0,-3.796 -2.375,-7.289 -7.157,-10.457 z m -12.539,14.68 c -2.152,1.238 -5.093,2.07 -8.804,2.481 -3.707,0.386 -9.622,0.597 -17.715,0.597 l -25.711,0 -8.852,-19.98 14.383,0 c 14.438,0 24.731,0.383 30.902,1.152 6.153,0.777 10.86,2.231 14.121,4.359 3.262,2.122 4.891,4.399 4.891,6.821 0,1.808 -1.07,3.32 -3.215,4.57 z m 143.266,16.207 c -1.645,4.152 -4.996,7.242 -10.043,9.293 -5.035,2.039 -11.527,3.07 -19.496,3.07 -14.977,0 -27.106,-3.109 -36.352,-9.32 -8.011,-5.359 -12.011,-11.73 -12.011,-19.09 0,-5.89 3.093,-10.359 9.273,-13.48 6.187,-3.082 14.238,-4.621 24.168,-4.621 8.465,0 16.125,1.281 22.977,3.851 6.859,2.559 11.855,6.188 14.976,10.891 l 16.266,-1.051 c -5.133,-6.601 -12.594,-11.609 -22.41,-14.992 -9.813,-3.391 -20.821,-5.07 -33.028,-5.07 -14.89,0 -26.691,2.113 -35.414,6.371 -8.723,4.23 -13.09,10.332 -13.09,18.25 0,10.32 6.625,18.859 19.887,25.601 11.797,6.02 26.477,9.039 44.02,9.039 12.972,0 23.484,-1.629 31.539,-4.91 8.039,-3.262 12.707,-7.648 13.984,-13.172 l -15.246,-0.66 z m 143.676,11.481 c -0.571,0 -1.606,0.043 -3.106,0.113 -2.285,0.129 -3.832,0.199 -4.609,0.199 -2.91,0 -5.473,-0.512 -7.699,-1.531 -2.286,-1.008 -5.164,-2.879 -8.621,-5.621 -6.786,-5.379 -12.215,-9.047 -16.325,-11.02 -4.117,-1.961 -8.996,-3.258 -14.652,-3.879 8.277,-1.5 15.656,-5.929 22.105,-13.281 l 13.989,-16.027 -18,0 -11.7,13.386 c -4.648,5.313 -8.847,8.872 -12.593,10.661 -3.758,1.769 -9.063,2.73 -15.926,2.863 l -12.027,-26.91 -16.407,0 25.61,57.359 16.414,0 -11.223,-25.312 c 5.094,0 9.262,0.32 12.481,0.961 3.222,0.64 6.613,1.902 10.183,3.808 3.563,1.91 7.235,4.383 11.02,7.422 5.984,4.941 10.324,8.102 13.051,9.488 2.691,1.391 5.98,2.41 9.835,3.051 3.86,0.641 7.649,0.949 11.395,0.949 0.508,0 3.711,-0.097 9.645,-0.308 l -2.84,-6.371 z m 133.397,6.312 -25.63,-57.359 -15.53,0 19.56,43.777 -83.59,-43.777 -15.7,0 25.61,57.359 15.64,0 -19.44,-44.051 83.77,44.051 15.31,0 z m 130.75,-6.492 -72.64,0 -8.04,-17.957 71,0 -2.84,-6.473 -71.04,0 -8.93,-19.98 77.38,0 -2.93,-6.457 -93.74,0 25.63,57.359 88.87,0 -2.72,-6.492 z m 166.77,-50.867 -5.89,16.547 -49.73,0 -19.63,-16.547 -18.22,0 69.24,57.359 19.82,0 20.29,-57.359 -15.88,0 z m -12.54,36.808 c -2,5.711 -3.23,10.469 -3.72,14.27 -2.81,-3.281 -6.9,-7.168 -12.31,-11.66 l -19.9,-16.969 40.5,0 -4.57,14.359 z m 162.85,-1.41 c -3.73,-2.422 -9.43,-4.23 -17.11,-5.488 6.66,-1.031 11.62,-2.563 14.91,-4.602 3.29,-2.039 4.94,-4.449 4.94,-7.179 0,-3.141 -1.97,-6.18 -5.93,-9.071 -3.96,-2.89 -9.2,-5.121 -15.73,-6.711 -6.51,-1.57 -13.8,-2.347 -21.82,-2.347 l -60.66,0 25.64,57.359 39.08,0 c 7.12,0 12.4,-0.133 15.84,-0.383 5.62,-0.457 10.38,-1.218 14.24,-2.347 3.87,-1.102 6.88,-2.61 9.01,-4.532 2.12,-1.91 3.18,-4.039 3.18,-6.359 0,-3.172 -1.86,-5.949 -5.59,-8.34 z m -82.1,-28.941 28.89,0 c 7.67,0 12.83,0.121 15.48,0.351 5.37,0.418 9.72,1.129 13.07,2.129 3.35,1.012 5.97,2.34 7.87,3.992 1.9,1.649 2.85,3.368 2.85,5.168 0,2.7 -1.83,4.743 -5.52,6.141 -3.67,1.391 -10.78,2.102 -21.3,2.102 l -32.45,0 -8.89,-19.883 z m 69.9,41.051 c -1.68,1.171 -3.95,2.039 -6.78,2.57 -2.83,0.531 -8.15,0.789 -15.96,0.789 l -27.29,0 -8.08,-18.059 26.01,0 c 12.42,0 21.31,0.899 26.64,2.68 5.34,1.789 8,4.379 8,7.801 0,1.621 -0.85,3.019 -2.54,4.219 z m 162.87,9.851 -25.63,-57.359 -15.53,0 19.56,43.777 -83.59,-43.777 -15.72,0 25.62,57.359 15.65,0 -19.45,-44.051 83.79,44.051 15.3,0 z m 101.41,-57.359 -5.88,16.547 -49.73,0 -19.63,-16.547 -18.22,0 69.24,57.359 19.82,0 20.3,-57.359 -15.9,0 z m -12.53,36.808 c -1.99,5.711 -3.22,10.469 -3.71,14.27 -2.8,-3.281 -6.91,-7.168 -12.31,-11.66 l -19.89,-16.969 40.49,0 -4.58,14.359 z m 151.5,-36.808 -16.41,0 22.69,50.867 -47.45,0 -14.24,-31.5 c -3.72,-8.258 -7.73,-13.66 -12.06,-16.207 -4.32,-2.563 -11.26,-3.832 -20.8,-3.832 -2.41,0 -6,0.199 -10.8,0.609 l 2.93,6.481 c 4.68,-0.41 7.5,-0.621 8.45,-0.621 3.35,0 6.26,0.832 8.74,2.543 2.48,1.687 4.94,5.168 7.33,10.468 l 17.16,38.551 80.03,0 -25.57,-57.359 z m 165.19,57.359 -25.62,-57.359 -15.54,0 19.56,43.777 -83.57,-43.777 -15.72,0 25.62,57.359 15.65,0 -19.46,-44.051 83.79,44.051 15.29,0 z m 115.72,-57.359 -16.4,0 12.08,27.008 -63.95,0 -12.07,-27.008 -16.41,0 25.63,57.359 16.41,0 -10.67,-23.883 63.95,0 10.66,23.883 16.43,0 -25.66,-57.359 z m 164.77,57.359 -25.63,-57.359 -15.52,0 19.55,43.777 -83.59,-43.777 -15.7,0 25.61,57.359 15.65,0 -19.46,-44.051 83.79,44.051 15.3,0 z m 139.65,0 -25.62,-57.359 -15.54,0 19.55,43.777 -83.57,-43.777 -15.71,0 25.61,57.359 15.66,0 -19.46,-44.051 83.77,44.051 15.31,0"
         id="path15618" /></clipPath><clipPath
       id="clipPath15622"><path
         d="M 0,1440 0,0 l 4320,0 0,1440"
         id="path15624" /></clipPath></defs><g
     transform="matrix(1.25,0,0,-1.25,0,130)"
     id="g15514"><g
       transform="matrix(0.73632494,0,0,0.73632494,-1.0073149,-1.2579153)"
       id="g16179"><path
         d="M 67.1406,15.184 C 66.4258,12.575 64.8402,10.5609 62.3824,9.13789 59.9246,7.71406 56.7168,7.00313 52.7574,7.00313 c -3.9609,0 -6.8472,0.70468 -8.6597,2.11601 -1.8122,1.41096 -2.3582,3.41876 -1.645,6.02696 l 3.2325,11.8019 5.339,0 -3.4289,-12.5171 c -0.4512,-1.652 -0.125,-2.8118 0.9867,-3.4809 1.1078,-0.6699 2.7797,-1.00391 5.0149,-1.00391 2.1472,0 3.9027,0.33401 5.2683,1.00391 1.3672,0.6691 2.2778,1.8289 2.7305,3.4809 l 3.4277,12.5171 5.3395,0 -3.2223,-11.764 z m 30.4922,5.7332 C 97.0953,18.9531 95.643,17.457 93.2777,16.4289 92.0863,15.8781 90.7395,15.484 89.2418,15.2441 l 4.7137,-8.18512 -5.6938,0 -4.5722,7.84612 -6.3297,0 -2.1485,-7.84612 -5.339,0 5.4468,19.88902 12.6985,0 c 3.4062,0.0731 5.9836,-0.43 7.7289,-1.507 1.7445,-1.0781 2.3726,-2.5859 1.8863,-4.5238 z m -10.0293,3.0887 -7.7504,0 -1.6875,-6.1571 7.7504,0 c 3.6051,0 5.7223,0.9891 6.352,2.9703 0.4933,2.1239 -1.061,3.1868 -4.6645,3.1868 z m 31.3125,-16.94692 -0.89,3.65002 -13.481,0 -2.825,-3.65002 -5.7962,0 16.0642,19.88902 7.489,0 5.171,-19.88902 -5.732,0 z m -4.099,16.90582 -7.654,-9.8757 10.029,0 -2.375,9.8757 z m 33.475,-13.9636 -0.806,-2.94222 -20.385,0 5.447,19.88902 5.34,0 -4.642,-16.9468 15.046,0 z m 30.916,-2.94222 -0.899,3.65002 -13.557,0 -2.833,-3.65002 -5.827,0 16.15,19.99882 7.532,0 5.196,-19.99882 -5.762,0 z m -4.134,16.95002 -7.692,-9.9199 10.085,0 -2.393,9.9199 z m 17.642,-16.95002 -5.339,0 5.478,19.99882 5.338,0 -5.477,-19.99882 z m 33.292,13.93322 c -0.54,-1.9723 -2.001,-3.4774 -4.379,-4.5113 -1.2,-0.5539 -2.552,-0.952 -4.058,-1.1911 l 4.74,-8.23082 -5.696,0 -4.633,7.84612 -6.386,0 -2.15,-7.84612 -5.338,0 5.477,19.99882 12.761,0 c 3.424,0.0711 6.011,-0.434 7.766,-1.5156 1.753,-1.0844 2.385,-2.6 1.896,-4.55 z m -10.069,3.1226 -7.821,0 -1.716,-6.266 7.821,0 c 3.634,0 5.772,1.0071 6.413,3.0242 0.504,2.1598 -1.062,3.2418 -4.697,3.2418 z m 32.365,-14.1136 -0.806,-2.94222 -20.468,0 5.478,19.99882 5.338,0 -4.672,-17.0566 15.13,0 z m 7.818,-2.94222 -5.34,0 5.479,19.99882 5.338,0 -5.477,-19.99882 z m 30.424,0 -6.184,0 -9.673,14.87382 -4.074,-14.87382 -5.338,0 5.477,19.99882 6.708,0 9.317,-14.2598 3.906,14.2598 5.339,0 -5.478,-19.99882 z m 28.962,16.69612 -13.949,0 -1.462,-4.6199 12.719,0 -0.805,-3.543 -12.72,0 -1.597,-5.232 13.95,0 -0.807,-3.30122 -19.547,0 5.479,19.99882 19.546,0 -0.807,-3.3027 z m 23.205,-1.3492 c 0,0 -2.025,0.8011 -3.167,1.0203 -1.145,0.2199 -2.636,0.3289 -4.474,0.3289 -1.531,0 -2.914,-0.134 -4.146,-0.3981 -1.234,-0.264 -1.875,-1.4429 -1.875,-1.4429 0,0 -0.224,-0.4641 0.206,-0.8121 0.428,-0.3508 1.035,-0.6872 1.821,-1.0129 0.784,-0.325 1.679,-0.6442 2.687,-0.9559 1.006,-0.3141 2.028,-0.65 3.068,-1.0113 2.036,-0.6981 3.654,-1.4918 4.853,-2.3828 1.198,-0.8903 1.649,-1.8782 1.353,-2.9602 -0.58,-2.118 -2.041,-3.6289 -4.384,-4.53085 -2.342,-0.90313 -5.258,-1.35313 -8.746,-1.35313 -1.964,0 -3.785,0.1211 -5.464,0.35899 -1.68,0.24101 -3.273,0.63906 -4.779,1.19101 L 318.308,11.8 c 1.006,-0.473 2.204,-0.859 3.588,-1.1559 1.382,-0.298 2.948,-0.4472 4.698,-0.4472 2.012,0 3.63,0.2359 4.851,0.7051 1.223,0.471 1.993,1.5062 1.993,1.5062 0,0 0.04,1.3207 -0.988,1.7898 -1.03,0.4711 -2.386,0.984 -4.069,1.5379 -0.92,0.3141 -1.961,0.6211 -3.124,0.9219 -1.164,0.3024 -2.221,0.6621 -3.177,1.0852 -0.956,0.423 -1.708,1.3082 -2.258,1.9351 -0.549,0.627 -0.687,1.4348 -0.417,2.425 0.423,1.543 1.775,2.7719 4.056,3.6879 2.282,0.9168 5.126,1.3762 8.532,1.3762 1.834,0 3.541,-0.1031 5.124,-0.307 1.58,-0.2043 2.89,-0.559 3.931,-1.0641 l -2.335,-3.3902"
         id="path15536"
         style="fill:#205ba5;fill-opacity:1" /><path
         d="m 425.094,52.173 c 0,0 -163.994,-42.33706 -167.978,7.2481 0.157,26.9816 45.713,46.9879 45.713,46.9879 10e-4,0 -23.525,-27.7379 -14.482,-41.5945 C 305.857,42.1379 425.094,52.173 425.094,52.173"
         id="path15564"
         style="fill:#205ba5;fill-opacity:1" /><path
         d="m 257.678,29.2148 c 0,0 68.77,116.1322 123.336,108.1562 25.435,-5.616 2.972,-66.012 2.972,-66.012 0,0 -2.403,43.303 -26.12,35.517 C 316.485,97.8148 257.678,29.2148 257.678,29.2148"
         id="path15582"
         style="fill:#98bfe8;fill-opacity:1" /><path
         d="m 282.438,122.914 c 0.001,0 130.347,-50.8613 130.785,-95.8761 C 412.214,4.84219 346.785,8.14883 346.785,8.14883 c 0,0 41.842,8.41837 30.308,33.11137 -15.077,31.0003 -94.655,81.6538 -94.655,81.6538"
         id="path15600"
         style="fill:#c5001e;fill-opacity:1" /><g
         transform="scale(0.1,0.1)"
         clip-path="url(#clipPath15616)"
         id="g15614"><g
           clip-path="url(#clipPath15622)"
           id="g15620"><g
             transform="matrix(4321,0,0,1441,-0.50025,-0.500218)"
             id="g15626" /></g></g><path
         d="m 16.6859,31.473 c -0.4129,-0.3082 -0.8129,-0.5429 -1.1996,-0.705 -0.3871,-0.1641 -0.8414,-0.245 -1.364,-0.245 -0.2516,0 -0.7114,0.0192 -1.3778,0.0559 l -0.4507,0.0231 0.2921,0.6621 c 0.8223,-0.0621 1.2692,-0.093 1.3418,-0.093 0.4551,0 0.95,0.1988 1.4821,0.6 l 0.259,0.1969 -3.436,4.3691 1.6578,0 2.8477,-3.6223 4.7211,3.6223 1.716,0 -6.4895,-4.8641 z m 17.9258,2.7321 C 34.4047,33.9602 34.1438,33.759 33.8293,33.6 33.5141,33.4391 33.1934,33.3199 32.8699,33.2391 32.5469,33.159 32.2008,33.1 31.832,33.0602 31.0449,32.973 30.2512,32.9309 29.4469,32.9309 l -3.0719,0 -1.041,-2.3297 -1.6406,0 2.5609,5.7359 5.1297,0 c 0.889,0 1.5547,-0.048 2,-0.1441 0.4437,-0.0942 0.8109,-0.2571 1.1015,-0.4891 0.2911,-0.2289 0.4356,-0.4891 0.4356,-0.775 0,-0.2379 -0.1023,-0.4777 -0.3094,-0.7238 z m -1.5316,1.166 c -0.1571,0.1187 -0.3789,0.207 -0.6637,0.2629 -0.2851,0.0558 -0.8324,0.0851 -1.6437,0.0851 l -3.1539,0 -0.9547,-2.1421 2.7089,0 c 1.0524,0 1.8239,0.0539 2.3161,0.1589 0.4906,0.1051 0.8847,0.2672 1.1808,0.484 0.2965,0.2172 0.4442,0.4461 0.4442,0.6903 0,0.1886 -0.0778,0.3418 -0.234,0.4609 z m 10.6578,-4.7699 -0.5891,1.6547 -4.9718,0 -1.9625,-1.6547 -1.8223,0 6.9246,5.7359 1.9812,0 2.0297,-5.7359 -1.5898,0 z m -1.2524,3.6808 c -0.2,0.5711 -0.3234,1.0469 -0.3718,1.427 -0.2809,-0.3281 -0.6918,-0.7168 -1.2309,-1.166 l -1.9898,-1.6969 4.0488,0 -0.4563,1.4359 z m 15.1489,-3.6808 -1.6406,0 2.2691,5.0867 -4.7453,0 -1.4238,-3.15 c -0.3715,-0.8258 -0.7731,-1.366 -1.2055,-1.6207 -0.4328,-0.2563 -1.1262,-0.3832 -2.0809,-0.3832 -0.241,0 -0.5996,0.0199 -1.0804,0.0609 l 0.2933,0.6481 c 0.4684,-0.041 0.7508,-0.0621 0.8453,-0.0621 0.3352,0 0.6254,0.0832 0.875,0.2543 0.2489,0.1687 0.4922,0.5168 0.7321,1.0468 l 1.716,3.8551 8.0027,0 -2.557,-5.7359 z M 71.357,31.4691 C 70.8805,31.1488 70.2961,30.925 69.6039,30.7961 68.9133,30.666 67.7973,30.6012 66.2566,30.6012 l -4.1918,0 2.5614,5.7359 1.641,0 -1.091,-2.4449 2.4918,0 c 1.2308,0 2.1008,-0.0422 2.6093,-0.1274 0.5094,-0.0847 0.9344,-0.2347 1.2793,-0.4507 0.3434,-0.2141 0.5161,-0.4813 0.5161,-0.7993 0,-0.3796 -0.2375,-0.7289 -0.7157,-1.0457 z m -1.2539,1.468 c -0.2152,0.1238 -0.5093,0.207 -0.8804,0.2481 -0.3707,0.0386 -0.9622,0.0597 -1.7715,0.0597 l -2.5711,0 -0.8852,-1.998 1.4383,0 c 1.4438,0 2.4731,0.0383 3.0902,0.1152 0.6153,0.0777 1.086,0.2231 1.4121,0.4359 0.3262,0.2122 0.4891,0.4399 0.4891,0.6821 0,0.1808 -0.107,0.332 -0.3215,0.457 z m 14.3266,1.6207 c -0.1645,0.4152 -0.4996,0.7242 -1.0043,0.9293 -0.5035,0.2039 -1.1527,0.307 -1.9496,0.307 -1.4977,0 -2.7106,-0.3109 -3.6352,-0.932 -0.8011,-0.5359 -1.2011,-1.173 -1.2011,-1.909 0,-0.589 0.3093,-1.0359 0.9273,-1.348 0.6187,-0.3082 1.4238,-0.4621 2.4168,-0.4621 0.8465,0 1.6125,0.1281 2.2977,0.3851 0.6859,0.2559 1.1855,0.6188 1.4976,1.0891 l 1.6266,-0.1051 c -0.5133,-0.6601 -1.2594,-1.1609 -2.241,-1.4992 -0.9813,-0.3391 -2.0821,-0.507 -3.3028,-0.507 -1.489,0 -2.6691,0.2113 -3.5414,0.6371 -0.8723,0.423 -1.309,1.0332 -1.309,1.825 0,1.032 0.6625,1.8859 1.9887,2.5601 1.1797,0.602 2.6477,0.9039 4.402,0.9039 1.2972,0 2.3484,-0.1629 3.1539,-0.491 0.8039,-0.3262 1.2707,-0.7648 1.3984,-1.3172 l -1.5246,-0.066 z m 14.367596,1.1481 c -0.05712,0 -0.1606,0.004 -0.3106,0.0113 -0.228496,0.0129 -0.383192,0.0199 -0.460896,0.0199 -0.291,0 -0.547296,-0.0512 -0.769896,-0.1531 -0.228608,-0.1008 -0.5164,-0.2879 -0.862104,-0.5621 -0.6786,-0.5379 -1.221504,-0.9047 -1.632496,-1.102 -0.411704,-0.1961 -0.899608,-0.3258 -1.4652,-0.3879 0.827696,-0.15 1.5656,-0.5929 2.210496,-1.3281 l 1.398904,-1.6027 -1.8,0 -1.17,1.3386 c -0.4648,0.5313 -0.884704,0.8872 -1.259304,1.0661 -0.3758,0.1769 -0.9063,0.273 -1.5926,0.2863 l -1.2027,-2.691 -1.6407,0 2.561,5.7359 1.6414,0 -1.1223,-2.5312 c 0.5094,0 0.926196,0.032 1.2481,0.0961 0.3222,0.064 0.661296,0.1902 1.018296,0.3808 0.356304,0.191 0.723504,0.4383 1.102,0.7422 0.598408,0.4941 1.0324,0.8102 1.305104,0.9488 0.269096,0.1391 0.598,0.241 0.983504,0.3051 0.385992,0.0641 0.764896,0.0949 1.139496,0.0949 0.0508,0 0.371096,-0.01 0.964504,-0.0308 l -0.284008,-0.6371 z m 13.339704,0.6312 -2.563,-5.7359 -1.553,0 1.956,4.3777 -8.359,-4.3777 -1.57,0 2.561,5.7359 1.564,0 -1.944,-4.4051 8.377,4.4051 1.531,0 z m 13.075,-0.6492 -7.264,0 -0.804,-1.7957 7.1,0 -0.284,-0.6473 -7.104,0 -0.893,-1.998 7.738,0 -0.293,-0.6457 -9.374,0 2.563,5.7359 8.887,0 -0.272,-0.6492 z m 16.677,-5.0867 -0.589,1.6547 -4.973,0 -1.963,-1.6547 -1.822,0 6.924,5.7359 1.982,0 2.029,-5.7359 -1.588,0 z m -1.254,3.6808 c -0.2,0.5711 -0.323,1.0469 -0.372,1.427 -0.281,-0.3281 -0.69,-0.7168 -1.231,-1.166 l -1.99,-1.6969 4.05,0 -0.457,1.4359 z m 16.285,-0.141 c -0.373,-0.2422 -0.943,-0.423 -1.711,-0.5488 0.666,-0.1031 1.162,-0.2563 1.491,-0.4602 0.329,-0.2039 0.494,-0.4449 0.494,-0.7179 0,-0.3141 -0.197,-0.618 -0.593,-0.9071 -0.396,-0.289 -0.92,-0.5121 -1.573,-0.6711 -0.651,-0.157 -1.38,-0.2347 -2.182,-0.2347 l -6.066,0 2.564,5.7359 3.908,0 c 0.712,0 1.24,-0.0133 1.584,-0.0383 0.562,-0.0457 1.038,-0.1218 1.424,-0.2347 0.387,-0.1102 0.688,-0.261 0.901,-0.4532 0.212,-0.191 0.318,-0.4039 0.318,-0.6359 0,-0.3172 -0.186,-0.5949 -0.559,-0.834 z m -8.21,-2.8941 2.889,0 c 0.767,0 1.283,0.0121 1.548,0.0351 0.537,0.0418 0.972,0.1129 1.307,0.2129 0.335,0.1012 0.597,0.234 0.787,0.3992 0.19,0.1649 0.285,0.3368 0.285,0.5168 0,0.27 -0.183,0.4743 -0.552,0.6141 -0.367,0.1391 -1.078,0.2102 -2.13,0.2102 l -3.245,0 -0.889,-1.9883 z m 6.99,4.1051 c -0.168,0.1171 -0.395,0.2039 -0.678,0.257 -0.283,0.0531 -0.815,0.0789 -1.596,0.0789 l -2.729,0 -0.808,-1.8059 2.601,0 c 1.242,0 2.131,0.0899 2.664,0.268 0.534,0.1789 0.8,0.4379 0.8,0.7801 0,0.1621 -0.085,0.3019 -0.254,0.4219 z m 16.287,0.9851 -2.563,-5.7359 -1.553,0 1.956,4.3777 -8.359,-4.3777 -1.572,0 2.562,5.7359 1.565,0 -1.945,-4.4051 8.379,4.4051 1.53,0 z m 10.141,-5.7359 -0.588,1.6547 -4.973,0 -1.963,-1.6547 -1.822,0 6.924,5.7359 1.982,0 2.03,-5.7359 -1.59,0 z m -1.253,3.6808 c -0.199,0.5711 -0.322,1.0469 -0.371,1.427 -0.28,-0.3281 -0.691,-0.7168 -1.231,-1.166 l -1.989,-1.6969 4.049,0 -0.458,1.4359 z m 15.15,-3.6808 -1.641,0 2.269,5.0867 -4.745,0 -1.424,-3.15 c -0.372,-0.8258 -0.773,-1.366 -1.206,-1.6207 -0.432,-0.2563 -1.126,-0.3832 -2.08,-0.3832 -0.241,0 -0.6,0.0199 -1.08,0.0609 l 0.293,0.6481 c 0.468,-0.041 0.75,-0.0621 0.845,-0.0621 0.335,0 0.626,0.0832 0.874,0.2543 0.248,0.1687 0.494,0.5168 0.733,1.0468 l 1.716,3.8551 8.003,0 -2.557,-5.7359 z m 16.519,5.7359 -2.562,-5.7359 -1.554,0 1.956,4.3777 -8.357,-4.3777 -1.572,0 2.562,5.7359 1.565,0 -1.946,-4.4051 8.379,4.4051 1.529,0 z m 11.572,-5.7359 -1.64,0 1.208,2.7008 -6.395,0 -1.207,-2.7008 -1.641,0 2.563,5.7359 1.641,0 -1.067,-2.3883 6.395,0 1.066,2.3883 1.643,0 -2.566,-5.7359 z m 16.477,5.7359 -2.563,-5.7359 -1.552,0 1.955,4.3777 -8.359,-4.3777 -1.57,0 2.561,5.7359 1.565,0 -1.946,-4.4051 8.379,4.4051 1.53,0 z m 13.965,0 -2.562,-5.7359 -1.554,0 1.955,4.3777 -8.357,-4.3777 -1.571,0 2.561,5.7359 1.566,0 -1.946,-4.4051 8.377,4.4051 1.531,0"
         id="path16076"
         style="fill:#578dce;fill-opacity:1" /><path
         d="m 503.15625,989 c -11.07449,0.51878 -24.38293,0.97202 -38.625,1.03125 2.57046,3.4314 4.71324,6.77149 6.34375,9.9375 13.38583,-2.30774 25.62044,-4.7476 35.5,-6.875 -1.01077,-1.36894 -2.08093,-2.72967 -3.21875,-4.09375 z"
         transform="matrix(0.8,0,0,-0.8,0,842)"
         id="path16164"
         style="fill:#9f021b;fill-opacity:1" /><path
         d="m 398,918.71875 c -2.21844,2.11577 -4.39355,4.26911 -6.5625,6.46875 5.32843,3.86545 10.83595,7.99785 16.5,12.34375 4.12166,-2.74047 8.24897,-5.2981 12.34375,-7.59375 -7.70179,-4.0502 -15.2201,-7.82276 -22.28125,-11.21875 z"
         transform="matrix(0.8,0,0,-0.8,0,842)"
         id="path16169"
         style="fill:#c10920;fill-opacity:1" /><path
         d="m 357.9375,963.96875 c -9.77562,12.66174 -18.05825,24.51564 -24.1875,33.71875 1.04679,0.67169 2.15335,1.30677 3.3125,1.90625 6.89181,-7.26596 15.70152,-16.167 25.78125,-25.5625 -0.92391,-0.80757 -1.72227,-1.6767 -2.40625,-2.5625 -1.46829,-2.24987 -2.25183,-4.77862 -2.5,-7.5 z"
         transform="matrix(0.8,0,0,-0.8,0,842)"
         id="path16174"
         style="fill:#578dce;fill-opacity:1" /></g></g></svg>