<svg id="レイヤー_1" xmlns="http://www.w3.org/2000/svg" viewBox="0 0 170 54.96"><style>.st0{fill:#d7001d}.st1{fill:#fff000}.st2{fill:none}</style><path class="st0" d="M40.86 36.85l.66-8.76.65 8.01c5.48-3.31 10.98-6.94 16.56-10.85l3.65-22.72c-4.06 5.4-8.08 10.34-12.07 14.85l6.49.56-7.33.67-.67 12.06-.63-10.91C33 36.42 18.38 46.99 4.11 53.66c11.83-3.58 23.34-8.92 34.95-15.71l-4.03-.45 5.83-.65zM9.16 53.52c9.08-1.27 20.38-4.07 32.28-7.77l-.56-6.81c-10.92 6.4-21.38 11.3-31.72 14.58zM44.07 37.04l3.96.46-5.82.66-.61 7.54c4.82-1.5 9.72-3.14 14.63-4.89l2.09-13.05c-4.85 3.35-9.6 6.45-14.25 9.28z"/><path class="st1" d="M47.13.42C33.37 28.71 13.69 44.45.01 53.67c14.91-6.02 30.91-17.62 46.89-35.18l-6.08-.55 7.33-.6.65-12.26.58 10.63c4.13-4.69 8.24-9.78 12.33-15.28H47.13V.42z"/><path class="st0" d="M17.38 53.36l36.9-.47 1.61-10.05c-15.16 5.29-29.45 9.28-38.51 10.52zM41.52 46.71l.08-1c-.06.02-.11.03-.16.05l.08.95zM129.72 5.1C124.27.27 117.47 0 113.6 0c-4.25 0-10.11.52-10.11.52-1.19.06-1.62.34-1.82 1.57l-3.64 23.57s-1.66 10.65-1.99 12.63c-.23 1.38.98 1.69 1.5 1.75.13.02 4.52.42 7.18.52 2.23.03 4.61.03 7.51-.48 4.99-.76 9.69-2.49 13.86-5.68 2.09-1.63 7.15-5.96 8.43-14.12 1.4-8.76-2.72-13.38-4.8-15.18zm-4.13 15.43c-.79 5-2.71 7.03-4.72 9-3.63 3.54-8.33 4.89-12.52 4.89h-2.66l4.65-28.92s.94-.02 2.18-.02c5.04 0 8.82 1.32 11.29 4.76.84 1.29 2.72 4.33 1.78 10.29zM95.31 5.75c1.18 0 1.41-.37 1.54-1.07.04-.14.56-3.46.56-3.56 0-.65-.45-.7-1.31-.7H73.41c-1.12.06-1.5.34-1.65 1.35L65.89 38.9c-.16 1.01.07 1.24 1.24 1.24h6.19c.98 0 1.46-.11 1.63-1.18l2.62-16.56h12.56c1.31 0 1.44-.45 1.58-1.3l.49-3.01c.15-.96-.3-1.01-1.28-1.01H78.4l1.79-11.33h15.12zM75.06 52.03c.29-.39.35-.77.41-1.08l.74-4.66c.03-.16-.04-.19-.21-.19h-.76c-.18 0-.23.03-.26.21l-.71 4.51c-.05.29-.22 1.28-1.52 1.28-1.32 0-1.21-.96-1.15-1.38l.7-4.44c.02-.18-.03-.19-.21-.19h-1.11c-.16 0-.22.02-.25.19l-.72 4.58c-.06.39-.08.81.06 1.16.31.81 1.3 1.09 2.35 1.09 1.86 0 2.51-.9 2.64-1.08zm7.68-5.92h-1.08c-.21 0-.24.07-.27.2l-1.02 6.43c-.03.17.06.21.22.21h1.05c.14 0 .25-.03.28-.21l1.01-6.43c.03-.17-.03-.2-.19-.2zm16.71.42c-.61-.46-1.59-.43-2.26-.43h-1.8c-.21.01-.28.06-.32.28l-1 6.37c-.04.18.06.2.21.2h.98c.22 0 .27-.05.3-.23l.9-5.7h.82c.52.01 1.28.11 1.11 1.18-.14.9-.88 1.14-1.57 1.21s-.23.86-.23.86l1.3 2.49c.08.16.11.19.34.19h1.14c.08 0 .23 0 .24-.14.01-.06-.02-.12-.06-.19l-1.66-2.85c.83-.22 1.88-.76 2.05-1.82.11-.53-.05-1.07-.49-1.42zm41.78 0c-.6-.46-1.59-.43-2.26-.43h-1.8c-.2.01-.28.06-.31.28l-1.01 6.37c-.02.18.06.2.22.2h.98c.22 0 .27-.05.3-.23l.9-5.7h.82c.52.01 1.28.11 1.11 1.18-.14.9-.88 1.14-1.57 1.21s-.22.86-.22.86l1.3 2.49c.09.16.11.19.34.19h1.14c.08 0 .23 0 .25-.14.01-.06-.03-.12-.06-.19l-1.66-2.85c.82-.22 1.88-.76 2.05-1.82.07-.53-.08-1.07-.52-1.42zm-19.39-.43h-1.1c-.21 0-.25.03-.37.22l-2.44 4.42-1.11-4.43c-.07-.18-.1-.21-.31-.21h-1.07c-.18 0-.24.05-.27.21l-1.01 6.43c-.03.17.01.22.2.22h.68c.16 0 .24-.04.27-.2l.74-4.66 1.11 4.68c.05.17.11.23.29.23.17 0 .21-.05.32-.21l2.59-4.69-.73 4.64c-.03.18 0 .22.21.22h.9c.21 0 .27-.02.31-.2l1.02-6.47c0-.17-.05-.2-.23-.2zm13.2.01h-1.07c-.2 0-.23.07-.27.2l-1.02 6.43c-.02.17.06.21.22.21h1.05c.15 0 .25-.03.28-.21l1.01-6.43c.04-.17-.03-.2-.2-.2zm11.79 5.93h-2.59l.9-5.74c.03-.16-.02-.2-.21-.2h-1.05c-.17 0-.24.03-.26.2l-1.02 6.46c-.02.18.05.19.19.19h3.87c.19 0 .24-.03.28-.19l.08-.53c.03-.15 0-.19-.19-.19zm3.64-5.93h-1.07c-.2 0-.24.07-.27.2l-1.01 6.43c-.03.17.06.21.22.21h1.05c.15 0 .25-.03.28-.21l1.02-6.43c.01-.17-.05-.2-.22-.2zm7.64 0h-.71c-.18 0-.24.05-.26.19l-.68 4.32-2.71-4.34c-.1-.15-.14-.17-.33-.17h-.86c-.15 0-.25.02-.28.2l-1.02 6.45c-.03.18.04.19.22.19h.71c.19 0 .23-.05.26-.21l.74-4.7 2.94 4.71c.1.15.13.18.26.2h.64c.17 0 .24-.03.27-.19l1.02-6.46c.02-.16-.02-.2-.21-.19zm11.65-.01h-1.42c-1.44 0-2.46.11-2.97 1.46-.4 1.07.24 1.84.78 2.17l1.55.83c.3.18.47.41.32.81-.17.49-.68.67-1.26.67h-1.9c-.19 0-.27.02-.29.21l-.08.52c-.04.18.07.18.23.18h1.7v.01c1.4 0 2.63-.17 3.13-1.55.42-1.17-.59-1.88-.95-2.09 0 0-1.36-.74-1.53-.84-.3-.18-.48-.41-.35-.84.17-.49.55-.62 1.13-.62h1.75c.19 0 .27-.02.29-.21l.08-.52c.06-.19-.05-.19-.21-.19zm-90.36 0h-1.06c-.19-.01-.24.07-.26.21l-.7 4.35s-.1.66-.2.99c-.23.75-.82 2.1-2.15 2.74 0 0-.29.11-.32.31-.01.09 0 .23.26.26.16.01.36-.01.7-.11 1.2-.37 1.95-1.06 2.4-1.73.69-1.12.87-2.5.87-2.5l.68-4.31c.03-.17-.02-.21-.22-.21zm-10.11.01h-3.98c-.19.01-.26.06-.28.23l-1.02 6.4c-.02.17.01.21.22.21h1.07c.17 0 .26-.02.28-.2l.45-2.86h2.16c.23 0 .25-.08.27-.22l.09-.52c.02-.16-.05-.17-.22-.17h-2.16l.31-1.96h2.6c.2 0 .24-.06.27-.18 0-.03.1-.6.1-.61.01-.1-.05-.12-.16-.12zm60.43.14c-.04-.13-.07-.15-.24-.15h-.66c-.18 0-.23.05-.31.18l-3.75 6.36a.81.81 0 0 0-.1.18c-.02.12.11.12.2.12h.74c.19 0 .23-.03.32-.18l2.72-4.93.58 2.5h-1.11c-.16 0-.23.07-.25.11-.01.01-.23.4-.3.53-.01.03-.12.23.2.23h1.68l.41 1.57c.06.17.1.17.29.17h1.14c.08 0 .19-.01.21-.12.01-.04 0-.08-.02-.13l-1.75-6.44zm-18.38 0c-.05-.13-.07-.15-.24-.15h-.66c-.18 0-.22.05-.3.18l-3.76 6.36-.1.18c-.01.12.12.12.2.12h.75c.19 0 .23-.03.33-.18l2.72-4.93.58 2.5h-1.12c-.17 0-.23.07-.25.11 0 .01-.22.4-.29.53-.02.03-.12.23.19.23h1.68l.42 1.57c.05.17.09.17.28.17h1.14c.08 0 .2-.01.21-.12.01-.04 0-.08-.02-.13l-1.76-6.44zm-18.87.65c-.94-.84-2.12-.88-2.79-.88-.73 0-1.74.09-1.74.09-.21.01-.29.06-.32.28 0 0-.91 5.92-.97 6.26-.04.24.17.29.26.3.02.01.79.07 1.24.09.39.01.8.01 1.3-.08.86-.13 1.67-.43 2.39-.98.36-.28 1.24-1.03 1.46-2.44.25-1.53-.46-2.33-.83-2.64zm-.71 2.67c-.14.87-.47 1.22-.82 1.56-.63.61-1.44.84-2.17.84h-.46l.81-5h.38c.88 0 1.53.23 1.95.82.15.22.47.75.31 1.78zM169.52 38.63L159.43 1.28c-.28-.73-.45-.85-1.44-.85h-3.8c-1.05 0-1.29.28-1.74 1.07 0 0-22.21 37.66-22.22 37.69-.31.53-.06.96 1 .96h4.32c1.11 0 1.33-.17 1.87-1.07L153.2 10.5l3.33 14.47h-6.46c-.96 0-1.32.43-1.43.64-.04.07-1.3 2.32-1.71 3.09-.11.2-.73 1.33 1.11 1.33h9.72l2.38 9.11c.31.96.56 1.01 1.67 1.01h6.62c.86 0 1.43-.26 1.09-1.52zM106.14 46.11h-3.94c-.2.01-.28.06-.31.28l-1.01 6.35c-.03.2.04.22.23.22h3.94c.19 0 .24-.03.28-.12l.09-.6c.03-.18-.06-.19-.23-.19h-2.68l.34-2.14h2.25c.21 0 .24-.06.27-.18.01-.02.1-.56.1-.56.02-.16-.05-.17-.22-.17H103l.31-1.96H106c.19 0 .24-.03.28-.13l.09-.6c.03-.19-.06-.2-.23-.2zM164.14 46.11h-3.93c-.2.01-.28.06-.31.28l-1 6.35c-.04.2.05.22.23.22h3.93c.19 0 .24-.03.28-.12l.09-.6c.03-.18-.06-.19-.22-.19h-2.68l.34-2.14h2.26c.21 0 .25-.06.27-.18 0-.02.09-.56.09-.56.02-.16-.05-.17-.22-.17h-2.25l.31-1.96H164c.19 0 .24-.03.28-.13l.09-.6c.03-.19-.06-.2-.23-.2z"/><path class="st2" d="M0 .44h169.52V52.9H0z"/></svg>