<?xml version="1.0" encoding="utf-8"?>
<!-- Generator: Adobe Illustrator 20.1.0, SVG Export Plug-In . SVG Version: 6.00 Build 0)  -->
<svg version="1.1" xmlns="http://www.w3.org/2000/svg" xmlns:xlink="http://www.w3.org/1999/xlink" x="0px" y="0px"
	 width="184.9px" height="42.2px" viewBox="0 0 184.9 42.2" style="enable-background:new 0 0 184.9 42.2;" 
	 xml:space="preserve">
<style type="text/css">
	.st0{fill:#152649;}
</style>
<g>
	<path class="st0" d="M28.8,7.5V0.1h7.4v7.4H28.8z M28.8,41.6V10.4h7.4v31.2H28.8z"/>
	<path class="st0" d="M46.7,41.6h-7.4V10.4h7.2v5.8c2.3-3.4,5.6-6.4,10.1-6.4c0.8,0,1.3,0.1,1.7,0.2v7c-0.6-0.1-1.7-0.1-2.2-0.1
		c-3.4,0-9.5,3.2-9.5,9.4v15.3H46.7z"/>
	<path class="st0" d="M60.4,41.6V0.1h13.3c3.5,0,15.4,0,15.4,10.1c0,7-5.4,8.8-8.2,9.8c3.2,0.8,9.2,2.5,9.2,10.2
		c0,6.3-4.7,11.4-15.4,11.4H60.4z M68.2,17h5.5c7.1,0,7.7-4.2,7.7-5.6c0-5.2-5.4-5.2-7-5.2h-6.2V17z M68.2,35.5h4.9
		c5.2,0,8.9-1.7,8.9-6.2c0-2.9-1.6-6.3-8.4-6.3h-5.4V35.5z"/>
	<path class="st0" d="M111.1,41.6l-0.8-3.3c-1.8,1.6-4.8,4-9.4,4c-5.6,0-9.6-3.6-9.6-8.6c0-3.2,1.2-7,8-9.4l8.9-3
		c1.3-0.4,1.4-0.5,1.4-1.4v-1.3c0-2.6-2.4-3.4-5.3-3.4c-4.9,0-9.4,3-11.2,4.2v-6.5c2-1.1,5.8-3.3,12.3-3.3c9.7,0,11.6,4.9,11.6,10.8
		v21.1L111.1,41.6L111.1,41.6z M103,28.2c-3.1,1.1-4.2,2.6-4.2,4.8c0,3.1,2.7,3.8,4,3.8c1.2,0,3.8-0.4,6.8-3.5v-7.7
		c-0.4,0.3-0.6,0.4-1.9,0.9L103,28.2z"/>
	<path class="st0" d="M19.7,41.6l-0.8-3.3c-1.8,1.6-4.7,4-9.4,4c-5.6,0-9.5-3.6-9.5-8.6c0-3.2,1.1-7,8-9.4l9-3
		c1.3-0.4,1.4-0.5,1.4-1.4v-1.3c0-2.6-2.4-3.4-5.3-3.4c-4.9,0-9.4,3-11.2,4.2v-6.5c2-1.1,5.8-3.3,12.3-3.3c9.7,0,11.6,4.9,11.6,10.8
		v21.1L19.7,41.6L19.7,41.6z M11.7,28.2c-3.1,1.1-4.2,2.6-4.2,4.8c0,3.1,2.7,3.8,4,3.8c1.2,0,3.8-0.4,6.8-3.5v-7.7
		c-0.4,0.3-0.6,0.4-1.9,0.9L11.7,28.2z"/>
	<path class="st0" d="M120.1,41.6V0.1h7.4v41.5H120.1z"/>
	<path class="st0" d="M133.8,16h-4.5v-5.7h4.5V0h7.4v10.3h5.6V16h-5.6v15.8c0,2.3,0.3,4.4,3.7,4.4c0.9,0,1.6-0.1,2.2-0.2v5.6
		c-1,0.1-2,0.2-3.5,0.2c-8.3,0-9.8-4.1-9.8-9.6L133.8,16L133.8,16z"/>
	<path class="st0" d="M149.7,7.5V0h7.4v7.5H149.7z M149.7,41.6V10.4h7.4v31.2H149.7z"/>
	<path class="st0" d="M184.2,18.8c-1.5-1.3-3.9-3.2-8.1-3.2c-6.4,0-9,5.3-9,10.4c0,2.2,0.6,10.4,8.8,10.4c4.3,0,7-1.9,9-3.3v6.6
		c-1.5,0.8-4.9,2.5-10.2,2.5c-10.6,0-15.1-8-15.1-16.3c0-8.6,4.9-16.3,15.4-16.3c5.1,0,7.9,1.6,9.2,2.3L184.2,18.8L184.2,18.8z"/>
</g>
</svg>
