<?xml version="1.0" encoding="utf-8"?>
<!-- Generator: Adobe Illustrator 15.0.2, SVG Export Plug-In . SVG Version: 6.00 Build 0)  -->
<!DOCTYPE svg PUBLIC "-//W3C//DTD SVG 1.1//EN" "http://www.w3.org/Graphics/SVG/1.1/DTD/svg11.dtd">
<svg version="1.1" id="Layer_1" xmlns="http://www.w3.org/2000/svg" xmlns:xlink="http://www.w3.org/1999/xlink" x="0px" y="0px"
	 width="150px" height="34.795px" viewBox="0 0 150 34.795" enable-background="new 0 0 150 34.795" xml:space="preserve">
<g id="_x23_e60005ff">
	<path fill="#E60005" d="M27.869,0.046H46.63c-2.9,11.588-5.689,23.209-8.598,34.795H0v-0.362l0.003,0.354
		C9.267,23.218,18.564,11.628,27.869,0.046 M25.765,6.751c0.004,2.492-0.006,4.987,0.006,7.48c-2.483,0.006-4.967-0.006-7.451,0.006
		c0.013,2.139,0.013,4.275,0,6.413c2.484,0.013,4.968,0,7.451,0.007c-0.012,2.492-0.002,4.988-0.006,7.48
		c2.157,0.012,4.311,0.006,6.467,0.003c-0.012-2.495,0-4.991-0.006-7.486c2.493,0,4.985,0.003,7.479,0
		c-0.004-2.139-0.004-4.28,0-6.422c-2.493,0-4.985,0-7.479,0.003c0.006-2.496-0.006-4.991,0.006-7.486
		C30.076,6.744,27.921,6.737,25.765,6.751z"/>
	<path fill="#E60005" d="M52.761,7.818c1.969-1.71,4.707-2.157,7.232-2.073c2.334,0.102,4.871,0.705,6.461,2.543
		c0.98,1.077,1.32,2.541,1.431,3.954c-1.836,0.015-3.668,0.009-5.504,0.003c-0.099-1.011-0.621-2.061-1.659-2.369
		c-1.353-0.385-3.177-0.328-4.037,0.959c-0.627,1.053,0.035,2.379,1.079,2.854c2.931,1.494,6.558,1.755,8.962,4.193
		c2.316,2.696,1.836,7.346-1.008,9.504c-2.02,1.6-4.727,1.963-7.227,1.824c-2.352-0.149-4.864-0.766-6.529-2.547
		c-1.137-1.191-1.602-2.861-1.578-4.48c1.83-0.004,3.663,0,5.492,0c0.141,0.744,0.309,1.542,0.882,2.085
		c0.906,0.936,2.325,1.063,3.545,0.882c1.233-0.201,2.31-1.335,2.202-2.625c-0.033-0.882-0.747-1.535-1.479-1.92
		c-2.512-1.337-5.553-1.48-7.869-3.227C50.15,15.227,49.939,10.212,52.761,7.818z"/>
	<path fill="#E60005" d="M114.566,7.839c1.885-1.662,4.506-2.127,6.943-2.108c2.357,0.075,4.93,0.585,6.615,2.373
		c1.082,1.089,1.502,2.637,1.596,4.134c-1.84,0.021-3.676,0.023-5.514,0c-0.104-0.951-0.537-1.965-1.506-2.301
		c-1.221-0.42-2.748-0.411-3.789,0.438c-0.83,0.682-0.816,2.043-0.09,2.795c0.771,0.793,1.879,1.084,2.896,1.407
		c2.088,0.642,4.275,1.212,6.059,2.535c3.109,2.271,3.088,7.421,0.266,9.917c-1.992,1.826-4.838,2.307-7.451,2.198
		c-2.438-0.126-5.086-0.718-6.803-2.593c-1.137-1.179-1.58-2.847-1.584-4.45c1.836-0.003,3.676,0,5.512-0.003
		c0.158,0.731,0.287,1.525,0.859,2.061c1.057,1.08,2.791,1.186,4.154,0.741c1.488-0.511,2.23-2.654,0.98-3.783
		c-1.221-1.05-2.85-1.405-4.34-1.901c-2.064-0.6-4.283-1.354-5.609-3.16C112.002,13.679,112.242,9.866,114.566,7.839z"/>
	<path fill="#E60005" d="M134.551,7.728c2.24-1.817,5.307-2.184,8.096-1.905c2.133,0.198,4.387,0.966,5.729,2.729
		c0.838,1.045,1.119,2.392,1.219,3.689c-1.828,0.018-3.654-0.003-5.48,0.012c-0.184-0.666-0.293-1.425-0.867-1.884
		c-1.025-0.852-2.543-0.846-3.752-0.438c-0.98,0.322-1.596,1.438-1.266,2.437c0.326,1.054,1.418,1.56,2.381,1.896
		c2.379,0.805,4.941,1.312,7.006,2.826c3.143,2.256,3.121,7.463,0.277,9.957c-1.932,1.761-4.674,2.256-7.209,2.188
		c-2.4-0.099-4.982-0.604-6.777-2.321c-1.295-1.203-1.863-3-1.838-4.732c1.832,0.003,3.664,0.003,5.494,0
		c0.145,1.173,0.76,2.359,1.932,2.773c1.404,0.465,3.281,0.438,4.242-0.863c0.785-0.967,0.566-2.531-0.52-3.183
		c-2.643-1.704-6.107-1.653-8.574-3.705C131.787,14.944,131.729,10.04,134.551,7.728z"/>
	<path fill="#E60005" d="M68.603,6.265c1.893-0.004,3.785,0.006,5.678-0.006c1.252,4.957,2.506,9.916,3.713,14.887
		c1.469-4.955,2.885-9.926,4.35-14.885c1.867,0.004,3.736,0.004,5.605,0.004c1.479,4.939,2.828,9.922,4.383,14.841
		c1.146-4.961,2.451-9.886,3.65-14.835c1.896-0.01,3.801-0.01,5.697-0.003c-2.062,7.438-4.098,14.883-6.182,22.313
		c-1.982-0.003-3.963-0.007-5.945,0c-1.486-5.074-2.961-10.156-4.391-15.25c-1.518,5.069-2.932,10.172-4.426,15.247
		c-1.977,0.003-3.955-0.013-5.933,0.009C72.669,21.167,70.708,13.693,68.603,6.265z"/>
	<path fill="#E60005" d="M103.9,28.581c-0.021-7.438-0.002-14.878-0.008-22.316c1.928,0,3.859,0,5.791,0
		c-0.006,7.438,0.012,14.877-0.01,22.313C107.75,28.578,105.824,28.574,103.9,28.581z"/>
</g>
<g id="_x23_ffffffff">
	<path fill="#FFFFFF" d="M25.765,6.751c2.157-0.013,4.311-0.007,6.467-0.004c-0.012,2.496,0,4.991-0.006,7.487
		c2.493-0.003,4.985-0.003,7.479-0.003c-0.004,2.143-0.004,4.284,0,6.422c-2.493,0.003-4.985,0-7.479,0
		c0.006,2.495-0.006,4.991,0.006,7.486c-2.156,0.003-4.311,0.009-6.467-0.004c0.004-2.491-0.006-4.987,0.006-7.479
		c-2.483-0.007-4.967,0.006-7.451-0.007c0.013-2.139,0.013-4.273,0-6.413c2.484-0.012,4.968,0,7.451-0.006
		C25.759,11.738,25.769,9.242,25.765,6.751z"/>
</g>
</svg>
