<?xml version="1.0" encoding="utf-8"?>
<!-- Generator: Adobe Illustrator 15.0.0, SVG Export Plug-In . SVG Version: 6.00 Build 0)  -->
<!DOCTYPE svg PUBLIC "-//W3C//DTD SVG 1.1//EN" "http://www.w3.org/Graphics/SVG/1.1/DTD/svg11.dtd">
<svg version="1.1" id="Layer_2" xmlns="http://www.w3.org/2000/svg" xmlns:xlink="http://www.w3.org/1999/xlink" x="0px" y="0px"
	 width="349.31px" height="53.047px" viewBox="0 0 349.31 53.047" enable-background="new 0 0 349.31 53.047" xml:space="preserve">
<g>
	<g>
		<path fill="#DD052B" d="M43.593,28.608c12.5-0.441,20.092-5.741,20.092-11.975c0-6.648-8.273-12.036-22.364-12.036h-2.023
			l4.147-3.955l-6.161,0.023L27.118,4.597h-16.19C5.24,4.597,2.08,5.991,0.816,8.71h33.276c9.176,0,15.342,1.391,15.342,7.719
			c0,6.818-7.414,8.147-15.342,8.147H19.147l13.252,14.225C43.613,50.613,54.128,52.71,67.181,52.71L43.593,28.608z"/>
		<path fill="#DD052B" d="M151.048,40.161c-6.114,0-10.351-4.476-10.351-11.568c0-7.046,4.237-11.665,10.351-11.665
			c6.163,0,10.352,4.619,10.352,11.665C161.4,35.639,157.21,40.161,151.048,40.161 M151.048,13.976
			c-11.41,0-18.969,5.951-18.969,14.617c0,8.665,7.559,14.52,18.969,14.52c11.411,0,18.971-5.854,18.971-14.52
			C170.018,19.927,162.459,13.976,151.048,13.976"/>
		<path fill="#DD052B" d="M99.291,17.548c1.926-0.246,4.455-0.478,7.174-0.478c5.007,0,8.041,2,8.041,6.189
			c0,4.285-3.034,6.665-8.041,6.665h-7.174V17.548z M123.123,23.308c0-6.857-6.45-9.188-15.792-9.188
			c-4.863,0-9.243,0.559-15.743,0.75v0.06v17.853v9.617h7.703v-9.617h8.04c0.052,0,0.101-0.003,0.153-0.003l2.688,3.245
			c4.526,5.428,7.992,6.903,15.022,6.903h0.963L115.9,31.806C120.503,30.509,123.123,27.837,123.123,23.308"/>
	</g>
	<rect x="259.954" y="14.691" fill="#DD052B" width="7.704" height="27.708"/>
	<polygon fill="#DD052B" points="306.897,14.69 296.316,29.223 285.855,14.69 276.804,14.69 290.285,32.877 290.285,42.398 
		297.988,42.398 297.988,32.877 311.325,14.69 	"/>
	<path fill="#DD052B" d="M320.425,31.782l6.876-13.41l6.802,13.41H320.425z M339.49,42.398h8.569l-14.25-27.708h-4.623h-3.756h-0.48
		l-14.203,27.708h4.237l3.782-7.379h16.98L339.49,42.398z"/>
	<path fill="#DD052B" d="M224.614,21.07c0-2.19,2.602-4.238,7.848-4.238c8.765,0,13.289,3.381,13.289,3.381l1.638-4.19
		c0,0-6.454-2.047-14.541-2.047c-9.821,0-15.214,3.047-15.214,8.856c0,12.711,24.314,6.617,24.314,13.425
		c0,2.285-2.841,3.689-8.859,3.689c-8.329,0-14.589-3.332-14.589-3.332v4.451c0,0,6.355,2.095,15.117,2.095
		c9.727,0,15.264-2.285,15.264-8.809C248.881,21.783,224.614,27.21,224.614,21.07"/>
	<path fill="#DD052B" d="M185.809,21.07c0-2.19,2.599-4.238,7.849-4.238c8.762,0,13.287,3.381,13.287,3.381l1.636-4.19
		c0,0-6.45-2.047-14.539-2.047c-9.822,0-15.214,3.047-15.214,8.856c0,12.711,24.313,6.617,24.313,13.425
		c0,2.285-2.84,3.689-8.857,3.689c-8.33,0-14.589-3.332-14.589-3.332v4.451c0,0,6.354,2.095,15.118,2.095
		c9.725,0,15.262-2.285,15.262-8.809C210.075,21.783,185.809,27.21,185.809,21.07"/>
</g>
</svg>
