<?xml version="1.0" encoding="UTF-8" standalone="no"?>
<!-- Created with Inkscape (http://www.inkscape.org/) -->
<svg
   xmlns:dc="http://purl.org/dc/elements/1.1/"
   xmlns:cc="http://web.resource.org/cc/"
   xmlns:rdf="http://www.w3.org/1999/02/22-rdf-syntax-ns#"
   xmlns:svg="http://www.w3.org/2000/svg"
   xmlns="http://www.w3.org/2000/svg"
   xmlns:xlink="http://www.w3.org/1999/xlink"
   xmlns:sodipodi="http://sodipodi.sourceforge.net/DTD/sodipodi-0.dtd"
   xmlns:inkscape="http://www.inkscape.org/namespaces/inkscape"
   width="637"
   height="173"
   id="svg2"
   sodipodi:version="0.32"
   inkscape:version="0.45.1"
   version="1.0">
  <g
     inkscape:label="Layer 1"
     inkscape:groupmode="layer"
     id="layer1"
     transform="translate(-273.56405,-446.68181)">
    <line
       style="fill:#00367b"
       x1="333.55997"
       y1="228.83772"
       x2="333.57797"
       y2="228.83772"
       id="line283" />
    <path
       style="fill:#485e88;fill-rule:evenodd"
       clip-rule="evenodd"
       id="path6925"
       d="" />
    <path
       style="fill:#004fa3"
       d="M 634.63646,468.18246 L 608.71789,537.52941 L 582.53498,468.18246 L 549.66788,468.18246 L 549.66788,573.06516 L 573.18215,573.06516 L 573.18215,510.35205 L 598.34543,573.06516 L 618.5239,573.06516 L 643.9893,510.35205 L 643.9893,573.06516 L 667.52874,573.06516 L 667.52874,468.18246 M 688.58836,573.06516 L 712.11522,573.06516 L 712.11522,468.18246 L 688.58836,468.18246 L 688.58836,573.06516 z M 773.63247,503.75597 L 798.51882,573.06516 L 824.33668,573.06516 L 786.04418,468.18246 L 762.68096,468.18246 L 721.04007,573.06516 L 746.85793,573.06516 L 773.63247,503.75597 z M 826.21229,468.18246 L 826.21229,489.46866 L 856.61216,489.46866 L 856.61216,573.06516 L 880.13901,573.06516 L 880.13901,489.46866 L 910.56406,489.46866 L 910.56406,468.18246 L 826.21229,468.18246 z "
       id="path7083"
       clip-path="none" />
    <polyline
       style="fill:#ed4425"
       points="300.945,593.828 303.017,593.828 303.695,592.028 301.624,592.028 "
       id="polyline7085"
       transform="matrix(12.587938,0,0,12.587938,-3035.742,-6905.1644)"
       clip-path="none" />
    <polyline
       style="fill:#004fa3"
       points="284.829,597.215 285.16,597.215 285.16,595.686 285.164,595.686 285.716,597.215 286.001,597.215   286.551,595.686 286.562,595.686 286.562,597.215 286.889,597.215 286.889,595.233 286.404,595.233 285.872,596.788   285.865,596.788 285.317,595.233 284.829,595.233 "
       id="polyline7087"
       transform="matrix(12.587938,0,0,12.587938,-3035.742,-6905.1644)"
       clip-path="none" />
    <path
       style="fill:#004fa3"
       d="M 590.51574,586.98742 C 583.01333,586.98742 578.50684,592.97928 578.50684,600.07887 C 578.50684,607.22882 583.01333,613.17033 590.51574,613.17033 C 597.98038,613.17033 602.4491,607.22882 602.4491,600.07887 C 602.4491,592.96669 597.98038,586.98742 590.51574,586.98742 M 590.51574,590.57498 C 595.82785,590.57498 598.08109,595.27028 598.08109,600.07887 C 598.08109,604.87488 595.82785,609.60794 590.51574,609.60794 C 585.07775,609.60794 582.88745,604.87488 582.88745,600.07887 C 582.88745,595.27028 585.07775,590.57498 590.51574,590.57498"
       id="path7089"
       clip-path="none" />
    <polyline
       style="fill:#004fa3"
       points="289.246,597.215 289.579,597.215 289.579,595.761 289.586,595.761 290.49,597.215 290.858,597.215   290.858,595.233 290.523,595.233 290.523,596.695 290.518,596.695 289.615,595.233 289.246,595.233 "
       id="polyline7091"
       transform="matrix(12.587938,0,0,12.587938,-3035.742,-6905.1644)"
       clip-path="none" />
    <path
       style="fill:#004fa3"
       d="M 651.49171,599.39913 L 640.84231,599.39913 L 640.84231,602.74752 L 647.52651,602.74752 C 647.47616,606.96448 645.02151,609.67088 640.48985,609.60794 C 635.16515,609.60794 632.93709,604.87488 632.93709,600.07887 C 632.93709,595.32063 635.16515,590.58757 640.48985,590.58757 C 643.66201,590.58757 646.51947,592.26176 646.96005,595.48428 L 651.22736,595.48428 C 650.54761,589.92041 645.95302,586.98742 640.48985,586.98742 C 633.03779,586.98742 628.53131,592.97928 628.53131,600.14181 C 628.53131,607.22882 633.03779,613.17033 640.48985,613.17033 C 643.56131,613.17033 645.70126,612.35211 648.0552,609.67088 L 648.73495,612.55352 L 651.49171,612.55352"
       id="path7093"
       clip-path="none" />
    <path
       style="fill:#004fa3"
       d="M 665.9049,586.98742 C 658.42766,586.98742 653.896,592.97928 653.896,600.07887 C 653.896,607.22882 658.42766,613.17033 665.9049,613.17033 C 673.35696,613.17033 677.87603,607.22882 677.87603,600.07887 C 677.87603,592.96669 673.35696,586.98742 665.9049,586.98742 M 665.9049,590.57498 C 671.27995,590.57498 673.47025,595.27028 673.47025,600.07887 C 673.47025,604.87488 671.27995,609.60794 665.9049,609.60794 C 660.50467,609.60794 658.33955,604.87488 658.33955,600.07887 C 658.33955,595.27028 660.50467,590.57498 665.9049,590.57498"
       id="path7095"
       clip-path="none" />
    <polyline
       style="fill:#004fa3"
       points="295.251,597.215 296.608,597.215 296.608,596.917 295.6,596.917 295.6,595.233 295.251,595.233 "
       id="polyline7097"
       transform="matrix(12.587938,0,0,12.587938,-3035.742,-6905.1644)"
       clip-path="none" />
    <rect
       style="fill:#004fa3"
       x="699.92981"
       y="587.59106"
       width="4.3680143"
       height="24.936705"
       id="rect7099"
       clip-path="none" />
    <path
       style="fill:#004fa3"
       d="M 717.54062,591.88413 L 717.65391,591.88413 L 721.4177,602.68458 L 713.81459,602.68458 M 705.74572,612.54093 L 710.22703,612.54093 L 712.58097,605.98262 L 722.55062,605.98262 L 724.91715,612.54093 L 729.58728,612.54093 L 719.93233,587.55388 L 715.28738,587.55388 L 705.74572,612.54093 z "
       id="path7101"
       clip-path="none" />
    <polyline
       style="fill:#004fa3"
       points="299.219,597.215 299.548,597.215 299.548,595.761 299.557,595.761 300.462,597.215 300.83,597.215   300.83,595.233 300.497,595.233 300.497,596.695 300.492,596.695 299.587,595.233 299.219,595.233 "
       id="polyline7103"
       transform="matrix(12.587938,0,0,12.587938,-3035.742,-6905.1644)"
       clip-path="none" />
    <path
       style="fill:#004fa3"
       d="M 772.83943,591.88413 L 772.94013,591.88413 L 776.71651,602.68458 L 769.10081,602.68458 M 761.05712,612.54093 L 765.53843,612.54093 L 767.87978,605.98262 L 777.84943,605.98262 L 780.21596,612.54093 L 784.91126,612.54093 L 775.24373,587.55388 L 770.61137,587.55388 L 761.05712,612.54093 z "
       id="path7105"
       clip-path="none" />
    <rect
       style="fill:#004fa3"
       x="786.30823"
       y="587.59106"
       width="4.3176627"
       height="24.936705"
       id="rect7107"
       clip-path="none" />
    <path
       style="fill:#004fa3"
       d="M 799.32445,591.14144 L 806.43664,591.14144 C 808.79058,591.14144 810.81724,591.82119 810.81724,594.96817 C 810.81724,597.62423 809.30669,598.97114 806.53734,598.97114 L 799.32445,598.97114 M 795.01938,612.54093 L 799.32445,612.54093 L 799.32445,602.30694 L 805.81983,602.30694 C 809.89832,602.30694 810.79206,604.28325 810.79206,608.89043 C 810.79206,610.0737 810.79206,611.49613 811.45922,612.52834 L 816.14194,612.52834 C 815.22302,611.5339 814.80762,608.89043 814.80762,605.98262 C 814.80762,602.05518 812.56696,600.89709 811.11935,600.6831 L 811.11935,600.63274 C 811.88721,600.29287 815.22302,599.1096 815.22302,594.3136 C 815.22302,590.08405 812.44108,587.57905 806.91498,587.57905 L 795.04455,587.57905 L 795.04455,612.54093 L 795.01938,612.54093 z "
       id="path7109"
       clip-path="none" />
    <polyline
       style="fill:#004fa3"
       points="306.193,597.215 307.547,597.215 307.547,596.917 306.542,596.917 306.542,595.233   306.193,595.233 "
       id="polyline7111"
       transform="matrix(12.587938,0,0,12.587938,-3035.742,-6905.1644)"
       clip-path="none" />
    <rect
       style="fill:#004fa3"
       x="837.67993"
       y="587.59106"
       width="4.3554263"
       height="24.936705"
       id="rect7113"
       clip-path="none" />
    <polyline
       style="fill:#004fa3"
       points="308.384,597.215 308.716,597.215 308.716,595.761 308.723,595.761 309.629,597.215   309.996,597.215 309.996,595.233 309.661,595.233 309.661,596.695 309.656,596.695 308.754,595.233 308.384,595.233 "
       id="polyline7115"
       transform="matrix(12.587938,0,0,12.587938,-3035.742,-6905.1644)"
       clip-path="none" />
    <polyline
       style="fill:#004fa3"
       points="310.325,597.215 311.775,597.215 311.775,596.917 310.671,596.917 310.671,596.341   311.672,596.341 311.672,596.049 310.671,596.049 310.671,595.532 311.758,595.532 311.758,595.233 310.325,595.233 "
       id="polyline7117"
       transform="matrix(12.587938,0,0,12.587938,-3035.742,-6905.1644)"
       clip-path="none" />
    <path
       id="path7127"
       d="M 311.879,596.555 C 311.887,597.049 312.252,597.264 312.706,597.264 C 313.104,597.264 313.501,597.091 313.501,596.643 C 313.501,596.437 313.373,596.216 313.113,596.138 C 313.009,596.104 312.564,595.992 312.537,595.985 C 312.397,595.947 312.302,595.864 312.302,595.727 C 312.302,595.529 312.504,595.47 312.664,595.47 C 312.905,595.47 313.076,595.565 313.097,595.819 L 313.44,595.819 C 313.44,595.404 313.097,595.185 312.678,595.185 C 312.323,595.185 311.957,595.376 311.957,595.77 C 311.957,595.977 312.053,596.18 312.394,596.271 C 312.665,596.346 312.844,596.383 312.985,596.437 C 313.069,596.465 313.151,596.532 313.151,596.681 C 313.151,596.83 313.035,596.982 312.728,596.982 C 312.45,596.982 312.227,596.862 312.227,596.555"
       clip-path="url(#SVGID_130_)"
       style="fill:#004fa3"
       transform="matrix(12.587938,0,0,12.587938,-3035.742,-6905.1644)" />
    <path
       style="fill:#004fa3"
       d="M 370.64222,619.67829 C 357.22348,608.48762 341.42562,597.85081 340.16683,575.67086 C 339.42414,562.56682 345.01318,555.36652 345.5167,543.60938 C 346.3475,523.95961 341.63961,512.55494 330.02095,502.00625 C 327.23901,504.33502 324.77178,505.9211 320.84434,505.48052 C 307.57665,504.03291 306.99761,487.99587 294.28379,486.8252 C 288.90874,486.30909 286.22751,489.00291 283.76027,492.33871 L 278.88874,487.39165 L 284.79249,481.31168 L 275.55294,481.2865 L 273.56405,473.84703 C 278.4104,474.51419 281.3308,471.75743 281.63291,467.85517 L 380.19647,467.85517 C 373.31087,469.50419 370.07577,477.25836 363.07687,478.3661 C 358.64592,478.79409 355.8514,477.49753 352.60371,475.19394 C 352.02466,475.19394 351.38268,475.78557 351.38268,476.3898 C 351.38268,478.74374 358.53263,480.73263 360.91175,480.69487 C 372.9584,480.44311 375.24941,467.85517 389.0332,467.85517 L 542.17805,467.85517 L 520.43869,487.06437 C 518.48755,488.8015 515.94479,489.38055 513.66637,489.38055 L 367.92323,489.41831 L 371.68702,493.50939 L 513.5405,493.53457 L 490.84444,512.78152 C 488.9059,514.43054 486.04844,515.00959 483.49309,515.00959 L 392.07948,515.00959 L 395.86845,519.07549 L 483.97143,519.07549 L 461.52714,537.80634 C 459.14802,539.78265 455.67374,540.19805 452.56452,540.19805 L 404.23943,540.19805 L 408.01581,544.4276 L 454.13802,544.4276 L 431.88254,563.81302 C 430.09505,565.3991 427.51453,566.19214 425.12282,566.19214 L 414.03285,566.19214 C 414.09578,570.10699 418.11134,570.15735 420.46528,569.93076 L 426.6082,569.93076 M 331.20421,464.46902 C 330.18459,463.75151 328.00688,458.33869 328.42228,455.00289 C 328.9258,450.79852 332.3623,446.63191 336.61703,446.68226 C 341.52632,446.77038 345.31529,449.85442 350.85398,449.92995 C 353.18275,449.96771 355.19682,448.30611 356.5815,447.56342 C 355.56187,452.39719 352.75476,457.92329 347.69441,459.23244 C 343.6411,460.26465 338.35416,458.51492 334.8673,459.93736 C 332.891,460.7304 331.6322,463.39904 331.20421,464.46902"
       id="path7129"
       clip-path="none" />
    <polyline
       style="fill:#005fa2"
       points="533.425,591.132 533.431,591.132 533.433,591.132 533.425,591.132 "
       id="polyline7185"
       transform="translate(10.668987,21.895714)" />
  </g>
</svg>
