<?xml version="1.0" encoding="UTF-8"?>
<!DOCTYPE svg PUBLIC "-//W3C//DTD SVG 1.1//EN" "http://www.w3.org/Graphics/SVG/1.1/DTD/svg11.dtd">
<!-- Creator: CorelDRAW X8 -->
<svg xmlns="http://www.w3.org/2000/svg" xml:space="preserve" width="378" height="378" version="1.1" style="shape-rendering:geometricPrecision; text-rendering:geometricPrecision; image-rendering:optimizeQuality; fill-rule:evenodd; clip-rule:evenodd"
viewBox="0 0 378 378"
 xmlns:xlink="http://www.w3.org/1999/xlink">
 <defs>
  <style type="text/css">
   <![CDATA[
    .fil2 {fill:#FEFEFE}
    .fil9 {fill:#D9DADA}
    .fil0 {fill:#264796}
    .fil13 {fill:#2C4A68}
    .fil8 {fill:#273369}
    .fil12 {fill:#2C4A68;fill-rule:nonzero}
    .fil14 {fill:#323C8D;fill-rule:nonzero}
    .fil7 {fill:url(#id0)}
    .fil11 {fill:url(#id1)}
    .fil10 {fill:url(#id2)}
    .fil5 {fill:url(#id3)}
    .fil1 {fill:url(#id4)}
    .fil4 {fill:url(#id5)}
    .fil6 {fill:url(#id6)}
    .fil3 {fill:url(#id7)}
   ]]>
  </style>
  <linearGradient id="id0" gradientUnits="userSpaceOnUse" x1="188.974" y1="282.396" x2="188.974" y2="374.454">
   <stop offset="0" style="stop-opacity:1; stop-color:#264796"/>
   <stop offset="1" style="stop-opacity:1; stop-color:#0065A8"/>
  </linearGradient>
  <linearGradient id="id1" gradientUnits="userSpaceOnUse" x1="193.78" y1="181.916" x2="193.78" y2="324.25">
   <stop offset="0" style="stop-opacity:1; stop-color:#FDE0BC"/>
   <stop offset="1" style="stop-opacity:1; stop-color:#A29DBC"/>
  </linearGradient>
  <linearGradient id="id2" gradientUnits="userSpaceOnUse" x1="201.798" y1="299.282" x2="201.798" y2="199.728">
   <stop offset="0" style="stop-opacity:1; stop-color:#FDE0BC"/>
   <stop offset="1" style="stop-opacity:1; stop-color:#FEFEFE"/>
  </linearGradient>
  <linearGradient id="id3" gradientUnits="userSpaceOnUse" x1="335.056" y1="206.504" x2="55.62" y2="284.528">
   <stop offset="0" style="stop-opacity:1; stop-color:#E31E24"/>
   <stop offset="0.141176" style="stop-opacity:1; stop-color:#EA5E20"/>
   <stop offset="0.270588" style="stop-opacity:1; stop-color:#E31E24"/>
   <stop offset="0.34902" style="stop-opacity:1; stop-color:#AE2220"/>
   <stop offset="0.478431" style="stop-opacity:1; stop-color:#E31E24"/>
   <stop offset="0.709804" style="stop-opacity:1; stop-color:#EA5E20"/>
   <stop offset="0.839216" style="stop-opacity:1; stop-color:#E31E24"/>
   <stop offset="1" style="stop-opacity:1; stop-color:#AE2220"/>
  </linearGradient>
  <linearGradient id="id4" gradientUnits="userSpaceOnUse" x1="188.974" y1="326.428" x2="188.974" y2="213.166">
   <stop offset="0" style="stop-opacity:1; stop-color:#16B9DD"/>
   <stop offset="1" style="stop-opacity:1; stop-color:#FEFEFE"/>
  </linearGradient>
  <linearGradient id="id5" gradientUnits="userSpaceOnUse" x1="339.482" y1="180.122" x2="42.792" y2="276.396">
   <stop offset="0" style="stop-opacity:1; stop-color:#E3E3E3"/>
   <stop offset="0.168627" style="stop-opacity:1; stop-color:#FEFEFE"/>
   <stop offset="0.478431" style="stop-opacity:1; stop-color:#CFD1DC"/>
   <stop offset="0.788235" style="stop-opacity:1; stop-color:#FEFEFE"/>
   <stop offset="1" style="stop-opacity:1; stop-color:#D8E4EB"/>
  </linearGradient>
  <linearGradient id="id6" gradientUnits="userSpaceOnUse" x1="349.842" y1="228.63" x2="70.274" y2="297.828">
   <stop offset="0" style="stop-opacity:1; stop-color:#00843E"/>
   <stop offset="0.121569" style="stop-opacity:1; stop-color:#21A73F"/>
   <stop offset="0.188235" style="stop-opacity:1; stop-color:#54AF3A"/>
   <stop offset="0.329412" style="stop-opacity:1; stop-color:#006E36"/>
   <stop offset="0.560784" style="stop-opacity:1; stop-color:#006E36"/>
   <stop offset="0.729412" style="stop-opacity:1; stop-color:#006E36"/>
   <stop offset="0.890196" style="stop-opacity:1; stop-color:#21A73F"/>
   <stop offset="1" style="stop-opacity:1; stop-color:#009846"/>
  </linearGradient>
  <radialGradient id="id7" gradientUnits="userSpaceOnUse" gradientTransform="matrix(-1.4048 0.0719186 -0.0719192 -1.40479 560 250)" cx="229.492" cy="110.642" r="295.134" fx="229.492" fy="110.642">
   <stop offset="0" style="stop-opacity:1; stop-color:#A2D9F7"/>
   <stop offset="0.439216" style="stop-opacity:1; stop-color:#1CBBEE"/>
   <stop offset="1" style="stop-opacity:1; stop-color:#0082C9"/>
  </radialGradient>
 </defs>
 <g id="Layer_x0020_1">
  <metadata id="CorelCorpID_0Corel-Layer"/>
  <path class="fil0" d="M189 0c6,0 11,0 17,1 15,1 29,4 43,9 75,25 129,96 129,179 0,104 -85,189 -189,189 -104,0 -189,-85 -189,-189 0,-72 39,-134 98,-166 22,-12 45,-19 71,-22 6,-1 13,-1 20,-1z"/>
  <path class="fil1" d="M9 189c0,99 81,180 180,180 99,0 180,-81 180,-180l0 0c0,-99 -81,-180 -180,-180l0 0c-99,0 -180,81 -180,180l0 0z"/>
  <path class="fil2" d="M189 47c-78,0 -142,64 -142,142 0,78 64,142 142,142 78,0 142,-64 142,-142 0,-78 -64,-142 -142,-142zm0 7c-75,0 -135,60 -135,135 0,75 60,135 135,135 75,0 135,-60 135,-135 0,-75 -60,-135 -135,-135z"/>
  <path class="fil3" d="M54 189c0,75 60,135 135,135 75,0 135,-60 135,-135l0 0 0 0c0,-75 -60,-135 -135,-135l0 0c-75,0 -135,60 -135,135z"/>
  <path class="fil4" d="M173 184c-41,-3 -80,-6 -115,39l0 0c15,58 68,101 131,101 75,0 135,-60 135,-135 0,-20 -4,-39 -12,-57l0 0c-48,58 -95,55 -139,52l0 0z"/>
  <path class="fil5" d="M184 210c-41,-5 -80,-9 -117,36l0 0c21,46 68,78 122,78l0 0c75,0 135,-60 135,-135l0 0c0,-8 -1,-15 -2,-22l0 0c-49,52 -95,48 -138,43l0 0z"/>
  <path class="fil6" d="M188 240c-38,-6 -75,-12 -112,23l0 0c24,37 66,61 113,61 68,0 125,-51 134,-116l0 0c-49,44 -93,38 -135,32l0 0z"/>
  <path class="fil2" d="M230 82c-15,0 -28,12 -28,27 0,16 13,28 28,28 15,0 28,-12 28,-28 0,-15 -13,-27 -28,-27z"/>
  <path class="fil2" d="M65 319c2,2 4,3 5,5 26,-38 70,-63 119,-63 49,0 93,25 119,63l0 0 0 0c1,-2 3,-3 5,-5 -27,-39 -73,-65 -124,-65 -51,0 -97,26 -124,65zm5 5c14,12 14,12 0,0z"/>
  <path class="fil7" d="M70 324c32,29 73,46 119,46 45,0 87,-17 119,-46l0 0c-26,-38 -70,-63 -119,-63l0 0c-49,0 -93,25 -119,63l0 0z"/>
  <path class="fil8" d="M258 278c-8,-4 -16,-8 -25,-10 -6,-1 -12,-2 -16,-4 -13,-4 -38,11 -48,4 -3,-2 -6,-4 -10,-4 -12,2 -23,6 -33,11 8,3 11,7 20,8 10,1 22,-2 29,-2 15,0 17,-8 25,-8 8,0 15,-1 7,5 -5,3 24,11 29,11 6,0 27,-7 22,-10 0,0 0,-1 0,-1z"/>
  <path class="fil2" d="M288 291c-2,-2 -4,-3 -6,-5 -4,4 -8,8 -12,11 -8,-11 -18,-20 -29,-27 2,-1 4,-3 6,-4 -2,-1 -4,-2 -7,-3 -2,1 -3,2 -5,3 -13,-7 -27,-12 -43,-12l0 0c-1,0 -2,0 -3,0l0 0 0 0 0 0 0 0 0 0 0 0c-1,0 -2,0 -3,0l0 0c-16,0 -30,5 -43,12 -2,-1 -3,-2 -5,-3 -3,1 -5,2 -7,3 2,1 4,3 6,4 -11,7 -21,16 -29,27 -4,-3 -9,-7 -12,-11 -2,2 -4,3 -6,5 5,4 9,8 14,12 -7,10 -13,21 -18,33 3,2 5,3 7,5 5,-13 10,-24 17,-34 5,3 10,6 16,9 -5,11 -8,24 -11,37 2,1 4,2 6,2 2,-13 6,-25 10,-37 17,8 35,12 55,13l0 38c1,0 2,0 3,0 1,0 2,0 3,0l0 -38c20,-1 38,-5 55,-13 4,12 7,24 10,37 2,0 4,-1 5,-2 -2,-13 -5,-26 -10,-37 6,-3 11,-6 16,-9 7,10 12,21 17,34 2,-2 4,-3 7,-5 -5,-12 -11,-23 -18,-33 5,-4 9,-8 14,-12zm-61 -21c0,0 -1,1 -1,1 -2,-1 -3,-2 -4,-4 2,1 4,2 5,3zm-8 4c-8,3 -17,4 -27,5l0 -18c10,1 19,5 27,13zm-33 5c-10,-1 -19,-2 -27,-5 8,-8 17,-12 27,-13l0 18zm-34 -8c0,0 -1,-1 -1,-1 1,-1 3,-2 5,-3 -1,2 -2,3 -4,4zm-8 3c1,1 2,1 4,2 -8,9 -14,20 -20,34 -5,-3 -9,-6 -14,-9 9,-11 19,-20 30,-27zm10 5c10,3 20,6 32,6l0 39c-19,0 -37,-5 -53,-12 6,-13 13,-25 21,-33zm38 6c12,0 22,-3 32,-6 8,8 15,20 21,33 -16,7 -34,12 -53,12l0 -39zm38 -9c1,-1 3,-1 4,-2 11,7 21,16 30,27 -5,3 -9,6 -14,9 -6,-14 -12,-25 -20,-34z"/>
  <path class="fil9" d="M257 282c-5,-4 -10,-8 -14,-11 -4,-1 -7,-2 -10,-4 -6,0 -12,-1 -16,-3 -4,-1 -8,-1 -12,0 5,2 10,5 14,10 -3,1 -7,2 -11,3 0,0 -1,0 -1,1 -2,1 1,3 5,5 4,-2 8,-3 12,-4 3,3 6,6 8,10 2,0 3,0 4,0 1,0 2,0 3,0 -3,-5 -6,-9 -9,-13 1,-1 3,-1 4,-2 6,3 11,7 15,12 3,-1 6,-3 8,-4zm-122 -11c-2,2 -4,3 -7,5 3,1 5,2 8,4 2,-2 5,-4 8,-6 1,1 2,1 4,2 -2,2 -3,4 -5,6 1,1 2,1 3,1 1,0 3,0 4,0 1,-1 2,-3 4,-4 4,1 7,2 11,3 4,0 7,-1 10,-1 10,0 14,-3 17,-6l0 -8c-2,1 -4,1 -6,2l0 10c-10,-1 -19,-2 -27,-5 3,-3 6,-5 9,-7 -3,-2 -6,-3 -9,-3 -8,1 -16,4 -24,7zm92 -1c0,0 -1,1 -1,1 -2,-1 -3,-2 -4,-4 2,1 4,2 5,3zm-75 1c0,0 -1,-1 -1,-1 1,-1 3,-2 5,-3 -1,2 -2,3 -4,4z"/>
  <polygon class="fil2" points="165,97 163,108 152,110 163,113 165,123 167,112 178,110 167,108 "/>
  <polygon class="fil2" points="213,145 211,151 206,152 211,153 213,159 214,153 219,152 214,151 "/>
  <polygon class="fil2" points="147,80 146,86 140,87 146,88 147,94 148,88 154,87 148,86 "/>
  <path class="fil10" d="M258 164c-4,0 -6,0 -7,0l0 0c-1,0 -7,0 -7,0l0 0c0,0 -8,2 -11,3l0 0c-6,0 -16,6 -20,6l0 0c-1,1 -21,2 -23,3l0 0c-3,0 -13,-5 -16,-5l0 0c-3,0 -11,0 -15,0l0 0c-8,1 -18,7 -23,11l0 0c0,0 -14,12 -16,21l0 0c-1,10 0,21 0,21l0 0 5 16 -11 2c0,3 3,24 6,28l0 0c0,0 6,3 7,3l0 0c3,1 10,0 12,0l0 0 1 8 7 0 8 2 5 0 3 -3 2 1 1 -2 5 0c2,-4 3,-6 -4,-9l0 0c-2,-1 -3,-3 -3,-3l0 0c0,0 0,-14 -1,-16l0 0c0,-1 -2,-5 -2,-5l0 0 2 -4 2 0 3 11c0,0 6,9 5,10l0 0c0,1 1,4 1,4l0 0c0,0 6,7 9,7l0 0c2,1 12,-1 13,-2l0 0c2,0 6,-7 7,-9l0 0c1,-3 0,-13 0,-14l0 0c0,-1 -3,-7 -3,-7l0 0c3,-4 4,-6 9,-9l0 0c0,0 3,12 4,16l0 0c0,4 1,8 1,8l0 0 5 7c0,0 2,11 1,13l0 0c0,2 5,5 5,5l0 0c0,0 5,1 8,3l0 0c8,3 5,0 11,-1l0 0c1,0 4,0 5,0l0 0c3,-3 -2,-2 7,-3l0 0c0,0 1,-4 0,-6l0 0c-4,-4 -12,-5 -12,-7l0 0 -1 -30c0,0 -5,-9 -5,-11l0 0c0,-2 -1,-9 -1,-9l0 0c0,0 2,-4 2,-4l0 0c1,-1 7,-4 7,-4l0 0c0,0 3,-7 5,-8l0 0c3,-2 9,-3 9,-3l0 0c0,0 7,-8 10,-8l0 0c2,-1 8,-2 8,-2l0 0 6 -3 0 -3 -2 0c0,0 5,-4 6,-6l0 0c2,-3 2,-5 -1,-6l0 0c-2,-1 -5,-3 -5,-3l0 0c0,0 -8,-1 -9,-1l0 0c-1,0 -2,-2 -3,-3l0 0c0,0 -2,-1 -4,-1l0 0c-3,0 -6,1 -8,1l0 0z"/>
  <path class="fil11" d="M217 172c-1,2 -1,3 -1,5l0 0c1,4 0,8 1,11l0 0c0,1 2,3 2,3l0 0c0,-1 0,-2 0,-3l0 0c-1,0 -1,-2 0,-2l0 0c1,-1 0,-3 0,-5l0 0c0,-4 -1,-7 2,-10l0 0c0,0 -1,0 -1,0l0 0c-1,0 -3,1 -3,1zm22 5c1,1 3,2 4,3l0 0c0,1 0,2 1,3l0 0c0,0 0,1 0,2l0 0c0,0 0,1 0,1l0 0c0,4 0,-2 1,-3l0 0c1,-1 2,-2 2,-4l0 0c1,-3 0,-3 -3,-4l0 0c-1,0 -2,0 -3,-1l0 0c0,-1 -2,-2 -2,-2l0 0c0,2 -1,4 0,5zm-54 3c-2,0 -2,3 -2,4l0 0c-1,2 -3,5 -3,6l0 0c0,3 -1,4 -1,7l0 0c1,-4 4,-8 6,-11l0 0c1,-1 1,-6 0,-6l0 0c0,0 0,0 0,0zm79 10c0,2 -5,-1 -3,3l0 0c2,4 -5,4 -8,4l0 0c0,0 -1,0 -2,-1l0 0c0,0 -1,-1 -2,0l0 0c-2,0 -9,1 -10,2l0 0c-1,3 -8,4 -7,4l0 0c0,1 2,1 3,0l0 0c2,0 4,-1 5,2l0 0c0,7 1,7 5,2l0 0c5,-4 7,-7 15,-8l0 0c1,0 10,-10 10,-10l0 0c-1,0 -2,0 -3,0l0 0c0,-1 -1,-1 -2,-1l0 0c0,0 -1,1 -1,3zm-42 7c0,3 0,7 1,8l0 0c2,1 -1,1 -2,2l0 0c-1,1 -1,3 -2,5l0 0c-1,2 -7,3 -7,6l0 0c0,3 1,1 1,0l0 0c1,-2 2,-3 4,-4l0 0c2,-1 10,-7 9,-9l0 0c0,-3 -4,-5 -4,-8l0 0c0,0 0,-1 0,-1l0 0c0,0 0,1 0,1zm-42 15c-2,3 -12,18 -13,18l0 0c-6,1 -3,5 -8,5l0 0c-3,0 -2,7 -5,8l0 0c-3,2 -6,2 1,6l0 0c3,1 1,4 5,4l0 0c6,-1 -2,-7 2,-10l0 0c2,-1 5,-5 4,-7l0 0c0,-3 5,-5 7,-7l0 0c3,-2 2,-5 5,-9l0 0c2,-1 2,-8 2,-8l0 0c0,0 0,0 0,0zm-57 15c0,2 2,8 3,10l0 0c3,5 2,1 4,-1l0 0c1,-1 0,-1 -1,-2l0 0c-1,-1 -1,-2 -2,-3l0 0c-4,-4 -4,-7 -4,-12l0 0c-1,3 0,6 0,8zm20 3c0,2 2,3 3,5l0 0c1,1 2,2 3,4l0 0c0,-4 -2,-5 -4,-7l0 0c-1,-1 0,-2 -1,-3l0 0c0,-1 0,-3 -1,-3l0 0c0,0 0,0 0,0l0 0c-1,0 0,3 0,4zm64 0c-5,4 -4,0 -8,7l0 0c-3,8 -2,5 -1,14l0 0c0,5 -7,4 -3,6l0 0c1,1 4,3 2,5l0 0c-3,5 -7,7 -13,6l0 0c-3,0 -6,-5 -6,-2l0 0c1,2 3,5 5,5l0 0c5,0 11,2 14,-3l0 0c0,-2 5,-6 5,-10l0 0c-1,-5 -1,-10 -3,-15l0 0c-1,-2 3,-3 4,-5l0 0c1,-2 5,-5 6,-6l0 0c2,-1 3,-4 5,-5l0 0c-1,0 -1,0 -1,0l0 0c-2,0 -4,2 -6,3zm-81 11c0,0 -1,0 -4,1l0 0c-2,1 -4,0 -4,1l0 0c-4,-1 17,22 4,23l0 0c-1,0 -1,1 0,2l0 0c1,2 5,5 8,5l0 0c3,0 7,0 9,-2l0 0c-3,-3 -6,-4 -5,-9l0 0c1,-3 0,-4 -1,-8l0 0 0 -4c0,-2 -3,-4 -5,-7l0 0c-1,-1 -2,-2 -2,-2l0 0c0,0 0,0 0,0zm32 13c1,1 2,2 2,3l0 0c0,2 -6,1 -3,3l0 0c4,4 1,4 0,8l0 0c-1,3 -5,5 -7,6l0 0c-1,1 -2,3 -2,3l0 0c2,-2 6,-1 7,-2l0 0c2,-2 4,-2 6,-4l0 0c0,0 1,0 1,1l0 0c1,0 1,0 2,0l0 0c2,0 2,-2 3,-2l0 0c-3,0 -4,-4 -5,-6l0 0c-2,-2 0,-4 -1,-7l0 0c0,-3 -1,-3 -2,-3l0 0c-1,0 -1,0 -1,0zm82 15c-1,1 -2,2 -4,3l0 0c0,0 0,1 0,2l0 0c-2,1 -4,1 -5,1l0 0c-1,0 1,0 2,0l0 0c1,0 1,0 2,0l0 0c0,0 1,0 1,0l0 0c2,0 3,-2 5,-3l0 0c0,0 3,0 4,0l0 0c1,0 1,0 1,-1l0 0c0,0 -2,0 -2,0l0 0c-1,0 -1,-1 -2,-2l0 0c-1,0 -1,-1 -1,-1l0 0c-1,0 -1,0 -1,1l0 0z"/>
  <path class="fil12" d="M282 182c1,-1 7,-5 7,-9 0,-2 -7,-4 -7,-4 -5,-1 -9,1 -11,-4 0,0 -1,0 -1,0 -2,-2 -17,0 -18,0 -1,0 -7,0 -8,0 0,0 -8,2 -10,2 -8,1 -14,7 -23,7 -5,1 -19,2 -21,2 -7,1 -8,-6 -31,-4 -7,1 -18,7 -22,11 -1,0 -14,12 -16,21 -1,9 0,19 0,20 0,3 5,17 4,17l-10 2c0,1 2,24 5,26 1,1 6,3 7,4 6,2 12,-3 13,0l0 7 7 0 8 3 5 -1c2,-2 0,-3 4,-2l2 -2 0 0 5 0c1,-3 2,-5 -3,-7 -3,-2 -5,-4 -5,-4 -1,-1 1,-14 0,-16l-2 -6 2 -4 0 0c1,1 3,0 3,2l3 10c0,1 5,10 5,11 0,0 0,2 0,3 2,2 6,6 8,7 3,0 12,-2 14,-2 1,0 6,-8 6,-10l0 -13 -3 -8c2,-3 9,-12 10,-8 1,1 4,12 4,16 1,11 0,7 6,14l2 14c-1,3 9,6 11,7 9,4 5,0 12,0 7,-1 5,-3 6,-3l5 -1c2,-5 0,-6 -7,-9 -2,-1 -5,-2 -5,-4l-1 -29c-1,-1 -5,-10 -5,-12l-1 -8c0,-1 2,-4 3,-5 0,0 5,-4 6,-4 0,-1 3,-6 5,-8 3,-2 9,-3 10,-3 0,0 7,-7 9,-8 2,-1 8,-2 8,-2l6 -3 0 -1c0,-1 -2,-2 -1,-2zm7 -4c-1,2 -4,4 -5,5 1,0 0,4 0,4l-6 2c-12,1 -15,9 -17,11 -4,2 -9,-2 -15,10l-6 5c-1,0 -2,3 -3,4 1,1 1,6 2,8l4 12 1 29c1,2 16,3 12,13l-5 2c-1,4 -6,1 -10,3 -4,3 -10,-2 -16,-4 0,0 -6,-3 -5,-6 0,-1 -2,-11 -2,-13l-5 -6c-1,-9 -1,-13 -5,-23 -4,3 -5,5 -7,9 3,7 3,6 3,15 0,5 0,7 -4,11 -2,5 -2,4 -6,5 -14,3 -11,2 -21,-6l0 -5 -5 -11 -3 -9 -1 0 -2 3c3,9 3,6 2,20 0,5 12,2 8,13 0,1 -2,1 -5,0 -2,3 -1,3 -4,2 -4,4 -1,2 -8,3l-8 -2c-3,-1 -7,0 -8,-2l-1 -6c-8,2 -11,0 -18,-4 -4,-2 -7,-29 -6,-29l10 -1 -4 -17c0,0 -2,-11 0,-20 1,-10 15,-22 15,-22 0,0 13,-10 23,-11 23,-1 24,5 31,5l23 -2c4,-1 15,-7 21,-7 3,0 10,-3 10,-3l0 0 12 0c5,0 13,-1 15,0 4,2 -2,4 11,5l6 2c4,1 4,5 2,8z"/>
  <path class="fil13" d="M288 172c0,0 -2,0 -2,0 -1,0 -1,1 -1,1 0,0 0,2 1,3 0,0 1,1 1,1 0,0 2,-2 2,-3 0,0 0,-2 0,-2l-1 0z"/>
  <path class="fil13" d="M265 172c0,0 4,2 5,2 1,-1 1,-2 1,-2l-1 -2 -2 2c0,0 -3,0 -3,0z"/>
  <path class="fil13" d="M282 182c0,0 -3,1 -4,1 0,0 -2,0 -3,0 0,0 -1,0 -1,0 0,0 0,1 1,1 1,0 4,0 5,-1 1,0 1,0 2,0 0,0 1,1 1,1l0 0 -1 -2z"/>
  <path class="fil13" d="M247 173c0,0 -2,1 -4,1 -2,0 -2,0 -2,0 0,-1 -1,-3 -1,-3 0,0 -1,3 0,4 0,1 3,3 3,3 1,0 2,1 2,1 1,2 3,-2 3,-3 0,-1 -1,-3 -1,-3z"/>
  <path class="fil13" d="M158 279c1,0 1,1 2,2 0,0 0,1 -1,1 0,0 -1,0 -1,-1 0,-1 0,-2 0,-2z"/>
  <path class="fil13" d="M163 277c0,0 1,1 1,2 1,1 1,2 0,2 0,0 -1,-1 -2,-2 0,-1 0,-2 1,-2z"/>
  <path class="fil13" d="M168 276c0,0 1,1 1,1 0,1 0,2 0,2 0,0 -1,-1 -1,-1 0,-1 0,-2 0,-2z"/>
  <path class="fil13" d="M246 280c0,0 0,1 1,2 0,0 0,1 -1,1 0,0 -1,0 -1,-1 0,-1 0,-2 1,-2z"/>
  <path class="fil13" d="M237 282c1,0 1,0 1,1 0,1 0,2 0,2 -1,0 -1,-1 -1,-2 0,0 0,-1 0,-1z"/>
  <path class="fil13" d="M252 278c0,0 1,1 1,2 0,0 0,1 0,1 -1,0 -1,0 -1,-1 -1,-1 0,-2 0,-2z"/>
  <path class="fil2" d="M285 173l1 1c0,1 0,1 0,1 0,0 0,0 0,0 1,0 1,0 1,0 -1,-1 -1,-1 -1,-2 0,0 -1,0 -1,0z"/>
  <path class="fil14" d="M43 203l1 8 -19 3 2 9 19 -3 1 7 -25 4 -4 -24 25 -4zm-13 -6c-4,0 -8,-1 -10,-3 -2,-3 -3,-6 -3,-10 0,-4 1,-8 3,-10 3,-2 6,-3 10,-3 3,0 5,0 7,1 2,1 4,3 5,5 1,2 1,4 1,7 0,3 0,5 -1,7 -1,2 -3,3 -5,5 -2,1 -4,1 -7,1zm0 -8c2,0 4,0 5,-1 2,-1 2,-2 2,-4 0,-2 0,-3 -1,-4 -1,-1 -3,-1 -6,-1 -3,0 -4,0 -6,1 -1,1 -1,2 -1,4 0,2 0,3 1,4 1,1 3,1 6,1zm20 -47l-2 8 -19 -4 -1 6 7 2c3,0 6,1 7,2 2,0 2,1 3,3 0,1 0,3 -1,6 0,1 0,2 0,3l-5 -1 0 -2c0,-1 0,-1 0,-2 -1,-1 -2,-1 -3,-1l-16 -4 5 -21 25 5zm12 -26l-23 -11 -6 12c-1,2 -2,4 -2,5 0,2 0,3 1,4 1,1 2,2 3,3 2,1 3,1 4,1 1,0 2,-1 3,-2 1,0 2,-1 2,-2 0,1 0,2 0,3 0,0 1,1 1,1 0,1 1,2 1,2l5 7 4 -8 -5 -8c-1,0 -2,-1 -2,-2 0,0 0,-1 1,-2l0 0 9 4 4 -7zm-17 1l-2 3c0,0 0,1 -1,1 0,1 -1,1 -1,1 -1,0 -1,0 -2,0 -1,0 -1,-1 -1,-1 0,-1 0,-2 0,-3l2 -4 5 3zm0 -22l8 -10c1,-3 3,-4 5,-4 2,-1 4,0 6,1 2,2 3,4 3,6 1,2 0,4 -2,7l-3 3 8 6 -5 6 -20 -15zm13 0l1 -1c1,-1 2,-2 2,-3 0,-1 -1,-2 -1,-2 -1,-1 -2,-1 -3,-1 0,0 -1,1 -2,2l-1 2 4 3zm7 -25l6 -6 6 7 6 -6 -6 -6 6 -6 17 19 -6 6 -7 -8 -6 6 7 7 -6 6 -17 -19zm40 -20l4 -2c3,-2 6,-2 8,-2 3,0 4,2 6,4 1,2 1,4 0,6 -1,2 -3,4 -6,5l-12 6 -12 -22 7 -4 5 9zm5 9l3 -2c2,-1 3,-2 2,-4 -1,-1 -2,-1 -4,0l-4 2 3 4zm6 -26l7 -3 12 22 -7 4 -12 -23zm18 -7l20 -6 2 6 -13 3 1 4 12 -3 2 5 -12 3 1 5 13 -4 2 6 -21 6 -7 -25zm73 13l-9 0 -1 4 -8 -1 11 -24 8 0 8 26 -8 0 -1 -5zm-1 -5l-2 -9 -4 8 6 1zm22 -13l14 5c2,0 4,1 5,3 0,2 1,3 0,5 0,1 -1,2 -2,3 -1,1 -2,1 -3,1 1,1 2,2 3,3 0,2 0,3 0,5 -1,1 -1,2 -2,3 -1,1 -2,1 -3,1 -1,1 -2,1 -3,0 -2,0 -3,0 -4,0l-13 -4 8 -25zm4 12l4 1c1,1 2,1 2,0 1,0 1,0 1,-1 1,-1 1,-2 0,-2 0,-1 -1,-1 -2,-1l-3 -1 -2 4zm-3 10l4 1c1,0 2,0 3,0 1,0 1,-1 2,-2 0,0 0,-1 -1,-2 0,0 -1,-1 -2,-1l-4 -1 -2 5zm52 0l-12 23 -6 -3 6 -13 -15 8 -6 -3 11 -23 7 4 -6 12 14 -8 7 3zm8 34l-7 -6 -3 3 -6 -5 23 -14 7 5 -9 26 -6 -5 1 -4zm3 -5l3 -9 -8 5 5 4zm19 36l-5 -6 15 -13 -4 -4 -6 5c-2,2 -4,3 -5,4 -2,0 -3,0 -5,0 -1,-1 -2,-2 -4,-4 -1,-1 -1,-2 -2,-3l4 -3 1 1c1,1 1,1 2,1 1,0 1,0 2,-1l13 -10 14 17 -20 16zm38 15l-23 12 -3 -7 12 -6 -17 -2 -3 -6 22 -13 3 7 -12 7 17 1 4 7zm4 13l2 7 -9 2 2 9 9 -2 2 8 -25 5 -2 -7 10 -3 -2 -8 -10 2 -2 -7 25 -6zm8 60l-25 0 -1 -7 14 0 -14 -9 0 -8 26 0 0 7 -14 0 14 10 0 7zm-5 35l-25 -4 1 -7 14 2 -12 -11 1 -8 25 4 -1 8 -14 -3 12 12 -1 7z"/>
 </g>
</svg>
