<?xml version="1.0" encoding="UTF-8" standalone="no"?>
<!-- Created with Inkscape (http://www.inkscape.org/) -->

<svg
   xmlns:dc="http://purl.org/dc/elements/1.1/"
   xmlns:cc="http://creativecommons.org/ns#"
   xmlns:rdf="http://www.w3.org/1999/02/22-rdf-syntax-ns#"
   xmlns:svg="http://www.w3.org/2000/svg"
   xmlns="http://www.w3.org/2000/svg"
   xmlns:xlink="http://www.w3.org/1999/xlink"
   xmlns:sodipodi="http://sodipodi.sourceforge.net/DTD/sodipodi-0.dtd"
   xmlns:inkscape="http://www.inkscape.org/namespaces/inkscape"
   width="265.92603"
   height="77.581161"
   id="svg7188"
   version="1.1"
   inkscape:version="0.48.2 r9819"
   sodipodi:docname="Aegean_Airlines_logo (1).svg">
  <defs
     id="defs7190">
    <defs
       id="defs8743">
      <rect
         height="15.615"
         width="99.5"
         y="0.192"
         x="0.25"
         id="SVGID_1_" />
    </defs>
    <clipPath
       id="SVGID_2_">
      <use
         id="use8747"
         overflow="visible"
         xlink:href="#SVGID_1_"
         style="overflow:visible"
         x="0"
         y="0"
         width="1"
         height="1" />
    </clipPath>
    <clipPath
       id="clipPath7384"
       clipPathUnits="userSpaceOnUse">
      <path
         id="path7386"
         d="m 0,842.837 595.275,0 L 595.275,0 0,0 0,842.837 z"
         inkscape:connector-curvature="0" />
    </clipPath>
    <clipPath
       id="clipPath7364"
       clipPathUnits="userSpaceOnUse">
      <path
         id="path7366"
         d="m 118.479,383.863 476.797,0 0,416.001 -476.797,0 0,-416.001 z"
         inkscape:connector-curvature="0" />
    </clipPath>
  </defs>
  <sodipodi:namedview
     id="base"
     pagecolor="#ffffff"
     bordercolor="#666666"
     borderopacity="1.0"
     inkscape:pageopacity="0.0"
     inkscape:pageshadow="2"
     inkscape:zoom="2.8284271"
     inkscape:cx="102.04213"
     inkscape:cy="62.882016"
     inkscape:document-units="px"
     inkscape:current-layer="layer1"
     showgrid="false"
     fit-margin-top="0"
     fit-margin-left="0"
     fit-margin-right="0"
     fit-margin-bottom="0"
     inkscape:window-width="1280"
     inkscape:window-height="738"
     inkscape:window-x="-8"
     inkscape:window-y="-8"
     inkscape:window-maximized="1" />
  <metadata
     id="metadata7193">
    <rdf:RDF>
      <cc:Work
         rdf:about="">
        <dc:format>image/svg+xml</dc:format>
        <dc:type
           rdf:resource="http://purl.org/dc/dcmitype/StillImage" />
        <dc:title />
      </cc:Work>
    </rdf:RDF>
  </metadata>
  <g
     inkscape:label="Layer 1"
     inkscape:groupmode="layer"
     id="layer1"
     transform="translate(-85.434575,-102.37386)">
    <g
       id="g8279"
       transform="matrix(1.1690859,0,0,1.1690859,518.16711,164.68833)">
      <g
         transform="matrix(0.91710003,0,0,-0.91710003,-644.94385,60.461637)"
         inkscape:label="ANNUAL REPORT 2012 EN WEB"
         id="g7356">
        <g
           id="g7380">
          <g
             clip-path="url(#clipPath7384)"
             id="g7382">
            <g
               transform="translate(355.7891,105.3516)"
               id="g7388"
               style="fill:#002d62">
              <path
                 id="path7390"
                 style="fill:#002d62;fill-opacity:1;fill-rule:nonzero;stroke:none"
                 d="m 0,0 c -2,-0.438 -10.936,-4.684 -14.559,-6.512 -0.066,-0.015 -2.007,-0.453 -2.144,-0.484 -1.102,0.266 -15.805,5.133 -23.645,2.617 -3.83,-1.244 -15.423,-4.273 -15.423,-4.273 -1.168,-0.362 0.675,-0.493 1.236,-0.409 0.551,0.073 2.453,0.377 4.707,0.834 4.521,0.914 7.068,1.067 9.451,1.206 4.541,0.257 11.332,-0.434 16.764,-3.137 0.418,-0.203 0.607,-0.436 0.633,-0.717 0.041,-0.768 -1.223,-2.016 -1.723,-2.34 0,0 1.58,-0.09 2.568,0.217 0.369,0.107 0.791,0.131 1.367,0.168 0.747,0.06 1.76,0.123 3.348,0.418 3.131,0.572 4.553,1.351 6.045,2.193 l 0.107,0.061 c 0.961,0.521 9.557,4.027 9.557,4.027 5.135,2.106 7.297,0.078 13.453,0.735 6.166,0.65 11.041,2.455 14.805,2.759 0.705,0.061 -0.908,0.533 -1.344,0.586 -1.822,0.209 -10.48,0.008 -13.119,0.365 C 6.311,-0.906 2.021,0.438 0,0"
                 inkscape:connector-curvature="0" />
            </g>
            <g
               transform="translate(368.9258,96.9922)"
               id="g7392"
               style="fill:#002d62">
              <path
                 id="path7394"
                 style="fill:#002d62;fill-opacity:1;fill-rule:nonzero;stroke:none"
                 d="m 0,0 c 0,-2.59 -1.188,-7.242 -1.188,-7.242 -0.05,-0.192 -0.134,-0.465 -0.173,-0.602 -0.047,-0.131 0.076,-0.248 0.279,-0.248 l 3.143,0 c 0.187,0 0.384,0.057 0.396,0.135 0.02,0.074 0.078,0.287 0.129,0.482 0,0 1.068,4.811 1.068,7.475 C 3.654,0.846 3.6,1.684 3.52,2.516 2.381,2.293 1.162,2.094 -0.082,1.936 -0.027,1.297 0,0.641 0,0"
                 inkscape:connector-curvature="0" />
            </g>
            <g
               transform="translate(371.4609,104.6582)"
               id="g7396"
               style="fill:#002d62">
              <path
                 id="path7398"
                 style="fill:#002d62;fill-opacity:1;fill-rule:nonzero;stroke:none"
                 d="m 0,0 c -0.711,2.393 -1.732,4.641 -3.029,6.697 -1.758,-0.119 -3.098,0 -4.313,0.131 C -7.434,6.844 -7.523,6.844 -7.609,6.844 -6.043,4.883 -4.793,2.656 -3.93,0.256 -3.764,0.23 -3.6,0.201 -3.426,0.182 -2.693,0.088 -1.453,0.027 0,0"
                 inkscape:connector-curvature="0" />
            </g>
            <g
               transform="translate(318.4727,96.9922)"
               id="g7400"
               style="fill:#002d62">
              <path
                 id="path7402"
                 style="fill:#002d62;fill-opacity:1;fill-rule:nonzero;stroke:none"
                 d="M 0,0 C 0,-2.652 1.072,-7.475 1.072,-7.475 1.121,-7.67 1.18,-7.883 1.188,-7.957 1.213,-8.035 1.391,-8.092 1.594,-8.092 l 3.148,0 c 0.19,0 0.317,0.117 0.272,0.248 -0.051,0.137 -0.121,0.41 -0.18,0.602 0,0 -1.137,4.502 -1.17,7.109 C 2.395,0.039 1.164,0.133 0,0.164 L 0,0 z"
                 inkscape:connector-curvature="0" />
            </g>
            <g
               transform="translate(322.875,102.8242)"
               id="g7404"
               style="fill:#002d62">
              <path
                 id="path7406"
                 style="fill:#002d62;fill-opacity:1;fill-rule:nonzero;stroke:none"
                 d="M 0,0 C 0.672,2.6 1.771,5.037 3.229,7.203 2.016,7.1 0.568,6.936 -1.369,6.566 -2.434,4.527 -3.238,2.316 -3.75,0 -2.602,0.074 -1.346,0.074 0,0"
                 inkscape:connector-curvature="0" />
            </g>
            <g
               transform="translate(330.6523,115.043)"
               id="g7408"
               style="fill:#002d62">
              <path
                 id="path7410"
                 style="fill:#002d62;fill-opacity:1;fill-rule:nonzero;stroke:none"
                 d="m 0,0 c 4.033,3.336 9.229,5.346 14.871,5.346 4.295,0 8.322,-1.174 11.783,-3.2 0.959,0.395 1.739,0.676 2.162,0.772 0.854,0.187 1.936,0.072 3.323,-0.158 -4.69,3.896 -10.705,6.244 -17.268,6.244 -8.711,0 -16.473,-4.143 -21.414,-10.551 1.336,0.369 2.52,0.711 3.303,0.967 0.937,0.297 2.021,0.496 3.24,0.58"
                 inkscape:connector-curvature="0" />
            </g>
            <g
               transform="translate(359.7246,116.8418)"
               id="g7412"
               style="fill:#002d62">
              <path
                 id="path7414"
                 style="fill:#002d62;fill-opacity:1;fill-rule:nonzero;stroke:none"
                 d="m 0,0 c -1.582,-0.33 -8.68,-3.715 -11.537,-5.16 -0.057,-0.004 -1.596,-0.363 -1.705,-0.375 -0.867,0.201 -12.524,4.055 -18.727,2.062 -3.041,-0.984 -12.232,-3.388 -12.232,-3.388 -0.928,-0.272 0.539,-0.375 0.99,-0.321 0.428,0.059 1.94,0.309 3.732,0.668 3.573,0.725 5.583,0.848 7.485,0.957 3.588,0.202 8.973,-0.355 13.275,-2.49 0.332,-0.16 0.494,-0.357 0.516,-0.58 0.017,-0.592 -0.975,-1.592 -1.373,-1.846 0,0 1.248,-0.062 2.029,0.17 0.305,0.084 0.631,0.117 1.084,0.137 0.598,0.045 1.4,0.102 2.658,0.33 2.485,0.451 3.612,1.084 4.787,1.738 l 0.088,0.034 c 0.754,0.435 7.551,3.21 7.551,3.21 4.086,1.668 5.799,0.055 10.682,0.579 4.871,0.517 8.75,1.939 11.722,2.193 0.571,0.047 -0.722,0.414 -1.062,0.455 -1.434,0.166 -8.285,0.01 -10.4,0.291 C 5,-0.721 1.592,0.342 0,0"
                 inkscape:connector-curvature="0" />
            </g>
            <g
               transform="translate(401.5352,96.9453)"
               id="g7416"
               style="fill:#002d62">
              <path
                 id="path7418"
                 style="fill:#002d62;fill-opacity:1;fill-rule:evenodd;stroke:none"
                 d="M 0,0 -1.186,8.588 C -1.227,8.93 -1.369,8.953 -1.51,8.633 L -4.879,0.574 C -5.01,0.26 -4.834,0 -4.492,0 L 0,0 M 8.592,-7.34 C 8.645,-7.672 8.424,-7.943 8.08,-7.943 l -6.248,0 c -0.34,0 -0.662,0.271 -0.691,0.619 L 0.945,-5.662 C 0.916,-5.314 0.594,-5.041 0.26,-5.041 l -6.709,0 c -0.342,0 -0.731,-0.262 -0.862,-0.563 l -0.767,-1.775 c -0.135,-0.31 -0.533,-0.564 -0.867,-0.564 l -6.752,0 c -0.34,0 -0.494,0.242 -0.34,0.556 l 11.56,23.68 c 0.151,0.318 0.563,0.568 0.901,0.568 l 6.721,0 c 0.341,0 0.673,-0.271 0.746,-0.615 L 8.592,-7.34 z"
                 inkscape:connector-curvature="0" />
            </g>
            <g
               transform="translate(434.9492,113.8066)"
               id="g7420"
               style="fill:#002d62">
              <path
                 id="path7422"
                 style="fill:#002d62;fill-opacity:1;fill-rule:evenodd;stroke:none"
                 d="m 0,0 -0.789,-5.268 c -0.057,-0.341 -0.383,-0.625 -0.717,-0.625 l -10.213,0 c -0.357,0 -0.685,-0.265 -0.734,-0.607 l -0.348,-2.182 c -0.049,-0.316 0.19,-0.601 0.526,-0.601 l 8.884,0 c 0.354,0 0.584,-0.285 0.528,-0.625 l -0.701,-4.322 c -0.032,-0.338 -0.368,-0.604 -0.717,-0.604 l -8.842,0 c -0.338,0 -0.652,-0.285 -0.707,-0.629 l -0.41,-2.777 c -0.049,-0.346 0.193,-0.619 0.543,-0.619 l 10.963,0 c 0.341,0 0.572,-0.28 0.531,-0.62 l -0.672,-4.71 c -0.045,-0.344 -0.369,-0.616 -0.709,-0.616 l -18.83,0 c -0.346,0 -0.59,0.272 -0.525,0.616 l 3.576,23.568 C -19.316,-0.271 -18.988,0 -18.654,0 L 0,0"
                 inkscape:connector-curvature="0" />
            </g>
            <g
               transform="translate(482.7285,113.8066)"
               id="g7424"
               style="fill:#002d62">
              <path
                 id="path7426"
                 style="fill:#002d62;fill-opacity:1;fill-rule:evenodd;stroke:none"
                 d="m 0,0 -0.793,-5.268 c -0.059,-0.341 -0.375,-0.625 -0.715,-0.625 l -10.234,0 c -0.344,0 -0.67,-0.265 -0.727,-0.607 l -0.347,-2.162 c -0.039,-0.336 0.183,-0.621 0.539,-0.621 l 8.882,0 c 0.342,0 0.596,-0.285 0.532,-0.625 l -0.686,-4.322 c -0.049,-0.338 -0.375,-0.604 -0.738,-0.604 l -8.863,0 c -0.334,0 -0.643,-0.285 -0.698,-0.629 l -0.406,-2.777 c -0.047,-0.346 0.191,-0.619 0.539,-0.619 l 10.979,0 c 0.341,0 0.58,-0.28 0.541,-0.62 l -0.68,-4.71 c -0.047,-0.344 -0.371,-0.616 -0.719,-0.616 l -18.847,0 c -0.342,0 -0.577,0.272 -0.524,0.616 l 3.586,23.568 C -19.326,-0.271 -19.014,0 -18.664,0 L 0,0"
                 inkscape:connector-curvature="0" />
            </g>
            <g
               transform="translate(496.7266,96.9453)"
               id="g7428"
               style="fill:#002d62">
              <path
                 id="path7430"
                 style="fill:#002d62;fill-opacity:1;fill-rule:evenodd;stroke:none"
                 d="M 0,0 -1.164,8.588 C -1.217,8.93 -1.361,8.953 -1.502,8.633 L -4.869,0.574 C -5.006,0.26 -4.838,0 -4.486,0 L 0,0 m 8.596,-7.34 c 0.068,-0.332 -0.155,-0.603 -0.5,-0.603 l -6.237,0 c -0.343,0 -0.668,0.271 -0.693,0.619 l -0.205,1.662 c -0.037,0.348 -0.346,0.621 -0.695,0.621 l -6.698,0 c -0.341,0 -0.734,-0.262 -0.879,-0.563 l -0.757,-1.775 c -0.129,-0.31 -0.541,-0.564 -0.868,-0.564 l -6.759,0 c -0.342,0 -0.498,0.242 -0.352,0.556 l 11.586,23.68 c 0.147,0.318 0.557,0.568 0.9,0.568 l 6.709,0 c 0.348,0 0.68,-0.271 0.752,-0.615 L 8.596,-7.34 z"
                 inkscape:connector-curvature="0" />
            </g>
            <g
               transform="translate(533.6387,113.8066)"
               id="g7432"
               style="fill:#002d62">
              <path
                 id="path7434"
                 style="fill:#002d62;fill-opacity:1;fill-rule:evenodd;stroke:none"
                 d="m 0,0 -3.662,-24.189 c -0.043,-0.344 -0.369,-0.616 -0.715,-0.616 l -6.076,0 c -0.34,0 -0.735,0.254 -0.877,0.565 l -5.377,11.722 c -0.131,0.307 -0.313,0.84 -0.397,1.166 l -0.277,1.514 c -0.051,0.34 -0.094,0.459 -0.094,0.277 0,-0.195 0,-0.625 -0.002,-0.968 0,0 -0.007,-0.59 -0.044,-0.916 -0.028,-0.315 -0.096,-0.854 -0.147,-1.201 l -1.719,-11.543 c -0.054,-0.344 -0.375,-0.616 -0.715,-0.616 l -6.152,0 c -0.332,0 -0.58,0.272 -0.523,0.616 l 3.554,23.568 C -23.178,-0.271 -22.85,0 -22.504,0 l 6.022,0 c 0.337,0 0.738,-0.262 0.89,-0.568 l 5.237,-11.551 c 0.146,-0.311 0.349,-0.848 0.447,-1.17 l 0.379,-1.717 c 0.066,-0.34 0.125,-0.336 0.136,0 l 0.098,1.799 c 0.035,0.348 0.09,0.894 0.166,1.234 L -7.41,-0.615 C -7.359,-0.271 -7.037,0 -6.689,0 L 0,0"
                 inkscape:connector-curvature="0" />
            </g>
            <g
               transform="translate(453.1523,102.9141)"
               id="g7436"
               style="fill:#002d62">
              <path
                 id="path7438"
                 style="fill:#002d62;fill-opacity:1;fill-rule:evenodd;stroke:none"
                 d="m 0,0 c -0.34,0 -0.621,0 -0.621,-0.025 0,0 -0.283,-0.004 -0.627,-0.004 l -1.279,0 c -0.36,0 -0.674,-0.28 -0.721,-0.612 l -0.693,-4.318 c -0.049,-0.336 0.185,-0.615 0.533,-0.615 l 0.82,0 c 0.35,0 0.484,-0.252 0.324,-0.541 0,0 -0.324,-0.584 -0.705,-0.977 -1.047,-1.105 -2.377,-1.64 -3.992,-1.64 -1.559,0 -2.719,0.556 -3.457,1.669 -0.74,1.112 -0.91,2.95 -0.523,5.5 0.378,2.575 1.127,4.422 2.203,5.538 1.08,1.113 2.386,1.673 3.9,1.673 1.572,0 2.734,-0.554 3.496,-1.662 l 0.104,-0.15 c 0.093,-0.201 0.461,-0.363 0.804,-0.363 l 6.6,0 c 0.334,0 0.549,0.261 0.461,0.601 0,0 -0.74,2.826 -1.777,4.108 -1.829,2.252 -4.76,3.39 -8.782,3.39 -3.91,0 -7.156,-1.156 -9.695,-3.435 -2.547,-2.315 -4.127,-5.533 -4.762,-9.672 -0.445,-2.944 -0.256,-5.399 0.545,-7.375 0.819,-1.977 2.047,-3.414 3.688,-4.328 1.636,-0.907 3.843,-1.367 6.551,-1.367 2.697,0 5.005,0.55 6.957,1.593 1.957,1.055 3.564,2.522 4.796,4.422 1.252,1.891 2.075,4.307 2.53,7.258 0.052,0.451 0.09,0.703 0.09,0.703 C 6.807,-0.287 6.549,0 6.207,0 L 0,0 z"
                 inkscape:connector-curvature="0" />
            </g>
          </g>
        </g>
      </g>
    </g>
  </g>
</svg>
