<?xml version="1.0" encoding="UTF-8" standalone="no"?>
<!-- Created with Inkscape (http://www.inkscape.org/) -->

<svg
   xmlns:dc="http://purl.org/dc/elements/1.1/"
   xmlns:cc="http://creativecommons.org/ns#"
   xmlns:rdf="http://www.w3.org/1999/02/22-rdf-syntax-ns#"
   xmlns:svg="http://www.w3.org/2000/svg"
   xmlns="http://www.w3.org/2000/svg"
   xmlns:sodipodi="http://sodipodi.sourceforge.net/DTD/sodipodi-0.dtd"
   xmlns:inkscape="http://www.inkscape.org/namespaces/inkscape"
   width="463.32104"
   height="120.69318"
   id="svg10368"
   version="1.1"
   inkscape:version="0.48.1 r9760"
   sodipodi:docname="New document 20">
  <defs
     id="defs10370">
    <clipPath
       id="clipPath11666"
       clipPathUnits="userSpaceOnUse">
      <path
         id="path11668"
         d="m 0,0 595.276,0 0,836.22 L 0,836.22 0,0 z"
         inkscape:connector-curvature="0" />
    </clipPath>
    <clipPath
       id="clipPath11640"
       clipPathUnits="userSpaceOnUse">
      <path
         id="path11642"
         d="m 0,0 595.276,0 0,836.22 L 0,836.22 0,0 z"
         inkscape:connector-curvature="0" />
    </clipPath>
    <clipPath
       id="clipPath11620"
       clipPathUnits="userSpaceOnUse">
      <path
         id="path11622"
         d="m 0,0 595.276,0 0,836.22 L 0,836.22 0,0 z"
         inkscape:connector-curvature="0" />
    </clipPath>
    <clipPath
       id="clipPath11600"
       clipPathUnits="userSpaceOnUse">
      <path
         id="path11602"
         d="m 0,0 595.276,0 0,836.22 L 0,836.22 0,0 z"
         inkscape:connector-curvature="0" />
    </clipPath>
    <clipPath
       id="clipPath11520"
       clipPathUnits="userSpaceOnUse">
      <path
         id="path11522"
         d="m 0,0 595.276,0 0,836.22 L 0,836.22 0,0 z"
         inkscape:connector-curvature="0" />
    </clipPath>
    <clipPath
       id="clipPath11382"
       clipPathUnits="userSpaceOnUse">
      <path
         id="path11384"
         d="m 0,0 595.276,0 0,836.22 L 0,836.22 0,0 z"
         inkscape:connector-curvature="0" />
    </clipPath>
    <clipPath
       id="clipPath11370"
       clipPathUnits="userSpaceOnUse">
      <path
         id="path11372"
         d="m 525.207,281.829 26.656,0 0,24.402 -26.656,0 0,-24.402 z"
         inkscape:connector-curvature="0" />
    </clipPath>
    <clipPath
       id="clipPath11358"
       clipPathUnits="userSpaceOnUse">
      <path
         id="path11360"
         d="m 401.362,286.509 54.122,0 0,10.915 -54.122,0 0,-10.915 z"
         inkscape:connector-curvature="0" />
    </clipPath>
    <clipPath
       id="clipPath11326"
       clipPathUnits="userSpaceOnUse">
      <path
         id="path11328"
         d="m 0,0 595.276,0 0,836.22 L 0,836.22 0,0 z"
         inkscape:connector-curvature="0" />
    </clipPath>
    <clipPath
       id="clipPath11306"
       clipPathUnits="userSpaceOnUse">
      <path
         id="path11308"
         d="m 0,0 595.276,0 0,836.22 L 0,836.22 0,0 z"
         inkscape:connector-curvature="0" />
    </clipPath>
    <clipPath
       id="clipPath11246"
       clipPathUnits="userSpaceOnUse">
      <path
         id="path11248"
         d="m 0,0 595.276,0 0,836.22 L 0,836.22 0,0 z"
         inkscape:connector-curvature="0" />
    </clipPath>
    <clipPath
       id="clipPath11222"
       clipPathUnits="userSpaceOnUse">
      <path
         id="path11224"
         d="m 0,0 595.276,0 0,836.22 L 0,836.22 0,0 z"
         inkscape:connector-curvature="0" />
    </clipPath>
    <clipPath
       id="clipPath11194"
       clipPathUnits="userSpaceOnUse">
      <path
         id="path11196"
         d="m 0,0 595.276,0 0,836.22 L 0,836.22 0,0 z"
         inkscape:connector-curvature="0" />
    </clipPath>
    <clipPath
       id="clipPath11172"
       clipPathUnits="userSpaceOnUse">
      <path
         id="path11174"
         d="m 0,0 595.276,0 0,836.22 L 0,836.22 0,0 z"
         inkscape:connector-curvature="0" />
    </clipPath>
    <clipPath
       id="clipPath11156"
       clipPathUnits="userSpaceOnUse">
      <path
         id="path11158"
         d="m 0,0 595.276,0 0,836.22 L 0,836.22 0,0 z"
         inkscape:connector-curvature="0" />
    </clipPath>
    <clipPath
       id="clipPath11044"
       clipPathUnits="userSpaceOnUse">
      <path
         id="path11046"
         d="m 0,0 595.276,0 0,836.22 L 0,836.22 0,0 z"
         inkscape:connector-curvature="0" />
    </clipPath>
    <clipPath
       id="clipPath11014"
       clipPathUnits="userSpaceOnUse">
      <path
         id="path11016"
         d="m 0,0 595.276,0 0,836.22 L 0,836.22 0,0 z"
         inkscape:connector-curvature="0" />
    </clipPath>
    <clipPath
       id="clipPath10962"
       clipPathUnits="userSpaceOnUse">
      <path
         id="path10964"
         d="m 0,0 595.276,0 0,836.22 L 0,836.22 0,0 z"
         inkscape:connector-curvature="0" />
    </clipPath>
    <clipPath
       id="clipPath10946"
       clipPathUnits="userSpaceOnUse">
      <path
         id="path10948"
         d="m 0,0 595.276,0 0,836.22 L 0,836.22 0,0 z"
         inkscape:connector-curvature="0" />
    </clipPath>
    <clipPath
       id="clipPath10926"
       clipPathUnits="userSpaceOnUse">
      <path
         id="path10928"
         d="m 0,0 595.276,0 0,836.22 L 0,836.22 0,0 z"
         inkscape:connector-curvature="0" />
    </clipPath>
    <clipPath
       id="clipPath10906"
       clipPathUnits="userSpaceOnUse">
      <path
         id="path10908"
         d="m 0,0 595.276,0 0,836.22 L 0,836.22 0,0 z"
         inkscape:connector-curvature="0" />
    </clipPath>
    <clipPath
       id="clipPath10878"
       clipPathUnits="userSpaceOnUse">
      <path
         id="path10880"
         d="m 0,0 595.276,0 0,836.22 L 0,836.22 0,0 z"
         inkscape:connector-curvature="0" />
    </clipPath>
    <clipPath
       id="clipPath10858"
       clipPathUnits="userSpaceOnUse">
      <path
         id="path10860"
         d="m 0,0 595.276,0 0,836.22 L 0,836.22 0,0 z"
         inkscape:connector-curvature="0" />
    </clipPath>
    <clipPath
       id="clipPath10842"
       clipPathUnits="userSpaceOnUse">
      <path
         id="path10844"
         d="m 0,0 595.276,0 0,836.22 L 0,836.22 0,0 z"
         inkscape:connector-curvature="0" />
    </clipPath>
    <clipPath
       id="clipPath10818"
       clipPathUnits="userSpaceOnUse">
      <path
         id="path10820"
         d="m 0,0 595.276,0 0,836.22 L 0,836.22 0,0 z"
         inkscape:connector-curvature="0" />
    </clipPath>
    <clipPath
       id="clipPath10798"
       clipPathUnits="userSpaceOnUse">
      <path
         id="path10800"
         d="m 0,0 595.276,0 0,836.22 L 0,836.22 0,0 z"
         inkscape:connector-curvature="0" />
    </clipPath>
    <clipPath
       id="clipPath10728"
       clipPathUnits="userSpaceOnUse">
      <path
         id="path10730"
         d="m 0,0 595.276,0 0,836.22 L 0,836.22 0,0 z"
         inkscape:connector-curvature="0" />
    </clipPath>
    <clipPath
       id="clipPath10712"
       clipPathUnits="userSpaceOnUse">
      <path
         id="path10714"
         d="m 0,0 595.276,0 0,836.22 L 0,836.22 0,0 z"
         inkscape:connector-curvature="0" />
    </clipPath>
    <clipPath
       id="clipPath10692"
       clipPathUnits="userSpaceOnUse">
      <path
         id="path10694"
         d="m 0,0 595.276,0 0,836.22 L 0,836.22 0,0 z"
         inkscape:connector-curvature="0" />
    </clipPath>
    <clipPath
       id="clipPath10672"
       clipPathUnits="userSpaceOnUse">
      <path
         id="path10674"
         d="m 0,0 595.276,0 0,836.22 L 0,836.22 0,0 z"
         inkscape:connector-curvature="0" />
    </clipPath>
    <clipPath
       id="clipPath10644"
       clipPathUnits="userSpaceOnUse">
      <path
         id="path10646"
         d="m 0,0 595.276,0 0,836.22 L 0,836.22 0,0 z"
         inkscape:connector-curvature="0" />
    </clipPath>
    <clipPath
       id="clipPath10624"
       clipPathUnits="userSpaceOnUse">
      <path
         id="path10626"
         d="m 0,0 595.276,0 0,836.22 L 0,836.22 0,0 z"
         inkscape:connector-curvature="0" />
    </clipPath>
    <clipPath
       id="clipPath10608"
       clipPathUnits="userSpaceOnUse">
      <path
         id="path10610"
         d="m 0,0 595.276,0 0,836.22 L 0,836.22 0,0 z"
         inkscape:connector-curvature="0" />
    </clipPath>
    <clipPath
       id="clipPath10584"
       clipPathUnits="userSpaceOnUse">
      <path
         id="path10586"
         d="m 0,0 595.276,0 0,836.22 L 0,836.22 0,0 z"
         inkscape:connector-curvature="0" />
    </clipPath>
    <clipPath
       id="clipPath10564"
       clipPathUnits="userSpaceOnUse">
      <path
         id="path10566"
         d="m 0,0 595.276,0 0,836.22 L 0,836.22 0,0 z"
         inkscape:connector-curvature="0" />
    </clipPath>
    <clipPath
       id="clipPath10506"
       clipPathUnits="userSpaceOnUse">
      <path
         id="path10508"
         d="m 0,836.22 595.276,0 L 595.276,0 0,0 0,836.22 z"
         inkscape:connector-curvature="0" />
    </clipPath>
    <clipPath
       id="clipPath10496"
       clipPathUnits="userSpaceOnUse">
      <path
         id="path10498"
         d="m 0,0 595.276,0 0,836.22 L 0,836.22 0,0 z"
         inkscape:connector-curvature="0" />
    </clipPath>
  </defs>
  <sodipodi:namedview
     id="base"
     pagecolor="#ffffff"
     bordercolor="#666666"
     borderopacity="1.0"
     inkscape:pageopacity="0.0"
     inkscape:pageshadow="2"
     inkscape:zoom="1.7535695"
     inkscape:cx="231.66053"
     inkscape:cy="60.346594"
     inkscape:document-units="px"
     inkscape:current-layer="layer1"
     showgrid="false"
     fit-margin-top="0"
     fit-margin-left="0"
     fit-margin-right="0"
     fit-margin-bottom="0"
     inkscape:window-width="1280"
     inkscape:window-height="752"
     inkscape:window-x="0"
     inkscape:window-y="0"
     inkscape:window-maximized="0" />
  <metadata
     id="metadata10373">
    <rdf:RDF>
      <cc:Work
         rdf:about="">
        <dc:format>image/svg+xml</dc:format>
        <dc:type
           rdf:resource="http://purl.org/dc/dcmitype/StillImage" />
        <dc:title></dc:title>
      </cc:Work>
    </rdf:RDF>
  </metadata>
  <g
     inkscape:label="Layer 1"
     inkscape:groupmode="layer"
     id="layer1"
     transform="translate(-38.500264,-65.15098)">
    <g
       id="g14279"
       transform="translate(-89.7955,-760.6206)">
      <g
         transform="matrix(8.9188309,0,0,-8.9188309,149.51748,825.77158)"
         id="g11064">
        <path
           id="path11066"
           style="fill:#fddd04;fill-opacity:1;fill-rule:nonzero;stroke:none"
           d="m 0,0 c 1.302,0 2.358,-1.055 2.358,-2.358 0,-1.3 -1.056,-2.355 -2.358,-2.355 -1.302,0 -2.357,1.055 -2.357,2.355 C -2.357,-1.055 -1.302,0 0,0 m 0,-0.765 c -0.878,0 -1.591,-0.713 -1.591,-1.593 0,-0.878 0.713,-1.59 1.591,-1.59 0.879,0 1.593,0.712 1.593,1.59 0,0.88 -0.714,1.593 -1.593,1.593"
           inkscape:connector-curvature="0" />
      </g>
      <g
         transform="matrix(8.9188309,0,0,-8.9188309,169.83729,929.27818)"
         id="g11068">
        <path
           id="path11070"
           style="fill:#00a650;fill-opacity:1;fill-rule:nonzero;stroke:none"
           d="m 0,0 c -0.2,-1.096 -1.158,-1.927 -2.309,-1.927 -1.297,0 -2.348,1.055 -2.348,2.351 0,0.782 0.382,1.478 0.968,1.901 L -3.17,1.773 C -3.613,1.489 -3.908,0.99 -3.908,0.424 c 0,-0.884 0.715,-1.6 1.599,-1.6 0.83,0 1.512,0.635 1.589,1.449 L 0,0 z"
           inkscape:connector-curvature="0" />
      </g>
      <g
         transform="matrix(8.9188309,0,0,-8.9188309,142.53222,885.24145)"
         id="g11072">
        <path
           id="path11074"
           style="fill:#ed1c24;fill-opacity:1;fill-rule:nonzero;stroke:none"
           d="m 0,0 c -0.373,-0.201 -0.666,-0.551 -0.784,-0.992 -0.201,-0.752 0.17,-1.523 0.844,-1.849 L 0.348,-2.97 c -0.259,-0.053 -0.625,-0.289 -0.779,-0.467 -0.896,0.521 -1.365,1.593 -1.084,2.641 0.154,0.569 0.491,1.025 0.945,1.331 L -0.55,0.491 -0.409,0.316 -0.202,0.109 0,0 z"
           inkscape:connector-curvature="0" />
      </g>
      <g
         transform="matrix(8.9188309,0,0,-8.9188309,159.35492,907.07653)"
         id="g11076">
        <path
           id="path11078"
           style="fill:#00adef;fill-opacity:1;fill-rule:nonzero;stroke:none"
           d="m 0,0 c -0.224,-0.596 -0.078,-1.293 0.419,-1.746 0.652,-0.594 1.663,-0.544 2.254,0.106 0.161,0.177 0.275,0.38 0.344,0.594 L 3.766,-1.182 C 3.672,-1.529 3.495,-1.864 3.234,-2.148 2.36,-3.111 0.871,-3.183 -0.09,-2.307 -0.741,-1.715 -0.982,-0.84 -0.8,-0.039 L 0,0 z"
           inkscape:connector-curvature="0" />
      </g>
      <g
         transform="matrix(8.9188309,0,0,-8.9188309,161.04952,864.37406)"
         id="g11080">
        <path
           id="path11082"
           style="fill:#111941;fill-opacity:1;fill-rule:nonzero;stroke:none"
           d="m 0,0 -0.004,-0.003 0.001,0 c -0.368,-0.242 -0.81,-0.382 -1.282,-0.382 -0.473,0 -0.919,0.136 -1.288,0.375 0.162,0.223 0.393,0.406 0.649,0.521 0.196,-0.087 0.409,-0.131 0.639,-0.131 0.227,0 0.437,0.046 0.634,0.133 C -0.392,0.377 -0.193,0.222 0,0"
           inkscape:connector-curvature="0" />
      </g>
      <g
         transform="matrix(8.9188309,0,0,-8.9188309,149.59151,851.88422)"
         id="g11084">
        <path
           id="path11086"
           style="fill:#00adef;fill-opacity:1;fill-rule:nonzero;stroke:none"
           d="M 0,0 C 0.468,0 0.906,-0.138 1.272,-0.374 1.213,-0.483 1.054,-0.629 0.896,-0.736 0.798,-0.807 0.701,-0.857 0.631,-0.889 l -0.004,0.001 c -0.192,0.085 -0.405,0.13 -0.627,0.13 -0.882,0 -1.596,-0.714 -1.596,-1.594 0,-0.882 0.714,-1.597 1.596,-1.597 0.829,0 1.511,0.633 1.588,1.445 0.212,0.112 0.516,0.337 0.754,0.39 l 0.01,-0.238 c 0,-1.3 -1.054,-2.354 -2.352,-2.354 -1.3,0 -2.353,1.054 -2.353,2.354 C -2.353,-1.054 -1.3,0 0,0"
           inkscape:connector-curvature="0" />
      </g>
      <g
         transform="matrix(8.9188309,0,0,-8.9188309,161.376,880.83555)"
         id="g11088">
        <path
           id="path11090"
           style="fill:#111941;fill-opacity:1;fill-rule:nonzero;stroke:none"
           d="m 0,0 0.013,0.021 c 0.139,0.21 0.229,0.456 0.254,0.721 L 0.458,0.878 C 0.639,0.989 0.851,1.095 1.021,1.132 L 1.031,0.894 C 1.033,0.363 0.864,-0.13 0.54,-0.548 0.402,-0.364 0.229,-0.17 0,0"
           inkscape:connector-curvature="0" />
      </g>
      <g
         transform="matrix(8.9188309,0,0,-8.9188309,187.22627,900.43209)"
         id="g11092">
        <path
           id="path11094"
           style="fill:#00a650;fill-opacity:1;fill-rule:nonzero;stroke:none"
           d="m 0,0 c -0.533,-0.532 -1.257,-0.759 -1.95,-0.673 -0.034,0.218 -0.025,0.532 0.033,0.762 0.488,-0.077 1.005,0.07 1.38,0.445 0.625,0.626 0.625,1.633 0,2.258 -0.622,0.624 -1.631,0.624 -2.256,0 -0.124,-0.126 -0.224,-0.268 -0.3,-0.418 L -3.11,2.334 -3.426,2.498 -3.724,2.592 -3.818,2.614 c 0.114,0.259 0.278,0.501 0.49,0.715 0.919,0.917 2.41,0.917 3.328,0 C 0.919,2.409 0.919,0.917 0,0"
           inkscape:connector-curvature="0" />
      </g>
      <g
         transform="matrix(8.9188309,0,0,-8.9188309,163.53617,897.80184)"
         id="g11096">
        <path
           id="path11098"
           style="fill:#ed1c24;fill-opacity:1;fill-rule:nonzero;stroke:none"
           d="m 0,0 c 0.001,0.707 -0.469,1.354 -1.184,1.545 -0.41,0.109 -0.824,0.051 -1.17,-0.136 -0.111,0.061 -0.372,0.229 -0.565,0.543 0.546,0.369 1.117,0.544 1.93,0.325 C -0.176,2.06 0.604,1.24 0.733,0.333 L 0,0 z"
           inkscape:connector-curvature="0" />
      </g>
      <g
         transform="matrix(8.9188309,0,0,-8.9188309,185.71553,917.8157)"
         id="g11100">
        <path
           id="path11102"
           style="fill:#111941;fill-opacity:1;fill-rule:nonzero;stroke:none"
           d="M 0,0 C 0.251,0.579 0.127,1.256 -0.333,1.756 -0.954,2.371 -1.962,2.382 -2.586,1.762 -2.745,1.587 -2.879,1.394 -2.956,1.182 L -3.7,1.35 c 0.112,0.346 0.305,0.671 0.58,0.947 0.482,0.483 1.168,0.728 1.821,0.689 C -0.705,2.95 -0.137,2.663 0.207,2.297 0.929,1.526 0.999,0.588 0.804,0 L 0,0 z"
           inkscape:connector-curvature="0" />
      </g>
      <g
         transform="matrix(8.9188309,0,0,-8.9188309,163.17403,922.71936)"
         id="g11104">
        <path
           id="path11106"
           style="fill:#fddd04;fill-opacity:1;fill-rule:nonzero;stroke:none"
           d="m 0,0 c -0.053,0.318 -0.191,0.577 -0.431,0.819 -0.42,0.43 -1,0.573 -1.535,0.413 L -1.97,1.235 c -0.271,0.105 -0.551,0.244 -0.773,0.493 0.124,0.075 0.256,0.131 0.388,0.18 C -1.531,2.221 -0.554,2.03 0.108,1.356 0.58,0.879 0.816,0.244 0.797,-0.383 0.54,-0.343 0.254,-0.229 0,0"
           inkscape:connector-curvature="0" />
      </g>
      <g
         transform="matrix(8.9188309,0,0,-8.9188309,551.3483,898.86318)"
         id="g11108">
        <path
           id="path11110"
           style="fill:#111941;fill-opacity:1;fill-rule:nonzero;stroke:none"
           d="m 0,0 c -0.365,-0.223 -0.659,-0.487 -0.879,-0.796 -0.214,-0.306 -0.316,-0.596 -0.304,-0.876 0.016,-0.412 0.255,-0.749 0.717,-1.019 0.391,-0.23 0.895,-0.366 1.511,-0.412 0.377,-0.029 0.757,-0.024 1.137,0.028 0.6,0.087 1.13,0.336 1.547,0.663 L 3.414,-1.964 C 3.158,-2.104 2.835,-2.212 2.482,-2.243 -0.092,-2.481 1.057,-0.113 2.817,-0.05 l 0.231,0.016 c 0.39,0 0.742,-0.126 0.992,-0.327 l 0.475,0.35 C 4.292,0.313 3.876,0.559 3.224,0.642 3,0.672 2.627,0.667 2.509,0.667 l -2.824,0 0,-0.19 0.474,0 C 0.366,0.47 0.338,0.302 0.258,0.206 0.204,0.141 0.116,0.068 0,0"
           inkscape:connector-curvature="0" />
      </g>
      <g
         transform="matrix(8.9188309,0,0,-8.9188309,279.26339,892.86259)"
         id="g11112">
        <path
           id="path11114"
           style="fill:#111941;fill-opacity:1;fill-rule:nonzero;stroke:none"
           d="m 0,0 3.314,0 -0.98,-2.586 1.788,0 -0.406,-1.046 -1.778,0 -2.289,0 1.149,3.034 c 0.056,0.152 -0.05,0.409 -0.323,0.413 L 0,-0.185 0,0 z"
           inkscape:connector-curvature="0" />
      </g>
      <g
         transform="matrix(8.9188309,0,0,-8.9188309,508.95798,892.8724)"
         id="g11116">
        <path
           id="path11118"
           style="fill:#111941;fill-opacity:1;fill-rule:nonzero;stroke:none"
           d="m 0,0 3.313,0 -1.377,-3.631 -2.288,0 1.149,3.044 C 0.89,-0.345 0.681,-0.186 0.474,-0.186 L 0,-0.186 0,0 z"
           inkscape:connector-curvature="0" />
      </g>
      <g
         transform="matrix(8.9188309,0,0,-8.9188309,451.9176,892.86259)"
         id="g11120">
        <path
           id="path11122"
           style="fill:#111941;fill-opacity:1;fill-rule:nonzero;stroke:none"
           d="M 0,0 4.58,0 C 6.295,0 6.739,-1.823 4.998,-2.45 4.565,-2.601 3.46,-2.575 3.367,-2.575 l -1.029,0 -0.4,-1.057 -2.29,0 1.15,3.045 c 0.066,0.236 -0.153,0.404 -0.323,0.402 L 0,-0.185 0,0 z m 3.557,-0.755 -0.519,0 -0.387,-1.033 0.659,0 0.156,0.037 c 0.302,0.183 0.556,0.709 0.241,0.952 l -0.15,0.044 z"
           inkscape:connector-curvature="0" />
      </g>
      <g
         transform="matrix(8.9188309,0,0,-8.9188309,415.63223,892.8724)"
         id="g11124">
        <path
           id="path11126"
           style="fill:#111941;fill-opacity:1;fill-rule:nonzero;stroke:none"
           d="m 0,0 c 1.106,0 2.203,0.001 3.313,0.001 l -1.377,-3.632 -2.29,0 0.511,1.348 -1.377,-1.128 -0.307,1.321 -0.584,-1.541 -2.29,0 1.15,3.032 c 0.065,0.249 -0.092,0.407 -0.324,0.413 l -0.475,0 0,0.187 3.295,0 0.007,-0.032 0.341,-1.479 1.066,0.979 c 0.118,0.119 0.047,0.347 -0.186,0.347 L 0,-0.184 0,0 z"
           inkscape:connector-curvature="0" />
      </g>
      <g
         transform="matrix(8.9188309,0,0,-8.9188309,372.94126,894.51704)"
         id="g11128">
        <path
           id="path11130"
           style="fill:#111941;fill-opacity:1;fill-rule:nonzero;stroke:none"
           d="m 0,0 0.276,0 0,0.185 -2.243,0 0,-0.185 0.474,0 c 0.207,0.003 0.222,-0.116 0.102,-0.223 l -1.227,-1.126 -0.718,1.511 -0.011,0.023 -2.884,0 0,-0.185 0.474,0 c 0.173,-0.005 0.238,-0.129 0.344,-0.303 l 0.869,-1.813 -0.488,-1.33 2.303,0 0.512,1.399 L 0,0 z"
           inkscape:connector-curvature="0" />
      </g>
      <g
         transform="matrix(8.9188309,0,0,-8.9188309,267.90075,897.09636)"
         id="g11132">
        <path
           id="path11134"
           style="fill:#111941;fill-opacity:1;fill-rule:nonzero;stroke:none"
           d="M 0,0 C -0.356,0.238 -0.828,0.391 -1.416,0.45 -1.64,0.475 -1.879,0.482 -2.13,0.474 l -2.824,0 0,-0.187 0.474,0 c 0.206,-0.012 0.178,-0.178 0.099,-0.272 -0.055,-0.066 -0.141,-0.138 -0.258,-0.206 -0.366,-0.221 -0.66,-0.486 -0.879,-0.794 -0.215,-0.308 -0.317,-0.598 -0.305,-0.874 0.018,-0.412 0.256,-0.75 0.717,-1.021 0.393,-0.227 0.895,-0.363 1.512,-0.408 0.377,-0.027 0.758,-0.019 1.136,0.027 0.496,0.062 0.968,0.182 1.417,0.363 0.542,0.217 0.961,0.499 1.259,0.842 0.288,0.332 0.424,0.676 0.41,1.032 C 0.61,-0.609 0.402,-0.268 0,0 m -1.659,-1.409 c -0.31,-0.797 -0.822,-1.133 -1.34,-1.133 -0.519,0 -0.843,0.354 -0.538,1.133 0.291,0.74 0.821,1.131 1.339,1.131 0.519,0 0.867,-0.288 0.539,-1.131"
           inkscape:connector-curvature="0" />
      </g>
    </g>
  </g>
</svg>
