<?xml version="1.0" encoding="utf-8"?>
<!-- Generator: Adobe Illustrator 13.0.0, SVG Export Plug-In . SVG Version: 6.00 Build 14948)  -->
<!DOCTYPE svg PUBLIC "-//W3C//DTD SVG 1.1//EN" "http://www.w3.org/Graphics/SVG/1.1/DTD/svg11.dtd">
<svg version="1.1" id="Layer_1" xmlns="http://www.w3.org/2000/svg" xmlns:xlink="http://www.w3.org/1999/xlink" x="0px" y="0px"
	 width="300px" height="60px" viewBox="0 0 300 60" enable-background="new 0 0 300 60" xml:space="preserve">
<polyline fill-rule="evenodd" clip-rule="evenodd" points="105.031,40.648 108.821,40.648 108.821,23.94 115.248,23.94 
	115.248,20.854 98.659,20.854 98.659,23.94 105.031,23.94 "/>
<path d="M124.948,20.858h-4.939l-6.991,19.79h3.959l1.92-5.753h7.063l2.052,5.753h4.159 M119.547,32.084l1.747-5.036
	c0.411-1.119,0.708-2.332,1.021-3.413h0.072c0.305,1.081,0.662,2.247,1.068,3.447l1.81,5.002H119.547z"/>
<path d="M146.488,22.325c-1.28-1.03-3.328-1.662-6.143-1.662c-2.764,0-4.749,0.208-6.173,0.419v19.565h3.773v-7.386
	c0.543,0.132,1.281,0.174,2.069,0.174c2.849,0,5.193-0.695,6.762-2.157c1.157-1.069,1.755-2.663,1.755-4.499
	C148.532,24.865,147.709,23.296,146.488,22.325 M140.057,30.546c-0.895,0-1.581-0.051-2.111-0.221v-6.626
	c0.407-0.063,1.255-0.166,2.434-0.166c2.65,0,4.405,1.043,4.405,3.315C144.784,29.21,142.974,30.546,140.057,30.546"/>
<path d="M166.287,22.376c-1.213-1.064-3.185-1.712-5.932-1.712c-2.34,0-4.146,0.195-5.485,0.398v19.586h2.666v-7.852
	c0.679,0.165,1.535,0.203,2.426,0.203c2.755,0,5.045-0.703,6.507-2.132c1.086-1.061,1.653-2.54,1.653-4.35
	C168.122,24.759,167.401,23.343,166.287,22.376 M160.08,30.91c-1.005,0-1.865-0.063-2.544-0.288v-7.636
	c0.479-0.123,1.476-0.237,2.819-0.237c2.888,0,5.088,1.115,5.088,3.909C165.443,29.367,163.48,30.91,160.08,30.91"/>
<path d="M180.247,20.511c-5.863,0-10.293,4.294-10.293,10.51c0,5.74,4.176,9.996,10.064,9.996h0.042
	c5.622,0,10.302-3.87,10.302-10.471C190.362,24.805,186.353,20.511,180.247,20.511 M180.116,38.893h-0.025
	c-4.507,0-7.313-3.705-7.313-7.979c0-4.443,2.539-8.301,7.385-8.301c4.838,0,7.343,4.032,7.343,8.06
	C187.505,35.37,184.698,38.893,180.116,38.893"/>
<path d="M204.718,35.064c-0.483-1.856-1.479-3.302-3.011-3.857v-0.056c2.124-0.652,3.935-2.412,3.935-5.049
	c0-1.535-0.636-2.896-1.603-3.739c-1.306-1.14-3.205-1.7-6.151-1.7c-1.984,0-4.07,0.195-5.494,0.432v19.553h2.649v-8.564h2.98
	c2.434,0.085,3.553,1.158,4.18,3.884c0.594,2.488,1.086,4.134,1.383,4.681h2.793C205.904,39.834,205.438,37.871,204.718,35.064
	 M198.219,30.092h-3.176v-7.109c0.487-0.131,1.509-0.263,2.98-0.263c2.798,0,4.938,0.997,4.938,3.663
	C202.962,28.646,201.144,30.092,198.219,30.092"/>
<polyline fill-rule="evenodd" clip-rule="evenodd" points="213.811,40.648 216.481,40.648 216.481,23.054 223.358,23.054 
	223.358,20.854 206.964,20.854 206.964,23.054 213.811,23.054 "/>
<path fill-rule="evenodd" clip-rule="evenodd" d="M224.974,20.858v11.146c0,6.566,3.399,9.018,7.796,9.018
	c4.757,0,8.31-2.65,8.31-9.056V20.858h-2.684v11.226c0,4.651-2.149,6.805-5.485,6.805c-3.062,0-5.291-2.115-5.291-6.805V20.858"/>
<path fill-rule="evenodd" clip-rule="evenodd" d="M261.853,30.274h-7.16v2.077h4.506v5.728c-0.737,0.339-2.09,0.606-4.087,0.606
	c-5.393,0-8.602-3.294-8.602-7.958c0-4.595,3.286-7.898,8.869-7.898c2.311,0,3.87,0.433,5.074,0.962l0.695-2.12
	c-0.933-0.441-3.044-1.018-5.668-1.018c-7.699,0-11.811,4.867-11.811,10.196c0,2.87,1.094,5.486,2.912,7.165
	c2.107,2.01,4.871,2.849,8.301,2.849c3.146,0,5.668-0.746,6.97-1.221"/>
<path d="M274.257,20.858h-3.272l-7.491,19.79h2.819l2.293-6.317h7.907l2.403,6.317h2.87 M269.191,32.275l2.246-5.991
	c0.45-1.157,0.733-2.196,1.073-3.226h0.051c0.305,1.005,0.632,2.031,1.098,3.29l2.26,5.927H269.191z"/>
<polyline fill-rule="evenodd" clip-rule="evenodd" points="283.351,40.648 295.501,40.648 295.501,38.414 286.056,38.414 
	286.056,20.854 283.351,20.854 "/>
<path fill="#EB2D2E" d="M72.239,7.661H49.121v46.214h13.202V40.648h9.916c9.106,0,16.521-7.386,16.521-16.496
	C88.76,15.025,81.345,7.661,72.239,7.661 M72.239,27.455h-9.916v-6.601h9.916c1.81,0,3.311,1.463,3.311,3.298
	C75.55,25.967,74.049,27.455,72.239,27.455"/>
<path fill="#BFD33B" d="M6.192,7.665v13.193h9.891v33.013h13.24l2.493-8.233h14.838l2.467,8.233V7.665 M35.737,32.419l3.493-11.561
	l3.468,11.561H35.737z"/>
<polyline fill-rule="evenodd" clip-rule="evenodd" fill="#72BC4A" points="16.083,53.875 29.327,53.875 29.327,20.858 39.23,20.858 
	39.23,7.661 29.327,7.661 "/>
<polyline fill-rule="evenodd" clip-rule="evenodd" fill="#C92C32" points="49.121,53.875 62.323,53.875 49.121,7.661 "/>
</svg>
