<?xml version="1.0" encoding="UTF-8" standalone="no"?>
<!-- Created with Inkscape (http://www.inkscape.org/) -->

<svg
   xmlns:dc="http://purl.org/dc/elements/1.1/"
   xmlns:cc="http://creativecommons.org/ns#"
   xmlns:rdf="http://www.w3.org/1999/02/22-rdf-syntax-ns#"
   xmlns:svg="http://www.w3.org/2000/svg"
   xmlns="http://www.w3.org/2000/svg"
   xmlns:sodipodi="http://sodipodi.sourceforge.net/DTD/sodipodi-0.dtd"
   xmlns:inkscape="http://www.inkscape.org/namespaces/inkscape"
   id="svg2"
   version="1.1"
   inkscape:version="0.91 r13725"
   width="334"
   height="65.5"
   viewBox="0 0 334 65.5"
   sodipodi:docname="20151020_air_europa_logo_nuevo.svg">
  <metadata
     id="metadata8">
    <rdf:RDF>
      <cc:Work
         rdf:about="">
        <dc:format>image/svg+xml</dc:format>
        <dc:type
           rdf:resource="http://purl.org/dc/dcmitype/StillImage" />
        <dc:title></dc:title>
      </cc:Work>
    </rdf:RDF>
  </metadata>
  <defs
     id="defs6" />
  <sodipodi:namedview
     pagecolor="#ffffff"
     bordercolor="#666666"
     borderopacity="1"
     objecttolerance="10"
     gridtolerance="10"
     guidetolerance="10"
     inkscape:pageopacity="0"
     inkscape:pageshadow="2"
     inkscape:window-width="1366"
     inkscape:window-height="705"
     id="namedview4"
     showgrid="false"
     inkscape:snap-global="false"
     showguides="false"
     inkscape:zoom="1.08"
     inkscape:cx="216.59425"
     inkscape:cy="7.7567681"
     inkscape:window-x="-8"
     inkscape:window-y="-8"
     inkscape:window-maximized="1"
     inkscape:current-layer="g3408"
     units="px"
     width="550px"
     guidehicolor="#f10000"
     guidehiopacity="0.49803922" />
  <g
     transform="matrix(0.97060771,0,0,1.0302824,0,-511.5)"
     style="font-style:normal;font-variant:normal;font-weight:normal;font-stretch:normal;font-size:41.21129608px;line-height:125%;font-family:Courier;-inkscape-font-specification:Courier;letter-spacing:0px;word-spacing:0px;fill:#000000;fill-opacity:1;stroke:none;stroke-width:1px;stroke-linecap:butt;stroke-linejoin:miter;stroke-opacity:1"
     id="text3426" />
  <g
     id="g3408"
     transform="translate(0,-42)">
    <g
       id="g3480"
       transform="matrix(0.60505713,0,0,0.60505713,0.31907744,42.357952)">
      <g
         id="g3493">
        <path
           id="path3467"
           d="m 228.23336,32.434784 c -4.42133,-3.7412 -3.221,-10.7402 2.14739,-12.5213 6.07463,-2.0154 11.9918,3.7413 9.79221,9.5267 -1.79523,4.7218 -8.04573,6.2895 -11.9396,2.9946 z"
           style="opacity:1;fill:#0970cb;fill-opacity:1;stroke:none;stroke-width:0.75000006;stroke-miterlimit:4;stroke-dasharray:none;stroke-opacity:1"
           inkscape:connector-curvature="0" />
        <path
           id="path3471"
           style="opacity:1;fill:#0970cb;fill-opacity:1;stroke:none;stroke-width:0.75000006;stroke-miterlimit:4;stroke-dasharray:none;stroke-opacity:1"
           d="m 425.74616,62.222784 c -0.42287,6.9778 2.65598,13.316404 8.46313,13.435704 4.34992,0.3274 9.42874,-4.529304 9.04948,-13.111304 -0.31806,-7.1974 -2.14778,-12.8306 -8.78401,-13.0964 -5.27988,0.3138 -8.25716,4.9919 -8.7286,12.772 z m 30.72244,-0.01 c 0.27584,14.977904 -8.93949,24.784504 -22.09894,25.277804 -12.44337,0.4663 -22.21057,-10.5225 -22.0989,-25.012304 0.10642,-13.8135 9.36453,-24.1596 21.56798,-24.3486 13.0023,-0.2014 22.37144,10.0517 22.62986,24.0831 z"
           inkscape:connector-curvature="0" />
        <path
           style="opacity:1;fill:#0970cb;fill-opacity:1;stroke:none;stroke-width:0.75000006;stroke-miterlimit:4;stroke-dasharray:none;stroke-opacity:1"
           d="m 382.58375,38.873184 9.40051,0.039 2.31664,7.4976 c 2.6689,-8.3446 10.30795,-8.4721 14.29341,-7.9812 l 0.0129,14.2659 -12.90122,0.7643 -0.0545,32.866904 -13.17813,0 z"
           id="path3469"
           inkscape:connector-curvature="0" />
        <path
           style="opacity:1;fill:#0970cb;fill-opacity:1;stroke:none;stroke-width:0.75000006;stroke-miterlimit:4;stroke-dasharray:none;stroke-opacity:1"
           d="m 251.15414,38.732084 9.40051,0.039 2.31664,7.4977 c 2.6689,-8.3446 10.30795,-8.4721 14.29341,-7.9813 l 0.0129,14.266 -12.90122,0.7642 -0.0545,32.866904 -13.17813,0 z"
           id="path3465"
           inkscape:connector-curvature="0" />
        <path
           style="opacity:1;fill:#0970cb;fill-opacity:1;stroke:none;stroke-width:0.75000006;stroke-miterlimit:4;stroke-dasharray:none;stroke-opacity:1"
           d="m 286.3123,86.420788 0.003,-31.167704 0.0593,-31.821299 36.56938,-0.04 -0.009,11.0084 -21.94732,0.021 c 0.0128,4.5119 0.0745,10.3323 0.053,14.844 l 18.29122,0.1576 9.5e-4,11.0503 -18.35461,-0.059 0.05,14.959304 13.05179,0.061 8.86798,0.05 0.008,10.9416 z"
           id="path3463"
           inkscape:connector-curvature="0" />
        <path
           style="opacity:1;fill:#0970cb;fill-opacity:1;stroke:none;stroke-width:0.75000006;stroke-miterlimit:4;stroke-dasharray:none;stroke-opacity:1"
           d="m 226.5541,86.033488 0.0258,-47.348704 13,0 -0.0708,47.464304 z"
           id="path3461"
           inkscape:connector-curvature="0" />
        <path
           id="path3459"
           style="opacity:1;fill:#0970cb;fill-opacity:1;stroke:none;stroke-width:0.75000006;stroke-miterlimit:4;stroke-dasharray:none;stroke-opacity:1"
           d="m 197.63922,61.890884 -5.66539,-23.2692 -5.40796,23.3131 z m -31.96073,23.965704 16.70164,-61.878504 19.43539,0.1168 16.94772,62.006604 -15.58344,0.05 -2.8006,-10.7347 c -5.45952,0.088 -11.58282,0.1996 -17.03926,0.052 l -2.66205,10.6273 z"
           inkscape:connector-curvature="0" />
        <path
           id="path3455"
           style="opacity:1;fill:#0970cb;fill-opacity:1;stroke:none;stroke-width:0.75000006;stroke-miterlimit:4;stroke-dasharray:none;stroke-opacity:1"
           d="m 537.51118,73.991684 -0.12792,-8.3581 c -8.13075,-1.1984 -16.67682,3.1373 -12.24042,10.051604 2.60029,4.0527 9.75578,1.7437 12.36834,-1.693504 z M 521.4754,87.103688 c -7.18729,-2.0852 -10.94224,-10.194 -9.35292,-18.076904 1.04109,-5.1637 4.61052,-11.434 18.58639,-12.2513 l 6.42346,-0.3756 c 0.62467,-0.037 -0.0239,-4.1049 -1.19501,-5.6692 -4.16156,-5.9187 -11.95296,-2.1081 -19.11497,-0.2333 l -2.85339,-8.9312 c 2.27854,-1.1839 5.20233,-2.0326 9.12438,-3.3842 7.15834,-2.4668 16.99338,-0.9593 21.19558,1.6929 2.5183,1.5894 4.44126,4.2083 5.96341,7.6584 0.55448,1.2568 1.13845,4.3517 1.17039,5.9008 l 0.15717,32.913104 -10.12166,0.073 -2.30514,-5.5244 c -5.43295,6.5073 -10.42367,8.2556 -17.67769,6.2079 z"
           inkscape:connector-curvature="0" />
        <path
           style="opacity:1;fill:#0970cb;fill-opacity:1;stroke:none;stroke-width:0.75000006;stroke-miterlimit:4;stroke-dasharray:none;stroke-opacity:1"
           d="m 342.57993,87.252488 c -4.29277,-1.0357 -6.99545,-2.9548 -9.13351,-6.4855 -1.6528,-2.7293 -1.86649,-5.3147 -1.86649,-22.582204 l 0,-19.5 13,0 0.0707,29.6054 c -0.0108,2.2446 0.0405,4.0187 0.74945,5.3609 2.59496,4.912604 9.30915,4.039804 11.4764,-0.7187 0.48544,-1.0659 0.48667,-2.8769 0.48561,-4.2699 l 0.084,-29.8856 13.70153,-0.092 0.0354,48.570504 -10.74712,-0.036 -1.86522,-6.0336 c -1.77272,1.8219 -3.7871,3.7811 -5.89109,4.9108 -3.26946,1.335145 -7.04561,1.740571 -10.09966,1.1559 z"
           id="path3451"
           inkscape:connector-curvature="0" />
        <path
           id="path3449"
           style="opacity:1;fill:#0970cb;fill-opacity:1;stroke:none;stroke-width:0.75000006;stroke-miterlimit:4;stroke-dasharray:none;stroke-opacity:1"
           d="m 491.65354,71.280884 c 1.00575,-3.566 1.17172,-6.5218 1.12716,-10.3452 -0.0841,-7.2199 -2.02869,-14.1375 -8.96298,-13.8252 -1.07183,0.048 -3.87981,0.417 -5.84524,2.9251 l -0.0178,24.1641 c 2.86024,4.523804 12.03823,2.969204 13.69886,-2.9188 z m -26.92743,-33.9859 10.46762,0.051 1.53038,5.5318 c 0.74087,-2.3216 6.58305,-6.2128 10.98712,-6.2819 7.27712,-0.7147 13.90129,4.1385 16.78494,12.2969 1.92815,5.4552 2.09199,18.3878 0.43673,24.9615 -2.40146,9.537004 -11.90751,14.773104 -20.98017,13.296104 -2.16107,-0.3518 -4.00179,-1.3443 -6.00265,-2.0166 l -0.11571,16.701402 -13.08301,-0.018 z"
           inkscape:connector-curvature="0" />
        <path
           id="path3445"
           style="opacity:1;fill:#0970cb;fill-opacity:1;stroke:none;stroke-width:0.75000006;stroke-miterlimit:4;stroke-dasharray:none;stroke-opacity:1"
           d="m 60.981369,79.549088 c -2.220976,-14.304804 1.697458,-29.027904 5.128615,-39.333204 7.051451,-17.351661 3.653917,-34.5591419 -15.849202,-26.027 -5.550398,2.554621 -14.033869,11.3618 -17.944479,18.7218 -12.061425,22.7003 -8.00614,57.014204 6.763624,57.230704 6.011434,-0.230449 14.074707,-6.037902 21.901442,-10.5923 z M 19.111554,105.87539 C 13.739552,104.16369 6.7123598,96.633888 4.0015288,89.684788 -0.33137719,77.083588 -0.31488119,59.731284 4.4158728,45.684784 11.07311,26.524484 25.574566,9.6615835 39.655698,4.2423831 52.58395,-0.70951685 72.566074,-0.99141685 85.65494,13.184784 95.826967,3.5081831 110.92995,0.34548315 119.32189,0.46828313 c 20.86436,-0.92129998 31.75804,7.48149997 31.75804,23.19830087 0,5.633 -4.25187,13.7801 -9.34479,17.9058 -5.99447,4.856 -43.263533,28.2815 -45.051343,28.2815 l -0.10386,-11.0542 11.000003,-7.7643 c 14.17826,-10.0078 18.98913,-15.2087 20.55965,-22.2265 4.01436,-17.938 -14.58747,-22.9533009 -28.351853,-7.644 -13.836417,15.3895 -19.006611,47.5015 -10.105357,62.764404 6.843117,11.7338 20.4166,8.0959 41.87614,-4.6435 l 8.26184,-5.299404 5.83718,8.141604 c -8.30177,7.1557 -16.88139,13.3401 -25.57761,18.841502 -7.7545,4.3006 -15.14811,6.2153 -23.999993,6.2153 -16.465481,-0.2623 -26.870071,-4.5601 -31.725259,-15.938902 -0.379504,-0.034 -4.230455,3.116021 -9.075951,6.375221 -11.081766,7.429211 -24.708672,12.094611 -36.167173,8.254281 z"
           inkscape:connector-curvature="0" />
      </g>
    </g>
  </g>
</svg>
