<?xml version="1.0" encoding="UTF-8" standalone="no"?>
<!DOCTYPE svg PUBLIC "-//W3C//DTD SVG 1.1//EN" "http://www.w3.org/Graphics/SVG/1.1/DTD/svg11.dtd" [
<!ENTITY ns_svg "http://www.w3.org/2000/svg">
<!ENTITY ns_xlink "http://www.w3.org/1999/xlink">
]>
<svg  version="1.1" id="Layer_1" xmlns="&ns_svg;" xmlns:xlink="&ns_xlink;" width="300" height="163.32" viewBox="0 0 300 163.32"
overflow="visible" enable-background="new 0 0 300 163.32" xml:space="preserve">
<title>Air Malta</title>
<g transform="translate(-181,-327.95)">
<polygon fill="#DC011F" points="181,409.118 181,446.45 456.473,343.802 456.473,348.434 481,348.434 481,327.95 456.473,327.95 
288.64,327.95 194.812,395.99 	"/>
<g>
<defs>
<polygon id="XMLID_1_" points="481,348.434 469.6,338.918 181,446.45 181,476.546 481,376.418 			"/>
</defs>
<clipPath id="XMLID_7_">
<use xlink:href="#XMLID_1_" />
</clipPath>

<linearGradient id="XMLID_8_" gradientUnits="userSpaceOnUse" x1="151.2402" y1="221.97" x2="154.5985" y2="221.97" gradientTransform="matrix(269.4115 0 0 269.4115 -40952 -59393.707)">
<stop  offset="0" style="stop-color:#DF2133"/>
<stop  offset="0.17" style="stop-color:#DF2133"/>
<stop  offset="0.2113" style="stop-color:#D12330"/>
<stop  offset="0.27" style="stop-color:#B6282A"/>
<stop  offset="0.47" style="stop-color:#B6282A"/>
<stop  offset="0.5105" style="stop-color:#CD242F"/>
<stop  offset="0.55" style="stop-color:#DF2133"/>
<stop  offset="1" style="stop-color:#DF2133"/>
</linearGradient>
<rect x="181" y="338.918" clip-path="url(#XMLID_7_)" fill="url(#XMLID_8_)" width="299.988" height="137.64"/>
</g>
<polygon fill="#00913D" points="266.404,327.95 194.812,395.99 288.64,327.95 	"/>
<g>
<defs>
<polygon id="XMLID_4_" points="481,385.898 481,376.418 181,476.558 181,491.27 277.516,462.711 			"/>
</defs>
<clipPath id="XMLID_9_">
<use xlink:href="#XMLID_4_" />
</clipPath>

<linearGradient id="XMLID_10_" gradientUnits="userSpaceOnUse" x1="151.2383" y1="222.035" x2="154.5983" y2="222.035" gradientTransform="matrix(269.4061 0 0 269.4061 -40951.2148 -59383.9922)">
<stop  offset="0" style="stop-color:#DF2133"/>
<stop  offset="0.35" style="stop-color:#DF2133"/>
<stop  offset="0.3585" style="stop-color:#E13230"/>
<stop  offset="0.3755" style="stop-color:#E55F29"/>
<stop  offset="0.399" style="stop-color:#EDA61E"/>
<stop  offset="0.4" style="stop-color:#EDA91E"/>
<stop  offset="0.45" style="stop-color:#EDA91E"/>
<stop  offset="0.546" style="stop-color:#E77027"/>
<stop  offset="0.6498" style="stop-color:#E13730"/>
<stop  offset="0.7" style="stop-color:#DF2133"/>
<stop  offset="1" style="stop-color:#DF2133"/>
</linearGradient>
<rect x="181" y="376.43" clip-path="url(#XMLID_9_)" fill="url(#XMLID_10_)" width="300" height="114.835"/>
</g>
<polygon fill="#009EE3" points="277.516,462.711 481,402.518 481,385.898 	"/>
<polygon fill="#FFFFFF" points="266.392,372.626 252.496,386.522 238.588,372.626 252.496,406.19 	"/>
<polygon fill="#FFFFFF" points="218.92,392.282 232.828,406.19 218.92,420.098 252.496,406.19 	"/>
<polygon fill="#FFFFFF" points="252.496,406.19 238.588,439.754 252.496,425.858 266.392,439.754 	"/>
<polygon fill="#FFFFFF" points="286.06,392.282 252.496,406.19 286.06,420.085 272.164,406.19 	"/>
<path fill="#FFFFFF" d="M290.368,366.746c0-1.98-0.467-3.425-1.396-4.343c-0.927-0.916-2.31-1.375-4.139-1.375
c-1.198,0-2.295,0.082-3.286,0.25s-1.874,0.367-2.655,0.607c-0.147-0.27-0.275-0.656-0.382-1.167
c-0.104-0.513-0.16-0.994-0.16-1.442c0.782-0.238,1.739-0.443,2.88-0.607c1.139-0.164,2.315-0.245,3.516-0.245
c2.906,0,5.065,0.635,6.477,1.908c1.406,1.279,2.113,3.278,2.113,6.013v15.158c-1.046,0.216-2.327,0.422-3.824,0.634
c-1.501,0.21-2.927,0.316-4.276,0.316c-2.788,0-4.988-0.558-6.593-1.669c-1.605-1.108-2.407-2.907-2.407-5.395
c0-1.204,0.231-2.275,0.702-3.217c0.461-0.951,1.105-1.74,1.93-2.39c0.826-0.642,1.82-1.134,2.971-1.459
c1.159-0.326,2.424-0.498,3.804-0.498c1.08,0,2.01,0.04,2.784,0.115c0.784,0.076,1.428,0.14,1.94,0.204V366.746z M290.368,370.748
c-0.513-0.055-1.144-0.127-1.913-0.199c-0.765-0.078-1.494-0.115-2.18-0.115c-2.251,0-3.994,0.423-5.221,1.263
c-1.232,0.838-1.847,2.039-1.847,3.602c0,0.986,0.188,1.78,0.565,2.383c0.374,0.6,0.863,1.055,1.459,1.371
c0.601,0.315,1.263,0.525,1.982,0.628c0.717,0.105,1.442,0.158,2.162,0.158c0.925,0,1.797-0.042,2.607-0.134
c0.81-0.088,1.604-0.209,2.386-0.361V370.748L290.368,370.748z"/>
<path fill="#FFFFFF" d="M298.816,361.478h-2.878l-0.067-0.537l-0.021-0.678l0.021-0.719l0.067-0.583h5.848v22.942
c-0.176,0.032-0.423,0.053-0.736,0.07c-0.317,0.017-0.563,0.024-0.746,0.024c-0.151,0-0.387-0.007-0.722-0.024
c-0.325-0.017-0.584-0.036-0.765-0.07V361.478L298.816,361.478z M297.334,353.929c-0.03-0.268-0.049-0.598-0.072-0.994
c-0.013-0.387-0.019-0.718-0.019-0.986c0-0.239,0.006-0.537,0.019-0.904c0.022-0.356,0.041-0.652,0.072-0.896
c0.269-0.026,0.598-0.055,0.995-0.072c0.38-0.009,0.718-0.02,0.987-0.02c0.236,0,0.539,0.009,0.902,0.02
c0.36,0.017,0.654,0.046,0.896,0.072c0.033,0.243,0.054,0.538,0.063,0.896c0.023,0.367,0.028,0.666,0.028,0.904
c0,0.269-0.006,0.6-0.028,0.986c-0.009,0.396-0.029,0.726-0.063,0.994c-0.242,0.029-0.536,0.052-0.896,0.069
c-0.364,0.017-0.666,0.022-0.902,0.022c-0.27,0-0.606-0.006-0.987-0.022C297.932,353.98,297.603,353.958,297.334,353.929"/>
<path fill="#FFFFFF" d="M307.012,358.958l0.692-0.073l0.653-0.02l0.674,0.02l0.678,0.073c0.058,0.537,0.106,1.174,0.137,1.908
c0.024,0.738,0.048,1.403,0.048,2.003c0.593-1.107,1.435-2.045,2.518-2.809c1.077-0.768,2.502-1.151,4.274-1.151h0.47l0.564,0.049
c0.09,0.505,0.134,0.987,0.134,1.436c0,0.484-0.044,0.944-0.134,1.397l-0.564-0.046h-0.424c-2.044,0-3.675,0.642-4.909,1.937
c-1.23,1.288-1.846,3.433-1.846,6.435V381.9c-0.178,0.032-0.425,0.053-0.738,0.069c-0.319,0.013-0.568,0.024-0.744,0.024
c-0.148,0-0.39-0.011-0.72-0.024c-0.331-0.017-0.586-0.036-0.764-0.069V358.958L307.012,358.958z"/>
<path fill="#FFFFFF" d="M321.724,358.646c0.421-0.089,0.84-0.161,1.26-0.204c0.422-0.042,0.885-0.065,1.399-0.065
c0.503,0,0.953,0.022,1.346,0.065c0.385,0.042,0.795,0.115,1.212,0.204l0.25,0.652c0.075,0.285,0.144,0.581,0.201,0.902
c0.059,0.314,0.113,0.619,0.157,0.921l0.11,0.767c0.245-0.453,0.561-0.905,0.95-1.35c0.387-0.456,0.856-0.856,1.396-1.217
c0.538-0.357,1.146-0.653,1.82-0.878c0.677-0.223,1.431-0.333,2.276-0.333c3.625,0,5.953,1.38,6.97,4.136
c0.603-1.107,1.448-2.081,2.55-2.9c1.089-0.826,2.479-1.236,4.158-1.236c2.641,0,4.582,0.727,5.827,2.175
c1.246,1.463,1.869,3.731,1.869,6.82v14.804c-1.081,0.18-2.151,0.273-3.199,0.273c-1.045,0-2.111-0.092-3.189-0.273V368.77
c0-1.624-0.206-2.858-0.607-3.733c-0.405-0.873-1.226-1.306-2.458-1.306c-0.504,0-1.006,0.076-1.505,0.23
c-0.495,0.147-0.94,0.426-1.354,0.829c-0.406,0.403-0.727,0.977-0.982,1.711c-0.256,0.73-0.387,1.688-0.387,2.856v12.551
c-1.078,0.18-2.144,0.273-3.195,0.273c-1.047,0-2.113-0.092-3.193-0.273V368.77c0-1.624-0.199-2.858-0.606-3.733
c-0.403-0.873-1.225-1.306-2.455-1.306c-0.511,0-1.018,0.076-1.526,0.23c-0.515,0.147-0.967,0.442-1.374,0.875
c-0.403,0.432-0.728,1.039-0.971,1.823c-0.24,0.775-0.358,1.8-0.358,3.059v12.191c-1.082,0.18-2.146,0.273-3.193,0.273
c-1.05,0-2.115-0.092-3.195-0.273v-23.257L321.724,358.646z"/>
<path fill="#FFFFFF" d="M372.436,366.602c0-0.718-0.12-1.304-0.363-1.753c-0.242-0.449-0.565-0.803-0.989-1.056
c-0.415-0.252-0.932-0.428-1.552-0.515c-0.611-0.091-1.301-0.136-2.049-0.136c-1.62,0-3.344,0.314-5.174,0.939
c-0.42-0.774-0.732-1.51-0.943-2.199c-0.209-0.691-0.314-1.518-0.314-2.477c1.318-0.446,2.635-0.78,3.959-0.986
c1.32-0.214,2.548-0.316,3.691-0.316c3.115,0,5.557,0.748,7.311,2.249c1.758,1.498,2.636,3.901,2.636,7.195v13.506
c-1.056,0.328-2.324,0.643-3.831,0.938c-1.498,0.305-3.197,0.456-5.079,0.456c-1.532,0-2.93-0.134-4.209-0.407
c-1.277-0.269-2.373-0.719-3.287-1.348c-0.915-0.632-1.623-1.445-2.115-2.431c-0.49-0.99-0.741-2.203-0.741-3.646
s0.307-2.645,0.919-3.623c0.616-0.974,1.418-1.757,2.388-2.34c0.976-0.583,2.064-1.003,3.265-1.262
c1.196-0.254,2.402-0.38,3.599-0.38c0.867,0,1.828,0.049,2.881,0.134V366.602L372.436,366.602z M372.436,371.242
c-0.363-0.066-0.75-0.112-1.176-0.161c-0.414-0.043-0.789-0.066-1.121-0.066c-1.47,0-2.629,0.261-3.488,0.786
c-0.853,0.526-1.277,1.371-1.277,2.544c0,0.774,0.164,1.378,0.49,1.799c0.335,0.42,0.728,0.725,1.188,0.919
c0.475,0.199,0.964,0.321,1.491,0.367c0.525,0.042,0.979,0.063,1.374,0.063c0.449,0,0.897-0.036,1.344-0.108
c0.453-0.078,0.845-0.147,1.176-0.209V371.242z"/>
<path fill="#FFFFFF" d="M383.235,350.33c1.083-0.176,2.149-0.265,3.194-0.265c1.02,0,2.074,0.089,3.15,0.265v22.314
c0,0.928,0.059,1.678,0.156,2.249c0.105,0.568,0.27,1.007,0.495,1.327c0.226,0.315,0.519,0.527,0.875,0.649
c0.36,0.122,0.817,0.183,1.358,0.183l0.785-0.049l0.825-0.134c0.33,1.232,0.499,2.432,0.499,3.602v0.653l-0.092,0.653
c-0.479,0.146-1.057,0.255-1.73,0.314c-0.674,0.059-1.295,0.088-1.865,0.088c-2.314,0-4.166-0.632-5.561-1.911
c-1.393-1.275-2.091-3.354-2.091-6.231V350.33L383.235,350.33z"/>
<path fill="#FFFFFF" d="M398.127,363.506h-2.926v-1.192l8.189-10.464h1.034v6.796h5.444c0.09,0.449,0.148,0.855,0.181,1.217
c0.033,0.357,0.046,0.733,0.046,1.124c0,0.42-0.013,0.826-0.046,1.213c-0.032,0.394-0.091,0.826-0.181,1.308h-5.444v9.136
c0,0.928,0.079,1.678,0.224,2.249c0.155,0.567,0.374,1.016,0.656,1.348c0.289,0.33,0.639,0.554,1.055,0.675
c0.424,0.125,0.918,0.18,1.488,0.18c0.453,0,0.888-0.037,1.328-0.116c0.432-0.07,0.819-0.141,1.144-0.197
c0.214,0.571,0.361,1.162,0.452,1.775c0.085,0.619,0.131,1.164,0.131,1.642c0,0.331-0.006,0.607-0.021,0.833l-0.065,0.652
c-1.379,0.332-2.806,0.496-4.282,0.496c-2.726,0-4.812-0.636-6.246-1.911c-1.442-1.273-2.161-3.354-2.161-6.232V363.506
L398.127,363.506z"/>
<path fill="#FFFFFF" d="M426.615,366.602c0-0.718-0.124-1.304-0.36-1.753c-0.241-0.449-0.567-0.803-0.996-1.056
c-0.414-0.252-0.931-0.428-1.547-0.515c-0.616-0.091-1.299-0.136-2.042-0.136c-1.624,0-3.354,0.314-5.18,0.939
c-0.419-0.774-0.734-1.51-0.95-2.199c-0.205-0.691-0.313-1.518-0.313-2.477c1.325-0.446,2.644-0.78,3.961-0.986
c1.324-0.214,2.551-0.316,3.691-0.316c3.12,0,5.56,0.748,7.31,2.249c1.757,1.498,2.64,3.901,2.64,7.195v13.506
c-1.053,0.328-2.331,0.643-3.832,0.938c-1.501,0.305-3.193,0.456-5.084,0.456c-1.528,0-2.932-0.134-4.207-0.407
c-1.272-0.269-2.369-0.719-3.283-1.348c-0.912-0.632-1.621-1.445-2.119-2.431c-0.487-0.99-0.735-2.203-0.735-3.646
s0.305-2.645,0.921-3.623c0.616-0.974,1.409-1.757,2.386-2.34c0.971-0.583,2.058-1.003,3.263-1.262
c1.195-0.254,2.396-0.38,3.598-0.38c0.869,0,1.83,0.049,2.883,0.134v-0.542H426.615z M426.615,371.242
c-0.36-0.066-0.75-0.112-1.174-0.161c-0.417-0.043-0.792-0.066-1.125-0.066c-1.472,0-2.627,0.261-3.487,0.786
c-0.854,0.526-1.281,1.371-1.281,2.544c0,0.774,0.168,1.378,0.498,1.799c0.328,0.42,0.727,0.725,1.187,0.919
c0.466,0.199,0.964,0.321,1.488,0.367c0.524,0.042,0.982,0.063,1.377,0.063c0.445,0,0.894-0.036,1.343-0.108
c0.45-0.078,0.84-0.147,1.175-0.209V371.242L426.615,371.242z"/>
</g>
</svg>
