<?xml version="1.0" encoding="utf-8"?>
<!DOCTYPE svg PUBLIC "-//W3C//DTD SVG 1.1//EN" "http://www.w3.org/Graphics/SVG/1.1/DTD/svg11.dtd">
<svg xmlns="http://www.w3.org/2000/svg" xmlns:xlink="http://www.w3.org/1999/xlink" version="1.1" id="Layer_1" x="0px" y="0px" width="130" height="45" viewBox="0 0 130 45" style="enable-background:new 0 0 130 45;" xml:space="preserve">
<style type="text/css">
    .st0{fill:#00529C;}
    .st1{fill:#DE0031;}
    .st2{fill:#F5DA00;}
</style>
<title>am-new-logo</title>
<path class="st0" d="M16,42.8l1.8-10.5c0-0.1,0.1-0.2,0.2-0.2h2.5c0.1,0,0.2,0.1,0.2,0.2c0,0,0,0,0,0L19,42.8c0,0.1-0.1,0.2-0.2,0.2  h-2.6C16.1,43,16,42.9,16,42.8C16,42.8,16,42.8,16,42.8z"></path>
<path class="st0" d="M11.2,32.3c0-0.1-0.1-0.1-0.2-0.2H8.7c-0.8,0-1.5,0.4-1.9,1l-6.2,9.6c-0.1,0.1,0,0.2,0.1,0.3c0,0,0.1,0,0.1,0  h2.9c0.1,0,0.1,0,0.2-0.1L5,41.1h5.6l0.5,1.8c0,0.1,0.1,0.1,0.2,0.2h2.8c0.1,0,0.2-0.1,0.2-0.2c0,0,0,0,0-0.1L11.2,32.3z M6.6,38.7  l2.3-3.6l1.1,3.6H6.6z"></path>
<path class="st0" d="M126.5,32.4c0-0.1-0.2-0.3-0.3-0.3h-2.2c-0.8,0-1.5,0.4-1.9,1l-6.1,9.5c-0.1,0.1-0.1,0.2,0,0.3  c0,0,0.1,0.1,0.2,0.1h2.9c0.1,0,0.1,0,0.2-0.1l1.2-1.8h5.6l0.5,1.8c0,0.1,0.1,0.1,0.2,0.2h2.8c0.1,0,0.2-0.1,0.2-0.2c0,0,0,0,0-0.1  L126.5,32.4z M121.8,38.7l2.3-3.6l1.1,3.6H121.8z"></path>
<path class="st0" d="M108.8,42l-2.8-9.6c0-0.1,0-0.2,0.1-0.3c0,0,0,0,0.1,0h2.8c0.1,0,0.2,0.1,0.2,0.2l2.3,7.7l5-7.8  c0-0.1,0.1-0.1,0.2-0.1h2.9c0.1,0,0.2,0.1,0.2,0.2c0,0,0,0.1,0,0.1L113,42.9c-0.1,0.1-0.2,0.2-0.3,0.2h-2.5  C109.6,43,109,42.6,108.8,42z"></path>
<path class="st0" d="M31.4,39.5c0.6-0.1,1.1-0.4,1.5-0.8c0.5-0.7,0.9-1.5,1-2.3c0.3-1.1,0.1-2.3-0.5-3.3c-0.7-0.7-1.7-1.1-2.8-1  h-7.1c-0.1,0-0.2,0.1-0.2,0.2l-1.8,10.5c0,0.1,0.1,0.2,0.2,0.2c0,0,0,0,0,0h2.6c0.1,0,0.2-0.1,0.2-0.2l0.5-2.9h1.9  c0.9,0,1.7,0.5,2.2,1.3l1,1.8c0,0.1,0.1,0.1,0.2,0.1h3.1c0.1,0,0.2-0.1,0.2-0.2c0,0,0-0.1,0-0.1l-1.3-2  C32.1,40.2,31.7,39.8,31.4,39.5L31.4,39.5z M31,36c-0.2,0.9-0.7,1.5-1.3,1.5h-4.3l0.6-2.9h4C30.9,34.6,31.1,35.1,31,36z"></path>
<path class="st0" d="M104.3,33.4c-0.9-1-2.4-1.6-4.7-1.6c-4.4,0-6.7,1.7-7.4,5.5c-0.3,2-0.1,3.4,0.7,4.3s2.5,1.6,5,1.6  s6.2-0.6,7.1-5.7C105.3,35.7,105.1,34.4,104.3,33.4z M101.9,37.4c-0.3,2-1,3.2-3.7,3.2c-1.4,0-2.3-0.2-2.7-0.7  c-0.3-0.7-0.4-1.6-0.2-2.4c0.4-2.5,1.4-3.1,4-3.1c1.3,0,2,0.2,2.4,0.6C102.1,35.8,102.1,36.7,101.9,37.4L101.9,37.4z"></path>
<path class="st0" d="M64.8,33.4c-0.9-1-2.4-1.6-4.7-1.6c-4.4,0-6.7,1.7-7.4,5.5c-0.3,2-0.1,3.4,0.7,4.3s2.5,1.6,5,1.6  s6.2-0.6,7.1-5.7C65.9,35.7,65.6,34.4,64.8,33.4z M62.4,37.4c-0.3,2-1,3.2-3.7,3.2c-1.4,0-2.3-0.2-2.7-0.7c-0.3-0.7-0.4-1.6-0.2-2.4  c0.4-2.5,1.4-3.1,4-3.1c1.3,0,2,0.2,2.4,0.6C62.6,35.8,62.7,36.7,62.4,37.4L62.4,37.4z"></path>
<path class="st0" d="M66.7,41l1.5-8.7c0-0.1,0.1-0.2,0.2-0.2H71c0.1,0,0.2,0.1,0.2,0.2c0,0,0,0,0,0l-1.3,7.8c0,0.2,0.1,0.3,0.2,0.3  c0,0,0,0,0,0h6c0.1,0,0.2,0.1,0.2,0.2c0,0,0,0,0,0L76,43h-7.6c-0.9,0-1.7-0.7-1.7-1.7C66.7,41.2,66.7,41.1,66.7,41z"></path>
<path class="st0" d="M89.9,33.4c-1-1.2-2.6-1.3-4.1-1.3h-6c-0.1,0-0.2,0.1-0.2,0.2l-1.9,10.5c0,0.1,0.1,0.2,0.2,0.2c0,0,0,0,0,0h6.1  c1.8,0,5.5,0.1,6.5-5.4C90.9,35.7,90.7,34.4,89.9,33.4z M87.5,37.4c-0.5,2.7-1.7,3.1-3.6,3.1h-2.8l1-5.9h2.8c1.1,0,2,0.1,2.4,0.6  C87.6,35.9,87.7,36.7,87.5,37.4L87.5,37.4z"></path>
<path class="st0" d="M47,42.8l1.1-6l-3.8,6.2c0,0.1-0.1,0.1-0.2,0.1h-2.9c-0.1,0-0.2-0.1-0.2-0.2l-1.8-6.3l-1.1,6.3  c0,0.1-0.1,0.2-0.2,0.2h-2.6c-0.1,0-0.2-0.1-0.2-0.2c0,0,0,0,0,0l1.5-8.9c0.2-1,1-1.7,2.1-1.7h2c0.1,0,0.2,0.1,0.2,0.2l2.1,7.4  l4-6.5c0.4-0.7,1.2-1.1,2-1.1h2.7c0.1,0,0.2,0.1,0.2,0.2c0,0,0,0,0,0l-1.8,10.5c0,0.1-0.1,0.2-0.2,0.2h-2.6C47.1,43,47,42.9,47,42.8  C47,42.8,47,42.8,47,42.8z"></path>
<path id="flag1" class="st1" d="M13.9,28c-0.1,0-0.1,0.1,0,0.2c0,0,0.1,0.1,0.1,0.1l5.9-0.2c3.8-0.2,7.4-1.7,10.2-4.3c0,0,0.1-0.1,0-0.2  c0,0-0.1,0-0.1,0l-10.3,0.9l-2.2,0.2c-0.1,0-0.1,0-0.1,0.1C16.4,26,15.2,27.1,13.9,28z"></path>
<path id="flag2" class="st2" d="M21,19.6l-2.2,2.9c0,0.1,0,0.1,0,0.2c0,0,0,0,0.1,0l10.7-1.1c3.7-0.5,7.3-1.7,10.4-3.8c1.3-0.8,2.6-1.7,3.8-2.8  c0,0,0-0.1,0-0.2c0,0-0.1,0-0.1,0l-19.9,3.3C22.7,18.3,21.7,18.9,21,19.6"></path>
<path id="flag3" class="st0" d="M15.9,18.1L9.3,28.3c-0.1,0.1,0,0.2,0.1,0.2c2.4-0.4,4.6-1.8,6-3.8l4.3-6c0.8-1.1,2-1.8,3.3-2.1l20.4-3.8  c5.4-1.1,10.6-3.2,15.3-6.2c2.1-1.3,4.2-2.8,6.1-4.3c0,0,0-0.1,0-0.2c0,0-0.1,0-0.1,0l-39.5,9.7C21.3,12.6,18,14.9,15.9,18.1"></path>
</svg>