<?xml version="1.0" encoding="UTF-8" standalone="no"?>
<svg
   xmlns:dc="http://purl.org/dc/elements/1.1/"
   xmlns:cc="http://creativecommons.org/ns#"
   xmlns:rdf="http://www.w3.org/1999/02/22-rdf-syntax-ns#"
   xmlns:svg="http://www.w3.org/2000/svg"
   xmlns="http://www.w3.org/2000/svg"
   viewBox="0 0 957.0907 179.67467"
   height="179.67467"
   width="957.0907"
   xml:space="preserve"
   id="svg2"
   version="1.1"><metadata
     id="metadata8"><rdf:RDF><cc:Work
         rdf:about=""><dc:format>image/svg+xml</dc:format><dc:type
           rdf:resource="http://purl.org/dc/dcmitype/StillImage" /></cc:Work></rdf:RDF></metadata><defs
     id="defs6"><clipPath
       id="clipPath22"
       clipPathUnits="userSpaceOnUse"><path
         id="path20"
         d="M 0,134.756 H 717.818 V 0 H 0 Z" /></clipPath></defs><g
     transform="matrix(1.3333333,0,0,-1.3333333,0,179.67467)"
     id="g10"><g
       id="g16"><g
         clip-path="url(#clipPath22)"
         id="g18"><g
           transform="translate(593.4885,48.8175)"
           id="g24"><path
             id="path26"
             style="fill:#761a45;fill-opacity:1;fill-rule:nonzero;stroke:none"
             d="m 0,0 h -53.137 c -0.892,0 -1.614,0.724 -1.614,1.615 v 49.009 c 0,0.892 -0.724,1.615 -1.616,1.615 h -14.768 c -2.378,0 -4.307,-1.928 -4.307,-4.307 v -61.45 -0.005 c 0,-0.892 0.724,-1.616 1.615,-1.616 l 62.2,0.004 c 7.135,10e-4 12.919,5.784 12.919,12.92 v 0.923 C 1.292,-0.579 0.713,0 0,0" /></g><g
           transform="translate(444.6559,65.7863)"
           id="g28"><path
             id="path30"
             style="fill:#761a45;fill-opacity:1;fill-rule:nonzero;stroke:none"
             d="m 0,0 9.634,18.474 c 0.056,0.108 0.211,0.108 0.267,0 L 19.535,0 c 0.052,-0.101 -0.021,-0.221 -0.134,-0.221 H 0.134 C 0.021,-0.221 -0.052,-0.101 0,0 m -7.169,25.928 -26.864,-51.517 c -1.548,-2.968 0.605,-6.518 3.951,-6.518 h 12.269 c 0.658,0 1.262,0.365 1.565,0.949 l 8.171,15.669 c 0.305,0.583 0.908,0.949 1.566,0.949 h 32.557 c 0.658,0 1.262,-0.366 1.566,-0.949 l 6.251,-11.988 c 1.485,-2.845 4.427,-4.63 7.637,-4.63 h 12.555 c 1.326,0 2.179,1.407 1.566,2.582 L 26.704,25.928 C 23.71,31.67 17.771,35.271 11.297,35.271 H 8.239 c -6.476,0 -12.414,-3.601 -15.408,-9.343" /></g><g
           transform="translate(68.3293,65.5656)"
           id="g32"><path
             id="path34"
             style="fill:#761a45;fill-opacity:1;fill-rule:nonzero;stroke:none"
             d="M 0,0 9.883,18.951 19.765,0 Z m -7.011,26.229 -27.023,-51.818 c -1.495,-2.867 0.586,-6.298 3.819,-6.298 h 12.608 c 0.602,0 1.154,0.335 1.433,0.868 l 8.255,15.831 c 0.278,0.535 0.83,0.869 1.432,0.869 h 32.74 c 0.601,0 1.154,-0.334 1.432,-0.869 l 6.294,-12.068 c 1.482,-2.846 4.426,-4.631 7.636,-4.631 h 12.804 c 1.212,0 1.993,1.286 1.432,2.362 L 26.777,26.229 c -2.968,5.693 -8.856,9.262 -15.274,9.262 h -3.24 c -6.42,0 -12.307,-3.569 -15.274,-9.262" /></g><g
           transform="translate(243.2028,78.6593)"
           id="g36"><path
             id="path38"
             style="fill:#761a45;fill-opacity:1;fill-rule:nonzero;stroke:none"
             d="m 0,0 c 0,-4.757 -3.856,-8.613 -8.613,-8.613 h -23.666 c -0.892,0 -1.616,0.723 -1.616,1.615 V 7.011 c 0,0.892 0.724,1.615 1.616,1.615 H -8.613 C -3.856,8.626 0,4.77 0,0.013 Z m 26.628,-42.622 -11.172,21.544 c -1.741,3.356 -1.034,7.402 1.611,10.105 3.462,3.539 5.597,8.379 5.597,13.722 0,10.851 -8.797,19.648 -19.648,19.648 h -36.925 -16.383 c -2.379,0 -4.306,-1.928 -4.306,-4.307 V -16.9 -43.365 c 0,-0.892 0.722,-1.615 1.615,-1.615 h 14.768 c 2.379,0 4.306,1.928 4.306,4.306 v 16.355 c 0,0.892 0.723,1.615 1.615,1.615 h 20.275 c 3.217,0 6.165,-1.793 7.646,-4.649 l 6.73,-12.979 c 1.48,-2.856 4.43,-4.648 7.645,-4.648 h 15.192 c 1.212,0 1.992,1.283 1.434,2.358" /></g><g
           transform="translate(592.778,103.0729)"
           id="g40"><path
             id="path42"
             style="fill:#761a45;fill-opacity:1;fill-rule:nonzero;stroke:none"
             d="m 0,0 h -11.805 c -1.368,0 -2.116,-1.593 -1.243,-2.646 l 34.657,-41.805 c 2.741,-3.306 2.627,-8.128 -0.268,-11.301 l -9.978,-10.939 c -0.946,-1.037 -0.21,-2.703 1.194,-2.703 h 18.3 c 1.206,0 2.356,0.505 3.171,1.393 l 3.746,4.075 7.166,7.85 c 2.897,3.173 3.013,7.996 0.27,11.304 L 13.262,-6.233 C 9.99,-2.285 5.129,0 0,0" /></g><g
           transform="translate(649.3259,59.7208)"
           id="g44"><path
             id="path46"
             style="fill:#00b8af;fill-opacity:1;fill-rule:nonzero;stroke:none"
             d="m 0,0 10.034,10.996 c 0.542,0.594 0.564,1.499 0.05,2.118 l -33.576,40.504 c -3.273,3.948 -8.134,6.233 -13.262,6.233 h -11.809 c -1.367,0 -2.116,-1.593 -1.243,-2.646 L -2.436,0.058 C -1.81,-0.697 -0.661,-0.725 0,0" /></g><g
           transform="translate(682.4772,100.0646)"
           id="g48"><path
             id="path50"
             style="fill:#761a45;fill-opacity:1;fill-rule:nonzero;stroke:none"
             d="m 0,0 h -12.636 c -4.839,0 -9.455,-2.035 -12.718,-5.608 l -1.947,-2.131 c -0.543,-0.594 -0.566,-1.498 -0.053,-2.119 l 9.292,-11.221 c 0.625,-0.755 1.775,-0.783 2.437,-0.059 L 1.193,-2.703 C 2.139,-1.667 1.403,0 0,0" /></g><g
           transform="translate(144.1501,33.6788)"
           id="g52"><path
             id="path54"
             style="fill:#761a45;fill-opacity:1;fill-rule:nonzero;stroke:none"
             d="m 0,0 h 14.769 c 2.378,0 4.306,1.929 4.306,4.307 v 61.456 c 0,0.891 -0.722,1.615 -1.615,1.615 H 2.692 c -2.379,0 -4.306,-1.928 -4.306,-4.307 V 1.615 C -1.614,0.724 -0.892,0 0,0" /></g><g
           transform="translate(291.8039,33.6788)"
           id="g56"><path
             id="path58"
             style="fill:#761a45;fill-opacity:1;fill-rule:nonzero;stroke:none"
             d="m 0,0 h 14.769 c 2.378,0 4.306,1.929 4.306,4.307 v 61.456 c 0,0.891 -0.723,1.615 -1.616,1.615 H 2.691 c -2.379,0 -4.306,-1.928 -4.306,-4.307 V 1.615 C -1.615,0.724 -0.893,0 0,0" /></g><g
           transform="translate(324.2033,88.1383)"
           id="g60"><path
             id="path62"
             style="fill:#761a45;fill-opacity:1;fill-rule:nonzero;stroke:none"
             d="m 0,0 v -0.602 c 0,-0.892 0.723,-1.615 1.615,-1.615 h 28.914 c 2.379,0 4.306,-1.929 4.306,-4.306 v -46.319 c 0,-0.893 0.724,-1.616 1.616,-1.616 h 14.768 c 2.379,0 4.307,1.928 4.307,4.306 v 46.321 c 0,0.892 0.723,1.615 1.614,1.615 l 20.303,0.001 c 7.135,0 12.919,5.784 12.919,12.919 v 0.601 c 0,0.892 -0.723,1.614 -1.615,1.614 H 12.919 C 5.785,12.919 0,7.135 0,0" /></g></g></g></g></svg>