<?xml version="1.0" encoding="utf-8"?>
<!-- Generator: Adobe Illustrator 21.1.0, SVG Export Plug-In . SVG Version: 6.00 Build 0)  -->
<!DOCTYPE svg PUBLIC "-//W3C//DTD SVG 1.1//EN" "http://www.w3.org/Graphics/SVG/1.1/DTD/svg11.dtd">
<svg version="1.1" id="Слой_1" xmlns="http://www.w3.org/2000/svg" xmlns:xlink="http://www.w3.org/1999/xlink" x="0px" y="0px"
	 viewBox="0 0 1317 293" width="1317px" height="293" style="enable-background:new 0 0 1317 293;" xml:space="preserve">
<style type="text/css">
	.st0{fill:url(#SVGID_1_);}
	.st1{fill:#003594;}
</style>
<title>utair_sign_blue_rgb</title>
<g>
	
		<radialGradient id="SVGID_1_" cx="2660.2378" cy="2155.3528" r="342.4949" gradientTransform="matrix(-0.3854 0.9227 -0.4614 -0.1927 2140.0254 -2101.582)" gradientUnits="userSpaceOnUse">
		<stop  offset="6.018000e-02" style="stop-color:#003594;stop-opacity:1.000000e-02"/>
		<stop  offset="0.3955" style="stop-color:#003594;stop-opacity:0.3945"/>
		<stop  offset="0.8059" style="stop-color:#003594;stop-opacity:0.8292"/>
		<stop  offset="1" style="stop-color:#003594"/>
	</radialGradient>
	<path class="st0" d="M266.8,0.2c0,0-32.2,76.5-45.9,108.1c-12.3,28.3-24.9,57.2-39.8,85.5c-17.9,34-43.9,50-71.9,50
		c-35.8,0-59.9-22.4-59.9-57.9c0-15,3.9-29.2,14.3-56.3c6.7-17.3,13-32.1,20.2-49.3c11.1-26.7,22.3-53.4,33.7-80H65.6
		C49.5,38,35.3,71.7,19.4,109.6C6.9,139.3,0.2,166.3,0.2,190.3c0,59.2,43.2,102.4,105.5,102.4c38.4,0,75-14,99.9-45.7
		c13.2-16.9,20.5-29.8,40.9-75.7C270.6,117.1,297,55.4,320,0.2H266.8L266.8,0.2z"/>
	<path class="st1" d="M803.6,18.8v56.1h-29.3v33.9h29.2v118.8c0,42.2,16.6,59.2,58.8,59.2H878v-36.3h-2.8
		c-18.6,0-25.3-7.1-25.3-25.7v-116h34.3V74.9H850V18.8H803.6z M640.5,248.9c-43.8,0-65.9-26.4-65.9-85.7V0.2h-50.1v160.9
		c0,93.2,40.7,131.5,116.1,131.5s116.5-38.3,116.5-131.5V0.2H707v162.8C706.8,222.5,684.3,248.9,640.5,248.9z M1033.5,185.8V198
		c0,35.1-24.5,58.8-58.4,58.8c-18.2,0-33.2-11.1-33.2-29.2c0-17.8,12.6-30.8,38.7-34.3L1033.5,185.8z M964,292.8
		c33.6,0,60.4-11.8,72.6-33.6v27.6h43.8v-124c0-82.1-43.8-96.7-89.6-96.7c-59.2,0-87.2,32.8-90.4,73.8h49.3
		c3.2-24.1,18.6-37.9,41.4-37.9c24.5,0,42.2,12.6,42.2,51.7l-63.6,6.7c-64.3,6.7-80.1,40.3-80.1,67.1
		C889.9,268.7,923,292.8,964,292.8z M1164.6,0.2h-48.2V48h48.2V0.2z M1164.6,74.9h-48.2v211.8h48.2V74.9z M1316.8,71.7
		c-3.5-1.4-7.4-2-11.2-2c-31.2,0-49.7,18.6-60.4,41.4V74.9h-45.3v211.8h47V172.4c0-35.5,17.8-52.5,53.3-52.5h16.6V71.7z"/>
</g>
</svg>
