<?xml version="1.0" encoding="utf-8"?>
<!-- Generator: Adobe Illustrator 12.0.0, SVG Export Plug-In  -->
<!DOCTYPE svg PUBLIC "-//W3C//DTD SVG 1.1//EN" "http://www.w3.org/Graphics/SVG/1.1/DTD/svg11.dtd" [
	<!ENTITY ns_flows "http://ns.adobe.com/Flows/1.0/">
	<!ENTITY ns_svg "http://www.w3.org/2000/svg">
	<!ENTITY ns_xlink "http://www.w3.org/1999/xlink">
]>
<svg  version="1.1" xmlns="&ns_svg;" xmlns:xlink="&ns_xlink;" xmlns:a="http://ns.adobe.com/AdobeSVGViewerExtensions/3.0/"
	 width="261" height="26" viewBox="-0.5 0 261 26" enable-background="new -0.5 0 261 26" xml:space="preserve">
<defs>
</defs>
<path fill-rule="evenodd" clip-rule="evenodd" fill="#EC3D32" d="M147.0668945,21.7832031V18.088623l5.5805664-12.0073242h6.003418
	l-5.2338867,11.5070801l12.1225586-0.0769043l-2.6938477,4.2717285H147.0668945L147.0668945,21.7832031z M147.0668945,14.855957
	c0.3461914-0.5002441,0.6538086-1.0390625,0.9619141-1.6164551c1.4243164-2.6940918,0.9624023-4.4643555-0.9619141-5.6188965
	V14.855957L147.0668945,14.855957z M171.1201172,6.1967773l-4.3491211,9.5444336
	c-2.347168,5.079834,3.65625,6.3115234,8.8520508,6.3498535c4.5024414,0.0771484,11.0834961-0.3078613,14.546875-5.4262695
	l4.9648438-10.3525391l-5.965332,0.0383301l-4.15625,8.8132324c-1.8857422,2.7324219-4.6948242,2.4245605-7.1196289,2.4245605
	c-1.809082,0-6.5810547,0.5771484-4.6181641-3.3867188l3.7329102-8.0817871L171.1201172,6.1967773z M147.0668945,7.6206055
	v7.2353516c-2.8867188,4.5795898-7.0429688,6.9272461-12.9311523,7.1582031v-4.387207
	c3.0019531-0.0385742,5.2724609-0.3081055,7.5429688-3.1943359c2.8095703-3.6176758-1.3852539-4.6567383-6.6962891-4.6181641
	c-0.2695313,0-0.5771484,0.0383301-0.8466797,0.0383301V6.1582031c0.9624023-0.0383301,2.0009766-0.0769043,3.0400391-0.0769043
	C141.6787109,6.0429688,145.1425781,6.4663086,147.0668945,7.6206055L147.0668945,7.6206055z M147.0668945,18.088623
	l-1.6547852,3.6945801h1.6547852V18.088623z M134.1357422,6.1582031v3.6945801
	c-3.4638672,0.1923828-6.7734375,1.2316895-8.1972656,4.2717285c-1.1542969,2.501709,2.1933594,3.5024414,6.7734375,3.5024414
	c0.5004883,0,0.9619141,0,1.4238281,0v4.387207c-0.5385742,0.0385742-1.0776367,0.0385742-1.6547852,0
	c-6.8500977,0.0769043-11.2763672-0.692627-12.5078125-3.425293v-3.7714844
	c0.1157227-0.4233398,0.2695313-0.8466797,0.4619141-1.2700195C122.4365234,8.5827637,127.2470703,6.6201172,134.1357422,6.1582031
	L134.1357422,6.1582031z M119.9731445,12.4697266c0.3466797-1.0776367,0.3847656-2.2705078,0-3.3481445V12.4697266z
	 M119.9731445,9.121582v3.3481445c-0.0766602,0.3078613-0.1923828,0.5773926-0.3076172,0.8466797
	c-1.1162109,2.4631348-6.7353516,8.3513184-13.315918,8.3898926L91.840332,21.744873l4.9648438-10.2370605h6.0419922
	l-2.8095703,6.0036621h5.0419922c5.3105469,0.0769043,7.3120117-2.0012207,8.3896484-3.7717285
	c0.8852539-1.5009766,0.3076172-4.2717285-4.1176758-4.15625H98.0366211l5.4262695-3.8486328l10.9682617,0.1154785
	C117.7797852,6.119873,119.3959961,7.4667969,119.9731445,9.121582L119.9731445,9.121582z M119.9731445,14.8173828
	c-0.4619141,1.5395508-0.4233398,2.7709961,0,3.7714844V14.8173828L119.9731445,14.8173828z M64.4389648,21.7062988v-3.1557617
	c4.9643555-3.8869629,10.0830078-7.7355957,15.5483398-11.4301758c2.1547852-1.7319336,6.003418-1.6933594,6.8500977,0.2695313
	l4.5029297,14.2009277l-21.7060547,0.0769043l5.503418-4.348877l7.2739258-0.0383301l-1.4624023-5.8112793L67.7490234,21.7062988
	H64.4389648L64.4389648,21.7062988z M64.4389648,13.239502l4.0024414-7.5429688h-4.0024414V13.239502z M5.9799805,21.6677246
	L25.7998047,7.0817871c3.1943359-2.2319336,6.0805664-2.1164551,7.4277344-0.0769043l4.2714844,14.6628418L15.6010742,21.744873
	l5.503418-4.6184082l7.7358398-0.0769043l-1.6552734-5.8112793L13.715332,21.744873L5.9799805,21.6677246L5.9799805,21.6677246z
	 M64.4389648,5.6965332v7.5429688l-2.6938477,5.041748c-2.0395508,4.4641113-4.2719727,5.2338867-7.2353516,1.4621582
	l-6.0805664-7.5046387l-4.4643555,9.3134766l-5.6958008-0.1154785l7.0810547-13.6621094
	c1.4628906-2.5014648,4.6953125-2.9633789,6.5043945-0.9621582l6.3500977,7.1967773l4.4643555-8.3127441H64.4389648
	L64.4389648,5.6965332z M64.4389648,18.5505371c-1.3466797,1.0776367-2.6938477,2.1166992-4.0024414,3.1943359l4.0024414-0.0385742
	V18.5505371z"/>
<path fill-rule="evenodd" clip-rule="evenodd" fill="#17549D" d="M235.2749023,10.5839844v-0.0385742l2.2709961-3.5019531
	l18.434082,0.1538086l-2.1166992,3.4638672h-5.4648438l-4.4643555,11.3916016l-6.0419922-0.0385742l4.6567383-11.3530273
	L235.2749023,10.5839844L235.2749023,10.5839844z M235.2749023,6.8510742V6.8125h0.0385742L235.2749023,6.8510742z
	 M214.0693359,6.4277344h1.6938477c-0.4619141,1.4624023-0.9624023,3.3867188-1.6938477,5.3493652V6.4277344L214.0693359,6.4277344z
	 M235.2749023,6.8125h-16.7792969l-4.4262695,10.8913574v4.15625l14.2397461,0.0388184l2.3476563-3.887207l-11.3530273,0.0385742
	l1.0390625-2.309082l9.5058594,0.0769043l2.3476563-3.6176758l-10.4296875-0.0769043l0.8466797-2.1166992l10.6220703,0.0769043
	l2.0395508-3.232666V6.8125L235.2749023,6.8125z M235.2749023,10.5454102v0.0385742l0,0V10.5454102z M210.375,6.5046387
	l3.6943359-0.0769043v5.3493652c-1.7700195,4.8876953-5.0800781,10.1599121-13.2773438,10.1599121l-11.0449219-0.0769043
	l1.6162109-3.925293l9.5830078-0.0769043c2.5786133-0.1157227,5.0029297-0.8466797,6.234375-3.8100586L210.375,6.5046387
	L210.375,6.5046387z M214.0693359,17.7038574l-1.6547852,4.15625h1.6547852V17.7038574z"/>
<rect opacity="0" fill-rule="evenodd" clip-rule="evenodd" fill="#FF0000" width="260" height="26"/>
</svg>
