<?xml version="1.0" encoding="utf-8"?>
<!-- Generator: Adobe Illustrator 19.0.0, SVG Export Plug-In . SVG Version: 6.00 Build 0)  -->
<svg version="1.0" id="Слой_1" xmlns="http://www.w3.org/2000/svg" xmlns:xlink="http://www.w3.org/1999/xlink" x="0px" y="0px"
	 viewBox="0 0 147.2 38.4" width="147.2px" height="38.4px" style="enable-background:new 0 0 147.2 38.4;" xml:space="preserve">
<style type="text/css">
	.st0{fill-rule:evenodd;clip-rule:evenodd;fill:#34345D;}
	.st1{fill-rule:evenodd;clip-rule:evenodd;fill:#006EAE;}
	.st2{fill-rule:evenodd;clip-rule:evenodd;fill:#0081C2;}
	.st3{fill-rule:evenodd;clip-rule:evenodd;fill:#64BEE6;}
</style>
<g id="XMLID_1238_">
	<path id="XMLID_1268_" class="st0" d="M109.8,17.8h-3.6c-1.3,0-2.3-0.3-2.3-2.2c0-1.6,1.6-2.3,3.3-2.4c2.4-0.2,5.6,0.3,6.9,1v-3
		c-1.1-0.5-3.5-1-5.9-1c-3.2,0-6.3,1.2-7,2.9c-0.7,1.7-0.6,2.1-0.6,2.9c0,0.8,0.1,1.9,0.6,2.7c0.6,1.1,2.4,2.2,4.2,2.2h3.9
		c2.2,0,2.4,1.4,2.4,2.3c0,1.9-2,2.4-3.9,2.4c-2,0-4.8-0.2-6.3-1v3.2c1.6,0.3,3,0.7,5.9,0.7c3.4,0,5.7-0.6,7-2.9
		c0.5-0.9,0.8-3.3,0.3-4.7C114,19.1,112.1,17.8,109.8,17.8"/>
	<path id="XMLID_1267_" class="st0" d="M56.6,10.9c-0.7,0.4-1.2,1.4-1.2,2.3v9.9c0,0-9.8-12.7-9.9-12.8c-0.9,0-2,0.4-2.4,0.7
		c-0.6,0.5-0.9,1.1-0.9,2.4v15h3.2V15.4l10.1,13.1h3.3v-18C57.8,10.5,57.2,10.5,56.6,10.9"/>
	<path id="XMLID_1264_" class="st0" d="M95.4,10.9c-0.7,0.5-1,1.1-1,1.7v3.2c-2.2-1.1-5.9-0.8-7.6,0.7c-1.4,1.2-1.9,3.3-1.9,5
		c0,1.5,0.3,2.7,0.7,3.7c1.2,2.7,3.8,3,6.3,3c1.5,0,3.4-0.2,5.8-0.7V10.4C96.9,10.4,96,10.5,95.4,10.9 M94.4,25.2
		c-1.8,0.4-2.5,0.4-3.2,0.4c-3,0-3-3.2-3-3.9c0-2.7,0.9-3.7,3.2-3.7c1.4,0,2.2,0.2,3,0.7C94.4,20.6,94.4,23.5,94.4,25.2"/>
	<path id="XMLID_1263_" class="st0" d="M120.3,12.9c-0.7,0-1.3,0.2-1.9,0.6c-0.6,0.3-1.1,1.2-1.1,2.3v10.1c0,0.8,1.4,2.6,3,2.6h3
		v-2.7c0,0-1.7,0.1-2.2-0.3c-0.3-0.3-0.4-0.5-0.4-0.9c0-2.6-0.1-6.8-0.1-6.8h2.7v-2.6h-3V12.9z"/>
	<path id="XMLID_1260_" class="st0" d="M73.5,17.4c-1.6-2.1-4.3-2.3-5.8-2.3c-1.5,0-3.8,0.6-4.7,1.6c-1,1-1.7,2.5-1.7,5
		c0,3.4,0.8,4.5,2.7,5.9c1.1,0.8,1.9,0.9,4.2,0.9c1.5,0,2.5-0.2,3.5-0.7c1.7-0.9,3-2.4,3-6.3C74.7,19.5,74.3,18.5,73.5,17.4
		 M70.6,24.4c-0.5,0.9-1.4,1.4-2.6,1.4c-1.1,0-2-0.4-2.4-0.9c-0.6-0.7-1-1-1-3.4c0-1.4,0.3-2.1,0.7-2.7c0.7-1,1.7-1.2,2.6-1.2
		c1,0,1.7,0.3,2.3,0.7c0.8,0.5,1,2.1,1,3.6C71.2,23.2,71,23.8,70.6,24.4"/>
	<path id="XMLID_1257_" class="st0" d="M136.7,17.3c-1.4-1.8-4.7-2.3-7.5-2c-1.7,0.2-2,0.3-2.9,0.4v2.7c2.2-0.5,6.2-1.4,7.8,0.7v1.4
		c-4.3-0.6-7.9-0.6-8.8,2.7c-0.2,0.6-0.1,1.6,0.1,2.4c0.5,2.1,3.9,3.2,6.9,2.4c0.5-0.1,1.3-0.4,1.9-0.7c0.6,0.4,1.4,1,1.4,1h1.7
		v-9.2C137.4,18.4,136.9,17.6,136.7,17.3 M133.9,24.9c-0.7,0.5-3.5,1.3-4.6,0.7c-0.6-0.3-1-1.5-0.6-2.2c0.7-1,3.8-0.6,5.2-0.4V24.9z
		"/>
	<path id="XMLID_1255_" class="st0" d="M143.6,16.8v-1.6c-0.7,0-1.1,0-1.9,0.3c-0.8,0.3-1.3,1.8-1.3,2.9c0,2.5,0,10.1,0,10.1h3.5
		v-8.9c0.5-0.9,2.3-1.8,3.3-1.7v-2.6C145.6,15.3,144.2,15.9,143.6,16.8"/>
	<path id="XMLID_1254_" class="st0" d="M80,16.8v-1.6c-0.7,0-1.1,0-1.9,0.3c-0.8,0.3-1.3,1.8-1.3,2.9c0,2.5,0,10.1,0,10.1h3.5v-8.9
		c0.5-0.9,2.3-1.8,3.3-1.7v-2.6C82.1,15.3,80.6,15.9,80,16.8"/>
	<path id="XMLID_1253_" class="st0" d="M34.1,4.3c-4.8,3.3-6.5,10.5-12.1,9.9c1,0.7,2.1,1.5,4.5,1c3.3-0.6,5.2-2.6,5.9-3.6
		c1.3-1.8,0.8-1.2,3-4.5c1.9-2.7,3.1-3.6,4.7-3.9C37.5,2.4,35.2,3.5,34.1,4.3"/>
	<path id="XMLID_1252_" class="st0" d="M20.2,17.2c-1.1,0.6-2.3,1.1-3.1,3.3c-1.1,3.1-0.4,5.8,0.1,6.9c0.9,2,0.6,1.2,2.3,4.8
		c1.4,3,1.6,4.5,1,6.1c2.1-1.8,2.3-4.4,2.2-5.7C22.2,26.8,16.9,21.8,20.2,17.2"/>
	<path id="XMLID_1251_" class="st0" d="M18.5,14.1c0.1-1.2,0.2-2.5-1.3-4.4c-2.2-2.5-4.8-3.2-6.1-3.3C8.9,6.2,9.7,6.3,5.7,5.9
		C2.4,5.7,1,5.1,0,3.8c0.5,2.7,2.6,4.2,3.9,4.7C9.2,11,16.2,8.9,18.5,14.1"/>
	<path id="XMLID_1250_" class="st1" d="M21.2,13.5c3,0.7,4.7-1.1,5.3-1.7c2.2-2.3,2.2-4.8,3.3-8.5c0.3-1.1,0.8-2.1,2.2-3.2
		C24.4,0.8,26.8,12.4,21.2,13.5"/>
	<path id="XMLID_1249_" class="st1" d="M21.2,16.8c-2.1,2.3-1.4,4.6-1.2,5.5c0.9,3.1,3.1,4.3,5.7,7.1c0.8,0.9,1.4,1.8,1.7,3.5
		C30.6,26,19.4,22.3,21.2,16.8"/>
	<path id="XMLID_1248_" class="st1" d="M14.2,11.4c-3.1-0.8-5.3,0.5-9,1.3C4,13,2.9,13.1,1.3,12.4c4.3,6.3,13.2-1.6,17,2.7
		C17.3,12.2,15,11.6,14.2,11.4"/>
	<path id="XMLID_1246_" class="st2" d="M24.3,7.9C24.6,5.5,23,3.2,24.6,0c-1.8,1-2.9,2.5-2.9,5.5c0,2.4,0.2,3.9,0,5
		c-0.2,1.6-0.6,2.2-1.6,2.7c0.6,0,1.7-0.5,2-0.7C23.3,11.7,24.2,9.4,24.3,7.9"/>
	<path id="XMLID_1245_" class="st2" d="M27.9,21.4c-2.1-1.2-3.5-1.8-4.4-2.5c-1.2-1-1.6-1.6-1.6-2.7c-0.3,0.5-0.4,1.7-0.4,2.1
		c0.1,1.3,1.7,3.3,2.9,4.2c2,1.4,4.8,1.2,6.7,4.2C31.2,24.5,30.5,22.9,27.9,21.4"/>
	<path id="XMLID_1244_" class="st2" d="M16.9,14.8c-1.2-0.6-3.7-0.2-5.1,0.4c-2.2,1-3.4,3.5-7,3.7c1.8,1.1,3.6,1.3,6.2-0.2
		c2.1-1.2,3.3-2.1,4.4-2.5c1.5-0.6,2.2-0.5,3.2,0C18.2,15.7,17.3,15,16.9,14.8"/>
	<path id="XMLID_1243_" class="st3" d="M18.9,2c-1.1,1.5-2.2,2.5,0.1,7.5c0,0,1.3,2.5,0,4.2c0.5-0.2,1-0.7,1.3-1.1
		c0.3-0.5,0.9-1.7,0.6-3.5C20.4,6.1,18.3,5.4,18.9,2"/>
	<path id="XMLID_1242_" class="st3" d="M25.8,17c0,0-2.8-0.1-3.6-2.1c-0.1,0.5,0.1,1.2,0.3,1.7c0.3,0.5,1,1.6,2.7,2.2
		c2.8,1,4.5-0.4,7.1,1.8C31.6,19,31.3,17.5,25.8,17"/>
	<path id="XMLID_1241_" class="st3" d="M14.6,17.6c-2.3,1.9-1.9,4.1-5.1,5.2c1.8,0.2,3.3,0.7,6.4-3.8c0,0,1.5-2.4,3.6-2.1
		c-0.4-0.4-1.1-0.5-1.6-0.6C17.2,16.4,15.9,16.5,14.6,17.6"/>
</g>
</svg>
