<?xml version="1.0" encoding="utf-8"?>
<!-- Generator: Adobe Illustrator 19.0.0, SVG Export Plug-In . SVG Version: 6.00 Build 0)  -->
<svg version="1.0" id="Слой_1" xmlns="http://www.w3.org/2000/svg" xmlns:xlink="http://www.w3.org/1999/xlink" x="0px" y="0px"
	 viewBox="560 -48 320 37.1" width="320px" height="37.1px" style="enable-background:new 560 -48 320 37.1;" xml:space="preserve">
	 <style xmlns="http://www.w3.org/2000/svg" type="text/css">
	.st0{fill:#004993;}
	.st1{fill:#FFFFFF;}
	.st2{fill:#F58220;}
	.st3{clip-path:url(#SVGID_2_);fill:#F3F3F3;}
	.st4{clip-path:url(#SVGID_4_);fill:#314094;}
	.st5{clip-path:url(#SVGID_6_);fill:#D71F26;}
	.st6{clip-path:url(#SVGID_8_);fill:#FFFFFF;}
	.st7{clip-path:url(#SVGID_10_);fill:#BC1F37;}
	.st8{clip-path:url(#SVGID_12_);fill:#BC1F37;}
	.st9{clip-path:url(#SVGID_14_);fill:#BC1F37;}
	.st10{clip-path:url(#SVGID_16_);fill:#BC1F37;}
	.st11{clip-path:url(#SVGID_18_);fill:#2D2F76;}
	.st12{clip-path:url(#SVGID_20_);fill:#2D2F76;}
	.st13{clip-path:url(#SVGID_22_);fill:#2D2F76;}
	.st14{clip-path:url(#SVGID_24_);fill:#2D2F76;}
	.st15{clip-path:url(#SVGID_26_);fill:#2D2F76;}
	.st16{clip-path:url(#SVGID_28_);fill:#2D2F76;}
	.st17{clip-path:url(#SVGID_30_);fill:#2D2F76;}
	.st18{clip-path:url(#SVGID_32_);fill:#2D2F76;}
	.st19{clip-path:url(#SVGID_34_);fill:#BC1F37;}
</style>
<g id="logo_ru">
		<polygon id="polygon6" class="st0" points="592.5,-34.9 592.5,-10.9 583,-10.9 583,-21.2 569.6,-21.2 569.6,-10.9 560,-10.9     560,-34.9 569.4,-34.9 569.5,-24.9 582.9,-24.9 582.8,-34.9   "/>
		<path id="path8" class="st0" d="M697-10.9h-36.9v-3.8h3.5L674-35h9l11.7,20.4h2.1L697-10.9L697-10.9z M684.1-14.7l-8.2-14.8h-0.2    l-7.5,14.8H684.1L684.1-14.7z"/>
		<path id="path10" class="st0" d="M645.3-31.4v7.9h4.2c1.4,0,3.1-0.1,4.3-1c1.4-1,1.7-2.3,1.7-3c0-0.7-0.2-2-1.6-2.9    c-1.3-0.9-3.4-1-4.4-1H645.3z M645.3-10.9h-9V-35h15.3c4.8,0,7.7,0.4,9.9,1.7c2.7,1.6,3.3,4,3.3,5.8c0,1.8-0.6,4.2-3.3,5.9    c-2.2,1.4-5.1,1.9-9.5,1.9h-6.8L645.3-10.9z"/>
		<path id="path12" class="st0" d="M614.3-36.4c4.2,0,10.1,1,14,4c3.1,2.4,4.6,5.8,4.6,8.7s-1.4,6.3-4.6,8.7c-3.9,3-9.8,4-14,4    s-10.1-1-14-4c-3.1-2.4-4.6-5.8-4.6-8.7s1.5-6.3,4.6-8.7C604.2-35.3,610.1-36.4,614.3-36.4z M614.3-33.5c-2.2,0-4.8,0.5-6.8,3.2    c-1.6,2.1-1.9,4.5-1.9,6.6s0.3,4.5,1.9,6.6c2,2.6,4.6,3.2,6.8,3.2s4.8-0.5,6.8-3.2c1.6-2.1,1.9-4.5,1.9-6.6s-0.3-4.5-1.9-6.6    C619.1-32.9,616.5-33.5,614.3-33.5L614.3-33.5z"/>
		<polygon id="polygon14" class="st0" points="779.2,-16.8 779.1,-34.9 769.7,-34.9 769.7,-10.9 779.3,-10.9 792.7,-28.5     792.7,-10.9 802.2,-10.9 802.2,-34.9 792.5,-34.9   "/>
		<path id="path16" class="st0" d="M711.7-35l-12.4,24.1h4.5l3.5-7h12.4l3.8,7h10L719.9-35H711.7L711.7-35z M709-21.2l4.2-8.4h0.1    l4.6,8.4H709L709-21.2z"/>
		<path id="path18" class="st0" d="M824.8-35h-8.3l-12.3,24.1h4.5l3.5-7h12.4l3.8,7h10L824.8-35L824.8-35z M813.7-21.2l4.2-8.4h0.1    l4.6,8.4H813.7L813.7-21.2z"/>
		<path id="path20" class="st0" d="M764-22.3c-0.8-0.5-1.8-0.9-3-1.1c0.7-0.2,1.4-0.5,1.9-0.8c2.2-1.4,2.8-3.3,2.8-4.7    c0-1.5-0.5-3.4-2.8-4.7c-1.8-1.1-4.2-1.4-8.3-1.4H737v24.1h18.2c4.3,0,6.8-0.3,8.7-1.4c2.3-1.4,2.9-3.4,2.9-4.9    C766.9-18.9,766.3-20.8,764-22.3L764-22.3z M752.9-32.1c0.8,0,2.6,0.1,3.7,0.9c1.1,0.8,1.3,2.1,1.3,2.7c0,0.7-0.2,1.9-1.4,2.8    c-1.1,0.8-2.5,0.9-3.6,0.9h-6.1v-7.4L752.9-32.1z M757.3-15c-1.2,0.9-3,1-3.9,1h-6.7v-8h6.7c1.2,0,2.7,0.2,3.8,1    c1.3,1,1.5,2.3,1.5,3C758.7-17.2,758.5-15.9,757.3-15z"/>
		<polygon id="polygon22" class="st0" points="869.5,-47.9 848.5,-47.9 838,-29.4 848.5,-10.9 869.5,-10.9 880,-29.4   "/>
		<path id="path24" class="st1" d="M859-22l2.8,2.7c0.2,0.2,0.6,0.2,0.9,0l0.5-0.5c0.2-0.2,0.2-0.6,0-0.8l-3.3-3.2v-2.6l1.5,1.1    l-0.2-1.7l2.4,1.4l1.1,4.2c0.1,0.3,0.4,0.5,0.7,0.4l0.7-0.2c0.3-0.1,0.5-0.4,0.4-0.7l-1-3.8l3.8-1c0.3-0.1,0.5-0.4,0.4-0.7    l-0.2-0.7c-0.1-0.3-0.4-0.5-0.7-0.4l-4.5,1.2l-2.3-1.3l1.7-0.8l-1.6-0.7l2.4-1.3l4.3,1.1c0.3,0.1,0.7-0.1,0.7-0.4l0.2-0.7    c0.1-0.3-0.1-0.6-0.4-0.7l-3.9-1l1-3.8c0.1-0.3-0.1-0.6-0.4-0.7l-0.7-0.2c-0.3-0.1-0.7,0.1-0.7,0.4l-1.2,4.4l-2.3,1.3l0.2-1.9    l-1.6,1.1v-2.6l3.3-3.2c0.2-0.2,0.2-0.6,0-0.8l-0.5-0.5c-0.2-0.2-0.6-0.2-0.9,0l-2.8,2.7l-2.8-2.8c-0.2-0.2-0.6-0.2-0.9,0    l-0.5,0.5c-0.2,0.2-0.2,0.6,0,0.8l3.1,3.1v2.7l-1.4-1l0.2,1.9l-2.3-1.3l-1.2-4.4c-0.1-0.3-0.4-0.5-0.7-0.4l-0.7,0.2    c-0.3,0.1-0.5,0.4-0.4,0.7l1,3.8l-3.9,1c-0.3,0.1-0.5,0.4-0.4,0.7l0.2,0.7c0.1,0.3,0.4,0.5,0.7,0.4l4.3-1.1l2.4,1.3l-1.5,0.7    l1.8,0.8l-2.3,1.3l-4.5-1.2c-0.3-0.1-0.6,0.1-0.7,0.4l-0.2,0.7c-0.1,0.3,0.1,0.6,0.4,0.7l3.8,1l-1,3.8c-0.1,0.3,0.1,0.6,0.4,0.7    l0.7,0.2c0.3,0.1,0.6-0.1,0.7-0.4l1.1-4.2l2.4-1.3l-0.2,1.6l1.4-1v2.7l-3.1,3.1c-0.2,0.2-0.2,0.6,0,0.8l0.5,0.5    c0.2,0.2,0.6,0.2,0.9,0L859-22L859-22z"/>
		<polygon id="polygon26" class="st1" points="859.1,-38.5 856.2,-41.3 859.1,-44.1 861.9,-41.3   "/>
		<polygon id="polygon28" class="st1" points="859.1,-14.8 856.2,-17.6 859.1,-20.4 861.9,-17.6   "/>
		<polygon id="polygon30" class="st1" points="872.1,-36.9 871,-33.1 867.2,-34.1 868.2,-37.9   "/>
		<polygon id="polygon32" class="st1" points="867.1,-25 871,-26 872,-22.2 868.1,-21.2   "/>
		<polygon id="polygon34" class="st1" points="845.9,-36.8 849.8,-37.8 850.8,-34 847,-33   "/>
		<polygon id="polygon36" class="st1" points="851,-24.9 850,-21.1 846.1,-22.1 847.1,-25.9   "/>
		<g id="g38">
			<path id="path40" class="st0" d="M565-41.8h-3.1l-0.8,2.3h-1l3.2-8.5h0.5l3.2,8.5h-1.1L565-41.8L565-41.8z M562.2-42.6h2.5     l-0.9-2.5l-0.3-1.3l-0.3,1.3L562.2-42.6L562.2-42.6z"/>
			<path id="path42" class="st0" d="M573.2-45.9c0,0.2,0,0.4-0.1,0.6l-0.3,0.6c-0.1,0.2-0.3,0.3-0.5,0.5c-0.2,0.1-0.4,0.2-0.7,0.3     c0.2,0,0.5,0.1,0.7,0.2c0.2,0.1,0.4,0.2,0.6,0.4s0.3,0.4,0.4,0.6c0.1,0.2,0.2,0.5,0.2,0.8c0,0.4-0.1,0.8-0.3,1.1     s-0.4,0.6-0.7,0.8c-0.3,0.2-0.6,0.3-1,0.4c-0.4,0.1-0.8,0.1-1.2,0.1h-1.7c-0.2,0-0.4,0-0.5-0.1v-8.2c0.3,0,0.7-0.1,1-0.1h1.3     c0.3,0,0.6,0,1,0.1c0.3,0.1,0.6,0.2,0.9,0.3c0.3,0.1,0.5,0.4,0.7,0.6C573.1-46.7,573.2-46.3,573.2-45.9L573.2-45.9z M569.7-44.1     h1c0.2-0.1,0.4-0.1,0.5-0.2c0.2-0.1,0.3-0.2,0.5-0.3c0.1-0.1,0.2-0.3,0.3-0.4c0.1-0.2,0.1-0.3,0.1-0.5c0-0.3-0.1-0.5-0.2-0.6     c-0.1-0.2-0.2-0.3-0.4-0.4s-0.4-0.2-0.6-0.2s-0.4-0.1-0.7-0.1h-0.7c-0.2,0-0.4,0-0.5,0.1v2.8L569.7-44.1L569.7-44.1z M570.4-40.2     c0.3,0,0.5,0,0.8-0.1c0.2-0.1,0.5-0.2,0.6-0.3c0.1-0.1,0.3-0.3,0.4-0.5c0.1-0.2,0.2-0.4,0.2-0.7s-0.1-0.6-0.2-0.8     c-0.1-0.2-0.3-0.4-0.5-0.5c-0.2-0.1-0.5-0.2-0.7-0.2c-0.3,0-0.5-0.1-0.8-0.1h-1.1v3h0.9C570.2-40.2,570.3-40.2,570.4-40.2     L570.4-40.2z"/>
			<path id="path44" class="st0" d="M580.4-45.1l0.1-1l-0.5,1l-4.1,5.6h-0.6v-8.3h1v5.7l-0.1,0.9l0.5-1l4.1-5.7h0.6v8.3h-1V-45.1z"/>
			<path id="path46" class="st0" d="M587.5-41.8h-3.1l-0.8,2.3h-1l3.2-8.5h0.5l3.2,8.5h-1.1L587.5-41.8L587.5-41.8z M584.7-42.6h2.5     l-0.9-2.5l-0.3-1.3l-0.3,1.3C585.7-45.2,584.7-42.6,584.7-42.6L584.7-42.6z"/>
			<path id="path48" class="st0" d="M592.2-43.3h-0.6v3.9h-1v-8.3h1v3.9l0.5-0.2l2.9-3.7h1.2l-2.9,3.6l-0.5,0.4l0.6,0.5l3.1,3.9     h-1.3C595.3-39.5,592.2-43.3,592.2-43.3L592.2-43.3z"/>
			<path id="path50" class="st0" d="M597.5-43.6c0-1.4,0.3-2.5,0.9-3.2s1.5-1.1,2.6-1.1c0.6,0,1.1,0.1,1.6,0.3     c0.4,0.2,0.8,0.5,1.1,0.9c0.3,0.4,0.5,0.8,0.6,1.4c0.1,0.5,0.2,1.1,0.2,1.8c0,1.4-0.3,2.5-0.9,3.2c-0.6,0.7-1.5,1.1-2.6,1.1     c-0.6,0-1.1-0.1-1.5-0.3c-0.4-0.2-0.8-0.5-1.1-0.9c-0.3-0.4-0.5-0.8-0.6-1.4C597.5-42.4,597.5-43,597.5-43.6L597.5-43.6z      M598.5-43.6c0,0.5,0,0.9,0.1,1.3c0.1,0.4,0.2,0.8,0.4,1.1c0.2,0.3,0.4,0.6,0.8,0.8c0.3,0.2,0.7,0.3,1.1,0.3     c0.8,0,1.3-0.3,1.8-0.8c0.4-0.6,0.6-1.4,0.6-2.6c0-0.5,0-0.9-0.1-1.3c-0.1-0.4-0.2-0.8-0.4-1.1c-0.2-0.3-0.5-0.6-0.8-0.8     s-0.7-0.3-1.1-0.3c-0.7,0-1.3,0.3-1.8,0.8C598.7-45.7,598.5-44.8,598.5-43.6z"/>
			<path id="path52" class="st0" d="M612.7-45.1l0.1-1.3h-0.1l-0.5,1.1l-2.2,3.8h-0.3l-2.4-3.8l-0.4-1.1h-0.1l0.2,1.2v5.6h-1v-8.3     h0.8l2.7,4.3l0.4,0.9l0.4-1l2.5-4.2h0.8v8.3h-1C612.7-39.5,612.7-45.1,612.7-45.1z"/>
			<path id="path54" class="st0" d="M620.7-46.9h-3.9v7.4h-1v-8.3h6v8.3h-1C620.7-39.5,620.7-46.9,620.7-46.9z"/>
			<path id="path56" class="st0" d="M627.9-41.8h-3.1l-0.8,2.3h-1l3.2-8.5h0.5l3.2,8.5h-1.1C628.7-39.5,627.9-41.8,627.9-41.8     L627.9-41.8z M625.1-42.6h2.5l-0.9-2.5l-0.3-1.3l-0.3,1.3L625.1-42.6L625.1-42.6z"/>
			<path id="path58" class="st0" d="M636.1-43.3H632v3.8h-1v-8.3h1v3.6h4.1v-3.6h1v8.3h-1V-43.3z"/>
			<path id="path60" class="st0" d="M644.4-45.1l0.1-1l-0.5,1l-4.1,5.6h-0.6v-8.3h1v5.7l-0.1,0.9l0.5-1l4.1-5.7h0.6v8.3h-1V-45.1z"/>
			<path id="path62" class="st0" d="M652.3-39.5h-1v-3.6l-1.3,0.3l-2.1,3.4h-1.2l1.9-3l0.7-0.5c-0.3-0.1-0.6-0.2-0.8-0.3     c-0.2-0.1-0.5-0.3-0.6-0.5c-0.2-0.2-0.3-0.4-0.4-0.7c-0.1-0.3-0.2-0.6-0.2-0.9c0-0.5,0.1-0.9,0.3-1.2c0.2-0.3,0.4-0.6,0.7-0.8     c0.3-0.2,0.6-0.3,1-0.4c0.4-0.1,0.8-0.1,1.2-0.1h0.9c0.3,0,0.6,0.1,0.9,0.1V-39.5z M650.4-47c-0.3,0-0.5,0-0.8,0.1     c-0.2,0.1-0.5,0.1-0.7,0.3c-0.2,0.1-0.3,0.3-0.5,0.5s-0.2,0.5-0.2,0.8s0.1,0.6,0.2,0.8c0.1,0.2,0.3,0.4,0.4,0.5     c0.2,0.1,0.4,0.2,0.7,0.3c0.2,0.1,0.5,0.1,0.8,0.1h0.8v-3.3c-0.1,0-0.2,0-0.4-0.1H650.4L650.4-47z"/>
		</g>
	</g>
</svg>
