<?xml version="1.0" encoding="UTF-8"?>
<!-- Generator: Adobe Illustrator 15.0.2, SVG Export Plug-In . SVG Version: 6.00 Build 0)  -->
<svg width="243.5" height="100" enable-background="new 0 0 160.896 66.075" version="1.1" viewBox="0 0 243.5 100" xml:space="preserve" xmlns="http://www.w3.org/2000/svg" xmlns:cc="http://creativecommons.org/ns#" xmlns:dc="http://purl.org/dc/elements/1.1/" xmlns:rdf="http://www.w3.org/1999/02/22-rdf-syntax-ns#"><metadata><rdf:RDF><cc:Work rdf:about=""><dc:format>image/svg+xml</dc:format><dc:type rdf:resource="http://purl.org/dc/dcmitype/StillImage"/><dc:title/></cc:Work></rdf:RDF></metadata>
<path d="m22.488 0v0.0029c-9.256 0-12.617 6.2945-13.458 9.4499-1.6829 5.8871-1.6494 7.8084-2.9115 8.8617-3.154 2.7302-6.1187 3.5565-6.1187 7.1296 0 5.2576 7.975 3.3681 7.975 13.461v28.607c0 5.4664 2.5493 7.3424 8.2292 7.3424 5.4649 0 7.7651-2.5055 7.7651-7.3424v-29.662c0-2.9436 1.0562-5.2338 2.5302-6.2871 1.6814-1.2637 6.9611-2.5405 6.9611-6.3285 0-1.6829-1.0587-3.5889-3.3727-4.6407-3.154-1.4741-3.7983-2.2808-3.7983-3.9668 0-1.471 1.0681-2.5406 4.4309-4.4308 3.5747-1.8948 3.1214-4.3989 3.1214-6.7098 0-2.9481-3.1366-5.4861-7.3424-5.4861zm22.701 0.29559v0.0029c-3.7835 0-6.2872 2.9692-6.2872 6.7512v60.125c0 5.4679 2.2981 7.8035 8.6075 7.8035 5.2576 0 7.8065-2.329 7.8065-6.7512v-60.125c0-5.253-2.3351-7.8064-6.7512-7.8064zm72.446 2.743c-3.5762 0-5.2319 2.7533-5.2319 6.5413v56.96c0 6.7316 1.6631 8.439 7.1326 8.439 4.8339 0 4.4058-1.475 9.45-1.475 5.0487 0 5.5092 2.7401 13.29 2.7401 13.035 0 23.124-9.6812 23.124-29.449 0-17.032-9.4962-26.289-22.533-26.289-5.8932 0-8.8302 2.3233-12.196 2.3233-2.9436 0-4.3865-3.3865-4.3865-6.3285v-6.9226c0-4.4161-2.3297-6.5384-5.2733-6.5384zm79.073 15.696c-13.668 0-26.709 8.1698-26.709 29.621 0 17.875 11.569 27.342 26.919 27.342 15.773 0 23.334-9.4627 23.334-12.828 0-2.5244-3.7698-5.4418-7.1296-5.4418-5.4665 0-6.9517 7.3424-15.991 7.3424-5.4695 0-10.928-5.0363-10.928-9.6627 0-3.5747 2.504-5.4861 7.3424-5.4861h21.897c5.0502 0 7.1326-1.2375 7.1326-6.0743-2e-3 -4.2042-2.9433-24.81-25.867-24.812zm-131.86 1.8592c-2.9451 0-6.3212 1.0812-3.7983 9.4942 0.62958 2.314 13.881 41.403 13.881 44.979 0 2.9451-2.0789 5.7015-6.0743 6.5384-3.7881 0.84297-6.1187 2.5032-6.1187 5.8644 0 3.5747 2.3302 5.6989 5.696 5.6989h5.2349c6.0945 0 12.838-1.8995 17.044-14.939l16.627-50.463c0.21189-0.84599 0.41975-1.9015 0.41975-3.3756 0-2.1051-2.1134-3.7953-4.6408-3.7953h-3.5855c-3.9939 0-6.5025 1.9084-7.3424 5.4861l-4.4309 20.378c-0.62958 3.157-1.906 6.5413-4.0082 6.5413-1.6814 0-3.1218-1.0754-4.1767-6.3315l-4.221-19.323c-1.0488-4.4161-3.1337-6.7512-6.7099-6.7512zm131.86 9.0716c5.0487 0 9.4943 3.7637 9.4943 7.1296 0 2.9451-3.615 4.4308-10.553 4.4308-5.6798 0-8.6075-1.6997-8.6075-4.8506 3e-3 -3.785 5.463-6.7098 9.6658-6.7098zm-57.595 0.71532c8.4085 0 12.196 8.2187 12.196 18.944 0 11.358-5.8886 16.795-12.616 16.795-7.1509 0-12.196-6.0767-12.196-18.27 0-12.194 6.0944-17.469 12.616-17.469zm94.432 25.994c-7.1524 0-9.2431 2.7218-9.2431 9.8726 0 4.625 0.8295 9.4499 9.4529 9.4499 6.096 0 9.2844-2.0937 9.2844-9.8726 0-5.0502-0.87239-9.4499-9.4943-9.4499zm-113.25 24.217c-7.163 0-9.2844 2.7465-9.2844 9.914 0 4.6356 0.85271 9.4943 9.4943 9.4943 6.1096 0 9.2371-2.1109 9.2371-9.914 3e-3 -5.0563-0.8039-9.4943-9.447-9.4943zm22.743 0c-7.166 0-9.2844 2.7465-9.2844 9.914 0 4.6356 0.84825 9.4943 9.4914 9.4943 6.1096 0 9.243-2.1109 9.243-9.914 3e-3 -5.0563-0.80836-9.4943-9.45-9.4943zm23.08 0c-7.163 0-9.2401 2.7465-9.2401 9.914 0 4.6356 0.80685 9.4943 9.45 9.4943 6.1096 0 9.2844-2.1109 9.2844-9.914 0-5.0563-0.85122-9.4943-9.4943-9.4943zm22.743 0c-7.166 0-9.2815 2.7465-9.2815 9.914 0 4.6356 0.84826 9.4943 9.4914 9.4943 6.1096 0 9.2815-2.1109 9.2815-9.914 0-5.0563-0.84673-9.4943-9.4913-9.4943zm22.743 0c-7.163 0-9.2844 2.7465-9.2844 9.914 0 4.6356 0.85271 9.4943 9.4943 9.4943 6.1097 0 9.2815-2.1109 9.2815-9.914 2e-3 -5.0563-0.8452-9.4943-9.4913-9.4943zm22.406 0c-7.163 0-9.2844 2.7465-9.2844 9.914 0 4.6356 0.85119 9.4943 9.4943 9.4943 6.1112 0 9.2815-2.1109 9.2815-9.914 0-5.0563-0.84824-9.4943-9.4914-9.4943z" fill="#5a3f99" stroke-width="1.5134"/>
</svg>
