<?xml version="1.0" encoding="utf-8"?>
<!-- Generator: Adobe Illustrator 16.0.3, SVG Export Plug-In . SVG Version: 6.00 Build 0)  -->
<!DOCTYPE svg PUBLIC "-//W3C//DTD SVG 1.1//EN" "http://www.w3.org/Graphics/SVG/1.1/DTD/svg11.dtd">
<svg version="1.1" id="Ebene_1" xmlns="http://www.w3.org/2000/svg" xmlns:xlink="http://www.w3.org/1999/xlink" x="0px" y="0px"
	 width="256.848px" height="52.923px" viewBox="0 0 256.848 52.923" enable-background="new 0 0 256.848 52.923"
	 xml:space="preserve">
<polyline fill="#0B4E9A" points="223.608,48.626 215.822,48.626 215.822,11.389 192.516,11.389 192.516,4.292 223.608,4.292 "/>
<path fill="#0B4E9A" d="M42.671,26.588v-0.132c0-12.404,9.642-22.917,23.26-22.917c13.609,0,23.114,10.317,23.114,22.792v0.124
	c0,12.416-9.626,22.928-23.236,22.928C52.188,49.384,42.671,39.057,42.671,26.588 M80.875,26.588v-0.132
	c0-8.609-6.211-15.764-15.066-15.764c-8.809,0-14.948,7.029-14.948,15.64v0.124c0,8.62,6.201,15.77,15.07,15.77
	C74.731,42.226,80.875,35.197,80.875,26.588"/>
<path fill="#0B4E9A" d="M91.652,4.293h19.883c5.131,0,8.998,1.329,11.596,3.934c1.952,1.955,2.972,4.421,2.972,7.34v0.127
	c0,5.32-2.972,8.236-6.34,9.885c5.265,1.763,8.809,4.739,8.809,10.759v0.129c0,7.915-6.529,12.159-16.401,12.159H91.652
	 M109.958,22.982c5.064,0,8.355-1.969,8.355-6.019v-0.124c0-3.554-2.721-5.643-7.787-5.643H99.315v11.786H109.958z M112.228,41.725
	c5.32,0,8.554-2.032,8.554-6.083v-0.129c0-3.799-2.967-5.955-9.116-5.955h-12.35v12.167H112.228z"/>
<path fill="#0B4E9A" d="M147.951,3.979h7.229l19.502,44.647h-8.235l-4.493-10.699h-20.965l-4.552,10.699h-7.984 M159.098,31.021
	l-7.649-17.736l-7.609,17.736H159.098z"/>
<polyline fill="#0B4E9A" points="178.3,4.292 186.078,4.292 186.078,41.534 209.393,41.534 209.393,48.626 178.3,48.626 "/>
<polyline fill="#0B4E9A" points="246.191,11.389 226.358,11.389 226.358,4.292 253.305,4.292 "/>
<polyline fill="#36A9E1" points="236.405,21.206 226.358,21.206 226.358,14.113 243.509,14.113 "/>
<path fill="#0B4E9A" d="M25.932,11.389h14.505l7.099-7.098H26.028c-13.209,0-22.485,10.145-22.485,22.542v0.135
	c0,12.514,9.459,22.416,22.167,22.416c7.635,0,12.486-2.673,16.799-6.84l-4.033-5.857c-3.669,3.485-7.225,5.668-12.51,5.668
	c-8.288,0-14.388-6.982-14.388-15.521v-0.117c0-8.468,6.058-15.346,14.345-15.346"/>
</svg>
