<?xml version="1.0" encoding="utf-8"?>
<svg version="1.1" xmlns="http://www.w3.org/2000/svg" xmlns:xlink="http://www.w3.org/1999/xlink" width="159px" height="48px" viewBox="0 0 159 48"><defs><path id="ks3wa" d="M158.93 22.06a23.8 23.8 0 0 1-5.67 17.43 23.8 23.8 0 0 1-18.23 8.39c-6 0-11.75-2.25-16.18-6.33A23.97 23.97 0 0 1 135.09 0c6 0 11.75 2.25 16.19 6.33a23.87 23.87 0 0 1 7.65 15.73z"/><path id="ks3wb" d="M151.89 26.42a17.21 17.21 0 0 0-11.82-1.28c-1.2-4.71-2.37-9.43-3.57-14.14-.42-1.63-2.86-.73-2.45.88 1.2 4.7 2.36 9.39 3.55 14.08-.76.33-1.5.72-2.23 1.2a15.08 15.08 0 0 0-4.77-1.24 2.6 2.6 0 0 1 1.31-1.44c.62-.34.7-1.27.33-1.8-.44-.63-1.19-.68-1.81-.33a4.95 4.95 0 0 0-2.51 3.56 18.7 18.7 0 0 0-8.77 3.1c-1.63-6.04-1.24-12.8-.4-18.97 4.65 1 9.76.18 14.37-.74 5.5-1.1 10.66-2.21 15.77-1.6 0 .04.28.08.3.11 1.86 5.97 3.37 12.33 2.7 18.61zm-4-14.65c-2.78-.71-5.74-.13-8.37.9-1.38.54-.6 2.7.78 2.16 2.28-.9 4.74-1.42 7.16-.8 1.44.36 1.86-1.9.43-2.26zm-17.6 1.74c-2.8-.71-5.75-.13-8.38.9-1.37.53-.6 2.7.78 2.16 2.28-.9 4.75-1.42 7.16-.8 1.44.36 1.86-1.9.44-2.26z"/><path id="ks3wc" d="M137.61 28.75c3.73-2.1 9.03-2.23 11.94-.6a20.9 20.9 0 0 1-11.94.6z"/><path id="ks3wd" d="M121.99 30.37c3.58-2.07 7.73-2.71 11.67-1.24a20.5 20.5 0 0 1-11.67 1.24z"/><path id="ks3we" d="M139.6 31.84c.32 1.42 2.47 11.2 2.67 12.6.44-.16.9-.33 1.36-.53-.24-1.04-2.91-10.59-3.32-12.01l-.28-.03c-.15 0-.3-.02-.43-.03z"/><path id="ks3wf" d="M137.47 31.47l1.66 13.81c.58-.11 1.15-.24 1.7-.39a407.71 407.71 0 0 0-2.67-13.29l-.7-.13z"/><path id="ks3wg" d="M135.61 31.24c-.02 1.17-.17 13.13-.09 14.42a22.08 22.08 0 0 0 2.16-.15l-1.42-14.21z"/><path id="ks3wh" d="M132.47 45.5c.53.07 1.06.12 1.57.14-.04-.98.21-13.48.22-14l-.36.12-.32.1c-.04.52-1.07 12.83-1.1 13.65z"/><path id="ks3wi" d="M129.53 44.95c.53.14 1.01.25 1.48.34.04-.85 1.13-12.37 1.17-12.92l-.92.25c-.08.56-1.67 11.65-1.73 12.33z"/><path id="ks3wj" d="M126.88 44.06c.43.18.83.33 1.2.46.1-.8 1.58-11.07 1.65-11.57-.32.06-.65.1-.98.15-.06.39-1.85 10.27-1.87 10.96z"/><path id="ks3wk" d="M124.28 42.8c.37.21.75.42 1.14.61.12-.84 1.75-9.77 1.82-10.16-.4.02-.79.04-1.2.04l-1.76 9.5z"/><path id="ks3wl" d="M121.66 41.03c.4.32.83.63 1.27.93.04-.23 1.44-7.66 1.62-8.7-.27 0-.54-.03-.82-.05-.12.48-2 7.44-2.07 7.82z"/><path id="ks3wm" d="M119.24 38.83c.41.43.76.77 1.1 1.1l.04.02c.05-.2 1.68-6.13 1.88-6.92l-1-.18c-.04.12-1.93 5.54-2.02 5.98z"/><path id="ks3wn" d="M116.03 13.49a21.52 21.52 0 0 0-2.15 5.64c.57-1.03 1.7-2.76 1.84-2.99.04-.44.13-1.23.22-1.92l.09-.73z"/><path id="ks3wo" d="M113.36 22.81c0 .52-.01 1.65.02 2.4.45-1.03 2.04-3.95 2.33-4.53-.02-.7-.01-1.51 0-2.29-.29.54-2.29 4.21-2.35 4.42z"/><path id="ks3wp" d="M116.83 35.75c.4.6.81 1.19 1.24 1.73v-.01l1.75-4.97c-.32-.1-1.09-.51-1.48-.9h-.04a88.7 88.7 0 0 0-1.47 4.15z"/><path id="ks3wq" d="M114.98 32.24c.26.62.54 1.23.85 1.8l1.3-3.5c-.18-.62-.34-1.23-.48-1.85-.42.81-1.63 3.48-1.67 3.55z"/><path id="ks3wr" d="M113.75 28.12c.14.73.31 1.45.52 2.13.6-1.32 1.28-2.6 1.95-3.72-.13-.88-.27-1.91-.37-2.99-.65 1.29-1.96 4.23-2.1 4.58z"/><path id="ks3ws" d="M154.52 23.49c.93 1.09 1.59 1.99 2.15 2.8.06-.59.12-1.6.13-2.14a50.65 50.65 0 0 0-2.4-2.71c.05.65.11 1.43.12 2.05z"/><path id="ks3wt" d="M154.29 18.79c.19.27 2.27 2.84 2.57 3.25-.02-.52-.2-1.4-.34-2.02-.16-.2-1.85-2.37-2.51-3.26.08.56.14.9.21 1.49l.07.54z"/><path id="ks3wu" d="M153.93 27.83c.1.15 1.58 2.3 1.84 2.7.22-.67.4-1.39.56-2.12l-1.99-2.83c-.1.78-.16 1.16-.41 2.25z"/><path id="ks3wv" d="M152.22 29.68c.14.31 1.84 3.7 2.1 4.3a21 21 0 0 0 .76-1.6c-.18-.32-1.58-2.82-1.95-3.45-.3.38-.74.65-.91.75z"/><path id="ks3ww" d="M153.47 13.89l.1.13c.71.87 1.64 2 2.33 2.97a30.24 30.24 0 0 0-3.1-5.6l.1.37c.2.7.42 1.5.57 2.13z"/><path id="ks3wx" d="M149.71 30.74c.12.31 2.22 5.4 2.57 6.44.4-.52.78-1.05 1.12-1.6l-2.52-5.28-1.17.44z"/><path id="ks3wy" d="M147.14 31.47l2.9 8.2c.38-.36.77-.76 1.15-1.18l-.02-.03-2.86-7.27c-.38.1-.77.2-1.17.28z"/><path id="ks3wz" d="M144.45 31.9c.38 1.21 2.73 8.78 3.05 9.85.45-.31.9-.65 1.34-1.01-.16-.5-3.03-8.61-3.16-9l-1.23.15z"/><path id="ks3wA" d="M141.7 32l3.3 11.27c.38-.2.77-.42 1.2-.68-.2-.78-3.27-10.6-3.27-10.6h-1.23z"/><path id="ks3wB" d="M123.29 5.69c3.22.47 5.58.16 7.85-.14l1.12-.15c.65-.07 1.29-.16 1.9-.24 1.6-.22 3.1-.43 4.47-.45 2.68-.03 4.74.28 5.84.44h.01c-1.33-.48-4.44-1.43-9.3-.87l-1.65.2c-2.26.3-5.08.65-7.01.58a42.3 42.3 0 0 1-2.02-.12c-.34.2-.8.48-1.21.75z"/><path id="ks3wC" d="M135.09 2.21a22.1 22.1 0 0 0-7.92 1.49c1.86-.03 3.56-.27 5.36-.52h.05c2.15-.3 4.37-.62 6.86-.52a21.6 21.6 0 0 0-4.36-.45z"/><path id="ks3wD" d="M120.39 7.94c4.36.72 8.83-.19 13.15-1.06l.22-.05 2.52-.5c-1.35.1-2.65.28-3.83.43-2.32.3-4.72.62-7.43.52-1.17-.04-2.3-.16-3.45-.36-.4.32-.78.65-1.18 1.02z"/><path id="ks3wE" d="M104.62 15.92l-7.24.6c-.94.08-1.88.1-2.82.18-2.56.23-5.1.66-7.61 1.18-1.45.3-2.91.58-4.36.87-.74.15-1.38.13-1.9-.55-.32-.43-.86-.45-1.14.04-.37.64-.2 1.28-.1 1.9.15.79.52 1.4 1.33 1.67.23.07.45.2.66.34.12.07.18.24.14.4l-1.6 5.11-.08.34v-.07c0-.67.08-1.49-1.55-2.82-.7-.57-3.66-3.21-3.79-3.5-.21-.47.24-.72.43-.7.3.03 1.11.6 1.2.64 2.31 1.04 1.84-.24 2.4-.3.5-.05.3-1.3-.18-1.98-.45-.66-.99-1.2-1.82-1.44-1.33-.37-3.3-.92-4.27-.34.16-.15.29-.28.35-.38.16-.24-.06-.61-.97-.51-1.26.14-4.6.4-6.83.92-1.4.32-3.45.63-4.7 1.31-.2.12-.38.26-.53.42l.15-.3c.16-.31-.44-1.18-1.52-1.16-.31 0-1.66.37-2.07-.03-.45-.43-1.3-.07-1.85.4-.23.18-1.27 1.72-1.7 2.3a151.5 151.5 0 0 1-2.45 3.24c-.18.23-.4.44-.64.66-.12.12-.3.1-.39-.04-.26-.38-.26-.82-.4-1.2-.22-.56-.4-1.13-.69-1.66a1.5 1.5 0 0 0-.75-.68 5.38 5.38 0 0 0-3.2-.2c-.4.12-.8.4-1.1.72-.38.38-.71.85-.97 1.33a72.72 72.72 0 0 0-1.76 3.5c-.05.08-.2.45-.38.91l-.32.22c-5.42 3.43-7.9.28-7.9.28 1.12-.6 6.72-2.36 8.51-5.53.8-1.03.25-1.59-.45-2.68a5 5 0 0 0-1-1.1c-1.58-1.32-3.46-1.43-5.35-1.1-1.66.29-2.65.05-4.1.99-1.3.84-3.29 2.55-4.2 3.8a53.96 53.96 0 0 0-3.23 5.1l-.51.23c-3.02 1.46-10.7 4.6-13 5.7-3.9 1.85-1.87-2.96-1.66-3.76.07-.24.16-.53.42-.7 1.63-1.11 10.11-4.16 14.41-6.3 1.2-.6 1.6-1.84 1.78-1.94.02-.02 0-.1 0-.2-.45-.3-.96-.06-1.42 0-.3.04-.64-.13-.94-.06-4 1-7.72 2.5-11.46 3.56-1.54.43-.02-2.35.35-3.16 1.61-.54 6.14-2.35 7.22-2.82 2.18-.94 4.19-1.53 6.26-2.7.81-.45 1.53-.97 2.16-1.59.3-.3.45-.77.34-1.22-.34-.43-.78-.51-1.23-.49-.59.02-1.2.04-1.76.19a74.5 74.5 0 0 0-4.7 1.36c-2.26.75-4.5 1.58-6.73 2.4-.53.19-1.3-.26-1.85-.6-.86-.52-2.03-.45-2.96-.33-.16.02-.57.16-.63.32-.05.14.06.35.14.51.27.6.94 1.62.4 1.8-.57.18-1.15.3-1.72.45-.92.22-1.82.4-2.77.13-.42-.12-.9-.25-1.33-.17-.24.04-.49.06-.69.22.4.5.8 1.3 1.1 1.75.23.34.5.6.86.8a4.1 4.1 0 0 0 2.13.54c.34 0 .68.02 1.23.05-.74 1.4-1.38 3.69-2.77 4.54-.94.58-1.16 1.6-1 2.63.08.58.35.63.18 1.17-.37 1.2-.68 1.96-.97 3.18-.19.8-.09 1.61.12 2.4.28 1.06.86 2.04 1.85 2.4 1.49.56 3.07.82 4.66.4 1.14-.3 2.23-.69 3.26-1.36 4.2-2.43 8.15-4.61 10.2-5.73a5.62 5.62 0 0 0 1.93 3.42c.67.62 1.95.3 2.13-.5.3-1.25 1.05-2.27 1.55-3.41.3-.71.67-1.42 1.34-2 .24.45.47.83.65 1.23.43.9 1.11 1.55 2 1.93 3.64 2.28 6.98-.33 8.44-1.59-.34 1.19-.49 2.31-.09 2.87.81 1.13 1.06 1.08 2.05.84.42-.1.64-.43.86-.78.89-1.4 1.74-2.8 2.37-4.35.3-.73.7-1.39 1.27-2.04.12-.14.33-.12.42.05.4.75 1.36 2.6 1.69 3.32a6.3 6.3 0 0 0 2.38 3.01c.5.34 1.05.33 1.49-.14.57-.63 2.6-4.79 4.74-7.61.94-1.24 2.11-3.1 2.9-4.45-.18.52-.25 1.01-.32 1.24-.14.54-.46 1.53-.96 3.1-.57 1.76-.79 3.98.5 5.47 1.27 1.46 2.84 2.55 4.5 1.56 1.75-.44 4.26-2.2 4.46-5.12.08-.51-.95-.48-1.15-.25a5.52 5.52 0 0 1-3.17 1.8c-.42.09-.89.02-1.31-.08-.18-.04-.42-.33-.43-.53-.27-1.5 1.43-1.6 1.85-1.74 1.23-.4 1.83-.63 2.68-1.57.3-.34.4-.67.42-1.08a.5.5 0 0 0-.58-.53c-.39.06-.77.17-1.16.24-.48.1-1.24.37-1.54.1-.3-.28-.2-.82.25-1.18.84-.67 2.16-.41 3.12-.8 1.51-.62 3.05-1.16 4.36-2.19l1.12-.8c-.14.14-.23.27-.28.34-.27.47-.98 1.66-.46 3.1.64 1.8 6.61 5.11 4.55 6.58a6.2 6.2 0 0 1-3.52-.9 2.53 2.53 0 0 1-1.12-1.89c-.03-.49-.2-.91-.39-1.37-.05-.13-.17-.2-.29-.18-.46.11-.8.37-1.11.67-.76.7-1.1 1.53-.84 2.57.17.63.3 1.28.51 1.89.33.9.66 1.83 1.54 2.33a6.66 6.66 0 0 0 4.96.85c1.46-.35 2.76-.75 3.82-1.81.1-.11.47-.61.7-1.24l-.1.46c-.1.89-.93 3.46-.27 3.4 1.67-.5 3.04-3.76 3.42-4.37.38-.61 1.74-4.2 2.04-5.1.46-1.42 6.88-2.02 8.39-2.86.24-.14.54-.16.82-.24.95-.25 8.56-2.54 10.02-3.11.53-.21.88-.59 1.1-1.17-.21-.05-.35-.1-.48-.1zM30.58 23.9c2.08-4.7 5.2-3.61 5.16-2.75.09 1.38-5.1 3.86-5.16 2.75z"/></defs><g><g><use fill="#ff0023" xlink:href="#ks3wa"/></g><g><use fill="#fff" xlink:href="#ks3wb"/></g><g><use fill="#fff" xlink:href="#ks3wc"/></g><g><use fill="#fff" xlink:href="#ks3wd"/></g><g><use fill="#fff" xlink:href="#ks3we"/></g><g><use fill="#fff" xlink:href="#ks3wf"/></g><g><use fill="#fff" xlink:href="#ks3wg"/></g><g><use fill="#fff" xlink:href="#ks3wh"/></g><g><use fill="#fff" xlink:href="#ks3wi"/></g><g><use fill="#fff" xlink:href="#ks3wj"/></g><g><use fill="#fff" xlink:href="#ks3wk"/></g><g><use fill="#fff" xlink:href="#ks3wl"/></g><g><use fill="#fff" xlink:href="#ks3wm"/></g><g><use fill="#fff" xlink:href="#ks3wn"/></g><g><use fill="#fff" xlink:href="#ks3wo"/></g><g><use fill="#fff" xlink:href="#ks3wp"/></g><g><use fill="#fff" xlink:href="#ks3wq"/></g><g><use fill="#fff" xlink:href="#ks3wr"/></g><g><use fill="#fff" xlink:href="#ks3ws"/></g><g><use fill="#fff" xlink:href="#ks3wt"/></g><g><use fill="#fff" xlink:href="#ks3wu"/></g><g><use fill="#fff" xlink:href="#ks3wv"/></g><g><use fill="#fff" xlink:href="#ks3ww"/></g><g><use fill="#fff" xlink:href="#ks3wx"/></g><g><use fill="#fff" xlink:href="#ks3wy"/></g><g><use fill="#fff" xlink:href="#ks3wz"/></g><g><use fill="#fff" xlink:href="#ks3wA"/></g><g><use fill="#fff" xlink:href="#ks3wB"/></g><g><use fill="#fff" xlink:href="#ks3wC"/></g><g><use fill="#fff" xlink:href="#ks3wD"/></g><g><use fill="#ff0023" xlink:href="#ks3wE"/></g></g></svg>