<?xml version="1.0" encoding="utf-8"?>
<!DOCTYPE svg PUBLIC "-//W3C//DTD SVG 1.1//EN" "http://www.w3.org/Graphics/SVG/1.1/DTD/svg11.dtd">
<svg version="1" xmlns="http://www.w3.org/2000/svg" width="400" height="34.9" viewBox="0 0 400 34.9"><path fill="#ED1C24" d="M378.4.29l-17.9 25.9c-2.36 3.41-6.2 6.7-10.8 7.06v.79h19.9c5.3 0 9.16-3.45 11.7-7.25L399.7.29h-21.3z"/><linearGradient id="a" gradientUnits="userSpaceOnUse" x1="374.7" y1=".29" x2="374.7" y2="34.1"><stop offset=".33" stop-color="#FF1E27"/><stop offset="1" stop-color="#E81B23"/></linearGradient><path fill="url(#a)" d="M378.4.29l-17.9 25.9c-2.36 3.42-6.2 6.71-10.8 7.06v.79h19.9c5.3 0 9.16-3.45 11.7-7.25L399.7.29h-21.3z"/><path fill="#002157" d="M47.8 34.1V3.15h9.04v30.9H47.8v.05zm208.4 0l-21.7-18.3v18.3h-7.63V3.15h6.48l21.4 18.1V3.15h7.63v30.9h-6.18v.05zm47.3-21c-4.08-2.01-8.68-3.64-14.7-3.64-7.28 0-12.7 3.76-12.7 9 0 5.37 5.52 9.16 12.6 9.16 5.87 0 10.5-1.5 15.1-4.15v7.66c-4.06 2.01-9.45 3.51-15.5 3.51-12.3 0-22.1-6.32-22.1-16.1 0-9.71 9.93-15.9 22.1-15.9 5.74 0 10.9 1.08 15.2 2.84v7.62zm-196.4 21V3.15h30.2v6.64h-21.1v7.7h20.6v6.64h-20.6v9.99h-9.1v-.02zm201.8 0V3.15h31.3v6.64h-22.3v5.36h21.9v6.65h-21.9v5.68h22.2v6.64h-31.2v-.02zM168.7 22.5l12.4 11.6h-9.64c-2.13 0-3.54-.67-4.66-1.75l-8.49-8.23c-.16-.16-.41-.25-.73-.25h-5.78v10.2h-9.04V3.15h19.5c10.1 0 14.4 4.56 14.4 9.61.24 5.84-5.06 8.64-7.96 9.74zm-7.2-5.2c3.57 0 5.3-1.82 5.3-3.86s-1.53-3.74-5.3-3.74h-9.61v7.6h9.61zm-70.4 5.2l12.4 11.6h-9.64c-2.14 0-3.54-.67-4.66-1.75l-8.49-8.23c-.15-.16-.41-.25-.73-.25h-5.77v10.2h-9.04V3.15h19.5c10.1 0 14.4 4.56 14.4 9.61.23 5.84-5.07 8.64-7.97 9.74zm-7.2-5.2c3.57 0 5.3-1.82 5.3-3.86S87.67 9.7 83.9 9.7h-9.61v7.6h9.61zM33.6 34.1l-3.96-6.8H12.3l-3.6 6.8H.15L17.4 3.18h7.85l19.5 30.9H33.6v.02zM15.8 20.8h10l-5.23-9.45-4.77 9.45zm198.3 13.3l-3.86-6.8h-16.8l-3.48 6.8h-8.4l16.8-30.9h7.63l19 30.9H214.1zm-17.4-13.3h9.83l-5.11-9.45-4.72 9.45z"/></svg>