<?xml version="1.0" encoding="utf-8"?>
<!-- Generator: Adobe Illustrator 17.1.0, SVG Export Plug-In . SVG Version: 6.00 Build 0)  -->
<!DOCTYPE svg PUBLIC "-//W3C//DTD SVG 1.1//EN" "http://www.w3.org/Graphics/SVG/1.1/DTD/svg11.dtd">
<svg version="1.1" id="Layer_1" xmlns="http://www.w3.org/2000/svg" xmlns:xlink="http://www.w3.org/1999/xlink" x="0px" y="0px"
	 width="171px" height="43px" viewBox="0 0 171 43" enable-background="new 0 0 171 43" xml:space="preserve">
<g id="XMLID_102_">
	<g id="XMLID_153_">
		<g id="XMLID_225_">
			<g id="XMLID_226_">
				<path id="XMLID_227_" fill="#49559F" d="M136.5816,1.00848c-0.00287-0.01058-0.00563-0.02081-0.0085-0.03139l-0.47583-0.91798
					c-0.03322-0.06409-0.12865-0.05098-0.1433,0.01969l-0.17746,0.85582c-0.0134,0.0646-0.09683,0.08324-0.13651,0.03049
					l-0.53188-0.70721c-0.04384-0.0583-0.13675-0.02828-0.13808,0.04462l-0.01619,0.88553
					c-0.00119,0.06535-0.07849,0.09931-0.12753,0.05603l-0.68506-0.60447c-0.05399-0.04763-0.13799-0.00146-0.12659,0.06956
					l0.14189,0.88363c0.01047,0.06524-0.06111,0.11226-0.11694,0.07681l-0.75952-0.48209
					c-0.06105-0.03875-0.13696,0.02066-0.11389,0.08912l0.32933,0.97723c0.00563,0.00942,0.01108,0.01851,0.01671,0.02793
					l2.21225,2.36002c0.0202,0.02155,0.05356,0.0228,0.07608,0.00368c0.24428-0.20743,0.55261-0.34067,0.89119-0.36594
					c0.02995-0.00224,0.05298-0.02728,0.05147-0.05725L136.5816,1.00848z"/>
			</g>
		</g>
		<g id="XMLID_222_">
			<g id="XMLID_223_">
				<path id="XMLID_224_" fill="#49559F" d="M133.23723,2.57174c-0.00952-0.00546-0.01871-0.01074-0.02823-0.0162l-0.98645-0.3131
					c-0.06886-0.02186-0.12704,0.05479-0.08737,0.11511l0.48048,0.73048c0.03627,0.05514-0.00954,0.12724-0.07494,0.11795
					l-0.87683-0.12448c-0.07228-0.01026-0.11671,0.07657-0.06604,0.12906l0.61555,0.63759
					c0.04541,0.04705,0.0148,0.12565-0.05052,0.12968l-0.9124,0.05634c-0.07188,0.00444-0.0986,0.09641-0.04025,0.13857
					l0.72598,0.52463c0.0536,0.03873,0.03629,0.12252-0.02829,0.13689l-0.87842,0.19546
					c-0.0706,0.01571-0.08223,0.11133-0.01743,0.14345l0.9248,0.45844c0.01065,0.00268,0.02094,0.00527,0.03159,0.00795
					l3.23541,0.10658c0.0295,0.00097,0.05391-0.02164,0.05629-0.05102c0.02585-0.31921,0.14954-0.6312,0.37106-0.88818
					c0.01961-0.02274,0.01816-0.0567-0.00414-0.07683L133.23723,2.57174z"/>
			</g>
		</g>
		<g id="XMLID_219_">
			<g id="XMLID_220_">
				<path id="XMLID_221_" fill="#49559F" d="M131.97926,6.03879c-0.01059,0.00286-0.02083,0.00562-0.03143,0.00848l-0.9192,0.4752
					c-0.06418,0.03318-0.05104,0.12847,0.01971,0.1431l0.85698,0.17722c0.06468,0.01338,0.08334,0.0967,0.03052,0.13633
					l-0.70815,0.53116c-0.05838,0.04379-0.02832,0.13657,0.04469,0.1379l0.8867,0.01617
					c0.06543,0.00119,0.09944,0.07839,0.05611,0.12737l-0.60529,0.68415c-0.04768,0.0539-0.00145,0.1378,0.06966,0.12641
					l0.88481-0.14169c0.06534-0.01046,0.11241,0.06102,0.07692,0.11678l-0.48274,0.75851
					c-0.0388,0.06097,0.02069,0.13679,0.08925,0.11374l0.97855-0.3289c0.00943-0.00563,0.01852-0.01106,0.02795-0.01669
					l2.36317-2.2093c0.02158-0.02017,0.02283-0.05348,0.00369-0.07597c-0.2077-0.24396-0.34113-0.55188-0.36644-0.89
					c-0.00223-0.02992-0.02731-0.05291-0.05731-0.05141L131.97926,6.03879z"/>
			</g>
		</g>
		<g id="XMLID_216_">
			<g id="XMLID_217_">
				<path id="XMLID_218_" fill="#49559F" d="M133.5446,9.37871c-0.00546,0.00951-0.01074,0.01869-0.0162,0.02819l-0.31352,0.98513
					c-0.0219,0.06878,0.05487,0.12689,0.11526,0.08727l0.73145-0.47985c0.05522-0.03622,0.12741,0.00952,0.11812,0.07484
					l-0.12465,0.87566c-0.01027,0.07219,0.07668,0.11656,0.12924,0.06596l0.63844-0.61473
					c0.0471-0.04536,0.12581-0.01479,0.12985,0.05044l0.05641,0.91119c0.00444,0.07179,0.09654,0.09847,0.13876,0.0402
					l0.52533-0.72501c0.03879-0.05353,0.12268-0.03623,0.13707,0.02826l0.19572,0.87724
					c0.01573,0.07051,0.11147,0.08212,0.14363,0.01741l0.45906-0.92357c0.00269-0.01064,0.00528-0.02091,0.00797-0.03155
					l0.10672-3.23109c0.00096-0.02946-0.02167-0.05384-0.05109-0.05621c-0.31964-0.02581-0.63205-0.14933-0.88937-0.37057
					c-0.02277-0.01958-0.05678-0.01813-0.07693,0.00413L133.5446,9.37871z"/>
			</g>
		</g>
		<g id="XMLID_213_">
			<g id="XMLID_214_">
				<path id="XMLID_215_" fill="#49559F" d="M137.0163,10.63499c0.00287,0.01058,0.00563,0.0208,0.0085,0.03139l0.47583,0.91799
					c0.03322,0.06409,0.12863,0.05098,0.1433-0.01969l0.17744-0.85583c0.0134-0.0646,0.09685-0.08324,0.13652-0.03049
					l0.53188,0.7072c0.04384,0.0583,0.13673,0.02828,0.13808-0.04462l0.01619-0.88553
					c0.00119-0.06535,0.07849-0.09931,0.12753-0.05603l0.68506,0.60447c0.05397,0.04763,0.13799,0.00146,0.12659-0.06956
					l-0.14189-0.88363c-0.01047-0.06524,0.0611-0.11226,0.11694-0.07681l0.75952,0.48209
					c0.06105,0.03875,0.13696-0.02066,0.11389-0.08912l-0.32933-0.97723c-0.00565-0.00942-0.01108-0.01851-0.01672-0.02793
					l-2.21225-2.36002c-0.02019-0.02155-0.05354-0.0228-0.07607-0.00368c-0.24428,0.20743-0.55261,0.34067-0.89119,0.36594
					c-0.02995,0.00224-0.05298,0.02728-0.05147,0.05725L137.0163,10.63499z"/>
			</g>
		</g>
		<g id="XMLID_161_">
			<g id="XMLID_211_">
				<path id="XMLID_212_" fill="#49559F" d="M140.36067,9.07174c0.00951,0.00546,0.01871,0.01074,0.02823,0.0162l0.98643,0.3131
					c0.06888,0.02186,0.12706-0.05479,0.08739-0.11512l-0.48048-0.73047c-0.03629-0.05514,0.00952-0.12724,0.07494-0.11795
					l0.87683,0.12448c0.07228,0.01026,0.11671-0.07657,0.06604-0.12906l-0.61555-0.63759
					c-0.04543-0.04705-0.01482-0.12565,0.05051-0.12968l0.91241-0.05634c0.07188-0.00444,0.0986-0.09641,0.04025-0.13857
					l-0.726-0.52463c-0.05359-0.03873-0.03627-0.12252,0.02831-0.13689l0.87842-0.19546
					c0.0706-0.01571,0.08221-0.11133,0.01743-0.14345l-0.9248-0.45844c-0.01065-0.00268-0.02094-0.00527-0.0316-0.00795
					l-3.2354-0.10658c-0.02951-0.00097-0.05391,0.02164-0.05629,0.05102c-0.02585,0.31921-0.14954,0.6312-0.37108,0.88818
					c-0.01959,0.02274-0.01814,0.0567,0.00414,0.07683L140.36067,9.07174z"/>
			</g>
		</g>
		<g id="XMLID_158_">
			<g id="XMLID_159_">
				<path id="XMLID_160_" fill="#49559F" d="M141.61862,5.60468c0.0106-0.00286,0.02084-0.00562,0.03143-0.00848l0.9192-0.4752
					c0.06418-0.03318,0.05106-0.12847-0.01971-0.14311l-0.85696-0.17722c-0.0647-0.01338-0.08334-0.0967-0.03053-0.13633
					l0.70816-0.53116c0.05838-0.04379,0.02831-0.13657-0.04469-0.1379l-0.8867-0.01617
					c-0.06543-0.00119-0.09944-0.07839-0.05611-0.12737l0.60529-0.68415c0.04768-0.0539,0.00145-0.1378-0.06966-0.12641
					l-0.88483,0.14169c-0.06532,0.01046-0.1124-0.06102-0.0769-0.11678l0.48273-0.75851
					c0.0388-0.06097-0.02068-0.13679-0.08923-0.11374l-0.97855,0.3289c-0.00943,0.00563-0.01854,0.01106-0.02797,0.01669
					l-2.36316,2.2093c-0.02158,0.02017-0.02284,0.05348-0.00369,0.07597c0.2077,0.24396,0.34113,0.55188,0.36642,0.89
					c0.00224,0.02992,0.02731,0.05291,0.05733,0.05141L141.61862,5.60468z"/>
			</g>
		</g>
		<g id="XMLID_155_">
			<g id="XMLID_156_">
				<path id="XMLID_157_" fill="#49559F" d="M140.05328,2.26477c0.00548-0.00951,0.01076-0.01869,0.01622-0.02819l0.31352-0.98513
					c0.02188-0.06878-0.05487-0.12689-0.11526-0.08727l-0.73146,0.47985c-0.05521,0.03622-0.1274-0.00952-0.1181-0.07484
					l0.12465-0.87566c0.01027-0.07219-0.07668-0.11656-0.12924-0.06596l-0.63844,0.61473
					c-0.04712,0.04536-0.12582,0.01479-0.12985-0.05044l-0.05641-0.91119c-0.00446-0.07179-0.09654-0.09847-0.13876-0.0402
					l-0.52533,0.72502c-0.03879,0.05353-0.12268,0.03623-0.13707-0.02826l-0.19572-0.87724
					c-0.01573-0.07051-0.11148-0.08212-0.14365-0.01741l-0.45905,0.92357c-0.00269,0.01064-0.00528,0.02091-0.00797,0.03155
					l-0.10672,3.23109c-0.00098,0.02946,0.02167,0.05384,0.05109,0.05621c0.31964,0.02581,0.63205,0.14933,0.88937,0.37057
					c0.02277,0.01958,0.05678,0.01813,0.07693-0.00413L140.05328,2.26477z"/>
			</g>
		</g>
		<circle id="XMLID_154_" fill="#49559F" cx="136.79895" cy="5.82174" r="1.36188"/>
	</g>
	<g id="XMLID_103_">
		<g id="XMLID_104_">
			<g id="XMLID_105_">
				<g id="XMLID_106_">
					<g id="XMLID_107_">
						<g id="XMLID_108_">
							<g id="XMLID_109_">
								<path id="XMLID_149_" fill="#49559F" d="M29.20394,33.44936c0,5.19401-4.0562,9.12907-12.2225,9.12907H0V7.84529h16.0617
									c8.43719,0,11.30347,4.98453,11.30347,9.18171c0,4.45963-2.27133,6.71575-4.81355,7.8175
									C25.5803,25.78905,29.20394,28.255,29.20394,33.44936z M4.05548,23.37573H16.0617c3.73214,0,7.24727-1.78385,7.24727-6.034
									c0-2.8856-1.89265-5.7712-6.81399-5.7712H4.05548V23.37573z M25.14774,33.13427c0-3.25296-2.48761-6.19085-8.1663-6.19085
									H4.05548v11.90976h13.35852C22.33534,38.85319,25.14774,36.7546,25.14774,33.13427z"/>
								<path id="XMLID_146_" fill="#49559F" d="M54.83741,35.02338h4.43488c-1.89266,4.72173-5.89497,7.9747-12.331,7.9747
									c-8.27408,0-13.68259-6.03365-13.68259-13.53642s5.13762-13.53642,13.41241-13.53642s13.41241,6.03365,13.41241,13.53642
									v1.57403H37.42269c0.59496,4.66945,4.11081,8.39469,9.57249,8.39469C50.78121,39.43038,53.37732,37.64653,54.83741,35.02338
									z M37.47729,27.36308h18.38764c-0.75735-4.45963-4.00231-7.87013-9.19382-7.87013
									C41.47889,19.49294,38.23393,22.90345,37.47729,27.36308z"/>
								<path id="XMLID_144_" fill="#49559F" d="M69.11352,42.57843h-4.05621V5.85161h4.05621V42.57843z"/>
								<path id="XMLID_117_" fill="#49559F" d="M97.23532,20.59469v-4.2498h4.05621v26.23354h-4.05621v-4.19717
									c-2.00115,2.83297-5.19222,4.61682-9.68099,4.61682c-7.8954,0-13.08763-6.03365-13.08763-13.53642
									s5.19223-13.53642,13.08763-13.53642C92.0431,15.92524,95.23417,17.76172,97.23532,20.59469z M97.45161,29.46166
									c0-5.40418-3.35346-9.96872-9.35621-9.96872c-6.00347,0-9.57249,4.56454-9.57249,9.96872s3.56902,9.96872,9.57249,9.96872
									C94.09814,39.43038,97.45161,34.86584,97.45161,29.46166z"/>
								<path id="XMLID_115_" fill="#49559F" d="M130.9812,16.34489l-10.54613,26.23354h-4.75966l-10.60002-26.23354h4.43488
									l8.54497,22.03637l8.49108-22.03637H130.9812z"/>
								<path id="XMLID_113_" fill="#49559F" d="M134.76579,16.34489h4.0562v26.23354h-4.0562V16.34489z"/>
								<path id="XMLID_110_" fill="#49559F" d="M166.9438,20.59469v-4.2498H171v26.23354h-4.0562v-4.19717
									c-2.00116,2.83297-5.19223,4.61682-9.681,4.61682c-7.8954,0-13.08763-6.03365-13.08763-13.53642
									s5.19223-13.53642,13.08763-13.53642C161.75157,15.92524,164.94264,17.76172,166.9438,20.59469z M167.16008,29.46166
									c0-5.40418-3.35345-9.96872-9.35622-9.96872c-6.00346,0-9.57249,4.56454-9.57249,9.96872s3.56903,9.96872,9.57249,9.96872
									C163.80663,39.43038,167.16008,34.86584,167.16008,29.46166z"/>
							</g>
						</g>
					</g>
				</g>
			</g>
		</g>
	</g>
</g>
</svg>
