<?xml version="1.0" encoding="UTF-8" standalone="no"?>
<svg
   xmlns:dc="http://purl.org/dc/elements/1.1/"
   xmlns:cc="http://creativecommons.org/ns#"
   xmlns:rdf="http://www.w3.org/1999/02/22-rdf-syntax-ns#"
   xmlns:svg="http://www.w3.org/2000/svg"
   xmlns="http://www.w3.org/2000/svg"
   viewBox="0 0 372 45"
   height="45"
   width="372"
   xml:space="preserve"
   id="svg2"
   version="1.1">
    <metadata id="metadata8">
        <rdf:RDF>
            <cc:Work rdf:about="">
                <dc:format>image/svg+xml</dc:format>
                <dc:type rdf:resource="http://purl.org/dc/dcmitype/StillImage" />
            </cc:Work>
        </rdf:RDF>
    </metadata>
    <defs id="defs6" />
    <g transform="matrix(1.3333333,0,0,-1.3333333,0,336)" id="g10">
        <g transform="scale(0.1)" id="g12">
            <path
         id="path14"
         style="fill:#ed192e;fill-opacity:1;fill-rule:evenodd;stroke:none"
         d="m 105.785,2333.6 c -49.0819,0 -113.95688,12.57 -96.035,66.8 l 35.3203,106.96 h 58.9257 l -32.8515,-99.13 c -7.0781,-21.53 8.3907,-35.21 47.6405,-35.21 39.59,0 63.899,13.88 71,35.21 l 32.762,99.13 h 58.539 L 245.73,2400.4 c -17.605,-53.46 -89.671,-66.8 -139.945,-66.8 z m 298.094,2.94 -32.375,60.84 h -44.356 l -20.082,-60.84 H 248.18 l 56.484,170.82 h 163.277 c 34.258,0 58.407,-16 46.586,-51.41 -10.129,-30.76 -37.398,-52.68 -64.3,-52.68 H 439.59 l 41.39,-66.73 z m 38.871,131.31 h -92.301 l -10.211,-31.02 h 93.504 c 8.602,0 18.891,4.33 22.891,16.46 3.234,9.46 -2.731,14.56 -13.883,14.56 z m 256.891,-131.31 -7.723,30.84 H 581.906 l -28.222,-30.84 h -72.239 l 173.008,172.1 h 59.555 l 58.98,-172.1 z m -31.481,125.45 -53.722,-58.39 h 68.652 z m 117.008,-125.45 56.516,170.82 h 58.75 l -42.782,-129.3 h 143.098 l -13.68,-41.52 z m 497.882,0 -7.8,30.84 h -109.98 l -28.24,-30.84 h -72.25 l 172.98,172.1 h 59.68 l 58.89,-172.1 z m -31.46,125.45 -53.8,-58.39 h 68.72 z m 117.92,-125.45 56.46,170.82 h 58.91 l -56.61,-170.82 z m 239.83,0 -32.39,60.84 h -44.33 l -20.15,-60.84 h -58.8 l 56.51,170.82 h 163.22 c 34.29,0 58.38,-16 46.62,-51.41 -10.11,-30.76 -37.48,-52.68 -64.29,-52.68 h -10.69 l 41.28,-66.73 z m 38.84,131.31 h -92.29 l -10.26,-31.02 h 93.59 c 8.61,0 18.95,4.33 22.95,16.46 3.06,9.46 -2.9,14.56 -13.99,14.56 z m 55.96,-131.31 56.46,170.82 h 58.85 l -42.75,-129.3 h 143.22 l -13.85,-41.52 z m 225.16,0 56.5,170.82 h 58.77 l -56.44,-170.82 z m 318.93,-3.12 -145.89,95.37 -30.45,-92.25 h -58.41 l 57.39,173.62 h 7.42 l 146.82,-93.29 29.95,90.49 h 58.05 l -57.54,-173.94 z m 32.75,3.12 56.52,170.82 h 212.62 l -12,-36.5 h -153.83 l -7.98,-23.84 h 153.91 l -12.07,-36.56 h -153.87 l -12.36,-37.44 h 153.82 l -12.12,-36.48 z m 336.8,-2.53 c -40.78,0 -72.48,4.56 -96.95,12.39 l -5.53,1.78 25.59,36.71 5.47,-1.81 c 17.17,-5.46 42.24,-13.06 83.62,-13.06 33.69,0 58.4,3.25 63.08,17.43 3.46,10.42 -10.06,11.68 -50.19,14.64 -72.89,5.66 -103.99,15.73 -91.4,54.06 12.31,37.32 76.62,53.47 136.91,53.47 34.76,0 70.68,-3.86 91.46,-11.42 l 5.51,-2.06 -24.52,-37.18 -5.36,2.28 c -18.16,7.8 -48.38,12.13 -79.11,12.13 -34.69,0 -57.08,-2.52 -60.82,-13.72 -2.77,-8.27 8.78,-11.1 45.11,-13.91 74.44,-5.62 109.14,-13.2 95.99,-52.98 -14.75,-44.58 -83.31,-58.76 -138.86,-58.75" /><path
         id="path16"
         style="fill:#ed192e;fill-opacity:1;fill-rule:nonzero;stroke:none"
         d="m 1851.36,2194.31 -1.34,7.08 c -2.77,-1.7 -5.2,-3.05 -7.29,-4.07 -2.09,-1.03 -3.96,-1.8 -5.62,-2.34 -1.63,-0.54 -3.11,-0.89 -4.41,-1.07 -1.27,-0.18 -2.5,-0.27 -3.67,-0.27 -7.03,0 -12.52,2.05 -16.44,6.15 -3.91,4.1 -5.88,9.93 -5.88,17.51 v 43.31 h 11.5 v -42.11 c 0,-5.17 1.14,-8.8 3.4,-10.89 2.27,-2.09 5.11,-3.1 8.49,-3.01 2.67,0 5.77,0.71 9.3,2.14 3.52,1.43 7.06,3.42 10.62,6.01 v 47.86 h 11.49 v -66.3 z m 64.17,54.94 c -5.96,-0.54 -10.89,-1.58 -14.77,-3.14 -3.87,-1.57 -6.85,-3.02 -8.89,-4.35 v -47.45 h -11.49 v 66.3 h 10.16 l 1.2,-9.76 h 0.13 c 1.15,1.17 2.63,2.37 4.42,3.61 1.76,1.25 3.69,2.39 5.75,3.41 2.04,1.02 4.22,1.87 6.55,2.54 2.31,0.67 4.63,1 6.94,1 z m 52.55,-48.53 c -5.27,-2.94 -9.57,-4.83 -12.9,-5.68 -3.35,-0.84 -6.35,-1.27 -9.03,-1.27 -6.41,0 -11.53,1.78 -15.38,5.36 -3.82,3.55 -5.73,8.41 -5.73,14.56 0,3.65 0.82,6.73 2.46,9.22 1.65,2.5 3.71,4.53 6.15,6.09 2.46,1.55 5.08,2.67 7.89,3.34 2.8,0.66 5.33,1 7.56,1 h 19.37 v 5.08 c 0,4.63 -1.29,7.87 -3.87,9.7 -2.59,1.82 -6.28,2.73 -11.09,2.73 -2.32,0 -5.15,-0.34 -8.5,-1 -3.33,-0.67 -6.69,-2.39 -10.08,-5.15 l -5.63,8.69 c 4.29,3.3 8.61,5.43 12.98,6.42 4.36,0.98 8.41,1.47 12.17,1.47 8.64,0 15.03,-1.89 19.17,-5.68 4.15,-3.79 6.22,-9.61 6.22,-17.45 v -43.84 h -10.04 l -1.33,6.15 z m 0.39,23.13 h -17.51 c -1.41,0 -2.96,-0.12 -4.6,-0.34 -1.65,-0.22 -3.19,-0.66 -4.62,-1.33 -1.42,-0.67 -2.6,-1.69 -3.54,-3.08 -0.93,-1.38 -1.4,-3.18 -1.4,-5.41 0,-3.21 1.09,-5.62 3.27,-7.22 2.18,-1.61 4.97,-2.41 8.35,-2.41 1.7,0 3.46,0.25 5.28,0.74 1.83,0.49 3.61,1.09 5.35,1.81 1.75,0.71 3.41,1.49 5.02,2.33 1.59,0.85 3.07,1.63 4.4,2.35 z m 44.12,-11.89 c 0,-3.49 0.78,-5.65 2.34,-6.49 1.57,-0.84 4.17,-1.18 7.83,-1 l 0.28,-10.43 c -1.26,-0.18 -2.43,-0.31 -3.56,-0.4 -1.11,-0.09 -2.16,-0.14 -3.14,-0.14 -3.12,0 -5.63,0.39 -7.55,1.14 -1.91,0.76 -3.45,1.88 -4.62,3.34 -1.16,1.47 -1.93,3.25 -2.33,5.35 -0.41,2.09 -0.61,4.48 -0.61,7.15 v 79.54 h 11.36 z m 66.59,-11.24 c -5.25,-2.94 -9.57,-4.83 -12.9,-5.68 -3.35,-0.84 -6.35,-1.27 -9.03,-1.27 -6.41,0 -11.53,1.78 -15.37,5.36 -3.83,3.55 -5.74,8.41 -5.74,14.56 0,3.65 0.81,6.73 2.47,9.22 1.65,2.5 3.7,4.53 6.14,6.09 2.46,1.55 5.09,2.67 7.9,3.34 2.81,0.66 5.32,1 7.55,1 h 19.37 v 5.08 c 0,4.63 -1.28,7.87 -3.87,9.7 -2.57,1.82 -6.28,2.73 -11.09,2.73 -2.32,0 -5.15,-0.34 -8.49,-1 -3.34,-0.67 -6.71,-2.39 -10.08,-5.15 l -5.63,8.69 c 4.29,3.3 8.6,5.43 12.97,6.42 4.36,0.98 8.42,1.47 12.17,1.47 8.64,0 15.03,-1.89 19.18,-5.68 4.15,-3.79 6.2,-9.61 6.2,-17.45 v -43.84 h -10.01 l -1.35,6.15 z m 0.39,23.13 h -17.5 c -1.43,0 -2.98,-0.12 -4.62,-0.34 -1.64,-0.22 -3.18,-0.66 -4.59,-1.33 -1.44,-0.67 -2.62,-1.69 -3.56,-3.08 -0.94,-1.38 -1.41,-3.18 -1.41,-5.41 0,-3.21 1.1,-5.62 3.28,-7.22 2.2,-1.61 4.97,-2.41 8.35,-2.41 1.7,0 3.47,0.25 5.3,0.74 1.81,0.49 3.59,1.09 5.33,1.81 1.74,0.71 3.41,1.49 5.02,2.33 1.61,0.85 3.07,1.63 4.4,2.35 z m 43.99,56.81 c 0,-1.96 -0.7,-3.66 -2.13,-5.08 -1.42,-1.43 -3.12,-2.14 -5.08,-2.14 -1.87,0 -3.52,0.71 -4.96,2.14 -1.41,1.42 -2.13,3.12 -2.13,5.08 0,1.97 0.72,3.64 2.13,5.02 1.44,1.37 3.09,2.07 4.96,2.07 1.96,0 3.66,-0.7 5.08,-2.07 1.43,-1.38 2.13,-3.05 2.13,-5.02 z m -12.82,-86.35 v 66.3 h 11.36 v -66.3 z m 68.58,54.94 c -5.98,-0.54 -10.89,-1.58 -14.78,-3.14 -3.86,-1.57 -6.83,-3.02 -8.88,-4.35 v -47.45 h -11.49 v 66.3 h 10.16 l 1.2,-9.76 h 0.13 c 1.16,1.17 2.63,2.37 4.42,3.61 1.77,1.25 3.69,2.39 5.74,3.41 2.05,1.02 4.23,1.87 6.56,2.54 2.31,0.67 4.62,1 6.94,1 z m 26.88,-37.29 c 0,-3.49 0.78,-5.65 2.34,-6.49 1.55,-0.84 4.17,-1.18 7.81,-1 l 0.28,-10.43 c -1.24,-0.18 -2.43,-0.31 -3.54,-0.4 -1.13,-0.09 -2.16,-0.14 -3.14,-0.14 -3.13,0 -5.65,0.39 -7.56,1.14 -1.92,0.76 -3.46,1.88 -4.61,3.34 -1.15,1.47 -1.95,3.25 -2.34,5.35 -0.39,2.09 -0.6,4.48 -0.6,7.15 v 79.54 h 11.36 z m 40.78,68.7 c 0,-1.96 -0.71,-3.66 -2.14,-5.08 -1.43,-1.43 -3.12,-2.14 -5.07,-2.14 -1.88,0 -3.53,0.71 -4.95,2.14 -1.43,1.42 -2.14,3.12 -2.14,5.08 0,1.97 0.71,3.64 2.14,5.02 1.42,1.37 3.07,2.07 4.95,2.07 1.95,0 3.64,-0.7 5.07,-2.07 1.43,-1.38 2.14,-3.05 2.14,-5.02 z m -12.83,-86.35 v 66.3 h 11.36 v -66.3 z m 64.56,66.97 c 6.52,0 11.61,-2.05 15.26,-6.15 3.64,-4.1 5.47,-9.93 5.47,-17.51 v -43.31 h -11.49 v 41.84 c 0,5.17 -1.12,8.8 -3.36,10.89 -2.21,2.1 -5.02,3.1 -8.4,3 -2.68,0 -5.82,-0.68 -9.42,-2.06 -3.61,-1.39 -7.12,-3.14 -10.5,-5.28 v -48.39 h -11.5 v 66.3 h 10.17 l 1.33,-7.35 c 2.85,1.78 5.41,3.2 7.69,4.28 2.26,1.06 4.29,1.87 6.07,2.4 1.78,0.54 3.39,0.9 4.83,1.08 1.41,0.17 2.7,0.26 3.85,0.26 z m 48.28,-38.1 v -4.41 c 0,-2.67 0.46,-4.92 1.33,-6.75 0.89,-1.82 2.13,-3.34 3.67,-4.55 1.56,-1.2 3.35,-2.07 5.36,-2.61 2.01,-0.53 4.08,-0.8 6.21,-0.8 2.24,0 4.81,0.45 7.77,1.34 2.94,0.89 5.79,2.64 8.55,5.22 l 7.21,-7.89 c -3.39,-3.48 -7.15,-5.85 -11.29,-7.15 -4.15,-1.29 -8.32,-1.94 -12.5,-1.94 -3.75,0 -7.32,0.51 -10.69,1.54 -3.4,1.02 -6.37,2.54 -8.9,4.54 -2.54,2 -4.54,4.52 -6.01,7.56 -1.47,3.02 -2.21,6.55 -2.21,10.56 v 17.5 c 0,3.93 0.68,7.49 2.01,10.7 1.33,3.21 3.19,5.92 5.54,8.16 2.37,2.22 5.18,3.94 8.42,5.14 3.27,1.2 6.85,1.8 10.77,1.8 3.92,0 7.53,-0.58 10.82,-1.73 3.31,-1.16 6.13,-2.81 8.5,-4.95 2.35,-2.14 4.18,-4.75 5.48,-7.82 1.29,-3.08 1.93,-6.53 1.93,-10.36 v -13.1 z m 30.35,11.9 c 0,2.76 -0.4,5.12 -1.21,7.08 -0.8,1.96 -1.89,3.59 -3.27,4.88 -1.39,1.29 -2.98,2.23 -4.81,2.81 -1.83,0.58 -3.77,0.87 -5.82,0.87 -2.05,0 -3.96,-0.31 -5.75,-0.93 -1.78,-0.63 -3.39,-1.56 -4.81,-2.81 -1.42,-1.25 -2.54,-2.84 -3.35,-4.75 -0.79,-1.91 -1.2,-4.17 -1.2,-6.75 v -2.94 h 30.22 z m 77.12,-21.79 c 0,-3.13 -0.66,-5.88 -2,-8.29 -1.33,-2.41 -3.16,-4.48 -5.47,-6.21 -2.33,-1.74 -5.09,-3.06 -8.29,-3.95 -3.22,-0.89 -6.73,-1.34 -10.56,-1.34 -4.63,0 -9.14,0.6 -13.5,1.81 -4.37,1.21 -8.78,3.5 -13.23,6.88 l 6.27,8.43 c 3.31,-2.76 6.7,-4.66 10.16,-5.69 3.49,-1.02 7.28,-1.54 11.37,-1.54 1.61,0 3.23,0.21 4.88,0.61 1.64,0.39 3.12,1 4.41,1.8 1.3,0.81 2.34,1.85 3.14,3.14 0.8,1.3 1.21,2.83 1.21,4.61 0,2.86 -1.04,4.91 -3.08,6.16 -2.05,1.24 -4.64,2.14 -7.75,2.67 -3.38,0.53 -6.76,1.13 -10.09,1.8 -3.35,0.67 -6.35,1.67 -9.03,3.01 -2.67,1.34 -4.85,3.12 -6.54,5.35 -1.71,2.23 -2.55,5.17 -2.55,8.82 0,3.03 0.62,5.8 1.87,8.29 1.26,2.49 2.98,4.59 5.22,6.28 2.23,1.7 4.8,3.01 7.68,3.95 2.91,0.92 6.04,1.4 9.43,1.4 4.99,0 9.41,-0.51 13.24,-1.54 3.82,-1.03 7.53,-2.83 11.08,-5.41 l -5.75,-8.55 c -3.11,1.95 -6.14,3.33 -9.08,4.14 -2.94,0.8 -6.1,1.2 -9.49,1.2 -3.92,0 -7.1,-0.91 -9.49,-2.74 -2.41,-1.83 -3.61,-4.12 -3.61,-6.89 0,-2.31 0.98,-4.05 2.93,-5.21 1.96,-1.15 4.42,-2.07 7.36,-2.74 2.94,-0.66 6.1,-1.3 9.49,-1.87 3.38,-0.58 6.56,-1.54 9.49,-2.87 2.95,-1.34 5.4,-3.21 7.36,-5.62 1.96,-2.41 2.92,-5.7 2.92,-9.89 z m 14.86,-11.63 c 0,1.88 0.64,3.61 1.95,5.21 1.29,1.6 3.17,2.41 5.67,2.41 2.59,0 4.6,-0.81 6.01,-2.41 1.44,-1.6 2.15,-3.33 2.15,-5.21 0,-2.23 -0.71,-4.13 -2.15,-5.68 -1.41,-1.56 -3.42,-2.34 -6.01,-2.34 -2.5,0 -4.38,0.75 -5.67,2.27 -1.31,1.52 -1.95,3.43 -1.95,5.75 z m 58.56,59.62 c 3.83,0 7.74,-0.51 11.7,-1.54 3.96,-1.03 7.5,-3.23 10.63,-6.61 l -6.82,-8.7 c -2.95,2.77 -5.68,4.48 -8.23,5.16 -2.53,0.66 -4.78,0.99 -6.74,0.99 -1.7,0 -3.45,-0.26 -5.28,-0.79 -1.83,-0.54 -3.48,-1.43 -4.94,-2.68 -1.48,-1.25 -2.68,-2.87 -3.61,-4.88 -0.94,-2 -1.41,-4.43 -1.41,-7.28 v -14.97 c 0,-2.86 0.44,-5.28 1.33,-7.29 0.89,-2.01 2.05,-3.64 3.48,-4.88 1.42,-1.25 3.04,-2.14 4.87,-2.67 1.83,-0.54 3.69,-0.81 5.56,-0.81 1.96,0 4.35,0.4 7.15,1.21 2.81,0.8 5.24,2.23 7.28,4.27 l 7.1,-8.01 c -3.13,-3.12 -6.59,-5.26 -10.37,-6.42 -3.79,-1.16 -7.61,-1.74 -11.44,-1.74 -3.92,0 -7.47,0.58 -10.69,1.74 -3.2,1.16 -5.99,2.76 -8.35,4.81 -2.35,2.05 -4.18,4.53 -5.48,7.42 -1.29,2.89 -1.93,6.08 -1.93,9.55 v 19.66 c 0,3.74 0.7,7.13 2.13,10.16 1.42,3.03 3.35,5.61 5.75,7.75 2.41,2.14 5.19,3.76 8.35,4.88 3.17,1.11 6.49,1.67 9.96,1.67 z m 89.97,-43.58 c 0,-3.84 -0.73,-7.24 -2.2,-10.23 -1.47,-2.98 -3.48,-5.49 -6.02,-7.55 -2.53,-2.04 -5.45,-3.61 -8.75,-4.67 -3.3,-1.07 -6.83,-1.61 -10.56,-1.61 -3.84,0 -7.39,0.54 -10.7,1.61 -3.29,1.06 -6.17,2.63 -8.61,4.67 -2.46,2.06 -4.4,4.57 -5.83,7.55 -1.41,2.99 -2.13,6.39 -2.13,10.23 v 19.25 c 0,3.84 0.73,7.24 2.2,10.23 1.47,2.98 3.43,5.52 5.89,7.61 2.44,2.09 5.34,3.7 8.68,4.82 3.34,1.11 6.89,1.67 10.64,1.67 4,0 7.67,-0.56 11.02,-1.67 3.34,-1.12 6.23,-2.73 8.69,-4.82 2.46,-2.09 4.34,-4.63 5.67,-7.61 1.35,-2.99 2.01,-6.39 2.01,-10.23 z m -11.37,17.25 c 0,2.85 -0.48,5.28 -1.46,7.28 -0.98,2.01 -2.25,3.63 -3.82,4.88 -1.55,1.25 -3.26,2.14 -5.13,2.68 -1.89,0.53 -3.7,0.79 -5.48,0.79 -1.88,0 -3.75,-0.26 -5.62,-0.79 -1.87,-0.54 -3.58,-1.43 -5.15,-2.68 -1.56,-1.25 -2.83,-2.87 -3.82,-4.88 -0.96,-2 -1.45,-4.43 -1.45,-7.28 v -14.97 c 0,-2.86 0.42,-5.28 1.27,-7.29 0.84,-2.01 1.97,-3.64 3.4,-4.88 1.44,-1.25 3.12,-2.14 5.08,-2.67 1.96,-0.54 4.06,-0.81 6.29,-0.81 1.78,0 3.59,0.27 5.48,0.81 1.87,0.53 3.58,1.42 5.13,2.67 1.57,1.24 2.84,2.87 3.82,4.88 0.98,2.01 1.46,4.43 1.46,7.29 z m 58.31,26.33 c 4.01,0 7.43,-0.87 10.28,-2.61 2.85,-1.73 5.03,-4.26 6.56,-7.55 2.67,2.14 5.08,3.88 7.22,5.22 2.13,1.33 4.05,2.37 5.74,3.14 1.7,0.75 3.21,1.24 4.55,1.46 1.33,0.23 2.62,0.34 3.88,0.34 6.32,0 11.32,-1.74 14.96,-5.21 3.65,-3.48 5.48,-8.96 5.48,-16.45 v -45.31 h -11.49 v 42.9 c 0,4.46 -0.85,7.71 -2.55,9.77 -1.69,2.04 -4.49,3.06 -8.4,3.06 -2.33,0 -4.89,-0.7 -7.7,-2.13 -2.8,-1.42 -5.95,-3.48 -9.42,-6.15 0.18,-0.8 0.3,-1.51 0.33,-2.14 0.06,-0.62 0.07,-1.38 0.07,-2.27 v -43.04 h -11.5 v 43.31 c 0,4.54 -0.95,7.76 -2.87,9.62 -1.92,1.87 -4.29,2.8 -7.16,2.8 -2.76,0 -5.45,-0.5 -8.08,-1.53 -2.62,-1.02 -5.81,-2.83 -9.55,-5.42 v -48.78 h -11.5 v 66.3 h 10.16 l 1.2,-7.62 c 2.4,1.79 4.57,3.21 6.48,4.28 1.91,1.07 3.66,1.92 5.22,2.54 1.55,0.62 2.99,1.03 4.28,1.21 1.28,0.17 2.55,0.26 3.81,0.26" /></g></g></svg>
