<?xml version="1.0" encoding="UTF-8" standalone="no"?>
<svg
   xmlns:dc="http://purl.org/dc/elements/1.1/"
   xmlns:cc="http://creativecommons.org/ns#"
   xmlns:rdf="http://www.w3.org/1999/02/22-rdf-syntax-ns#"
   xmlns:svg="http://www.w3.org/2000/svg"
   xmlns="http://www.w3.org/2000/svg"
   viewBox="0 0 372 45"
   height="45"
   width="372"
   xml:space="preserve"
   id="svg2"
   version="1.1">
    <metadata id="metadata8">
        <rdf:RDF>
            <cc:Work rdf:about="">
                <dc:format>image/svg+xml</dc:format>
                <dc:type rdf:resource="http://purl.org/dc/dcmitype/StillImage" />
            </cc:Work>
        </rdf:RDF>
    </metadata>
    <defs id="defs6" />
    <g transform="matrix(1.3333333,0,0,-1.3333333,0,336)" id="g10">
        <g transform="scale(0.1)" id="g12">
            <path
         id="path14"
         style="fill:#ed192e;fill-opacity:1;fill-rule:evenodd;stroke:none"
         d="m 105.785,2333.6 c -49.0819,0 -113.95688,12.57 -96.035,66.8 l 35.3203,106.96 h 58.9257 l -32.8515,-99.13 c -7.0781,-21.53 8.3907,-35.21 47.6405,-35.21 39.59,0 63.899,13.88 71,35.21 l 32.762,99.13 h 58.539 L 245.73,2400.4 c -17.605,-53.46 -89.671,-66.8 -139.945,-66.8 z m 298.094,2.94 -32.375,60.84 h -44.356 l -20.082,-60.84 H 248.18 l 56.484,170.82 h 163.277 c 34.258,0 58.407,-16 46.586,-51.41 -10.129,-30.76 -37.398,-52.68 -64.3,-52.68 H 439.59 l 41.39,-66.73 z m 38.871,131.31 h -92.301 l -10.211,-31.02 h 93.504 c 8.602,0 18.891,4.33 22.891,16.46 3.234,9.46 -2.731,14.56 -13.883,14.56 z m 256.891,-131.31 -7.723,30.84 H 581.906 l -28.222,-30.84 h -72.239 l 173.008,172.1 h 59.555 l 58.98,-172.1 z m -31.481,125.45 -53.722,-58.39 h 68.652 z m 117.008,-125.45 56.516,170.82 h 58.75 l -42.782,-129.3 h 143.098 l -13.68,-41.52 z m 497.882,0 -7.8,30.84 h -109.98 l -28.24,-30.84 h -72.25 l 172.98,172.1 h 59.68 l 58.89,-172.1 z m -31.46,125.45 -53.8,-58.39 h 68.72 z m 117.92,-125.45 56.46,170.82 h 58.91 l -56.61,-170.82 z m 239.83,0 -32.39,60.84 h -44.33 l -20.15,-60.84 h -58.8 l 56.51,170.82 h 163.22 c 34.29,0 58.38,-16 46.62,-51.41 -10.11,-30.76 -37.48,-52.68 -64.29,-52.68 h -10.69 l 41.28,-66.73 z m 38.84,131.31 h -92.29 l -10.26,-31.02 h 93.59 c 8.61,0 18.95,4.33 22.95,16.46 3.06,9.46 -2.9,14.56 -13.99,14.56 z m 55.96,-131.31 56.46,170.82 h 58.85 l -42.75,-129.3 h 143.22 l -13.85,-41.52 z m 225.16,0 56.5,170.82 h 58.77 l -56.44,-170.82 z m 318.93,-3.12 -145.89,95.37 -30.45,-92.25 h -58.41 l 57.39,173.62 h 7.42 l 146.82,-93.29 29.95,90.49 h 58.05 l -57.54,-173.94 z m 32.75,3.12 56.52,170.82 h 212.62 l -12,-36.5 h -153.83 l -7.98,-23.84 h 153.91 l -12.07,-36.56 h -153.87 l -12.36,-37.44 h 153.82 l -12.12,-36.48 z m 336.8,-2.53 c -40.78,0 -72.48,4.56 -96.95,12.39 l -5.53,1.78 25.59,36.71 5.47,-1.81 c 17.17,-5.46 42.24,-13.06 83.62,-13.06 33.69,0 58.4,3.25 63.08,17.43 3.46,10.42 -10.06,11.68 -50.19,14.64 -72.89,5.66 -103.99,15.73 -91.4,54.06 12.31,37.32 76.62,53.47 136.91,53.47 34.76,0 70.68,-3.86 91.46,-11.42 l 5.51,-2.06 -24.52,-37.18 -5.36,2.28 c -18.16,7.8 -48.38,12.13 -79.11,12.13 -34.69,0 -57.08,-2.52 -60.82,-13.72 -2.77,-8.27 8.78,-11.1 45.11,-13.91 74.44,-5.62 109.14,-13.2 95.99,-52.98 -14.75,-44.58 -83.31,-58.76 -138.86,-58.75" /></g></g></svg>
