<?xml version="1.0" encoding="utf-8"?>
<!-- Generator: Adobe Illustrator 16.0.0, SVG Export Plug-In . SVG Version: 6.00 Build 0)  -->
<!DOCTYPE svg PUBLIC "-//W3C//DTD SVG 1.1//EN" "http://www.w3.org/Graphics/SVG/1.1/DTD/svg11.dtd">
<svg version="1.1" id="Layer_1" xmlns="http://www.w3.org/2000/svg" xmlns:xlink="http://www.w3.org/1999/xlink" x="0px" y="0px"
	 width="1000px" height="315.793px" viewBox="0 0 1000 315.793" enable-background="new 0 0 1000 315.793" xml:space="preserve">
<g>
	<g>
		<g>
			<g>
				<g>
					<g>
						<path fill="#2570AE" d="M75.791,82.434c-13.965-9.646-21.733-13.573-33.899-15.157c-9.215-1.211-16.52,1.349-16.52,1.349
							s18.332,7.704,33.43,28.598c4.91,6.786,8.856,13.239,12.211,19.533c-0.009-0.013-0.021-0.034-0.021-0.034
							s11.107,7.947,25.476,9.147c6.209,0.512,12.938,0.215,20.802-1.547c-0.117-0.141-0.219-0.278-0.312-0.404
							C110.315,115.068,93.146,94.413,75.791,82.434z"/>
					</g>
					<g>
						<path fill="#2570AE" d="M193.001,201.892c-9.75,18.522-24.244,39.774-25.645,40.491c0.25,0.081,0.51,0.162,0.763,0.229
							c23.985,6.354,40.017,2.888,53.475-0.445c23.021-5.722,35.025-14.943,35.025-14.943L193.001,201.892z"/>
					</g>
				</g>
			</g>
			<path fill="#D83175" d="M206.314,71.112c0,0-31.471,29.752-67.406,45.774c-8.188,3.649-15.283,6.012-21.647,7.435
				c-7.867,1.753-14.59,2.05-20.8,1.537c-14.371-1.193-25.476-9.144-25.476-9.144s0,0.021,0.007,0.024
				c0.241,0.529,8.43,18.017,12.135,27.201c0.139,0.356,0.284,0.718,0.42,1.076c3.739,9.89,9.494,32.601,29.947,58.074
				c0.056,0.064,0.1,0.125,0.148,0.188c0.452,0.555,0.903,1.095,1.352,1.651c11.584,14.065,25.014,25.037,38.151,31.796
				c4.781,2.457,9.519,4.347,14.114,5.63l0.093,0.043l0.003-0.014c1.401-0.717,15.895-21.969,25.645-40.491
				c1.516-2.874,2.913-5.684,4.132-8.345c9.333-20.354,17.651-36.995,19.922-72.481C219.291,86.107,206.314,71.112,206.314,71.112z"
				/>
		</g>
	</g>
	<g>
		<g>
			<path fill="#D83175" d="M291.979,243.868v-44.265c0-2.449,1.447-4.65,3.769-5.531c2.323-0.872,4.961-0.183,6.529,1.642
				l16.516,18.835l17.328-18.714c1.639-1.763,4.212-2.385,6.469-1.445c2.319,0.879,3.767,3.08,3.767,5.462v43.892h-11.803v-28.76
				l-11.554,12.44c-1.132,1.248-2.703,1.879-4.333,1.879h-0.062c-1.698,0-3.266-0.753-4.397-2.009l-10.422-11.875v28.449H291.979z"
				/>
			<path fill="#414042" d="M460.847,193.696v44.267c0,2.449-1.447,4.65-3.767,5.529c-2.325,0.874-4.966,0.186-6.534-1.633
				l-16.514-18.84l-17.33,18.712c-1.63,1.761-4.206,2.386-6.464,1.447c-2.325-0.881-3.772-3.08-3.772-5.471v-43.882h11.807v28.755
				l11.554-12.438c1.132-1.251,2.696-1.882,4.336-1.882h0.056c1.698,0,3.268,0.756,4.397,2.011l10.424,11.865v-28.441H460.847z"/>
			<path fill="#414042" d="M398.791,203.748l-14.887,14.812l-2.319,2.327v22.981h-11.931v-22.981l-2.388-2.327l-14.813-14.812
				c-2.27-2.326-2.27-6.025,0-8.356c2.316-2.263,6.024-2.263,8.281,0l14.884,14.888l14.816-14.888c2.325-2.263,6.03-2.263,8.355,0
				C401.049,197.722,401.049,201.421,398.791,203.748z"/>
			<path fill="#414042" d="M565.376,203.748l-14.887,14.812l-2.313,2.327v22.981h-11.937v-22.981l-2.386-2.327l-14.809-14.812
				c-2.271-2.326-2.271-6.025,0-8.356c2.313-2.263,6.023-2.263,8.277,0l14.884,14.888l14.814-14.888
				c2.327-2.263,6.029-2.263,8.355,0C567.634,197.722,567.634,201.421,565.376,203.748z"/>
			<path fill="#2570AE" d="M667.946,218.938v25.06h-12.061v-7.729h-15.13c-0.191,0-0.377,0.071-0.567,0.071
				c-3.321,0-6.025-2.77-6.025-6.096c0-3.2,2.505-5.843,5.648-6.028h16.074v-5.277c0-7.151-5.84-12.989-12.995-12.989
				c-7.162,0-12.998,5.838-12.998,12.989c0,7.354,0,13.004,0,13.004v11.988h-12.115v-24.992c0-13.879,11.233-25.112,25.113-25.112
				C656.707,193.826,667.946,205.059,667.946,218.938z"/>
			<path fill="#414042" d="M517.275,218.938v25.06h-12.054v-7.729h-15.132c-0.188,0-0.38,0.071-0.568,0.071
				c-3.328,0-6.03-2.77-6.03-6.096c0-3.2,2.517-5.843,5.652-6.028h16.079v-5.277c0-7.151-5.846-12.989-13.001-12.989
				c-7.153,0-12.992,5.838-12.992,12.989c0,7.354,0,13.004,0,13.004v11.988h-12.122v-24.992c0-13.879,11.241-25.112,25.114-25.112
				C506.038,193.826,517.275,205.059,517.275,218.938z"/>
			<path fill="#414042" d="M686.718,199.159v44.709h-12.115v-44.709c0.313-3.08,2.886-5.521,6.027-5.521
				c3.139,0,5.773,2.441,6.022,5.521H686.718z"/>
			<path fill="#414042" d="M741.349,243.682c-1.193,1.065-2.698,1.633-4.207,1.633c-1.505,0-3.018-0.567-4.205-1.633l-20.788-20.848
				c-1.691-1.696-2.264-4.275-1.312-6.465c0.94-2.2,3.069-3.648,5.455-3.648h10.735c2.015,0,3.647-1.632,3.647-3.58
				c0-2.005-1.633-3.64-3.647-3.64h-21.285v38.241h-12.056v-50.105h7.412h4.644h21.608c8.344,0.188,15.188,7.023,15.188,15.504
				c0,7.409-5.272,13.569-12.244,15.074l11.054,11.043C743.673,237.591,743.673,241.358,741.349,243.682z"/>
			<path fill="#414042" d="M761.504,243.868h-12.055v-44.709h0.063c0.253-3.08,2.888-5.521,6.023-5.521
				c3.143,0,5.722,2.441,6.031,5.521L761.504,243.868z"/>
			<polygon fill="#414042" points="791.078,243.868 761.445,243.868 761.445,231.812 791.078,231.876 			"/>
			<path fill="#414042" d="M805.959,199.159v44.709h-12.114v-44.709c0.313-3.08,2.892-5.521,6.03-5.521
				c3.142,0,5.768,2.441,6.025,5.521H805.959z"/>
			<path fill="#414042" d="M812.999,243.868v-44.146c0-2.319,1.381-4.453,3.508-5.39c2.141-1.012,4.711-0.636,6.408,0.997
				l30.583,29.451v-31.021h11.863v44.333c0,2.324-1.38,4.458-3.516,5.399c-2.132,0.877-4.702,0.566-6.404-1.002l-30.576-29.446
				v30.824H812.999z"/>
			<path fill="#414042" d="M975.372,228.11c0,8.665-6.958,15.633-15.625,15.633h-30.076V232h30.076c2.129,0,3.887-1.756,3.887-3.89
				c0-2.073-1.758-3.831-3.887-3.831h-0.072l-6.58-0.063h-10.62c-8.417,0-15.259-6.904-15.259-15.323
				c0-8.289,6.471-15.003,14.638-15.385c0.12,0,0.249,0,0.371,0h22.912c3.215,0,5.845,2.645,5.845,5.91
				c0,3.264-2.63,5.894-5.845,5.894h-22.662c-1.948,0-3.519,1.572-3.519,3.581c0,1.945,1.57,3.515,3.519,3.515h10.741l6.589,0.13
				C968.414,212.598,975.372,219.505,975.372,228.11z"/>
		</g>
		<g>
			<g>
				<path fill="#414042" d="M910.885,205.967l-4.27-0.065v0.065c0,0-5.582,0-10.038,0c-7.225,0-13.002,5.779-13.002,12.995
					c0,7.156,5.777,12.99,13.002,12.99h21.348v12.003h-21.348c-13.885,0-25.113-11.179-25.113-24.993
					c0-13.877,11.229-25.118,25.113-25.118h0.687c0.251-0.061,0.501-0.061,0.761-0.061h15.886c4.015,1.319,6.329,9.142,0,12.184"/>
			</g>
			<path fill="#1A1A1A" d="M913.91,218.834c0-2.402-1.717-4.406-3.98-4.928v-0.116h-0.656h-15.646h-0.646v0.153
				c-2.267,0.496-3.987,2.544-3.987,4.946c0,2.404,1.721,4.416,3.987,4.938v0.116h0.646h15.646h0.656v-0.153
				C912.193,223.295,913.91,221.247,913.91,218.834z"/>
		</g>
	</g>
</g>
</svg>
