<?xml version="1.0" encoding="utf-8"?>
<!DOCTYPE svg PUBLIC "-//W3C//DTD SVG 1.1//EN" "http://www.w3.org/Graphics/SVG/1.1/DTD/svg11.dtd">
<svg xmlns="http://www.w3.org/2000/svg" width="799.408" height="125.431" viewBox="0 0 799.408 125.431">
  <defs>
    <style>
      .cls-1 {
        fill: #fff;
      }

      .cls-2 {
        fill: #c80c0f;
      }
    </style>
  </defs>
  <g id="TA_logo" data-name="TA logo" transform="translate(-49.124 -49.125)">
    <g id="Group_5" data-name="Group 5">
      <g id="Group_1" data-name="Group 1">
        <path id="Path_1" data-name="Path 1" class="cls-1" d="M118.4,49.471a62.7,62.7,0,1,1-6.581-.346A63.653,63.653,0,0,1,118.4,49.471Zm3.236,120.7A59.153,59.153,0,1,0,84.152,59.567c28.4,9.633,43.669,24.274,44.726,39.276.522,9.264-3.783,15.962-9.442,21.424l40.157-2.806c1.137-.078,1.493,1.245.116,1.639l-95.78,27.463a59.051,59.051,0,0,0,57.705,23.612Zm-26.351-56.96c5.252-19.737-.741-40.421-15.074-51.381a59.182,59.182,0,0,0-18.384,81.613C77.088,139.2,90.51,131.15,95.283,113.215Z"/>
        <path id="Path_2" data-name="Path 2" class="cls-2" d="M170.166,102.045A59.154,59.154,0,0,1,63.929,146.563l95.78-27.463c1.377-.394,1.021-1.717-.116-1.639l-40.157,2.806c5.659-5.462,9.964-12.16,9.442-21.424-1.057-15-16.327-29.643-44.726-39.276a59.119,59.119,0,0,1,86.014,42.478ZM53.5,121.643a58.791,58.791,0,0,0,8.329,21.8c15.263-4.25,28.685-12.3,33.458-30.232,5.252-19.737-.741-40.421-15.074-51.381A59.166,59.166,0,0,0,53.5,121.643Z"/>
      </g>
      <g id="Group_4" data-name="Group 4">
        <g id="Group_2" data-name="Group 2">
          <path id="Path_3" data-name="Path 3" d="M499.383,136.437V115.815H478.709v20.622H467.358V87.319h11.351v19.57h20.674V87.319h11.433v49.117Z"/>
          <path id="Path_4" data-name="Path 4" d="M254.8,87.321V118.07a22.987,22.987,0,0,0,1.488,8.732,14.938,14.938,0,0,0,4.225,5.86,17.455,17.455,0,0,0,6.6,3.354,32.579,32.579,0,0,0,8.644,1.073,31.784,31.784,0,0,0,8.565-1.071,15.674,15.674,0,0,0,6.3-3.341,15.119,15.119,0,0,0,3.959-5.864,24.116,24.116,0,0,0,1.408-8.743V87.321h-10.62v30.423a11.379,11.379,0,0,1-2.286,7.438c-1.551,1.871-4.015,2.818-7.325,2.818-3.252,0-5.7-.945-7.274-2.813a11.212,11.212,0,0,1-2.333-7.443V87.321Z"/>
          <path id="Path_5" data-name="Path 5" d="M222.064,136.445V96.493H208.718V87.321h38.12v4.4a4.778,4.778,0,0,1-4.772,4.774h-8.653v39.952Z"/>
          <rect id="Rectangle_1" data-name="Rectangle 1" width="11.351" height="49.12" transform="translate(404.474 87.315)"/>
          <path id="Path_6" data-name="Path 6" d="M366.67,113.533l.386.487,14.5,18.686a9.611,9.611,0,0,0,7.642,3.743h9.039l-20.772-26.423-.306-.387.3-.39L394.539,87.3H382.727l-15.662,21.173-.395.509,0-.886V87.3H355.316v49.12h11.351V114.408Z"/>
          <path id="Path_7" data-name="Path 7" d="M340.519,136.429a9.717,9.717,0,0,1-8.27-4.66l-8.83-14.581h-5.6v19.241H306.477V87.321H326.7c5.2,0,9.264,1.356,12.094,4.03s4.25,6.326,4.25,10.864a14.853,14.853,0,0,1-1.825,6.942,13,13,0,0,1-6.3,5.5l-.657.305,13.78,21.466ZM317.82,109.8h6.619a7.054,7.054,0,0,0,5.4-1.94,6.974,6.974,0,0,0,1.783-4.92,7.177,7.177,0,0,0-1.738-4.988c-1.171-1.294-3-1.949-5.44-1.949H317.82Z"/>
          <path id="Path_8" data-name="Path 8" d="M425.141,134.351v-9.415a32.171,32.171,0,0,0,13.083,3.323c5.539,0,8.348-1.9,8.348-5.541,0-4.272-3.773-4.746-11.317-7.99-5.137-2.295-10.033-5.856-10.033-14.084,0-9.575,7.3-14.085,17.417-14.085a37.185,37.185,0,0,1,12.521,2.215v9.178a30.121,30.121,0,0,0-11.718-2.611c-4.976,0-7.3,1.821-7.3,4.985,0,3.323,2.809,4.353,7.866,6.251,6.5,3.244,14.046,4.669,14.046,15.746,0,9.574-7.625,14.8-17.819,14.8A37.927,37.927,0,0,1,425.141,134.351Z"/>
        </g>
        <g id="Group_3" data-name="Group 3">
          <path id="Path_9" data-name="Path 9" d="M775.75,136.435V87.315h30.758V91.77a4.723,4.723,0,0,1-4.716,4.717H787.1V107.05h16.5v8.2H787.1v12.018h19.408v9.168Z"/>
          <path id="Path_10" data-name="Path 10" d="M663.53,136.428V87.311h5.516a5.84,5.84,0,0,1,5.834,5.834v34.438H693v8.845Z"/>
          <rect id="Rectangle_2" data-name="Rectangle 2" width="11.35" height="49.087" transform="translate(593.269 87.337)"/>
          <path id="Path_11" data-name="Path 11" d="M649.072,136.424a9.719,9.719,0,0,1-8.27-4.66l-8.83-14.581h-5.6v19.241H615.03V87.315h20.226c5.2,0,9.264,1.357,12.094,4.031s4.25,6.326,4.25,10.864a14.856,14.856,0,0,1-1.825,6.942,13.008,13.008,0,0,1-6.3,5.5l-.657.3,13.78,21.467Zm-22.7-26.63h6.619a7.054,7.054,0,0,0,5.4-1.94,6.974,6.974,0,0,0,1.783-4.919,7.182,7.182,0,0,0-1.738-4.989c-1.171-1.293-3-1.949-5.44-1.949h-6.619Z"/>
          <path id="Path_12" data-name="Path 12" d="M568.281,87.31H555.246l-18.525,49.12H544.9a4.793,4.793,0,0,0,4.559-3.295l1.9-5.762h19.922l2.914,9.057h12.295Zm-14.025,31.225,4.457-12.415c.991-2.793,1.983-5.74,2.642-7.912h.166c.578,2.25,1.568,5.043,2.559,7.912l4.292,12.415Z"/>
          <path id="Path_13" data-name="Path 13" d="M815.624,134.352v-9.415a32.162,32.162,0,0,0,13.082,3.323c5.539,0,8.348-1.9,8.348-5.541,0-4.272-3.772-4.746-11.317-7.99-5.137-2.294-10.033-5.856-10.033-14.084,0-9.574,7.3-14.085,17.418-14.085a37.191,37.191,0,0,1,12.521,2.216v9.177a30.132,30.132,0,0,0-11.719-2.61c-4.976,0-7.3,1.82-7.3,4.984,0,3.323,2.809,4.354,7.866,6.251,6.5,3.244,14.046,4.669,14.046,15.746,0,9.575-7.625,14.8-17.819,14.8A37.92,37.92,0,0,1,815.624,134.352Z"/>
          <path id="Path_14" data-name="Path 14" d="M722.043,87.319h7.034a9.673,9.673,0,0,1,8.211,4.56l13.7,22.007a78.8,78.8,0,0,1,4.4,7.963h.245c-.163-2.207-.245-5.283-.245-7.49V87.319h9.947v49.115H752.892L736.23,109.865c-1.55-2.443-3.18-5.36-4.322-7.567h-.163c.082,2.128.244,4.652.244,7.015v27.121h-9.946Z"/>
          <rect id="Rectangle_3" data-name="Rectangle 3" width="11.35" height="49.087" transform="translate(700.299 87.337)"/>
        </g>
      </g>
    </g>
  </g>
</svg>
