<?xml version="1.0" encoding="utf-8"?>
<svg xmlns="http://www.w3.org/2000/svg" xmlns:xlink="http://www.w3.org/1999/xlink" width="40" height="40" viewBox="0 0 169.367 169.375">
  <defs>
    <style>
      .cls-1 {
        fill: #005faa;
      }

      .cls-2, .cls-7 {
        fill: #fff;
      }

      .cls-3 {
        fill: #fefefe;
      }

      .cls-4 {
        fill: #0060ac;
      }

      .cls-5, .cls-6 {
        fill: #bee4fa;
      }

      .cls-5 {
        font-size: 20.891px;
      }

      .cls-5, .cls-6, .cls-7 {
        font-family: MyriadPro-Bold, Myriad Pro;
        font-weight: 700;
      }

      .cls-6 {
        font-size: 20.891px;
      }

      .cls-7 {
        font-size: 16.105px;
      }

      .cls-8 {
        filter: url(#Path_31);
      }
    </style>
    <filter id="Path_31" x="22.835" y="11.963" width="74.012" height="55.149" filterUnits="userSpaceOnUse">
      <feOffset dx="2.835" dy="5.669" input="SourceAlpha"/>
      <feGaussianBlur stdDeviation="2.835" result="blur"/>
      <feFlood flood-color="#040505" flood-opacity="0.102"/>
      <feComposite operator="in" in2="blur"/>
      <feComposite in="SourceGraphic"/>
    </filter>
  </defs>
  <g id="Group_2" data-name="Group 2" transform="translate(0 -1.539)">
    <path id="Path_1" data-name="Path 1" class="cls-1" d="M88.4,13.846"/>
    <path id="Path_2" data-name="Path 2" class="cls-1" d="M118.46,39.048"/>
    <path id="Path_3" data-name="Path 3" class="cls-1" d="M74.106,36.544"/>
    <path id="Path_4" data-name="Path 4" class="cls-2" d="M82.425,71.161"/>
    <path id="Path_5" data-name="Path 5" class="cls-2" d="M110.667,20.542"/>
    <path id="Path_6" data-name="Path 6" class="cls-2" d="M74.074,46.543"/>
    <path id="Path_7" data-name="Path 7" class="cls-2" d="M21.949,85.217"/>
    <circle id="Ellipse_1" data-name="Ellipse 1" class="cls-2" cx="2.375" cy="2.375" r="2.375" transform="matrix(0.993, -0.115, 0.115, 0.993, 38.37, 108.608)"/>
    <circle id="Ellipse_2" data-name="Ellipse 2" class="cls-2" cx="2.375" cy="2.375" r="2.375" transform="translate(46.467 115.568) rotate(-6.613)"/>
    <circle id="Ellipse_3" data-name="Ellipse 3" class="cls-2" cx="2.375" cy="2.375" r="2.375" transform="translate(54.374 121.927) rotate(-6.613)"/>
    <circle id="Ellipse_4" data-name="Ellipse 4" class="cls-2" cx="2.375" cy="2.375" r="2.375" transform="matrix(0.993, -0.115, 0.115, 0.993, 64.055, 128.141)"/>
    <path id="Path_8" data-name="Path 8" class="cls-1" d="M70.227,117.928"/>
    <path id="Path_9" data-name="Path 9" class="cls-3" d="M103.782,116.527"/>
    <path id="Path_10" data-name="Path 10" class="cls-3" d="M104.966,127.628"/>
    <path id="Path_11" data-name="Path 11" class="cls-2" d="M119.752,118.991"/>
    <path id="Path_12" data-name="Path 12" class="cls-2" d="M115.485,129.813"/>
    <path id="Path_13" data-name="Path 13" class="cls-3" d="M113.276,109.05"/>
    <path id="Path_14" data-name="Path 14" class="cls-1" d="M135.2,64.6"/>
    <path id="Path_15" data-name="Path 15" class="cls-4" d="M60.779,47.753"/>
    <path id="Path_16" data-name="Path 16" class="cls-4" d="M59.424,20.071"/>
    <path id="Path_17" data-name="Path 17" class="cls-4" d="M60.237,18.13"/>
    <path id="Path_18" data-name="Path 18" class="cls-4" d="M40.322,35.38"/>
    <path id="Path_19" data-name="Path 19" class="cls-4" d="M66.2,19.1"/>
    <path id="Path_20" data-name="Path 20" class="cls-4" d="M65.927,17.2"/>
    <path id="Path_21" data-name="Path 21" class="cls-4" d="M69.246,18.423"/>
    <path id="Path_22" data-name="Path 22" class="cls-4" d="M66.74,17.272"/>
    <path id="Path_23" data-name="Path 23" class="cls-4" d="M67.011,18.22"/>
    <path id="Path_24" data-name="Path 24" class="cls-2" d="M59.778,16.336"/>
    <path id="Path_25" data-name="Path 25" class="cls-4" d="M64.343,18.1"/>
    <g id="Group_1" data-name="Group 1">
      <g id="directions-bus">
        <path id="Path_26" data-name="Path 26" class="cls-1" d="M87.551,97.143a9.216,9.216,0,0,0,3.215,7.075v5.788a3.038,3.038,0,0,0,3.216,3.215H97.2a3.037,3.037,0,0,0,3.215-3.215V106.79h25.725v3.216a3.038,3.038,0,0,0,3.216,3.215h3.216a3.037,3.037,0,0,0,3.215-3.215v-5.788A9.212,9.212,0,0,0,139,97.143V64.987c0-11.255-11.576-12.862-25.725-12.862S87.551,53.732,87.551,64.987Zm11.254,3.216a4.824,4.824,0,1,1,4.824-4.823A4.945,4.945,0,0,1,98.805,100.359Zm28.941,0a4.824,4.824,0,1,1,4.824-4.823A4.945,4.945,0,0,1,127.746,100.359Zm4.824-19.294H93.982V64.987H132.57Z"/>
      </g>
    </g>
    <path id="Path_27" data-name="Path 27" class="cls-4" d="M141.931,23.813a85.121,85.121,0,0,0-8.64-6.955l-1.6.533-.768.256q-1.665.555-3.329,1.28l-.746.3L124.2,20.335l-.9.384c-1.088.491-2.133,1-3.243,1.515l-.3.235-2.9,1.493-.875.469L113.3,25.967l-.469.278H112.7a112.218,112.218,0,0,1,36.674,21.377q3.755,3.264,7.211,6.87,1.492,1.557,2.944,3.178l.811,1.067c.64.747,1.28,1.472,1.9,2.134l1.046,1.322c.555.683,1.088,1.366,1.621,2.134l1.11,1.515c.448.6.9,1.194,1.322,1.792A83.858,83.858,0,0,0,141.931,23.813Z"/>
    <path id="Path_28" data-name="Path 28" class="cls-4" d="M74.856,166.732l1.557-.469.9-.277,1.408-.449.939-.32,1.451-.469.938-.341,1.195-.491.939-.363,1.322-.533.918-.384,1.323-.576.874-.384,1.408-.64.768-.363,1.6-.789.534-.256,2.133-1.11.214-.128,1.877-1.024.725-.49,1.408-.811.769-.469,1.28-.79.81-.512,1.216-.789.811-.534,1.173-.81.79-.555,1.173-.832.768-.576,1.174-.875.725-.554,1.237-.982.64-.512,1.43-1.067.363-.3,1.813-1.579.4-.363,1.366-1.237.618-.6,1.089-1.067.682-.683,1-1.024.7-.725.96-.96.7-.768.917-1.024.683-.79.9-1.045.662-.79.9-1.088.64-.9.938-1.194.555-.726,1.152-1.557.277-.384h0q-2.666.127-5.312.128a111.125,111.125,0,0,1-63.576-19.735v.214l-5.1-3.947a112.562,112.562,0,0,1-40.835-64l-.512-2.346a84.676,84.676,0,0,0,50.9,131.121h.214l2.5-.533h.32l2.56-.768,2.347-.64Z"/>
    <path id="Path_29" data-name="Path 29" class="cls-4" d="M169.367,85.6c-.448-.917-.917-1.835-1.408-2.731l-.341-.661q-.747-1.365-1.515-2.688l-.384-.661q-.918-1.538-1.856-3.03l-.405-.619q-.853-1.3-1.729-2.581l-.4-.576q-1.024-1.451-2.133-2.88l-.491-.619-.789-1.045a112.119,112.119,0,0,1-12.993,50.968q-1.749,3.327-3.734,6.528c-.746,1.195-1.514,2.368-2.282,3.542l-.406.6q-1.131,1.663-2.3,3.264l-.469.64q-1.217,1.643-2.475,3.222l-.235.3q-1.215,1.515-2.5,2.987l-.341.469q-1.3,1.494-2.667,2.945l-.555.6q-1.365,1.43-2.773,2.816l-.427.427q-1.386,1.344-2.795,2.624l-.3.277q-1.473,1.323-3.009,2.6l-.618.512q-1.515,1.237-3.051,2.432l-.576.448c-1.067.811-2.134,1.6-3.243,2.368h0c-1.109.768-2.133,1.515-3.371,2.262l-.618.4q-1.644,1.046-3.329,2.134l-.81.4c-1.152.661-2.3,1.323-3.478,1.941l-.384.192q-1.707.9-3.435,1.75l-.554.277q-1.792.854-3.606,1.643l-.725.32q-1.836.789-3.691,1.515h-.171a84.592,84.592,0,0,0,83.375-84.7Z"/>
    <path id="Path_30" data-name="Path 30" class="cls-4" d="M84.712,1.539A84.611,84.611,0,0,0,21.477,29.893v.533l.128.875.256,1.579.149.853a9.112,9.112,0,0,0,.32,1.664l.149.726q.235,1.194.512,2.368c.278,1.258.6,2.5.918,3.733v.406q.469,1.77,1.024,3.5l.171.577q.532,1.705,1.13,3.37l.214.6A32.185,32.185,0,0,1,27.77,54l.32.469q.684,1.686,1.43,3.35l.17.341q.768,1.686,1.579,3.35v.17c.555,1.11,1.131,2.134,1.707,3.307l.256.448Q34.085,66.993,35,68.53l.32.554q.9,1.515,1.856,2.987l.363.555q.981,1.472,1.984,2.923l.341.469Q40.933,77.512,42,78.962l.192.256q1.131,1.45,2.283,2.859l.363.32q1.173,1.408,2.411,2.795l.362.4q1.2,1.323,2.454,2.6l.427.405q1.238,1.281,2.538,2.5l.342.49q1.429,1.281,2.773,2.454l.128.106A112.77,112.77,0,0,1,95.657,29.1q2.987-2.433,6.165-4.673c1.067-.746,2.134-1.493,3.264-2.133l.982-.683L108.5,20.1l1.045-.64,2.838-1.6.6-.341q1.728-.939,3.478-1.792l.917-.448,2.667-1.344,1.152-.512,2.709-1.152.939-.384.342-.086A84.305,84.305,0,0,0,84.712,1.539Z"/>
    <g class="cls-8" transform="matrix(1, 0, 0, 1, 0, 1.54)">
      <path id="Path_31-2" data-name="Path 31" class="cls-2" d="M84.989,16.336l-1.061.022L80.582,17.4l-3.049,1.265-2.97,1.523L72.5,21.369l-2.744,1.81L63.01,27.9,55.1,28l.709-1.118-2.022-2.164L49.747,27.4,31.6,27.843l-3.094,2.6,25.658,4.979-8.676,8.75-8.172,1.34L35.232,47.5l6.44-.135L44.2,49.128l.5,3.04,1.872-1.532,1.393-3.4,12.2-8.553,5.615,15.8,2.281-2.018L67.3,41.964l1.87-1.1-1.095-2.239-1.089.293-.726-4.574,9.92-6.987,3.887-3.2,2.508-2.584,2-2.249.81-1.813.122-.868Z" transform="translate(0 -1.54)"/>
    </g>
    <text id="Fly" class="cls-5" transform="matrix(0.831, 0.557, -0.557, 0.831, 15.25, 111.747)"><tspan x="0" y="0">Fly</tspan></text>
    <text id="Bus" class="cls-6" transform="matrix(0.833, 0.553, -0.553, 0.833, 51.446, 136.175)"><tspan x="0" y="0">Bus</tspan></text>
    <text id="_" data-name="&amp;" class="cls-7" transform="translate(39.755 128.327) rotate(33.603)"><tspan x="0" y="0">&amp;</tspan></text>
  </g>
</svg>
