<?xml version="1.0" encoding="utf-8"?>
<!-- Generator: Adobe Illustrator 16.0.0, SVG Export Plug-In . SVG Version: 6.00 Build 0)  -->
<!DOCTYPE svg PUBLIC "-//W3C//DTD SVG 1.1//EN" "http://www.w3.org/Graphics/SVG/1.1/DTD/svg11.dtd">
<svg version="1.1" id="Layer_1" xmlns="http://www.w3.org/2000/svg" xmlns:xlink="http://www.w3.org/1999/xlink" x="0px" y="0px"
	 width="400px" height="95px" viewBox="0 0 400 95" enable-background="new 0 0 400 95" xml:space="preserve">
	<g>
		<path fill="#D12149" d="M46.289,46.965l4.344-9.122H13.117c0,0,0.888,1.869,2.217,4.666c0.879,2.025,1.27,3.321,0.745,6.479
			c-0.015,0.088-5.566,31.614-6.001,34.008c-0.444,2.497,1.062,3.674,3.028,3.674c1.879,0,31.573,0,31.573,0l-2.059-9.144h-20.24
			l1.961-11.142h18.672l1.614-9.197H25.968l1.795-10.224H46.289L46.289,46.965z"/>
		<path fill="#D12149" d="M344.992,46.965l4.348-9.122h-35.735c0,0,0.885,1.869,2.221,4.666c0.875,2.025,1.268,3.321,0.744,6.479
			c-0.015,0.088-5.576,31.614-6.007,34.008c-0.447,2.497,1.068,3.674,3.028,3.674c1.878,0,29.796,0,29.796,0l-2.058-9.144H322.87
			l1.956-11.142h16.894l1.618-9.197h-16.886l1.798-10.224H344.992L344.992,46.965z"/>
		<path fill="#D12149" d="M113.907,50.178c0.83-2.628,3.7-3.212,7.905-3.212h7.584l3.322-9.122c0,0-11.781,0-12.968,0
			c-4.702,0-15.447-0.444-17.753,10.026c-3.193,14.576,15.716,18.789,14.764,25.42c-0.568,3.894-4.282,4.238-9.41,4.238
			c-2.863,0-11.325,0-11.325,0l2.124,9.144h12.826c6.643,0,15.914-1.211,18.094-9.476C133.005,62.329,111.789,57.482,113.907,50.178
			L113.907,50.178z"/>
		<path fill="#D12149" d="M255.486,52.25c0.622-7.994-4.369-14.406-16.889-14.406h-18.304l2.199,4.666
			c0.882,2.025,1.271,3.32,0.749,6.47l-6.642,37.692h10.991l3.222-18.298c0,0,0.809-0.111,3.064,0.009
			c3.025,0.171,3.518,2.304,9.617,18.289h12.026c-6.468-16.149-7.628-19.054-9.648-21.068
			C250.788,63.628,254.976,58.855,255.486,52.25L255.486,52.25z M244.453,53.195c-0.702,3.997-4.189,6.975-8.533,6.975h-3.661
			l2.325-13.205h4.224C242.883,46.965,245.073,49.642,244.453,53.195L244.453,53.195z"/>
		<polygon fill="#D12149" points="134.907,37.843 138.226,46.965 149.602,46.965 142.6,86.671 154.081,86.671 161.081,46.965
			173.839,46.965 177.151,37.843 134.907,37.843 		"/>
		<polygon fill="#D12149" points="350.306,37.843 353.622,46.965 363.208,46.965 356.212,86.671 367.693,86.671 374.69,46.965
			386.683,46.965 390,37.843 350.306,37.843 		"/>
		<path fill="#D12149" d="M290.068,27.812c-0.406-0.031-1.109-0.092-1.639-0.143c-13.914-1.464-17.467-2.528-18.451-20.291
			c0,0-0.068-0.921-0.822-0.921c-0.762,0-0.825,0.921-0.825,0.921c-0.98,17.763-4.536,18.827-18.451,20.291
			c-0.526,0.051-1.228,0.112-1.639,0.143c-0.434,0.034-0.903,0.213-0.903,0.533c0,0.352,0.44,0.528,0.903,0.585
			c15.354,1.903,18.788,3.216,20.124,25.363c0.015,0.492,0.243,0.987,0.791,0.987c0.544,0,0.771-0.496,0.792-0.987
			c1.332-22.146,4.766-23.46,20.12-25.363c0.458-0.057,0.908-0.233,0.908-0.585C290.977,28.024,290.5,27.845,290.068,27.812
			L290.068,27.812z"/>
		<path fill="#D12149" d="M291.062,37.843l2.213,4.666c0.877,2.025,1.271,3.321,0.748,6.479l-3.266,18.634
			c-3.167,18.137-12.445,18.149-18.183,18.149c-1.062,1.747,10.993,4.449,18.812,0.732c6.079-2.88,9.092-8.055,10.608-16.881
			c0.417-2.417,5.579-31.78,5.579-31.78H291.062L291.062,37.843z"/>
		<path fill="#D12149" d="M202.035,41.516c-0.501-2.108-2.132-3.673-4.52-3.673c-2.162,0-14.111,0-14.111,0l2.308,4.879
			c0.964,2.091,0.845,3.501-0.441,5.924l-20.062,38.025h11.598l5.896-11.624h16.243l2.205,11.624h11.395
			C212.544,86.671,202.531,43.638,202.035,41.516L202.035,41.516z M187.287,66l7.241-14.301L197.237,66H187.287L187.287,66z"/>
		<path fill="#D12149" d="M83.597,41.516c-0.504-2.108-2.131-3.673-4.525-3.673c-2.156,0-14.109,0-14.109,0l2.312,4.879
			c0.962,2.091,0.843,3.501-0.441,5.924L46.767,86.671h11.6l5.894-11.624H80.5l2.206,11.624H94.1
			C94.1,86.671,84.096,43.638,83.597,41.516L83.597,41.516z M68.844,66L76.086,51.7L78.794,66H68.844L68.844,66z"/>
	</g>
</svg>
