<?xml version="1.0" encoding="utf-8"?>
<svg width="50" height="35" viewBox="0 0 50 35" fill="none" xmlns="http://www.w3.org/2000/svg">
<path d="M41.6602 15.1667L39.9704 11.437C39.3611 10.1123 38.0375 9.26254 36.5796 9.26041H12.3368C10.5464 9.26233 9.09567 10.713 9.09375 12.5036V20.6081C9.09375 21.5897 9.8895 22.3854 10.8711 22.3854H13.5234C13.7823 23.6601 14.9026 24.5757 16.2031 24.5757C17.5037 24.5757 18.6239 23.6601 18.8828 22.3854H32.1172C32.3761 23.6601 33.4963 24.5757 34.7969 24.5757C36.0974 24.5757 37.2177 23.6601 37.4766 22.3854H40.3861C41.0614 22.3852 41.6559 21.9398 41.8462 21.2917C41.8857 21.1528 41.9058 21.0095 41.9062 20.8653V16.2989C41.906 15.9081 41.8221 15.5221 41.6602 15.1667ZM11.8281 15.8229C11.5261 15.8229 11.2812 15.5781 11.2812 15.276V10.901C11.2812 10.5992 11.5261 10.3542 11.8281 10.3542H15.6562C15.9583 10.3542 16.2031 10.5992 16.2031 10.901V15.276C16.2031 15.5781 15.9583 15.8229 15.6562 15.8229H11.8281ZM16.2031 23.4792C15.2971 23.4792 14.5625 22.7447 14.5625 21.8385C14.5625 20.9326 15.2971 20.1979 16.2031 20.1979C17.1091 20.1979 17.8438 20.9326 17.8438 21.8385C17.8412 22.7437 17.108 23.4766 16.2031 23.4792ZM22.2188 15.276C22.2188 15.5781 21.9739 15.8229 21.6719 15.8229H17.8438C17.5417 15.8229 17.2969 15.5781 17.2969 15.276V10.901C17.2969 10.5992 17.5417 10.3542 17.8438 10.3542H21.6719C21.9739 10.3542 22.2188 10.5992 22.2188 10.901V15.276ZM28.2344 15.276C28.2344 15.5781 27.9896 15.8229 27.6875 15.8229H23.8594C23.5573 15.8229 23.3125 15.5781 23.3125 15.276V10.901C23.3125 10.5992 23.5573 10.3542 23.8594 10.3542H27.6875C27.9896 10.3542 28.2344 10.5992 28.2344 10.901V15.276ZM29.875 15.8229C29.5729 15.8229 29.3281 15.5781 29.3281 15.276V10.901C29.3281 10.5992 29.5729 10.3542 29.875 10.3542H33.7031C34.0052 10.3542 34.25 10.5992 34.25 10.901V15.276C34.25 15.5781 34.0052 15.8229 33.7031 15.8229H29.875ZM34.7969 23.4792C33.8909 23.4792 33.1562 22.7447 33.1562 21.8385C33.1562 20.9326 33.8909 20.1979 34.7969 20.1979C35.7029 20.1979 36.4375 20.9326 36.4375 21.8385C36.4349 22.7437 35.7018 23.4766 34.7969 23.4792ZM35.8468 15.8229C35.5634 15.7977 35.3455 15.5608 35.3438 15.276V10.8963C35.3438 10.597 35.5864 10.3542 35.8859 10.3542H36.5796C37.609 10.3569 38.5436 10.9564 38.9751 11.891L40.6649 15.6206C40.7531 15.815 40.8016 16.0252 40.8072 16.2384L35.8468 15.8229Z" fill="#BBBEC1"/>
</svg>
