<?xml version="1.0" encoding="UTF-8" standalone="no"?>
<!-- Created with Inkscape (http://www.inkscape.org/) -->
<svg id="svg24903" xmlns:rdf="http://www.w3.org/1999/02/22-rdf-syntax-ns#" xmlns="http://www.w3.org/2000/svg" height="34.952" viewBox="0 0 299.99883 34.952404" width="300" version="1.1" xmlns:cc="http://creativecommons.org/ns#" xmlns:dc="http://purl.org/dc/elements/1.1/">
 <metadata id="metadata24908">
  <rdf:RDF>
   <cc:Work rdf:about="">
    <dc:format>image/svg+xml</dc:format>
    <dc:type rdf:resource="http://purl.org/dc/dcmitype/StillImage"/>
    <dc:title/>
   </cc:Work>
  </rdf:RDF>
 </metadata>
 <g id="g4156" transform="matrix(.99997 0 0 .99997 .00028506 .037448)">
  <g id="g4140" fill="#2b4779" transform="matrix(2.7411,0,0,2.7411,-907.28,-1018.9)">
   <path id="path8540" d="m354.59 384.36-3.4227-4.3914h-1.2875v4.3914h-3.925v-11.558h5.8404c4.2704 0 7.0026 1.2052 7.0026 3.5996 0 1.6182-1.5703 2.6244-3.7051 3.1526l3.7677 4.8052h-4.2704v0.00037zm-2.983-9.544h-1.7272v3.2202h1.9467c2.01 0 3.0456-0.54559 3.0456-1.602 0.00039-1.0398-0.90957-1.6182-3.265-1.6182z"/>
   <path id="path8546" d="m368.63 380v4.3589h-3.925v-4.3257l-5.6526-7.2322h4.3338l1.6955 2.3446c0.72256 1.0066 1.4451 2.1468 1.6333 2.6916 0.21948-0.54482 0.94203-1.7342 1.6329-2.6916l1.6955-2.3446h4.2704l-5.6839 7.1989z"/>
   <path id="path8552" d="m383.47 384.36-1.0355-2.4103h-4.9292l-1.0359 2.4103h-4.0193l5.6205-11.558h3.8311l5.6197 11.558h-4.0514zm-2.4791-5.7125c-0.37711-0.8918-0.87903-2.2299-1.0359-2.8068-0.15764 0.5939-0.59659 1.8323-1.005 2.7732l-0.59659 1.4046h3.2341l-0.5966-1.3709z"/>
   <path id="path8558" d="m398.2 384.36-4.0502-5.1514c-0.56568-0.72642-1.2566-1.6681-1.6642-2.3443 0.0312 0.71059 0.0623 1.8988 0.0623 2.6248v4.8709h-3.58v-11.557h3.9567l3.8624 5.0695c0.534 0.69242 1.3192 1.7666 1.7268 2.4107-0.0312-0.71058-0.12519-1.9652-0.12519-2.6924v-4.7878h3.5796v11.557h-3.7681z"/>
   <path id="path8564" d="m414.64 384.36-1.0371-2.4103h-4.9296l-1.0359 2.4103h-4.0193l5.6201-11.558h3.8315l5.6205 11.558h-4.0502zm-2.481-5.7125c-0.37674-0.8918-0.87866-2.2299-1.0363-2.8068-0.15726 0.5939-0.5966 1.8323-1.005 2.7732l-0.5966 1.4046h3.2349l-0.59697-1.3709z"/>
   <path id="path8570" d="m420.23 372.8h3.9242v11.558h-3.9242v-11.558z"/>
   <path id="path8576" d="m436.17 384.36-3.4231-4.3914h-1.2871v4.3914h-3.9258v-11.558h5.8407c4.2704 0 7.0019 1.2052 7.0019 3.5996 0 1.6182-1.5692 2.6244-3.7044 3.1526l3.7674 4.8052h-4.2697v0.00037zm-2.9834-9.544h-1.7268v3.2202h1.9463c2.0096 0 3.0456-0.54559 3.0456-1.602 0.00001-1.0398-0.90995-1.6182-3.265-1.6182z"/>
  </g>
  <g id="g4149" fill="#f4ca35" transform="matrix(2.7411,0,0,2.7411,-907.28,-1018.9)">
   <path id="path8582" d="m339.53 372.39c0.81336 0.27164 1.6739 0.4799 2.5514 0.57959l0.61205 0.006 0.0189-0.017c0.36592 0.01 0.6364-0.15069 0.99227-0.22913 0.0383-0.009 0.13022-0.0321 0.16925 0.0201 0.0178 0.068-0.01 0.1418-0.087 0.19242-0.43585 0.33345-0.95555 0.58151-1.4455 0.76004v-0.01c-0.16074 0.0309-0.33269 0.10012-0.49962 0.15494-0.60353 0.18276-1.2906 0.29752-1.9397 0.25077-1.2434-0.0638-2.3002-0.50811-3.398-0.45556-1.078-0.063-2.1032 0.34891-2.677 1.1619-0.29443 0.42542-0.52858 0.87402-0.60161 1.3674 0.0325 0.44667 0.65957 0.61823 0.8945 0.98764 0.13485 0.22332 0.2017 0.46946 0.30332 0.7013 0.26043 0.46715 0.51854 0.93391 0.83848 1.3736l-0.008 0.009c0.18741 0.29404 0.48609 0.54868 0.83925 0.7214 0.45789 0.32728 0.86205 0.73763 1.1024 1.1785l-0.0125 0.007c0.27047 0.43122 0.42232 0.87828 0.63176 1.328 0.0939 0.27589 0.19744 0.51855 0.27781 0.78709 0.0275 0.0251 0.0275 0.0656 0.0436 0.10087 0.0741 0.21253 0.13717 0.43895 0.22758 0.63602-0.039 0.0297 0.0305 0.041 0.022 0.0699 0.005 0.11938 0.12138 0.2983-0.034 0.37828-0.22605-0.19977-0.34466-0.49265-0.46677-0.70555-0.26699-0.46562-0.57264-0.91577-0.90184-1.3586l0.01-0.009c-0.20209-0.25386-0.42542-0.5398-0.65649-0.80255-0.9741-1.0784-2.4057-1.726-3.4521-2.7527l-0.01 0.009c-0.0892-0.08-0.14645-0.18586-0.2187-0.27705l0.007-0.01c-0.12751-0.17851-0.20325-0.38214-0.3265-0.56491l0.007-0.009c-0.3238-0.48222-0.63524-0.99419-0.84466-1.5015-0.0436-0.2245-0.1205-0.41769-0.13756-0.67619l-0.0244-0.0846c0.0135-0.23531-0.57032-0.37171-0.24922-0.82303 0.2017-0.21753 0.98221-0.4857 1.2477-0.89411 0.006-0.061 0.0201-0.1337-0.0325-0.18895 0-0.0436-0.0453-0.0896-0.0769-0.13485-0.14762-0.18354-0.54792-0.0386-0.54134-0.3095 0.041-0.002 0.002-0.0379 0.029-0.0534-0.0224-0.13369-0.0317-0.22218 0.006-0.335 0.0808-0.22218 0.15959-0.47798 0.14374-0.70208 0.0163-0.0842 0.1005-0.13447 0.18547-0.16731 0.16615-0.0417 0.31144-0.0641 0.4745-0.0858l0.0205 0.0166c0.37674-0.0309 0.8292-0.004 1.0792 0.29212 0.10813 0.2245 0.0236 0.49072-0.0371 0.71676-0.0189 0.13021-0.16152 0.23647-0.12828 0.37365 0.0495 0.0506 0.1534 0.0475 0.21948 0.0194 0.56876-0.34466 1.0653-0.82302 1.4795-1.306 0.38176-0.35741 0.94396-0.48105 1.461-0.40686 1.0475 0.0808 1.9328 0.43198 2.9092 0.67038z"/>
   <path id="path8588" d="m336.83 374.28c0.14761 0.19629-0.0499 0.3694-0.10863 0.54212-0.61475 0.9231-0.8292 1.9687-1.2372 2.9575-0.0305 0.034-0.0911 0.0444-0.13485 0.0309-0.10863-0.0776-0.10863-0.20556-0.0962-0.31763 0.0819-1.0719 0.36515-2.0776 0.82147-3.0359 0.10663-0.1534 0.28864-0.32727 0.52319-0.29096 0.0885 0.0185 0.16769 0.0495 0.23221 0.114z"/>
   <path id="path8594" d="m338.45 374.56c0.0785 0.35239-0.17426 0.64142-0.28631 0.95672-0.59814 1.194-1.3161 2.3624-1.6708 3.6387-0.0166 0.0406-0.0403 0.0955-0.0877 0.11325-0.0506 0.0139-0.0931-0.0113-0.10625-0.0471-0.11975-0.50733 0.0181-1.0352 0.14837-1.5174 0.3408-1.0715 0.75308-2.1677 1.3296-3.1642 0.0669-0.051 0.0773-0.0942 0.16074-0.11788 0.20053-0.0209 0.40146-0.006 0.51235 0.13795z"/>
   <path id="path8600" d="m340.18 374.62c0.16112 0.12138 0.078 0.35085 0.0147 0.49305-0.70093 1.5522-1.8362 2.8906-2.306 4.5185-0.12983 0.34505-0.21406 0.70169-0.32187 1.0494-0.019 0.0626-0.1105 0.0645-0.17581 0.0491-0.0623-0.1476-0.044-0.33501-0.044-0.49459 0.14799-1.308 0.46059-2.5788 1.0997-3.7175 0.29056-0.56877 0.57147-1.0804 0.87634-1.6356 0.0861-0.15688 0.23029-0.29908 0.43972-0.35046 0.15417-0.009 0.30254 0.027 0.4173 0.0881z"/>
   <path id="path8606" d="m342.1 374.7c0.11237 0.18818 0.004 0.39529-0.0471 0.57535-0.4459 1.2473-1.2797 2.2797-1.9494 3.4161-0.57341 0.93354-0.9486 1.9702-1.3304 2.9838-0.13215 0.30447-0.17968 0.64257-0.34003 0.93197-0.0131 0.0312-0.0541 0.0125-0.0822 0.0205-0.0985-0.0831-0.0858-0.20169-0.109-0.3068 0.0757-1.2689 0.56492-2.4154 1.0243-3.5606 0.57496-1.277 1.3458-2.4965 1.8698-3.8168 0.073-0.16653 0.21715-0.37055 0.43971-0.43315 0.22295-0.0336 0.39182 0.0468 0.52434 0.18973z"/>
  </g>
 </g>
</svg>
