<?xml version="1.0" encoding="UTF-8" ?>
<!DOCTYPE svg PUBLIC "-//W3C//DTD SVG 1.1//EN" "http://www.w3.org/Graphics/SVG/1.1/DTD/svg11.dtd">
<svg width="1000pt" height="423pt" viewBox="0 0 1000 423" version="1.1" xmlns="http://www.w3.org/2000/svg">
<g id="color_fdfdfdff">
</g>
<g id="color_757575ff">
<path fill="#757575" opacity="1.00" d=" M 497.28 87.44 C 502.71 85.82 509.04 86.86 513.31 90.71 C 516.93 94.08 518.47 99.12 518.49 103.97 C 518.51 151.64 518.50 199.31 518.50 246.98 C 518.24 254.12 519.75 262.13 515.33 268.34 C 510.93 274.75 501.69 276.44 494.91 273.06 C 489.38 270.31 486.42 263.97 486.49 257.98 C 486.51 208.67 486.49 159.35 486.50 110.04 C 486.56 105.64 486.04 101.07 487.60 96.86 C 489.15 92.46 492.78 88.78 497.28 87.44 Z" />
<path fill="#757575" opacity="1.00" d=" M 370.27 177.35 C 378.39 165.77 391.92 158.63 405.88 157.28 C 420.71 155.64 437.07 158.16 448.56 168.35 C 459.23 177.73 463.99 192.10 464.96 205.93 C 465.26 211.37 466.06 217.34 463.22 222.28 C 461.01 226.18 456.14 227.21 452.00 227.24 C 431.40 227.28 410.79 227.21 390.19 227.27 C 391.50 234.93 395.09 243.14 402.70 246.36 C 413.32 250.88 425.30 248.22 435.92 245.04 C 440.13 243.79 444.48 242.24 448.94 242.86 C 455.16 244.20 459.58 250.87 458.87 257.11 C 458.27 261.86 454.35 265.28 450.44 267.54 C 443.26 271.52 435.05 273.11 426.98 274.06 C 411.70 275.84 395.15 274.65 382.04 265.87 C 369.05 257.47 361.61 242.52 359.78 227.46 C 357.67 210.30 360.05 191.71 370.27 177.35 M 400.55 184.48 C 392.87 188.52 390.97 197.87 390.20 205.75 C 405.22 205.76 420.25 205.73 435.27 205.76 C 434.70 197.72 432.02 188.63 424.37 184.60 C 417.05 181.00 407.92 181.04 400.55 184.48 Z" />
<path fill="#757575" opacity="1.00" d=" M 246.20 158.13 C 251.71 156.58 258.23 157.51 262.36 161.70 C 265.86 165.14 267.26 170.15 267.24 174.94 C 267.27 192.64 267.23 210.33 267.25 228.02 C 267.21 234.40 269.82 241.20 275.39 244.72 C 280.29 247.90 286.40 248.19 292.05 247.53 C 296.90 246.92 301.74 244.65 304.56 240.53 C 307.74 236.03 308.19 230.33 308.25 224.99 C 308.26 207.65 308.24 190.31 308.25 172.98 C 308.30 166.94 311.94 160.88 317.67 158.66 C 323.90 156.15 331.94 157.34 336.30 162.75 C 339.70 166.66 340.36 172.05 340.27 177.05 C 340.16 193.01 340.39 208.98 340.16 224.95 C 339.83 238.61 336.13 253.22 325.73 262.76 C 314.58 273.04 298.59 275.53 283.96 274.96 C 270.48 274.50 256.15 270.45 246.97 260.01 C 238.55 250.49 235.39 237.43 235.25 224.99 C 235.27 207.65 235.22 190.31 235.27 172.98 C 235.35 166.41 239.79 159.97 246.20 158.13 Z" />
<path fill="#757575" opacity="1.00" d=" M 639.18 158.30 C 654.20 156.41 670.57 157.10 683.81 165.23 C 692.92 170.69 699.12 180.12 701.80 190.29 C 703.64 197.02 704.25 204.04 704.26 211.00 C 704.24 226.32 704.25 241.64 704.26 256.96 C 704.35 262.03 702.70 267.37 698.82 270.81 C 693.09 275.93 683.72 276.05 677.77 271.25 C 673.87 268.08 671.83 262.97 671.98 257.99 C 672.03 242.65 671.98 227.31 672.01 211.97 C 672.04 205.21 672.29 197.79 668.18 192.01 C 664.82 187.04 658.73 184.76 652.92 184.55 C 647.18 184.38 640.91 185.48 636.61 189.59 C 632.61 193.58 631.22 199.44 631.24 204.94 C 631.27 222.32 631.23 239.70 631.27 257.07 C 631.28 261.21 630.38 265.50 627.79 268.83 C 622.29 276.18 610.07 276.79 603.77 270.16 C 600.62 266.98 599.22 262.42 599.25 258.02 C 599.24 246.35 599.26 234.69 599.25 223.02 C 599.36 212.36 598.53 201.50 601.41 191.09 C 603.81 181.18 609.55 171.98 618.01 166.15 C 624.31 161.87 631.69 159.42 639.18 158.30 Z" />
<path fill="#757575" opacity="1.00" d=" M 742.86 170.89 C 753.78 161.29 768.65 157.12 783.00 157.47 C 797.06 157.49 811.40 160.37 823.72 167.34 C 829.39 170.42 833.64 176.39 833.50 183.01 C 833.50 216.02 833.49 249.04 833.51 282.06 C 833.30 297.00 828.51 312.85 816.83 322.84 C 805.10 332.94 789.03 335.90 773.97 335.70 C 762.39 335.21 750.72 332.29 740.75 326.26 C 737.15 323.95 733.75 321.07 731.66 317.29 C 727.84 310.24 732.28 300.18 740.14 298.41 C 745.92 297.51 751.34 300.34 756.54 302.45 C 763.60 305.56 771.30 307.32 779.04 307.04 C 785.64 307.03 792.72 305.38 797.51 300.56 C 801.96 295.93 803.32 289.25 803.27 283.03 C 803.25 277.27 803.22 271.52 803.26 265.76 C 794.22 273.71 781.53 275.62 769.89 274.87 C 757.70 274.12 745.74 268.68 737.76 259.32 C 726.53 246.45 723.21 228.54 724.12 211.92 C 724.90 196.57 731.00 181.02 742.86 170.89 M 776.54 184.81 C 771.65 185.65 766.89 187.81 763.44 191.43 C 757.13 198.27 755.70 208.04 755.71 216.99 C 755.84 225.04 756.47 233.79 761.46 240.47 C 766.19 246.62 774.59 248.02 781.89 247.45 C 788.87 247.11 795.76 243.31 798.97 236.95 C 804.97 225.57 802.84 212.31 803.26 199.97 C 803.04 196.30 804.36 191.56 800.69 189.18 C 793.85 184.14 784.67 183.60 776.54 184.81 Z" />
<path fill="#757575" opacity="1.00" d=" M 117.43 166.62 C 120.82 160.05 129.18 157.49 136.09 158.90 C 141.58 159.92 145.49 164.79 146.86 169.98 C 153.18 191.31 159.52 212.63 165.80 233.98 C 166.14 235.23 166.73 236.41 167.41 237.51 C 174.03 215.66 180.45 193.75 186.93 171.85 C 188.15 167.16 190.41 162.23 195.01 160.03 C 202.40 156.66 212.57 159.05 216.76 166.27 C 219.43 171.06 218.75 176.92 216.82 181.84 C 207.83 206.87 199.01 231.96 190.05 257.00 C 188.17 261.82 186.37 266.95 182.62 270.69 C 178.74 274.38 173.06 274.75 167.98 274.79 C 162.34 274.82 156.06 274.30 151.73 270.24 C 147.76 266.43 145.68 261.16 143.80 256.11 C 134.91 230.99 126.09 205.85 117.16 180.76 C 115.50 176.24 115.10 170.98 117.43 166.62 Z" />
<path fill="#757575" opacity="1.00" d=" M 553.41 159.66 C 560.14 156.99 568.69 159.02 572.79 165.18 C 575.23 168.59 575.79 172.92 575.77 177.01 C 575.73 203.68 575.75 230.36 575.76 257.03 C 575.75 261.49 574.64 266.15 571.60 269.54 C 565.84 276.34 554.06 276.53 548.06 269.96 C 545.18 266.73 543.71 262.38 543.74 258.08 C 543.75 230.39 543.76 202.69 543.74 175.00 C 543.57 168.60 547.28 161.97 553.41 159.66 Z" />
</g>
<g id="color_fbe666ff">
<path fill="#fbe666" opacity="1.00" d=" M 855.45 98.75 C 860.51 97.15 866.09 97.15 871.15 98.77 C 877.44 100.79 882.42 106.42 883.52 112.95 C 884.21 118.56 883.96 124.76 880.52 129.51 C 873.82 138.89 859.27 140.17 850.13 133.78 C 838.38 125.03 840.79 103.05 855.45 98.75 Z" />
</g>
</svg>