<?xml version="1.0" encoding="UTF-8" ?>
<!DOCTYPE svg PUBLIC "-//W3C//DTD SVG 1.1//EN" "http://www.w3.org/Graphics/SVG/1.1/DTD/svg11.dtd">
<svg version="1.1" width="1600pt" height="500pt" xmlns="http://www.w3.org/2000/svg" xmlns:xlink="http://www.w3.org/1999/xlink">
<g id="color_432129ff">
	<polygon fill="#432129" points="53.616,333.451 111.118,333.451 164.857,551.732 165.71,551.732 219.011,333.451 276.185,333.451
		198.334,638.883 131.861,638.883 	"/>
	<path fill="#432129" d="M303.595,431.571c0-75.269,39.801-102.358,96.428-102.358c56.715,0,96.494,27.088,96.494,102.358v109.184
		c0,75.291-39.779,102.336-96.494,102.336c-56.627,0-96.428-27.044-96.428-102.336V431.571z M362.038,548.347
		c0,33.871,14.748,43.105,37.985,43.105c23.303,0,38.094-9.234,38.094-43.105V423.912c0-33.784-14.791-43.083-38.094-43.083
		c-23.237,0-37.985,9.299-37.985,43.083V548.347z"/>
	<polygon fill="#432129" points="543.921,638.883 543.921,333.451 602.298,333.451 602.298,587.288 696.188,587.288 696.188,638.883
		"/>
	<path fill="#432129" d="M726.659,431.571c0-75.269,39.735-102.358,96.406-102.358c56.715,0,96.428,27.088,96.428,102.358v109.184
		c0,75.291-39.713,102.336-96.428,102.336c-56.671,0-96.406-27.044-96.406-102.336V431.571z M784.993,548.347
		c0,33.871,14.791,43.105,38.072,43.105c23.259,0,38.072-9.234,38.072-43.105V423.912c0-33.784-14.813-43.083-38.072-43.083
		c-23.281,0-38.072,9.299-38.072,43.083V548.347z"/>
	<polygon fill="#432129" points="1143.714,333.451 1143.714,385.002 1075.644,385.002 1075.644,638.883 1017.266,638.883
		1017.266,385.002 949.174,385.002 949.174,333.451 	"/>
	<polygon fill="#432129" points="1178.417,638.883 1178.417,333.451 1338.343,333.451 1338.343,385.002 1236.795,385.002
		1236.795,455.305 1314.23,455.305 1314.23,506.899 1236.795,506.899 1236.795,587.288 1342.544,587.288 1342.544,638.883 	"/>
	<polygon fill="#432129" points="1592.567,638.883 1535.021,638.883 1481.238,420.58 1480.472,420.58 1427.127,638.883
		1370.041,638.883 1447.892,333.451 1514.256,333.451 	"/>
	</g>
	<g id="color_ed164aff">
	<polygon fill="#ed164a" points="1895.775,404.434 1824.488,475.699 1753.157,404.434 1824.488,333.082 	"/>
	<polygon fill="#ed164a" points="1895.775,119.218 1824.488,190.527 1753.157,119.218 1824.488,47.909 	"/>
	<polygon fill="#ed164a" points="2038.384,261.806 1967.097,333.093 1895.766,261.806 1967.097,190.519 	"/>
	<polygon fill="#ed164a" points="1753.166,261.806 1681.879,333.093 1610.548,261.806 1681.879,190.519 	"/>
	<path fill="#ed164a" d="M1697.699,348.947v-31.683l-15.82,15.82L1697.699,348.947z M1713.562,364.789l15.863,15.842v-95.049
		l-15.863,15.863V364.789z M1745.267,269.761v126.754l7.899,7.921l7.899-7.921V269.761l-7.899-7.965L1745.267,269.761z
		 M1808.59,317.264v31.683l15.907-15.863L1808.59,317.264z M1776.928,380.63l15.863-15.842v-63.344l-15.863-15.863V380.63z"/>
	<path fill="#ed164a" d="M1840.308,206.318v-31.639l-15.863,15.863L1840.308,206.318z M1856.149,222.182l15.863,15.842v-95.071
		l-15.863,15.885V222.182z M1887.832,127.154v126.733l7.943,7.921l7.899-7.921V127.154l-7.899-7.943L1887.832,127.154z
		 M1951.199,174.679v31.639l15.863-15.776L1951.199,174.679z M1919.516,238.023l15.885-15.842v-63.344l-15.885-15.885V238.023z"/>
	<path fill="#ed164a" d="M1840.308,348.947v-31.683l-15.863,15.82L1840.308,348.947z M1856.149,364.789l15.863,15.842v-95.049
		l-15.863,15.863V364.789z M1887.832,269.761v126.754l7.943,7.921l7.899-7.921V269.761l-7.899-7.965L1887.832,269.761z
		 M1951.199,317.264v31.683l15.863-15.863L1951.199,317.264z M1919.516,380.63l15.885-15.842v-63.344l-15.885-15.863V380.63z"/>
	<path fill="#ed164a" d="M1697.699,206.318v-31.639l-15.82,15.863L1697.699,206.318z M1713.562,222.182l15.863,15.842v-95.071
		l-15.863,15.885V222.182z M1745.267,127.154v126.733l7.899,7.921l7.899-7.921V127.154l-7.899-7.943L1745.267,127.154z
		 M1808.59,174.679v31.639l15.907-15.776L1808.59,174.679z M1776.928,238.023l15.863-15.842v-63.344l-15.863-15.885V238.023z"/>
</g>
</svg>
