<?xml version="1.0" encoding="utf-8"?>
<!-- Generator: Adobe Illustrator 23.0.3, SVG Export Plug-In . SVG Version: 6.00 Build 0)  -->
<svg version="1.1" id="Layer_1" xmlns="http://www.w3.org/2000/svg" xmlns:xlink="http://www.w3.org/1999/xlink" x="0px" y="0px"
	 viewBox="0 0 128 35" width="128px" height="35px" style="enable-background:new 0 0 128 35;" xml:space="preserve">
<style type="text/css">
	.st0{fill:#422C88;}
	.st1{fill:#F37163;}
</style>
<g>
	<path class="st0" d="M3.37,24.97c0-0.34,0.13-0.61,0.4-0.88c0.34-0.2,0.81-0.34,1.28-0.34c0.67,0,1.41,0.2,2.16,0.54
		c0.2,0.07,0.34,0,0.4-0.2l0.67-1.55c0.07-0.07,0.07-0.14,0.07-0.2c0-0.07-0.07-0.13-0.14-0.13c-1.08-0.54-2.29-0.74-3.5-0.74
		c-1.42,0-2.49,0.34-3.3,1.01c-0.81,0.67-1.14,1.55-1.14,2.63c0,1.08,0.4,1.89,1.14,2.56c0.47,0.4,1.21,0.74,2.29,1.15
		c0.61,0.2,1.08,0.4,1.35,0.61c0.34,0.27,0.54,0.61,0.54,1.01c0,0.47-0.14,0.81-0.47,1.01c-0.34,0.27-0.74,0.34-1.35,0.34
		c-0.34,0-0.81-0.07-1.28-0.2c-0.54-0.14-0.94-0.27-1.28-0.47c-0.2-0.07-0.34,0-0.4,0.2L0,33.12v0.2c0.07,0.14,0.07,0.14,0.13,0.2
		c1.15,0.47,2.36,0.74,3.71,0.74c1.62,0,2.83-0.34,3.64-1.01c0.81-0.67,1.28-1.62,1.28-2.83c0-1.08-0.4-1.95-1.21-2.56
		c-0.47-0.34-1.21-0.74-2.36-1.15c-0.61-0.2-1.08-0.4-1.35-0.61C3.57,25.78,3.37,25.44,3.37,24.97 M31.93,24.3
		c1.01-0.34,1.89-0.47,2.56-0.47c0.74,0,1.28,0.13,1.62,0.34c0.4,0.27,0.54,0.67,0.54,1.28v0.61c-2.22,0.13-3.91,0.47-4.92,0.94
		c-1.48,0.67-2.22,1.75-2.22,3.3c0,1.28,0.47,2.22,1.42,2.9c0.88,0.67,2.29,1.01,4.11,1.01c1.14,0,2.36-0.2,3.57-0.54
		c0.34-0.07,0.54-0.27,0.74-0.54c0.2-0.27,0.27-0.54,0.27-0.88v-6c0-1.89-0.47-3.23-1.42-4.04c-0.74-0.61-1.95-0.94-3.5-0.88
		c-1.08,0-2.29,0.2-3.57,0.61c-0.2,0.07-0.27,0.2-0.2,0.4l0.61,1.62c0,0.07,0.07,0.14,0.13,0.2C31.87,24.3,31.93,24.3,31.93,24.3
		 M33.08,31.51c-0.4-0.34-0.61-0.74-0.61-1.35c0-0.81,0.4-1.41,1.28-1.68c0.54-0.2,1.55-0.34,2.96-0.4v3.77
		c-0.47,0.14-1.01,0.2-1.75,0.2C34.16,31.98,33.55,31.84,33.08,31.51 M26.61,22.55c-0.74-0.74-1.82-1.15-3.17-1.15
		c-0.81,0-1.62,0.13-2.43,0.4c-0.67,0.2-1.21,0.47-1.68,0.88c-0.88-0.88-2.16-1.28-3.91-1.28c-1.41,0-2.69,0.2-3.91,0.61
		c-0.47,0.2-0.67,0.54-0.67,0.94v10.64c0,0.2,0.07,0.27,0.27,0.27h2.49c0.2,0,0.27-0.07,0.27-0.27v-9.43
		c0.54-0.2,1.14-0.27,1.68-0.27c0.67,0,1.15,0.14,1.55,0.47c0.4,0.34,0.54,0.74,0.54,1.28v8.02c0,0.2,0.07,0.27,0.27,0.27h2.49
		c0.2,0,0.27-0.07,0.27-0.27v-9.09c0.47-0.4,1.08-0.61,1.82-0.61c0.61,0,1.08,0.14,1.41,0.47c0.34,0.34,0.54,0.81,0.54,1.42v7.88
		c0,0.2,0.14,0.27,0.34,0.27h2.56c0.2,0,0.27-0.07,0.27-0.27v-8.22C27.76,24.3,27.35,23.29,26.61,22.55 M50.86,18.57
		c-0.2,0-0.27,0.07-0.27,0.27v11.45c0,2.63,1.15,3.91,3.44,3.91c0.61,0,1.15-0.07,1.62-0.27c0.13-0.07,0.2-0.14,0.2-0.27v-1.95
		c0-0.07-0.07-0.13-0.14-0.2c-0.07-0.07-0.2-0.07-0.27-0.07c-0.13,0.07-0.27,0.07-0.54,0.07c-0.94,0-1.41-0.47-1.41-1.35V24.1h2.02
		c0.2,0,0.27-0.07,0.27-0.27v-1.68c0-0.2-0.07-0.34-0.27-0.34h-2.02v-2.9c0-0.2-0.07-0.27-0.27-0.27h-2.36 M48.44,23.83v-1.82
		c0.01-0.17-0.12-0.33-0.29-0.34c-0.01,0-0.03,0-0.04,0h-0.94c-1.29-0.02-2.54,0.49-3.44,1.41c-0.93,0.9-1.44,2.14-1.42,3.43v7.14
		c0,0.2,0.07,0.27,0.27,0.27h2.49c0.2,0,0.27-0.07,0.27-0.27v-6.8c0-1.62,0.94-2.49,2.83-2.76C48.37,24.16,48.44,24.03,48.44,23.83
		 M127.8,0.11c-0.15-0.12-0.36-0.15-0.54-0.07l-17.25,10.98c-0.13,0.06-0.21,0.2-0.2,0.34c0,0.14,0.07,0.27,0.13,0.41l11.72,9.57
		c0.13,0.14,0.34,0.14,0.47,0.14c0.14-0.07,0.27-0.14,0.27-0.34l2.02-7.54c0.07-0.27,0.07-0.54-0.13-0.81
		c-0.13-0.25-0.39-0.41-0.67-0.4l-6.94-0.88c-0.07,0-0.13-0.07-0.13-0.14c0-0.07,0.07-0.13,0.13-0.13l7.34-0.74
		c0.4,0,0.74-0.13,1.01-0.4c0.27-0.27,0.47-0.61,0.61-1.01L128,0.58C128,0.38,127.93,0.25,127.8,0.11"/>
	<path class="st1" d="M69.39,21.67c-0.13,0-0.2,0.07-0.2,0.14c-0.07,0.07-0.07,0.2-0.07,0.27l3.71,10.38
		c0.2,0.47,0.47,0.88,0.81,1.15c0.4,0.27,0.81,0.4,1.28,0.4h0.47c0.47,0,0.88-0.14,1.28-0.4c0.4-0.27,0.61-0.67,0.74-1.15
		l3.71-10.38c0.07-0.07,0-0.2,0-0.27c-0.07-0.14-0.14-0.14-0.27-0.14h-2.76c-0.13,0-0.2,0.07-0.27,0.27l-2.56,8.96l-2.69-8.96
		c-0.07-0.2-0.2-0.27-0.34-0.27H69.39 M62.45,23.83c0.74,0,1.35,0.13,1.62,0.34c0.4,0.27,0.54,0.67,0.54,1.28v0.61
		c-2.22,0.13-3.91,0.47-4.92,0.94c-1.48,0.67-2.15,1.75-2.15,3.3c0,2.63,1.82,3.97,5.52,3.97c1.15,0,2.29-0.2,3.5-0.54
		c0.34-0.07,0.54-0.27,0.74-0.54c0.2-0.27,0.27-0.54,0.27-0.88v-6c0-1.89-0.47-3.23-1.41-4.04c-0.81-0.54-1.95-0.88-3.5-0.81
		c-1.08,0-2.29,0.2-3.57,0.61c-0.07,0.07-0.14,0.07-0.2,0.13c-0.07,0.07,0,0.2,0,0.27l0.61,1.62c0.07,0.2,0.2,0.27,0.34,0.2
		C60.97,23.96,61.78,23.83,62.45,23.83 M60.36,30.16c0-0.81,0.4-1.42,1.28-1.68c0.61-0.2,1.55-0.34,2.96-0.4v3.77
		c-0.47,0.14-1.01,0.2-1.75,0.2c-0.81,0-1.41-0.13-1.82-0.47C60.63,31.17,60.36,30.77,60.36,30.16 M90.75,24.3
		c1.08-0.34,1.89-0.47,2.56-0.47c0.74,0,1.35,0.13,1.68,0.34c0.4,0.27,0.54,0.67,0.54,1.28v0.61c-2.22,0.13-3.91,0.47-4.99,0.94
		c-1.48,0.67-2.16,1.75-2.16,3.3c0,1.28,0.47,2.22,1.35,2.9c0.94,0.67,2.29,1.01,4.11,1.01c1.15,0,2.36-0.2,3.57-0.54
		c0.34-0.07,0.54-0.27,0.74-0.54c0.2-0.27,0.27-0.54,0.27-0.88v-6c0-1.89-0.47-3.23-1.41-4.04c-0.74-0.6-1.89-0.94-3.5-0.88
		c-1.08,0-2.29,0.2-3.57,0.61c-0.07,0.07-0.14,0.07-0.2,0.13c-0.07,0.07,0,0.2,0,0.27l0.61,1.62c0,0.07,0.07,0.13,0.13,0.2
		C90.61,24.3,90.68,24.3,90.75,24.3 M95.53,31.78c-0.47,0.13-1.08,0.2-1.75,0.2c-0.81,0-1.42-0.14-1.82-0.47
		c-0.47-0.34-0.67-0.74-0.67-1.35c0-0.81,0.4-1.42,1.28-1.68c0.61-0.2,1.55-0.34,2.96-0.4V31.78 M86.16,22.01
		c0-0.2-0.07-0.34-0.27-0.34H83.4c-0.2,0-0.27,0.14-0.27,0.34v11.66c0,0.2,0.07,0.27,0.27,0.27h2.49c0.2,0,0.27-0.07,0.27-0.27
		V22.01 M85.83,16.96c-0.34-0.34-0.74-0.47-1.21-0.47c-0.47,0-0.94,0.14-1.28,0.47c-0.32,0.29-0.49,0.71-0.47,1.15
		c-0.02,0.43,0.15,0.85,0.47,1.15c0.34,0.34,0.81,0.47,1.28,0.47c0.47,0,0.88-0.14,1.21-0.47c0.34-0.34,0.54-0.74,0.54-1.15
		C86.37,17.63,86.23,17.22,85.83,16.96 M106.85,20.46c-0.07,0.27-0.07,0.54,0.13,0.81c0.13,0.25,0.39,0.41,0.67,0.4l6.94,0.88
		c0.07,0,0.13,0.07,0.13,0.14c0,0.07-0.07,0.14-0.13,0.14l-7.34,0.74c-0.4,0.07-0.74,0.2-1.01,0.4c-0.27,0.27-0.47,0.54-0.61,0.94
		l-2.29,8.56c-0.07,0.2,0,0.34,0.2,0.47c0.14,0.13,0.34,0.13,0.54,0l17.18-10.85c0.13-0.06,0.21-0.2,0.2-0.34
		c0-0.14-0.07-0.27-0.2-0.4l-11.72-9.57c-0.13-0.13-0.27-0.13-0.4-0.13c-0.13,0.07-0.27,0.13-0.27,0.34L106.85,20.46z"/>
</g>
</svg>
