<?xml version="1.0" encoding="utf-8"?>
<!-- Generator: Adobe Illustrator 13.0.0, SVG Export Plug-In . SVG Version: 6.00 Build 14948)  -->
<!DOCTYPE svg PUBLIC "-//W3C//DTD SVG 1.1//EN" "http://www.w3.org/Graphics/SVG/1.1/DTD/svg11.dtd">
<svg version="1.1" id="Layer_2" xmlns="http://www.w3.org/2000/svg" xmlns:xlink="http://www.w3.org/1999/xlink" x="0px" y="0px"
	 width="281.578px" height="56.449px" viewBox="0 0 281.578 56.449" enable-background="new 0 0 281.578 56.449"
	 xml:space="preserve">
<path fill="#161482" d="M274.561,14.004h-2.086V8.691c0-2.762-2.24-5-5-5c-2.764,0-5,2.238-5,5v5.313h-2.127
	c-2.762,0-5.002,2.238-5.002,5c0,2.761,2.24,4.998,5.002,4.998h2.127v22.916c0,2.763,2.236,5,5,5c2.76,0,5-2.237,5-5V24.002h2.086
	c2.762,0,5-2.237,5-4.998C279.561,16.242,277.32,14.004,274.561,14.004z"/>
<path fill="#161482" d="M63.737,46.917V18.494c0-2.762,2.238-5.001,5-5.001l0,0c2.762,0,5.001,2.24,5.001,5.001l0,0v28.423
	c0,2.763-2.24,5.002-5.001,5.002l0,0C65.975,51.919,63.737,49.68,63.737,46.917L63.737,46.917z"/>
<path fill="#161482" d="M133.166,14.002h-2.087V8.691c0-2.762-2.238-5-5-5c-2.762,0-5,2.238-5,5v5.312h-2.125
	c-2.763,0-5,2.239-5,5.001c0,2.761,2.236,5,5,5h2.125v22.914c0,2.763,2.238,5.002,5,5.002c2.762,0,5-2.239,5-5.002V24.004h2.087
	c2.763,0,5.001-2.239,5.001-5C138.167,16.241,135.929,14.002,133.166,14.002z"/>
<path fill="#161482" d="M108.027,16.17c-2.801-2.075-6.383-3.397-10.373-3.411c-3.779-0.014-6.947,1.141-9.486,2.753
	c-0.912-1.219-2.354-2.02-3.994-2.02c-2.762,0-5,2.24-5,5.001v28.424c0,2.762,2.238,5,5,5c2.762,0,5.001-2.238,5.001-5V25.217
	c0.078-0.101,0.15-0.204,0.233-0.302c1.64-1.91,5.242-2.126,8.245-2.155c1.65-0.017,3.335,0.623,4.393,1.427
	c0.53,0.39,0.885,0.806,1.04,1.062c0.057,0.093,0.09,0.162,0.105,0.2c0,3.875,0,21.224,0,21.224c0,2.763,2.238,5.002,5,5.002
	c2.761,0,5.001-2.239,5.001-5.002c0,0,0-17.645,0-21.319C113.105,21.215,110.758,18.249,108.027,16.17z"/>
<path fill="#161482" d="M166.842,40.027c-0.002,0-0.441,0.213-1.229,0.564c-1.176,0.525-3.063,1.324-4.93,1.957
	c-1.834,0.646-3.791,1.062-4.379,1.027c-1.144,0.031-3.84-0.549-5.715-2.059c-1.475-1.213-2.763-2.766-3.285-5.691h21.25
	c0.129,0,0.254-0.023,0.379-0.037c0.125,0.01,0.244,0.037,0.371,0.037c2.483,0,4.5-2.017,4.5-4.5
	c-0.02-5.183-2.356-9.694-5.529-12.956c-3.202-3.238-7.33-5.492-11.971-5.544c-3.904,0.004-8.435,1.195-12.147,4.541
	c-3.731,3.338-6.145,8.768-6.101,15.708c-0.072,7.194,3.094,12.604,7.026,15.557c3.936,2.992,8.116,3.91,11.225,3.941
	c3.416-0.064,6.608-1.246,9.461-2.3c2.782-1.073,4.931-2.116,5-2.149c2.236-1.086,3.172-3.775,2.088-6.013
	C171.77,39.876,169.078,38.943,166.842,40.027z M150.202,24.035c1.661-1.528,4.006-2.211,6.104-2.208
	c1.357-0.051,3.73,0.944,5.526,2.829c1.179,1.202,2.074,2.663,2.562,4.171h-16.867C148.096,26.491,149.105,25.06,150.202,24.035z"/>
<path fill="#161482" d="M249.217,40.027c-0.002,0-0.441,0.213-1.229,0.564c-1.176,0.525-3.063,1.324-4.93,1.957
	c-1.834,0.646-3.791,1.062-4.379,1.027c-1.144,0.031-3.84-0.549-5.715-2.059c-1.475-1.213-2.763-2.766-3.285-5.691h21.25
	c0.129,0,0.254-0.023,0.379-0.037c0.125,0.01,0.244,0.037,0.371,0.037c2.483,0,4.5-2.017,4.5-4.5
	c-0.02-5.183-2.356-9.694-5.529-12.956c-3.202-3.238-7.33-5.492-11.971-5.544c-3.904,0.004-8.435,1.195-12.147,4.541
	c-3.731,3.338-6.146,8.768-6.103,15.708c-0.072,7.194,3.096,12.604,7.026,15.557c3.937,2.992,8.116,3.91,11.224,3.941
	c3.418-0.064,6.609-1.246,9.461-2.3c2.783-1.073,4.932-2.116,5.002-2.149c2.235-1.086,3.17-3.775,2.086-6.013
	C254.145,39.876,251.453,38.943,249.217,40.027z M232.577,24.035c1.662-1.528,4.006-2.211,6.104-2.208
	c1.357-0.051,3.73,0.944,5.526,2.829c1.179,1.202,2.074,2.663,2.562,4.171h-16.867C230.471,26.491,231.48,25.06,232.577,24.035z"/>
<path fill="#161482" d="M194.034,14.206c-4.074,0-4.974,1.974-6.013,3.119c-0.227,0.248-0.433,0.515-0.621,0.779
	c-0.201-2.576-2.334-4.608-4.961-4.608c-2.762,0-5,2.237-5,4.999v28.426c0,2.761,2.238,4.998,5,4.998s5-2.237,5-4.998v-18.53
	c1.33-1.272,3.27-3.019,4.856-4.007c2.636-1.641,6.462-1.094,6.462-5.319C198.759,14.889,196.971,14.206,194.034,14.206z"/>
<path fill="#161482" d="M218.066,18.494c0-2.763-2.24-5-5.002-5c-2.763,0-5,2.238-5,5v22.958c0,0.139,0.029,0.27,0.041,0.405
	c-0.19,1.112-0.703,2.267-2.057,2.267c-1.932,0-3.391-0.896-3.956-1.414c-0.565-0.518-3.485-1.555-4.663,0.047
	c-1.177,1.603-1.443,3.968,1.084,6.265c1.555,1.413,4.944,3.203,7.864,3.203c4.487,0,10.854-3.481,11.562-9.688
	c0.078-0.351,0.127-0.711,0.127-1.084V18.494z"/>
<path fill="#7D98CF" d="M47.929,24.202H33.797l9.993-9.993c1.17-1.172,1.17-3.071,0-4.243c-1.17-1.171-3.071-1.171-4.241,0
	l-9.994,9.993V5.826c0-1.656-1.343-2.999-2.999-2.999c-1.658,0-3.001,1.343-3.001,2.999v14.131l-9.992-9.993
	c-1.172-1.171-3.073-1.171-4.243,0c-1.171,1.172-1.171,3.073,0,4.243l9.992,9.993H5.181c-1.658,0-3.001,1.343-3.001,2.999
	c0,1.658,1.343,3.001,3.001,3.001h14.131l-9.994,9.992c-1.17,1.172-1.17,3.071,0,4.243c0.585,0.586,1.353,0.878,2.121,0.878
	s1.536-0.292,2.123-0.878l9.993-9.993v14.133c0,1.656,1.343,3.002,3.001,3.002c1.656,0,2.999-1.346,2.999-3.002V34.444l9.992,9.993
	c0.586,0.586,1.354,0.878,2.122,0.878s1.535-0.292,2.122-0.878c1.17-1.172,1.17-3.072,0-4.243l-9.992-9.993l14.13,0.002
	c1.658,0,3.001-1.346,3.001-3.001C50.931,25.545,49.587,24.202,47.929,24.202z"/>
<path fill="#121586" d="M43.865,24.084h-9.563l5.908-5.907c1.17-1.172,1.17-3.07,0-4.242c-1.172-1.172-3.071-1.172-4.242,0h-0.002
	l-10.15,10.148H9.208c-1.658,0-2.999,1.343-2.999,2.999c0,1.656,1.341,3.001,2.999,3.001h16.175l10.847,10.85
	c0.586,0.585,1.354,0.878,2.123,0.878c0.768,0,1.534-0.292,2.119-0.878c1.172-1.174,1.172-3.071,0.002-4.242l-6.606-6.605h9.997
	c1.658,0,3.001-1.346,3.001-3.001C46.866,25.427,45.523,24.084,43.865,24.084z"/>
</svg>
