<?xml version="1.0" encoding="UTF-8"?>
<svg width="190px" height="22px" viewBox="0 0 190 22" version="1.1" xmlns="http://www.w3.org/2000/svg" xmlns:xlink="http://www.w3.org/1999/xlink">
    <!-- Generator: Sketch 60 (88103) - https://sketch.com -->
    <title>Logo-Desktop</title>
    <desc>Created with Sketch.</desc>
    <defs>
        <path d="M0.19121313,6.6639323 L0.19121313,0.734324658 C0.19121313,0.330062302 0.555902938,0 0.999995344,0 L4.18312604,0 C4.62721845,0 4.99120557,0.330062302 4.99120557,0.734324658 L4.99120557,2.49017935 C5.01228591,2.85862098 5.34324718,3.14966429 5.75290838,3.14966429 L16.616308,3.14966429 C20.0053234,3.14966429 21.5399718,6.54047876 20.3053669,8.94622356 C19.940677,9.64792579 14.168881,20.8169527 14.168881,20.8169527 C14.0262374,21.0907253 13.8154341,21.2097012 13.431772,21.2097012 L9.5283965,21.2097012 C8.52216182,21.2097012 8.32049326,20.7395544 8.66269739,20.0819883 C8.66269739,20.0819883 14.6987001,8.40187663 14.8062099,8.19526786 C15.065498,7.70081407 14.539895,7.39825696 14.0262374,7.39825696 L0.99788731,7.39825696 C0.555902938,7.39825696 0.19121313,7.06819466 0.19121313,6.6639323 Z M31.9329213,21.209701 L18.626464,21.209701 C17.658525,21.209701 17.4699392,20.7329032 17.7950639,20.0666836 C17.7950639,20.0666836 18.9948486,17.6191215 19.1435544,17.3142304 C19.2868526,17.0190699 19.4517808,16.8666243 19.9350742,16.8666243 L27.2878957,16.8666243 C27.2878957,16.8666243 24.2894478,4.15331346 24.1948169,3.74981926 C24.0880192,3.29572611 24.4733022,2.8922319 24.9606513,2.8922319 L28.4552355,2.8922319 C28.7972586,2.8922319 29.189977,3.10825051 29.2575704,3.40211364 C29.3163768,3.65445969 32.2850835,16.4196668 32.3411861,16.6544979 C32.477725,17.2324936 32.6764499,17.2824439 32.9468239,16.6856357 C33.0198249,16.5221622 38.856524,3.54936957 38.9673773,3.29702351 C39.0782307,3.0505158 39.3181876,2.8922319 39.6345253,2.8922319 L43.6441719,2.8922319 C44.1720772,2.8922319 44.5201837,3.49487839 44.257921,4.06768446 C44.0226956,4.57821491 38.3347021,16.8030513 38.1751815,17.1494594 C36.5995769,20.5000182 34.891489,21.209701 31.9329213,21.209701 Z M75.153842,6.6639323 L75.153842,0.734324658 C75.153842,0.330062302 75.5136136,0 75.9619227,0 L79.1429499,0 C79.5891509,0 79.9517333,0.330062302 79.9517333,0.734324658 L79.9517333,2.49017935 C79.9714082,2.85862098 80.3037754,3.14966429 80.7148425,3.14966429 L91.5789602,3.14966429 C94.9651695,3.14966429 96.5026308,6.54047876 95.2687268,8.94622356 C94.9033338,9.64792579 89.1280164,20.8156734 89.1280164,20.8156734 C88.9867779,21.0907253 88.7766768,21.2097012 88.3902035,21.2097012 L84.4903359,21.2097012 C83.4826945,21.2097012 83.282431,20.7395544 83.6225276,20.0819883 C83.6225276,20.0819883 89.6592415,8.40187663 89.7681567,8.19526786 C90.0253372,7.70081407 89.5032468,7.39825696 88.9902912,7.39825696 L75.9619227,7.39825696 C75.5136136,7.39825696 75.153842,7.06819466 75.153842,6.6639323 Z M116.620034,5.90741043 C116.100854,6.96155525 111.107324,17.1676232 111.107324,17.1676232 C111.107324,17.1676232 112.863133,20.1082007 112.995313,20.3326525 C113.297827,20.8373446 113.241276,21.209701 112.414131,21.209701 L108.858906,21.209701 C108.300209,21.209701 107.967034,21.0092512 107.749687,20.6472741 C107.64408,20.4695291 102.42707,11.7282359 102.42707,11.7282359 C102.42707,11.7282359 99.4060149,17.8487629 99.1389303,18.3897824 C98.756018,19.1604434 97.9840613,20.1127416 96.9838563,20.6323539 C96.0306636,21.130559 95.1592316,21.209701 93.6902657,21.209701 L93.5165243,21.209701 C92.4495481,21.209701 92.5428915,20.6816554 92.7207208,20.3203271 C92.8345043,20.0926318 99.4407633,6.72283199 99.4407633,6.72283199 C99.4407633,6.72283199 97.7346915,3.86463996 97.6209079,3.67586694 C97.2938653,3.12965776 97.6209079,2.8922319 98.1680227,2.8922319 L101.565177,2.8922319 C102.259461,2.8922319 102.764333,3.19128468 103.073661,3.70830217 C103.278743,4.05276426 108.098533,12.1323788 108.098533,12.1323788 C108.098533,12.1323788 112.33237,3.48774264 112.430483,3.28340072 C112.56607,3.01224224 112.822934,2.8922319 113.190176,2.8922319 L116.09881,2.8922319 C117.111961,2.8922319 117.834861,3.43390016 116.620034,5.90741043 Z" id="path-1"></path>
        <path d="M88.6786895,5.02635776 C88.6786895,4.63716264 88.3316493,4.32126595 87.9046328,4.32126595 L85.6767204,4.32126595 C85.2011468,4.32126595 84.9655022,4.44970034 84.8441097,4.68905533 C84.7748444,4.82138166 81.4586825,11.2307765 81.4586825,11.2307765 L87.9046328,11.2307765 C88.3159397,11.2307765 88.6515548,10.9395288 88.6772614,10.5717394 L88.6786895,5.02635776 Z M93.4465648,17.8432024 C93.4465648,18.2700197 93.0638209,18.6177008 92.5925318,18.6177008 L89.364201,18.6177008 C88.89434,18.6177008 88.5115961,18.2700197 88.5115961,17.8432024 L88.5115961,15.290731 L79.3571613,15.290731 L78.2274956,17.4708723 C77.7619189,18.3712105 77.4005972,18.6177008 76.6429643,18.6177008 L73.9430487,18.6177008 C72.9233504,18.6177008 72.7176969,18.1350987 73.0654511,17.4663318 L80.5232449,2.92729886 C81.367995,1.28813868 83.0682064,0.300231695 84.7312859,0.300231695 L92.5925318,0.301529017 C93.0638209,0.301529017 93.4465648,0.649209997 93.4465648,1.07602734 L93.4465648,17.8432024 Z M-7.10542736e-15,17.8723657 L-7.10542736e-15,5.08620402 C-7.10542736e-15,2.48239636 2.27265916,0.36445117 5.10178664,0.300231695 L19.5139617,0.300231695 C19.9662251,0.300231695 20.3298789,0.633654004 20.3298789,1.04816151 L20.3298789,4.1209659 C20.3298789,4.39211479 20.0881519,4.61331519 19.7897147,4.61331519 L5.93471692,4.61331519 C5.50868194,4.61331519 5.16629442,4.92857441 5.16629442,5.31778333 L5.16629442,6.73904456 C5.16629442,7.12111798 5.49379552,7.43053906 5.90919736,7.44156665 L18.4832547,7.44156665 C18.9064542,7.44156665 19.2509684,7.75747456 19.2509684,8.14473743 L19.2509684,10.7654108 C19.2509684,11.1565658 18.9064542,11.467933 18.4832547,11.467933 L5.93471692,11.467933 C5.50868194,11.467933 5.16629442,11.7857868 5.16629442,12.172401 L5.16629442,13.5754992 C5.16629442,13.960816 5.50868194,14.2747778 5.93471692,14.2747778 L20.1200514,14.2780213 C20.4886674,14.2780213 20.6318605,14.39673 20.4744898,14.7022591 C19.8279942,15.9321591 19.374313,16.7987977 18.8681749,17.7685767 C18.4782926,18.5158577 18.1373229,18.6177008 17.7864288,18.6177008 L0.815917244,18.6177008 C0.362944943,18.6177008 -7.10542736e-15,18.2836298 -7.10542736e-15,17.8723657 Z M22.5914772,17.8723657 L22.5914772,1.04816151 C22.5914772,0.633654004 22.9649935,0.300231695 23.4191144,0.300231695 L26.5576589,0.300231695 C27.0146586,0.300231695 27.3860157,0.633654004 27.3860157,1.04816151 L27.3860157,13.6092306 C27.4054473,13.9796278 27.7436991,14.2747778 28.1654342,14.2747778 L41.6746332,14.2747778 C42.0531873,14.2747778 42.1978438,14.39673 42.0380738,14.7022591 L40.4094277,17.7685767 C40.0085635,18.5158577 39.6645542,18.6177008 39.3126284,18.6177008 L23.4191144,18.6177008 C22.9621147,18.6177008 22.5914772,18.2836298 22.5914772,17.8723657 Z M96.5272208,17.8723657 L96.5272208,1.04816151 C96.5272208,0.633654004 96.8950597,0.300231695 97.3535985,0.300231695 L100.491386,0.300231695 C100.949206,0.300231695 101.319924,0.633654004 101.319924,1.04816151 L101.319924,13.6092306 C101.339359,13.9796278 101.682724,14.2747778 102.100232,14.2747778 L115.613811,14.2747778 C115.988848,14.2747778 116.133536,14.39673 115.973732,14.7022591 L114.344011,17.7685767 C113.945939,18.5158577 113.600415,18.6177008 113.245533,18.6177008 L97.3535985,18.6177008 C96.8950597,18.6177008 96.5272208,18.2836298 96.5272208,17.8723657 Z" id="path-3"></path>
        <path d="M2.76422987,14.4611595 L32.2424961,14.4611595 C32.7778397,14.4611595 33.0094326,14.9169182 32.759972,15.4785166 L31.5174799,18.2649085 C31.2693937,18.8272269 30.6357776,19.2815456 30.0969978,19.2815456 L0.617357198,19.2815456 C0.0847623439,19.2815456 -0.148892173,18.8272269 0.0991939464,18.2649085 L1.34237342,15.4785166 C1.59114676,14.9169182 2.22751171,14.4611595 2.76422987,14.4611595 Z M9.9498059,-4.89698357e-15 L39.4320193,-4.89698357e-15 C39.9660351,-4.89698357e-15 40.1969609,0.451122994 39.9488531,1.01250448 L38.7083143,3.8057197 C38.4581447,4.36782184 37.821037,4.82038612 37.284272,4.82038612 L7.80480769,4.82038612 C7.2707918,4.82038612 7.03780417,4.36782184 7.29003562,3.8057197 L8.52919991,1.01250448 C8.77868224,0.451122994 9.41235361,-4.89698357e-15 9.9498059,-4.89698357e-15 Z M20.64823,6.12824241 L21.1914408,7.53001268 L23.236064,7.53001268 C23.6717357,7.53001268 23.7675558,7.86019847 23.3532542,8.32880568 L22.0655415,9.78054272 L22.5922076,11.1445003 C22.7107765,11.4517284 22.7480016,11.7819142 22.0007421,11.7819142 L20.2918342,11.7819142 L19.001364,13.2343264 C18.6801252,13.5935469 18.5712073,13.6002992 18.3981795,13.1560002 L17.8646197,11.7819142 L15.7882862,11.7819142 C15.3491679,11.7819142 15.2547264,11.4483523 15.6669599,10.9804203 L16.9801788,9.49897326 L16.4645423,8.16269995 C16.3452841,7.86019847 16.3108163,7.53001268 17.0539396,7.53001268 L18.7290693,7.53001268 L20.0429775,6.04856567 C20.3642164,5.68799471 20.4724449,5.67989199 20.64823,6.12824241 Z" id="path-5"></path>
    </defs>
    <g id="Page-1" stroke="none" stroke-width="1" fill="none" fill-rule="evenodd">
        <g id="Logo-Desktop">
            <g id="Atoms/Logo/On-White/Logo">
                <g id="Group-2">
                    <g id="El-Al-Hebrew" transform="translate(33.696003, 0.000000)">
                        <g id="Atoms/Colors/Black-Clipped">
                            <mask id="mask-2" fill="white">
                                <use xlink:href="#path-1"></use>
                            </mask>
                            <g id="path-3"></g>
                            <g id="Atoms/Colors/Black" mask="url(#mask-2)">
                                <g transform="translate(-33.696003, 0.000000)" id="Rectangle">
                                    <g>
                                        <rect fill="#978A76" fill-rule="nonzero" x="0" y="0" width="189.216015" height="22.6274611"></rect>
                                    </g>
                                </g>
                            </g>
                        </g>
                    </g>
                    <g id="El-Al-English" transform="translate(0.000000, 2.592000)">
                        <g id="Mask" fill="#00003C" fill-rule="nonzero">
                            <path d="M88.6786895,5.02635776 C88.6786895,4.63716264 88.3316493,4.32126595 87.9046328,4.32126595 L85.6767204,4.32126595 C85.2011468,4.32126595 84.9655022,4.44970034 84.8441097,4.68905533 C84.7748444,4.82138166 81.4586825,11.2307765 81.4586825,11.2307765 L87.9046328,11.2307765 C88.3159397,11.2307765 88.6515548,10.9395288 88.6772614,10.5717394 L88.6786895,5.02635776 Z M93.4465648,17.8432024 C93.4465648,18.2700197 93.0638209,18.6177008 92.5925318,18.6177008 L89.364201,18.6177008 C88.89434,18.6177008 88.5115961,18.2700197 88.5115961,17.8432024 L88.5115961,15.290731 L79.3571613,15.290731 L78.2274956,17.4708723 C77.7619189,18.3712105 77.4005972,18.6177008 76.6429643,18.6177008 L73.9430487,18.6177008 C72.9233504,18.6177008 72.7176969,18.1350987 73.0654511,17.4663318 L80.5232449,2.92729886 C81.367995,1.28813868 83.0682064,0.300231695 84.7312859,0.300231695 L92.5925318,0.301529017 C93.0638209,0.301529017 93.4465648,0.649209997 93.4465648,1.07602734 L93.4465648,17.8432024 Z M-7.10542736e-15,17.8723657 L-7.10542736e-15,5.08620402 C-7.10542736e-15,2.48239636 2.27265916,0.36445117 5.10178664,0.300231695 L19.5139617,0.300231695 C19.9662251,0.300231695 20.3298789,0.633654004 20.3298789,1.04816151 L20.3298789,4.1209659 C20.3298789,4.39211479 20.0881519,4.61331519 19.7897147,4.61331519 L5.93471692,4.61331519 C5.50868194,4.61331519 5.16629442,4.92857441 5.16629442,5.31778333 L5.16629442,6.73904456 C5.16629442,7.12111798 5.49379552,7.43053906 5.90919736,7.44156665 L18.4832547,7.44156665 C18.9064542,7.44156665 19.2509684,7.75747456 19.2509684,8.14473743 L19.2509684,10.7654108 C19.2509684,11.1565658 18.9064542,11.467933 18.4832547,11.467933 L5.93471692,11.467933 C5.50868194,11.467933 5.16629442,11.7857868 5.16629442,12.172401 L5.16629442,13.5754992 C5.16629442,13.960816 5.50868194,14.2747778 5.93471692,14.2747778 L20.1200514,14.2780213 C20.4886674,14.2780213 20.6318605,14.39673 20.4744898,14.7022591 C19.8279942,15.9321591 19.374313,16.7987977 18.8681749,17.7685767 C18.4782926,18.5158577 18.1373229,18.6177008 17.7864288,18.6177008 L0.815917244,18.6177008 C0.362944943,18.6177008 -7.10542736e-15,18.2836298 -7.10542736e-15,17.8723657 Z M22.5914772,17.8723657 L22.5914772,1.04816151 C22.5914772,0.633654004 22.9649935,0.300231695 23.4191144,0.300231695 L26.5576589,0.300231695 C27.0146586,0.300231695 27.3860157,0.633654004 27.3860157,1.04816151 L27.3860157,13.6092306 C27.4054473,13.9796278 27.7436991,14.2747778 28.1654342,14.2747778 L41.6746332,14.2747778 C42.0531873,14.2747778 42.1978438,14.39673 42.0380738,14.7022591 L40.4094277,17.7685767 C40.0085635,18.5158577 39.6645542,18.6177008 39.3126284,18.6177008 L23.4191144,18.6177008 C22.9621147,18.6177008 22.5914772,18.2836298 22.5914772,17.8723657 Z M96.5272208,17.8723657 L96.5272208,1.04816151 C96.5272208,0.633654004 96.8950597,0.300231695 97.3535985,0.300231695 L100.491386,0.300231695 C100.949206,0.300231695 101.319924,0.633654004 101.319924,1.04816151 L101.319924,13.6092306 C101.339359,13.9796278 101.682724,14.2747778 102.100232,14.2747778 L115.613811,14.2747778 C115.988848,14.2747778 116.133536,14.39673 115.973732,14.7022591 L114.344011,17.7685767 C113.945939,18.5158577 113.600415,18.6177008 113.245533,18.6177008 L97.3535985,18.6177008 C96.8950597,18.6177008 96.5272208,18.2836298 96.5272208,17.8723657 Z" id="path-5"></path>
                        </g>
                        <g id="Atoms/Colors/Black-Clipped">
                            <mask id="mask-4" fill="white">
                                <use xlink:href="#path-3"></use>
                            </mask>
                            <g id="path-5"></g>
                            <g id="Atoms/Colors/Black" mask="url(#mask-4)" fill="#00003C" fill-rule="nonzero">
                                <g transform="translate(0.000000, -2.592000)" id="Rectangle">
                                    <rect x="0" y="0" width="189.216015" height="22.6274611"></rect>
                                </g>
                            </g>
                        </g>
                    </g>
                    <g id="Atoms/Logo/On-White/Icon-Only" transform="translate(149.040012, 2.381838)">
                        <g id="Atoms/Colors/Black">
                            <g id="Rectangle-Clipped">
                                <mask id="mask-6" fill="white">
                                    <use xlink:href="#path-5"></use>
                                </mask>
                                <g id="path-7"></g>
                                <g id="Rectangle" mask="url(#mask-6)" fill="#00003C" fill-rule="nonzero">
                                    <rect x="0" y="0" width="40.1760032" height="20.2456226"></rect>
                                </g>
                            </g>
                        </g>
                    </g>
                </g>
            </g>
        </g>
    </g>
</svg>