<?xml version="1.0" encoding="UTF-8"?>
<!DOCTYPE svg PUBLIC "-//W3C//DTD SVG 1.1//EN" "http://www.w3.org/Graphics/SVG/1.1/DTD/svg11.dtd">
<!-- Creator: CorelDRAW X6 -->
<svg xmlns="http://www.w3.org/2000/svg" xml:space="preserve" width="150mm" height="100mm" version="1.1" style="shape-rendering:geometricPrecision; text-rendering:geometricPrecision; image-rendering:optimizeQuality; fill-rule:evenodd; clip-rule:evenodd"
viewBox="0 0 15000 10000"
 xmlns:xlink="http://www.w3.org/1999/xlink">
 <defs>
  <style type="text/css">
   <![CDATA[
    .fil3 {fill:#2B2A29}
    .fil2 {fill:#014282}
    .fil0 {fill:#C7AB73}
    .fil1 {fill:url(#id0)}
   ]]>
  </style>
  <linearGradient id="id0" gradientUnits="userSpaceOnUse" x1="6725.9" y1="3988.04" x2="9427.18" y2="3988.04">
   <stop offset="0" style="stop-color:#3B80BF"/>
   <stop offset="1" style="stop-color:#025BAC"/>
  </linearGradient>
 </defs>
 <g id="Слой_x0020_1">
  <metadata id="CorelCorpID_0Corel-Layer"/>
  <g id="_888941376">
   <g>
    <path class="fil0" d="M9424 5667c-30,21 -66,33 -105,33l-3137 0c-171,0 -318,105 -378,255 -233,39 -384,271 -307,496 115,-114 330,-113 445,1l938 938c53,52 125,85 205,85l710 0 -700 -700c47,0 90,19 120,50l649 650 900 0 -699 -700 163 0c57,0 108,-23 146,-59l1049 -1049zm-3210 263c-54,54 -115,115 -169,169l81 1c22,0 43,-1 62,-11 71,-37 67,-123 26,-160z"/>
    <path class="fil1" d="M9198 5566c159,-11 229,-206 118,-316l-2308 -2308c-174,-169 -282,-403 -282,-665l0 869c0,260 106,495 278,664l1657 1657c-45,0 -86,-18 -116,-48l-1549 -1549c-125,-112 -219,-256 -270,-420l0 520c0,258 108,492 276,661l836 836c-45,0 -86,-18 -116,-48l-764 -764c-107,-107 -188,-239 -233,-387l0 520c0,273 117,519 304,689l224 224 1944 -133z"/>
    <path class="fil2" d="M7254 5700l2067 0c65,0 133,-39 164,-102 33,-67 26,-153 -35,-214 -61,-61 -134,-134 -134,-134 111,111 41,305 -118,316l-1944 133z"/>
   </g>
   <g>
    <polygon class="fil3" points="4949,6474 4819,6474 4819,5720 4949,5720 "/>
    <polygon class="fil3" points="5241,6069 5110,6069 5110,5938 5241,5938 "/>
    <path class="fil3" d="M4820 6765c0,-44 0,-87 0,-131 58,0 96,0 154,0 69,0 137,-29 137,-122 0,-126 0,-231 0,-357 44,0 87,0 131,0 0,142 0,243 0,385 0,77 -22,126 -54,162 -40,44 -98,63 -171,63 -79,0 -117,0 -196,0z"/>
    <path class="fil3" d="M2946 6474l0 -319c44,0 87,0 131,0 0,24 0,37 0,61 0,57 50,114 132,114l1306 0 0 -93c0,-66 -36,-96 -100,-96l-390 0 -207 0 420 -420 207 0 -275 274 254 0c133,0 235,88 235,226l0 109 0 144 -144 0 -1331 0c-42,0 -72,-2 -106,-28l0 94c0,77 -22,126 -54,162 -40,44 -98,63 -171,63 -79,0 -117,0 -196,0 0,-44 0,-87 0,-131 58,0 96,0 154,0 69,0 137,-29 137,-122l0 -38zm712 -333l-207 0 420 -420 207 0 -420 420z"/>
    <path class="fil3" d="M1858 6474c0,-48 0,-96 0,-144 0,-58 0,-117 0,-175 44,0 87,0 131,0 0,25 0,51 0,76 0,47 40,99 87,99 58,0 116,0 173,0 0,-58 0,-117 0,-175 48,0 96,0 144,0 0,58 0,117 0,175 83,0 166,0 249,0 0,-58 0,-117 0,-175 48,0 96,0 144,0 0,58 0,117 0,175 0,48 0,96 0,144 -48,0 -96,0 -144,0 -83,0 -166,0 -249,0 -48,0 -96,0 -144,0 -52,0 -105,0 -157,0 -44,0 -73,-10 -103,-29 0,29 0,88 0,117 0,177 -206,280 -362,202 -53,-26 -103,-86 -145,-128 -44,-44 -87,-87 -131,-131 -77,-77 -184,-50 -206,58 -48,0 -96,0 -144,0 -2,-52 13,-103 44,-146 93,-131 278,-143 392,-29 75,75 149,149 224,224 71,71 198,22 198,-81 0,-19 0,-38 0,-57 0,0 0,0 0,0z"/>
    <polygon class="fil3" points="2598,7070 2671,7070 2671,7477 2598,7477 "/>
    <path class="fil3" d="M1963 7409c34,0 62,-28 62,-62 0,-34 -28,-62 -62,-62 -34,0 -62,28 -62,62 0,34 28,62 62,62zm563 -93c0,89 -72,161 -161,161l-202 0c-41,0 -78,-15 -106,-40 -24,25 -57,40 -94,40 -38,0 -73,-16 -97,-42 -29,26 -67,42 -109,42 -89,0 -161,-72 -161,-161l0 -246 73 0 0 246c0,49 40,89 89,89 35,0 75,-20 75,-58 0,-72 59,-131 131,-131 72,0 131,59 131,131 0,8 -1,15 -2,22 16,22 42,36 72,36l86 0 0 -189 73 0 0 189 42 0c49,0 89,-40 89,-89l0 -101 73 0 0 101z"/>
    <path class="fil3" d="M3434 7477c-143,0 -286,0 -429,0 -8,81 -77,145 -160,145l0 -72c44,0 80,-31 87,-72 0,0 11,0 -62,0 -72,0 -131,-59 -131,-131 0,-72 59,-131 131,-131 72,0 131,59 131,131 0,21 -5,41 -14,58l90 0 0 -189c0,0 326,0 356,0 72,0 131,59 131,131 0,72 -59,131 -131,131zm-564 -68c34,0 62,-28 62,-62 0,-34 -28,-62 -62,-62 -34,0 -62,28 -62,62 0,34 28,62 62,62zm570 -121l-80 0 0 117 80 0c32,0 58,-26 58,-58 0,-32 -26,-58 -58,-58zm-153 117l0 -117 -137 0 0 117 137 0z"/>
    <path class="fil3" d="M1162 7620c-89,0 -161,-72 -161,-161 0,-89 72,-161 161,-161 52,0 101,25 131,67 22,31 40,51 82,51 49,0 88,-40 88,-89l0 -113 73 0 0 113c0,89 -72,161 -161,161 -53,0 -102,-26 -132,-68 -21,-30 -40,-50 -81,-50 -49,0 -89,40 -89,89 0,49 40,89 89,89l144 0 0 72 -144 0z"/>
    <path class="fil3" d="M4277 7404l151 0 0 -28c0,-49 -40,-89 -89,-89l-86 0 0 -73 146 -146 108 0 -146 146c75,-5 139,55 139,131l0 131 -131 0 -100 0c-51,0 -95,-29 -117,-72 -21,43 -66,72 -117,72l-333 0 0 -262 73 0 0 189 253 0c49,0 89,-40 89,-89l0 -101 73 0 0 101c0,49 40,89 89,89z"/>
    <polygon class="fil3" points="3862,7070 3934,7070 3934,7143 3862,7143 "/>
    <polygon class="fil3" points="3963,7070 4036,7070 4036,7143 3963,7143 "/>
    <polygon class="fil3" points="4877,7070 4950,7070 4950,7143 4877,7143 "/>
    <polygon class="fil3" points="4979,7070 5052,7070 5052,7143 4979,7143 "/>
    <polygon class="fil3" points="5081,7070 5153,7070 5153,7143 5081,7143 "/>
    <g>
     <polygon class="fil3" points="1356,7550 1429,7550 1429,7622 1356,7622 "/>
     <polygon class="fil3" points="1458,7550 1530,7550 1530,7622 1458,7622 "/>
    </g>
    <g>
     <g>
      <polygon class="fil3" points="2076,7550 2148,7550 2148,7622 2076,7622 "/>
      <polygon class="fil3" points="2177,7550 2250,7550 2250,7622 2177,7622 "/>
     </g>
     <polygon class="fil3" points="2352,7550 2424,7550 2424,7622 2352,7622 "/>
     <polygon class="fil3" points="2453,7550 2526,7550 2526,7622 2453,7622 "/>
     <polygon class="fil3" points="2453,7651 2526,7651 2526,7724 2453,7724 "/>
    </g>
    <path class="fil3" d="M5255 7316c0,89 -72,161 -161,161 -149,0 -298,0 -447,0 -8,81 -66,145 -150,145l0 -72c40,0 77,-35 77,-74l0 -71 0 -189 73 0 0 189 130 0 0 -189 73 0 0 189 130 0 0 -189 73 0 0 189 42 0c49,0 89,-40 89,-89l0 -101 73 0 0 101z"/>
   </g>
   <path class="fil3" d="M11734 6126l-140 164 0 402 -172 0c-96,0 -141,-49 -141,-148l0 -504c0,-100 46,-148 141,-148l311 0 0 -141 -354 0c-135,0 -245,110 -245,245l0 593c0,135 110,245 245,245l354 0 0 -708z"/>
   <path class="fil3" d="M12930 5892l40 0c74,0 135,61 135,135l0 531c0,74 -61,135 -135,135l-40 0c-74,0 -135,-61 -135,-135l0 -531c0,-74 61,-135 135,-135zm-19 -141l78 0c143,0 261,117 261,261l0 562c0,143 -117,261 -261,261l-78 0c-143,0 -261,-117 -261,-261l0 -562c0,-143 117,-261 261,-261z"/>
   <path class="fil3" d="M10635 5751l338 0 0 1083 -145 0 0 -636 -309 309 0 327 -145 0 0 -823c0,-143 117,-261 261,-261zm194 249l0 -108 -175 0c-74,0 -135,61 -135,135l0 283 309 -309z"/>
   <polygon class="fil3" points="11451,7489 11516,7489 11516,6948 11451,6948 "/>
   <path class="fil3" d="M11122 7082c-104,0 -189,83 -189,185l0 222 65 0 0 -222c0,-67 56,-121 123,-121l0 -64z"/>
   <path class="fil3" d="M12224 7489l65 0 0 -222c0,-67 56,-120 123,-120l0 0c68,0 123,53 123,120l0 222 65 0 0 -222c0,-102 -85,-185 -189,-185l0 0c-104,0 -189,83 -189,185l0 222z"/>
   <polygon class="fil3" points="10542,7489 10607,7489 10607,7136 10542,7136 "/>
   <polygon class="fil3" points="10542,7013 10607,7013 10607,6948 10542,6948 "/>
   <path class="fil3" d="M13122 7489l0 0c77,0 143,-46 172,-112l-76 0c-23,28 -58,47 -96,47l0 0c-62,0 -113,-46 -122,-106l44 0 200 0 66 0c1,-6 1,-12 1,-18l0 -30c0,-104 -85,-189 -189,-189l0 0c-104,0 -189,85 -189,189l0 30c0,104 85,189 189,189zm122 -236l-244 0c9,-59 60,-106 122,-106l0 0c62,0 113,46 122,106z"/>
   <polygon class="fil3" points="11842,7489 11907,7489 11907,7082 11842,7082 "/>
   <polygon class="fil3" points="11842,7013 11907,7013 11907,6948 11842,6948 "/>
   <path class="fil3" d="M13814 7489c65,0 118,-53 118,-118l0 0c0,-65 -53,-118 -118,-118l-43 0c-29,0 -53,-24 -53,-53l0 0c0,-29 24,-53 53,-53l161 0 0 -65 -161 0c-65,0 -118,53 -118,118l0 0c0,65 53,118 118,118l43 0c29,0 53,24 53,53l0 0c0,29 -24,53 -53,53l-161 0 0 65 161 0z"/>
   <path class="fil3" d="M12306 6204c-132,123 -216,209 -53,393l237 237 0 -198 -135 -135c-159,-159 135,-158 135,-390l0 -99c0,-143 -117,-261 -261,-261l-78 0c-143,0 -261,117 -261,261 0,274 0,548 0,823l145 0 0 -807c0,-74 61,-135 135,-135l40 0c74,0 135,61 135,135l0 83c0,37 -15,71 -40,95z"/>
   <path class="fil3" d="M13910 6407l-300 -297c-125,-123 -76,-219 65,-219l316 0c0,-47 0,-94 0,-141 -113,0 -226,0 -338,0 -252,0 -350,251 -172,427l300 297c124,124 76,219 -65,219l-316 0c0,47 0,94 0,141 113,0 226,0 338,0 252,0 350,-250 172,-427z"/>
   <path class="fil3" d="M9866 6243c82,-82 208,-159 208,-280 0,-24 0,-48 0,-72 -153,0 -305,0 -458,0 0,-47 0,-94 0,-141 200,0 399,0 599,0 0,71 0,142 0,213 0,199 -104,232 -250,378 -82,82 -208,159 -208,280 0,24 0,48 0,71 153,0 305,0 458,0 0,47 0,94 0,141 -200,0 -399,0 -599,0 0,-71 0,-142 0,-213 0,-200 104,-232 250,-378z"/>
   <path class="fil3" d="M9835 7352l322 0 0 137 65 0 0 -541 -65 0 -541 541 82 0 137 -137zm322 -322l0 257 -257 0 257 -257z"/>
  </g>
 </g>
</svg>
