<?xml version="1.0" encoding="utf-8"?>
<svg version="1.1" width="162" height="39" viewBox="0 0 162 39" fill="none" xmlns="http://www.w3.org/2000/svg">
<path d="M44.9617 18.8408C45.9604 18.8408 46.9604 18.7234 47.959 18.4888C48.9577 18.2554 49.8604 17.8581 50.6657 17.2968C51.471 16.7354 52.1284 15.9768 52.639 15.0181C53.1484 14.0594 53.403 12.8461 53.403 11.3781C53.403 9.82877 53.1484 8.56344 52.639 7.58611C52.1284 6.60611 51.471 5.84211 50.6657 5.29144C49.8604 4.74077 48.9577 4.36344 47.959 4.15944C46.9604 3.95544 45.9604 3.85411 44.9617 3.85411H41.7497V18.8408H44.9617ZM37.8964 0.975441C37.8964 0.740774 38.0857 0.550106 38.3204 0.550106H45.5724C46.9804 0.550106 48.3977 0.734107 49.8244 1.10077C51.251 1.46744 52.5364 2.07411 53.679 2.92077C54.8204 3.76744 55.7484 4.87811 56.4617 6.25544C57.175 7.63144 57.5324 9.33944 57.5324 11.3781C57.5324 13.2741 57.175 14.9061 56.4617 16.2714C55.7484 17.6381 54.8204 18.7594 53.679 19.6368C52.5364 20.5128 51.251 21.1608 49.8244 21.5781C48.3977 21.9968 46.9804 22.2048 45.5724 22.2048H38.3204C38.0857 22.2048 37.8964 22.0154 37.8964 21.7808V0.975441Z" fill="#54585A"/>
<path d="M100.452 0.550597H103.229C104.415 0.550597 105.515 1.1626 106.14 2.16926L115.199 16.7613H115.259V0.974597C115.259 0.741263 115.449 0.550597 115.684 0.550597H118.688C118.924 0.550597 119.113 0.741263 119.113 0.974597V21.7813C119.113 22.0159 118.924 22.2053 118.688 22.2053H116.135C114.945 22.2053 113.84 21.5879 113.217 20.5733L103.943 5.4746H103.881V21.7813C103.881 22.0159 103.691 22.2053 103.456 22.2053H100.452C100.217 22.2053 100.028 22.0159 100.028 21.7813V0.974597C100.028 0.741263 100.217 0.550597 100.452 0.550597Z" fill="#54585A"/>
<path d="M90.724 9.19962V21.781C90.724 22.0156 90.9147 22.205 91.148 22.205H94.1533C94.388 22.205 94.5773 22.0156 94.5773 21.781V4.04496C94.5773 3.86762 94.352 3.79562 94.248 3.93829L90.9547 8.48762C90.8053 8.69562 90.724 8.94496 90.724 9.19962Z" fill="#54585A"/>
<path d="M83.4716 0.547901L73.4249 14.5L78.8916 22.0919C78.9956 22.2373 79.2116 22.2373 79.3156 22.0919L94.5303 0.962616C94.6543 0.789283 94.5303 0.547901 94.3169 0.547901H83.4716Z" fill="url(#paint0_linear)"/>
<path d="M66.0365 0.547866C60.1845 0.547866 56.7912 7.17187 60.2112 11.9199L67.5352 22.0919C67.6392 22.2372 67.8552 22.2372 67.9592 22.0919L83.4712 0.547866H66.0365Z" fill="#E4002B"/>
<path d="M136.519 10.0908L134.674 12.5441C134.523 12.7441 134.666 13.0294 134.916 13.0294H139.116V18.5348C137.892 19.0454 136.455 19.3001 134.804 19.3001C133.602 19.3001 132.526 19.1014 131.578 18.7028C131.184 18.5388 130.819 18.3454 130.475 18.1268C129.988 17.8174 129.548 17.4548 129.16 17.0361C128.498 16.3228 127.988 15.4814 127.631 14.5134C127.274 13.5441 127.096 12.4788 127.096 11.3161C127.096 10.3001 127.244 9.34944 127.539 8.46677C127.568 8.3761 127.599 8.28544 127.631 8.19744C127.988 7.23877 128.492 6.40277 129.146 5.68944C129.798 4.97611 130.588 4.41477 131.516 4.00677C132.443 3.59877 133.479 3.39477 134.62 3.39477C135.783 3.39477 136.858 3.60944 137.847 4.03744C138.576 4.35344 139.186 4.7201 139.676 5.1361C139.864 5.29477 140.146 5.2681 140.294 5.07077L142.096 2.67477C142.24 2.48144 142.196 2.20677 141.998 2.06811C141.258 1.54811 140.376 1.10677 139.346 0.749439C137.908 0.249439 136.323 0.000105625 134.59 0.000105625C132.918 0.000105625 131.368 0.264104 129.94 0.794771C128.514 1.32544 127.274 2.08011 126.224 3.05877C125.679 3.56677 125.195 4.13344 124.77 4.7561C124.378 5.32944 124.036 5.95077 123.747 6.62144C123.146 8.01877 122.844 9.5841 122.844 11.3161C122.844 11.6374 122.858 11.9508 122.879 12.2601C122.968 13.5881 123.246 14.8188 123.716 15.9508C124.298 17.3468 125.108 18.5508 126.148 19.5601C127.188 20.5694 128.432 21.3548 129.88 21.9148C131.327 22.4761 132.928 22.7561 134.682 22.7561C136.394 22.7561 137.908 22.6081 139.223 22.3134C140.4 22.0481 141.491 21.6894 142.496 21.2374C142.714 21.1401 142.848 20.9228 142.848 20.6854V10.2734C142.848 10.0388 142.658 9.8481 142.424 9.8481H137.003C136.814 9.8481 136.634 9.93877 136.519 10.0908Z" fill="#54585A"/>
<path d="M7.004 10.3293C7.55467 10.3293 8.10533 10.2893 8.656 10.2067C9.20667 10.1253 9.7 9.97201 10.14 9.74801C10.5773 9.52401 10.9387 9.20267 11.2253 8.78401C11.5107 8.36667 11.6533 7.83201 11.6533 7.17867C11.6533 6.58801 11.52 6.10401 11.2547 5.72534C10.9907 5.34934 10.6533 5.04801 10.2467 4.82401C9.83733 4.60001 9.37467 4.44667 8.85467 4.36534C8.33467 4.28401 7.82933 4.24267 7.34 4.24267H3.85333V10.3293H7.004ZM0 1.42534C0 1.19067 0.189333 1.00001 0.424 1.00001H7.524C8.544 1.00001 9.532 1.10667 10.4907 1.32134C11.4493 1.53601 12.3 1.88667 13.0453 2.37734C13.7893 2.86667 14.3853 3.50801 14.8347 4.30401C15.2827 5.09867 15.5067 6.06801 15.5067 7.20934C15.5067 8.78001 15.0627 10.0587 14.176 11.048C13.2893 12.0373 12.26 12.5547 11.0293 12.9293L16.0387 22.1173C16.1707 22.36 15.996 22.656 15.72 22.656H12.4293C12.204 22.656 11.9987 22.532 11.8933 22.3333L7.20267 13.48H3.85333V22.2307C3.85333 22.4653 3.664 22.656 3.428 22.656H0.424C0.189333 22.656 0 22.4653 0 22.2307V1.42534Z" fill="#54585A"/>
<path d="M160.634 13.1826C160.236 12.4693 159.726 11.8773 159.106 11.4079C158.483 10.9399 157.8 10.5626 157.055 10.2773C156.311 9.99059 155.592 9.73726 154.899 9.51192C154.826 9.48926 154.755 9.46792 154.683 9.44525C154.582 9.41459 154.483 9.38392 154.384 9.35325C153.97 9.22259 153.579 9.09192 153.218 8.96125C152.707 8.77859 152.272 8.56392 151.918 8.31992C151.56 8.07459 151.279 7.77992 151.076 7.43192C150.872 7.08525 150.771 6.66792 150.771 6.17859C150.771 5.64792 150.887 5.19459 151.122 4.81725C151.356 4.43992 151.658 4.13459 152.024 3.89992C152.391 3.66525 152.799 3.49192 153.247 3.37859C153.696 3.26792 154.146 3.21059 154.594 3.21059C155.347 3.21059 156.098 3.39059 156.842 3.74659C157.116 3.87859 157.368 4.02259 157.598 4.17859C157.788 4.30926 158.047 4.26659 158.182 4.07859L159.764 1.88259C159.911 1.67859 159.848 1.39059 159.63 1.26525C159.162 0.993255 158.662 0.765254 158.126 0.581254C156.995 0.193254 155.879 -7.74807e-05 154.776 -7.74807e-05C153.798 -7.74807e-05 152.834 0.126588 151.886 0.381255C150.939 0.637255 150.092 1.02392 149.347 1.54392C148.604 2.06392 148.002 2.72259 147.544 3.51726C147.084 4.31192 146.855 5.26126 146.855 6.36126C146.855 7.38126 147.018 8.23325 147.344 8.91592C147.67 9.59859 148.094 10.1746 148.614 10.6439C149.134 11.1133 149.719 11.4906 150.372 11.7759C150.966 12.0359 151.559 12.2599 152.154 12.4519C152.212 12.4706 152.272 12.4906 152.33 12.5093C152.343 12.5146 152.356 12.5173 152.37 12.5226C153.027 12.7426 153.658 12.9519 154.258 13.1519C154.87 13.3559 155.399 13.5959 155.847 13.8706C156.296 14.1466 156.654 14.4719 156.918 14.8493C157.183 15.2266 157.316 15.7013 157.316 16.2719C157.316 16.8639 157.199 17.3573 156.964 17.7546C156.728 18.1533 156.424 18.4853 156.047 18.7493C155.668 19.0146 155.246 19.2039 154.776 19.3146C154.308 19.4279 153.848 19.4839 153.4 19.4839C152.544 19.4839 151.672 19.2679 150.786 18.8413C150.051 18.4879 149.375 18.0173 148.966 17.6759C148.775 17.5159 148.492 17.5493 148.347 17.7506L146.735 19.9786C146.603 20.1613 146.638 20.4159 146.814 20.5586C147.268 20.9253 148.178 21.5906 149.211 21.9759C150.562 22.4813 151.932 22.7559 153.339 22.7559C154.399 22.7559 155.408 22.6133 156.368 22.3279C157.326 22.0426 158.162 21.6146 158.876 21.0439C159.59 20.4719 160.16 19.7533 160.588 18.8866C161.016 18.0199 161.231 17.0053 161.231 15.8439C161.231 14.7839 161.032 13.8973 160.634 13.1826Z" fill="#54585A"/>
<path d="M33.6876 19.2297H23.0929V13.1124H32.6076C32.8436 13.1124 33.0329 12.923 33.0329 12.6884V10.295C33.0329 10.0604 32.8436 9.8697 32.6076 9.8697H23.0929V4.3657H26.0823H33.6556C33.8902 4.3657 34.0796 4.17503 34.0796 3.94036V1.42436C34.0796 1.19103 33.8902 1.00036 33.6556 1.00036H23.5449H22.8796C20.8689 1.00036 19.2383 2.6297 19.2383 4.6417V19.015C19.2383 21.0257 20.8689 22.655 22.8796 22.655H33.6876C33.9222 22.655 34.1129 22.4657 34.1129 22.231V19.655C34.1129 19.4204 33.9222 19.2297 33.6876 19.2297Z" fill="#54585A"/>
<path d="M62.7718 34.7026C61.7056 34.7026 60.9669 34.8245 60.5557 35.0683C60.1445 35.3122 59.9389 35.7282 59.9389 36.3163C59.9389 36.7848 60.0919 37.1578 60.3979 37.4351C60.7087 37.7076 61.1294 37.8439 61.6602 37.8439C62.3917 37.8439 62.9774 37.5857 63.4173 37.0693C63.862 36.5482 64.0843 35.8573 64.0843 34.9966V34.7026H62.7718ZM65.4039 34.1575V38.7404H64.0843V37.5211C63.7831 38.0088 63.4077 38.3698 62.9583 38.6041C62.5088 38.8336 61.959 38.9484 61.3087 38.9484C60.4864 38.9484 59.8313 38.7189 59.3436 38.2599C58.8607 37.7961 58.6193 37.1769 58.6193 36.4023C58.6193 35.4987 58.9205 34.8173 59.5229 34.3583C60.1302 33.8993 61.0338 33.6698 62.2339 33.6698H64.0843V33.5407C64.0843 32.9335 63.8835 32.4649 63.4818 32.135C63.085 31.8003 62.5256 31.633 61.8036 31.633C61.3446 31.633 60.8975 31.688 60.4625 31.7979C60.0274 31.9079 59.609 32.0729 59.2074 32.2928V31.0736C59.6903 30.8871 60.1588 30.7484 60.6131 30.6576C61.0673 30.562 61.5096 30.5142 61.9399 30.5142C63.1017 30.5142 63.9695 30.8154 64.5433 31.4178C65.117 32.0203 65.4039 32.9335 65.4039 34.1575V34.1575Z" fill="#54585A"/>
<path d="M66.7592 30.7078H68.0788V38.7403H66.7592V30.7078ZM66.7592 27.5808H68.0788V29.2519H66.7592V27.5808Z" fill="#54585A"/>
<path d="M74.792 31.9414C74.6438 31.8553 74.4812 31.7932 74.3043 31.7549C74.1322 31.7119 73.9409 31.6904 73.7306 31.6904C72.9847 31.6904 72.4109 31.9342 72.0093 32.4219C71.6125 32.9048 71.414 33.6005 71.414 34.5089V38.7404H70.0872V30.7078H71.414V31.9557C71.6913 31.468 72.0523 31.107 72.497 30.8728C72.9417 30.6337 73.4819 30.5142 74.1178 30.5142C74.2087 30.5142 74.3091 30.5213 74.4191 30.5357C74.529 30.5452 74.651 30.562 74.7848 30.5859L74.792 31.9414Z" fill="#54585A"/>
<path d="M75.2048 27.5808H76.5245V38.7403H75.2048V27.5808Z" fill="#54585A"/>
<path d="M78.73 30.7078H80.0496V38.7403H78.73V30.7078ZM78.73 27.5808H80.0496V29.2519H78.73V27.5808Z" fill="#54585A"/>
<path d="M88.7853 33.8921V38.7404H87.4657V33.9352C87.4657 33.1749 87.3175 32.606 87.021 32.2283C86.7246 31.8505 86.2799 31.6617 85.687 31.6617C84.9746 31.6617 84.4128 31.8888 84.0016 32.343C83.5904 32.7972 83.3849 33.4164 83.3849 34.2005V38.7404H82.058V30.7078H83.3849V31.9557C83.7004 31.4728 84.071 31.1118 84.4965 30.8728C84.9268 30.6337 85.4217 30.5142 85.9811 30.5142C86.9039 30.5142 87.602 30.801 88.0753 31.3748C88.5487 31.9438 88.7853 32.7829 88.7853 33.8921Z" fill="#54585A"/>
<path d="M97.4981 34.3942V35.0397H91.4306C91.488 35.9481 91.7605 36.6414 92.2482 37.1195C92.7407 37.5929 93.4244 37.8295 94.2994 37.8295C94.8062 37.8295 95.2963 37.7674 95.7696 37.6431C96.2478 37.5188 96.7211 37.3323 97.1897 37.0837V38.3316C96.7163 38.5324 96.231 38.6854 95.7338 38.7906C95.2365 38.8958 94.7321 38.9484 94.2205 38.9484C92.9391 38.9484 91.9231 38.5754 91.1724 37.8295C90.4265 37.0837 90.0536 36.0748 90.0536 34.803C90.0536 33.4881 90.4074 32.4458 91.115 31.676C91.8274 30.9014 92.7861 30.5142 93.991 30.5142C95.0716 30.5142 95.925 30.8632 96.5514 31.5613C97.1825 32.2546 97.4981 33.1989 97.4981 34.3942ZM96.1784 34.0069C96.1689 33.2849 95.9657 32.7088 95.5688 32.2785C95.1767 31.8481 94.6556 31.633 94.0053 31.633C93.269 31.633 92.6785 31.841 92.2339 32.2569C91.794 32.6729 91.5406 33.2586 91.4736 34.0141L96.1784 34.0069Z" fill="#54585A"/>
<path d="M103.9 30.9445V32.1924C103.527 32.0011 103.14 31.8577 102.738 31.7621C102.337 31.6665 101.921 31.6186 101.49 31.6186C100.835 31.6186 100.343 31.719 100.013 31.9199C99.6877 32.1207 99.5251 32.4219 99.5251 32.8235C99.5251 33.1295 99.6423 33.371 99.8766 33.5479C100.111 33.72 100.582 33.885 101.289 34.0428L101.741 34.1432C102.678 34.344 103.343 34.6285 103.735 34.9966C104.132 35.36 104.33 35.8692 104.33 36.5242C104.33 37.2701 104.034 37.8606 103.441 38.2957C102.853 38.7308 102.042 38.9484 101.01 38.9484C100.579 38.9484 100.13 38.9053 99.6614 38.8193C99.1976 38.738 98.7075 38.6137 98.1912 38.4463V37.0837C98.6789 37.3371 99.1594 37.5283 99.6327 37.6574C100.106 37.7817 100.575 37.8439 101.038 37.8439C101.66 37.8439 102.138 37.7387 102.473 37.5283C102.808 37.3132 102.975 37.0119 102.975 36.6247C102.975 36.2661 102.853 35.9911 102.609 35.7999C102.37 35.6086 101.842 35.4245 101.024 35.2476L100.565 35.1401C99.7475 34.9679 99.157 34.705 98.7936 34.3511C98.4302 33.9926 98.2485 33.5025 98.2485 32.8809C98.2485 32.1255 98.5163 31.5421 99.0518 31.1309C99.5873 30.7198 100.348 30.5142 101.332 30.5142C101.82 30.5142 102.279 30.55 102.709 30.6217C103.14 30.6935 103.537 30.801 103.9 30.9445V30.9445Z" fill="#54585A"/>
<defs>
<linearGradient id="paint0_linear" x1="80.2709" y1="6.19744" x2="86.9052" y2="11.5309" gradientUnits="userSpaceOnUse">
<stop stop-color="#A72022"/>
<stop offset="0.514573" stop-color="#E4002B"/>
<stop offset="1" stop-color="#E4002B"/>
</linearGradient>
</defs>
</svg>
