<?xml version="1.0" encoding="utf-8"?>
<!-- Generator: Adobe Illustrator 24.0.0, SVG Export Plug-In . SVG Version: 6.00 Build 0)  -->
<svg version="1.1" id="Layer_1" xmlns="http://www.w3.org/2000/svg" xmlns:xlink="http://www.w3.org/1999/xlink" x="0px" y="0px" width="1000" height="794.97"
	 viewBox="0 0 1000 794.97" style="enable-background:new 0 0 1000 794.97;" xml:space="preserve">
<style type="text/css">
	.st0{fill:#216092;}
	.st1{fill:#EB7204;}
	.st2{fill:#0D2060;}
	.st3{fill:#C20E2F;}
	.st4{fill:#D5441D;}
</style>
<g>
	<path class="st0" d="M315.69,133.42c-1.51,0.1-3.03,0.29-4.54,0.29c-35.13,0.02-70.26-0.24-105.38,0.09
		c-29.11,0.28-50.95,13.44-65.11,38.95c-5.02,9.05-6.97,18.95-7.01,29.24c-0.04,10.97,0.14,21.94-0.1,32.9
		c-0.08,3.49,0.87,4.48,4.34,4.37c23.92-0.75,47.34,2.19,70.08,9.88c32.74,11.07,60.7,29.54,84.48,54.52c1.9,2,1.7,3.17-0.08,5.01
		c-36.65,37.98-80.72,60.41-133.8,63.93c-6.78,0.45-13.6,0.59-20.39,0.41c-3.63-0.1-4.65,0.83-4.63,4.57
		c0.16,32.76,0.09,65.53,0.09,98.3c0,38.04-0.04,76.08,0.07,114.12c0.01,3.58-0.44,4.58-4.19,3.04
		C60.18,564.46,18.39,513.39,4.05,439.8c-1.54-7.91-2.45-15.9-3.2-23.92c-0.08-0.9,0.3-2-0.85-2.57c0-76.66,0-153.33,0-229.99
		c1.21-0.5,0.82-1.62,0.92-2.51c0.87-7.58,1.98-15.13,3.68-22.57C22.84,78.52,87.47,17.27,168.04,3.17
		c6.48-1.13,13.13-1.2,19.46-3.17c65,0,130,0,195,0c-6.24,7.41-13.66,13.67-19.98,21.04c-11.03,12.86-20.64,26.63-28.4,41.67
		C322.68,84.88,316.56,108.47,315.69,133.42z"/>
	<path class="st1" d="M725.77,402.53c2.94,10.45,6.81,20.45,13.47,29.22c32.94,43.28,90.26,32.89,113.11,3.83
		c9.28-11.8,13.56-25.33,13.72-40.21c0.23-20.77,2.47-41.22,8.67-61.15c10.59-34.06,30.44-62.01,56.31-86.07
		c1.89-1.76,2.88-1.13,4.4,0.33c26.78,25.56,45.68,55.94,56.22,91.47c3.68,12.41,6,25.08,7.39,37.93c0.11,1.01-0.39,2.29,0.94,2.94
		c0,80.28,0,160.55,0,240.83c-1.8,0.72-1.03,2.38-1.16,3.58c-3.02,27.4-11.14,53.21-24.7,77.17
		c-23.57,41.67-57.54,71.74-101.79,90.16c-1.17,0.49-3.11,0.35-3.18,2.42c-1.39,0-2.78,0-4.17,0c1.63-0.92,0.92-2.48,0.92-3.75
		c0.04-68.01,0.03-136.02,0.03-204.03c0-4.81-0.24-4.97-5.02-3.39c-42.02,13.87-84.24,14.47-126.49,1.32
		c-28.34-8.83-53.62-23.19-75.48-43.4c0,0,0.03,0.01,0.03,0.01c0.2-1.85,1.7-2.78,2.83-3.97c5.89-6.23,12.23-12.09,17.61-18.73
		c11.29-13.94,21.05-28.83,28.58-45.3c7.94-17.37,12.94-35.32,15.5-54.17C724.28,413.9,723,407.92,725.77,402.53z"/>
	<path class="st2" d="M315.69,133.42c0.87-24.94,7-48.54,18.44-70.71c7.76-15.03,17.37-28.81,28.4-41.67
		C368.84,13.67,376.26,7.41,382.5,0c0.28,0,0.56,0,0.83,0c20.98,19.52,38.75,41.49,51.13,67.53c9.27,19.5,14.7,39.97,15.47,61.61
		c0.05,1.51-0.1,3.03-0.16,4.54c-0.69-0.07-1.38-0.2-2.06-0.2c-42.73,0-85.45,0-128.18,0.02c-1.09,0-2.18,0.26-3.27,0.39
		C316,133.82,315.81,133.66,315.69,133.42z"/>
	<path class="st2" d="M1000,116.66c-0.13,0.05-0.33,0.07-0.38,0.16c-9.35,18.12-22.69,18.56-34.84,16.27
		c-14.17-2.67-24.12-13.58-25.47-29.04c-1.82-20.87-1.97-41.86,0.14-62.7c1.29-12.75,6.8-23.45,20.41-27.6
		c0.51-0.16,1.06-0.2,1.96-0.36c0,7.37,0.11,14.56-0.06,21.74c-0.06,2.61,0.77,3.28,3.29,3.25c11.65-0.12,23.29-0.04,34.94-0.04
		c0,0.56,0,1.11,0,1.67c-0.74-0.06-0.78,0.57-1.03,1.02c-5.74,10.46-14.15,16.42-26.52,15.79c-2.49-0.13-5.01,0.17-7.48-0.06
		c-2.7-0.26-3.28,0.86-3.19,3.32c0.17,4.71,0.02,9.42,0.06,14.13c0.08,10.1-0.48,20.25,1.37,30.26c1.19,6.46,4.67,9.89,11.09,10.44
		c8.55,0.73,17.13,0.63,25.71,0.1C1000,115.55,1000,116.11,1000,116.66z"/>
	<path class="st3" d="M316.26,133.9c1.09-0.14,2.18-0.39,3.27-0.39c42.73-0.02,85.45-0.03,128.18-0.02c0.69,0,1.38,0.13,2.06,0.2
		c0.05,4.3,0.16,8.6,0.16,12.9c0.01,80.95,0.53,161.91-0.24,242.86c-0.34,35.92,24.34,62.42,54.46,69.44
		c31.83,7.42,64.4-8.37,79.52-38.5c3.52-7.01,5.58-14.46,7.16-22.08c1.24,1.1,0.82,2.58,0.8,3.91c-0.16,12.63,1.87,25,4.77,37.2
		c5.58,23.5,15.33,45.18,29.27,64.91c8.77,12.41,18.36,24.15,29.87,34.18c0.93,0.81,1.9,1.65,1.99,3.04
		c-27.31,24.86-59.11,40.86-95.17,48.68c-98.02,21.27-200.11-34.95-234.31-129.11c-7.51-20.67-11.75-41.99-11.79-63.96
		c-0.16-87.06-0.09-174.13-0.1-261.19C316.17,135.28,316.23,134.59,316.26,133.9z"/>
	<path class="st4" d="M657.54,541.56c-0.09-1.39-1.06-2.23-1.99-3.04c-11.52-10.03-21.11-21.77-29.87-34.18
		c-13.94-19.73-23.69-41.42-29.27-64.91c-2.9-12.21-4.93-24.58-4.77-37.2c0.02-1.33,0.44-2.81-0.8-3.91
		c0.04-37.02,7.4-72.12,26.97-104.09c10.43-17.04,23.26-32.08,37.75-45.76c1.54-1.46,2.63-2.29,4.73-0.33
		c29.11,27.15,49.92,59.22,59.07,98.34c3.61,15.45,5.36,31.11,5.75,46.95c0.08,3.04,0.44,6.07,0.67,9.1
		c-2.77,5.39-1.49,11.37-2.26,17.04c-2.57,18.85-7.56,36.8-15.5,54.17c-7.53,16.47-17.28,31.36-28.58,45.3
		c-5.38,6.64-11.72,12.5-17.61,18.73c-1.12,1.19-2.63,2.12-2.83,3.97c0,0,0.03,0.04,0.03,0.04
		C658.53,541.7,658.03,541.63,657.54,541.56z"/>
	<polygon class="st3" points="659.02,541.77 658.99,541.73 658.96,541.72 	"/>
	<path class="st2" d="M653.53,150.45c7.73,0,15.31,0.04,22.89-0.01c4.44-0.03,8.89-0.03,13.31-0.33c8.19-0.57,11.65-3.72,13.05-11.8
		c0.5-2.85,0.6-5.76,0.96-9.33c-11.89,6.29-23.97,5.72-36.09,3.69c-15.53-2.6-23.3-9.71-26.37-25.32
		c-2.88-14.66-3.02-29.64-0.69-44.35c2.22-14.04,10.59-23.25,25.1-25.85c12.56-2.25,25.14-2.28,37.64,0.46
		c14.14,3.1,20.96,13.88,23.33,26.99c1.01,5.62,0.85,11.35,0.76,17.04c-0.29,18.46,0.92,36.95-0.69,55.37
		c-1.69,19.31-12.11,29.56-31.3,31.51c-7.92,0.8-15.82,0.89-23.59-1.07C663.19,165.26,656.51,159.05,653.53,150.45z M703.83,86.45
		c0.24-8.13,0.07-13.97-0.77-19.74c-1.14-7.8-4.35-11.05-11.99-12.15c-5.36-0.77-10.8-0.8-16.17,0.17
		c-6.64,1.21-9.86,4.12-10.79,10.84c-1.82,13.13-1.57,26.32,0.38,39.42c0.89,5.97,4.53,9.07,10.68,9.9
		c5.39,0.72,10.82,0.69,16.21,0.05c6.64-0.79,10.03-4.21,11.21-10.86C703.76,97.49,703.53,90.81,703.83,86.45z"/>
	<path class="st2" d="M752.27,150.46c10.14,0,19.69,0,29.23,0c0.56,0,1.11,0,1.67-0.01c15.66-0.22,20.12-5.06,19.25-21.25
		c-11.5,6.1-23.62,5.48-35.79,3.46c-15.57-2.58-23.89-10.63-26.48-26.22c-2.47-14.87-2.72-29.9-0.06-44.76
		c1.92-10.69,7.03-19.49,17.97-23.7c3.02-1.16,4.15-1.21,4.11,2.69c-0.22,18.05-0.14,36.09-0.14,54.14
		c0,16.23,4.31,20.56,20.46,20.56c2.22,0,4.45-0.11,6.65-0.37c8.25-0.99,12.63-5.43,13.46-13.69c1.19-11.77-0.33-23.61,0.75-35.36
		c1.16-12.72,6.77-22.68,19.12-27.96c2.96-1.26,4.18-1.4,4.15,2.62c-0.17,27.9-0.09,55.81-0.1,83.71c0,6.11-0.14,12.23-1.52,18.22
		c-3.21,13.86-11.11,22.98-25.72,25.35c-8.57,1.39-17.15,1.67-25.7,0.19C763.5,166.33,756.66,160.34,752.27,150.46z"/>
	<path class="st2" d="M862.7,128.82c0,11.97-0.12,23.3,0.07,34.62c0.06,3.41-0.7,4-3.88,2.75c-12.43-4.88-17.24-15.09-18.82-27.22
		c-1.8-13.8-0.73-27.72-0.8-41.59c-0.05-10.12-0.44-20.25,0.62-30.36c1.88-17.99,11.5-28.03,29.49-30.51
		c9.96-1.37,19.93-1.25,29.86,0.28c14.56,2.25,23.91,10.94,26.46,25.44c2.49,14.16,2.51,28.53,0.35,42.69
		c-2.75,17.96-12.54,26.52-30.58,28.4C884.32,134.48,873.36,134.66,862.7,128.82z M862.66,84.59c0.3,6.51,0.18,13.03,1.35,19.49
		c1.2,6.62,4.6,10.08,11.37,10.88c5.25,0.62,10.54,0.64,15.8,0c6.58-0.8,10.38-4.27,11.27-10.84c1.76-12.99,1.75-26.03-0.04-39.02
		c-0.82-5.96-4.05-9.08-9.94-10.22c-6.19-1.2-12.42-1.03-18.63-0.02c-5.64,0.91-8.67,4.38-9.73,9.82
		C862.83,71.26,862.96,77.93,862.66,84.59z"/>
	<path class="st2" d="M624.09,115.39c-3.54,8.39-9.68,13.06-17.24,15.46c-14.7,4.68-29.59,4.39-44.2-0.47
		c-10.22-3.4-15.56-11.65-17.54-21.59c-3.13-15.63-3.1-31.53-0.19-47.18c2.52-13.55,10.81-22.17,24.83-24.56
		c11.32-1.93,22.7-2.23,33.97-0.02c13.6,2.66,22.52,13.4,24.46,28.96c0.7,5.64,1.09,11.33,0.27,17.03
		c-1.1,7.64-4.74,10.99-12.53,11.02c-15.14,0.07-30.28,0.14-45.41-0.06c-3.36-0.04-3.8,0.98-3.46,3.98
		c1.63,14.32,4.42,17.13,18.84,17.38C598.36,115.56,610.85,115.39,624.09,115.39z M586.91,75.54c5.97,0,11.93-0.05,17.9,0.03
		c1.94,0.03,2.58-0.5,2.56-2.6c-0.13-14.09-4.68-18.72-18.79-18.82c-0.69,0-1.39,0-2.08,0c-14.88,0.07-18.65,3.62-19.52,18.41
		c-0.01,0.14-0.01,0.28-0.03,0.41c-0.45,2.1,0.53,2.62,2.48,2.59C575.26,75.47,581.08,75.53,586.91,75.54z"/>
</g>
</svg>
