<?xml version="1.0" encoding="utf-8"?>
<!-- Generator: Adobe Illustrator 23.0.6, SVG Export Plug-In . SVG Version: 6.00 Build 0)  -->
<svg version="1.1" id="Layer_1" xmlns="http://www.w3.org/2000/svg" xmlns:xlink="http://www.w3.org/1999/xlink" x="0px" y="0px"
	 width="220.6px" height="92px" viewBox="0 0 220.6 92" style="enable-background:new 0 0 220.6 92;" xml:space="preserve">
<style type="text/css">
	.st0{fill:#133E67;}
	.st1{fill:#F89923;}
	.st2{fill:#F89921;}
	.st3{fill:#2B3B4C;}
</style>
<path class="st0" d="M125.8,15.4c0.2-1.3-0.1-2.3-1.2-2.6c-10.7-3.9-31.4-5.1-36.5,9.4c-8.1,23.8,18,21.6,16.6,28.6
	c-1,4.4-11.2,4.4-19.2,2c-1.5-0.5-2.6,0.2-2.9,1.8l-1.5,9.1c-0.3,1.3,0.1,2.2,1.3,2.6c10.7,4.1,32.6,5,37.1-10
	c7.4-24.8-17.1-20.6-15.4-28.9c1-4.6,8-5.6,15.4-4c2.9,0.6,4.8,0.2,5-1.4L125.8,15.4z M170.8,29.8c1.5-1.6,1.1-2.8-0.7-2.8
	l-10.7-0.1c-1.1,0-2.1,0.4-2.9,1.3l-9.8,9.9l3.9-27.8c0.2-1.6-0.7-2.4-2.1-2.1l-10.8,1.9c-1.3,0.3-2.2,1.1-2.4,2.5l-8.8,53
	c-0.3,1.5,0.4,2.3,1.8,2.3h11.3c1.4,0,2.3-0.8,2.5-2.3l1.3-7.9L170.8,29.8z M218.8,26.9H207c-1.4,0-2.3,0.8-2.6,2.3l-4,23.9
	c-5.5,5-11,5-9.4-4.5l3.2-19.5c0.3-1.5-0.3-2.3-1.7-2.3h-10.8c-1.4,0-2.3,0.8-2.6,2.3l-3.6,21.3c-2.3,13.7,4,18.5,12.3,18.5
	c3.9,0,8.5-1.8,10.9-5c-1.5,9.8-9.9,18-23.9,12.1c-1.5-0.6-2.5-0.2-2.8,1.5l-1.7,9c-0.3,1.3,0.2,2.3,1.3,2.8
	c15.8,7.9,39.2-2.4,43-24.6l6-35.6C220.8,27.7,220.2,26.9,218.8,26.9"/>
<path class="st1" d="M25.3,13.5c0.3-1.6-0.5-2.4-2-2.1l-12.6,2.2c-1.3,0.3-2.2,1.1-2.3,2.5L0.1,65.5c-0.3,1.5,0.4,2.3,1.8,2.3h12.2
	c1.4,0,2.2-0.8,2.5-2.3L25.3,13.5z M54.7,13.4c0.3-1.5-0.4-2.3-1.8-2.3H40.6c-1.4,0-2.2,0.8-2.5,2.3l-3.3,19.7h-5.7
	c-1.4,0-2.3,0.8-2.6,2.3l-2,11.9c-0.2,1.5,0.4,2.3,1.8,2.3H32l-2.7,16c-0.3,1.5,0.4,2.3,1.8,2.3h12.3c1.4,0,2.2-0.8,2.5-2.3
	L54.7,13.4z M60.6,31.7L55,65.5c-0.3,1.5,0.4,2.3,1.8,2.3h10.8c1.4,0,2.2-0.8,2.5-2.3l6-36.2c0.3-1.6-0.5-2.3-2-2l-11.1,2
	C61.7,29.5,60.9,30.3,60.6,31.7"/>
<path class="st0" d="M164.7,67.7c1.7,0,2.5-1.1,1.9-2.7l-5.9-13.3c-0.7-1.4-1.9-1.4-3-0.2l-6.1,5.9c-0.9,1-1.2,2.1-0.7,3.2l2.9,5.6
	c0.5,1,1.2,1.5,2.3,1.5H164.7z"/>
<path class="st2" d="M76.6,12c0,0-1.4,0.1-2.7,0.6c-5.9,2.5-6.1,8-5.6,8.5c0.6,0.5,1,0.1,1.4,0.1c1.4,0,2.8-1,3.8-1.9
	c1.4-1.3,2.3-2.8,2.8-4.7C76.5,13.8,76.6,11.9,76.6,12"/>
<path class="st3" d="M76.6,9.2c-1.4-3-3.8-5.1-6.5-6.9c-1.6-1.1-3.3-2-5.3-2.2c-2.7-0.3-4.1,1.2-3.4,3.7c0.3,1,0.8,1.9,1.4,2.8
	C63.1,7,63.7,7.8,64,8.2c0.7,0.9,0.5,0-0.3-1.3c-0.6-1-1.6-2.4-1.8-3.9c-0.2-1.4,0.6-2.3,2.1-2.2c1,0,2,0.3,2.9,0.8
	c2.4,1.1,4.6,2.7,6.4,4.6c1.3,1.4,2.4,2.9,2.8,4.8l0,0l0,0c0.2,1,0.2,1.8,0,2.7c-0.4,1.9-1.2,3.7-2.6,5.2c-0.9,1-2.5,1.8-3.5,1.9
	c-0.7,0.1-1,0-1,0.3c0,0.4,0.2,0.5,0.6,0.5c1,0,1.9-0.3,2.8-0.7C75.6,19.1,78.6,13.4,76.6,9.2"/>
<path class="st3" d="M67.8,18.7c-0.2,1.9,0.7,3.6,0.4,3.3c-0.7-0.9-0.9-1.9-0.8-3.1c0.1-2.7,1.6-4.7,3.5-6.3c1.3-0.9,1.9-1.5,3.8-2
	c0.6-0.1,1.3-0.5,1,0.3c-0.1,0.3-0.2,0.4-0.8,0.6c-2.9,0.7-4.8,2.3-6.3,4.8C68.2,17,67.9,17.8,67.8,18.7"/>
<path class="st2" d="M82.3,7.4C82.1,6.6,80.4,7,80.2,7c-1.3,0.2-2.3,1.8-2,2.6c0.4,0.3,0.8,1.2,1.7,1.1c1-0.1,1.7-0.9,1.8-1.8
	c0-0.4-0.2-0.9,0.1-1.3C82,7.3,82.2,7.3,82.3,7.4"/>
<path class="st3" d="M70.7,15.3c1,0.7,1.9,1.6,3,2.3c0.2,0.1,0.3,0.3,0.1,0.5c-0.2,0.3-0.4,0.1-0.6,0C72.2,17.3,71.3,16.5,70.7,15.3
	L70.7,15.3z"/>
<path class="st3" d="M72.8,13.4c0.8,0.5,1.5,1.2,2.3,1.7c0.1,0.1,0.3,0.2,0.2,0.4c-0.1,0.2-0.4,0.2-0.5,0.1
	C73.9,15,73.2,14.4,72.8,13.4"/>
<path class="st3" d="M69.2,17.7c0.8,0.5,1.5,1.2,2.3,1.7c0.1,0.1,0.3,0.2,0.2,0.4c-0.1,0.2-0.4,0.2-0.5,0.1
	C70.3,19.3,69.6,18.6,69.2,17.7"/>
</svg>
