<?xml version="1.0" encoding="utf-8"?>
<!-- Generator: Adobe Illustrator 18.1.1, SVG Export Plug-In . SVG Version: 6.00 Build 0)  -->
<svg version="1.1" id="Layer_1" xmlns="http://www.w3.org/2000/svg" xmlns:xlink="http://www.w3.org/1999/xlink" x="0px" y="0px"
	 width="287px" height="53px" viewBox="0 0 287 53" style="enable-background:new 0 0 287 53;" xml:space="preserve">
<path d="M17.0358 40.1156C16.7724 40.5508 16.9727 40.906 17.4837 40.906H24.4333C24.9451 40.906 25.5596 40.5415 25.8046 40.0954L29.032 34.2375C28.5303 34.2257 28.026 34.208 27.526 34.1937C25.2617 34.1306 22.951 34.0641 20.7598 33.9252L17.0358 40.1156Z" fill="#FA0055"></path>
<path fill-rule="evenodd" clip-rule="evenodd" d="M29.7155 19.0476L36.5279 7.7434C37.8016 5.70378 39.2275 4.72816 41.6535 4.729H50.6504L53.1471 39.9817C53.1841 40.4935 52.7994 40.9068 52.2885 40.9068H45.5619C45.0518 40.9068 44.6275 40.491 44.6191 39.9817L44.5332 35.9538C44.3074 31.9731 36.0416 31.7391 27.5949 31.4999C18.2832 31.2362 8.75159 30.9663 9.52887 25.6639C13.7406 26.1296 18.2111 26.2089 22.4965 26.2849C33.4637 26.4794 43.2184 26.6524 44.3194 33.2256H44.5635L44.4499 32.0008L44.375 28.941C44.2711 24.7124 34.6437 24.3486 24.4431 23.9632C12.3314 23.5055 -0.588467 23.0173 0.665829 15.9928C4.87797 18.7732 13.0229 18.8213 21.1477 18.8692C24.0674 18.8864 26.9844 18.9036 29.7155 19.0476ZM41.3841 11.7536L36.9168 19.9373C40.7848 20.8237 43.5441 22.4787 44.1755 25.5941H44.38L44.29 24.344L44.0046 10.7418H43.1956C42.3101 10.7418 41.8076 10.98 41.3841 11.7536Z" fill="#FA0055"></path>
<path d="M84.3096 40.906H89.9453C90.4571 40.906 90.9411 40.4986 91.0329 39.9927L95.2939 15.8169C95.3806 15.3127 95.0422 14.9044 94.5304 14.9044H88.8964C88.3863 14.9044 87.8989 15.3127 87.8114 15.8169L83.5487 39.9927C83.4569 40.4986 83.7995 40.906 84.3096 40.906Z" fill="#FA0055"></path>
<path d="M196.196 15.7925C194.862 20.1352 192.404 26.3189 190.259 31.4672C189.552 26.5815 188.858 20.7623 188.883 15.827C188.885 15.3186 188.482 14.9044 187.972 14.9044H182.437C182.437 14.9044 182.419 14.9044 182.399 14.9044C182.375 14.9044 182.17 15.2723 181.939 15.7293C180.806 17.9584 177.581 24.419 174.413 31.5648C174.004 25.9763 173.601 19.306 173.722 15.827C173.74 15.3177 173.358 14.9036 172.844 14.9036H167.21C166.698 14.9036 166.285 15.3177 166.289 15.8312C166.402 24.9922 168.413 36.6828 169.016 39.996C169.107 40.4977 169.601 40.9051 170.111 40.9051H174.247C174.759 40.9051 175.332 40.5213 175.528 40.0507C177.68 34.9361 180.453 29.2609 182.833 24.5949C183.374 31.8114 184.326 37.7906 184.704 39.9918C184.79 40.4977 185.28 40.9051 185.789 40.9051H189.534C190.046 40.9051 190.653 40.5364 190.889 40.0844C192.454 37.0978 197.969 26.3702 202.263 15.763C202.454 15.2891 202.194 14.9036 201.682 14.9036H197.386C196.876 14.9044 196.346 15.3042 196.196 15.7925Z" fill="#FA0055"></path>
<path d="M66.8503 15.8245C66.8958 15.3178 66.5204 14.9045 66.0103 14.9045H61.2408C60.7298 14.9045 60.2441 15.3127 60.154 15.8169L55.8896 39.9927C55.8021 40.4986 56.1455 40.906 56.6556 40.906H61.8957C62.4083 40.906 62.8949 40.4986 62.9832 39.9927L64.4067 31.9251C65.5709 25.3046 68.8512 20.1058 71.688 20.1058C73.5795 20.1058 74.274 21.5225 73.7739 24.3618L71.0188 39.9927C70.9304 40.4986 71.2722 40.906 71.7815 40.906H77.0232C77.535 40.906 78.0215 40.4986 78.1082 39.9927L81.1159 22.9426C82.1159 17.2673 79.3078 14.4305 75.5223 14.4305C71.7436 14.4305 68.5743 16.3254 66.4034 20.5789L66.8503 15.8245Z" fill="#FA0055"></path>
<path d="M112.816 20.1058C114.708 20.1058 115.403 21.5225 114.903 24.3618L112.148 39.9927C112.059 40.4986 112.399 40.906 112.91 40.906H118.151C118.662 40.906 119.148 40.4986 119.238 39.9927L120.662 31.9176C121.826 25.3046 125.11 20.1058 127.943 20.1058C129.834 20.1058 130.529 21.5225 130.031 24.3618L127.273 39.9927C127.181 40.4986 127.527 40.906 128.038 40.906H133.278C133.787 40.906 134.274 40.4986 134.363 39.9927L137.369 22.9426C138.371 17.2673 135.563 14.4305 131.78 14.4305C128.185 14.4305 125.143 16.1469 122.44 20.7826C122.452 16.5535 119.918 14.4305 116.654 14.4305C112.873 14.4305 109.701 16.3254 107.532 20.5789L107.975 15.8254C108.021 15.3186 107.645 14.9053 107.134 14.9053H102.367C101.856 14.9053 101.368 15.3136 101.28 15.8178L97.0187 39.9935C96.9278 40.4995 97.2729 40.9069 97.7805 40.9069H103.023C103.535 40.9069 104.02 40.4995 104.108 39.9935L105.531 31.926C106.702 25.3046 109.981 20.1058 112.816 20.1058Z" fill="#FA0055"></path>
<path d="M94.2114 0.960449C91.5994 0.960449 89.1102 3.07751 88.6506 5.68701C88.1877 8.29736 89.9327 10.4144 92.5455 10.4144C95.155 10.4144 97.6467 8.29651 98.1046 5.68701C98.5651 3.07751 96.8226 0.960449 94.2114 0.960449Z" fill="#FA0055"></path>
<path d="M201.72 40.906H207.354C207.865 40.906 208.353 40.4986 208.439 39.9927L212.704 15.8169C212.792 15.3127 212.45 14.9044 211.939 14.9044H206.303C205.793 14.9044 205.308 15.3127 205.22 15.8169L200.953 39.9927C200.866 40.4986 201.209 40.906 201.72 40.906Z" fill="#FA0055"></path>
<path d="M209.951 10.4144C212.564 10.4144 215.054 8.29651 215.514 5.68701C215.973 3.07751 214.233 0.960449 211.62 0.960449C209.008 0.960449 206.519 3.07751 206.06 5.68701C205.597 8.29736 207.342 10.4144 209.951 10.4144Z" fill="#FA0055"></path>
<path fill-rule="evenodd" clip-rule="evenodd" d="M145.23 41.3741C139.558 41.3741 138.109 36.1786 139.195 30.032C140.695 21.5225 146.672 14.4305 154.707 14.4305C158.96 14.4305 161.632 15.3775 163.83 16.3254L163.664 17.2673L160.91 32.8679C160.539 34.9766 160.478 37.4665 160.786 39.9885C160.845 40.4969 160.498 40.906 159.986 40.906H155.219C154.708 40.906 154.273 40.4902 154.245 39.9809L153.988 35.2611C151.883 38.9674 149.146 41.3741 145.23 41.3741ZM146.616 28.1422C145.699 33.3435 146.227 35.7056 148.593 35.7056C151.429 35.7056 154.71 30.5084 155.874 23.8912L156.372 21.0646C155.359 20.3339 154.351 20.1058 153.232 20.1058C150.399 20.1058 147.618 22.4695 146.616 28.1422Z" fill="#FA0055"></path>
<path fill-rule="evenodd" clip-rule="evenodd" d="M241.476 30.032C242.977 21.5225 248.955 14.4305 256.99 14.4305C261.244 14.4305 263.915 15.3775 266.11 16.3245L263.826 28.9798C263.374 31.3474 263.089 34.1439 262.862 36.3621C262.728 37.6762 262.615 38.7873 262.5 39.486C261.401 46.1612 255.547 51.775 247.507 51.775C243.93 51.775 242.171 51.4989 240.588 51.0839C240.096 50.9535 239.849 50.4475 240.035 49.9736L241.518 46.1789C241.7 45.705 242.248 45.4356 242.747 45.5543C244.537 45.9887 246.072 46.1031 248.51 46.1031C252.024 46.1031 255.124 44.0913 255.882 39.4868C256.144 37.89 256.241 36.3815 256.194 35.3924C254.279 38.6821 251.384 41.3741 247.51 41.3741C241.84 41.3741 240.394 36.1786 241.476 30.032ZM248.901 28.1422C247.981 33.3435 248.51 35.7056 250.876 35.7056C253.712 35.7056 256.99 30.5084 258.157 23.8912L258.657 21.0646C257.639 20.3339 256.634 20.1058 255.516 20.1058C252.68 20.1058 249.898 22.4695 248.901 28.1422Z" fill="#FA0055"></path>
<path d="M274.943 21.9981C275.226 20.5847 276.463 19.6327 279 19.6327C280.973 19.6327 282.958 19.8415 284.518 20.3221C285.005 20.4728 285.524 20.248 285.696 19.7724L286.864 16.487C287.034 16.008 286.785 15.4743 286.297 15.3178C284.433 14.7277 282.638 14.4297 279.767 14.4297C275.046 14.4297 269.498 17.2665 268.581 22.4686C267.702 27.4494 270.419 28.8931 275.186 30.1902C278.229 31.0152 279.374 31.9251 279.056 33.5767C278.744 35.2291 277.246 36.1778 275.04 36.1778C273.042 36.1778 270.435 35.6719 268.688 35.0826C268.206 34.9244 267.688 35.15 267.519 35.634L266.342 39.0053C266.174 39.4893 266.422 40.0356 266.901 40.2057C268.813 40.8875 270.951 41.3732 274.283 41.3732C278.536 41.3732 284.505 38.3681 285.421 33.1659C286.257 28.4427 283.729 26.2053 279.056 24.8315C276.099 23.9628 274.645 23.4922 274.943 21.9981Z" fill="#FA0055"></path>
<path d="M224.913 15.8245C224.959 15.3178 224.58 14.9045 224.074 14.9045H219.304C218.795 14.9045 218.308 15.3127 218.22 15.8169L213.955 39.9927C213.866 40.4986 214.211 40.906 214.722 40.906H219.962C220.471 40.906 220.957 40.4986 221.048 39.9927L222.471 31.9251C223.637 25.3046 226.917 20.1058 229.753 20.1058C231.642 20.1058 232.34 21.5225 231.838 24.3618L229.084 39.9927C228.995 40.4986 229.335 40.906 229.848 40.906H235.088C235.599 40.906 236.087 40.4986 236.172 39.9927L239.178 22.9426C240.182 17.2673 237.372 14.4305 233.592 14.4305C229.809 14.4305 226.637 16.3254 224.471 20.5789L224.913 15.8245Z" fill="#FA0055"></path>
</svg>
