<?xml version="1.0" encoding="UTF-8"?>
<!DOCTYPE svg PUBLIC "-//W3C//DTD SVG 1.1//EN" "http://www.w3.org/Graphics/SVG/1.1/DTD/svg11.dtd">
<!-- Creator: CorelDRAW X8 -->
<svg xmlns="http://www.w3.org/2000/svg" xml:space="preserve" width="200mm" height="38.26mm" version="1.1" style="shape-rendering:geometricPrecision; text-rendering:geometricPrecision; image-rendering:optimizeQuality; fill-rule:evenodd; clip-rule:evenodd"
viewBox="0 0 20000 3826"
 xmlns:xlink="http://www.w3.org/1999/xlink">
 <defs>
  <style type="text/css">
   <![CDATA[
    .fil3 {fill:#000007}
    .fil2 {fill:#E32225}
    .fil1 {fill:#000007;fill-rule:nonzero}
    .fil0 {fill:#E32225;fill-rule:nonzero}
   ]]>
  </style>
 </defs>
 <g id="Layer_x0020_1">
  <metadata id="CorelCorpID_0Corel-Layer"/>
  <g id="_1132911808">
   <path class="fil0" d="M19519 2303l-357 -690 -361 782c29,-25 77,-47 144,-65 67,-18 158,-27 272,-27l302 0zm-567 -1182l262 0 786 1661 -267 0 -107 -238 -497 0c-73,0 -141,5 -198,15 -57,9 -108,24 -148,39 -40,16 -74,35 -98,53 -24,18 -42,39 -51,54l-41 77 -258 0 706 -1460 -89 -201zm-1082 1661l0 -1633 234 0 0 1633 -234 0zm-2048 -1633l308 0 1049 1248 0 -1248 238 0 0 1633 -236 0 -935 -1123 0 1123 -234 0 0 -1403 -190 -230zm-584 1154l-357 -690 -361 782c29,-25 78,-47 145,-65 67,-18 157,-27 271,-27l302 0zm-567 -1182l263 0 786 1661 -267 0 -108 -238 -496 0c-74,0 -141,5 -199,15 -57,10 -107,24 -147,39 -41,16 -74,34 -99,53 -24,18 -41,38 -50,54l-42 77 -258 0 707 -1460 -90 -201zm-773 1215c0,82 -16,151 -49,207 -33,56 -77,102 -130,137 -53,35 -114,62 -181,78 -66,16 -135,24 -201,24l-829 0 0 -1633 828 0c68,0 132,10 191,30 59,20 111,49 153,87 43,37 77,84 101,140 24,55 36,119 36,191 0,70 -13,134 -37,190 -25,57 -61,101 -110,132 28,13 57,32 84,56 28,23 53,54 73,88 20,35 38,76 51,121 13,44 20,95 20,152zm-1151 205l613 0c32,0 67,-5 102,-14 35,-9 69,-24 97,-43 29,-19 54,-45 72,-74 19,-30 28,-66 28,-106 0,-48 -9,-88 -28,-118 -18,-30 -44,-55 -74,-72 -30,-17 -66,-30 -104,-37 -38,-6 -78,-11 -117,-11l-279 0c-52,0 -105,5 -157,14 -53,8 -104,25 -153,52l0 409zm0 -650c49,-29 100,-48 152,-54 51,-7 104,-11 158,-11l279 0c74,0 133,-19 177,-56 43,-38 65,-95 65,-171 0,-77 -23,-132 -67,-162 -45,-31 -104,-47 -175,-47l-589 0 0 501zm-1621 891l0 -1633 238 0 0 1392 906 0 0 241 -1144 0zm-742 -479l-357 -690 -361 782c29,-25 78,-47 145,-65 67,-18 157,-27 271,-27l302 0zm-567 -1182l263 0 786 1661 -267 0 -108 -238 -496 0c-74,0 -141,5 -199,15 -57,10 -107,23 -147,39 -41,16 -74,34 -99,53 -24,18 -41,38 -50,54l-42 77 -258 0 707 -1460 -90 -201z"/>
   <path class="fil1" d="M7805 2106l-191 0c-53,0 -105,4 -157,12 -52,8 -103,25 -152,51l0 613 -239 0 0 -1633 859 0c75,0 144,11 206,32 63,21 118,53 164,93 46,41 82,91 107,151 26,60 38,129 38,206 0,124 -33,226 -100,304 -67,79 -160,133 -278,162l127 261c20,41 49,68 68,91 19,23 38,42 55,56 18,14 37,24 55,29 20,5 42,8 69,7l77 -2 0 243c-47,0 -94,-2 -142,-4 -47,-3 -93,-13 -137,-29 -43,-16 -86,-42 -125,-76 -39,-35 -74,-85 -105,-149l-199 -418zm-500 -177c49,-29 100,-48 151,-54 50,-6 103,-10 157,-10l311 0c83,0 150,-20 201,-59 51,-38 77,-101 77,-188 0,-42 -8,-78 -22,-106 -14,-29 -35,-53 -59,-71 -25,-18 -54,-31 -88,-39 -33,-8 -70,-12 -109,-12l-619 0 0 539zm-900 853l0 -1633 234 0 0 1633 -234 0zm-742 -479l-357 -690 -361 782c29,-25 78,-47 145,-65 67,-18 157,-27 271,-27l302 0zm-567 -1182l263 0 786 1661 -267 0 -108 -238 -497 0c-74,0 -140,5 -198,15 -57,10 -106,23 -147,39 -41,16 -74,34 -99,53 -25,19 -41,37 -50,54l-42 77 -258 0 707 -1460 -90 -201z"/>
   <g>
    <circle class="fil2" cx="1913" cy="1913" r="1913"/>
    <path class="fil3" d="M1847 2816c-540,263 -992,303 -1355,378 84,92 176,177 276,251 504,-158 911,-285 1079,-629zm1266 -2186c-534,882 -1819,781 -2497,1358 -172,145 -386,427 -459,686 301,-254 524,-334 897,-424 836,-203 1724,-226 2059,-1620zm-677 1373c-946,510 -1450,209 -2196,838 42,76 89,148 141,217 274,-47 1718,-169 2055,-1055z"/>
   </g>
  </g>
 </g>
</svg>
