<?xml version="1.0" encoding="UTF-8" standalone="no"?>
<svg
   xmlns:dc="http://purl.org/dc/elements/1.1/"
   xmlns:cc="http://creativecommons.org/ns#"
   xmlns:rdf="http://www.w3.org/1999/02/22-rdf-syntax-ns#"
   xmlns:svg="http://www.w3.org/2000/svg"
   xmlns="http://www.w3.org/2000/svg"
   width="500"
   height="200"
   viewBox="0 0 132.29166 52.916668"
   version="1.1"
   id="svg8">
  <defs
     id="defs2">
    <rect
       x="100.91964"
       y="46.302082"
       width="19.087797"
       height="36.474701"
       id="rect853" />
  </defs>
  <metadata
     id="metadata5">
    <rdf:RDF>
      <cc:Work
         rdf:about="">
        <dc:format>image/svg+xml</dc:format>
        <dc:type
           rdf:resource="http://purl.org/dc/dcmitype/StillImage" />
        <dc:title></dc:title>
      </cc:Work>
    </rdf:RDF>
  </metadata>
  <g
     id="layer1">
    <path
       id="path911-4-99"
       style="fill:#ffcd00;fill-opacity:1;stroke:none;stroke-width:0.124704px;stroke-linecap:butt;stroke-linejoin:miter;stroke-opacity:1"
       d="m 102.30101,33.349154 c 0.94435,-0.579774 1.97016,-1.086682 2.97605,-1.810822 l 6.80239,-4.897091 c 5.66791,-3.827975 11.32638,-7.217451 16.9115,-7.196053 v 3.905079 c -3.25577,0 -8.62641,2.056254 -13.66449,5.686387 l -8.30156,5.981604 8.30156,5.981605 c 5.03808,3.630128 10.40872,5.686387 13.66449,5.686387 v 3.90508 c -5.58512,0.0214 -11.24359,-3.368079 -16.9115,-7.196054 l -6.80239,-4.897091 c -1.00589,-0.72414 -2.0317,-1.231048 -2.97605,-1.810822 z" />
    <path
       id="path911-4-9"
       style="fill:#4c12a1;fill-opacity:1;stroke:none;stroke-width:0.124704px;stroke-linecap:butt;stroke-linejoin:miter;stroke-opacity:1"
       d="m 102.30101,24.775745 c 0.94435,-0.579774 1.97016,-1.086682 2.97605,-1.810822 l 6.80239,-4.897091 c 5.66791,-3.827975 11.32638,-7.21745 16.9115,-7.196052 v 3.905079 c -3.25577,0 -8.62641,2.056254 -13.66449,5.686387 l -8.30156,5.981604 8.30156,5.981605 c 5.03808,3.630128 10.40872,5.686386 13.66449,5.686386 v 3.905079 c -5.58512,0.0214 -11.24359,-3.368077 -16.9115,-7.196052 l -6.80239,-4.897091 c -1.00589,-0.72414 -2.0317,-1.231048 -2.97605,-1.810822 z" />
    <text
       xml:space="preserve"
       id="text851"
       style="font-size:10.5833px;line-height:1.25;font-family:'Ascent Pro Demo';-inkscape-font-specification:'Ascent Pro Demo';white-space:pre;shape-inside:url(#rect853);" />
    <g
       aria-label="a  elo"
       id="text835"
       style="font-size:84.65px;line-height:1.25;font-family:'Ascent Pro Demo';-inkscape-font-specification:'Ascent Pro Demo';stroke-width:2.11625" />
    <g
       aria-label="w"
       id="text835-1"
       style="font-size:84.65px;line-height:1.25;font-family:'Ascent Pro Demo';-inkscape-font-specification:'Ascent Pro Demo';fill:#4c12a1;fill-opacity:1;stroke-width:2.11625"
       transform="matrix(0.47132278,0,0,0.47132278,8.4846932,-29.575361)">
      <path
         id="path906"
         style="fill:#4c12a1;fill-opacity:1;stroke-width:2.17453"
         d="m 68.314076,98.016216 h -9.4739 l -5.183832,32.167004 c -0.26813,1.5237 -1.519401,2.28555 -3.0388,2.28555 -1.519399,0 -2.770669,-0.76185 -3.038798,-2.28555 L 41.948031,98.016216 h -9.4739 l 6.166973,33.606054 c 1.072517,5.9255 5.809467,9.56545 11.97644,9.56545 6.166974,0 10.367666,-3.63995 11.440183,-9.56545 l 1.519399,-7.9571 z M 160.802,141.27994 c 12.1896,0 22.009,-9.90405 22.009,-22.009 0,-12.1896 -9.8194,-22.008996 -22.009,-22.008996 -12.10495,0 -22.009,9.819396 -22.009,22.008996 0,12.10495 9.90405,22.009 22.009,22.009 z m 0,-8.465 c -7.19525,0 -13.12075,-6.0948 -13.12075,-13.544 0,-7.53385 5.9255,-13.544 13.12075,-13.544 7.2799,0 13.12075,6.01015 13.12075,13.544 0,7.4492 -5.84085,13.544 -13.12075,13.544 z m -37.4998,7.6185 h 8.88825 V 81.178444 h -8.88825 z m -6.77194,-24.2099 c -1.26975,-10.75055 -10.4966,-18.961596 -21.585754,-18.961596 -12.1896,0 -22.009001,9.819396 -22.009001,22.008996 0,12.1896 9.819401,22.009 22.009001,22.009 9.311504,0 16.252804,-4.2325 20.146704,-10.58125 l -6.772,-3.47065 c -2.5395,3.8939 -6.772,6.51805 -12.697504,6.51805 -7.4492,0 -12.6975,-5.2483 -13.7133,-12.44355 h 34.875804 c 0.0846,-1.693 0,-3.2167 -0.25395,-5.079 z M 94.944506,103.61069 c 6.010154,0 11.004504,3.7246 12.528204,9.3115 0.25395,0.8465 0.42325,1.94695 0.5079,2.96275 H 81.908406 c 1.10045,-7.2799 6.0948,-12.27425 13.0361,-12.27425 z M 8.5623615,97.261944 c -7.7878005,0 -14.3058505,2.878096 -18.2844005,7.110596 l 3.80925,4.9097 c 3.63995,-3.30135 8.04175,-4.9097 12.6975005,-4.9097 6.6027005,0 10.8352005,3.8939 11.5970505,10.24265 -3.63995,-0.59255 -7.19525,-0.8465 -10.6659005,-0.8465 -12.6975005,0 -19.9774005,4.99435 -19.9774005,13.8826 0,7.70315 6.51805,13.62865 15.5756004,13.62865 6.6027002,0 11.9356506,-2.79345 15.7449006,-7.19525 l 0.1693,6.34875 h 8.1264 v -23.78665 c 0,-11.6817 -7.4492,-19.384846 -18.7923005,-19.384846 z m -3.63995,37.669246 c -5.3329505,0 -8.8882505,-3.386 -8.8882505,-7.7878 0,-5.2483 4.31715,-8.21105 11.9356505,-8.21105 3.3860005,0 6.9413005,0.5079 10.4966005,1.26975 -0.1693,8.54965 -5.84085,14.7291 -13.5440005,14.7291 z" />
    </g>
    <path
       id="path911-4"
       style="fill:#00c1d4;fill-opacity:1;stroke:none;stroke-width:0.124704px;stroke-linecap:butt;stroke-linejoin:miter;stroke-opacity:1"
       d="m 102.30101,16.088842 c 0.94435,-0.579774 1.97016,-1.086681 2.97605,-1.810822 l 6.80239,-4.8970907 c 5.66791,-3.8279748 11.32638,-7.2174501 16.9115,-7.196052 v 3.9050788 c -3.25577,0 -8.62641,2.0562541 -13.66449,5.6863869 l -8.30156,5.981604 8.30156,5.981605 c 5.03808,3.630128 10.40872,5.686386 13.66449,5.686386 v 3.905079 c -5.58512,0.0214 -11.24359,-3.368077 -16.9115,-7.196052 l -6.80239,-4.897091 c -1.00589,-0.72414 -2.0317,-1.231048 -2.97605,-1.810822 z" />
  </g>
</svg>
