<?xml version="1.0" encoding="utf-8"?>
<svg version="1.1" width="427" height="87" viewBox="0 0 427 87" fill="none" xmlns="http://www.w3.org/2000/svg">
<path d="M24.7003 14.705C26.8187 8.71078 32.4856 4.70303 38.8432 4.70303H107.209L82.2546 73.061C80.094 78.9797 74.4648 82.9172 68.1641 82.9172H0.594254L24.7003 14.705Z" fill="#0B2648"/>
<circle cx="53.9014" cy="43.8101" r="36.3977" fill="url(#paint0_radial)"/>
<path d="M50.6782 41.7513L38.2298 0.849487L55.3463 40.1952L101.419 26.4131L56.4577 45.0856L68.2392 86.432L52.0119 46.4194L5.77513 59.7569L50.6782 41.7513Z" fill="white"/>
<path fill-rule="evenodd" clip-rule="evenodd" d="M163.451 20.1194H154.224V28.3488H163.451V20.1194ZM163.451 33.5857H154.224V66.5033H163.451V33.5857ZM131.281 60.0196C126.294 60.0196 123.052 58.0245 122.054 53.7852H112.578C113.576 61.7652 119.311 67.2514 130.533 67.2514C142.254 67.2514 148.239 61.7652 148.239 53.7852C148.239 47.5508 145.496 42.8126 132.778 39.8201C125.546 38.0745 123.8 36.8276 123.8 33.8351C123.8 30.5932 126.294 29.097 130.034 29.097C135.521 29.097 137.017 32.0895 137.516 35.082H146.743C145.995 28.5982 141.506 22.3638 129.785 22.3638C119.561 22.3638 113.825 27.3513 113.825 35.082C113.825 40.8176 116.818 45.3064 128.788 48.0495C136.518 49.5458 138.513 51.2914 138.513 54.7827C138.513 58.0245 136.269 60.0196 131.281 60.0196ZM170.932 42.5633V33.5857H179.91C179.91 33.8817 179.949 34.5681 179.996 35.3977V35.3978L179.996 35.3981L179.996 35.3983V35.3984L179.996 35.3988L179.996 35.3993C180.068 36.6663 180.159 38.2669 180.159 39.3214C181.655 35.5807 185.147 32.8376 190.633 32.8376V41.5658C183.9 41.3164 180.159 43.062 180.159 52.2889V66.7527H170.932V42.5633ZM204.348 20.1194H195.122V28.3488H204.348V20.1194ZM204.348 33.5857H195.122V66.5033H204.348V33.5857ZM240.757 57.027V66.5033H231.78C231.53 65.5058 231.53 63.7602 231.53 62.7627C229.535 66.0046 226.792 67.2514 222.553 67.2514C215.82 67.2514 211.58 63.2614 211.58 55.032V33.5857H220.558V53.2864C220.558 57.027 221.805 60.0196 225.545 60.0196C229.785 60.0196 231.53 57.7752 231.53 51.2914V33.8351H240.757V57.027ZM260.707 60.5183C257.216 60.5183 255.221 59.2714 254.473 56.5283V56.7777H245.745C246.244 62.7627 250.483 67.5008 260.458 67.5008C270.433 67.5008 274.672 62.5133 274.672 57.0271C274.672 52.0395 273.176 48.2989 262.204 45.8051C256.717 44.5583 255.72 43.8101 255.72 42.0645C255.72 40.5683 256.717 39.3214 259.71 39.3214C263.949 39.3214 264.697 41.5658 264.697 42.5633H273.426C273.176 38.0745 269.685 32.5882 259.71 32.5882C249.984 32.5882 246.493 37.8251 246.493 42.5633C246.493 47.3014 248.239 50.5433 258.962 53.2864C263.7 54.2839 265.196 55.2814 265.196 57.2764C265.196 59.2714 263.949 60.5183 260.707 60.5183ZM304.099 56.2789L300.607 66.5033H291.381L306.343 22.6132H318.313L333.774 66.5033H323.799L320.308 56.2789H304.099ZM318.064 48.5483C316.88 44.8999 315.853 41.7584 314.966 39.0466L314.965 39.0432C313.61 34.8985 312.583 31.758 311.829 29.3463C310.973 32.9877 309.196 38.653 307.131 45.2358L307.131 45.2361L307.126 45.2543C306.788 46.3294 306.443 47.429 306.094 48.5483H318.064ZM344.75 52.2889C344.831 56.2042 346.835 60.2689 351.231 60.2689C354.971 60.2689 356.218 58.7727 356.966 56.7777H366.193C364.946 60.7677 361.455 67.5008 350.981 67.5008C340.258 67.5008 335.52 59.5208 335.52 50.7927C335.52 40.5683 340.757 33.087 351.48 33.087C362.702 33.087 366.692 41.3164 366.692 49.5458V52.2889H344.75ZM351.48 39.3214C355.969 39.3214 357.465 42.5633 357.465 46.3039H344.996C345.246 42.3139 347.241 39.3214 351.48 39.3214ZM372.428 42.5633V33.5857H381.405C381.405 33.8817 381.444 34.5681 381.491 35.3977C381.563 36.6649 381.655 38.2664 381.655 39.3214C383.151 35.5807 386.642 32.8376 392.128 32.8376V41.5658C385.395 41.3164 381.655 43.062 381.655 52.2889V66.7527H372.428V42.5633ZM410.333 67.2515C420.807 67.2515 426.792 60.0196 426.792 50.0445C426.792 39.5708 420.557 32.8376 410.832 32.8376C400.358 32.8376 394.123 39.8201 394.123 50.0445C394.123 60.0196 400.108 67.2515 410.333 67.2515ZM410.832 60.0196C406.343 60.0196 403.6 56.2789 403.6 50.0445C403.6 43.062 406.343 40.0695 410.832 39.8201C415.32 39.8201 417.814 43.062 417.814 50.0445C417.814 56.2789 415.32 60.0196 410.832 60.0196Z" fill="#0B2648"/>
<defs>
<radialGradient id="paint0_radial" cx="0" cy="0" r="1" gradientUnits="userSpaceOnUse" gradientTransform="translate(53.9014 43.8101) rotate(90) scale(36.3977)">
<stop offset="0.161458" stop-color="#EDF7FD"/>
<stop offset="0.385417" stop-color="#1199DE"/>
<stop offset="0.723958" stop-color="#014474"/>
<stop offset="0.973958" stop-color="#0B2648"/>
</radialGradient>
</defs>
</svg>
