<?xml version="1.0" encoding="utf-8"?>
<!-- Generator: Adobe Illustrator 17.0.0, SVG Export Plug-In . SVG Version: 6.00 Build 0)  -->
<!DOCTYPE svg PUBLIC "-//W3C//DTD SVG 1.1//EN" "http://www.w3.org/Graphics/SVG/1.1/DTD/svg11.dtd">
<svg version="1.1" id="Layer_1" xmlns="http://www.w3.org/2000/svg" xmlns:xlink="http://www.w3.org/1999/xlink" x="0px" y="0px"
	 width="130px" height="60px" viewBox="0 0 130 60" enable-background="new 0 0 130 60" xml:space="preserve">
<linearGradient id="SVGID_1_" gradientUnits="userSpaceOnUse" x1="64.9993" y1="60" x2="64.9993" y2="-1.327862e-10">
        <stop offset="0" stop-color="#161998" />
        <stop offset=".129" stop-color="#441e93" />
        <stop offset=".266" stop-color="#6e228f" />
        <stop offset=".407" stop-color="#90258c" />
        <stop offset=".549" stop-color="#ab2889" />
        <stop offset=".694" stop-color="#be2a87" />
        <stop offset=".842" stop-color="#c92b86" />
        <stop offset="1" stop-color="#cd2b86" />
</linearGradient>
<path fill="url(#SVGID_1_)" d="M95.53,21.298h12.558L93.216,40.747H80.654L95.53,21.298z M94.586,19.398L78.777,40.08
	c-0.378,0.493-0.44,1.116-0.163,1.667c0.267,0.545,0.833,0.898,1.432,0.898h14.113l15.937-20.839
	c0.348-0.467,0.399-1.073,0.151-1.585c-0.255-0.51-0.774-0.823-1.359-0.823H94.586z M49.437,9.288
	c0.081-0.136,0.232-0.227,0.401-0.227h8.236l1.183-6.798c0.04-0.211,0.225-0.36,0.445-0.36l7.708-0.006
	c0.141,0,0.256,0.043,0.337,0.134c0.084,0.105,0.126,0.245,0.106,0.369l-0.767,4.399l36.237,0.026c0.196,0,0.336,0.119,0.405,0.232
	c0.042,0.084,0.1,0.255-0.019,0.417l-3.272,4.272l26.856-0.007c0.156,0,0.268,0.098,0.312,0.186
	c0.043,0.063,0.078,0.195-0.004,0.316l-22.32,29.215c-0.254,0.318-0.243,1.126-0.066,1.472c0.184,0.348,0.821,0.844,1.22,0.844
	l15.7,0.016c0.182,0,0.289,0.094,0.338,0.15c0.085,0.098,0.122,0.229,0.102,0.356l-1.194,6.827
	c-0.038,0.207-0.225,0.357-0.446,0.357H61.204l-0.982-0.006c0.073,0.338,0.102,0.689,0.102,1.047c0,3.071-2.489,5.561-5.565,5.561
	c-3.074,0-5.565-2.49-5.565-5.561c0-3.072,2.491-5.559,5.565-5.559c2.099,0,3.929,1.163,4.881,2.88l24.344-31.907
	c0.391-0.824,0.196-1.119-0.015-1.604c-0.157-0.366-0.744-0.742-1.384-0.736h-17.04l-4.354,24.856
	c-0.042,0.195-0.229,0.332-0.438,0.332h-7.713c-0.179,0-0.289-0.096-0.341-0.153c-0.047-0.056-0.132-0.179-0.099-0.356l4.729-26.98
	L38.092,50.993c-0.173,0.303-0.493,0.498-0.854,0.498l-6.552,0.032c-0.234,0-0.426-0.167-0.447-0.367l-1.807-27.388L14.219,51
	c-0.17,0.3-0.498,0.494-0.85,0.494L6.723,51.49c-0.228,0-0.422-0.168-0.441-0.384L1.947,9.531c-0.01-0.13,0.035-0.258,0.113-0.346
	C2.141,9.104,2.257,9.06,2.397,9.06h8.933c0.244,0,0.449,0.198,0.449,0.459l1.34,27.123L26.257,9.294
	c0.071-0.142,0.23-0.234,0.397-0.234l8.144-0.035c0.225,0,0.426,0.17,0.44,0.37l1.324,27.333L49.437,9.288z M59.323,0
	c-0.92,0-1.702,0.657-1.867,1.569l-0.981,5.59h-6.927c-0.707,0-1.339,0.381-1.699,1.041l-9.751,20.793L37.13,8.891
	c-0.083-0.973-0.907-1.732-1.892-1.732h-8.866c-0.708,0-1.361,0.394-1.699,1.045L14.647,29.076l-0.99-20.023
	c0-1.046-0.852-1.893-1.896-1.893H1.899c-0.539,0-1.039,0.21-1.401,0.591C0.148,8.135-0.032,8.67,0.005,9.229L4.426,51.69
	c0.106,0.961,0.918,1.686,1.888,1.686l7.331,0.003c0.9,0,1.719-0.491,2.143-1.289l11.196-21.444l1.38,21.044
	c0.111,0.961,0.92,1.686,1.884,1.686l7.277,0.003c0.896,0,1.723-0.497,2.146-1.299l13.606-26.67l-2.635,15.041
	c-0.1,0.554,0.055,1.118,0.412,1.555c0.359,0.427,0.891,0.675,1.452,0.675h8.624c0.896,0,1.658-0.624,1.858-1.522l4.149-23.671
	h14.815L59.564,46.783c-1.34-1.12-3.035-1.731-4.789-1.731c-4.117,0-7.478,3.354-7.478,7.473c0,4.122,3.361,7.475,7.478,7.475
	c3.783,0,7.003-2.889,7.438-6.622l59.105-0.003c0.931,0,1.713-0.661,1.865-1.571l1.353-7.693c0.094-0.553-0.063-1.12-0.42-1.545
	c-0.356-0.425-0.885-0.669-1.45-0.669l-15.328-0.014l22.348-29.237c0.38-0.567,0.414-1.251,0.1-1.839
	c-0.307-0.595-0.922-0.968-1.594-0.968h-23.915l1.516-1.979c0.398-0.594,0.437-1.317,0.102-1.949
	c-0.334-0.62-0.975-1.014-1.671-1.014H69.342l0.478-2.682c0.09-0.549-0.076-1.131-0.441-1.561C69.024,0.232,68.514,0,67.943,0
	H59.323z"/>
</svg>
