<?xml version="1.0" encoding="UTF-8"?>
<!DOCTYPE svg PUBLIC "-//W3C//DTD SVG 1.1//EN" "http://www.w3.org/Graphics/SVG/1.1/DTD/svg11.dtd">
<!-- Creator: CorelDRAW X7 -->
<svg xmlns="http://www.w3.org/2000/svg" xml:space="preserve" width="54.1867mm" height="11.8744mm" version="1.1" style="shape-rendering:geometricPrecision; text-rendering:geometricPrecision; image-rendering:optimizeQuality; fill-rule:evenodd; clip-rule:evenodd"
viewBox="0 0 5419 1187"
 xmlns:xlink="http://www.w3.org/1999/xlink">
 <defs>
  <style type="text/css">
   <![CDATA[
    .fil0 {fill:#002B6C;fill-rule:nonzero}
   ]]>
  </style>
 </defs>
 <g id="Слой_x0020_1">
  <metadata id="CorelCorpID_0Corel-Layer"/>
  <g id="_2987870412640">
   <g>
    <path class="fil0" d="M3797 98c-3,-28 -10,-56 -27,-72 -16,-16 -44,-22 -72,-25 -26,-2 -55,-1 -89,2 7,3 13,7 19,12 16,15 24,41 27,66 2,18 3,38 3,60 -1,35 -7,76 -19,122 -8,29 -16,56 -26,79 0,0 0,0 0,1 18,11 36,20 52,27 24,9 50,15 71,9 6,-2 13,-6 19,-10 0,0 0,0 0,-1 8,-21 15,-44 22,-70l0 0c10,-40 17,-77 20,-110 3,-34 3,-64 0,-90z"/>
    <path class="fil0" d="M3650 406c-17,-7 -35,-16 -54,-27 -30,-19 -62,-44 -96,-77l0 -1c-22,-21 -40,-42 -55,-62 -1,0 -1,0 -1,0 -19,10 -35,21 -49,31 -20,16 -38,35 -43,57 -2,7 -2,14 -1,22 0,0 0,0 0,0 15,18 31,35 50,54 30,29 59,53 86,73 27,19 53,34 77,45 25,11 53,19 75,12 22,-6 42,-27 58,-49 15,-22 30,-48 43,-79 -6,5 -13,8 -19,11 -22,6 -48,0 -71,-10z"/>
    <path class="fil0" d="M3326 318c0,-8 0,-15 1,-22 5,-22 23,-41 44,-57 14,-11 31,-22 50,-32 32,-17 70,-32 115,-45 30,-8 57,-14 82,-17 0,0 0,0 0,0 1,-22 0,-41 -3,-59 -3,-25 -11,-51 -27,-66 -5,-4 -11,-8 -18,-11 0,0 0,0 -1,0 -22,4 -46,9 -71,16 -40,11 -75,24 -106,38 -30,14 -56,29 -77,44 -23,16 -43,37 -49,59 -6,23 2,51 14,76 11,24 27,49 46,76z"/>
    <path class="fil0" d="M1029 803l0 -3c35,-7 64,-30 64,-79 0,-58 -49,-79 -97,-85 -21,-3 -47,-3 -65,-2l-153 0 0 372 129 0c14,0 35,0 51,0 67,-4 150,-28 150,-114 0,-53 -29,-80 -79,-89zm-141 -99l0 0 43 0c44,0 60,14 60,37 0,28 -27,37 -71,37l-32 0 0 -74zm41 231l0 0 -44 0 0 -91 39 0c51,0 78,12 78,45 0,35 -36,46 -73,46z"/>
    <path class="fil0" d="M266 922c-93,0 -149,-79 -149,-179 0,-89 45,-174 160,-174 33,0 69,5 114,32l0 -95c-34,-18 -73,-24 -118,-24 -170,0 -273,121 -273,269 0,146 88,262 249,262 50,0 101,-9 160,-47l-28 -75c-39,21 -73,31 -115,31z"/>
    <path class="fil0" d="M572 626c-112,0 -174,90 -174,195 0,98 54,192 187,192 45,0 95,-10 147,-42l-24 -68c-42,20 -69,27 -105,27 -50,0 -97,-31 -99,-81l240 0 0 -33c0,-115 -70,-190 -172,-190zm-70 150l0 0c0,-34 24,-72 67,-72 45,0 65,36 67,72l-134 0z"/>
    <path class="fil0" d="M2094 931c-68,0 -97,-57 -97,-115 0,-65 38,-110 99,-110 29,0 51,6 77,26l0 -85c-20,-11 -45,-21 -93,-21 -108,0 -189,78 -189,195 0,105 61,192 180,192 38,0 90,-14 121,-35l-25 -69c-28,14 -54,22 -73,22z"/>
    <polygon class="fil0" points="2192,633 2192,718 2296,718 2296,1006 2402,1006 2402,718 2492,718 2518,633 "/>
    <path class="fil0" d="M2912 677c0,130 -5,198 -28,229 -12,15 -31,25 -50,28l30 79c24,0 62,-11 87,-37 34,-33 45,-75 51,-119 4,-38 7,-82 7,-121l0 -18 83 0 0 288 106 0 0 -373 -286 0 0 44z"/>
    <path class="fil0" d="M2671 626c-51,0 -99,7 -150,41l32 65c24,-15 57,-26 95,-26 36,0 68,15 68,54l0 8 -63 2c-94,3 -157,43 -157,122 0,74 53,121 123,121 48,0 78,-17 103,-40l17 33 83 0 0 -243c0,-98 -53,-137 -151,-137zm44 288l0 0c-9,8 -29,17 -57,17 -36,0 -56,-18 -56,-47 0,-28 21,-43 67,-45l46 -1 0 76z"/>
    <path class="fil0" d="M1303 626c-111,0 -174,90 -174,195 0,98 55,192 188,192 45,0 95,-10 147,-42l-24 -68c-42,20 -69,27 -106,27 -49,0 -96,-31 -98,-81l240 0 0 -33c0,-115 -71,-190 -173,-190zm-70 150l0 0c0,-34 25,-72 68,-72 45,0 64,36 67,72l-135 0z"/>
    <path class="fil0" d="M1711 626c-41,0 -73,20 -100,41l-12 -34 -89 0 0 554 106 -32 0 -157c19,10 45,15 72,15 110,0 176,-93 176,-204 0,-118 -67,-183 -153,-183zm-49 311l0 0c-19,0 -34,-7 -46,-15l0 -176c13,-20 46,-42 74,-42 43,0 68,27 68,104 0,63 -24,129 -96,129z"/>
    <path class="fil0" d="M3404 755l-55 0 0 -138 -106 33 0 356 135 0c99,0 192,-26 192,-129 0,-87 -75,-122 -166,-122zm-18 177l0 0 -37 0 0 -104 35 0c38,0 79,6 79,51 0,43 -35,53 -77,53z"/>
   </g>
   <g>
    <path class="fil0" d="M4408 906l-172 0 -39 100 -51 0 151 -373 53 0 151 373 -54 0 -39 -100zm-17 -43l0 0 -69 -174 -69 174 138 0z"/>
    <path class="fil0" d="M4541 716l141 0c55,0 92,27 92,74 0,33 -18,55 -46,65 34,10 57,37 57,74 0,50 -37,77 -96,77l-148 0 0 -290zm47 38l0 0 0 85 87 0c30,0 51,-15 51,-45 0,-26 -20,-40 -51,-40l-87 0zm0 121l0 0 0 94 93 0c34,0 56,-15 56,-46 0,-31 -25,-48 -58,-48l-91 0z"/>
    <polygon class="fil0" points="4842,716 4890,716 4890,939 5043,716 5091,716 5091,1006 5043,1006 5043,783 4890,1006 4842,1006 "/>
    <path class="fil0" d="M5273 711c73,0 116,33 116,109l0 129c0,18 8,24 21,24 3,0 7,-1 9,-1l-2 35c-6,2 -15,3 -21,3 -35,0 -51,-17 -51,-51l0 -4c-22,36 -60,56 -107,56 -61,0 -99,-32 -99,-83 0,-52 35,-82 105,-89l100 -9 0 -7c0,-53 -28,-73 -72,-73 -43,0 -73,20 -77,60l-46 -7c10,-61 56,-92 124,-92zm-29 261l0 0c57,0 101,-38 101,-88l0 -18 -93 9c-45,4 -66,21 -66,50 0,30 20,47 58,47z"/>
   </g>
  </g>
 </g>
</svg>
