<?xml version="1.0" encoding="utf-8"?>
<!-- Generator: Adobe Illustrator 18.0.0, SVG Export Plug-In . SVG Version: 6.00 Build 0)  -->
<!DOCTYPE svg PUBLIC "-//W3C//DTD SVG 1.1//EN" "http://www.w3.org/Graphics/SVG/1.1/DTD/svg11.dtd">
<svg version="1.1" xmlns="http://www.w3.org/2000/svg" xmlns:xlink="http://www.w3.org/1999/xlink"  x="0px" y="0px" width="106px" height="40px" viewBox="0 0 106 40" fill="none" style="enable-background:new 0 0 94 30;" xml:space="preserve">
<path d="M104.41 19.8797L104.386 19.8637C102.715 18.7751 101.448 17.9346 100.616 17.3716L100.6 17.361C98.7372 16.3177 97.1203 15.7814 95.7969 15.7707H95.7862H95.7755C92.7712 16.0269 90.3832 17.2009 88.6729 19.2553C87.7124 20.4267 87.2188 21.606 87.2108 22.7613C87.2055 23.4657 87.4056 24.1167 87.8058 24.6957C87.8218 24.9838 87.9499 25.216 88.1767 25.3734C88.8117 26.1258 89.7429 26.8409 90.9435 27.4999C91.5359 27.8201 92.6085 28.3163 94.132 28.9727C95.2179 29.4423 96.3118 29.9092 97.3791 30.3521C98.5797 30.9365 99.5349 31.5261 100.229 32.1051V32.1398C100.229 32.1798 100.223 32.2038 100.221 32.2118L100.125 32.2759C99.9832 32.2865 99.8524 32.3266 99.7297 32.3959C99.647 32.444 99.5269 32.4733 99.3775 32.4893L99.3402 32.4947C98.6811 32.6654 97.6913 32.7108 96.3919 32.6307C95.2259 32.5667 94.0466 32.4199 92.8833 32.1905C90.2551 31.6835 88.3127 31.0672 87.1067 30.3628L87.0374 30.2774L87.1147 30.2401L87.1494 30.1921C87.1815 30.1467 87.2775 30.0453 87.5763 29.8772L87.6884 29.8132V29.6824C87.6911 29.5037 87.7338 29.3543 87.8191 29.2262L87.8325 29.2022C87.8912 29.0874 87.8965 28.9647 87.8485 28.8526C87.7738 28.6819 87.5924 28.5538 87.2615 28.4471C87.2081 28.3537 87.1014 28.263 86.888 28.2123L86.8639 28.207C86.6825 28.1856 86.4611 28.1829 86.1809 28.2016C85.6339 28.2523 85.247 28.3404 85.0042 28.4684C84.5133 28.4818 83.7609 28.7059 83.7502 29.9546C83.7476 30.1947 83.7716 30.3441 83.8249 30.4429C83.9717 30.8111 84.2172 31.1659 84.5507 31.5021C82.4909 32.7214 80.5058 32.9669 77.304 32.9429C75.0894 32.1371 74.0969 30.6243 74.3317 28.4044C74.4438 27.9748 74.6599 27.7614 74.9827 27.764C77.8083 28.2897 79.2758 28.5698 79.3825 28.6045C80.8873 28.7246 82.144 28.3217 83.1526 27.3985C84.8842 25.8003 85.7567 24.2314 85.77 22.6892C85.786 20.7548 84.4039 18.8818 81.6237 17.0675C80.946 16.6672 79.8387 16.2457 78.3019 15.8054C77.6215 15.6213 76.9785 15.5253 76.3702 15.5199C75.7965 15.5146 75.2415 15.584 74.7026 15.7227C73.1524 16.75 71.8183 18.028 70.695 19.5595C69.0648 21.8408 68.2403 24.1621 68.2217 26.526C68.211 27.8227 68.4378 28.9967 68.8994 30.056C66.2045 31.9103 63.0428 32.8255 59.4115 32.7962C57.1969 31.9904 56.2044 30.4775 56.4392 28.2577C56.5512 27.8281 56.7673 27.6146 57.0902 27.6173C59.9157 28.1429 61.3832 28.4231 61.4899 28.4578C62.9948 28.5778 64.2515 28.1749 65.2627 27.2518C66.9943 25.6535 67.8668 24.0847 67.8801 22.5425C67.8961 20.6081 66.514 18.7351 63.7338 16.9207C63.0561 16.5205 61.9489 16.0989 60.412 15.6587C59.7316 15.4746 59.0886 15.3785 58.4803 15.3732C57.9066 15.3679 57.3517 15.4372 56.8127 15.576C55.2625 16.6032 53.9284 17.8813 52.8051 19.4128C51.4417 21.3205 50.644 23.2576 50.4065 25.224C49.4433 24.0873 47.6023 23.1695 44.8808 22.4651C43.9869 22.2437 42.3781 21.9262 40.0514 21.5126C38.013 21.1391 36.4201 20.7842 35.2781 20.4533V20.2933C35.8865 20.1919 37.9143 19.7943 41.3615 19.1059C43.8002 18.623 45.812 18.1747 47.3915 17.7558C52.3809 16.3631 54.7422 14.6448 54.4727 12.601C53.4188 10.0849 51.9273 8.26261 50.0036 7.13665C48.6482 6.30153 46.2549 5.35167 42.8263 4.28441C39.0029 3.07041 34.2776 2.44339 28.6532 2.39803C19.875 2.32599 10.9821 3.54534 1.96909 6.05339C1.75297 6.05072 1.4568 6.19213 1.07793 6.47496C0.699053 6.76045 0.509616 6.9739 0.509616 7.11531C0.181434 7.79302 0.0106726 8.90296 0 10.4425C0.210783 10.84 0.712393 11.1816 1.49683 11.475L1.76364 11.5844C2.19321 11.5871 2.5881 11.5551 2.94563 11.4857L3.16441 11.1655C3.16441 11.0935 3.34585 10.864 3.70605 10.4718C3.71405 9.578 4.36508 8.77489 5.65912 8.0705C6.66768 7.54221 7.72693 7.20869 8.83688 7.07529C9.15972 7.07795 9.82142 6.97656 10.8273 6.76845C14.5574 6.11742 19.1999 5.85061 24.7523 5.96801C30.1606 6.04805 34.6351 6.67506 38.1731 7.84905C38.8161 8.14254 39.6352 8.54276 40.6358 9.05238C42.8476 10.2184 44.1444 11.3923 44.5312 12.577C44.742 13.188 44.3952 13.759 43.496 14.2873C42.4154 15.0664 40.9773 15.7174 39.1816 16.2403C34.4057 17.5984 28.8639 18.3082 22.5591 18.3642C21.5559 18.3935 21.057 18.1721 21.0596 17.7078L21.0623 17.2783C21.0676 16.4912 21.0916 15.7201 21.1343 14.9676C21.177 14.2152 21.0036 13.4628 20.614 12.7077L20.3766 8.72953L20.3792 8.29996L18.8798 7.59024L18.6076 7.85705C17.7431 8.35332 17.2015 9.11908 16.9774 10.1543C16.828 10.728 16.7666 11.7018 16.7933 13.0813C16.8173 14.4607 16.7559 15.4372 16.6092 16.0082C16.3504 17.0461 15.7874 17.8119 14.9256 18.3055L12.0226 18.2815C11.5184 18.4202 11.2676 18.5616 11.2676 18.7057C11.0167 18.703 10.8727 18.7377 10.838 18.8098C10.838 18.8471 10.8727 18.8818 10.9447 18.9192L11.2649 19.1379C11.2622 19.5328 11.5104 19.8557 12.0093 20.1118L12.2227 20.4347C12.2948 20.5067 12.4362 20.5974 12.6496 20.7068C12.7217 20.7788 13.1112 20.9976 13.8263 21.3605C14.3626 21.6513 14.6294 21.8861 14.6267 22.0649L14.6081 24.2688L13.3247 30.2241L13.3167 31.3527C13.1726 31.5315 12.8311 31.6168 12.2921 31.6142C11.8279 31.4674 11.4517 31.374 11.1662 31.3367L10.2537 31.3287C10.0029 31.398 9.87478 31.6302 9.87212 32.0251C10.1176 32.4573 10.4564 32.8175 10.8833 33.1083C10.918 33.1457 11.3289 33.3805 12.1134 33.8181C12.5776 33.9648 12.8097 34.1996 12.8071 34.5224L12.7831 37.4787C12.7777 38.0871 13.1859 38.6447 14.0051 39.1543C14.7175 39.6239 15.4138 39.8987 16.0942 39.9761C16.6652 40.0508 17.1695 39.9494 17.6017 39.6666C17.7805 39.6693 17.8712 39.5439 17.8739 39.2931L17.8765 38.9702L18.154 37.7909C18.1594 37.2173 18.2341 36.7877 18.3781 36.5022L19.4 36.2407L20.4193 36.3555C23.9626 36.8837 28.4023 37.0999 33.7413 37.0011C38.2558 36.8944 42.5088 36.158 46.495 34.7919C47.8984 34.0502 48.9417 33.3965 49.6274 32.8282C50.4812 32.0624 51.0148 31.2486 51.2283 30.3868C51.7913 31.4701 52.6157 32.4199 53.7096 33.2364C54.4567 33.8154 55.8682 34.3837 57.9413 34.936C60.1585 35.5257 61.8395 35.7364 62.9868 35.5684C65.6042 35.2295 67.6347 34.5118 69.0755 33.4152C69.6064 33.0336 70.0066 32.6227 70.2788 32.1852C70.6657 32.6121 71.1032 33.0096 71.5995 33.3805C72.3466 33.9595 73.758 34.5278 75.8312 35.0801C78.0484 35.6697 79.7293 35.8805 80.8766 35.7124C83.4941 35.3736 85.5245 34.6558 86.9653 33.5592C87.1334 33.4392 87.2748 33.3271 87.4002 33.2177C89.975 34.317 92.9953 34.9974 96.3972 35.2402C97.1043 35.2882 97.7606 35.3095 98.3663 35.3095C99.3962 35.3095 100.277 35.2428 101 35.1068C101.629 34.9787 102.28 34.7225 102.926 34.349C103.924 33.7807 104.431 33.095 104.439 32.3132C104.444 31.6835 104.052 31.0885 103.273 30.5389C100.576 28.7086 97.0829 26.9316 92.8913 25.256C91.6132 24.749 90.9676 24.154 90.9729 23.4843C90.9809 22.5238 91.9361 21.5179 93.8171 20.4907C94.9644 19.8663 95.9756 19.4341 96.8348 19.202L97.0509 19.1326L97.275 19.1353C97.3204 19.1833 97.3764 19.2287 97.4378 19.2687C97.4645 19.4261 97.5365 19.5275 97.6112 19.5915C97.8193 20.0024 98.1315 20.4667 98.5451 20.979C99.3935 21.9982 100.738 22.4731 102.539 22.3904C104.111 22.3024 104.943 21.8968 105.082 21.1471C105.157 20.7468 104.938 20.3306 104.41 19.8797ZM78.4887 19.1993L78.8649 19.0953L79.8307 19.21L80.0442 19.4795C80.5778 20.0211 80.8953 20.4533 81.002 20.7762C80.9834 23.2122 80.3777 24.8371 79.1904 25.6509L79.0276 25.9177C78.5607 26.0564 78.1311 26.0538 77.7389 25.907C76.7384 25.5762 76.2421 24.9091 76.2501 23.9059C76.2608 22.4064 77.0052 20.8375 78.4887 19.1993ZM60.5961 19.0552L60.9723 18.9512L61.9382 19.0659L62.1516 19.3354C62.6853 19.877 63.0028 20.3093 63.1095 20.6321C63.0908 23.0681 62.4852 24.693 61.2978 25.5068L61.1351 25.7736C60.6682 25.9124 60.2386 25.9097 59.8464 25.7629C58.8458 25.4321 58.3495 24.7651 58.3575 23.7618C58.3655 22.2623 59.1126 20.6935 60.5961 19.0552ZM43.5894 28.7006C42.2553 29.6211 40.6544 30.3788 38.7894 30.9738C35.1981 32.0544 31.0385 32.6494 26.3079 32.7535C24.6589 32.8122 22.6178 32.7962 20.1818 32.7054C19.0719 32.6601 18.5356 32.4226 18.5756 31.993C18.653 31.3127 18.693 30.7951 18.6957 30.4349C18.9385 27.033 19.2987 24.5996 19.7762 23.1348L19.9924 22.9747L20.7475 22.7133L23.2181 22.7319L32.8368 22.8093C37.3459 23.527 40.6331 24.3595 42.7036 25.3067C43.9176 25.8537 44.5206 26.4673 44.5152 27.1477C44.5126 27.652 44.2031 28.1669 43.5894 28.7006Z" fill="black"/>
<path d="M68.0005 10.7846C68.0112 10.862 68.0165 10.9287 68.0165 10.9847C68.0165 11.3422 67.755 11.6037 67.2294 11.7718C66.9626 11.8492 66.6824 11.8785 66.3943 11.8545C66.1141 11.8332 65.8633 11.7371 65.6419 11.569C65.3404 11.3449 65.1563 11.1235 65.0896 10.8993L64.9722 10.7819C64.9722 10.7259 64.9108 10.6992 64.7881 10.6992C64.7881 10.7099 64.7694 10.7232 64.7294 10.7419C64.6894 10.7579 64.6707 10.7739 64.6707 10.7846C64.4919 10.918 64.3078 11.0568 64.1184 11.2035C63.9289 11.3476 63.7342 11.4436 63.534 11.489C63.39 11.5237 63.1872 11.5397 62.9311 11.5397C62.3281 11.4623 61.8211 11.2115 61.4102 10.7873C61.0527 10.3524 60.8526 9.90679 60.8072 9.45053C60.7298 8.60473 61.114 7.78295 61.9598 6.99318C62.3601 6.62497 62.8056 6.30213 63.2966 6.02197C63.5634 5.92058 63.8142 5.87256 64.049 5.87256C64.4732 5.87256 64.8628 6.00597 65.2203 6.27278C65.7326 6.673 66.0341 7.12658 66.1221 7.62819C66.1221 7.67355 66.1435 7.6949 66.1888 7.6949C66.1888 7.78562 66.2822 7.82831 66.4743 7.82831C66.6077 7.88434 66.8079 7.95638 67.0773 8.04442C67.0773 8.06577 67.1334 8.11646 67.2454 8.19384L67.3121 8.24453V8.36193L67.2454 8.44464C67.1894 8.49 67.112 8.56738 67.0106 8.67944C66.9092 8.73547 66.8345 8.81819 66.7838 8.93025C66.7332 9.04231 66.6851 9.15437 66.6424 9.26377C66.6211 9.47455 66.5651 9.73869 66.4743 10.0509C66.429 10.1736 66.4076 10.291 66.4076 10.4031C66.4076 10.5471 66.4477 10.6752 66.525 10.7873C66.6024 11.0648 66.7358 11.2222 66.9253 11.2542C67.08 11.2889 67.2641 11.2542 67.4776 11.1528C67.6883 11.0514 67.7951 10.9233 67.7951 10.7686C67.7951 10.6912 67.7337 10.6459 67.611 10.6352C67.667 10.6138 67.7177 10.6005 67.7604 10.6005C67.9205 10.6005 68.0005 10.6619 68.0005 10.7846ZM64.9722 8.75949C64.9722 8.70346 64.9508 8.64742 64.9055 8.59139L64.8388 8.55671L64.4866 8.18851C64.4759 8.15382 64.4412 8.09779 64.3852 8.01241C64.3292 7.9297 64.3025 7.86566 64.3025 7.8203C64.3238 7.80963 64.3478 7.75093 64.3692 7.6442C64.3905 7.53748 64.4305 7.48412 64.4866 7.48412C64.4866 7.44943 64.4599 7.43342 64.4039 7.43342C64.3478 7.44409 64.2918 7.44943 64.2358 7.44943C63.0084 8.41796 62.3974 9.25576 62.3974 9.95748C62.3974 10.1362 62.4535 10.2963 62.5655 10.4431C62.6429 10.4778 62.6883 10.4938 62.6989 10.4938C62.7203 10.4938 62.7603 10.4884 62.8163 10.4778C62.8724 10.4671 62.9097 10.4618 62.9337 10.4618C63.2912 10.339 63.6354 10.1176 63.9716 9.79206C64.0597 9.69067 64.3345 9.3785 64.7907 8.85554L64.9722 8.75949Z" fill="#FAC212"/>
<path d="M70.5473 4.6976C70.6354 4.76431 70.6807 4.83635 70.6807 4.91372C70.6807 5.0578 70.5847 5.23123 70.3979 5.43134C70.0857 5.7782 69.8056 5.98898 69.5628 6.06636L69.4454 6.10104C69.3226 6.1464 69.1892 6.16775 69.0452 6.16775C68.9544 6.16775 68.8664 6.16241 68.7783 6.15174C68.242 5.90627 67.9592 5.67681 67.9245 5.46602C67.8899 5.25524 67.9646 4.95908 68.1407 4.5802C68.2741 4.41211 68.4475 4.30805 68.6583 4.2627H69.1252C69.6615 4.2627 70.0564 4.31339 70.3125 4.41211C70.4699 4.46814 70.5473 4.56153 70.5473 4.6976ZM71.7346 10.7169C71.7907 10.829 71.8174 10.933 71.8174 11.0344C71.8174 11.3253 71.6439 11.5867 71.2997 11.8215C71.089 11.9549 70.8381 12.051 70.5473 12.1044C70.3018 12.139 70.011 12.1097 69.6775 12.0216C68.5302 11.7201 67.9779 11.0451 68.0233 9.9992C68.0446 9.56429 68.106 9.11337 68.2074 8.64378C68.2527 8.40898 68.2741 8.19286 68.2741 7.99275C68.2741 7.78197 68.2474 7.57919 68.1914 7.38976V7.30704C68.1914 7.29637 68.202 7.2857 68.226 7.27236C68.2474 7.26168 68.2607 7.23767 68.2607 7.20565C68.4048 7.13895 68.5222 7.10427 68.6129 7.10427C68.6583 7.10427 68.6956 7.11494 68.7303 7.13895H68.8984C69.2319 7.17364 69.7229 7.25635 70.3686 7.38976L70.486 7.47247C70.5873 7.53917 70.6247 7.61655 70.6033 7.70726C70.582 7.80865 70.526 7.87536 70.4353 7.90738C70.1017 8.40899 69.923 8.96663 69.899 9.5803C69.8883 10.194 70.0057 10.7516 70.2512 11.2532L70.4353 11.3706C70.4353 11.4053 70.4513 11.4213 70.486 11.4213C70.5633 11.4213 70.7528 11.3386 71.0543 11.1705C71.4278 10.9437 71.6573 10.7943 71.7346 10.7169Z" fill="#FAC212"/>
<path d="M77.5545 10.9854C77.5651 11.0414 77.5705 11.0974 77.5705 11.1535C77.5705 11.4977 77.3864 11.7618 77.0182 11.9406C76.6953 12.0953 76.3591 12.146 76.015 12.09C74.977 11.9326 74.3367 11.4817 74.0912 10.7346C73.9792 10.4117 73.9285 10.0782 73.9418 9.73136C73.9525 9.38717 73.9578 9.06165 73.9578 8.76015L73.723 8.82686V9.14437C73.4669 10.2917 72.9199 11.1855 72.0848 11.8205C71.9621 11.9326 71.7566 12.0099 71.4658 12.0553C71.1749 12.1007 70.9855 12.034 70.8975 11.8552C70.8975 11.6978 70.9135 11.5377 70.9482 11.3696C71.8953 10.3557 72.4423 9.46454 72.5864 8.69345C72.6318 8.45865 72.5917 8.1865 72.469 7.87433C72.3249 7.49545 72.2529 7.19396 72.2529 6.9725C72.2422 6.63898 72.3036 6.34282 72.437 6.08668C72.6051 5.76383 72.8425 5.60107 73.1547 5.60107C73.3788 5.60107 73.6617 5.71314 74.0085 5.93459L74.1259 6.10269C74.1259 6.54827 74.0138 7.01786 73.7924 7.50613V7.54081C73.7924 7.68489 73.8804 7.72492 74.0592 7.65821H74.1259C74.6275 7.44743 74.9504 7.3407 75.0971 7.3407C75.5881 7.3407 75.9616 7.48478 76.2177 7.77561C76.3511 7.91969 76.4178 8.07711 76.4178 8.24253C76.4178 8.36527 76.3511 8.5387 76.2177 8.76015C76.1057 8.92825 76.0016 9.09367 75.9002 9.26176C75.6894 9.67532 75.5827 10.0542 75.5827 10.3984C75.5827 10.7453 75.6894 11.0227 75.9002 11.2335V11.3162C75.9776 11.3509 76.0336 11.3723 76.0683 11.3829C76.103 11.3936 76.135 11.3989 76.1697 11.3989C76.2044 11.3989 76.2311 11.3883 76.2524 11.3643H76.3698C76.634 11.1588 77.0315 11.0307 77.5545 10.9854Z" fill="#FAC212"/>
<path d="M82.2485 1.90505C82.2485 2.03846 82.2165 2.18254 82.1471 2.33996C81.4347 4.02356 80.2527 6.31282 78.6012 9.21309C78.5104 9.35717 78.4838 9.53593 78.5184 9.74938C78.5958 10.3284 78.924 10.854 79.5057 11.3209L79.5563 11.4036C79.6124 11.4143 79.6791 11.425 79.7565 11.4383C79.8338 11.449 79.9245 11.449 80.0233 11.4383C80.3808 11.4276 80.6743 11.3503 80.9091 11.2035C81.0425 11.1155 81.2773 10.902 81.6108 10.5685C81.7229 10.7366 81.7789 10.9074 81.7789 11.0861C81.7789 11.3529 81.6402 11.6091 81.36 11.8545C80.9358 12.2441 80.5169 12.4389 80.106 12.4389C79.7591 12.4389 79.3883 12.3215 78.9854 12.0867C78.7399 11.9426 78.4838 11.8012 78.2169 11.6678C77.2698 11.2996 76.7441 10.5418 76.6454 9.39452C76.6241 9.08235 76.6107 8.80486 76.6107 8.55939C76.6107 6.88647 76.9229 4.84267 77.5472 2.42267L78.1156 0.29883C78.1262 0.277485 78.1609 0.248136 78.2169 0.216119C78.2169 0.160088 78.233 0.130739 78.2676 0.125403C78.3023 0.120067 78.337 0.104057 78.377 0.0747076C78.4171 0.0480262 78.4571 0.0266807 78.5024 0.0160082C78.5478 0.00533563 78.6198 0 78.7186 0C79.6764 0.0213451 80.6983 0.38421 81.7789 1.08593C81.979 1.3314 82.0804 1.46481 82.0804 1.48615C82.1151 1.57687 82.1711 1.71561 82.2485 1.90505ZM80.7437 1.72095C80.653 1.65425 80.5649 1.61956 80.4769 1.61956C80.3328 1.61956 80.186 1.70227 80.0419 1.87036C79.8632 2.07047 79.7244 2.31061 79.623 2.58809C79.5457 3.023 79.3642 3.66069 79.0787 4.50382C78.7933 5.34695 78.6145 5.98464 78.5345 6.41954C78.4784 6.49692 78.4677 6.5823 78.4998 6.67035C78.5211 6.76107 78.5345 6.83311 78.5345 6.88647L78.6012 6.95317C78.6785 7.0092 79.0147 6.49692 79.6044 5.41365C79.8285 5.01343 80.0286 4.65057 80.2074 4.32772L80.4422 3.87681C80.6423 3.59932 80.781 3.24179 80.8611 2.80688C80.9064 2.60677 80.9224 2.412 80.9118 2.22256C80.8878 2.03312 80.8317 1.86503 80.7437 1.72095Z" fill="#FAC212"/>
<path d="M83.7659 4.69809C83.8539 4.7648 83.8993 4.83683 83.8993 4.91421C83.8993 5.05829 83.8032 5.23172 83.6164 5.43183C83.3043 5.77869 83.0241 5.98947 82.7813 6.06684L82.6639 6.10153C82.5412 6.14689 82.4078 6.16824 82.2637 6.16824C82.173 6.16824 82.0849 6.1629 81.9969 6.15223C81.4606 5.90676 81.1778 5.6773 81.1431 5.46651C81.1111 5.25573 81.1831 4.95957 81.3592 4.58069C81.4926 4.4126 81.666 4.30854 81.8768 4.26318H82.3437C82.88 4.26318 83.2749 4.31388 83.5311 4.4126C83.6885 4.46863 83.7659 4.56202 83.7659 4.69809ZM84.9532 10.7174C85.0092 10.8295 85.0359 10.9335 85.0359 11.0349C85.0359 11.3258 84.8625 11.5872 84.5183 11.822C84.3075 11.9554 84.0567 12.0515 83.7659 12.1048C83.5204 12.1395 83.2296 12.1102 82.896 12.0221C81.7487 11.7206 81.1964 11.0456 81.2418 9.99968C81.2631 9.56478 81.3245 9.11386 81.4259 8.64427C81.4713 8.40947 81.4926 8.19335 81.4926 7.99324C81.4926 7.78246 81.4659 7.57968 81.4099 7.39024V7.30753C81.4099 7.29686 81.4206 7.28619 81.4419 7.27284C81.4633 7.26217 81.4766 7.23816 81.4766 7.20614C81.6207 7.13944 81.7381 7.10475 81.8288 7.10475C81.8741 7.10475 81.9115 7.11542 81.9462 7.13944H82.1143C82.4478 7.17412 82.9387 7.25684 83.5844 7.39024L83.7018 7.47296C83.8032 7.53966 83.8406 7.61704 83.8192 7.70775C83.7979 7.80914 83.7418 7.87585 83.6511 7.90786C83.3176 8.40947 83.1388 8.96712 83.1148 9.58079C83.1042 10.1945 83.2216 10.7521 83.467 11.2537L83.6511 11.3711C83.6511 11.4058 83.6671 11.4218 83.7018 11.4218C83.7792 11.4218 83.9686 11.3391 84.2701 11.171C84.6463 10.9442 84.8758 10.7948 84.9532 10.7174Z" fill="#FAC212"/>
<path d="M92.0137 10.1499C92.1257 10.294 92.1818 10.4408 92.1818 10.5848C92.1818 11.0304 91.8856 11.3266 91.2959 11.4707C90.8717 11.6254 90.4982 11.7055 90.1753 11.7055C89.7297 11.7055 89.3455 11.5827 89.0227 11.3373C88.6651 11.0598 88.353 10.5688 88.0862 9.86712L88.0195 9.74972L87.7847 9.86712C87.75 9.91248 87.5952 10.206 87.3177 10.7529C87.1283 11.1211 86.9282 11.3719 86.7147 11.5054C86.6934 11.5054 86.6614 11.5134 86.624 11.5294C86.584 11.5454 86.5546 11.5534 86.5333 11.5534C86.4559 11.6094 86.3999 11.6361 86.3652 11.6361H86.1144C86.069 11.6361 86.0077 11.6228 85.9303 11.5934C85.8529 11.5667 85.7862 11.5507 85.7302 11.5507L85.6128 11.5C84.743 11.2092 84.2867 10.6142 84.2414 9.7097C84.2307 9.4082 84.252 9.03466 84.3081 8.58908C84.3854 8.06613 84.4255 7.70859 84.4255 7.51916C84.4361 7.31904 84.4201 7.16162 84.3748 7.05223C84.3748 6.94017 84.3161 6.8121 84.1987 6.66802C84.0813 6.52394 84.0226 6.42789 84.0226 6.3852C84.0226 6.26246 84.2334 6.21177 84.6576 6.23578C85.5941 6.28114 86.1277 6.64934 86.2638 7.34039C86.2852 7.48447 86.2985 7.63655 86.2985 7.79131C86.2985 7.93539 86.2798 8.15417 86.2398 8.44233C86.1998 8.73316 86.1811 8.95995 86.1811 9.12804L86.2318 9.19475C86.2318 9.2401 86.2531 9.26145 86.2985 9.26145C86.3439 9.26145 86.3652 9.2401 86.3652 9.19475L86.4159 9.12804C86.5386 8.82654 86.656 8.53305 86.7681 8.24222C86.9122 7.90871 87.0749 7.63922 87.2537 7.43911C87.5765 7.07091 87.9848 6.88681 88.4757 6.88681C88.7318 6.88681 89.0333 6.94284 89.3775 7.0549C89.679 7.21232 89.8284 7.41777 89.8284 7.67391C89.8952 7.9087 89.9218 8.13016 89.9112 8.34361C89.9005 8.56774 89.8898 8.78919 89.8765 9.01331C89.8658 9.57096 89.9325 10.0165 90.0766 10.3501C90.2447 10.7636 90.4715 10.9691 90.7623 10.9691C90.9731 10.9691 91.2079 10.8623 91.464 10.6516C91.6401 10.5048 91.8242 10.3394 92.0137 10.1499Z" fill="#FAC212"/>
<path d="M98.1479 9.73118C98.26 9.92062 98.316 10.094 98.316 10.2488C98.316 10.561 98.1479 10.8385 97.8144 11.0839C97.3688 11.4281 96.7392 11.6576 95.9254 11.7696C95.5679 11.8257 95.0449 11.7643 94.3538 11.5855C93.7082 11.4174 93.2679 11.2467 93.0331 11.0679C92.3207 10.545 91.9632 9.83524 91.9632 8.94408C91.9632 8.20767 92.214 7.48461 92.7156 6.76954C93.0598 6.28928 93.4734 5.88906 93.9536 5.56622C94.1217 5.52086 94.2925 5.49951 94.4712 5.49951C94.6607 5.49951 94.8608 5.52619 95.0742 5.58222C95.5545 5.71563 95.8987 5.8437 96.1121 5.96644C96.982 6.52408 97.4169 7.10306 97.4169 7.70606C97.4169 8.18633 97.1501 8.6746 96.6138 9.17621C96.3016 9.46703 95.912 9.59511 95.4425 9.56042C95.4104 9.54975 94.9515 9.46703 94.071 9.30961C93.9696 9.30961 93.9029 9.37632 93.8709 9.50972C93.8042 10.2008 94.1164 10.6704 94.8074 10.9132C96.1175 10.9185 97.2328 10.5236 98.1479 9.73118ZM95.9227 7.12174C95.888 7.02035 95.7893 6.88694 95.6212 6.72152L95.5545 6.63881L95.253 6.60412L95.1356 6.63881C94.6794 7.15109 94.4499 7.64203 94.4499 8.10895C94.4499 8.42112 94.6047 8.62657 94.9168 8.72796C95.0396 8.77332 95.173 8.77332 95.317 8.72796L95.3677 8.64525C95.7386 8.3891 95.9227 7.87949 95.9227 7.12174Z" fill="#FAC212"/>
</svg>
