<?xml version="1.0" encoding="utf-8"?>
<!-- Generator: Adobe Illustrator 23.0.6, SVG Export Plug-In . SVG Version: 6.00 Build 0)  -->
<svg version="1.1" x="0px" y="0px" width="1723" height="177" viewBox="0 0 1723 177" fill="none" xmlns="http://www.w3.org/2000/svg" xmlns:xlink="http://www.w3.org/1999/xlink">
<path fill-rule="evenodd" clip-rule="evenodd" d="M599.893 131.384V151.525H646.37L638.164 38.74H595.864L513.281 151.525H541.479L555.577 131.384H599.893ZM567.665 113.257L597.88 70.9654V113.257H567.665Z" fill="#28396E"/>
<path fill-rule="evenodd" clip-rule="evenodd" d="M688.522 38.74L652.264 151.525H678.45L696.577 95.1325L750.965 151.525H775.134L811.392 38.74H785.206L765.063 99.1575L710.678 38.74H688.522Z" fill="#28396E"/>
<path fill-rule="evenodd" clip-rule="evenodd" d="M806.408 94.9232C794.988 129.174 817.828 152.008 853.987 152.008C890.146 152.008 926.305 129.174 935.819 94.9232C947.239 60.6746 924.402 37.8383 888.243 37.8383C853.987 37.8383 817.828 60.6746 806.408 94.9232ZM857.791 136.786C840.665 136.786 839.153 116.578 848.277 91.1195C856.394 68.458 871.114 53.0604 884.436 53.0604C897.758 53.0604 903.465 68.2857 895.856 91.1195C888.243 115.854 874.921 136.786 857.791 136.786Z" fill="#28396E"/>
<path fill-rule="evenodd" clip-rule="evenodd" d="M1057.95 38.74H958.105L944.007 56.8644H978.248L948.036 151.525H990.336L1018.53 56.8644H1041.99L1057.95 38.74Z" fill="#28396E"/>
<path fill-rule="evenodd" clip-rule="evenodd" d="M495.172 91.3504C490.001 106.861 483.063 122.358 473.163 130.66C472.302 127.454 470.458 124.17 465.911 120.815C460.891 117.215 452.408 117.061 444.131 118.134C444.352 110.298 446.498 100.835 449.662 91.3504C455.35 68.5965 470.522 51.5308 483.795 51.5308C497.071 51.5308 502.76 68.5965 495.172 91.3504ZM457.246 136.853C450.271 136.853 446.504 133.018 444.959 126.971C450.905 126.373 456.471 127.099 457.905 131.455C458.505 133.27 458.927 135.016 459.263 136.705C458.595 136.76 457.936 136.853 457.246 136.853ZM489.484 38.2599C453.454 38.2599 417.425 61.0131 406.045 95.1408C396.564 129.273 417.425 152.023 453.454 152.023C456.228 152.023 458.995 151.844 461.756 151.58C462.802 155.082 464.631 158.353 468.358 161.512C478.667 170.249 498.343 169.092 498.343 169.092L514.133 150.888C514.133 150.888 493.71 157.615 482.013 150.231C480.927 149.546 480.04 148.854 479.24 148.157C505.367 140.313 527.81 121.006 534.997 95.1408C546.377 61.0131 523.62 38.2599 489.484 38.2599Z" fill="#28396E"/>
<path fill-rule="evenodd" clip-rule="evenodd" d="M1680.22 91.3504C1675.04 106.858 1668.11 122.354 1658.21 130.66C1657.34 127.454 1655.5 124.17 1650.96 120.815C1645.93 117.215 1637.45 117.061 1629.17 118.134C1629.39 110.298 1631.54 100.835 1634.7 91.3504C1640.39 68.5965 1655.56 51.5308 1668.84 51.5308C1682.11 51.5308 1687.8 68.5965 1680.22 91.3504ZM1642.29 136.853C1635.32 136.853 1631.55 133.018 1630 126.971C1635.95 126.373 1641.51 127.099 1642.95 131.455C1643.55 133.27 1643.97 135.016 1644.31 136.705C1643.64 136.76 1642.98 136.853 1642.29 136.853ZM1674.53 38.2599C1638.5 38.2599 1602.47 61.0131 1591.09 95.1408C1581.61 129.273 1602.47 152.023 1638.5 152.023C1641.27 152.023 1644.04 151.844 1646.8 151.58C1647.85 155.082 1649.67 158.353 1653.4 161.512C1663.71 170.249 1683.38 169.092 1683.38 169.092L1699.17 150.888C1699.17 150.888 1678.75 157.615 1667.06 150.231C1665.97 149.546 1665.08 148.854 1664.28 148.157C1690.41 140.313 1712.85 121.006 1720.04 95.1408C1731.42 61.0131 1708.66 38.2599 1674.53 38.2599Z" fill="#28396E"/>
<path fill-rule="evenodd" clip-rule="evenodd" d="M1161.85 37.7121C1140.92 37.7121 1107.84 43.7351 1099.43 74.3859C1092.58 99.3391 1114.32 106.076 1127.6 110.006C1141.98 114.26 1154.24 117.615 1152.33 127.128C1150.43 134.738 1137.11 134.738 1131.4 134.738C1116.18 134.738 1102.86 125.225 1097.15 117.615L1078.13 130.934C1083.83 138.543 1097.15 151.86 1125.7 151.86C1154.24 151.86 1182.78 140.445 1192.3 115.712C1199.9 90.9801 1177.56 82.9757 1161.85 77.663C1144.75 71.8841 1133.13 71.9093 1135.21 64.3463C1137.14 57.3138 1148.53 54.8332 1158.04 54.8332C1165.65 54.8332 1178.97 58.6372 1186.59 68.1503L1203.71 54.8332C1196.1 43.4181 1182.78 37.7121 1161.85 37.7121Z" fill="#28396E"/>
<path fill-rule="evenodd" clip-rule="evenodd" d="M1226.31 38.74L1192.07 151.525H1232.36L1248.47 103.19H1288.75L1274.66 151.525H1314.94L1351.2 38.74H1308.9L1294.8 85.0615H1252.5L1268.61 38.74H1226.31Z" fill="#28396E"/>
<path fill-rule="evenodd" clip-rule="evenodd" d="M1406.63 131.384L1408.64 151.525H1452.95V149.511L1444.9 38.74H1404.61L1320.52 151.525H1322.03H1350.22L1364.33 131.384H1406.63ZM1374.4 113.257L1404.61 70.9654L1406.63 113.257H1374.4Z" fill="#28396E"/>
<path fill-rule="evenodd" clip-rule="evenodd" d="M1518.38 113.257L1534.5 151.525H1581.91L1556.66 103.19C1570.75 97.145 1586.87 91.1039 1592.91 68.9508C1600.97 42.7687 1574.78 38.74 1548.6 38.74C1536.51 38.74 1492.2 38.74 1492.2 38.74L1457.96 151.525H1498.24L1512.34 109.231C1512.34 109.231 1516.37 109.231 1518.38 113.257ZM1516.37 95.1325L1528.45 56.8644C1528.45 56.8644 1536.51 56.8644 1538.53 56.8644C1548.6 56.8644 1553.51 62.9767 1550.61 74.9929C1547.63 87.3734 1536.51 95.1325 1516.37 95.1325Z" fill="#28396E"/>
<path d="M302.044 130.639C286.983 130.465 76.1321 126.777 0 57.7293C3.5497 57.1938 6.68077 55.6026 6.68077 55.6026C6.68077 55.6026 15.3765 42.1562 27.9895 42.5194C37.2023 42.7841 61.3727 49.0318 61.3727 49.0318C61.3727 49.0318 48.9906 31.1351 58.7203 19.0737C86.5438 -12.1524 167.351 5.04873 190.392 8.80041C213.434 12.5552 262.89 21.6128 285.225 24.3427C307.56 27.0726 353.603 29.624 361.981 29.5132C370.36 29.3993 357.302 39.5464 328.765 39.3002C300.231 39.0601 274.655 36.0471 274.655 36.0471C274.655 36.0471 274.913 43.6458 262.456 45.871C240.315 49.3211 212.772 42.7318 212.772 42.7318C212.772 42.7318 220.75 51.6601 204.541 57.0707C185.782 63.3337 163.978 60.0067 163.978 60.0067C163.978 60.0067 170.175 66.4237 164.61 71.1987C157.2 77.5609 136.532 79.8427 136.532 79.8427C136.532 79.8427 166.2 98.4253 201.462 98.6525C239.983 98.9027 286.358 86.973 286.358 86.973L285.197 92.4673L243.753 101.045C243.753 101.045 237.708 102.42 234.931 104.178C231.986 105.981 230.807 107.625 230.653 110.468C229.954 119.649 242.987 120.877 242.987 120.877C242.987 120.877 269.351 125.564 309.893 122.666C307.369 125.453 304.75 128.113 302.044 130.639Z" fill="#28396E"/>
<path d="M232.817 168.525C182.882 159.16 84.2328 134.298 7.38415 73.4916C6.65063 72.9481 5.96051 72.4215 5.37598 71.9441C5.48556 72.0885 5.6213 72.2482 5.7355 72.3975C63.0897 129.916 139.911 162.315 185.782 176.097C205.132 174.758 226.017 169.839 232.817 168.525Z" fill="white"/>
<path d="M4.74246 71.147C86.2961 130.898 224.078 146.853 276.877 150.878C263.161 158.744 248.26 164.473 232.817 168.525C182.31 159.052 81.9543 133.48 4.74246 71.147Z" fill="#4582CB"/>
<path d="M137.118 176.294C98.0674 156.473 45.1405 124.702 4.74246 71.147C62.3396 129.429 140.4 162.244 186.49 176.048C169.679 177.325 152.968 177.226 137.118 176.294Z" fill="#43B53B"/>
</svg>
