<?xml version="1.0" encoding="utf-8"?>
<!-- Generator: Adobe Illustrator 23.1.0, SVG Export Plug-In . SVG Version: 6.00 Build 0)  -->
<!DOCTYPE svg PUBLIC "-//W3C//DTD SVG 1.1//EN" "http://www.w3.org/Graphics/SVG/1.1/DTD/svg11.dtd">
<svg version="1.1" xmlns:svg="http://www.w3.org/2000/svg" xmlns="http://www.w3.org/2000/svg" xmlns:xlink="http://www.w3.org/1999/xlink" x="0px" y="0px" width="398px" height="69px" viewBox="0 0 398 69"
	 style="enable-background:new 0 0 398 69;" xml:space="preserve">
<style type="text/css">
	.st0{fill-rule:evenodd;clip-rule:evenodd;fill:#15255A;}
	.st1{fill-rule:evenodd;clip-rule:evenodd;fill:#A8C9E8;}
	.st2{fill-rule:evenodd;clip-rule:evenodd;fill:#82B0E3;}
	.st3{fill-rule:evenodd;clip-rule:evenodd;fill:#608DD9;}
	.st4{fill-rule:evenodd;clip-rule:evenodd;fill:#55964D;}
</style>
<g>
	<path class="st0" d="M86.3,58.6l4.6-10.7H92l4.6,10.7h-1.2l-1.2-2.8h-5.5l-1.2,2.8H86.3L86.3,58.6z M89.1,54.8h4.7l-2.4-5.7
		L89.1,54.8L89.1,54.8z M98.2,58.6V47.9h3.2c0.4,0,0.9,0,1.2,0.1c0.4,0.1,0.7,0.2,1.1,0.4c0.3,0.2,0.6,0.5,0.8,0.9
		c0.2,0.4,0.3,0.8,0.3,1.3c0,0.6-0.2,1.1-0.5,1.5c-0.3,0.4-0.8,0.7-1.4,0.8v0c0.7,0.1,1.3,0.4,1.7,0.8c0.4,0.5,0.7,1.1,0.7,1.8
		c0,0.9-0.4,1.6-1.1,2.2c-0.7,0.5-1.7,0.8-2.9,0.8H98.2L98.2,58.6z M99.2,57.6h2c0.9,0,1.6-0.2,2.1-0.5c0.6-0.3,0.8-0.9,0.8-1.6
		c0-0.7-0.2-1.2-0.7-1.6c-0.5-0.4-1.2-0.5-2-0.5h-2.2V57.6L99.2,57.6z M99.2,52.5h2.2c0.6,0,1.1-0.2,1.6-0.5
		c0.4-0.3,0.7-0.8,0.7-1.4c0-0.6-0.2-1.1-0.7-1.4c-0.5-0.3-1.1-0.5-1.9-0.5h-1.9V52.5L99.2,52.5z M107.8,58.6V47.9h1.1v9h0l5.9-9
		h1.2v10.7h-1.1v-9.1h0l-5.9,9.1H107.8L107.8,58.6z M117.6,58.6l4.6-10.7h1.1l4.6,10.7h-1.2l-1.2-2.8h-5.5l-1.2,2.8H117.6
		L117.6,58.6z M120.3,54.8h4.7l-2.4-5.7L120.3,54.8L120.3,54.8z M129.4,58.6V47.9h1.1v4.8h0l5.1-4.8h1.6l-5.4,4.9l5.7,5.8h-1.6
		l-5.4-5.7h0v5.7H129.4L129.4,58.6z M147.5,57.2c-1.1,1.1-2.4,1.6-4,1.6c-1.6,0-2.9-0.5-4-1.6c-1.1-1.1-1.6-2.4-1.6-4
		c0-1.6,0.5-3,1.6-4c1.1-1.1,2.4-1.6,4-1.6c1.6,0,2.9,0.5,4,1.6c1.1,1.1,1.6,2.4,1.6,4C149.1,54.8,148.6,56.2,147.5,57.2L147.5,57.2
		z M140.3,56.5c0.8,0.9,1.9,1.4,3.2,1.4s2.4-0.5,3.2-1.4c0.8-0.9,1.2-2,1.2-3.3c0-1.3-0.4-2.4-1.2-3.3c-0.8-0.9-1.9-1.4-3.2-1.4
		s-2.4,0.5-3.2,1.4c-0.8,0.9-1.2,2-1.2,3.3C139.1,54.5,139.5,55.6,140.3,56.5L140.3,56.5z M151.4,58.6V47.9h1.7l3.6,8.9h0l3.6-8.9
		h1.7v10.7h-1.1v-9.3h0l-3.9,9.3h-0.6l-3.9-9.3h0v9.3H151.4L151.4,58.6z M164.8,58.6V47.9h8v10.7h-1.1v-9.7h-5.8v9.7H164.8
		L164.8,58.6z M174.4,58.6l4.6-10.7h1.1l4.6,10.7h-1.2l-1.2-2.8h-5.5l-1.2,2.8H174.4L174.4,58.6z M177.1,54.8h4.7l-2.4-5.7
		L177.1,54.8L177.1,54.8z M186.2,58.6V47.9h1.1v4.6h5.8v-4.6h1.1v10.7h-1.1v-5.1h-5.8v5.1H186.2L186.2,58.6z M197.1,58.6V47.9h1.1v9
		h0l5.9-9h1.2v10.7h-1.1v-9.1h0l-5.9,9.1H197.1L197.1,58.6z M207.3,58.6l2.9-4.7c-0.8-0.2-1.5-0.5-2-1c-0.5-0.5-0.7-1.2-0.7-2
		c0-1,0.3-1.7,1-2.3c0.7-0.5,1.6-0.8,2.8-0.8h3v10.7h-1.1v-4.6h-1.9l-2.8,4.6H207.3L207.3,58.6z M211.5,53h1.8v-4.2h-1.8
		c-1.9,0-2.8,0.7-2.8,2.1c0,0.7,0.2,1.2,0.7,1.6C209.9,52.8,210.6,53,211.5,53z"/>
	<path class="st0" d="M116.2,7.1h-2c-0.4,0-0.8,0.2-1.1,0.5c-8,8.8-18.4,20.4-26.4,29.1c-0.1,0.1-0.1,0.2-0.1,0.3
		c0,0.1,0.2,0.2,0.3,0.2h18.9h0.2l5.5-6.2l7.1,2.9l-0.4,2.6c0,0.2,0,0.3,0.1,0.5c0.1,0.1,0.3,0.2,0.4,0.2l1.1,0l17.2,0l4.4-22.5
		c0.2-1.3,0.5-2.5,0.7-3.8c0.2-1,0.7-2.8,0.7-3.8H116.2L116.2,7.1z M120.8,28.1l-4.5-1.8c-0.1,0-0.2-0.1-0.2-0.2
		c0-0.1,0-0.2,0.1-0.3l7.5-8.5L120.8,28.1z"/>
	<path class="st0" d="M167.2,7.6c-1,1.1-2,2.1-2.9,3.2l-19,20.6c-1.1,1.2-3.4,3.6-4.9,5.3c-0.1,0.1-0.1,0.2,0,0.3
		c0,0.1,0.2,0.2,0.3,0.2l19.8,0l16.9-20.8l-4.7,20.1c0,0.2,0,0.4,0.1,0.5c0.1,0.1,0.3,0.2,0.5,0.2h18.3l7.3-30.1l-30.4,0
		C167.9,7.1,167.5,7.2,167.2,7.6z"/>
	<path class="st0" d="M371.2,7.1h-2c-0.4,0-0.8,0.2-1.1,0.5c-8,8.8-18.4,20.4-26.4,29.1c-0.1,0.1-0.1,0.2-0.1,0.3
		c0,0.1,0.2,0.2,0.3,0.2h18.9h0.2l5.5-6.2l7.1,2.9l-0.4,2.6c0,0.2,0,0.3,0.1,0.5c0.1,0.1,0.3,0.2,0.4,0.2l1.1,0l17.2,0l4.4-22.5
		c0.2-1.3,0.5-2.5,0.7-3.8c0.2-1,0.7-2.8,0.7-3.8H371.2L371.2,7.1z M375.8,28.1l-4.5-1.8c-0.1,0-0.2-0.1-0.2-0.2
		c0-0.1,0-0.2,0.1-0.3l7.5-8.5L375.8,28.1z"/>
	<path class="st0" d="M266.1,7.1h18.4c8.3,0,13.5,6.8,11.6,15.1l0,0c-1.9,8.3-10.3,15.1-18.6,15.1h-18.4c-8.3,0-13.5-6.8-11.6-15.1
		v0C249.5,13.9,257.8,7.1,266.1,7.1L266.1,7.1z M272.8,14.7c-3.5,0-7.4,2.9-8.5,6.4l-0.7,2c-1.2,3.5,0.8,6.4,4.3,6.4h2.9
		c3.5,0,7.4-2.9,8.5-6.4l0.7-2c1.2-3.5-0.8-6.4-4.3-6.4H272.8z"/>
	<path class="st0" d="M318,7.1h18.4c7.8,0,12.8,5.9,11.8,13.5h-16.2c0.8-3.3-1.1-5.9-4.5-5.9h-2.7c-3.5,0-7.4,2.9-8.5,6.4l-0.7,2
		c-1.2,3.5,0.8,6.4,4.3,6.4h2.7c3.3,0,7-2.6,8.3-5.9h16.5c-2.5,7.6-10.4,13.5-18.1,13.5H311c-8.3,0-13.5-6.8-11.6-15.1v0
		C301.4,13.9,309.7,7.1,318,7.1z"/>
	<path class="st0" d="M217.3,23.9l1.7-7.5c0.2-0.7,0.8-1.2,1.5-1.2h0.7h4.4c3.7,0,5.4,3,3.4,6.2c-2.3,3.7-7.5,3.2-11.2,3.1
		c-0.2,0-0.3-0.1-0.4-0.2C217.3,24.3,217.2,24.1,217.3,23.9L217.3,23.9z M214.2,37.2l0.1-0.4l1.1-5h15.5c1.9,0,3.1-0.3,4.5-0.8
		c4-1.4,6.7-3,8.4-7.1c1-3.2,1.1-5.7-0.1-9.3c-1.2-2.7-2.9-5.1-5.7-6.3c-0.8-0.3-3.6-1-5.3-1.1h-31l-1.8,7.8
		c-0.3,1.3-0.6,2.4-0.9,3.7l-4.2,17.9c0,0.2,0,0.4,0.1,0.5c0.1,0.1,0.3,0.2,0.5,0.2H214.2z"/>
	<polygon class="st1" points="14.5,11.6 9.8,11.7 0.5,20 0.6,23.7 8.5,20.7 	"/>
	<polygon class="st2" points="1.4,28.3 7.9,21.4 0.6,24.1 	"/>
	<polygon class="st3" points="10.9,11.2 14.8,11.2 17.9,8.5 	"/>
	<polygon class="st3" points="9.2,20.5 22.2,16.2 14.9,11.7 	"/>
	<polygon class="st3" points="23.2,16.5 28.4,23.7 41.4,17.5 	"/>
	<polygon class="st1" points="12.6,32 3.1,32 14,35.6 	"/>
	<polygon class="st3" points="1.9,31.5 12.5,31.6 8.6,21.3 1.4,28.8 	"/>
	<polygon class="st1" points="12.9,31.5 28.1,23.8 22.7,16.5 9,21 	"/>
	<polygon class="st3" points="28.6,24.3 28.3,36.8 42.1,36.8 42.1,34.2 	"/>
	<polygon class="st2" points="27.8,36.8 28.2,24.3 13,31.9 14.5,35.8 	"/>
	<polygon class="st4" points="42.3,34.1 42.3,34.1 42.3,34.1 	"/>
	<polygon class="st1" points="42.3,33.8 55.8,24 42.3,17.6 28.8,24 	"/>
	<polygon class="st2" points="65.5,8 42.3,3.8 19.1,8 15.2,11.3 22.8,16.1 42.3,17.1 61.8,16.1 69.4,11.3 	"/>
	<polygon class="st3" points="69.8,11.2 73.7,11.2 66.7,8.5 	"/>
	<polygon class="st1" points="74.8,11.7 70.2,11.6 76.1,20.7 84,23.7 84.1,20 	"/>
	<polygon class="st3" points="62.4,16.2 75.4,20.5 69.7,11.7 	"/>
	<polygon class="st3" points="56.2,23.7 61.4,16.5 43.2,17.5 	"/>
	<polygon class="st3" points="76.7,21.4 83.3,28.3 84,24.1 	"/>
	<polygon class="st2" points="72.2,31.6 82.7,31.5 83.2,28.8 76,21.3 	"/>
	<polygon class="st1" points="81.5,32 72,32 70.6,35.6 	"/>
	<polygon class="st1" points="56.6,23.8 71.7,31.5 75.6,21 62,16.5 	"/>
	<polygon class="st3" points="56.5,24.3 56.8,36.8 70.1,35.8 71.6,31.9 	"/>
	<polygon class="st4" points="42.3,37 42.3,37 42.3,37 	"/>
	<polygon class="st3" points="46.1,55.2 42.3,38 38.5,55.2 42.3,62 	"/>
	<polygon class="st2" points="70.4,36.1 61,48.1 81.7,32.4 	"/>
	<polygon class="st3" points="68.9,37.3 46.5,55.3 42.9,61.8 59.6,49.1 	"/>
	<polygon class="st2" points="46.5,54.6 56.2,37.3 42.6,37.3 	"/>
	<polygon class="st1" points="56.7,37.2 47.1,54.3 69.6,36.2 	"/>
	<polygon class="st2" points="23.6,48.1 14.2,36.1 2.9,32.4 	"/>
	<polygon class="st3" points="38.1,55.3 15.7,37.3 25,49.1 41.7,61.8 	"/>
	<polygon class="st2" points="37.5,54.3 27.9,37.2 15,36.2 	"/>
	<polygon class="st1" points="28.4,37.3 38.1,54.6 42,37.3 	"/>
	<path class="st0" d="M28.4,37.3l9.7,17.3L42,37.3H28.4L28.4,37.3z M37.5,54.3L15,36.2l12.9,1L37.5,54.3L37.5,54.3z M38.1,55.3
		l3.6,6.5L25,49.1l-9.3-11.8L38.1,55.3L38.1,55.3z M23.6,48.1l-9.4-11.9L2.9,32.4L23.6,48.1L23.6,48.1z M56.7,37.2l-9.6,17.1
		l22.5-18.1L56.7,37.2L56.7,37.2z M46.5,54.6l-3.9-17.3h13.6L46.5,54.6L46.5,54.6z M68.9,37.3l-9.3,11.8L42.9,61.8l3.6-6.5
		L68.9,37.3L68.9,37.3z M70.4,36.1l11.3-3.8L61,48.1L70.4,36.1L70.4,36.1z M46.1,55.2L42.3,62l-3.8-6.8L42.3,38L46.1,55.2L46.1,55.2
		z M42.3,37L42.3,37L42.3,37L42.3,37L42.3,37z M42.3,62.8L42,62.6L1.6,31.9l-0.1-0.1l0,0L0.2,24c0,0,0,0,0-0.1l-0.1-4
		c0-0.1,0-0.1,0.1-0.2l9.4-8.4c0,0,0,0,0.1,0l9.3-3.7c0,0,0,0,0.1,0l23.3-4.2l0,0l0,0l23.3,4.2c0,0,0,0,0.1,0l9.3,3.7c0,0,0,0,0.1,0
		l9.4,8.4c0,0,0.1,0.1,0.1,0.2l-0.1,4c0,0,0,0,0,0.1l-1.4,7.8l0,0.1L83,31.9L42.6,62.6L42.3,62.8C42.3,62.8,42.3,62.8,42.3,62.8
		L42.3,62.8z M56.4,36.8H42.5l0-2.6L56,24.3L56.4,36.8L56.4,36.8z M56.5,24.3l15.1,7.6l-1.5,3.9l-13.3,1.1L56.5,24.3L56.5,24.3z
		 M56.6,23.8l15.2,7.6L75.6,21L62,16.5L56.6,23.8L56.6,23.8z M81.5,32L72,32l-1.4,3.6L81.5,32L81.5,32z M72.2,31.6l10.5,0l0.5-2.7
		L76,21.3L72.2,31.6L72.2,31.6z M76.7,21.4l6.5,6.9l0.7-4.2L76.7,21.4L76.7,21.4z M56.2,23.7l5.3-7.1l-18.3,1L56.2,23.7L56.2,23.7z
		 M62.4,16.2l13,4.3l-5.7-8.8L62.4,16.2L62.4,16.2z M74.8,11.7l-4.6-0.1l5.9,9.1l8,2.9l0.1-3.6L74.8,11.7L74.8,11.7z M69.8,11.2
		l3.8,0.1l-7-2.7L69.8,11.2L69.8,11.2z M65.5,8L42.3,3.8L19.1,8l-3.9,3.3l7.6,4.7l19.5,1.1l19.5-1.1l7.6-4.7L65.5,8L65.5,8z
		 M42.3,33.8L55.8,24l-13.5-6.4L28.8,24L42.3,33.8L42.3,33.8z M42.3,34.1L42.3,34.1L42.3,34.1L42.3,34.1L42.3,34.1z M27.8,36.8
		l0.3-12.5L13,31.9l1.5,3.9L27.8,36.8L27.8,36.8z M28.6,24.3l-0.3,12.5h13.8l0-2.6L28.6,24.3L28.6,24.3z M12.9,31.5l15.2-7.6
		l-5.4-7.3L9,21L12.9,31.5L12.9,31.5z M1.9,31.5l10.5,0L8.6,21.3l-7.2,7.5L1.9,31.5L1.9,31.5z M12.6,32l1.4,3.6L3.1,32L12.6,32
		L12.6,32z M1.4,28.3l6.5-6.9l-7.3,2.7L1.4,28.3L1.4,28.3z M23.2,16.5l5.3,7.1l13-6.1L23.2,16.5L23.2,16.5z M9.2,20.5l13-4.3
		l-7.3-4.6L9.2,20.5L9.2,20.5z M10.9,11.2l3.8-0.1l3.1-2.7L10.9,11.2L10.9,11.2z M14.5,11.6l-4.6,0.1L0.5,20l0.1,3.6l8-2.9
		L14.5,11.6z"/>
	<polygon class="st2" points="56.4,36.8 56,24.3 42.5,34.2 42.5,36.8 	"/>
</g>
</svg>
