<?xml version="1.0" encoding="utf-8"?>
<!-- Generator: Adobe Illustrator 23.0.6, SVG Export Plug-In . SVG Version: 6.00 Build 0)  -->
<svg version="1.1" x="0px" y="0px" width="179" height="35" viewBox="9.708 10.845 179 35" fill="none" xmlns="http://www.w3.org/2000/svg" xmlns:xlink="http://www.w3.org/1999/xlink" enable-background="new 9.708 10.845 179 35">
<path fill="#00D66C" d="M42.073 28.348c0-8.893-7.038-15.967-15.932-15.967S10.21 19.456 10.21 28.35c0 8.892 7.04 15.96 15.932 15.96 8.894.002 15.93-7.068 15.93-15.96l.003-.002z"/><path fill="#fff" d="M33.18 30.652h-.896c-.896 0-1.278.478-1.408 1.405-.226 1.697-1.568 2.846-3.328 2.846-2.046 0-3.356-1.502-3.356-3.68v-5.116c0-.205-.03-.385-.08-.546.192.087.422.132.686.132H29.5c.898 0 1.408-.513 1.408-1.407v-.415c0-.897-.51-1.408-1.408-1.408h-2.652V19.58c0-.894-.514-1.407-1.408-1.407h-.642c-.894 0-1.406.514-1.406 1.407v4.705c0 .202.026.383.08.545-.194-.086-.424-.13-.688-.13h-4.702c-.895 0-1.408.512-1.408 1.407v.417c0 .896.513 1.408 1.408 1.408h2.656v3.29c0 4.127 2.655 7.007 6.814 7.007 3.872 0 6.43-2.465 6.91-6.174.126-.928-.482-1.404-1.283-1.404z"/><path fill="#00D66C" d="M63.928 36.81h3.74v-8.13c0-2.94 1.604-3.965 3.52-3.965 1.113 0 1.938.332 2.696.978l1.694-2.984c-1.025-.937-2.386-1.4-3.72-1.4-1.784 0-3.52.82-4.412 2.425L67.2 21.62h-3.273v15.193-.004zm105.524-18.8c0-1.448-1.113-2.185-2.23-2.185-1.09 0-2.203.732-2.203 2.184 0 1.47 1.113 2.182 2.203 2.182 1.113 0 2.23-.713 2.23-2.183zM57.09 17.253l-3.745.4v3.965H50.54v3.23h2.805v6.792c0 3.652 2.095 5.347 5.235 5.347 1.338 0 2.475-.313 3.275-.76l-1.002-3.03c-.534.246-1.202.427-1.828.427-1.247 0-1.938-.714-1.938-2.16V24.85h4.188v-3.23h-4.188l.002-4.366zm34.795 4.366h-3.363l-.247 2.117c-.847-1.404-2.518-2.428-5.123-2.428-4.167 0-7.775 2.602-7.775 7.906s3.608 7.906 7.775 7.906c2.605 0 4.276-1.02 5.126-2.425l.244 2.118h3.36V21.62h.003zm73.467 0v15.19h3.744V21.62h-3.744zM83.665 33.87c-2.56 0-4.477-1.713-4.477-4.654 0-2.942 1.915-4.657 4.477-4.657 2.563 0 4.48 1.712 4.48 4.656 0 2.94-1.915 4.653-4.48 4.653zm61.128-12.25h-3.365l-.248 2.117c-.845-1.404-2.51-2.428-5.12-2.428-4.167 0-7.774 2.602-7.774 7.906s3.608 7.906 7.774 7.906c2.604 0 4.276-1.02 5.12-2.425l.25 2.118h3.363V21.62zm-8.222 12.25c-2.56 0-4.478-1.713-4.478-4.654 0-2.942 1.915-4.657 4.48-4.657s4.48 1.712 4.48 4.656c0 2.94-1.917 4.653-4.48 4.653zm51.638-12.25h-3.364l-.246 2.117c-.845-1.404-2.515-2.428-5.12-2.428-4.168 0-7.776 2.602-7.776 7.906s3.61 7.906 7.775 7.906c2.604 0 4.276-1.02 5.12-2.425l.247 2.118h3.364V21.62zm-8.22 12.25c-2.558 0-4.478-1.713-4.478-4.654 0-2.942 1.915-4.657 4.48-4.657 2.562 0 4.48 1.712 4.48 4.656-.003 2.94-1.92 4.653-4.48 4.653zm-22.943 2.94l6.482-15.19h-3.897l-4.436 11.202-4.438-11.202h-4.142l6.48 15.19h3.952zm-61.596 0h3.743v-8.15c0-2.562 1.648-4.012 3.83-4.012 2.183 0 3.676 1.447 3.676 4.01v8.152h3.743v-8.707c0-4.522-2.81-6.792-6.396-6.792-2.383 0-4.143 1.004-4.987 2.428l-.245-2.117H95.45v15.195-.006zm24.436.31c4.702 0 6.684-2.134 6.684-4.83 0-3.41-3.208-4.257-5.793-4.59-1.49-.203-3.785-.334-3.785-1.806 0-1.093 1.292-1.563 2.896-1.563 1.447 0 2.897.38 4.077 1.403l1.893-2.496c-1.667-1.447-3.607-1.938-5.792-1.938-3.25 0-6.86 1.11-6.86 4.763 0 3.363 3.028 4.255 5.792 4.61 1.577.203 3.786.355 3.786 1.807 0 1.065-1.202 1.558-2.763 1.558-1.762 0-4.076-.644-5.482-2.117l-1.892 2.496c1.914 2.122 4.79 2.7 7.24 2.7v.005z"/></svg>
