<?xml version="1.0" encoding="utf-8"?>
<!-- Generator: Adobe Illustrator 24.1.3, SVG Export Plug-In . SVG Version: 6.00 Build 0)  -->
<svg version="1.1" id="Layer_1" xmlns="http://www.w3.org/2000/svg" xmlns:xlink="http://www.w3.org/1999/xlink" x="0px" y="0px" width="1631.8" height="416.8"
	 viewBox="0 0 1631.8 416.8" style="enable-background:new 0 0 1631.8 416.8;" xml:space="preserve">
<style type="text/css">
	.st0{fill:#FCD000;}
	.st1{clip-path:url(#SVGID_2_);}
	.st2{fill:#FFFFFF;}
	.st3{fill:#1D1D1B;}
	.st4{clip-path:url(#SVGID_4_);}
	.st5{clip-path:url(#SVGID_6_);}
	.st6{clip-path:url(#SVGID_8_);}
	.st7{fill-rule:evenodd;clip-rule:evenodd;fill:#1D1D1B;}
	.st8{clip-path:url(#SVGID_17_);}
	.st9{fill-rule:evenodd;clip-rule:evenodd;fill:#FFFFFF;}
	.st10{fill:#0A0A0D;}
	.st11{fill:#210A0C;}
</style>
<g>
	<g>
		<g>
			<g>
				<path class="st0" d="M471.2,398.1l55.6-310.5h143c10.9,0,22,1.2,32.9,3.5c11.4,2.4,21.9,6.6,31.2,12.2
					c9.7,5.9,17.7,13.8,23.8,23.3c6.3,9.9,9.5,21.9,9.5,35.8c0,22.7-6.6,41.6-19.7,56.1c-6.3,7-13.4,12.9-21.4,17.7
					c5.1,3.4,9.7,7.5,13.7,12.3c5.4,6.3,9.7,13.7,12.8,22c3.1,8.3,4.6,17.5,4.6,27.2c0,16.5-3.6,31.4-10.8,44.2
					c-7,12.7-17,23.4-29.7,31.8c-12.2,8.1-26.8,14.3-43.4,18.4c-16.2,4-34,6-52.9,6H471.2z M611.1,301.4c4.7,0,9.2-0.3,13.6-0.9
					c3.7-0.5,6.9-1.4,9.4-2.6c1.9-0.9,3.2-2,4.2-3.4c0.7-1,1.1-2.8,1.1-5c0-2.5-0.7-3.5-2.2-4.5c-1.6-1.1-5.7-3-14.6-3h-17.9
					l-3.5,19.4H611.1z M631.2,199.8c3,0,6-0.2,9.1-0.7c2.3-0.3,4.3-1,6.1-1.9c1.3-0.7,2.3-1.6,3.2-2.9c0.2-0.3,0.8-1.5,0.8-4.6
					c0-2.3-0.5-2.5-1.3-3c-3.3-1.8-7.9-2.7-13.8-2.7h-13.7l-2.6,15.7H631.2z"/>
			</g>
			<g>
				<path d="M669.8,99.6c10.1,0,20.3,1.1,30.4,3.2c10.1,2.2,19.3,5.7,27.5,10.7c8.2,5,14.8,11.5,19.9,19.5c5.1,8,7.6,17.8,7.6,29.4
					c0,19.7-5.5,35.7-16.6,48c-11.1,12.3-25.1,20.7-42.1,25.3v0.8c6.6,1.3,12.8,3.6,18.7,6.9c5.9,3.2,11.1,7.5,15.6,12.7
					c4.5,5.3,8.1,11.4,10.7,18.4c2.6,7,3.9,14.7,3.9,23c0,14.5-3.1,27.3-9.2,38.4c-6.2,11.1-14.8,20.3-25.9,27.7
					c-11.1,7.4-24.3,13-39.6,16.8c-15.3,3.8-32,5.6-50.1,5.6h-135l51.3-286.5H669.8 M604.9,211.7h26.3c3.5,0,7.2-0.3,10.9-0.8
					c3.7-0.5,7-1.6,10.1-3.3c3-1.6,5.5-3.9,7.4-6.7c1.9-2.9,2.9-6.6,2.9-11.3c0-6.3-2.5-10.8-7.6-13.5c-5.1-2.7-11.6-4.1-19.5-4.1
					h-23.8L604.9,211.7 M586.9,313.3h24.2c5.2,0,10.3-0.3,15.2-1c4.9-0.7,9.2-1.9,12.9-3.6c3.7-1.7,6.6-4.2,8.8-7.3
					c2.2-3.1,3.3-7.1,3.3-11.9c0-6.2-2.5-11-7.4-14.4c-4.9-3.4-12-5.1-21.3-5.1h-27.9L586.9,313.3 M669.8,75.7h-133h-20l-3.5,19.7
					L461.9,382l-5,28.1h28.6h135c19.9,0,38.7-2.1,55.8-6.3c18-4.4,33.9-11.2,47.2-20.1c14.2-9.5,25.5-21.6,33.5-35.9
					c8.1-14.6,12.3-31.4,12.3-50c0-11.2-1.8-21.7-5.4-31.3c-3.6-9.7-8.6-18.3-15-25.7c-1.1-1.3-2.2-2.5-3.4-3.7
					c3.8-3.2,7.4-6.7,10.8-10.4c15.1-16.8,22.8-38.3,22.8-64.1c0-16.2-3.8-30.4-11.3-42.2c-7-11.1-16.3-20.2-27.7-27.1
					c-10.5-6.4-22.2-11-34.9-13.7C693.4,77,681.5,75.7,669.8,75.7L669.8,75.7z"/>
			</g>
		</g>
		<g>
			<g>
				<path class="st0" d="M895.9,405.4c-19.6,0-37.7-2.2-53.9-6.5c-16.6-4.4-31.1-10.9-43.2-19.4c-12.4-8.7-22.2-19.6-29.1-32.2
					c-7-12.8-10.5-27.4-10.5-43.4c0-4.3,0.3-9.2,0.9-14.5c0.6-5.1,1.1-9.7,1.7-13.9l32.6-188h118.4l-32.6,180l-0.1,0.4
					c-0.3,1.2-0.5,2.5-0.5,3.9v6.5c0,6.1,1.8,11.3,5.5,15.9c3.8,4.7,12.2,5.7,18.6,5.7c6.6,0,11.7-0.9,15.3-2.8
					c3.7-1.9,6.6-4.2,8.8-7.1c2.5-3.2,4.2-6.8,5.5-10.8c1.5-5,2.8-10.1,3.8-15.1l32.6-176.7h116.5l-34,195.3
					c-3.2,18.2-8.8,34.9-16.6,49.8c-8,15.3-18.7,28.5-31.8,39.1c-13,10.6-28.7,18.9-46.8,24.8C939.3,402.5,918.7,405.4,895.9,405.4z
					"/>
			</g>
			<g>
				<path d="M1072,99.6L1040.4,281c-3,17-8.1,32.4-15.4,46.3c-7.3,13.9-16.8,25.7-28.7,35.4c-11.9,9.7-26.2,17.3-42.9,22.7
					c-16.7,5.4-35.9,8.1-57.5,8.1c-18.6,0-35.6-2-50.9-6.1c-15.3-4-28.5-9.9-39.4-17.6c-10.9-7.7-19.4-17.1-25.4-28.1
					c-6-11.1-9-23.6-9-37.6c0-3.8,0.3-8.2,0.8-13.2c0.5-5,1.1-9.5,1.6-13.6l30.8-177.7h94l-30,165.5c0,0-8.5,47.8,35.3,47
					c8.5,0,15.4-1.3,20.7-4c5.3-2.7,9.6-6.2,12.9-10.5c3.3-4.3,5.7-9.2,7.4-14.6c1.6-5.4,3-10.8,4.1-16.2l30.8-167.2H1072
					 M1100.5,75.7H1072h-92.3h-19.9l-3.6,19.6l-30.7,166.9c-0.9,4.5-2.1,9.2-3.5,13.8c-0.8,2.7-2,5-3.5,7c-1.1,1.4-2.6,2.6-4.7,3.7
					c-0.7,0.3-3.4,1.5-9.9,1.5c-15.6,0.2-11.8-18.8-11.8-18.8l30-165.5l5.1-28.2h-28.6h-94h-20.1l-3.4,19.8L750,273.2l-0.1,0.4
					l-0.1,0.4c-0.6,4.2-1.2,9-1.7,14.2c-0.6,5.7-1,11-1,15.8c0,18,4,34.5,11.9,49.1c7.7,14.3,18.8,26.5,32.7,36.3
					c13.2,9.3,29.1,16.4,47.1,21.2c17.2,4.6,36.4,6.9,57,6.9c24,0,45.8-3.1,64.8-9.3c19.5-6.3,36.5-15.3,50.7-26.9
					c14.4-11.7,26.1-26.2,34.8-42.9c8.3-16,14.3-33.9,17.7-53.2l31.6-181.4L1100.5,75.7L1100.5,75.7z"/>
			</g>
		</g>
		<g>
			<g>
				<polygon class="st0" points="1038.8,398.1 1056,301.7 1172.8,189.3 1080.7,189.3 1098.9,87.7 1354.3,87.7 1338.8,173.5
					1214.3,294.5 1320.7,294.5 1302,398.1 				"/>
			</g>
			<g>
				<path d="M1340,99.6l-12.3,68l-142.8,138.8h121.5l-14.4,79.7h-238.9l14-78.5l135.4-130.3H1095l14-77.7H1340 M1368.7,75.7H1340
					h-231.1h-20l-3.5,19.7l-14,77.7l-5.1,28.2h28.6h48.2l-92.7,89.2l-5.6,5.4l-1.4,7.7l-14,78.5l-5,28.1h28.6H1292h20l3.5-19.7
					l14.4-79.7l5.1-28.2h-28.6h-62.6l100.6-97.7l5.5-5.3l1.4-7.5l12.3-68L1368.7,75.7L1368.7,75.7z"/>
			</g>
		</g>
		<g>
			<g>
				<polygon class="st0" points="1301.9,398.1 1319.1,301.7 1435.9,189.3 1343.8,189.3 1362,87.7 1617.4,87.7 1601.9,173.5
					1477.4,294.5 1583.8,294.5 1565.1,398.1 				"/>
			</g>
			<g>
				<path d="M1603.1,99.6l-12.3,68L1448,306.5h121.5l-14.4,79.7h-238.9l14-78.5l135.4-130.3h-107.5l14-77.7H1603.1 M1631.8,75.7
					h-28.6H1372h-20l-3.5,19.7l-14,77.7l-5.1,28.2h28.6h48.2l-92.7,89.2l-5.6,5.4l-1.4,7.7l-14,78.5l-5,28.1h28.6h238.9h20l3.5-19.7
					l14.4-79.7l5.1-28.2h-28.6h-62.5l100.6-97.7l5.5-5.3l1.4-7.5l12.3-68L1631.8,75.7L1631.8,75.7z"/>
			</g>
		</g>
	</g>
	<g>
		<g>
			<g>
				<g>
					<g>
						<defs>
							<path id="SVGID_1_" d="M321.8,276.3L321.8,276.3l7.8,30.2c0,0,45.4,14.3,96.6-2.3c51.2-16.7,36.1-86.7-25.4-86.3
								C339.7,218.2,322.1,275.4,321.8,276.3"/>
						</defs>
						<clipPath id="SVGID_2_">
							<use xlink:href="#SVGID_1_"  style="overflow:visible;"/>
						</clipPath>
						<g class="st1">

								<rect x="308.4" y="172.3" transform="matrix(0.7056 -0.7086 0.7086 0.7056 -71.6283 362.7841)" class="st2" width="184.8" height="190.5"/>
						</g>
					</g>
					<g>
						<path class="st3" d="M400.7,220.8c-55.1,0.3-73.5,48.7-75.8,55.5l7.1,27.7c8.4,2.3,48.5,11.8,93.2-2.8
							c14.2-4.6,23-13.6,26.7-23.9c2.2-6.2,2.7-12.9,1.4-19.4c-1.2-6.6-4.2-13-8.8-18.6C435.7,228.5,420.9,220.7,400.7,220.8
							 M318.9,275.5c0.1-0.2,18.1-60.3,81.9-60.7c22.2-0.1,38.7,8.6,48.5,20.7c5.2,6.4,8.6,13.7,10,21.3c1.4,7.6,0.9,15.4-1.7,22.6
							c-4.3,12-14.3,22.4-30.6,27.7c-52.1,17-98.3,2.4-98.4,2.3l-1.6-0.5l-0.4-1.6l-7.8-30.2l-0.2-0.8L318.9,275.5z"/>
						<path class="st3" d="M373.9,322c-25.7,0-44.1-5.2-47.2-6.2l-5.3-1.6l-9.6-37.2l0.3-2.6l6,1l0-0.1l-5.8-1.6
							c0.2-0.6,19.7-65.2,88.3-65.6c22.7,0.5,41.5,8.1,53.8,23.2c5.8,7.1,9.7,15.5,11.4,24.3c1.7,8.9,1,17.9-2,26.1
							c-5.4,14.9-17.7,26.2-34.8,31.8C409.1,319.9,390.1,322,373.9,322z M337.5,298.5c12.6,2.9,47.6,8.8,85.6-3.6
							c11.2-3.6,19.1-10.7,22.5-19.8c1.8-5,2.2-10.5,1.1-15.9c-1.1-5.6-3.6-11-7.4-15.6c-8.5-10.4-22.2-15.9-38.6-16l0,0
							c-47,0.3-65,39.3-68.8,49.2L337.5,298.5z"/>
					</g>
					<g>
						<defs>
							<path id="SVGID_3_" d="M316.2,199.2c0,0,14.9-95.9,83.5-126.1c68.6-30.2,91,68,35.2,117.8C379.1,240.6,327.3,241,327.3,241
								L316.2,199.2z"/>
						</defs>
						<clipPath id="SVGID_4_">
							<use xlink:href="#SVGID_3_"  style="overflow:visible;"/>
						</clipPath>
						<g class="st4">

								<rect x="271.3" y="10.7" transform="matrix(0.7057 -0.7085 0.7085 0.7057 18.3776 329.545)" class="st2" width="269" height="263.9"/>
						</g>
					</g>
					<g>
						<path class="st3" d="M400.9,76C337,104,320.7,190.7,319.3,199.1l10.3,38.7c10.6-0.7,55.3-6.4,103.2-49.2
							c21.7-19.3,31.2-46.2,30.5-69.6c-0.3-10.1-2.5-19.5-6.5-27.3c-3.9-7.6-9.5-13.7-16.6-17.4C430.2,69.2,416.9,68.9,400.9,76
							 M313.1,198.8c0-0.3,15.1-97.6,85.3-128.4c17.9-7.9,33-7.4,44.6-1.5c8.3,4.2,14.8,11.3,19.2,20.1c4.4,8.6,6.8,18.9,7.2,29.9
							c0.8,25-9.4,53.7-32.5,74.3C380.3,243.7,327.5,244,327.3,244l-2.4,0l-0.6-2.3L313.2,200l-0.2-0.6L313.1,198.8z"/>
						<path class="st3" d="M319.8,250.9l-13.4-50.5l0.1-2l6.1,0.4l0,0l-6.1-1c0.7-4.1,17-101.7,89.2-133.5
							c23.5-10.3,40.3-6.4,50.3-1.3c9.2,4.7,16.9,12.7,22.1,23c4.8,9.4,7.5,20.7,7.9,32.7c0.9,29.6-12.1,59.3-34.7,79.5
							c-58.8,52.5-114.5,52.3-114.8,52.5L319.8,250.9z M326.1,198.8l8.5,31.8c16.3-2.2,53.6-11.1,93.8-47
							c18.4-16.4,29-40.5,28.2-64.4c-0.3-9.1-2.3-17.6-5.8-24.5c-3.4-6.6-8.1-11.6-13.7-14.5c-8.9-4.6-20.5-4-33.6,1.8l0,0
							C345.5,107.6,328.8,184.6,326.1,198.8z"/>
					</g>
					<g>
						<defs>
							<path id="SVGID_5_" d="M240.1,309.3c0,0-52.9-29.7-97.4,12.7c-44.5,42.5-6.7,103.3,41.7,79.8c48.4-23.5,71.1-65.4,71.1-65.4
								L240.1,309.3z"/>
						</defs>
						<clipPath id="SVGID_6_">
							<use xlink:href="#SVGID_5_"  style="overflow:visible;"/>
						</clipPath>
						<g class="st5">

								<rect x="76.5" y="254.9" transform="matrix(0.9522 -0.3056 0.3056 0.9522 -99.6661 70.8938)" class="st2" width="200.2" height="197.7"/>
						</g>
					</g>
					<g>
						<path class="st3" d="M140.6,319.8c46.2-44,100.8-13.3,101-13.2l0.8,0.4l0.4,0.8l15.4,27.1l0.8,1.5l-0.8,1.5
							c-0.1,0.1-23.2,42.7-72.5,66.6c-15.3,7.5-29.7,6.9-41.2,1.3c-6.9-3.4-12.7-8.7-16.9-15.1c-4.2-6.4-6.9-14.1-7.6-22.2
							C118.7,352.9,124.6,335.1,140.6,319.8 M238,311.6c-6.4-3.3-53.2-25.4-93.1,12.6C130.3,338.1,125,354,126.2,368
							c0.6,7.2,2.9,13.9,6.6,19.4c3.6,5.5,8.6,10,14.5,13c9.8,4.8,22.3,5.2,35.8-1.3c42.3-20.5,64.5-55.2,69-62.7L238,311.6z"/>
						<path class="st3" d="M163,416.8c-7.5,0-14.7-1.6-21.4-5c-7.8-3.9-14.6-9.9-19.5-17.4c-4.9-7.5-7.9-16.2-8.7-25.3
							c-1.7-19.4,6.4-38.6,22.6-54l0,0c50.1-47.8,108.6-14.4,109.1-14l3,2.8l18.5,32.6l-2.6,4.8c-1,1.8-25.2,45-75.4,69.4
							C180.1,414.7,171.4,416.8,163,416.8z M198.5,308.9c-15,0-32.7,4.5-49,20.1c-11.9,11.4-17.8,25-16.7,38.4
							c0.5,5.9,2.4,11.6,5.5,16.3c3,4.6,7.1,8.3,11.9,10.6c8.7,4.3,19.3,3.8,29.9-1.3c36.1-17.5,57.1-46,64.2-56.9l-11.1-19.6
							C228.1,314.3,214.9,308.9,198.5,308.9z"/>
					</g>
					<g>
						<defs>
							<path id="SVGID_7_" d="M190.6,249.9c0,0-77.3-58.7-147.7-32.7c-70.4,25.9-18.2,112.1,56.5,109.2
								c74.7-3,112.2-38.7,112.2-38.7L190.6,249.9z"/>
						</defs>
						<clipPath id="SVGID_8_">
							<use xlink:href="#SVGID_7_"  style="overflow:visible;"/>
						</clipPath>
						<g class="st6">

								<rect x="-44.8" y="157" transform="matrix(0.9769 -0.2139 0.2139 0.9769 -53.9824 25.8371)" class="st2" width="274.3" height="210.7"/>
						</g>
					</g>
					<g>
						<path class="st3" d="M41.9,214.3c72-26.5,150.4,33,150.6,33.2l0.5,0.4l0.3,0.6l21,37.7l1.2,2.1l-1.8,1.6
							c-0.1,0.1-38.4,36.5-114.2,39.5c-31,1.2-58.2-12.4-75-30.9c-7.4-8.1-12.8-17.3-15.7-26.5c-2.9-9.4-3.1-19-0.1-27.8
							C13,231.9,23.5,221.1,41.9,214.3 M188.3,252.1c-6.5-4.8-78.6-56.2-144.3-32c-16.4,6.1-25.7,15.5-29.4,26.1
							c-2.6,7.5-2.4,15.8,0.2,24c2.6,8.4,7.5,16.7,14.3,24.2c15.7,17.3,41.2,30,70.2,28.9c64.3-2.6,100.3-29.5,108.5-36.3
							L188.3,252.1z"/>
						<path class="st3" d="M95.8,336.2c-28.9,0-57.1-12.2-76.2-33.1c-8.1-8.9-14-18.9-17.1-29.1c-3.4-11-3.4-22,0-31.9
							c3.6-10.6,13-25.1,37.1-34l0,0c73.8-27.2,153.5,31.6,156.9,34.1l2.3,2.5l25.1,45l-5.6,5.2C218.1,295,178,333,99.8,336.1
							C98.5,336.2,97.1,336.2,95.8,336.2z M81.8,220.3c-11.7,0-23.7,1.8-35.4,6.1c-13.4,4.9-22.1,12.5-25.4,22
							c-2,5.9-2,12.8,0.2,19.9c2.3,7.4,6.7,14.9,12.9,21.7c16.1,17.7,40.7,27.6,65,26.7c54.1-2.2,87.7-22.4,100.1-31.4l-16-28.6
							C173.8,249.9,129.7,220.3,81.8,220.3z"/>
					</g>
					<g>
						<path class="st7" d="M350.2,377.2c7.7-58.4,30.4-70.9,10.8-129.2c-9.8-29.3-30.4-54.9-59.5-70.9l-57.1,25.2l-58.6,21.5
							c-9.3,29.8-7.1,60.5,4.1,87.2c24.9,59.1,53.8,52,101.4,89.5C309.7,404.4,336.7,403.9,350.2,377.2z"/>
					</g>
					<g>
						<path class="st3" d="M188.3,226.1c-1.1,3.7-2,7.4-2.8,11.1c-0.8,4-1.4,8.1-1.9,12.3c-2.1,20.9,1.2,41.6,9.1,60.3
							c16.6,39.3,52.1,59.9,87.9,80.8c18.8,11,26.8-4.7,43.4,9.2c2.3-21.3,19.1-15.6,25.1-36.5c10.9-38.2,21.7-76.2,9-114.3l0-0.1
							c-1.3-4-2.9-7.9-4.7-11.8l0,0c-1.7-3.8-3.7-7.6-5.8-11.2c-10.8-18.4-26.4-34.2-46.3-45.3l-55.6,24.6l-0.2,0.1L188.3,226.1z
							 M326.6,398.7c-17.1,5.6-35.1,3.8-49-2.8c-38.3-18.3-73.1-42.5-90.4-83.7c-8.3-19.6-11.7-41.3-9.6-63.3
							c0.4-4.2,1.1-8.5,2-12.9c0.9-4.3,2-8.6,3.3-12.9l0,0l0.1-0.3l0.5-1.4l1.4-0.5l58.4-21.5l57-25.2l1.4-0.6l1.3,0.7
							c21.5,11.8,38.4,28.6,50,48.3c2.2,3.8,4.3,7.8,6.1,11.8l0,0c1.8,4,3.5,8.2,4.9,12.4l0,0.1c13.4,39.9,4.4,79.5-8.9,117.9
							C347.9,385.4,344.8,387.2,326.6,398.7L326.6,398.7"/>
					</g>
					<g>
						<defs>
							<path id="SVGID_9_" d="M180.8,275.6L180.8,275.6c1.3,12.3,4.5,24.2,9.2,35.4c2,4.7,4.2,9.1,6.7,13.3
								c69.2,11.2,125.4-9.9,167-67.2c-0.7-3.1-1.6-6.1-2.6-9.2c-4.3-12.9-10.7-25.1-19-36C308.3,272.9,254.6,294.1,180.8,275.6"/>
						</defs>
						<use xlink:href="#SVGID_9_"  style="overflow:visible;fill-rule:evenodd;clip-rule:evenodd;fill:#FCD000;"/>
						<clipPath id="SVGID_10_">
							<use xlink:href="#SVGID_9_"  style="overflow:visible;"/>
						</clipPath>
					</g>
					<g>
						<path class="st3" d="M184.4,279.7l0.1,0.8c0.2,1.6,0.5,3.3,0.9,4.9c1.6,8.4,4.2,16.6,7.5,24.4l0,0c0.9,2.2,2,4.5,3.1,6.7l0,0
							c0.8,1.7,1.7,3.4,2.7,5.1c33.5,5.2,63.9,2.7,90.8-8c27-10.7,50.7-29.5,70.9-57c-0.3-1.1-0.6-2.2-0.8-3.1
							c-0.4-1.5-0.9-3-1.4-4.5l0,0c-0.7-1.9-1.3-3.7-1.9-5.2c-0.7-1.7-1.4-3.4-2.1-5.1l0,0c-3.2-7.3-7.2-14.3-11.8-20.9
							c-16.8,28.8-38.4,48.4-64.7,58.8C251.1,286.8,220.1,287.9,184.4,279.7 M177.7,276.2l0-0.2l-0.5-4.4l4.3,1.1
							c36.3,9.1,67.6,8.4,93.8-1.9c26.2-10.3,47.5-30.4,63.9-60.3l2.3-4.1l2.8,3.8c6.1,8.1,11.2,16.8,15.3,25.9l0,0
							c0.8,1.7,1.5,3.6,2.2,5.4c0.8,2,1.5,3.8,2,5.5l0,0l0,0.1l0,0c0.5,1.6,1,3.1,1.4,4.7c0.5,1.7,0.9,3.2,1.2,4.7l0.3,1.4l-0.8,1.2
							c-21.1,29.1-46,49.1-74.5,60.3c-28.4,11.3-60.3,13.8-95.5,8.1l-1.4-0.2l-0.7-1.3c-1.2-2.1-2.4-4.3-3.6-6.6l0,0
							c-1.1-2.2-2.2-4.6-3.2-7c-3.5-8.2-6.1-16.8-7.8-25.6c-0.3-1.7-0.6-3.4-0.9-5.2C178.2,279.8,177.9,278,177.7,276.2z"/>
					</g>
					<g>
						<defs>
							<path id="SVGID_11_" d="M268.9,387.3l0.2,0c35.7,5.9,69.6-8.2,84.3-28.2c12.5-17.1,11.3-40.7,13-61.1
								c-36.9,38.7-85.1,57.5-144.6,56.6C235.9,367.2,252.2,377.4,268.9,387.3"/>
						</defs>
						<use xlink:href="#SVGID_11_"  style="overflow:visible;fill-rule:evenodd;clip-rule:evenodd;fill:#FCD000;"/>
						<clipPath id="SVGID_12_">
							<use xlink:href="#SVGID_11_"  style="overflow:visible;"/>
						</clipPath>
					</g>
					<g>
						<path class="st3" d="M242.7,374.5c-8-5.4-15.7-11.2-22.9-17.6l-6.1-5.5l8.2,0.1c29.3,0.5,55.8-4,79.6-13.2
							c23.7-9.3,44.6-23.4,62.8-42.4l5.3-6.2l-0.1,8.5c-0.9,10.3-3.4,20.5-5,31c-1.6,10.2-5.1,20.5-8,30.7l-0.2,0.7l-0.5,0.6
							c-11.9,12.6-33.4,23.3-57.4,27.5c-4.7,0.8-9.5,1.4-14.3,1.7c-4.8,0.3-9.7,0.3-14.7,0l0,0l-0.5,0l-0.7,0l-0.6-0.4
							C259,384.9,250.6,379.9,242.7,374.5 M230.1,357.7c5.1,4.1,10.4,8,15.9,11.7c7.7,5.2,11.6,7.6,19.7,12.4l4.1,2.4
							c32.4,13.7,75.5-9.9,80.9-26.7c3.4-10.7,5.6-19.9,7.8-29.7c1.6-7.2,3-14.4,3.9-21.5c-17.3,16.6-36.9,29.1-58.7,37.7
							C281.5,352.7,257,357.3,230.1,357.7z"/>
					</g>
					<g>
						<g>
							<g>
								<defs>
									<path id="SVGID_13_" d="M183.1,65.4l8.5-4.2l0,0l0,0l-0.8,0L188.7,15c0.8,0,1.6-0.1,2.5-0.3c4-1.2,6.2-5.4,5-9.4
										c-1.2-4-5.4-6.2-9.4-5c-4,1.2-6.2,5.4-5,9.4c0.6,1.9,1.9,3.4,3.5,4.3L181,58.3l-18.3-11.5l-0.1-0.1l-0.1-0.1l0.4-0.5
										c0.4-1,0.7-2.1,0.6-3.1l0,0l0-0.1l0-0.1l0,0l0-0.1l0-0.1l0,0l0-0.1l0-0.1l0,0l0-0.1c0-0.3-0.1-0.6-0.1-0.9l0-0.2l0-0.2
										l-0.1-0.2c-1.2-4-5.4-6.2-9.4-5c-4,1.2-6.2,5.4-5,9.4c1.2,4,5.4,6.2,9.4,5l0.1,0l0.1,0l0.1,0l0,0l0,0l0.1,0l0.4-0.2l0,0
										l0,0l0,0c0.3-0.1,0.6-0.3,0.8-0.4l16.7,19.6L183.1,65.4z"/>
								</defs>
								<use xlink:href="#SVGID_13_"  style="overflow:visible;fill-rule:evenodd;clip-rule:evenodd;fill:#1D1D1B;"/>
								<clipPath id="SVGID_14_">
									<use xlink:href="#SVGID_13_"  style="overflow:visible;"/>
								</clipPath>
							</g>
							<g>
								<path class="st3" d="M159.8,47.2L159.8,47.2l1.4-1.7l0.2-0.2l0-0.1l0.1-0.3l0.1-0.3l0,0c0.1-0.5,0.2-0.9,0.2-1.4l0-0.1l0,0
									l0,0l0-0.2l-0.3-1.5c-0.5-1.3-1.5-2.4-2.7-3c-1.2-0.7-2.7-0.9-4.2-0.4l-0.1,0l0,0l0,0l0,0c-1.5,0.4-2.6,1.5-3.3,2.7l0,0
									c-0.7,1.3-0.9,2.8-0.4,4.3l0,0l0,0.1l0,0l0,0.1l0,0c0.1,0.4,0.3,0.8,0.5,1.1l0,0c0.2,0.3,0.5,0.7,0.7,1
									c1.4,1.5,3.6,2.2,5.7,1.6l0.1,0l0,0l0.3-0.2l0.1,0L159.8,47.2z M160.2,47.4l-0.1-0.1l0,0.2L160.2,47.4z M187.2,13.1l1.5,0.1
									c0.3,0,0.6,0,0.9,0l0,0c0.3,0,0.6-0.1,0.9-0.2l0,0l0,0l0,0c0.4-0.1,0.8-0.3,1.1-0.5c0.4-0.2,0.7-0.5,1-0.7l0,0
									c1.5-1.4,2.2-3.7,1.6-5.8l0,0l0,0l0,0c-0.5-1.5-1.5-2.6-2.8-3.3l0,0c-1.3-0.7-2.8-0.9-4.2-0.5l-0.1,0l0,0
									c-0.4,0.1-0.8,0.3-1.2,0.5c-0.4,0.2-0.7,0.5-1,0.7c-1.5,1.4-2.2,3.7-1.6,5.8l0,0l0,0l0,0c0.1,0.2,0.1,0.4,0.2,0.6l0,0l0,0
									l0,0c0.1,0.2,0.2,0.4,0.3,0.5l0,0c0.5,0.9,1.3,1.6,2.2,2.1L187.2,13.1z M186.3,67.9l3.5-1.6l-3.1-50.6l-3.9,43l-0.7,2.7
									l-2.2-1.7l-18.2-11.4l0,0l-0.1,0l-1.3-0.8l0.9,1l22.7,21.8L186.3,67.9z"/>
							</g>
						</g>
						<g>
							<defs>
								<path id="SVGID_15_" d="M187.9,61.2c47.9-19.3,102.4,3.8,121.8,51.7c19.3,47.9-3.8,102.4-51.7,121.7
									c-47.9,19.3-102.4-3.8-121.8-51.7C116.9,135.1,140,80.6,187.9,61.2z"/>
							</defs>
							<defs>
								<path id="SVGID_16_" d="M223.1,248.6c-39.8,0-77.6-23.8-93.4-62.9c-10.1-24.9-9.8-52.3,0.7-77c10.5-24.8,30-43.9,54.9-54h0
									c24.9-10.1,52.3-9.8,77,0.7c24.8,10.5,43.9,30,54,54.9c10.1,24.9,9.8,52.3-0.7,77c-10.5,24.7-30,43.9-54.9,54
									C248.3,246.2,235.6,248.6,223.1,248.6z M222.9,61.5c-10.9,0-21.9,2.1-32.4,6.3l0,0c-21.4,8.6-38.1,25.1-47.2,46.3
									c-9,21.3-9.2,44.7-0.6,66.1c17.8,44.2,68.3,65.6,112.5,47.7c21.4-8.6,38.1-25.1,47.2-46.3c9-21.3,9.2-44.7,0.6-66.1
									c-8.6-21.4-25.1-38.1-46.4-47.2C245.9,63.8,234.4,61.5,222.9,61.5z"/>
							</defs>
							<use xlink:href="#SVGID_15_"  style="overflow:visible;fill-rule:evenodd;clip-rule:evenodd;fill:#FCD000;"/>
							<use xlink:href="#SVGID_16_"  style="overflow:visible;fill:#1D1D1B;"/>
							<clipPath id="SVGID_17_">
								<use xlink:href="#SVGID_15_"  style="overflow:visible;"/>
							</clipPath>
							<clipPath id="SVGID_18_" class="st8">
								<use xlink:href="#SVGID_16_"  style="overflow:visible;"/>
							</clipPath>
						</g>
					</g>
				</g>
				<g>
					<g>
						<path class="st0" d="M240.6,248.3l32.5-12.2c2.5-0.9,5-1.6,7.7-2.1c1.7-0.3,3.4-0.4,5-0.4c1.2,0,2.4,0.1,3.6,0.2
							c3.1,0.4,5.9,1.5,8.4,3.1c2.9,2,5,4.7,6.3,8.3c2,5.3,1.9,10.7-0.3,15.5c0,0.1-0.1,0.2-0.1,0.3c1.4,0.9,2.7,1.9,3.8,3.1
							c1.6,1.7,2.9,3.8,3.8,6.3c1.5,3.9,1.8,7.8,1.1,11.6c-0.7,3.6-2.3,7-4.8,10.1c-2.2,2.8-5.1,5.4-8.6,7.6c-3.3,2.1-7,4-11.1,5.5
							l-35.6,13.4L240.6,248.3z"/>
					</g>
					<g>
						<path class="st3" d="M285.7,240.8c0.9,0,1.8,0.1,2.6,0.2c2,0.3,3.8,0.9,5.4,2c1.6,1.1,2.7,2.6,3.5,4.7c1.3,3.6,1.3,6.9-0.1,10
							c-1.4,3.1-3.7,5.7-6.8,7.8l0.1,0.1c0.9-0.2,1.8-0.3,2.8-0.3c0.5,0,1,0,1.5,0.1c1.4,0.1,2.8,0.5,4,1.1c1.3,0.6,2.4,1.4,3.4,2.5
							c1,1.1,1.8,2.4,2.4,3.9c1,2.6,1.2,5.2,0.8,7.7c-0.5,2.5-1.6,4.8-3.3,7c-1.7,2.2-4,4.2-6.9,6.1c-2.8,1.9-6.1,3.5-9.7,4.8
							l-27.3,10.3l-9.2-55.8l26.9-10.1c2-0.8,4.2-1.3,6.4-1.7C283.3,240.9,284.5,240.8,285.7,240.8 M270.2,268.1l5.3-2
							c0.7-0.3,1.4-0.6,2.1-1c0.7-0.4,1.3-0.8,1.8-1.4c0.5-0.5,0.8-1.1,1-1.8c0.2-0.7,0.1-1.4-0.2-2.3c-0.4-1.1-1.2-1.8-2.5-1.9
							c-0.2,0-0.4,0-0.6,0c-1.1,0-2.3,0.3-3.7,0.8l-4.8,1.8L270.2,268.1 M273.5,287.9l4.9-1.8c1.1-0.4,2.1-0.8,3-1.3
							c1-0.5,1.7-1,2.4-1.6c0.6-0.6,1.1-1.3,1.3-2c0.2-0.7,0.2-1.5-0.2-2.4c-0.4-1.1-1.2-1.8-2.5-2c-0.3-0.1-0.6-0.1-1-0.1
							c-1,0-2.3,0.3-3.7,0.8l-5.6,2.1L273.5,287.9 M285.7,226.2c-2,0-4.1,0.2-6.2,0.5c-3.1,0.5-6.1,1.4-9,2.4l-26.9,10.1l-11.2,4.2
							l1.9,11.8l9.2,55.8l2.9,17.5l16.6-6.3l27.3-10.3c4.6-1.7,8.8-3.8,12.6-6.3c4.2-2.7,7.6-5.8,10.3-9.2c3.2-4,5.3-8.4,6.2-13.2
							c1-5.2,0.6-10.4-1.4-15.6c-1.2-3.3-3-6.2-5.4-8.7c-0.2-0.2-0.4-0.4-0.6-0.6c1.2-5.2,0.7-10.6-1.3-15.9c-1.8-4.9-5-8.9-9-11.7
							c-3.4-2.3-7.3-3.8-11.5-4.4C288.8,226.4,287.3,226.2,285.7,226.2L285.7,226.2z"/>
					</g>
				</g>
			</g>
		</g>
		<g>
			<path class="st9" d="M198.7,190.8c0,0,7.9-0.8,26.8-4.3c28.4-5.2,43.9-25.3,43.8-25.2c0,0,4.1,14-1.4,23.9
				c-13.7,24.5-47.2,30.5-65.6,10.4c-2.8-3.1-2.8-1.9-4.5-6.2"/>
		</g>
		<g>
			<g>
				<path class="st3" d="M268.8,159.7c-8.8,8.6-20,15.9-32.4,21c-12.4,5.1-25.5,7.8-37.8,7.9c-0.8,0-1.4,0.4-1.8,1.1
					c-0.4,0.7-0.4,1.5,0,2.1c9.6,16.6,31.3,23.2,50.4,15.3c19.1-7.9,30-27.8,25.1-46.3c-0.2-0.7-0.8-1.3-1.5-1.5
					C270.1,159,269.3,159.2,268.8,159.7z M268.8,174.9c-0.3,3.7-2.2,7.7-2.2,7.7c-3.7,8.8-11.1,16.4-21,20.5
					c-9.9,4-20.4,3.9-29.3,0.2c0,0-3.2-1.1-7-3.9c-2.6-1.9-4.9-4.1-6.8-6.7c11.7-0.5,23.9-3.3,35.5-8.1c11.6-4.8,22.3-11.4,31-19.2
					C269.4,168.6,269.3,171.8,268.8,174.9z"/>
			</g>
			<g>
				<path class="st3" d="M198.6,185.9c-0.9-0.3-1.9-0.2-2.9,0.1c-2.2,0.9-3.3,3.5-2.4,5.7c0.3,0.8,0.9,1.5,1.6,2
					C194.9,193.7,192.6,188,198.6,185.9z"/>
			</g>
			<g>
				<path class="st3" d="M268.8,156.2c-1,0.4-1.9,1.2-2.4,2.1c6.3-2.9,8.9,3.3,8.9,3.3c0.2-0.9,0.1-1.8-0.3-2.8
					C274.1,156.4,271.3,155.2,268.8,156.2z"/>
			</g>
		</g>
		<g>
			<g>
				<g>
					<path d="M183.5,164.7c-16.1-2.8-27.9-18.3-28.7-33.5c-0.8-14.8,17.8-30.6,34.7-17.1c12.8,10.2,20.5,27.1,18,44.5
						C199.5,159.6,183.5,164.7,183.5,164.7z"/>
				</g>
				<g>
					<path class="st2" d="M183.5,164.7c-18.5-4.9-29.2-21.4-25.9-35.1c3.3-13.7,17.5-23.1,33.4-11.5c13.2,9.6,17.9,26.6,16.4,40.5
						C199.5,159.6,183.5,164.7,183.5,164.7z"/>
				</g>
				<g>
					<path class="st2" d="M161.9,149.8c-4.2-6.3-5.9-13.5-4.3-20.1c3.3-13.7,17.5-23.1,33.4-11.5c5.3,3.9,9.3,8.9,12,14.5
						C208.1,147.1,172.8,160.4,161.9,149.8z"/>
				</g>
				<g>
					<path d="M207.7,158.9l-0.2,0c-7.8,1-23.7,6-23.9,6.1l-0.1,0l-0.1,0c-8.8-2.3-16.4-7.4-21.3-14.3c-4.7-6.6-6.5-14.3-4.8-21.1
						c1.7-7.3,6.5-13.1,12.6-15.6c6.6-2.7,14.1-1.3,21.3,3.9c14.3,10.4,17.8,28.4,16.5,40.8L207.7,158.9z M183.5,164.4
						c1.2-0.4,16.1-5,23.7-6c1.2-12.2-2.4-29.9-16.3-40c-7-5.1-14.3-6.5-20.7-3.9c-6,2.4-10.6,8.1-12.3,15.2
						C154.5,143.9,166.2,159.8,183.5,164.4z"/>
				</g>
			</g>
			<g>
				<g>
					<g>
						<path class="st10" d="M194.2,138.4c2.4,5.8,0.4,12.1-4.5,14.1s-10.7-1.2-13-7c-2.4-5.8-0.3-12.1,4.5-14.1
							S191.8,132.6,194.2,138.4z"/>
					</g>
					<g>
						<path class="st10" d="M194.2,138.4c2.4,5.8-15.1,12.9-17.5,7.1c-2.4-5.8-0.3-12.1,4.5-14.1S191.8,132.6,194.2,138.4z"/>
					</g>
					<g>
						<path class="st11" d="M189.8,152.7c-4.9,2-10.9-1.2-13.3-7.1c-2.4-5.9-0.3-12.4,4.6-14.4c4.9-2,10.9,1.2,13.3,7.1
							C196.8,144.3,194.7,150.7,189.8,152.7z M181.2,131.7c-4.7,1.9-6.7,8.1-4.4,13.8c2.3,5.7,8,8.8,12.7,6.9s6.7-8.1,4.4-13.8
							C191.7,132.8,186,129.7,181.2,131.7z"/>
					</g>
				</g>
				<g>
					<g>
						<path d="M192.8,141.7c1.5,3.6,0.2,7.6-2.8,8.8c-3,1.2-6.7-0.7-8.1-4.4c-1.5-3.6-0.2-7.6,2.8-8.8
							C187.6,136.1,191.3,138,192.8,141.7z"/>
					</g>
				</g>
				<g>
					<g>
						<path class="st2" d="M186.8,136.7c0.7,1.7-0.1,3.7-1.8,4.4c-1.7,0.7-3.6-0.2-4.3-1.9c-0.7-1.7,0.1-3.7,1.8-4.4
							C184.2,134.1,186.1,135,186.8,136.7z"/>
					</g>
				</g>
				<g>
					<g>
						<path class="st2" d="M189.9,138.8c0.3,0.8-0.1,1.7-0.8,2c-0.8,0.3-1.7-0.1-2-0.9c-0.3-0.8,0.1-1.7,0.8-2
							C188.7,137.6,189.6,138,189.9,138.8z"/>
					</g>
				</g>
			</g>
		</g>
		<g>
			<g>
				<g>
					<path d="M263.6,132.3c12.1-19.6,5.5-37.3-5.5-46.1c-13.2-10.6-31.8-2.9-34.1,16c-2.4,19.1,8.9,34.8,18.2,42.4
						C248.6,139.8,263.6,132.3,263.6,132.3z"/>
				</g>
				<g>
					<path class="st2" d="M263.6,132.3c9.8-16.4,6.1-35.6-5.8-43.2c-11.9-7.6-28.6-4.4-32,15c-2.8,16.1,5.7,31.5,16.4,40.5
						C248.6,139.8,263.6,132.3,263.6,132.3z"/>
				</g>
				<g>
					<path class="st2" d="M268.1,103.9c-1.7-6.3-5.3-11.7-10.4-14.9c-11.9-7.6-28.6-4.4-32,15c-1,5.9-0.5,11.7,1,17.1
						C231.9,141.8,272,118.9,268.1,103.9z"/>
				</g>
				<g>
					<path d="M242.2,144.9l-0.2-0.1c-9.5-8-19.5-23.4-16.5-40.8c1.5-8.7,6-15,12.5-17.6c6.2-2.5,13.6-1.6,19.9,2.4
						c5.9,3.7,10,10.5,11.2,18.5c1.3,8.4-0.6,17.3-5.3,25.1l0,0.1l-0.1,0c-0.1,0.1-15.1,7.5-21.4,12.3L242.2,144.9z M238.2,86.9
						c-6.4,2.6-10.7,8.7-12.2,17.2c-3,17,6.8,32.2,16.2,40.1c6.2-4.6,20.1-11.6,21.2-12.2c9.2-15.4,6.5-34.9-5.8-42.7
						C251.5,85.4,244.2,84.5,238.2,86.9z"/>
				</g>
			</g>
			<g>
				<g>
					<g>
						<path class="st10" d="M237.2,121.7c2.4,5.9,8.3,9,13.2,7.1c4.9-2,6.9-8.3,4.5-14.2c-2.4-5.9-8.3-9-13.2-7.1
							C236.9,109.4,234.8,115.8,237.2,121.7z"/>
					</g>
					<g>
						<path class="st10" d="M237.2,121.7c2.4,5.9,20.1-1.3,17.7-7.2c-2.4-5.9-8.3-9-13.2-7.1C236.9,109.4,234.8,115.8,237.2,121.7z"
							/>
					</g>
					<g>
						<path class="st10" d="M250.5,128.9c-5,2-11-1.2-13.4-7.2c-2.4-6-0.3-12.5,4.7-14.5c5-2,11,1.2,13.4,7.2
							C257.5,120.4,255.5,126.9,250.5,128.9z M241.8,107.6c-4.8,1.9-6.7,8.2-4.4,13.9c2.3,5.8,8.1,8.9,12.9,6.9
							c4.8-1.9,6.7-8.2,4.4-13.9C252.4,108.8,246.6,105.7,241.8,107.6z"/>
					</g>
				</g>
				<g>
					<g>
						<path d="M240.5,123c1.5,3.7,5.2,5.7,8.2,4.4c3.1-1.2,4.3-5.2,2.8-8.9c-1.5-3.7-5.2-5.7-8.2-4.4
							C240.3,115.3,239,119.3,240.5,123z"/>
					</g>
				</g>
				<g>
					<g>
						<path class="st2" d="M238.5,116.3c0.7,1.7,2.7,2.6,4.4,1.9c1.7-0.7,2.5-2.7,1.8-4.4c-0.7-1.7-2.7-2.6-4.4-1.9
							C238.6,112.6,237.8,114.6,238.5,116.3z"/>
					</g>
				</g>
				<g>
					<g>
						<path class="st2" d="M245.4,116.6c0.3,0.8,1.2,1.2,2,0.9c0.8-0.3,1.2-1.2,0.8-2c-0.3-0.8-1.2-1.2-2-0.9
							C245.5,114.9,245.1,115.8,245.4,116.6z"/>
					</g>
				</g>
			</g>
		</g>
	</g>
</g>
</svg>
