<?xml version="1.0" encoding="UTF-8" standalone="no"?>
<svg
   xmlns:rdf="http://www.w3.org/1999/02/22-rdf-syntax-ns#"
   xmlns:svg="http://www.w3.org/2000/svg"
   xmlns="http://www.w3.org/2000/svg"
   version="1.1"
   width="456.82437"
   height="139.91039"
   id="svg9801">
  <defs
     id="defs9803" />
  <g
     transform="translate(-121.58781,-462.40699)"
     id="layer1">
    <path
       d="m 126.58781,570.33218 c 9.49492,-11.97576 21.22881,-30.3022 36.91547,-40.28084 23.2121,-14.76066 39.29956,7.85715 49.76885,27.30307 8.28559,15.41715 17.2415,32.38223 28.42947,39.96296 -28.19452,-8.47908 -39.37558,-54.98622 -78.89627,-47.0876 -14.62246,2.93001 -25.8588,13.61352 -36.21752,20.10241"
       id="path5481"
       style="fill:#00acc8;fill-opacity:1;fill-rule:nonzero;stroke:none" />
    <path
       d="m 554.75405,529.18267 c -0.96746,-0.75324 -1.94183,-1.37517 -2.93693,-1.8589 -0.9951,-0.47682 -2.21133,-0.71869 -3.65561,-0.71869 -0.96746,0 -1.81053,0.17276 -2.52231,0.51828 -0.72559,0.33862 -1.34753,0.97437 -1.8589,1.90728 -0.51828,0.926 -0.89144,2.19751 -1.13331,3.80764 -0.24186,1.61704 -0.35934,3.69708 -0.35934,6.24011 0,2.67434 0.11748,4.89258 0.35934,6.64783 0.24187,1.74833 0.61503,3.12351 1.13331,4.11861 0.51137,0.9951 1.14713,1.67923 1.90037,2.06621 0.76014,0.38008 1.61704,0.56666 2.58449,0.56666 1.37518,0 2.55686,-0.24187 3.55196,-0.7256 0.9951,-0.47681 1.96947,-1.09875 2.93693,-1.8589 l 0,-20.71053 z m 0,37.41302 0,-3.81455 c -1.78289,1.44427 -3.64179,2.62596 -5.56289,3.55195 -1.92801,0.93291 -4.32592,1.39591 -7.21448,1.39591 -2.54303,0 -4.89949,-0.51828 -7.06245,-1.54794 -2.16296,-1.02965 -4.0495,-2.68124 -5.66654,-4.94786 -1.61704,-2.26662 -2.88165,-5.16899 -3.81456,-8.71404 -0.92599,-3.53122 -1.38899,-7.80877 -1.38899,-12.81883 0,-9.75751 1.63086,-16.92362 4.89258,-21.49141 3.26172,-4.56779 7.85024,-6.85514 13.75865,-6.85514 2.75034,0 5.06533,0.50447 6.95879,1.49957 1.88654,0.98819 3.58651,2.07312 5.09989,3.24098 l 0,-17.21386 18.65814,-7.42179 0,75.13701 -18.65814,0 z m -52.34782,-0.003 0,-30.70991 c 0,-3.50358 -0.55283,-5.86004 -1.65159,-7.05554 -1.09876,-1.20241 -2.61214,-1.80362 -4.53324,-1.80362 -1.9902,0 -3.53813,0.58048 -4.63689,1.74834 -1.09876,1.16786 -1.64468,3.46903 -1.64468,6.90351 l 0,30.91722 -18.55448,0 0,-54.10859 18.55448,0 0,3.61415 c 1.70687,-1.30607 3.60033,-2.42556 5.66655,-3.35156 2.0593,-0.926 4.70599,-1.3959 7.93316,-1.3959 5.97751,0 10.39327,1.90727 13.24728,5.72182 2.84709,3.81456 4.27064,9.29452 4.27064,16.4399 l 0,33.08018 -18.65123,0 z m -55.44368,-54.10373 18.54757,0 0,54.1086 -18.54757,0 0,-54.1086 z m 20.08859,-13.08834 c 0,2.88856 -0.98819,5.13445 -2.97839,6.75149 -1.99711,1.61012 -4.60925,2.41864 -7.84333,2.41864 -3.08896,0 -5.62508,-0.80852 -7.62219,-2.41864 -1.99712,-1.61704 -2.98531,-3.86293 -2.98531,-6.75149 0,-2.60522 0.98819,-4.76127 2.98531,-6.44051 1.99711,-1.68614 4.53323,-2.52921 7.62219,-2.52921 3.23408,0 5.84622,0.84307 7.84333,2.52921 1.9902,1.67924 2.97839,3.83529 2.97839,6.44051 m -37.20156,67.19207 -15.04399,0 -2.26661,-11.02903 c -0.34553,-1.50647 -0.70487,-3.33082 -1.08494,-5.45923 -0.37316,-2.12841 -0.75324,-4.25682 -1.13331,-6.39214 -0.38007,-2.1215 -0.73941,-4.11861 -1.07802,-5.97752 -0.34553,-1.85199 -0.58739,-3.26172 -0.7256,-4.22226 -0.20731,0.96054 -0.463,2.37027 -0.77397,4.22226 -0.30405,1.85891 -0.65649,3.85602 -1.02965,5.97752 -0.38007,2.13532 -0.77397,4.26373 -1.18859,6.39214 -0.40772,2.12841 -0.78779,4.02186 -1.1264,5.66654 l -2.26662,10.82172 -14.63627,0 -15.25821,-54.10859 17.93254,0 1.54794,8.04372 c 0.27641,1.58249 0.6012,3.42066 0.98128,5.51452 0.38007,2.09386 0.71868,4.20845 1.02965,6.33686 0.31097,2.12841 0.60121,4.11861 0.87762,5.97751 0.27642,1.85199 0.47682,3.26172 0.61503,4.22227 0.20731,-0.96055 0.463,-2.37028 0.77397,-4.22227 0.30406,-1.8589 0.67722,-3.8491 1.08493,-5.97751 0.40772,-2.12841 0.82234,-4.26373 1.23697,-6.39214 0.40771,-2.12841 0.78779,-4.01496 1.13331,-5.66655 l 1.74834,-7.83641 15.2582,0 1.64468,7.83641 c 0.33862,1.65159 0.71869,3.53814 1.13331,5.66655 0.41463,2.12841 0.82234,4.26373 1.23697,6.39214 0.41462,2.12841 0.77397,4.11861 1.08494,5.97751 0.31096,1.85199 0.56665,3.26172 0.76705,4.22227 0.13821,-0.96055 0.35934,-2.37028 0.67031,-4.22227 0.31097,-1.8589 0.63576,-3.8491 0.98128,-5.97751 0.34552,-2.12841 0.68413,-4.243 1.02966,-6.33686 0.34552,-2.09386 0.65648,-3.93203 0.9329,-5.51452 l 1.44428,-8.04372 17.71832,0 -15.2513,54.10859 z m -78.01589,0 0,-67.7083 18.54757,-7.42179 0,75.13009 -18.54757,0 z m -24.93279,-54.10373 18.54757,0 0,54.1086 -18.54757,0 0,-54.1086 z m 20.0955,-13.08834 c 0,2.88856 -1.00201,5.13445 -2.99221,6.75149 -1.9902,1.61012 -4.60234,2.41864 -7.82951,2.41864 -3.09587,0 -5.6389,-0.80852 -7.6291,-2.41864 -1.99021,-1.61704 -2.98531,-3.86293 -2.98531,-6.75149 0,-2.60522 0.9951,-4.76127 2.98531,-6.44051 1.9902,-1.68614 4.53323,-2.52921 7.6291,-2.52921 3.22717,0 5.83931,0.84307 7.82951,2.52921 1.9902,1.67924 2.99221,3.83529 2.99221,6.44051 m -44.11336,45.13749 c -1.02965,-0.47682 -2.16296,-0.85689 -3.39993,-1.13331 -1.23696,-0.26951 -2.75034,-0.41462 -4.53323,-0.41462 -3.85602,0 -5.77711,1.928 -5.77711,5.77711 0,1.71378 0.46299,3.12351 1.3959,4.22226 0.926,1.09876 2.3841,1.6516 4.38121,1.6516 1.57557,0 3.06822,-0.2626 4.48486,-0.77397 1.40282,-0.51828 2.55686,-1.15404 3.4483,-1.90728 l 0,-7.42179 z m 0,22.05806 0,-3.61415 c -1.7898,1.37518 -3.81455,2.50849 -6.08117,3.40684 -2.26662,0.89144 -4.63689,1.34062 -7.11082,1.34062 -5.28648,0 -9.52947,-1.58248 -12.729,-4.74746 -3.19261,-3.15806 -4.78892,-7.79495 -4.78892,-13.90376 0,-2.88856 0.47682,-5.43159 1.44428,-7.62911 0.95364,-2.19751 2.30117,-4.03568 4.01495,-5.51451 1.7207,-1.47883 3.76618,-2.59141 6.12955,-3.35156 2.37718,-0.75323 5.00314,-1.13331 7.8917,-1.13331 2.46702,0 4.58161,0.20732 6.33685,0.62194 1.74834,0.41463 3.3792,0.96055 4.89258,1.65159 l 0,-2.68815 c 0,-2.40483 -0.63576,-4.06333 -1.90728,-4.99624 -1.27151,-0.92599 -3.17879,-1.38899 -5.72182,-1.38899 -2.81946,0 -5.37631,0.29024 -7.67748,0.87762 -2.30117,0.58048 -4.75437,1.59631 -7.36651,3.04059 l -4.84421,-12.266 c 3.29628,-1.58249 6.82059,-2.79872 10.56604,-3.66252 3.74545,-0.85689 7.98844,-1.28534 12.72208,-1.28534 7.56691,0 13.07452,1.78289 16.54355,5.36249 3.46903,3.57268 5.20355,8.47908 5.20355,14.73301 l 0,35.1464 -17.51792,0 z M 267.539,564.84231 c -1.7898,0.89144 -3.81455,1.59631 -6.08117,2.10768 -2.26662,0.51828 -4.71291,0.77397 -7.31814,0.77397 -4.94786,0 -8.56892,-1.31989 -10.87009,-3.96659 -2.30117,-2.63978 -3.45521,-7.06245 -3.45521,-13.24036 l 0,-23.49543 -8.24413,0 0,-14.53262 8.24413,0 0,-13.71027 18.0362,-7.31814 0,21.02841 11.74772,0 0,14.53262 -11.74772,0 0,19.57722 c 0,2.06621 0.37316,3.46903 1.13331,4.22918 0.75323,0.75323 1.9211,1.13331 3.50358,1.13331 1.23697,0 2.41865,-0.24187 3.55196,-0.7256 1.14022,-0.47682 2.42556,-1.20241 3.86292,-2.16296 L 267.539,564.84231 z M 233,596.17969 c -14.86432,-8.26486 -40.44669,-18.34026 -53.09276,-32.83141 -3.4483,-3.93894 -5.51452,-7.66366 -6.77913,-11.36764 28.95467,2.66742 39.47233,33.094 59.87189,44.19905 m -50.87657,-72.9365 c 5.72874,-6.58563 13.19199,-12.65989 20.37192,-18.14677 15.29967,-11.6717 27.80062,-23.0117 32.87287,-37.68943 1.99711,25.43726 -26.28033,43.90881 -34.11675,67.05181 -5.54215,-6.0397 -11.88592,-10.32417 -19.12804,-11.21561"
       id="path5517"
       style="fill:#575656;fill-opacity:1;fill-rule:nonzero;stroke:none" />
    <path
       d="m 572.81856,584.64294 c -0.22804,-0.53901 -0.57356,-1.00892 -1.03656,-1.39591 -0.463,-0.38698 -1.0573,-0.72559 -1.77598,-1.01583 -0.7256,-0.28332 -1.57558,-0.54592 -2.57068,-0.78778 -0.51137,-0.11748 -0.92599,-0.22805 -1.25769,-0.32479 -0.3317,-0.0967 -0.5943,-0.1935 -0.78779,-0.29024 -0.2004,-0.10366 -0.33861,-0.20731 -0.41463,-0.31788 -0.0898,-0.11057 -0.1313,-0.24187 -0.1313,-0.3939 0,-0.28332 0.11057,-0.51828 0.31788,-0.69795 0.21423,-0.17967 0.64958,-0.2695 1.30607,-0.2695 0.80852,0 1.56867,0.12438 2.27353,0.38007 0.70486,0.25568 1.40973,0.62194 2.1215,1.10567 l 2.11459,-3.42066 c -0.84307,-0.58739 -1.76216,-1.03657 -2.75726,-1.35444 -1.00201,-0.31788 -2.17678,-0.46991 -3.52431,-0.46991 -0.94673,0 -1.80362,0.11747 -2.57068,0.35934 -0.76015,0.24186 -1.41664,0.57356 -1.95565,1.00892 -0.53901,0.43536 -0.96055,0.96055 -1.25078,1.57558 -0.29024,0.62193 -0.44227,1.29224 -0.44227,2.03166 0,0.7947 0.11748,1.46501 0.35243,2.00402 0.23495,0.53901 0.58048,1.00201 1.04347,1.38209 0.46991,0.38698 1.05039,0.70486 1.76216,0.96054 0.70486,0.25569 1.5272,0.49064 2.47393,0.71869 0.52519,0.11748 0.96055,0.23495 1.30607,0.34552 0.34552,0.11748 0.62194,0.22804 0.82234,0.33861 0.2004,0.11748 0.34552,0.23495 0.42845,0.35243 0.0829,0.11748 0.12438,0.25569 0.12438,0.40772 0,0.37316 -0.14511,0.63575 -0.44226,0.78778 -0.29024,0.14512 -0.82925,0.22114 -1.61013,0.22114 -0.35934,0 -0.74633,-0.0415 -1.16786,-0.1313 -0.42154,-0.0898 -0.83616,-0.21422 -1.25079,-0.35934 -0.41462,-0.15203 -0.80852,-0.32479 -1.1955,-0.51137 -0.38007,-0.18659 -0.71177,-0.38008 -1.00201,-0.57357 l -2.11459,3.42066 c 0.82234,0.54592 1.81744,0.9951 2.9853,1.36826 1.16095,0.36626 2.3841,0.54593 3.65561,0.54593 0.94673,0 1.81744,-0.0968 2.61214,-0.29024 0.7947,-0.19349 1.48574,-0.49755 2.05931,-0.89836 0.58047,-0.40771 1.02965,-0.9329 1.35444,-1.57557 0.32479,-0.64958 0.48373,-1.42355 0.48373,-2.3219 0,-0.73251 -0.11057,-1.37518 -0.33861,-1.91419 m -46.18234,6.75839 0,-3.67634 -7.90552,0 0,-2.70198 4.65762,0 0,-3.62106 -4.65762,0 0,-2.09385 7.74658,0 0,-3.66944 -12.07251,0 0,15.76267 12.23145,0 z m -46.95631,0 0,-15.76267 -4.18772,0 0,4.29828 0,1.07803 c 0,0.40771 0.007,0.80161 0.0276,1.18168 0.0138,0.38698 0.0276,0.73942 0.0415,1.0573 0.0138,0.32479 0.0415,0.58047 0.0691,0.76014 -0.0898,-0.16585 -0.23495,-0.40771 -0.42844,-0.72559 -0.1935,-0.31097 -0.41463,-0.64958 -0.65649,-1.00892 -0.23496,-0.35935 -0.47682,-0.7256 -0.7256,-1.08494 -0.24877,-0.35934 -0.463,-0.65649 -0.64267,-0.89835 l -3.46903,-4.65763 -3.8491,0 0,15.76267 4.18771,0 0,-4.82347 0,-1.07803 c 0,-0.40771 -0.007,-0.80161 -0.0276,-1.18168 -0.0138,-0.38698 -0.0276,-0.73941 -0.0415,-1.0642 -0.0138,-0.31788 -0.0345,-0.57357 -0.0691,-0.75324 0.10366,0.17967 0.2626,0.42845 0.463,0.74632 0.2004,0.31788 0.42154,0.64958 0.64958,1.00202 0.23496,0.35243 0.46991,0.70486 0.71177,1.05729 0.24187,0.35243 0.44918,0.64958 0.63576,0.89144 l 3.75927,5.20355 3.55196,0 z m -48.65627,-15.76267 -4.45723,0 0,15.76267 4.45723,0 0,-15.76267 z m -38.55324,15.76267 0,-3.80764 -6.97953,0 0,-11.95503 -4.41576,0 0,15.76267 11.39529,0 z m -50.64648,-9.21159 c -0.29714,0.29715 -0.80852,0.44918 -1.5272,0.44918 l -2.57068,0 0,-3.4483 2.63979,0 c 0.69104,0 1.18168,0.15894 1.47191,0.47682 0.29024,0.31788 0.44227,0.71868 0.44227,1.21623 0,0.56666 -0.15203,1.00201 -0.45609,1.30607 m 5.11372,9.21159 -3.15116,-6.01206 c 0.87072,-0.3939 1.56176,-0.96746 2.07313,-1.71379 0.50446,-0.75323 0.76015,-1.72069 0.76015,-2.90929 0,-0.92599 -0.14512,-1.72069 -0.43536,-2.37027 -0.29024,-0.65649 -0.71177,-1.18168 -1.25079,-1.5894 -0.53901,-0.40771 -1.18859,-0.70486 -1.94874,-0.89144 -0.76014,-0.18658 -1.5963,-0.27642 -2.50848,-0.27642 l -7.04863,0 0,15.76267 4.29828,0 0,-5.32102 1.75525,0 2.57068,5.32102 4.88567,0 z m -48.34531,-15.76267 -4.45722,0 0,15.76267 4.45722,0 0,-15.76267 z m -44.99375,9.52256 -2.61214,0 0.29024,-1.03656 c 0.13821,-0.49755 0.2626,-0.93291 0.36625,-1.30607 0.10366,-0.37316 0.19349,-0.71177 0.27642,-1.01583 0.0829,-0.29715 0.15894,-0.57357 0.21422,-0.82925 0.0622,-0.25569 0.11748,-0.51829 0.15894,-0.78779 0.0484,0.2695 0.0967,0.52519 0.15894,0.77397 0.0622,0.24877 0.1313,0.52519 0.21422,0.82234 0.0829,0.29714 0.17277,0.64266 0.28333,1.01583 0.10366,0.37316 0.22114,0.81543 0.35934,1.3268 l 0.29024,1.03656 z m 6.64783,6.24011 -5.72183,-15.76267 -4.41576,0 -5.72183,15.76267 4.68527,0 0.85689,-2.77108 4.72673,0 0.85689,2.77108 4.73364,0 z"
       id="path5521"
       style="fill:#818180;fill-opacity:1;fill-rule:nonzero;stroke:none" />
  </g>
</svg>
