<?xml version="1.0" encoding="UTF-8"?>
<!DOCTYPE svg PUBLIC "-//W3C//DTD SVG 1.1//EN" "http://www.w3.org/Graphics/SVG/1.1/DTD/svg11.dtd">
<!-- Creator: CorelDRAW 2020 (64-Bit) -->
<svg xmlns="http://www.w3.org/2000/svg" xml:space="preserve" width="176.389mm" height="59.1614mm" version="1.1" style="shape-rendering:geometricPrecision; text-rendering:geometricPrecision; image-rendering:optimizeQuality; fill-rule:evenodd; clip-rule:evenodd"
viewBox="0 0 15821.88 5306.71"
 xmlns:xlink="http://www.w3.org/1999/xlink"
 xmlns:xodm="http://www.corel.com/coreldraw/odm/2003">
 <defs>
  <style type="text/css">
   <![CDATA[
    .fil1 {fill:#00AEEE;fill-rule:nonzero}
    .fil0 {fill:#2A398F;fill-rule:nonzero}
   ]]>
  </style>
 </defs>
 <g id="Слой_x0020_1">
  <metadata id="CorelCorpID_0Corel-Layer"/>
  <g id="_1976666826704">
   <g>
    <g>
     <path class="fil0" d="M1170.77 4458.46l-786.74 0 -137 305.18 -247.03 0 651.85 -1453.13 253.2 0 651.86 1453.13 -247.03 0 -139.11 -305.18zm-392.32 -902.95l0 0 -307.2 691.24 614.41 0 -307.21 -691.24z"/>
     <path class="fil0" d="M2749.24 4763.64l-1073.16 0c0,-483.67 0,-969.46 0,-1453.13l1066.99 0 0 226.33 -834.58 0 0 392.31 801.36 0 0 215.85 -801.36 0 0 390.29 840.75 0 0 228.36z"/>
     <path class="fil0" d="M4219.69 4763.64l-271.88 0 -442.18 -502.35 -307.29 0 0 502.35 -232.41 0 0 -1455.16c226.24,0 450.46,2.03 676.7,2.03 336.28,0 512.75,230.46 512.75,475.39 0,207.57 -107.93,410.99 -394.42,452.58l433.81 483.67 24.93 41.49zm-1021.35 -1241.34l0 0 0 527.2 442.18 0c193.11,0 278.22,-122.46 278.22,-259.45 0,-130.75 -85.11,-267.74 -276.11,-267.74l-444.29 0z"/>
     <path class="fil0" d="M5777.36 4043.32c0,392.32 -238.75,751.42 -743.13,751.42 -504.46,0 -743.21,-367.38 -743.21,-749.38 0,-442.1 309.32,-761.81 747.35,-761.81 496.1,2.12 738.98,367.38 738.98,759.78zm-743.13 537.6l0 0c361.22,0 512.75,-255.32 512.75,-533.46 0,-267.82 -153.65,-545.96 -508.6,-552.21 -336.28,0 -516.89,234.61 -516.89,552.21 4.14,257.43 153.56,533.46 512.75,533.46z"/>
     <polygon class="fil1" points="9144.39,4344.28 9144.39,3310.51 9376.8,3310.51 9376.8,4763.64 9200.34,4763.64 8376.33,3738.15 8376.33,4763.64 8141.72,4763.64 8141.72,3310.51 8320.21,3310.51 "/>
     <path class="fil1" d="M11057.11 4043.32c0,392.32 -238.84,751.42 -743.22,751.42 -504.38,0 -743.22,-367.38 -743.22,-749.38 0,-442.1 309.33,-761.81 747.27,-761.81 496.27,2.12 739.16,367.38 739.16,759.78zm-743.22 537.6l0 0c361.21,0 512.66,-255.32 512.66,-533.46 0,-267.82 -153.65,-545.96 -508.6,-552.21 -336.19,0 -516.72,234.61 -516.72,552.21 4.06,257.43 153.48,533.46 512.67,533.46z"/>
     <path class="fil1" d="M12515.14 3650.93l-494.07 687.18 -49.86 0 -487.81 -687.18 0 1114.82 -232.42 0 0 -1453.13c91.28,0 176.46,0 269.77,0l479.53 680.85 477.51 -680.85 269.93 0 0 1453.13 -232.58 0 0 -1114.82z"/>
     <path class="fil1" d="M14037.75 4458.46l-786.66 0 -137.08 305.18 -246.95 0 651.77 -1453.13 253.2 0 651.77 1453.13 -246.95 0 -139.11 -305.18zm-392.32 -902.95l0 0 -307.29 691.24 614.58 0 -307.29 -691.24z"/>
     <path class="fil1" d="M15092.98 3310.51c496.27,0 722.43,354.96 728.68,714.14 8.29,367.38 -220.07,738.99 -728.68,738.99 -174.27,0 -375.75,0 -550.02,0l0 -1453.13 550.02 0zm-319.62 1228.91l0 0 319.62 0c354.97,0 504.55,-261.57 498.3,-516.88 -6.25,-244.92 -155.67,-489.93 -498.3,-489.93l-319.62 0 0 1006.81z"/>
    </g>
    <path class="fil0" d="M6068.11 3612.43c-346,-488.35 -1175.44,-1560 -232.3,-3007.33 -341.68,1331.38 1080.99,1863.23 1288.09,3066.14 -44.28,-1505.48 -1891.15,-1896.14 -884.22,-3671.24 -282.79,975.05 802.99,2179.41 1100.78,2716.14 151.78,234.72 199.07,465.93 192.04,793.51 101.3,-352.79 93.66,-619.11 -39.24,-863.76 247.66,-220.25 668.01,-289.2 960.16,121.66 -870.75,130.86 -572.04,1489.18 -1839.84,1977.83 343.21,-445.18 119.29,-1214.58 -110.51,-1539.74 -266.14,-376.57 -688.6,-786.42 -677.48,-1183.43 -55.7,479.08 295.66,867.38 574.17,1260.73 270.98,382.71 731.62,1780.33 -1626.05,2023.78 790,-150.77 1839.86,-924.42 1294.4,-1694.29z"/>
   </g>
  </g>
 </g>
</svg>
