<?xml version="1.0" encoding="utf-8"?>
<!DOCTYPE svg PUBLIC "-//W3C//DTD SVG 1.1//EN" "http://www.w3.org/Graphics/SVG/1.1/DTD/svg11.dtd">
<svg version="1.1" id="Слой_1" xmlns="http://www.w3.org/2000/svg" xmlns:xlink="http://www.w3.org/1999/xlink" x="0px" y="0px" width="159.6px" height="93.598px" viewBox="0 0 159.6 93.598" enable-background="new 0 0 159.6 93.598" xml:space="preserve">
<g>
	<defs>
		<path id="SVGID_1_" d="M48.449,86.77l1.004,3.436h-2.006L48.449,86.77z M48.156,86.193l-1.783,5.919h0.541l0.426-1.465h2.228
			l0.426,1.465h0.532l-1.784-5.919H48.156z"/>
	</defs>
	<use xlink:href="#SVGID_1_"  overflow="visible" fill="#125A9C"/>
	<clipPath id="SVGID_2_">
		<use xlink:href="#SVGID_1_"  overflow="visible"/>
	</clipPath>
</g>
<g>
	<defs>
		<path id="SVGID_3_" d="M52.683,89.3h1.225c0.336,0,0.593,0.113,0.766,0.342c0.175,0.229,0.263,0.507,0.263,0.839
			c0,0.372-0.088,0.663-0.263,0.874c-0.173,0.21-0.43,0.314-0.766,0.314h-1.225V89.3z M52.683,86.638h1.189
			c0.325,0,0.567,0.104,0.728,0.309c0.159,0.207,0.239,0.478,0.239,0.81c0,0.325-0.08,0.589-0.239,0.794
			c-0.161,0.204-0.403,0.307-0.728,0.307h-1.189V86.638z M52.186,86.193v5.919h1.792c0.473,0,0.839-0.142,1.097-0.425
			c0.256-0.285,0.385-0.676,0.385-1.173c0-0.348-0.094-0.669-0.283-0.958c-0.19-0.29-0.423-0.455-0.702-0.496
			c0.261-0.078,0.474-0.232,0.639-0.467c0.166-0.234,0.249-0.53,0.249-0.891c0-0.47-0.127-0.837-0.382-1.105
			c-0.254-0.27-0.603-0.404-1.047-0.404H52.186z"/>
	</defs>
	<use xlink:href="#SVGID_3_"  overflow="visible" fill="#125A9C"/>
	<clipPath id="SVGID_4_">
		<use xlink:href="#SVGID_3_"  overflow="visible"/>
	</clipPath>
</g>
<g>
	<defs>
		<polygon id="SVGID_5_" points="60.607,86.193 57.989,91.004 57.989,86.193 57.491,86.193 57.491,92.112 57.972,92.112
			60.616,87.231 60.616,92.112 61.104,92.112 61.104,86.193 		"/>
	</defs>
	<use xlink:href="#SVGID_5_"  overflow="visible" fill="#125A9C"/>
	<clipPath id="SVGID_6_">
		<use xlink:href="#SVGID_5_"  overflow="visible"/>
	</clipPath>
</g>
<g>
	<defs>
		<path id="SVGID_7_" d="M64.841,86.77l1.002,3.436h-2.005L64.841,86.77z M64.548,86.193l-1.785,5.919h0.542l0.426-1.465h2.227
			l0.427,1.465h0.532l-1.783-5.919H64.548z"/>
	</defs>
	<use xlink:href="#SVGID_7_"  overflow="visible" fill="#125A9C"/>
	<clipPath id="SVGID_8_">
		<use xlink:href="#SVGID_7_"  overflow="visible"/>
	</clipPath>
</g>
<g>
	<defs>
		<polygon id="SVGID_9_" points="71.318,86.193 69.072,89.424 69.072,86.193 68.577,86.193 68.577,92.112 69.072,92.112
			69.072,90.116 69.597,89.371 71.486,92.112 72.09,92.112 69.899,89.016 71.914,86.193 		"/>
	</defs>
	<use xlink:href="#SVGID_9_"  overflow="visible" fill="#125A9C"/>
	<clipPath id="SVGID_10_">
		<use xlink:href="#SVGID_9_"  overflow="visible"/>
	</clipPath>
</g>
<g>
	<defs>
		<path id="SVGID_11_" d="M74.566,91.024c-0.291-0.491-0.436-1.115-0.436-1.866c0-0.758,0.145-1.382,0.436-1.872
			c0.289-0.492,0.689-0.736,1.198-0.736c0.508,0,0.907,0.244,1.193,0.736c0.287,0.49,0.431,1.114,0.431,1.872
			c0,0.751-0.144,1.375-0.431,1.866c-0.286,0.495-0.685,0.743-1.193,0.743C75.255,91.768,74.855,91.52,74.566,91.024 M74.185,86.966
			c-0.378,0.58-0.567,1.31-0.567,2.192c0,0.882,0.189,1.611,0.567,2.19c0.378,0.581,0.905,0.871,1.58,0.871
			c0.669,0,1.193-0.29,1.575-0.871c0.382-0.579,0.572-1.309,0.572-2.19c0-0.883-0.19-1.612-0.572-2.192
			c-0.382-0.58-0.906-0.869-1.575-0.869C75.089,86.097,74.563,86.386,74.185,86.966"/>
	</defs>
	<use xlink:href="#SVGID_11_"  overflow="visible" fill="#125A9C"/>
	<clipPath id="SVGID_12_">
		<use xlink:href="#SVGID_11_"  overflow="visible"/>
	</clipPath>
</g>
<g>
	<defs>
		<polygon id="SVGID_13_" points="83.76,86.193 82.207,90.86 80.653,86.193 79.935,86.193 79.935,92.112 80.432,92.112
			80.432,87.046 82.1,92.112 82.305,92.112 83.981,87.046 83.981,92.112 84.47,92.112 84.47,86.193 		"/>
	</defs>
	<use xlink:href="#SVGID_13_"  overflow="visible" fill="#125A9C"/>
	<clipPath id="SVGID_14_">
		<use xlink:href="#SVGID_13_"  overflow="visible"/>
	</clipPath>
</g>
<g>
	<defs>
		<polygon id="SVGID_15_" points="86.688,86.193 86.688,92.112 87.185,92.112 87.185,86.638 89.828,86.638 89.828,92.112
			90.317,92.112 90.317,86.193 		"/>
	</defs>
	<use xlink:href="#SVGID_15_"  overflow="visible" fill="#125A9C"/>
	<clipPath id="SVGID_16_">
		<use xlink:href="#SVGID_15_"  overflow="visible"/>
	</clipPath>
</g>
<g>
	<defs>
		<path id="SVGID_17_" d="M94.054,86.77l1.003,3.436h-2.005L94.054,86.77z M93.761,86.193l-1.783,5.919h0.541l0.426-1.465h2.229
			l0.426,1.465h0.532l-1.784-5.919H93.761z"/>
	</defs>
	<use xlink:href="#SVGID_17_"  overflow="visible" fill="#125A9C"/>
	<clipPath id="SVGID_18_">
		<use xlink:href="#SVGID_17_"  overflow="visible"/>
	</clipPath>
</g>
<g>
	<defs>
		<polygon id="SVGID_19_" points="100.931,86.193 100.931,88.847 98.286,88.847 98.286,86.193 97.789,86.193 97.789,92.112
			98.286,92.112 98.286,89.291 100.931,89.291 100.931,92.112 101.42,92.112 101.42,86.193 		"/>
	</defs>
	<use xlink:href="#SVGID_19_"  overflow="visible" fill="#125A9C"/>
	<clipPath id="SVGID_20_">
		<use xlink:href="#SVGID_19_"  overflow="visible"/>
	</clipPath>
</g>
<g>
	<defs>
		<polygon id="SVGID_21_" points="106.751,86.193 104.134,91.004 104.134,86.193 103.637,86.193 103.637,92.112 104.116,92.112
			106.761,87.231 106.761,92.112 107.249,92.112 107.249,86.193 		"/>
	</defs>
	<use xlink:href="#SVGID_21_"  overflow="visible" fill="#125A9C"/>
	<clipPath id="SVGID_22_">
		<use xlink:href="#SVGID_21_"  overflow="visible"/>
	</clipPath>
</g>
<g>
	<defs>
		<path id="SVGID_23_" d="M110.109,88.847c-0.191-0.236-0.288-0.544-0.288-0.923c0-0.384,0.097-0.695,0.288-0.932
			c0.193-0.235,0.454-0.354,0.786-0.354h1.101v2.564h-1.101C110.563,89.202,110.303,89.084,110.109,88.847 M110.851,86.193
			c-0.455,0-0.826,0.154-1.113,0.461c-0.287,0.309-0.43,0.729-0.43,1.262c0,0.502,0.12,0.896,0.359,1.181
			c0.239,0.283,0.533,0.445,0.884,0.486l-1.306,2.529h0.568l1.234-2.467h0.948v2.467h0.488v-5.919H110.851z"/>
	</defs>
	<use xlink:href="#SVGID_23_"  overflow="visible" fill="#125A9C"/>
	<clipPath id="SVGID_24_">
		<use xlink:href="#SVGID_23_"  overflow="visible"/>
	</clipPath>
</g>
<g>
	<defs>
		<path id="SVGID_25_" d="M6.915,66.03c-1.19,1.484-1.784,3.405-1.784,5.769s0.594,4.286,1.784,5.769
			c1.189,1.481,2.771,2.224,4.748,2.224c2.394,0,4.123-1.297,5.19-3.893l-2.572-1.11c-0.232,0.679-0.571,1.224-1.019,1.632
			c-0.448,0.41-0.981,0.614-1.599,0.614c-1.018,0-1.829-0.487-2.432-1.459c-0.602-0.974-0.903-2.231-0.903-3.776
			c0-1.544,0.301-2.803,0.903-3.776c0.603-0.972,1.414-1.459,2.432-1.459c0.603,0,1.125,0.19,1.565,0.568
			c0.44,0.379,0.783,0.884,1.03,1.517l2.571-1.134c-1.097-2.472-2.818-3.708-5.166-3.708C9.686,63.807,8.104,64.549,6.915,66.03"/>
	</defs>
	<use xlink:href="#SVGID_25_"  overflow="visible" fill="#125A9C"/>
	<clipPath id="SVGID_26_">
		<use xlink:href="#SVGID_25_"  overflow="visible"/>
	</clipPath>
</g>
<g>
	<defs>
		<polygon id="SVGID_27_" points="18.797,64.063 18.797,79.512 27.646,79.512 27.646,76.778 21.9,76.778 21.9,73.026 27.483,73.026
			27.483,70.294 21.9,70.294 21.9,66.796 27.646,66.796 27.646,64.063 		"/>
	</defs>
	<use xlink:href="#SVGID_27_"  overflow="visible" fill="#125A9C"/>
	<clipPath id="SVGID_28_">
		<use xlink:href="#SVGID_27_"  overflow="visible"/>
	</clipPath>
</g>
<g>
	<defs>
		<path id="SVGID_29_" d="M33.158,73.004h2.664c0.571,0,1.011,0.178,1.32,0.532c0.309,0.355,0.464,0.811,0.464,1.366
			c0,0.603-0.155,1.07-0.464,1.401c-0.309,0.333-0.749,0.499-1.32,0.499h-2.664V73.004z M33.158,66.771h2.549
			c0.54,0,0.948,0.158,1.227,0.476c0.278,0.316,0.416,0.746,0.416,1.286c0,0.557-0.138,0.992-0.416,1.309
			c-0.279,0.317-0.687,0.474-1.227,0.474h-2.549V66.771z M30.055,64.063v15.449h6.601c1.345,0,2.367-0.385,3.069-1.158
			c0.703-0.771,1.055-1.774,1.055-3.011c0-0.957-0.259-1.798-0.777-2.524c-0.517-0.726-1.169-1.15-1.956-1.273
			c0.741-0.187,1.339-0.588,1.795-1.205c0.455-0.618,0.683-1.398,0.683-2.339c0-1.127-0.351-2.065-1.053-2.815
			c-0.704-0.749-1.711-1.123-3.024-1.123H30.055z"/>
	</defs>
	<use xlink:href="#SVGID_29_"  overflow="visible" fill="#125A9C"/>
	<clipPath id="SVGID_30_">
		<use xlink:href="#SVGID_29_"  overflow="visible"/>
	</clipPath>
</g>
<g>
	<defs>
		<polygon id="SVGID_31_" points="43.095,64.063 43.095,79.512 51.944,79.512 51.944,76.778 46.199,76.778 46.199,73.026
			51.782,73.026 51.782,70.294 46.199,70.294 46.199,66.796 51.944,66.796 51.944,64.063 		"/>
	</defs>
	<use xlink:href="#SVGID_31_"  overflow="visible" fill="#125A9C"/>
	<clipPath id="SVGID_32_">
		<use xlink:href="#SVGID_31_"  overflow="visible"/>
	</clipPath>
</g>
<g>
	<defs>
		<path id="SVGID_33_" d="M57.457,66.796h2.224c0.587,0,1.062,0.201,1.425,0.602c0.362,0.402,0.544,0.936,0.544,1.599
			c0,0.665-0.182,1.196-0.544,1.598c-0.363,0.402-0.838,0.603-1.425,0.603h-2.224V66.796z M54.354,64.063v15.449h3.103V73.93h2.595
			c1.513,0,2.686-0.47,3.521-1.413c0.834-0.941,1.25-2.114,1.25-3.521c0-1.404-0.416-2.579-1.25-3.521
			c-0.835-0.94-2.008-1.412-3.521-1.412H54.354z"/>
	</defs>
	<use xlink:href="#SVGID_33_"  overflow="visible" fill="#125A9C"/>
	<clipPath id="SVGID_34_">
		<use xlink:href="#SVGID_33_"  overflow="visible"/>
	</clipPath>
</g>
<g>
	<defs>
		<path id="SVGID_35_" d="M70.242,75.563c-0.571-0.979-0.857-2.234-0.857-3.764c0-1.544,0.286-2.803,0.857-3.776
			c0.571-0.972,1.367-1.459,2.386-1.459c1.034,0,1.841,0.487,2.42,1.459c0.579,0.974,0.869,2.232,0.869,3.776
			c0,1.529-0.29,2.784-0.869,3.764c-0.579,0.981-1.386,1.472-2.42,1.472C71.609,77.034,70.813,76.544,70.242,75.563 M67.926,66.043
			c-1.158,1.49-1.738,3.409-1.738,5.756c0,2.348,0.58,4.266,1.738,5.756c1.157,1.491,2.725,2.236,4.702,2.236
			c1.992,0,3.567-0.745,4.725-2.236c1.159-1.49,1.737-3.408,1.737-5.756c0-2.347-0.578-4.266-1.737-5.756
			c-1.158-1.49-2.733-2.236-4.725-2.236C70.651,63.807,69.083,64.553,67.926,66.043"/>
	</defs>
	<use xlink:href="#SVGID_35_"  overflow="visible" fill="#125A9C"/>
	<clipPath id="SVGID_36_">
		<use xlink:href="#SVGID_35_"  overflow="visible"/>
	</clipPath>
</g>
<g>
	<defs>
		<rect id="SVGID_37_" x="81.666" y="70.725" width="4.864" height="2.363"/>
	</defs>
	<use xlink:href="#SVGID_37_"  overflow="visible" fill="#125A9C"/>
	<clipPath id="SVGID_38_">
		<use xlink:href="#SVGID_37_"  overflow="visible"/>
	</clipPath>
</g>
<g>
	<defs>
		<path id="SVGID_39_" d="M90.225,64.491c-0.919,0.439-1.656,1.054-2.211,1.842l1.759,1.806c0.819-1.034,1.869-1.551,3.151-1.551
			c0.726,0,1.308,0.162,1.748,0.486c0.44,0.323,0.66,0.803,0.66,1.436c0,0.587-0.228,1.03-0.683,1.332
			c-0.457,0.301-1.07,0.452-1.842,0.452h-2.34v2.732h2.432c1.776,0,2.664,0.649,2.664,1.946c0,0.633-0.208,1.135-0.625,1.506
			c-0.416,0.37-1.035,0.556-1.854,0.556c-0.632,0-1.266-0.154-1.897-0.464c-0.633-0.309-1.144-0.718-1.529-1.228l-1.853,1.947
			c0.509,0.739,1.246,1.342,2.212,1.806c0.964,0.463,2.042,0.695,3.23,0.695c1.621,0,2.935-0.421,3.938-1.263
			s1.506-1.935,1.506-3.278c0-1.003-0.321-1.841-0.962-2.513s-1.409-1.069-2.305-1.192c0.881-0.17,1.609-0.583,2.188-1.24
			c0.58-0.657,0.869-1.416,0.869-2.282c0-1.327-0.479-2.357-1.437-3.092c-0.957-0.733-2.224-1.1-3.799-1.1
			C92.15,63.831,91.143,64.051,90.225,64.491"/>
	</defs>
	<use xlink:href="#SVGID_39_"  overflow="visible" fill="#125A9C"/>
	<clipPath id="SVGID_40_">
		<use xlink:href="#SVGID_39_"  overflow="visible"/>
	</clipPath>
</g>
<g>
	<defs>
		<path id="SVGID_41_" d="M106.034,67.328l1.759,6.718h-3.52L106.034,67.328z M104.157,64.063l-4.586,15.449h3.359l0.717-2.733
			h4.748l0.719,2.733h3.382l-4.587-15.449H104.157z"/>
	</defs>
	<use xlink:href="#SVGID_41_"  overflow="visible" fill="#125A9C"/>
	<clipPath id="SVGID_42_">
		<use xlink:href="#SVGID_41_"  overflow="visible"/>
	</clipPath>
</g>
<g>
	<defs>
		<polygon id="SVGID_43_" points="113.932,64.063 113.932,79.512 117.036,79.512 117.036,66.796 122.155,66.796 122.155,79.512
			125.282,79.512 125.282,64.063 		"/>
	</defs>
	<use xlink:href="#SVGID_43_"  overflow="visible" fill="#125A9C"/>
	<clipPath id="SVGID_44_">
		<use xlink:href="#SVGID_43_"  overflow="visible"/>
	</clipPath>
</g>
<g>
	<defs>
		<path id="SVGID_45_" d="M133.182,67.328l1.761,6.718h-3.521L133.182,67.328z M131.306,64.063l-4.587,15.449h3.358l0.718-2.733
			h4.748l0.72,2.733h3.381l-4.586-15.449H131.306z"/>
	</defs>
	<use xlink:href="#SVGID_45_"  overflow="visible" fill="#125A9C"/>
	<clipPath id="SVGID_46_">
		<use xlink:href="#SVGID_45_"  overflow="visible"/>
	</clipPath>

</g>
<g>
	<defs>
		<path id="SVGID_47_" d="M145.69,72.055l0.462-5.259h3.174v9.982h-5.258C144.948,75.775,145.488,74.201,145.69,72.055
			 M143.327,64.063l-0.743,7.944c-0.091,1.081-0.207,1.951-0.346,2.605c-0.139,0.658-0.32,1.151-0.544,1.483
			c-0.225,0.333-0.442,0.556-0.648,0.672c-0.208,0.116-0.498,0.205-0.868,0.267v5.327h3.127v-2.85h7.318v2.85h3.104v-5.583h-1.296
			V64.063H143.327z"/>
	</defs>
	<use xlink:href="#SVGID_47_"  overflow="visible" fill="#125A9C"/>
	<clipPath id="SVGID_48_">
		<use xlink:href="#SVGID_47_"  overflow="visible"/>
	</clipPath>
</g>
<g>
	<defs>
		<path id="SVGID_49_" d="M91.734,51.655c-3.167-0.434-6.504-1.896-6.937-5.063l-0.776-7.394c6.861,1.621,12.29,6.741,14.311,13.454
			L91.734,51.655z M81.336,45.574c-0.01,2.719-0.127,6.326,1.774,8.269c1.974,2.016,6.215,2.091,9.038,2.059l31.553,0.585
			l-24.294-3.671c-2.046-7.386-7.972-13.029-15.497-14.672l-2.574-24.505V45.574z"/>
	</defs>
	<use xlink:href="#SVGID_49_"  overflow="visible" fill="#125A9C"/>
	<clipPath id="SVGID_50_">
		<use xlink:href="#SVGID_49_"  overflow="visible"/>
	</clipPath>
</g>
<g>
	<defs>
		<path id="SVGID_51_" d="M74.841,39.157l-0.782,7.435c-0.433,3.167-3.77,4.63-6.937,5.063l-6.627,1
			C62.517,45.819,67.963,40.678,74.841,39.157 M74.952,38.108c-7.539,1.535-13.483,7.196-15.527,14.709l-24.268,3.669l31.553-0.585
			c2.822,0.032,7.063-0.043,9.038-2.059c1.902-1.943,1.785-5.55,1.774-8.269l0.001-31.935L74.952,38.108z"/>
	</defs>
	<use xlink:href="#SVGID_51_"  overflow="visible" fill="#125A9C"/>
	<clipPath id="SVGID_52_">
		<use xlink:href="#SVGID_51_"  overflow="visible"/>
	</clipPath>
</g>
</svg>
