<?xml version="1.0" encoding="UTF-8"?>
<!DOCTYPE svg PUBLIC "-//W3C//DTD SVG 1.1//EN" "http://www.w3.org/Graphics/SVG/1.1/DTD/svg11.dtd">
<!-- Creator: CorelDRAW X7 -->
<svg xmlns="http://www.w3.org/2000/svg" xml:space="preserve" width="210mm" height="100mm" version="1.1" style="shape-rendering:geometricPrecision; text-rendering:geometricPrecision; image-rendering:optimizeQuality; fill-rule:evenodd; clip-rule:evenodd"
viewBox="0 6400 16500 8400"
 xmlns:xlink="http://www.w3.org/1999/xlink">
 <defs>
  <style type="text/css">
   <![CDATA[
    .fil2 {fill:#0194D9}
    .fil0 {fill:#224098}
    .fil1 {fill:#22409A}
    .fil4 {fill:#91CFEE}
    .fil5 {fill:#B2BDDB}
    .fil3 {fill:#FEFEFE}
   ]]>
  </style>
 </defs>
 <g id="Слой_x0020_1">
  <metadata id="CorelCorpID_0Corel-Layer"/>
  <g id="_2499750762272">
   <path class="fil0" d="M15688 6551l-42 0c-6,11 -23,17 -36,24 -12,5 -24,14 -37,20 -27,15 -46,28 -73,42 -12,6 -23,15 -35,21l-70 44c-10,6 -25,12 -38,19l-1240 718c-54,39 -154,88 -215,125 -54,33 -99,62 -145,87l-619 358c-14,8 -19,12 -37,21 -27,13 -44,29 -68,43 -25,15 -55,29 -78,42l-142 85c-25,15 -48,27 -73,41l-222 125c-19,11 -1,0 -16,11 -6,5 -12,8 -18,12l-109 66c-13,9 -20,19 -23,35 -3,21 3,33 12,44 19,21 47,29 77,38 117,34 230,76 344,114l348 113c28,10 56,17 86,28 26,9 65,18 89,30 103,47 99,8 135,204 23,119 47,280 54,404 1,21 0,42 1,62 1,38 7,7 10,42l6 337c-2,127 -14,217 -16,332l-36 310 -78 379c-7,31 -15,62 -25,89 -6,18 -4,30 -9,48l-69 220c-9,28 -14,63 -25,90l-31 83c-12,31 -22,55 -33,86l-67 159c-7,16 -9,22 -17,40 -5,13 -12,24 -18,39 -21,50 -61,121 -75,156 -44,103 -104,198 -161,295 -30,52 -95,168 -133,213 -36,43 -59,90 -93,134 -18,23 -30,43 -49,65 -37,45 -64,87 -101,132 -20,24 -32,39 -51,62l-161 185c-38,43 -75,80 -112,116 -74,73 -129,134 -204,198 -317,273 -482,391 -834,602 -46,27 -97,55 -148,80l-150 77c-5,51 12,40 61,40 99,-1 185,-9 289,-12l265 -32c60,-3 113,-14 171,-24l167 -33c20,-4 19,-6 37,-9 20,-3 22,-2 41,-8 26,-8 52,-11 79,-20 27,-8 55,-11 80,-20 49,-17 99,-27 150,-43 50,-17 102,-32 152,-49 111,-37 378,-144 457,-187 13,-7 17,-11 30,-17l131 -68c21,-11 41,-20 63,-32 189,-102 369,-223 540,-351 108,-81 222,-175 325,-267l149 -145c166,-166 330,-345 459,-527 31,-42 56,-74 85,-114 32,-44 53,-74 80,-115l207 -338c33,-49 59,-104 88,-157 31,-56 76,-139 100,-198 12,-27 21,-39 30,-65 16,-43 42,-98 62,-138 19,-41 40,-97 56,-138 10,-25 19,-46 29,-71l78 -215c29,-72 49,-151 71,-228 6,-20 8,-18 12,-40 3,-12 6,-29 9,-40l175 -709c4,-28 8,-23 12,-39 3,-15 0,-28 5,-44 21,-79 30,-171 46,-250l37 -212c24,-248 70,-501 79,-754 2,-38 9,-55 9,-89l20 -873c0,-35 -5,-57 -5,-94 1,-81 1,-215 -4,-289 -5,-60 -9,-120 -9,-185 -1,-64 -8,-129 -10,-190 -6,-178 -15,-109 -38,-156z"/>
   <path class="fil1" d="M9255 10486c18,6 166,210 195,243 29,33 34,47 46,62l243 307c87,122 208,258 292,372 41,56 197,270 246,303 22,15 46,25 80,27 55,3 171,5 223,-1 44,-5 102,-56 119,-95 24,-54 17,-136 17,-205l0 -1763c0,-61 8,-161 -8,-209 -50,-145 -186,-120 -322,-120 -38,-1 -71,-4 -104,6 -32,10 -47,23 -72,43 -46,38 -53,92 -53,166 0,167 6,1078 -3,1097 -9,-3 -85,-104 -96,-120l-289 -370c-17,-21 -32,-41 -48,-61l-239 -306c-31,-41 -67,-84 -98,-124l-143 -184c-124,-146 -79,-162 -401,-148 -7,0 -13,0 -20,2 -38,10 -81,48 -103,91 -26,53 -16,139 -16,208 0,195 -6,1931 3,1971 13,55 59,94 110,113 34,14 286,12 316,3 15,-5 60,-30 71,-40 50,-45 52,-84 52,-165 0,-118 -5,-1054 2,-1103z"/>
   <path class="fil1" d="M8036 10669c-17,90 -29,157 -76,238 -51,90 -141,195 -232,242l-81 38c-10,5 -17,10 -28,14 -67,25 -201,46 -284,32 -22,-3 -43,-5 -67,-9 -41,-7 -137,-44 -172,-66 -18,-11 -32,-17 -48,-28 -15,-11 -31,-24 -45,-35 -30,-24 -57,-50 -82,-79 -133,-152 -158,-295 -149,-489 7,-150 108,-321 219,-413 77,-64 215,-140 328,-146 53,-3 109,-3 162,-1 126,7 236,70 327,142 86,68 164,175 196,283 24,78 49,182 32,277zm-1824 -104c-1,98 3,184 22,277 18,92 12,45 34,114 18,56 71,195 101,237l45 68c34,52 93,130 137,167 15,12 22,23 35,36 56,58 145,122 215,164l50 26c94,53 114,49 184,78 22,9 2,5 25,10 24,6 37,9 64,14 175,30 66,32 290,33 194,0 355,-47 523,-127 12,-6 36,-17 48,-24 149,-89 282,-201 381,-344 51,-72 66,-94 108,-181 54,-113 116,-310 116,-463 0,-160 2,-190 -38,-356l-55 -158c-31,-62 -25,-69 -74,-144 -60,-90 -47,-75 -117,-168 -62,-81 -218,-207 -313,-259l-97 -50c-30,-17 -70,-29 -102,-41l-109 -33c-165,-41 -411,-47 -574,2 -147,44 -265,91 -395,183 -165,117 -313,286 -393,474l-61 152c-30,69 -50,243 -50,313z"/>
   <path class="fil1" d="M12469 11262c-43,-5 -4,-15 -112,-14 -131,0 -860,6 -872,-5 -1,-1 -1,-4 -1,-3l-5 -35c0,-62 -3,-300 4,-325 51,-7 778,-2 908,-2 96,0 70,-13 117,-21 5,-9 16,-14 25,-22 29,-27 44,-73 47,-114 5,-62 2,-148 2,-213 0,-63 -23,-119 -67,-148 -58,-38 -94,-37 -177,-37l-801 0c-8,0 -20,1 -28,0 -26,-1 -28,0 -28,-42 1,-51 -5,-304 4,-313 22,-22 859,0 991,-10 51,-4 113,-61 128,-123 13,-50 22,-284 -14,-342 -25,-43 -19,-41 -62,-65 -62,-33 -139,-23 -227,-23 -92,0 -1218,-5 -1250,2 -21,5 -58,30 -75,47 -75,71 -48,207 -48,334 0,192 -4,1842 2,1876 4,19 31,72 43,86 53,59 133,49 204,49 100,0 1208,6 1249,-4 61,-15 115,-58 125,-126l8 -247c-2,-73 -31,-109 -79,-150l-11 -10z"/>
   <path class="fil2" d="M1340 9414c-3,19 -3,10 -19,19 -76,36 -83,109 -83,184l0 1972c0,38 -4,71 11,104l11 30c54,102 199,76 301,76 71,0 162,1 204,-81 7,-13 9,-23 16,-34l8 -13c11,-36 -8,-705 4,-789 190,-5 388,0 578,0 106,0 176,12 245,-44 63,-51 55,-131 55,-235 0,-101 7,-183 -56,-235 -27,-22 -60,-40 -101,-41 -140,-4 -657,8 -723,-1l-2 -358c60,-13 1008,9 1050,-7 60,-21 95,-40 120,-93 25,-50 17,-132 17,-199 0,-98 12,-185 -79,-241 -25,-16 -42,-22 -80,-23l-1384 0c-16,0 -36,0 -51,1 -16,1 -32,9 -42,8z"/>
   <path class="fil2" d="M11426 13477c25,-18 45,-36 66,-52l69 -50c56,-47 144,-109 193,-158l120 -112c18,-17 51,-34 40,-68 -42,-16 -214,65 -269,81 -31,8 -56,19 -86,27 -155,41 -306,89 -464,118 -34,6 -69,11 -101,19 -58,14 -191,29 -258,36 -81,10 -185,23 -265,24 -35,1 -72,3 -107,7 -131,15 -329,1 -462,-4 -72,-2 -139,-13 -213,-17 -105,-5 -206,-28 -310,-41l-199 -39c-59,-13 -132,-26 -188,-44l-183 -50c-52,-13 -208,-67 -260,-88 -71,-28 -143,-51 -211,-83l-62 -25c-12,-5 -10,-4 -20,-8 -13,-6 -26,-13 -37,-20l-159 -73c-23,-11 -51,-29 -77,-41 -91,-47 -174,-99 -264,-149 -64,-35 -199,-125 -244,-158 -91,-66 -183,-131 -267,-202 -21,-18 -48,-37 -65,-54 -15,-16 -13,-13 -31,-25 -35,-23 -118,-105 -153,-137 -18,-17 -78,-89 -103,-65 -26,25 38,90 52,111 15,21 29,50 45,69 66,78 138,178 207,257 53,59 110,128 169,187l114 118c19,21 35,38 58,56l61 57c99,93 209,182 315,268 43,35 88,66 133,99 25,18 49,30 71,48 114,88 271,173 394,250l99 53c63,36 145,63 213,100 90,49 191,84 287,121 28,11 57,22 85,33 16,6 27,7 44,14 16,6 27,11 41,15 29,9 60,20 88,30 29,10 60,16 89,26 74,26 156,41 232,65 80,25 162,28 242,49l146 28c79,11 182,40 258,9l165 -71c54,-26 108,-42 161,-72 61,-36 146,-69 223,-113 24,-14 56,-28 77,-41 26,-16 51,-28 76,-43 26,-16 50,-28 74,-44 23,-15 49,-24 72,-42 42,-32 114,-76 162,-104l50 -35c27,-18 44,-31 67,-47z"/>
   <path class="fil2" d="M5229 11799l195 0c73,0 106,-12 145,-56 41,-47 43,-83 43,-159l0 -867c0,-29 21,-50 49,-90l181 -245c22,-30 40,-57 59,-84l181 -245c21,-28 40,-55 61,-82 19,-26 40,-53 59,-83 18,-29 41,-56 60,-82 77,-103 155,-179 115,-294 -25,-73 -90,-105 -181,-105l-246 0c-103,0 -149,86 -191,143 -22,31 -45,62 -70,96 -54,73 -344,476 -355,483l-271 -365c-34,-44 -204,-288 -240,-319 -12,-11 -34,-26 -49,-30 -58,-17 -238,-8 -313,-9 -93,0 -176,56 -181,144 -7,107 39,141 98,222 22,30 46,62 68,92l268 368c21,29 46,63 68,93l68 88c12,16 20,31 33,49l169 233c9,27 2,663 2,794 0,47 -4,117 1,161 9,85 79,149 174,149z"/>
   <path class="fil2" d="M3083 9598l0 2005c0,63 19,114 51,147 44,44 77,49 157,49l1322 0c96,0 172,-71 172,-168l0 -213c0,-65 -32,-112 -68,-137 -51,-38 -96,-34 -175,-34l-886 0c-21,-4 -15,-11 -15,-37l1 -1560c0,-93 11,-118 -32,-176 -12,-16 -44,-42 -57,-48 -65,-30 -207,-19 -295,-20 -108,0 -175,86 -175,192z"/>
   <path class="fil3" d="M8036 10669c17,-95 -8,-199 -32,-277 -32,-108 -110,-215 -196,-283 -91,-72 -201,-135 -327,-142 -53,-2 -109,-2 -162,1 -113,6 -251,82 -328,146 -111,92 -212,263 -219,413 -9,194 16,337 149,489 25,29 52,55 82,79 14,11 30,24 45,35 16,11 30,17 48,28 35,22 131,59 172,66 24,4 45,6 67,9 83,14 217,-7 284,-32 11,-4 18,-9 28,-14l81 -38c91,-47 181,-152 232,-242 47,-81 59,-148 76,-238z"/>
   <path class="fil4" d="M1260 11723l-11 -30c-15,-33 -11,-66 -11,-104l0 -1972c0,-75 7,-148 83,-184 16,-9 16,0 19,-19 -37,6 -69,41 -87,71 -25,39 -27,69 -27,123l0 1990c0,44 2,108 34,125z"/>
   <path class="fil5" d="M12469 11262c-19,-26 -72,-24 -102,-24 -113,1 -838,5 -875,-2 -11,-51 -3,-280 -3,-348 92,-13 929,8 974,-6 20,-6 33,-12 45,-25 -47,8 -21,21 -117,21 -130,0 -857,-5 -908,2 -7,25 -4,263 -4,325l5 35c0,-1 0,2 1,3 12,11 741,5 872,5 108,-1 69,9 112,14z"/>
  </g>
 </g>
</svg>
