<?xml version="1.0" encoding="utf-8"?>
<!DOCTYPE svg PUBLIC "-//W3C//DTD SVG 1.1//EN" "http://www.w3.org/Graphics/SVG/1.1/DTD/svg11.dtd">
<svg version="1.1"
	 xmlns="http://www.w3.org/2000/svg" xmlns:xlink="http://www.w3.org/1999/xlink" xmlns:a="http://ns.adobe.com/AdobeSVGViewerExtensions/3.0/"
	 x="0px" y="0px" width="366px" height="59.8px" viewBox="0 0 366 59.8" style="enable-background:new 0 0 366 59.8;"
	 xml:space="preserve">
<style type="text/css">
	.logo-pobeda1{fill-rule:evenodd;clip-rule:evenodd;fill:#14A0E6;}
	.logo-pobeda2{fill-rule:evenodd;clip-rule:evenodd;fill:#5ABCED;}
	.logo-pobeda3{fill-rule:evenodd;clip-rule:evenodd;fill:#ADDEF6;}
</style>
<defs>
</defs>
<path class="logo-pobeda1" d="M67,40.2c0,5.5-3.6,10.2-9.7,10.2c-5.9,0-9.8-4.8-9.8-10.3V40c0-5.5,3.6-10.2,9.7-10.2c5.9,0,9.8,4.8,9.8,10.3
	V40.2L67,40.2z M57.2,20.7c-11.7,0-20.3,8.7-20.3,19.4v0.1c0,10.7,8.6,19.3,20.2,19.3c11.7,0,20.3-8.7,20.3-19.4V40
	C77.4,29.3,68.8,20.7,57.2,20.7L57.2,20.7z"/>
<path class="logo-pobeda1" d="M204.9,20.1h-19.5c-4,0-5.1,4.2-5.5,5.6c-0.5,1.4-7.4,24.6-7.4,24.6h-1.8c-2.6,0-4.6,2.1-4.6,4.7
	c0,2.6,2.1,4.6,4.6,4.6h34.3c2.4,0,5.6-1.9,5.6-5.5V25.7C210.4,22,207.3,20.1,204.9,20.1L204.9,20.1z M200.1,50.2h-16.6
	c0,0,5-17.2,5.1-17.7c0.2-0.5,0.8-2.3,2.3-2.3h6.9c1.2,0,2.3,1,2.3,2.3L200.1,50.2L200.1,50.2z"/>
<path class="logo-pobeda1" d="M122.2,33.6c-3-10.7-14.4-16.9-25.5-13.8c-1.8,0.5-3.4,1.2-4.9,2.1c0-1.4-0.1-3.7,1.6-5.4
	c2.4-2.4,7.1-3.8,7.7-4c1.7-0.5,7.1-2,11.1-3.1c4-1.1,4.6-4.1,4-6.3c-0.6-2.2-3.6-3.6-6.5-2.8c-2.8,0.8-7.4,2-11.9,3.2
	c-4.5,1.2-8.3,3.6-11,6c-2.7,2.5-4.5,5.3-5.2,9.6c-1.2,7.3-0.7,16.7-0.3,21.3c0.1,1.5,0.3,3,0.7,4.5c3,10.7,14.4,16.9,25.5,13.8
	C118.6,55.6,125.2,44.4,122.2,33.6L122.2,33.6z M104.9,49.4c-5.4,1.5-11-1.8-12.6-7.4c-1.6-5.6,1.5-11.4,6.9-12.9
	c5.4-1.5,11,1.8,12.5,7.4C113.4,42.1,110.3,47.9,104.9,49.4L104.9,49.4z"/>
<path class="logo-pobeda1" d="M28,20.4C28,20.4,28,20.4,28,20.4L28,20.4h-9.2h-4.2H5.5l0,0c0,0,0,0-0.1,0c-3,0-5.5,2.5-5.5,5.5v28.4
	c0,3,2.5,5.5,5.5,5.5c3,0,5.5-2.5,5.5-5.5V32.8c0-1.3,1.1-2.3,2.3-2.3h1.9h3.2h1.9c1.2,0,2.3,1,2.3,2.3v21.5c0,3,2.5,5.5,5.5,5.5
	c3,0,5.5-2.5,5.5-5.5V25.9C33.5,22.9,31,20.4,28,20.4L28,20.4z"/>
<path class="logo-pobeda1" d="M138.2,35.3c0.8-4.5,3.6-7.3,8.4-7.3c4.7,0,7.5,3.3,7.9,7.3H138.2L138.2,35.3z M165.5,36.4
	c0-3.8-1.1-8.4-4.9-12.2c-3.1-3.1-7.7-5.1-14.1-5.1c-6.2,0-11.1,2-14.6,5.4c-3.4,3.5-5.6,8.4-5.6,14.3c0,6.1,2.1,11.2,5.8,15
	c3.6,3.6,9,5.7,15.6,5.7c3.8,0,7.7-0.4,11.2-1.9c3.3-1.3,4.9-2.9,4.9-5.2c0-2.4-1.8-4.5-4.2-4.5c-2.9,0-5.1,2.6-11.1,2.6
	c-5.6,0-9.1-2.8-10.2-7.9h21.6C163.4,42.7,165.5,40.4,165.5,36.4L165.5,36.4z"/>
<path class="logo-pobeda1" d="M231,52.3c-4.2,0-7.6-2.7-7.6-5.9c0-3.3,3.4-5.9,7.6-5.9c4.2,0,7.6,2.7,7.6,5.9C238.6,49.6,235.2,52.3,231,52.3
	L231,52.3z M248.5,36.2c-0.1-1.6-1.3-6.7-5-10.4c-3.3-3.4-7.7-5.6-13.7-5.6c-3.5,0-5.4,0-8.6,1.4c-3,1.2-4.5,2.7-4.5,4.9
	c0,2.3,1.6,4.2,3.8,4.2c2.6,0,2.5-1.9,8-1.9c4.5,0,7.5,2,8.8,5.9c-3.4-1.6-7.1-1.7-7.1-1.7s-13-1.2-15.9,10.3
	c-1.4,7.8,3.1,14.7,12.6,15.9c8.3,0.5,12.4-2.9,12.4-2.9c0.9,1.5,2.4,2.5,4.3,2.5c2.7,0,5-2.2,5-5C248.8,53.8,248.8,40.1,248.5,36.2
	L248.5,36.2z"/>
<path class="logo-pobeda1" d="M289.5,43.4c0,8.8-7.1,15.9-16,15.9c-8.8,0-15.9-7.1-15.9-15.9c0-8.8,7.1-15.9,15.9-15.9
	C282.3,27.5,289.5,34.6,289.5,43.4L289.5,43.4z"/>
<path class="logo-pobeda2" d="M327.7,43.4c0,8.8-7.1,15.9-15.9,15.9c-8.8,0-15.9-7.1-15.9-15.9c0-8.8,7.1-15.9,15.9-15.9
	C320.6,27.5,327.7,34.6,327.7,43.4L327.7,43.4z"/>
<path class="logo-pobeda3" d="M366,43.4c0,8.8-7.1,15.9-15.9,15.9c-8.8,0-15.9-7.1-15.9-15.9c0-8.8,7.1-15.9,15.9-15.9
	C358.8,27.5,366,34.6,366,43.4L366,43.4z"/>
</svg>
