<?xml version="1.0" encoding="utf-8"?>
<!-- Generator: Adobe Illustrator 24.3.0, SVG Export Plug-In . SVG Version: 6.00 Build 0)  -->
<svg version="1.1" id="Layer_1" xmlns="http://www.w3.org/2000/svg" xmlns:xlink="http://www.w3.org/1999/xlink" x="0px" y="0px" width="663.6px" height="165.9px"
	 viewBox="0 0 663.6 165.9" style="enable-background:new 0 0 663.6 165.9;" xml:space="preserve">
<style type="text/css">
	.st0{fill:#14A0E6;}
	.st1{fill:#5ABCED;}
	.st2{fill:#ADDEF6;}
</style>
<g>
	<path class="st0" d="M514,91.1c0,14.2-11.5,25.7-25.7,25.7c-14.2,0-25.7-11.5-25.7-25.7c0-14.2,11.5-25.7,25.7-25.7
		C502.4,65.4,514,76.9,514,91.1"/>
	<path class="st1" d="M575.7,91.1c0,14.2-11.5,25.7-25.7,25.7c-14.2,0-25.7-11.5-25.7-25.7c0-14.2,11.5-25.7,25.7-25.7
		C564.1,65.4,575.7,76.9,575.7,91.1"/>
	<path class="st2" d="M637.4,91.1c0,14.2-11.5,25.7-25.7,25.7c-14.2,0-25.7-11.5-25.7-25.7c0-14.2,11.5-25.7,25.7-25.7
		C625.8,65.4,637.4,76.9,637.4,91.1"/>
	<g>
		<path class="st0" d="M134.2,52.1c-18.8,0-32.7,13.5-32.7,32.3v0.2c0,18.9,13.9,32.1,32.5,32.1c18.8,0,32.7-13.5,32.7-32.4v-0.2
			C166.7,65.4,152.9,52.1,134.2,52.1z M149.6,84.5c0,10.3-6.6,16.8-15.5,16.8c-8.9,0-15.4-6.4-15.4-16.7v-0.1
			c0-10.3,6.6-16.8,15.5-16.8c8.9,0,15.4,6.4,15.4,16.7V84.5z"/>
		<path class="st0" d="M211.3,53c-5.3,0-15.1,0.9-21.7,7.9c0-10.1,5-14.2,16.1-17.5c2.7-0.8,11.2-3.2,17.7-4.9
			c6.4-1.7,7.9-6.3,6.8-10c-1.8-5.9-6.9-6.4-12.2-4.8c-10.8,3.3-25.4,6.1-34.8,15.5c-7.7,7.7-9.9,16.3-9.9,37.7
			c0,18.8,8,39.8,33.9,39.8c24.2,0,32.6-17.6,32.6-34.5C239.7,68,229.6,53,211.3,53z M222.6,84.5c0,10.3-6.6,16.8-15.5,16.8
			c-8.9,0-15.4-6.4-15.4-16.7v-0.1c0-10.3,6.6-16.8,15.5-16.8c8.9,0,15.4,6.4,15.4,16.7V84.5z"/>
		<path class="st0" d="M278.5,52.1c-10,0-17.9,3.2-23.5,8.7c-5.5,5.5-9.1,13.5-9.1,22.9c0,9.7,3.4,18,9.3,24
			c5.9,5.8,14.5,9.1,25.2,9.1c6.1,0,12.4-0.7,18.1-3c5.3-2,7.9-4.6,7.9-8.3c0-3.9-2.9-7.2-6.8-7.2c-4.6,0-8.2,4.2-18,4.2
			c-9,0-15.8-4.5-17.5-12.7h35.9c5.7,0,9-3.7,9-10.1c0-6.1-1.8-13.4-7.9-19.5C296.2,55.4,288.8,52.1,278.5,52.1z M264.1,78
			c1.3-7.2,7.2-11.8,14.9-11.8c8.3,0,12.9,4.5,13.5,11.8H264.1z"/>
		<path class="st0" d="M85.2,53C85.2,53,85.2,53,85.2,53L85.2,53H42.8l0,0c0,0-0.1,0-0.1,0c-4.9,0-8.9,4-8.9,8.9v45.3
			c0,4.9,4,8.8,8.9,8.8c4.9,0,8.8-4,8.8-8.8V68.7h24.8v38.4c0,4.9,4,8.8,8.9,8.8c4.9,0,8.9-4,8.9-8.8V61.8C94.1,57,90.1,53,85.2,53z
			"/>
		<path class="st0" d="M374,53h-28.5c-6.2,0-9.6,3.3-11.5,9l-11.9,39.1h-3.3c-4.1,0-7.5,3.3-7.5,7.5c0,4.1,3.4,7.5,7.5,7.5H374
			c3.9,0,9-3.1,9-8.9V61.9C383,56.1,378,53,374,53z M366.3,101.1h-26.7l9.1-33.1h17.6V101.1z"/>
		<path class="st0" d="M419,52.1c-4.8,0-11.3,0.2-16.8,2.3c-4.8,1.9-7.2,4.5-7.2,8.1c0,3.8,2.7,7,6.2,7c4.2,0,8.4-3.1,17.3-3.1
			c9.4,0,13.3,4.4,13.3,12.4c-4.9-4.4-13.1-4.7-15.8-4.7c-7.3,0-24.7,3.2-24.7,21c0,13.1,11.2,21.7,24.8,21.7
			c7.8,0,12.8-2.9,16.5-5.8c1.5,3.7,4.9,4.9,7.9,4.9c4.4,0,8-3.7,8-8.2c0,0,0-20.8,0-28.6C448.4,59.5,433.8,52.1,419,52.1z
			 M419,104.7c-7,0-12.1-3.7-12.1-9.4c0-6.4,5.9-9.4,12.1-9.4c7,0,12.1,3.7,12.1,9.4C431.2,101,426,104.7,419,104.7z"/>
	</g>
</g>
</svg>
