<?xml version="1.0" encoding="utf-8"?>
<!-- Generator: Adobe Illustrator 24.1.2, SVG Export Plug-In . SVG Version: 6.00 Build 0)  -->
<svg version="1.1" id="Layer_1" xmlns="http://www.w3.org/2000/svg" xmlns:xlink="http://www.w3.org/1999/xlink" x="0px" y="0px" width="156.428px" height="39px"
	 viewBox="0 0 156.428 39" style="enable-background:new 0 0 156.428 39" xml:space="preserve">
<path fill="#328040" d="M50.22,32.154c0.038,0.78,0.136,1.429,0.292,1.946c0.156,0.517,0.415,0.931,0.776,1.243
	c0.36,0.312,0.848,0.536,1.463,0.673c0.614,0.137,1.4,0.205,2.355,0.205c0.643,0,1.277-0.029,1.901-0.088
	c0.624-0.058,1.346-0.166,2.165-0.322l-0.468,2.545c-0.311,0.108-0.629,0.196-0.951,0.263c-0.361,0.077-0.756,0.146-1.185,0.205
	c-0.429,0.058-0.868,0.102-1.317,0.132C54.803,38.985,54.364,39,53.935,39c-1.365,0-2.511-0.156-3.437-0.468
	c-0.927-0.312-1.678-0.78-2.253-1.404c-0.575-0.624-0.985-1.389-1.229-2.296c-0.244-0.907-0.366-1.965-0.365-3.175v-1.229
	c0-1.092,0.132-2.086,0.395-2.984c0.263-0.897,0.677-1.668,1.243-2.311c0.565-0.644,1.282-1.141,2.15-1.492
	c0.868-0.351,1.906-0.527,3.116-0.527c1.229,0,2.248,0.176,3.057,0.527c0.809,0.351,1.458,0.814,1.946,1.39
	c0.489,0.578,0.844,1.258,1.039,1.989c0.205,0.748,0.308,1.521,0.307,2.296v1.17c0,0.352-0.024,0.639-0.073,0.863
	c-0.049,0.225-0.137,0.395-0.263,0.512c-0.127,0.117-0.298,0.195-0.512,0.234c-0.214,0.039-0.487,0.058-0.819,0.058L50.22,32.154z
	 M53.467,25.748c-1.112,0-1.931,0.307-2.457,0.922c-0.527,0.614-0.81,1.624-0.848,3.028h6.378v-0.614
	c0-1.092-0.234-1.921-0.702-2.487C55.369,26.031,54.579,25.748,53.467,25.748z M72.568,26.567c-0.234-0.058-0.517-0.117-0.848-0.175
	c-0.338-0.059-0.681-0.088-1.024-0.088c-1.287,0-2.219,0.336-2.794,1.009c-0.575,0.673-0.863,1.701-0.863,3.086v8.25H63.47V23.466
	h3.101l0.234,1.814c0.487-0.663,1.092-1.165,1.814-1.507c0.721-0.341,1.589-0.512,2.603-0.512c0.348-0.003,0.695,0.021,1.039,0.073
	c0.324,0.054,0.642,0.137,0.951,0.249L72.568,26.567z M81.635,23.115c1.345,0,2.467,0.185,3.364,0.556
	c0.897,0.371,1.614,0.878,2.15,1.522c0.536,0.644,0.917,1.414,1.141,2.311c0.224,0.897,0.336,1.872,0.336,2.925v1.229
	c0,1.014-0.107,1.965-0.322,2.853c-0.215,0.887-0.585,1.663-1.111,2.326c-0.527,0.663-1.244,1.19-2.15,1.58
	C84.136,38.805,83,39,81.635,39c-1.365,0-2.497-0.185-3.394-0.556c-0.897-0.371-1.614-0.883-2.15-1.536
	c-0.537-0.653-0.917-1.428-1.141-2.325c-0.225-0.897-0.337-1.872-0.336-2.926v-1.229c0-1.053,0.117-2.028,0.351-2.925
	c0.234-0.897,0.619-1.668,1.155-2.311c0.536-0.644,1.253-1.151,2.15-1.522C79.168,23.3,80.29,23.115,81.635,23.115z M81.664,36.221
	c1.229,0,2.092-0.327,2.589-0.98c0.497-0.653,0.746-1.77,0.746-3.35v-1.697c0-1.56-0.244-2.667-0.732-3.32
	c-0.488-0.653-1.355-0.98-2.604-0.98c-1.248,0-2.131,0.327-2.648,0.98c-0.517,0.653-0.775,1.76-0.775,3.32v1.697
	c0,0.839,0.063,1.536,0.19,2.092c0.127,0.556,0.332,1,0.615,1.331c0.282,0.331,0.652,0.574,1.068,0.702
	C80.543,36.153,81.06,36.221,81.664,36.221L81.664,36.221z M105.444,26.157v7.167c0,1.053,0.21,1.799,0.629,2.238
	c0.419,0.439,1.097,0.658,2.033,0.658c0.381,0.004,0.762-0.016,1.141-0.058c0.312-0.039,0.634-0.088,0.966-0.147l-0.439,2.516
	c-0.312,0.117-0.722,0.215-1.229,0.293c-0.503,0.077-1.012,0.116-1.521,0.117c-0.897,0-1.668-0.102-2.311-0.307
	c-0.643-0.205-1.175-0.536-1.594-0.995c-0.42-0.458-0.732-1.053-0.936-1.785c-0.204-0.731-0.307-1.614-0.307-2.648v-7.05h-2.867
	l0.409-2.692h2.458V19.75l3.569-0.468v4.183h4.681l-0.41,2.692L105.444,26.157z M112.2,33.968c0-0.878,0.132-1.619,0.395-2.223
	c0.263-0.605,0.638-1.092,1.126-1.463c0.487-0.37,1.082-0.639,1.785-0.805c0.702-0.166,1.482-0.248,2.341-0.249
	c0.878,0,1.623,0.088,2.238,0.263c0.614,0.175,1.136,0.478,1.565,0.907v-0.995c0-1.287-0.327-2.199-0.98-2.735
	c-0.653-0.536-1.672-0.804-3.057-0.805c-0.7,0-1.4,0.054-2.092,0.161c-0.692,0.107-1.37,0.239-2.033,0.394l0.439-2.691
	c0.624-0.175,1.346-0.322,2.165-0.439c0.775-0.114,1.557-0.173,2.341-0.176c1.014,0,1.93,0.112,2.75,0.337
	c0.819,0.225,1.517,0.571,2.092,1.039c0.575,0.468,1.019,1.063,1.331,1.785c0.312,0.722,0.468,1.58,0.468,2.574v9.8h-3.043
	l-0.263-1.521c-0.449,0.624-1.039,1.083-1.77,1.375c-0.731,0.293-1.623,0.439-2.676,0.439c-0.761,0-1.453-0.083-2.077-0.249
	c-0.624-0.165-1.166-0.434-1.624-0.804c-0.458-0.37-0.81-0.848-1.053-1.433c-0.244-0.585-0.366-1.307-0.366-2.165L112.2,33.968z
	 M115.594,34.056c0,0.741,0.229,1.287,0.687,1.638c0.458,0.351,1.185,0.527,2.179,0.526c1.111,0,1.926-0.21,2.442-0.629
	s0.775-0.99,0.776-1.712v-0.234c0-0.643-0.229-1.136-0.688-1.477c-0.458-0.341-1.195-0.512-2.209-0.512h-0.497
	c-0.956,0-1.643,0.181-2.062,0.542c-0.42,0.361-0.629,0.912-0.629,1.653L115.594,34.056z M132.588,38.649h-3.569V16.913h3.569
	V38.649z M138.525,23.421c0.76,0,1.311,0.171,1.653,0.512c0.341,0.341,0.512,0.824,0.512,1.448c0,0.624-0.171,1.107-0.512,1.448
	c-0.341,0.341-0.892,0.512-1.653,0.512c-0.761,0-1.312-0.171-1.653-0.512c-0.341-0.341-0.512-0.824-0.512-1.448
	c0-0.624,0.171-1.107,0.512-1.448C137.214,23.591,137.765,23.421,138.525,23.421z M136.741,27.874h3.569v10.775h-3.569V27.874z
	 M94.358,23.421c0.76,0,1.311,0.171,1.653,0.512c0.341,0.341,0.512,0.824,0.512,1.448c0,0.624-0.171,1.107-0.512,1.448
	c-0.341,0.341-0.892,0.512-1.653,0.512c-0.761,0-1.312-0.171-1.653-0.512c-0.341-0.341-0.512-0.824-0.512-1.448
	c0-0.624,0.171-1.107,0.512-1.448C93.046,23.591,93.597,23.421,94.358,23.421z M92.573,27.874h3.569v10.775h-3.569V27.874z
	 M143.556,33.968c0-0.878,0.132-1.619,0.395-2.223c0.263-0.605,0.638-1.092,1.126-1.463c0.487-0.37,1.082-0.639,1.785-0.805
	c0.702-0.166,1.482-0.248,2.341-0.249c0.878,0,1.623,0.088,2.238,0.263c0.614,0.175,1.136,0.478,1.565,0.907v-0.995
	c0-1.287-0.327-2.199-0.98-2.735c-0.653-0.536-1.672-0.804-3.057-0.805c-0.7,0-1.4,0.054-2.092,0.161
	c-0.692,0.107-1.37,0.239-2.033,0.394l0.439-2.691c0.624-0.175,1.346-0.322,2.165-0.439c0.775-0.114,1.557-0.173,2.341-0.176
	c1.014,0,1.93,0.112,2.75,0.337c0.819,0.225,1.517,0.571,2.092,1.039c0.575,0.468,1.019,1.063,1.331,1.785
	c0.312,0.722,0.468,1.58,0.468,2.574v9.8h-3.043l-0.263-1.521c-0.449,0.624-1.039,1.083-1.77,1.375
	c-0.731,0.293-1.623,0.439-2.676,0.439c-0.761,0-1.453-0.083-2.077-0.249c-0.624-0.165-1.166-0.434-1.624-0.804
	c-0.458-0.37-0.81-0.848-1.053-1.433c-0.244-0.585-0.366-1.307-0.366-2.165L143.556,33.968z M146.95,34.056
	c0,0.741,0.229,1.287,0.687,1.638c0.458,0.351,1.184,0.527,2.18,0.526c1.111,0,1.926-0.21,2.442-0.629
	c0.517-0.419,0.775-0.99,0.776-1.712v-0.234c0-0.643-0.229-1.136-0.688-1.477c-0.458-0.341-1.195-0.512-2.209-0.512h-0.497
	c-0.956,0-1.643,0.181-2.062,0.542c-0.42,0.361-0.629,0.912-0.629,1.653L146.95,34.056z"/>
<polygon fill="#D82E32" points="43.194,38.572 34.664,38.572 20.696,0 29.226,0 "/>
<polygon fill="#328040" points="8.53,38.572 0,38.572 20.696,0 29.226,0 "/>
<path fill="#4EA047" d="M18.391,20.309c-0.028,0.013-0.056,0.027-0.084,0.041c-4.159,2.005-8.205,4.237-12.118,6.688L0,38.572h8.53
	l0.547-1.019c1.287-2.399,2.932-4.587,4.88-6.489l0.042-0.041c3.571-3.482,6.855-6.684,12.35-10.313
	c5.252-3.469,9.689-5.457,12.623-6.755c6.227-2.756,10.006-3.658,9.961-3.807C48.846,9.857,34.403,12.606,18.391,20.309z"/>
</svg>
