<?xml version="1.0" encoding="utf-8"?>
<!DOCTYPE svg PUBLIC "-//W3C//DTD SVG 1.1//EN" "http://www.w3.org/Graphics/SVG/1.1/DTD/svg11.dtd">
<svg id="W2F_LOGO_1_rgb" data-name="W2F LOGO_1_rgb" xmlns="http://www.w3.org/2000/svg" xmlns:xlink="http://www.w3.org/1999/xlink" x="0px" y="0px" width="248.966" height="58" viewBox="0 0 248.966 58">
  <g id="Grupo_6705" data-name="Grupo 6705" transform="translate(0 0)">
    <g id="Grupo_6704" data-name="Grupo 6704">
      <g id="Grupo_6695" data-name="Grupo 6695" transform="translate(0 15.401)">
        <g id="Grupo_6694" data-name="Grupo 6694">
          <path id="Trazado_5431" data-name="Trazado 5431" d="M211.393,288.621l4.422-14.566c.468-1.873,2.653-3.173,5.358-2.445a3.974,3.974,0,0,1,2.5,5.046l-7.179,20.5a4.584,4.584,0,0,1-4.422,3.277h-.364a4.276,4.276,0,0,1-4.266-3.277l-4.63-15.086-4.422,15.086a4.318,4.318,0,0,1-4.266,3.277h-.364a4.584,4.584,0,0,1-4.422-3.277l-7.439-20.5a3.974,3.974,0,0,1,2.5-5.046c2.653-.728,4.838.572,5.358,2.445l4.422,14.566,4.058-13.786a4.216,4.216,0,0,1,4.318-3.381h.468a4.162,4.162,0,0,1,4.266,3.381Z" transform="translate(-181.677 -271.405)" fill="#121e7e"/>
        </g>
      </g>
      <g id="Grupo_6697" data-name="Grupo 6697" transform="translate(43.502 15.19)">
        <g id="Grupo_6696" data-name="Grupo 6696">
          <path id="Trazado_5432" data-name="Trazado 5432" d="M265.3,285.67c0-8.948,6.607-14.67,14.878-14.67s14.93,5.722,14.93,14.67S288.4,300.5,280.178,300.5,265.3,294.566,265.3,285.67Zm21.329,0a6.425,6.425,0,1,0-12.849,0,6.427,6.427,0,1,0,12.849,0Z" transform="translate(-265.3 -271)" fill="#121e7e"/>
        </g>
      </g>
      <g id="Grupo_6699" data-name="Grupo 6699" transform="translate(76.795 15.24)">
        <g id="Grupo_6698" data-name="Grupo 6698">
          <path id="Trazado_5433" data-name="Trazado 5433" d="M350.577,275.727c-.312,2.133-2.289,3.121-4.214,3.121-.624,0-1.509-.052-2.081-.052-4.734,0-6.347,3.641-6.451,10.768v6.971a4,4,0,0,1-4.266,3.746,4.173,4.173,0,0,1-4.266-3.746V275.1a4.135,4.135,0,0,1,4.266-3.746,4.066,4.066,0,0,1,4.266,3.746v3.121c1.561-5.306,4.578-7.127,7.491-7.127C348.132,271.046,351.149,271.722,350.577,275.727Z" transform="translate(-329.3 -271.095)" fill="#121e7e"/>
        </g>
      </g>
      <g id="Grupo_6701" data-name="Grupo 6701" transform="translate(101.349)">
        <g id="Grupo_6700" data-name="Grupo 6700">
          <path id="Trazado_5434" data-name="Trazado 5434" d="M385.031,282.481a4,4,0,0,1-4.266,3.746,4.173,4.173,0,0,1-4.266-3.746V245.546a4.135,4.135,0,0,1,4.266-3.746,4.066,4.066,0,0,1,4.266,3.746Z" transform="translate(-376.5 -241.8)" fill="#121e7e"/>
        </g>
      </g>
      <g id="Grupo_6703" data-name="Grupo 6703" transform="translate(112.794)">
        <g id="Grupo_6702" data-name="Grupo 6702">
          <path id="Trazado_5435" data-name="Trazado 5435" d="M420.817,245.546a4.135,4.135,0,0,1,4.266-3.746,4.066,4.066,0,0,1,4.266,3.746v36.935a4,4,0,0,1-4.266,3.746,4.173,4.173,0,0,1-4.266-3.746v-.572a10.149,10.149,0,0,1-8.531,4.578c-7.231,0-13.786-5.358-13.786-14.774s6.555-14.722,13.786-14.722a10.512,10.512,0,0,1,8.531,4.578Zm-6.867,33.4a7.184,7.184,0,0,0,0-14.358c-4.266,0-6.711,3.381-6.711,7.179C407.24,275.51,409.685,278.943,413.95,278.943Z" transform="translate(-398.5 -241.8)" fill="#121e7e"/>
        </g>
      </g>
    </g>
  </g>
  <g id="Grupo_6711" data-name="Grupo 6711" transform="translate(185.468 0.104)">
    <g id="Grupo_6710" data-name="Grupo 6710">
      <g id="Grupo_6707" data-name="Grupo 6707">
        <g id="Grupo_6706" data-name="Grupo 6706">
          <path id="Trazado_5436" data-name="Trazado 5436" d="M562.754,250.9c0-1.4-2.6-1.665-5.1-1.665-3.85,0-5.2,2.5-5.2,5.826v2.237h2.913a3.163,3.163,0,0,1,3.017,3.329,3.266,3.266,0,0,1-3.017,3.329h-2.913v18.624a4,4,0,0,1-4.266,3.746,4.173,4.173,0,0,1-4.266-3.746v-18.52h-2.705a3.345,3.345,0,0,1,0-6.659h2.653v-1.925c0-8.688,4.578-13.474,13.421-13.474,14.67,0,13.942,4.37,13.942,6.971v33.606a4,4,0,0,1-4.266,3.746,4.173,4.173,0,0,1-4.266-3.746V250.9Z" transform="translate(-538.2 -242)" fill="#121e7e"/>
        </g>
      </g>
      <g id="Grupo_6709" data-name="Grupo 6709" transform="translate(36.591 15.004)">
        <g id="Grupo_6708" data-name="Grupo 6708">
          <path id="Trazado_5437" data-name="Trazado 5437" d="M620.639,311.189c-.78,1.873-2.757,2.965-5.358,2.393a3.792,3.792,0,0,1-2.445-5.1l4.734-11.809-8.792-20.6a3.835,3.835,0,0,1,2.5-5.046c2.653-.676,4.63.572,5.306,2.445l5.358,13.838,5.462-13.838c.676-1.873,2.6-3.121,5.306-2.445a3.835,3.835,0,0,1,2.5,5.046Z" transform="translate(-608.538 -270.842)" fill="#121e7e"/>
        </g>
      </g>
    </g>
  </g>
  <g id="Grupo_6712" data-name="Grupo 6712" transform="translate(150.821)">
    <path id="Trazado_5438" data-name="Trazado 5438" d="M487.414,301.5l-.312.052H486.01a14.365,14.365,0,0,0-14.358,13.005l-.052.364h28.872V301.552H487.414Z" transform="translate(-471.6 -270.443)" fill="#649cf8"/>
    <path id="Trazado_5439" data-name="Trazado 5439" d="M501.664,241.852l-.364-.052v28.82l.364-.052a14.428,14.428,0,0,0,0-28.716Z" transform="translate(-485.85 -241.8)" fill="#0eeee9"/>
    <circle id="Elipse_212" data-name="Elipse 212" cx="6.659" cy="6.659" r="6.659" transform="translate(0.052 2.445)" fill="#c52e1c"/>
  </g>
</svg>
