<?xml version="1.0" encoding="UTF-8" standalone="no"?>
<!-- Created with Inkscape (http://www.inkscape.org/) -->

<svg
   version="1.1"
   id="svg1855"
   xml:space="preserve"
   width="808.82532"
   height="300"
   viewBox="0 0 808.82532 299.99999"
   sodipodi:docname="лого синий.svg"
   inkscape:version="1.1 (c68e22c387, 2021-05-23)"
   inkscape:export-filename="C:\Users\AMikhailova\Desktop\g729.png"
   inkscape:export-xdpi="96"
   inkscape:export-ydpi="96"
   xmlns:inkscape="http://www.inkscape.org/namespaces/inkscape"
   xmlns:sodipodi="http://sodipodi.sourceforge.net/DTD/sodipodi-0.dtd"
   xmlns="http://www.w3.org/2000/svg"
   xmlns:svg="http://www.w3.org/2000/svg"><defs
     id="defs1859"><linearGradient
       x1="0"
       y1="0"
       x2="1"
       y2="0"
       gradientUnits="userSpaceOnUse"
       gradientTransform="matrix(606.61035,0,0,-606.61035,0.0024414,56.063477)"
       spreadMethod="pad"
       id="linearGradient1883"><stop
         style="stop-opacity:1;stop-color:#0054a1"
         offset="0"
         id="stop1877" /><stop
         style="stop-opacity:1;stop-color:#0054a1"
         offset="0.392638"
         id="stop1879" /><stop
         style="stop-opacity:1;stop-color:#009ee3"
         offset="1"
         id="stop1881" /></linearGradient><clipPath
       clipPathUnits="userSpaceOnUse"
       id="clipPath1893"><path
         d="m 0.003,85.706 h 606.61 V 286.129 H 0.003 Z"
         id="path1891" /></clipPath><linearGradient
       x1="0"
       y1="0"
       x2="1"
       y2="0"
       gradientUnits="userSpaceOnUse"
       gradientTransform="matrix(606.6123,0,0,-606.6123,4.883e-4,753.44922)"
       spreadMethod="pad"
       id="linearGradient1939"><stop
         style="stop-opacity:1;stop-color:#009ee3"
         offset="0"
         id="stop1931" /><stop
         style="stop-opacity:1;stop-color:#004d92"
         offset="0.59431336"
         id="stop1933" /><stop
         style="stop-opacity:1;stop-color:#004d92"
         offset="0.92638"
         id="stop1935" /><stop
         style="stop-opacity:1;stop-color:#004d92"
         offset="1"
         id="stop1937" /></linearGradient><clipPath
       clipPathUnits="userSpaceOnUse"
       id="clipPath1949"><path
         d="M 0.001,479.667 H 606.619 V 680.091 H 0.001 Z"
         id="path1947" /></clipPath><clipPath
       clipPathUnits="userSpaceOnUse"
       id="clipPath1981"><path
         d="M 0,853.228 H 606.619 V 0 H 0 Z"
         id="path1979" /></clipPath></defs><sodipodi:namedview
     id="namedview1857"
     pagecolor="#ffffff"
     bordercolor="#666666"
     borderopacity="1.0"
     inkscape:pageshadow="2"
     inkscape:pageopacity="0.0"
     inkscape:pagecheckerboard="0"
     showgrid="false"
     inkscape:zoom="0.36567014"
     inkscape:cx="-589.32895"
     inkscape:cy="225.61317"
     inkscape:window-width="1365"
     inkscape:window-height="1001"
     inkscape:window-x="85"
     inkscape:window-y="17"
     inkscape:window-maximized="0"
     inkscape:current-layer="g1861"
     showguides="true"
     inkscape:guide-bbox="true"
     width="808.82532px" /><g
     id="g1861"
     inkscape:groupmode="layer"
     inkscape:label="blag_pismo curv_210x297+2 мм_печать 4+0"
     transform="matrix(1.3333333,0,0,-1.3333333,0,1137.6373)"><g
       id="g312"
       transform="matrix(1.8346571,0,0,1.8346571,-445.53018,-650.49977)"><g
         id="g1975"><g
           id="g1977"
           clip-path="url(#clipPath1981)"><g
             id="g1983"
             transform="translate(117.1958,524.5752)" /><g
             id="g1987"
             transform="translate(149.9971,521.6455)" /><g
             id="g1991"
             transform="translate(166.4678,538.0347)" /><g
             id="g1995"
             transform="translate(177.688,521.6455)" /><g
             id="g1999"
             transform="translate(211.7085,526.6636)" /><g
             id="g2003"
             transform="translate(233.8633,524.5752)" /><g
             id="g2007"
             transform="translate(254.395,538.0347)" /><g
             id="g2011"
             transform="translate(276.2603,532.958)" /><g
             id="g2015"
             transform="translate(291.0488,526.1704)" /><g
             id="g2019"
             transform="translate(306.8813,541.9502)" /><g
             id="g2023"
             transform="translate(329.9956,539.0205)" /><g
             id="g2027"
             transform="translate(345.2476,521.6455)" /><g
             id="g2031"
             transform="translate(364.3003,521.6455)" /><g
             id="g2035"
             transform="translate(386.6011,521.6455)" /><g
             id="g2039"
             transform="translate(425.0005,526.6636)" /><g
             id="g2043"
             transform="translate(433.522,521.6455)" /><g
             id="g2047"
             transform="translate(113.5405,486.8457)" /><g
             id="g2051"
             transform="translate(135.3774,486.8457)" /><g
             id="g2055"
             transform="translate(163.7993,491.3706)" /><g
             id="g2059"
             transform="translate(186.9121,489.7754)" /><g
             id="g2063"
             transform="translate(217.4521,486.8457)" /><g
             id="g2067"
             transform="translate(238.8818,491.8638)" /><g
             id="g2071"
             transform="translate(485.7197,736.334)"><path
               d="m 0,0 c -3.092,2.111 -8.87,6.182 -15.482,11.21 -11.581,8.819 -25.913,20.725 -33.495,25.205 -4.675,2.751 -10.394,4.905 -17.13,6.249 0.294,-0.374 0.827,-1.129 0.866,-1.15 3.873,-0.859 10.387,-3.188 14.293,-5.494 7.824,-4.612 21.49,-16.111 33.164,-24.999 6.564,-4.994 12.999,-9.964 16.026,-11.959 6.209,-4.101 9.9,-6.302 9.9,-6.302 l 2.455,0.497 c 0,0 -6.678,4.064 -10.597,6.743"
               style="fill:#00b6ed;fill-opacity:1;fill-rule:nonzero;stroke:none"
               id="path2073" /></g><g
             id="g2075"
             transform="translate(492.6167,738.6201)"><path
               d="m 0,0 c -3.472,2.241 -7.937,5.178 -17.653,12.497 -11.637,8.774 -26.249,20.201 -33.871,24.696 -7.896,4.653 -20.386,9.237 -37.728,8.909 -8.661,-0.163 -12.963,-1.107 -12.963,-1.107 l 1.021,-0.855 c 0,0 3.922,0.515 9.082,0.718 15.176,0.598 28.887,-3.431 38.575,-9.142 7.791,-4.599 22.388,-15.887 34.053,-24.767 C -12.924,5.95 -6.436,1.371 -3.367,-0.6 6.664,-7.032 8.445,-7.905 8.445,-7.905 l 3.086,0.881 c 0,0 -2.392,1.136 -11.531,7.024"
               style="fill:#009fe3;fill-opacity:1;fill-rule:nonzero;stroke:none"
               id="path2077" /></g><g
             id="g2079"
             transform="translate(482.9414,731.8115)"><path
               d="m 0,0 c -3.513,2.46 -8.945,6.461 -15.796,11.755 -6.475,5.009 -13.839,10.991 -21.072,16.97 -4.935,4.079 -6.536,4.448 -6.536,4.448 l 0.277,-1.111 c 0,0 1.735,-0.781 5.981,-4.451 5.746,-4.789 13.094,-11.139 20.239,-16.83 6.997,-5.572 10.818,-8.248 13.746,-10.379 2.384,-1.732 6.348,-4.33 6.348,-4.33 l 2.48,0.326 c 0,0 -1.536,0.715 -5.667,3.602"
               style="fill:#57ccf6;fill-opacity:1;fill-rule:nonzero;stroke:none"
               id="path2081" /></g><g
             id="g2083"
             transform="translate(494.1655,744.6133)"><path
               d="m 0,0 c -3.072,2.08 -8.998,5.886 -15.587,10.905 -11.61,8.834 -27.243,20.367 -34.904,24.884 -9.282,5.475 -16.571,8.117 -38.126,8.008 -8.773,-0.043 -18.732,-1.743 -18.732,-1.743 l 1.507,-1.085 c 0,0 6.481,1.041 14.613,1.148 17.29,0.228 26.913,-1.996 38.761,-8.707 7.834,-4.439 22.261,-15.611 33.909,-24.482 6.57,-5 12.058,-8.8 15.121,-10.798 12.315,-8.027 16.574,-10.135 16.574,-10.135 l 4.298,1.591 c 0,0 -7.943,3.985 -17.434,10.414"
               style="fill:#006eb8;fill-opacity:1;fill-rule:nonzero;stroke:none"
               id="path2085" /></g><g
             id="g2087"
             transform="translate(482.3794,759.9971)"><path
               d="m 0,0 c -9.538,7.466 -21.382,17.251 -31.583,23.628 -12.263,7.664 -20.316,10.189 -44.993,8.507 -14.613,-0.996 -22.376,-2.694 -22.376,-2.694 0,0 1.444,-1.088 1.817,-1.34 8.985,1.395 16.074,1.778 20.98,1.863 22.059,0.384 29.589,-2.934 39.074,-8.533 7.724,-4.555 22.096,-15.727 33.849,-24.437 0.751,-0.558 10.384,-7.546 17.946,-12.48 10.002,-6.518 16.503,-9.478 16.503,-9.478 0,0 1.49,0.657 2.373,1.087 0.99,0.48 2.33,1.161 2.33,1.161 0,0 -4.556,1.695 -19.329,10.98 C 12.456,-9.138 0.716,-0.565 0,0"
               style="fill:#0053a1;fill-opacity:1;fill-rule:nonzero;stroke:none"
               id="path2089" /></g><g
             id="g2091"
             transform="translate(523.519,765.1548)"><path
               d="m 0,0 c 0,0 -4.134,-0.846 -8.05,-2.964 -3.827,-2.063 -8.792,-4.782 -15.495,-9.296 0.28,-0.179 0.918,-0.657 1.232,-0.846 6.998,4.661 10.991,7.141 14.675,9.168 4.965,2.726 9.096,3.817 9.096,3.817 z"
               style="fill:#00b6ed;fill-opacity:1;fill-rule:nonzero;stroke:none"
               id="path2093" /></g><g
             id="g2095"
             transform="translate(546.748,766.3184)"><path
               d="m 0,0 -1.72,0.486 c 0,0 -9.893,0.327 -19.689,-3.424 -6.196,-2.376 -15.133,-8.374 -21.636,-12.907 0.31,-0.231 1.359,-0.878 1.608,-1.015 8.282,5.718 14.414,9.727 21.859,12.987 C -11.436,-0.311 0,0 0,0"
               style="fill:#009fe3;fill-opacity:1;fill-rule:nonzero;stroke:none"
               id="path2097" /></g><g
             id="g2099"
             transform="translate(554.1709,764.0273)"><path
               d="m 0,0 c -0.308,0.107 -2.406,0.708 -2.406,0.708 0,0 -11.844,0.447 -21.252,-2.875 -6.183,-2.187 -17.669,-9.895 -23.13,-13.765 0.72,-0.41 1.991,-1.182 2.595,-1.512 4.71,3.308 17.179,11.991 23.095,14.066 C -14.303,-0.993 -6.53,-0.104 0,0"
               style="fill:#006eb8;fill-opacity:1;fill-rule:nonzero;stroke:none"
               id="path2101" /></g><g
             id="g2103"
             transform="translate(534.6646,759.5215)"><path
               d="m 0,0 c -5.478,-1.919 -14.76,-8.105 -22.693,-14.098 2.86,-1.659 3.945,-2.284 3.945,-2.284 0,0 7.74,6.353 19.144,12.875 8.164,4.675 26.987,5.663 26.987,5.663 L 24.991,2.961 C 17.699,2.971 7.105,2.493 0,0"
               style="fill:#0053a1;fill-opacity:1;fill-rule:nonzero;stroke:none"
               id="path2105" /></g><g
             id="g2107"
             transform="translate(283.8022,736.8047)"><path
               d="M 0,0 H -6.923 L -14.169,7.956 -15.751,0 h -5.798 l 3.546,17.908 h 5.795 l -1.349,-6.833 8.206,6.833 H 1.873 L -8.342,9.334 Z"
               style="fill:#0053a1;fill-opacity:1;fill-rule:nonzero;stroke:none"
               id="path2109" /></g><g
             id="g2111"
             transform="translate(294.5,750.8228)"><path
               d="m 0,0 -0.709,-3.554 h 3.801 c 1.706,0 3.158,0.661 3.158,2.02 C 6.25,-0.51 5.445,0 3.831,0 Z m -5.027,3.89 h 9.665 c 2.317,0 4.154,-0.461 5.474,-1.382 1.357,-0.896 2.03,-2.1 2.03,-3.552 0,-1.849 -0.837,-3.357 -2.543,-4.532 C 7.926,-6.753 5.765,-7.344 3.157,-7.344 h -4.609 l -1.32,-6.674 H -8.57 Z"
               style="fill:#0053a1;fill-opacity:1;fill-rule:nonzero;stroke:none"
               id="path2113" /></g><g
             id="g2115"
             transform="translate(314.1528,744.2759)"><path
               d="M 0,0 H 4.697 L 3.285,4.785 Z M 6.956,-7.471 5.795,-3.685 H -2.582 L -5.22,-7.471 h -6.249 L 1.576,10.538 h 5.572 l 5.893,-18.009 z"
               style="fill:#0053a1;fill-opacity:1;fill-rule:nonzero;stroke:none"
               id="path2117" /></g><g
             id="g2119"
             transform="translate(341.1108,740.6978)"><path
               d="m 0,0 c -1.902,0 -3.383,0.405 -4.51,1.25 -1.095,0.841 -1.644,1.944 -1.644,3.249 0,1.686 0.647,3.044 1.967,4.067 1.324,1.049 3.092,1.559 5.286,1.559 1.647,0 3.124,-0.203 4.438,-0.611 l 2.265,3.056 0.157,0.7 c -1.997,0.745 -4.285,1.105 -6.832,1.105 -3.899,0 -7.085,-0.949 -9.569,-2.82 -2.445,-1.865 -3.671,-4.323 -3.671,-7.339 0,-2.479 1.066,-4.528 3.187,-6.112 2.131,-1.561 4.9,-2.354 8.348,-2.354 0.496,0 0.996,0.023 1.493,0.069 L 4.942,0.838 C 3.503,0.28 1.847,0 0,0"
               style="fill:#0053a1;fill-opacity:1;fill-rule:nonzero;stroke:none"
               id="path2121" /></g><g
             id="g2123"
             transform="translate(356.6167,744.2568)"><path
               d="M 0,0 H 4.605 L 3.216,4.685 Z m 6.814,-7.313 -1.133,3.709 h -8.208 l -2.582,-3.709 h -6.119 L 1.549,10.321 h 5.455 l 5.772,-17.634 z"
               style="fill:#0053a1;fill-opacity:1;fill-rule:nonzero;stroke:none"
               id="path2125" /></g><g
             id="g2127"
             transform="translate(380.2407,750.8213)"><path
               d="m 0,0 -0.599,-3.056 h 4.071 c 1.483,0 2.493,0.622 2.493,1.727 C 5.965,-0.502 5.148,0 3.883,0 Z m 2.87,-10.122 c 1.742,0 3.066,0.781 3.066,2.079 0,1.001 -1.011,1.653 -2.56,1.653 h -4.635 l -0.758,-3.732 z M -4.952,3.655 H 5.207 c 3.784,0 6.373,-1.353 6.373,-3.882 0,-1.679 -1.104,-3.182 -3.095,-3.957 0.918,-0.173 1.768,-0.626 2.493,-1.325 0.73,-0.702 1.105,-1.605 1.105,-2.681 0,-1.73 -0.82,-3.107 -2.435,-4.135 C 8.047,-13.35 5.994,-13.877 3.5,-13.877 H -8.42 Z"
               style="fill:#0053a1;fill-opacity:1;fill-rule:nonzero;stroke:none"
               id="path2129" /></g><g
             id="g2131"
             transform="translate(394.2788,736.9438)"><path
               d="M 0,0 3.471,17.533 H 9.148 L 7.223,7.89 18.261,17.533 h 4.922 L 19.715,0 H 14.034 L 15.996,9.743 4.759,0 Z"
               style="fill:#0053a1;fill-opacity:1;fill-rule:nonzero;stroke:none"
               id="path2133" /></g><g
             id="g2135"
             transform="translate(427.6167,744.2568)"><path
               d="M 0,0 H 4.609 L 3.22,4.685 Z M 6.818,-7.313 5.681,-3.604 H -2.52 L -5.105,-7.313 H -11.23 L 1.549,10.321 H 7.001 L 12.78,-7.313 Z"
               style="fill:#0053a1;fill-opacity:1;fill-rule:nonzero;stroke:none"
               id="path2137" /></g><g
             id="g2139"
             transform="translate(74.2168,741.2109)" /><g
             id="g2143"
             transform="translate(77.6685,737.4648)" /><g
             id="g2147"
             transform="translate(84.9043,737.4648)" /><g
             id="g2151"
             transform="translate(98.2759,743.1909)" /><g
             id="g2155"
             transform="translate(106.6558,738.9585)" /><g
             id="g2159"
             transform="translate(109.7578,737.4648)" /><g
             id="g2163"
             transform="translate(122.5273,743.5488)" /><g
             id="g2167"
             transform="translate(125.8975,738.1904)" /><g
             id="g2171"
             transform="translate(135.8594,738.1333)" /><g
             id="g2175"
             transform="translate(142.5337,737.4648)" /><g
             id="g2179"
             transform="translate(158.814,737.4648)" /><g
             id="g2183"
             transform="translate(161.0034,737.4648)" /><g
             id="g2187"
             transform="translate(175.4336,743.5488)" /><g
             id="g2191"
             transform="translate(181.6016,743.7695)" /><g
             id="g2195"
             transform="translate(194.4131,743.1909)" /><g
             id="g2199"
             transform="translate(200.6499,743.5488)" /><g
             id="g2203"
             transform="translate(204.0264,738.1904)" /><g
             id="g2207"
             transform="translate(219.6528,743.1909)" /><g
             id="g2211"
             transform="translate(221.6562,737.4648)" /><g
             id="g2215"
             transform="translate(236.8115,743.1909)" /><g
             id="g2219"
             transform="translate(245.437,743.1909)" /><g
             id="g2223"
             transform="translate(116.3062,260.7129)" /><g
             id="g2227"
             transform="translate(119.8062,256.0195)" /><g
             id="g2231"
             transform="translate(123.209,258.3965)" /><g
             id="g2235"
             transform="translate(132.5737,256.0195)" /><g
             id="g2239"
             transform="translate(136.001,254.8975)" /><g
             id="g2243"
             transform="translate(144.9883,255.5078)" /><g
             id="g2247"
             transform="translate(152.2559,258.3965)" /><g
             id="g2251"
             transform="translate(155.0493,253.2402)" /><g
             id="g2255"
             transform="translate(161.1221,258.3965)" /><g
             id="g2261"
             transform="translate(176.5361,260.7988)" /><g
             id="g2265"
             transform="translate(185.7803,256.6045)" /><g
             id="g2269"
             transform="translate(191.646,258.3965)" /><g
             id="g2273"
             transform="translate(198.4751,254.8975)" /><g
             id="g2277"
             transform="translate(208.0962,256.0195)" /><g
             id="g2281"
             transform="translate(211.5234,258.3965)" /><g
             id="g2285"
             transform="translate(220.4985,258.3965)" /><g
             id="g2289"
             transform="translate(221.938,255.4346)" /><g
             id="g2293"
             transform="translate(229.0352,254.8975)" /><g
             id="g2297"
             transform="translate(429.3291,255.9102)" /><g
             id="g2301"
             transform="translate(433.1841,252.3623)" /><g
             id="g2305"
             transform="translate(441.0117,253.2158)" /><g
             id="g2309"
             transform="translate(446.2812,252.3623)" /><g
             id="g2313"
             transform="translate(455.2314,256.3486)" /><g
             id="g2317"
             transform="translate(460.5366,258.3965)" /><g
             id="g2321"
             transform="translate(462.0493,255.4346)" /><g
             id="g2325"
             transform="translate(469.1465,254.8975)" /><g
             id="g2329"
             transform="translate(475.6831,255.4346)" /><g
             id="g2333"
             transform="translate(482.7192,255.9219)" /><g
             id="g2337"
             transform="translate(115.9648,241.2764)" /><g
             id="g2341"
             transform="translate(119.8682,241.9219)" /><g
             id="g2345"
             transform="translate(132.4775,240.9346)" /><g
             id="g2349"
             transform="translate(136.3677,246.0791)" /><g
             id="g2353"
             transform="translate(142.9531,240.2637)" /><g
             id="g2357"
             transform="translate(151.9404,240.874)" /><g
             id="g2361"
             transform="translate(158.9155,238.082)" /><g
             id="g2365"
             transform="translate(164.2324,241.2764)" /><g
             id="g2369"
             transform="translate(168.6357,241.2881)" /><g
             id="g2373"
             transform="translate(174.7207,243.7627)" /><g
             id="g2377"
             transform="translate(183.5981,240.874)" /><g
             id="g2381"
             transform="translate(187.7446,243.1777)" /><g
             id="g2385"
             transform="translate(111.564,207.8096)" /><g
             id="g2389"
             transform="translate(118.7827,211.7354)" /><g
             id="g2393"
             transform="translate(124.0757,207.8096)" /><g
             id="g2397"
             transform="translate(132.6602,214.7344)" /><g
             id="g2401"
             transform="translate(143.1108,213.71)" /><g
             id="g2405"
             transform="translate(143.7334,207.6758)" /></g></g></g></g></svg>
