<?xml version="1.0" encoding="utf-8"?>
<svg version="1.1"
	id="Layer_1" xmlns="http://www.w3.org/2000/svg" xmlns:xlink="http://www.w3.org/1999/xlink" xmlns:a="http://ns.adobe.com/AdobeSVGViewerExtensions/3.0/"
	x="0px" y="0px" width="554.2px" height="67px" viewBox="0 0 554.2 67" style="enable-background:new 0 0 554.2 67;" xml:space="preserve">
<style type="text/css">
	.st0{fill:#163346;}
	.st1{fill:#0080A3;}
	.st2{fill:#E3151B;}
</style>
<g>
	<g>
		<g>
			<path class="st0" d="M139.7,20.9c3.5,0,6.9,0,10.6,0c0,1.1,0,1.8,0,2.5c0,8.2,0,16.4,0,24.6c0,3.4,1.3,4.7,4.8,4.7
				c5.2,0,10.4,0,15.6,0c0.1,0,0.2,0.1,0.5,0.2c0,3.3,0,6.7,0,10.4c-1.3,0-2.5,0-3.8,0c-5.3,0-10.7,0-16,0c-5.5,0-9.4-2.7-11.3-8
				c-0.1-0.3-0.3-0.5-0.4-0.8C139.7,43.3,139.7,32.1,139.7,20.9z"/>
			<path class="st0" d="M238.7,62.7c-3.7,0-7.2,0-10.8,0c0-13.8,0-27.5,0-41.4c3.4,0,6.7,0,10.3,0c0,1.7,0,3.3,0,4.9
				c3.5-4.3,7.8-6.4,13.2-6.3c5.4,0.1,9.5,2.5,12.3,7.4c2.4-3.7,5.5-6,9.6-7c10.1-2.3,18.8,3.9,19.2,14.2c0.4,9.2,0.1,18.3,0.2,27.5
				c0,0.2-0.1,0.4-0.2,0.7c-3.4,0-6.9,0-10.6,0c0-0.8,0-1.6,0-2.3c-0.1-7.9-0.1-15.8-0.3-23.7c-0.1-4.1-2.5-7-5.6-7.5
				c-4-0.7-7.5,1.1-9.1,5c-0.7,1.8-1.1,3.9-1.2,5.9c-0.1,6.7-0.1,13.5-0.1,20.3c0,0.7,0,1.5,0,2.3c-3.7,0-7.2,0-10.9,0
				c0-0.7,0-1.4,0-2.1c0-7.4,0-14.8,0-22.2c0-1.1-0.1-2.3-0.3-3.4c-0.6-2.9-2-5.2-5.1-5.8c-3.3-0.6-6.2,0.2-8.3,3
				c-1.7,2.3-2.3,4.9-2.3,7.7c0,6.8,0,13.6,0,20.4C238.7,61.1,238.7,61.8,238.7,62.7z"/>
			<path class="st0" d="M317.4,20.8c3.3,0,6.4-0.1,9.6,0.1c0.4,0,1.1,0.9,1.2,1.5c2.3,8.3,4.5,16.6,6.7,24.8c0.1,0.5,0.3,1,0.6,2
				c0.9-3.4,1.7-6.3,2.5-9.3c1.1-4.2,2.2-8.3,3.4-12.5c1.2-4.5,4-6.6,8.6-6.6c3.9,0,4,0,5,3.7c2,7.3,4,14.6,5.9,21.9
				c0.2,0.6,0.3,1.2,0.7,2.4c0.9-3.4,1.7-6.2,2.5-9.1c1.5-5.8,3.1-11.5,4.6-17.3c0.3-1.2,0.8-1.7,2-1.6c2.9,0.1,5.8,0,9.1,0
				c-4.2,14-8.4,27.8-12.6,41.6c-3.9,0-7.7,0-11.6,0c-2.5-7.6-4.9-15.3-7.5-23.4c-0.3,0.8-0.5,1.3-0.7,1.8
				c-2.2,6.8-4.5,13.5-6.7,20.3c-0.4,1.1-0.9,1.5-2,1.4c-2.7-0.1-5.4,0-8-0.1c-0.5,0-1.4-0.6-1.6-1.1c-4-13.1-7.9-26.3-11.8-39.4
				C317.4,21.6,317.5,21.3,317.4,20.8z"/>
			<path class="st0" d="M206.6,21.2c3.6,0,7,0,10.5,0c0,13.8,0,27.6,0,41.5c-3.4,0-6.8,0-10.4,0c0-1.8,0-3.6,0-5.5
				c-1.6,1.4-2.9,3-4.5,4c-9.5,6-22.2,0.3-24.2-10.7c-0.3-1.6-0.4-3.2-0.4-4.7c0-8.1,0-16.2,0-24.4c3.5,0,7,0,10.6,0
				c0,0.8,0,1.5,0,2.2c0,7.1-0.1,14.3,0,21.4c0.1,6.8,5.3,10.7,11.9,9c4.1-1,6.5-4.4,6.5-9.4c0-7,0-14,0-21
				C206.6,22.7,206.6,22,206.6,21.2z"/>
			<path class="st0" d="M444.7,62.4c-3.7,0-7,0-10.6,0c0-0.8,0-1.5,0-2.1c0-7.1,0-14.3,0-21.4c0-4.9-2.7-8.4-6.7-9.2
				c-6.7-1.4-11.7,2.6-11.7,9.4c-0.1,7,0,14,0,21c0,0.7,0,1.4,0,2.2c-3.5,0-7,0-10.5,0c0-13.7,0-27.5,0-41.4c3.4,0,6.9,0,10.5,0
				c0,1.8,0,3.5,0,5.4c0.4-0.3,0.6-0.4,0.7-0.5c4.5-5.8,10.6-6.7,17.2-4.9c6.4,1.7,9.8,6.5,10.8,12.9c0.2,1.4,0.3,2.8,0.3,4.2
				C444.7,46.1,444.7,54.2,444.7,62.4z"/>
			<path class="st0" d="M481.1,47.5c-3.1,0-6,0-9,0c-0.5-3.8,2.6-7.5,6.8-7.8c3.6-0.3,7.3-0.1,10.9-0.1c0.7,0,1.4,0,2.1,0
				c0.9,10.9-3.7,20.2-14.1,22.9c-12.2,3.2-23.9-4-26.3-15.9c-1.8-8.8,1.5-17.3,8.8-22.3c7-4.7,17.1-4.8,24.2-0.1
				c3.7,2.4,5.7,6,7.1,10.4c-3.7,0-7.2,0-10.7,0c-0.4,0-1-0.4-1.2-0.7c-3-5.3-11.4-4.4-14.9-0.8c-4.5,4.6-4.4,13.9,0.3,18.2
				c5,4.6,13.6,3.1,15.9-2.9C481,48.2,481,48,481.1,47.5z"/>
			<path class="st0" d="M530.6,34.5c-3.3,0-6.5,0-9.7,0c-0.4,0-1.1-0.6-1.2-1c-1.4-4.4-8.3-5.9-11.5-2.6c-1.8,1.9-1.6,4.6,0.8,5.8
				c2,1,4.3,1.6,6.5,2.2c2.6,0.7,5.4,1.1,7.9,2c3.9,1.4,6.9,3.9,7.6,8.3c0.6,4.6-0.8,8.4-4.6,11.2c-6.4,4.7-17.9,4.9-24.3,0.2
				c-3.4-2.5-5.1-5.8-5.3-10.1c3.6,0,7.1,0,10.6,0c1.4,4.6,4.5,5.8,9.4,4.8c2.3-0.4,3.9-2.1,4.1-4c0.2-1.8-0.8-3.3-3.3-4.1
				c-3.6-1.2-7.4-2-11-3c-1.1-0.3-2.2-0.6-3.3-1.1c-8.8-3.8-7.6-13.4-2.9-17.8c2.5-2.3,5.5-3.7,8.8-4.2c4.6-0.7,9.1-0.5,13.5,1.4
				C527.7,24.7,530.9,29.5,530.6,34.5z"/>
			<path class="st0" d="M395.9,21c0,13.8,0,27.5,0,41.4c-3.5,0-6.9,0-10.6,0c0-0.7,0-1.4,0-2.2c0-10,0-20.1,0-30.1
				C385.3,23.6,389.2,20.2,395.9,21z"/>
			<path class="st0" d="M311.2,62.4c-3.5,0-6.9,0-10.5,0c0-0.7,0-1.4,0-2.1c0-10,0.2-20-0.1-30c-0.2-5.8,3.9-10.5,10.6-9.4
				C311.2,34.7,311.2,48.5,311.2,62.4z"/>
		</g>
	</g>
	<g>
		<path class="st1" d="M106.2,21.1L95.3,64l-47.2-0.1l25.8-30.8c0,0,8.5-11.5,21.1-12.1C107.6,20.3,106.2,21.1,106.2,21.1z"/>
		<circle class="st2" cx="43.4" cy="21.9" r="20.4"/>
	</g>
</g>
</svg>
