<?xml version="1.0" encoding="utf-8"?>
<!-- Generator: Adobe Illustrator 21.1.0, SVG Export Plug-In . SVG Version: 6.00 Build 0)  -->
<svg version="1.1" id="Layer_1" xmlns="http://www.w3.org/2000/svg" xmlns:xlink="http://www.w3.org/1999/xlink" xmlns:a="http://ns.adobe.com/AdobeSVGViewerExtensions/3.0/"
	x="0px" y="0px" width="582.1px" height="232px"
	 viewBox="0 0 582.1 232" style="enable-background:new 0 0 582.1 232;" xml:space="preserve">
<style type="text/css">
	.st0{display:none;}
	.st1{display:inline;}
	.st2{fill:none;}
	.st3{display:inline;fill:none;}
</style>
<g id="Layer_1_1_">
	<path d="M136.8,105.8c-12.7-7.5-17.9-8.4-27.8-14.2c-0.8-0.5-1.4-1.7-1.5-2.6c-1-9.4-2.1-18.7-3-28.1c-0.3-3.1-2.7-6.6-6.2-6.6
		s-5.9,3.5-6.2,6.6c-0.9,9.4-2,18.7-3,28.1c-0.1,0.9-0.7,2.1-1.5,2.6c-9.9,5.8-15.1,6.7-27.8,14.2c-4.5,2.7-6.1,6.9-4.9,11.9
		l16.5-1.4v3.3c0,2.3,1.7,4.2,4,4.3c2.3,0.1,4.2-1.8,4.2-4.1v-4.2l7.7-0.7c1.8-0.2,3.4,1.2,3.6,3c0.4,5,1,14.1,1.2,17.8
		c0,0.8-0.4,1.8-0.9,2.4c-2,2.5-4.2,5.2-6.3,7.6c-1.2,1.4-1.5,2.8-1.1,4.6c4.4-1.5,8.6-2.6,12.9-3.9c0.5-0.2,1.1-0.2,1.7-0.2
		s1.2,0.1,1.7,0.2c4.3,1.3,8.6,2.4,12.9,3.9c0.4-1.9,0.1-3.2-1.1-4.6c-2.1-2.4-4.3-5.1-6.3-7.6c-0.5-0.6-1-1.6-0.9-2.4
		c0.2-3.6,0.8-12.8,1.2-17.8c0.1-1.8,1.7-3.2,3.6-3l7.7,0.7v4.2c0,2.3,1.9,4.2,4.2,4.1c2.3-0.1,4-2,4-4.3v-3.3l16.5,1.4
		C142.9,112.6,141.3,108.4,136.8,105.8z"/>
	<path d="M104.3,171.1v6.6c15.1,0,27.4-12.3,27.4-27.4h-6.6C125.2,161.7,115.8,171.1,104.3,171.1z"/>
	<path d="M422.6,140.5L422.6,140.5v-27.9c0-10.9-6-16.7-14.3-16.7c-6.5,0-12.9,3.5-18.9,11.5H389V96.8l-25.9,4.6v0.6l7.2,12.7v35.6
		h24.4v-0.6l-5.3-9.1v-28.3c2.5-2.1,5.7-3.3,8.3-3.3c3.1,0,5.8,1.7,5.8,7.2v34.2H430v-0.6L422.6,140.5L422.6,140.5z"/>
	<circle cx="342.5" cy="83.5" r="11"/>
	<circle cx="182.4" cy="84" r="10.4"/>
	<path d="M227.2,95.9c-17.1,0-26.3,13.2-26.3,28.2c0,14.3,8.8,27.4,25.6,27.4c9.8,0,19.1-5,23.3-21l-1.1-0.6
		c-3.3,5.2-8.8,8.1-14.7,8.1c-7.2,0-14.1-3.3-15.5-16h31.9C250.4,106,241.2,95.9,227.2,95.9z M218.2,117.7v-2.1
		c0-10.7,3-15.1,7-15.1c4.5,0,7.7,7,8.3,17.2H218.2z"/>
	<path d="M456.1,95.9c-17.1,0-26.3,13.2-26.3,28.2c0,14.3,8.8,27.4,25.6,27.4c9.8,0,19.1-5,23.3-21l-1.1-0.6
		c-3.3,5.2-8.8,8.1-14.7,8.1c-7.2,0-14.1-3.3-15.5-16h31.9C479.3,106,470.1,95.9,456.1,95.9z M447,117.7v-2.1c0-10.7,3-15.1,7-15.1
		c4.5,0,7.7,7,8.3,17.2H447z"/>
	<path d="M281,138.6c-3.1,0-5.1-2.1-5.1-6.6v-28.5h11.4v-6.8h-11.4v-9.5h-1.1l-18.1,3.2v45.1c0,10.8,6.9,16,15.5,16
		s15.6-5.1,19-18.7l-1.1-0.6C287.4,136.4,284.2,138.6,281,138.6z"/>
	<polygon points="354.2,96.7 327.8,101.4 327.8,101.9 335.1,114.4 335.1,140.5 335.1,150.3 361.6,150.3 361.6,149.6 354.2,140.5
		"/>
	<path d="M515.5,116.3l-6.3-2.3c-7.5-2.8-9.4-5.1-9.4-8c0-3.1,2.2-4.9,5.5-4.9c6,0,11.9,5.9,17.5,15.7h1.1V97.2h-16.6
		c-14.1,0-21.6,6.8-21.6,16.9c0,9.4,5.9,14.7,13.6,17.6l6.3,2.3c7.1,2.7,9.1,5.1,9.1,8.2c0,3.6-2.8,5.3-6.7,5.3
		c-6.4,0-12.5-4.8-20.8-19.5h-1.1v23.6l9.3-1.6c3,1,6.5,1.6,10.5,1.6c11.6,0,21.9-5.4,21.9-17.7
		C527.8,125.2,523.1,119.2,515.5,116.3z"/>
	<path d="M166.6,102.1l7.8,12.4v42.4c0,5.2-0.4,10.1-1.8,14.3c-0.8,2.5-2.6,5.4-2.8,5.7l0.5,0.6c13.1-2,23.2-13.4,23.2-27.1V96.7
		l-26.9,4.7V102.1z"/>
	<polygon points="318.7,79.5 292.4,84.1 292.4,84.8 299.6,97.2 299.6,140.5 299.6,150.3 326.1,150.3 326.1,149.6 318.7,140.5 	"/>
</g>
<g id="guides" class="st0">
	<g class="st1">
		<path class="st2" d="M520.3,222.2L520.3,222.2v-27.9c0-10.9-6-16.7-14.3-16.7c-6.5,0-12.9,3.5-18.9,11.5h-0.4v-10.6l-25.9,4.6v0.6
			l7.2,12.7V232h24.4v-0.6l-5.3-9.1V194c2.5-2.1,5.7-3.3,8.3-3.3c3.1,0,5.8,1.7,5.8,7.2v34.2h26.5v-0.6L520.3,222.2L520.3,222.2z"/>
		<path class="st2" d="M572.3,98.5L572.3,98.5h-27.9c-10.9,0-16.7,6-16.7,14.3c0,6.5,3.5,12.9,11.5,18.9v0.4h-10.6l4.6,25.9h0.6
			l12.7-7.2h35.6v-24.4h-0.6l-9.1,5.3H544c-2.1-2.5-3.3-5.7-3.3-8.3c0-3.1,1.7-5.8,7.2-5.8h34.2V91h-0.6L572.3,98.5L572.3,98.5z"/>
		<path class="st2" d="M136.4,44.6L136.4,44.6V16.7c0-10.9-6-16.7-14.3-16.7c-6.5,0-12.9,3.5-18.9,11.5h-0.4V0.8L76.9,5.4V6
			l7.2,12.7v35.6h24.4v-0.6l-5.3-9.1V16.2c2.5-2.1,5.7-3.3,8.3-3.3c3.1,0,5.8,1.7,5.8,7.2v34.2h26.5v-0.6L136.4,44.6L136.4,44.6z"/>
		<path class="st2" d="M44.6,114.9L44.6,114.9H16.7C5.8,114.9,0,121,0,129.3c0,6.5,3.5,12.9,11.5,18.9v0.4H0.9l4.6,25.9H6l12.7-7.2
			h35.6v-24.4h-0.6l-9.1,5.3H16.3c-2.1-2.5-3.3-5.7-3.3-8.3c0-3.1,1.7-5.8,7.2-5.8h34.2v-26.5h-0.6L44.6,114.9L44.6,114.9z"/>
	</g>
	<line class="st3" x1="-7912.8" y1="177.7" x2="8470.2" y2="177.7"/>
</g>
</svg>
