<?xml version="1.0" encoding="utf-8"?>
<svg version="1.1"
	id="Layer_1" data-name="Layer 1" xmlns="http://www.w3.org/2000/svg" xmlns:xlink="http://www.w3.org/1999/xlink" xmlns:a="http://ns.adobe.com/AdobeSVGViewerExtensions/3.0/"
	x="0px" y="0px" width="225.99px" height="53.3px" viewBox="0 0 225.99 53.3" style="enable-background:new 0 0 225.99 53.3;" xml:space="preserve">
  <defs>
  <style type="text/css">
    .cls-1{fill:#153e69}
    .cls-2{fill:#9e202d}
  </style>
</defs>
<g id="IRWs97">
  <path class="cls-1" d="M68 26.9a9 9 0 0 0 .3-1.6c.9-3.7 3.4-5.9 6.9-7a18.86 18.86 0 0 1 7.1-.6 29 29 0 0 1 7.1 1.5.53.53 0 0 1 .4.7l-.9 6c-.9-.2-1.8-.5-2.7-.7a19.57 19.57 0 0 0-7.2-.6 6.15 6.15 0 0 0-2.3.7 2.75 2.75 0 0 0-.3 4.5 11.43 11.43 0 0 0 2.9 1.5 50.51 50.51 0 0 1 6.1 2.3 10.06 10.06 0 0 1 4.3 3.6 8.71 8.71 0 0 1 1.4 4.9 10.24 10.24 0 0 1-8.3 10.6 12.59 12.59 0 0 1-2.7.4c-.1 0-.1 0-.2.1h-3.2a8.75 8.75 0 0 0-1.6-.2 21.21 21.21 0 0 1-6.9-2.1c-.2-.4-.3-.5-.2-.9.3-2 .6-4.1.9-6.1.2 0 .4.2.6.3a19.92 19.92 0 0 0 9.6 2.2 6.6 6.6 0 0 0 2.7-.6 3.11 3.11 0 0 0 1.5-4.4 5.39 5.39 0 0 0-1.6-1.4 33.83 33.83 0 0 0-4.4-1.8 26.49 26.49 0 0 1-5.4-2.5 10.7 10.7 0 0 1-2.6-2.6 13.27 13.27 0 0 1-.9-2.1 10.48 10.48 0 0 1-.4-3.5q.15-.45 0-.6z" transform="translate(-.01 .1)"/>
  <path class="cls-2" d="M31.6-.1c0 .1.1.1.2.1a3 3 0 0 1 2.1 3.5c-.3 2.1-.5 4.1-.7 6.2-.3 2.3-.5 4.5-.8 6.8-.2 1.9-.4 3.9-.6 5.8-.3 2.1-.6 4.3-.9 6.4a39.08 39.08 0 0 1-1.4 6.8 21.31 21.31 0 0 1-4.1 7.9 11.61 11.61 0 0 1-9.9 4.1A18.37 18.37 0 0 1 5.4 44a13.32 13.32 0 0 1-5.3-8.5 3.36 3.36 0 0 1 .2-2.2 2.85 2.85 0 0 1 3.3-1.2A2.08 2.08 0 0 1 5 33.7c.2.6.3 1.2.5 1.8a9.06 9.06 0 0 0 5.6 5.7 10.81 10.81 0 0 0 5.6.8 7.52 7.52 0 0 0 5.7-3.7 17.06 17.06 0 0 0 2.4-6.5c.6-3.7 1-7.4 1.4-11.1.2-2.3.5-4.6.8-7 .3-2.6.5-5.3.7-7.9.1-1 .2-2.1.3-3.1A3 3 0 0 1 30.4 0a.1.1 0 0 0 .1-.1z" transform="translate(-.01 .1)"/>
  <path class="cls-1" d="M226 18.3c-.4 1.7-.9 3.5-1.3 5.2-.1.4-.2.8-.3 1.3 0 .3-.2.3-.4.3h-7.8c-.4 0-.5.1-.5.4v26.2c0 .5 0 .5-.5.5h-6.8c-.3 0-.4-.1-.4-.4V25.5c0-.4-.1-.5-.5-.5h-7.7c-.3 0-.4-.1-.5-.4-.5-2.1-1-4.1-1.5-6.2-.1-.4 0-.4.3-.4h21.4c2.2.2 4.3.2 6.5.3zM124.2 31.2c-.2.1-.2.2-.3.3-2.5 6.8-5.4 13.6-8 20.4-.1.3-.2.4-.6.4h-4.4c-.2 0-.3-.1-.4-.3-2.4-6.1-4.8-12.2-7.2-18.2-.3-.8-.6-1.7-1-2.6a2 2 0 0 0-.1.7c.1 6.7 0 13.3 0 20 0 .3-.1.3-.3.3h-6.1c-.3 0-.3-.1-.3-.3V18.5c0-.3.1-.4.4-.4h7.7c.3 0 .4.1.5.4 3 7.6 6.1 15.1 8.9 22.7 0 .1 0 .3.2.3s.1-.2.1-.3c2.6-6.9 5.5-13.8 8.2-20.7a18 18 0 0 0 .8-2.1c.1-.2.2-.3.4-.3h7.8c.3 0 .4.1.4.4v33.4a.27.27 0 0 1-.3.3h-6.4c-.3 0-.3-.1-.3-.3V33.2a9.7 9.7 0 0 1 .1-1.7c.2 0 .2-.1.2-.3zm66.2 6.9c2.6 4.7 5.3 9.5 7.9 14.2-.1.1-.3 0-.4 0h-8.2a.46.46 0 0 1-.5-.3c-1.9-4-3.8-8.1-5.7-12.1a.46.46 0 0 0-.5-.3h-4.1c-.3 0-.4.1-.4.4v11.9c0 .3-.1.4-.4.4h-6.9c-.3 0-.4-.1-.4-.4V18.6c0-.4.1-.5.4-.5h13.2a15.07 15.07 0 0 1 5.9 1.1 8.61 8.61 0 0 1 5.4 6.3 13.47 13.47 0 0 1-.2 6.9 7.12 7.12 0 0 1-5.1 5.7zm-11.8-8.9v4.3c0 .3.1.3.3.3h2.4a20.48 20.48 0 0 0 3.5-.1 3.23 3.23 0 0 0 3.1-2.6 8.56 8.56 0 0 0 0-3.9 2.87 2.87 0 0 0-2.3-2.4 9.85 9.85 0 0 0-1.7-.2H179c-.3 0-.4.1-.4.3v4.3zm-11.2 23.1h-8.2c-.3 0-.4-.1-.5-.4-.6-2-1.1-4-1.7-5.9-.1-.3-.2-.4-.5-.4h-11.6c-.3 0-.4.1-.5.4-.6 2-1.1 4-1.7 6-.1.2-.1.3-.3.3h-7.9c.3-.8.5-1.6.8-2.4l9.3-27 1.5-4.5c.1-.2.2-.3.4-.3h8.6c.2 0 .3 0 .4.2 1.6 4.7 3.3 9.4 4.9 14.1 2.3 6.5 4.5 12.9 6.8 19.4.2.3.2.4.2.5zM151 24h-.1c-1.3 5.1-2.9 10.1-4.3 15.3h7.5c.4 0 .9.1 1.1-.1s-.1-.7-.2-1.1c-1.1-3.9-2.2-7.8-3.2-11.7a11.28 11.28 0 0 1-.8-2.4z" transform="translate(-.01 .1)"/>
  <path class="cls-2" d="M68 26.9a1.09 1.09 0 0 1 .1.5 10.48 10.48 0 0 0 .4 3.5 13.27 13.27 0 0 0 .9 2.1 15 15 0 0 1-5.2 5.7 8.76 8.76 0 0 1-6.1 1.3 6.38 6.38 0 0 1-4.8-3.6c-.3-.6-.5-1.2-.8-1.8-.6.6-1.2 1.1-1.8 1.6a14.36 14.36 0 0 1-6.1 3.2 7.72 7.72 0 0 1-9.2-5 13.43 13.43 0 0 1-.7-2.7c0-.2-.1-.3-.3-.4a2.12 2.12 0 0 1 .2-3.7.55.55 0 0 0 .4-.6 12.56 12.56 0 0 1 3.4-6.3 7 7 0 0 1 5.1-2.2 4.07 4.07 0 0 1 4.2 3.7 8.18 8.18 0 0 1-2.6 6.9 9.94 9.94 0 0 1-5.7 3c-.2 0-.2.1-.2.3.6 1.6 1.6 2.8 3.5 2.9a7.24 7.24 0 0 0 5.7-2.2 17.86 17.86 0 0 0 3.1-3.6c.1-.1.1-.2.1-.4a38.23 38.23 0 0 1 .8-7.5c.3-2 .7-4 1.1-6 .1-.3 0-.4-.3-.4-2.4 0-4.8-.1-7.2-.1h-1.2a2 2 0 0 1 0-4c2.4 0 4.9-.1 7.3-.1h2a.27.27 0 0 0 .3-.3l1.2-5.1a2.39 2.39 0 0 1 2.5-1.8 2.34 2.34 0 0 1 2.1 2.1 13.33 13.33 0 0 1-.3 2.8l-.3 1.8c-.1.3 0 .5.4.4 3 0 6-.1 9-.1a4.06 4.06 0 0 1 1.9.4 1.9 1.9 0 0 1 1 1.8 2 2 0 0 1-1.2 1.7 5.34 5.34 0 0 1-2.5.5h-8.8c-.4 0-.5.1-.6.5-.7 3.8-1.5 7.5-2.1 11.4a14.89 14.89 0 0 0 .6 6.6 1.42 1.42 0 0 1 .2.6 2.23 2.23 0 0 0 2.9 1.4 6 6 0 0 0 3.2-2 20.64 20.64 0 0 0 3.5-5.2c.4-.6.6-1.1.9-1.6zm-28.3 1a4.73 4.73 0 0 0 4-3.3 2.34 2.34 0 0 0-.3-1.8.63.63 0 0 0-.8-.3 3.38 3.38 0 0 0-1.2.6 7 7 0 0 0-2.3 4.3c-.1.5-.1.6.6.5z" transform="translate(-.01 .1)"/>
</g>
</svg>
