<?xml version="1.0" encoding="utf-8"?>
<svg version="1.1"
	id="Layer_1" data-name="Layer 1" xmlns="http://www.w3.org/2000/svg" xmlns:xlink="http://www.w3.org/1999/xlink" xmlns:a="http://ns.adobe.com/AdobeSVGViewerExtensions/3.0/"
	x="0px" y="0px" width="238.38px" height="78.1px" viewBox="0 0 238.38 78.1" style="enable-background:new 0 0 238.38 78.1;" xml:space="preserve">
  <g data-name="Layer 2">
    <g data-name="Layer 1">
    <path d="M113.81 22.74a8.24 8.24 0 0 1-4 5.19 37.45 37.45 0 0 0-5.58 3.78 37.47 37.47 0 0 1-5.4 3.41c-.85.47-1.66 1-2.53 1.44-3.57 1.66-3.9 5.54-2.59 8.44a31.15 31.15 0 0 0 3.25 5.51 76.27 76.27 0 0 0 8.47 10 .86.86 0 0 1-.06.84 4.69 4.69 0 0 1-2.26-.72c-3.2-2-5.5-4.84-7.88-7.62a13 13 0 0 1-1.86-2.72c-1.18-2.47-3.47-3.75-5.69-5a18.37 18.37 0 0 1-5.9-5.46c-2.25-3.15-4.39-6.37-6.57-9.57a5.76 5.76 0 0 0-3.27-2.52 4.52 4.52 0 0 1-3.4-3.14c-.26-1-1.28-1.6-1.53-2.78a29.8 29.8 0 0 1 4.44.8 5.33 5.33 0 0 1 3.47 2.87 16.54 16.54 0 0 0 1.74 2.78c1.58 2 3.9 2.89 6.09 3.89.81.37 1.47 1.08 2.65 1.1.31-3.24.82-6.49 2.85-9.25a29.43 29.43 0 0 1 7.34-7.3l-1 9c-2 2.26-2.76 5.35-3.88 8.47a2.33 2.33 0 0 0 2.12-.77c1.5-1.41 3-2.78 4.54-4.19a31.78 31.78 0 0 1 7-4.88 7.68 7.68 0 0 1 4.65-1 6.84 6.84 0 0 0 3-.36 3.06 3.06 0 0 1 1.79-.24z" fill="#1e3c5e"/>
    <path d="M52.89 32.22a37.28 37.28 0 0 1 73.29 0H128a39 39 0 0 0-76.88 0zM125.19 50a37.28 37.28 0 0 1-71.3 0h-1.84a39 39 0 0 0 75 0z" fill="#f1673a"/>
    <path d="M0 34.34h2.76l6.37 8.37v-8.37h2.95v13.6H9.54L3 39.29v8.65H0zM14.74 41.18a7 7 0 0 1 7.24-7 7 7 0 0 1 7.21 7 7 7 0 0 1-7.24 7 7 7 0 0 1-7.21-7zm11.32 0A4.13 4.13 0 0 0 22 36.87a4.06 4.06 0 0 0-4.08 4.23A4.13 4.13 0 0 0 22 45.41a4.06 4.06 0 0 0 4.06-4.23zM31.85 34.34h6.21a5.46 5.46 0 0 1 4 1.38 4.31 4.31 0 0 1 1.16 3.11 4.22 4.22 0 0 1-2.91 4.21l3.32 4.86H40.1l-2.91-4.35h-2.35v4.35h-3zm6 6.61c1.46 0 2.29-.78 2.29-1.93 0-1.28-.89-1.94-2.35-1.94h-3V41zM49.05 37.1h-4.13v-2.76h11.26v2.76h-4.13v10.84h-3zM58.47 34.34h3v5.38H67v-5.38h3v13.6h-3v-5.46h-5.53v5.46h-3zM113 34.34h3.21l2.79 9.21 3-9.25h2.56l3.05 9.25 2.82-9.21h3.12L129 48h-2.6l-3.07-8.89-3.12 8.89h-2.6zM135.8 34.34h6.2a5.42 5.42 0 0 1 4 1.38 4.27 4.27 0 0 1 1.17 3.11 4.22 4.22 0 0 1-2.92 4.21l3.32 4.86h-3.49l-2.92-4.35h-2.35v4.35h-3zm6 6.61c1.46 0 2.3-.78 2.3-1.93 0-1.28-.9-1.94-2.35-1.94h-3V41zM150 34.34h3v13.6h-3zM155.77 41.18a7 7 0 0 1 7.13-7 7.49 7.49 0 0 1 5.34 1.82l-1.89 2.28a5 5 0 0 0-3.55-1.38 4.08 4.08 0 0 0-3.91 4.23 4.08 4.08 0 0 0 4.11 4.32 4.74 4.74 0 0 0 2.82-.82v-1.94h-3v-2.58h5.9V46a8.8 8.8 0 0 1-5.81 2.16 6.8 6.8 0 0 1-7.14-6.98zM171.59 34.34h3v5.38h5.51v-5.38h3v13.6h-3v-5.46h-5.51v5.46h-3zM189.52 37.1h-4.14v-2.76h11.27v2.76h-4.14v10.84h-3zM209.43 34.24h2.75l5.82 13.7h-3.13l-1.24-3h-5.75l-1.24 3h-3.04zm3.14 8l-1.8-4.41-1.77 4.42zM220.24 34.34h3v13.6h-3zM226.63 34.34h6.22a5.42 5.42 0 0 1 4 1.38 4.27 4.27 0 0 1 1.15 3.11 4.22 4.22 0 0 1-2.91 4.21l3.32 4.86h-3.49L232 43.59h-2.35v4.35h-3zm6 6.61c1.46 0 2.29-.78 2.29-1.93 0-1.28-.89-1.94-2.35-1.94h-3V41z" fill="#1e3c5e"/>
  </g>
</g>
</svg>
