<?xml version="1.0" encoding="utf-8"?>
<svg version="1.1"
	xmlns="http://www.w3.org/2000/svg" xmlns:xlink="http://www.w3.org/1999/xlink" xmlns:a="http://ns.adobe.com/AdobeSVGViewerExtensions/3.0/"
	x="0px" y="0px" width="330px" height="167px" viewBox="0 0 330 167" style="enable-background:new 0 0 330 167;" xml:space="preserve">
<path d="M242.045 35.7507L194.678 129.136C187.599 143.071 180.292 152.708 172.767 158.047C165.237 163.385 155.011 166.054 142.09 166.054C137.929 166.054 133.663 165.662 129.279 164.876C124.896 164.091 120.964 163.077 117.483 161.841L124.228 138.412C127.035 139.532 129.821 140.349 132.57 140.853C135.324 141.357 138.157 141.612 141.081 141.612C145.013 141.612 148.33 141.219 151.026 140.434C153.722 139.649 156.025 138.354 157.935 136.56C158.381 136.109 158.864 135.605 159.368 135.043C159.872 134.48 160.519 133.636 161.305 132.517L141.076 35.7507H169.732L181.024 102.502L212.885 35.7507H242.045Z" fill="#033C4F"/>
<path d="M328.855 68.1102C329.301 65.0748 329.529 61.9863 329.529 58.8395C329.529 51.0866 327.391 44.9628 323.124 40.4681C318.852 35.9734 313.286 33.7234 306.435 33.7234C286.832 33.7234 279.658 45.5571 279.658 45.5571H279.154L280.815 35.7452H253.003L237.661 132.67H265.643L273.905 80.9203C275.365 71.3737 277.641 64.2629 280.73 59.5984C283.818 54.9339 287.782 52.6043 292.617 52.6043C296.098 52.6043 298.709 53.6178 300.454 55.6396C302.195 57.6615 303.065 60.8083 303.065 65.0801C303.065 67.553 302.811 70.1373 302.306 72.833C302.195 73.4221 302.073 74.0005 301.946 74.5789H327.497C328.096 72.2971 328.553 70.1426 328.855 68.1102Z" fill="#033C4F"/>
<path d="M75.2263 54.0847C54.2441 54.0847 34.9811 62.3895 20.9823 77.4709C7.45047 92.0481 0 111.651 0 132.67H27.6208C27.6208 118.639 32.4499 105.713 41.227 96.2616C49.9404 86.8742 62.0182 81.7056 75.2263 81.7056C77.7947 81.7056 80.3472 81.9019 82.8625 82.2787L87.1662 54.9921C83.2287 54.3925 79.2328 54.0847 75.2263 54.0847Z" fill="#033C4F"/>
<path d="M77.9699 0C56.2659 0 36.3184 8.58608 21.7995 24.1769C7.74233 39.2688 0 59.5666 0 81.3289H27.6208C27.6208 66.5766 32.7311 52.9652 42.0123 42.9994C51.2458 33.0813 64.0188 27.6209 77.9699 27.6209C82.4752 27.6209 86.9168 28.1727 91.2257 29.2659L95.54 1.90507C89.793 0.642098 83.9132 0 77.9699 0Z" fill="#033C4F"/>
<path d="M107.639 2.08569L86.9645 132.67H114.946L135.621 2.08569H107.639Z" fill="#033C4F"/>
</svg>
