<?xml version="1.0" encoding="UTF-8" standalone="no"?>
<svg
   xmlns:dc="http://purl.org/dc/elements/1.1/"
   xmlns:cc="http://creativecommons.org/ns#"
   xmlns:rdf="http://www.w3.org/1999/02/22-rdf-syntax-ns#"
   xmlns:svg="http://www.w3.org/2000/svg"
   xmlns="http://www.w3.org/2000/svg"
   width="500"
   height="500"
   viewBox="0 0 132.29166 132.29167"
   version="1.1"
   id="svg8">
  <defs
     id="defs2">
    <clipPath
       clipPathUnits="userSpaceOnUse"
       id="clipPath3626">
      <path
         d="M 0,0 H 595.276 V 841.89 H 0 Z"
         id="path3624" />
    </clipPath>
  </defs>
  <metadata
     id="metadata5">
    <rdf:RDF>
      <cc:Work
         rdf:about="">
        <dc:format>image/svg+xml</dc:format>
        <dc:type
           rdf:resource="http://purl.org/dc/dcmitype/StillImage" />
        <dc:title></dc:title>
      </cc:Work>
    </rdf:RDF>
  </metadata>
  <g
     id="layer1">
    <g
       id="g979"
       transform="matrix(0.35277777,0,0,-0.35277777,19.628534,210.81434)">
      <g
         id="g3620"
         transform="translate(-188.13162,-211.83706)">
        <g
           id="g3622"
           clip-path="url(#clipPath3626)">
          <g
             id="g3632"
             transform="matrix(5.3216349,0,0,5.3216349,319.86146,444.44985)">
            <path
               d="M 0,0 C 18.372,0 33.265,14.893 33.265,33.265 33.265,51.636 18.372,66.529 0,66.529 -18.372,66.529 -33.265,51.636 -33.265,33.265 -33.265,14.893 -18.372,0 0,0"
               style="fill:#ffffff;fill-opacity:1;fill-rule:nonzero;stroke:none"
               id="path3634" />
          </g>
          <g
             id="g3636"
             transform="matrix(5.3216349,0,0,5.3216349,319.86146,444.44985)">
            <path
               d="M 0,0 C 18.372,0 33.265,14.893 33.265,33.265 33.265,51.636 18.372,66.529 0,66.529 -18.372,66.529 -33.265,51.636 -33.265,33.265 -33.265,14.893 -18.372,0 0,0 Z"
               style="fill:none;stroke:#0b1213;stroke-width:3.447;stroke-linecap:butt;stroke-linejoin:miter;stroke-miterlimit:4;stroke-dasharray:none;stroke-opacity:1"
               id="path3638" />
          </g>
          <g
             id="g3640"
             transform="matrix(5.3216349,0,0,5.3216349,394.74112,577.71848)">
            <path
               d="M 0,0 V 1.868 C -0.183,1.901 -0.37,1.926 -0.56,1.942 -0.751,1.959 -0.938,1.967 -1.121,1.967 -1.685,1.967 -2.254,1.876 -2.826,1.693 -3.399,1.511 -3.918,1.245 -4.383,0.897 -4.848,0.548 -5.226,0.104 -5.516,-0.436 -5.807,-0.975 -5.952,-1.61 -5.952,-2.341 v -8.84 h 1.992 v 8.84 c 0,0.399 0.079,0.747 0.237,1.046 0.158,0.299 0.369,0.552 0.635,0.76 0.265,0.207 0.573,0.361 0.921,0.46 0.349,0.1 0.723,0.15 1.121,0.15 0.183,0 0.357,-0.005 0.523,-0.013 C -0.357,0.054 -0.183,0.033 0,0 m -17.705,-11.244 c 0.896,0.141 1.793,0.37 2.689,0.685 v 8.368 c 0,0.697 -0.137,1.307 -0.411,1.83 -0.274,0.523 -0.639,0.954 -1.096,1.295 -0.456,0.34 -0.979,0.598 -1.568,0.772 -0.59,0.174 -1.192,0.261 -1.806,0.261 -0.813,0 -1.631,-0.17 -2.453,-0.51 -0.822,-0.341 -1.531,-0.843 -2.129,-1.507 l 1.245,-1.22 c 0.382,0.481 0.863,0.834 1.445,1.058 0.58,0.225 1.161,0.337 1.743,0.337 0.381,0 0.755,-0.05 1.12,-0.15 0.365,-0.099 0.689,-0.249 0.972,-0.448 0.282,-0.199 0.51,-0.444 0.684,-0.735 0.175,-0.29 0.262,-0.618 0.262,-0.983 V -3.91 c -0.98,0.415 -2.009,0.623 -3.088,0.623 -0.631,0 -1.237,-0.083 -1.818,-0.249 -0.581,-0.166 -1.096,-0.415 -1.544,-0.747 -0.448,-0.333 -0.809,-0.756 -1.083,-1.27 -0.274,-0.515 -0.411,-1.129 -0.411,-1.843 0,-0.697 0.12,-1.295 0.361,-1.793 0.24,-0.498 0.564,-0.913 0.971,-1.245 0.407,-0.332 0.892,-0.582 1.457,-0.747 0.564,-0.166 1.17,-0.249 1.818,-0.249 0.863,-0.017 1.743,0.046 2.64,0.186 m 0.697,1.756 c -0.532,-0.116 -1.075,-0.191 -1.631,-0.224 -0.557,-0.033 -1.108,-0.042 -1.656,-0.025 -0.764,0.016 -1.403,0.203 -1.918,0.56 -0.515,0.357 -0.772,0.951 -0.772,1.781 0,0.464 0.087,0.859 0.262,1.183 0.174,0.324 0.402,0.585 0.684,0.784 0.283,0.199 0.611,0.345 0.984,0.436 0.374,0.091 0.76,0.137 1.158,0.137 0.531,0 1.046,-0.05 1.544,-0.149 0.498,-0.1 0.946,-0.216 1.345,-0.349 z m 5.478,9.939 v -11.632 h 1.992 V 0.453 c -0.323,-0.069 -0.66,-0.107 -1.017,-0.107 -0.339,0 -0.663,0.037 -0.975,0.105"
               style="fill:#0b1213;fill-opacity:1;fill-rule:nonzero;stroke:none"
               id="path3642" />
          </g>
          <g
             id="g3644"
             transform="matrix(5.3216349,0,0,5.3216349,181.92203,615.55531)">
            <path
               d="m 0,0 c 0.686,-0.909 1.47,-1.545 2.352,-1.906 0.881,-0.362 1.823,-0.543 2.825,-0.543 0.668,0 1.317,0.097 1.948,0.292 0.631,0.195 1.187,0.491 1.67,0.891 0.482,0.398 0.867,0.895 1.155,1.489 0.288,0.593 0.432,1.28 0.432,2.059 0,0.687 -0.131,1.271 -0.39,1.754 C 9.732,4.518 9.398,4.922 8.99,5.246 8.582,5.571 8.136,5.835 7.654,6.04 7.171,6.244 6.698,6.401 6.234,6.513 6.086,6.531 5.896,6.587 5.664,6.68 5.432,6.772 5.214,6.889 5.01,7.028 4.805,7.167 4.634,7.324 4.495,7.501 4.356,7.677 4.295,7.877 4.314,8.099 4.351,8.526 4.499,8.827 4.759,9.004 5.019,9.18 5.306,9.268 5.622,9.268 6.049,9.268 6.485,9.18 6.93,9.004 7.376,8.827 7.719,8.619 7.96,8.378 l 1.921,2.644 C 9.138,11.615 8.35,12.014 7.515,12.219 6.68,12.422 5.937,12.525 5.288,12.525 4.49,12.525 3.785,12.399 3.173,12.149 2.561,11.898 2.046,11.564 1.628,11.147 1.211,10.729 0.895,10.252 0.682,9.714 0.468,9.175 0.362,8.628 0.362,8.071 0.362,7.552 0.459,7.042 0.654,6.541 0.849,6.04 1.141,5.576 1.531,5.149 1.92,4.722 2.408,4.351 2.992,4.036 3.576,3.72 4.277,3.497 5.093,3.368 5.743,3.275 6.183,3.052 6.415,2.7 6.647,2.347 6.67,1.957 6.485,1.531 6.281,1.104 5.891,0.891 5.316,0.891 4.815,0.891 4.244,1.03 3.604,1.308 2.964,1.586 2.375,1.985 1.837,2.505 Z"
               style="fill:#0b1213;fill-opacity:1;fill-rule:nonzero;stroke:none"
               id="path3646" />
          </g>
          <g
             id="g3648"
             transform="matrix(5.3216349,0,0,5.3216349,425.15959,708.71957)">
            <path
               d="m 0,0 h -3.897 v -5.483 c -0.723,0.334 -1.512,0.501 -2.365,0.501 -0.668,0 -1.322,-0.116 -1.963,-0.348 -0.64,-0.232 -1.21,-0.557 -1.711,-0.974 -0.501,-0.418 -0.905,-0.928 -1.211,-1.531 -0.306,-0.603 -0.459,-1.285 -0.459,-2.045 v -5.094 c 0.074,-0.928 0.283,-1.712 0.626,-2.352 0.343,-0.64 0.789,-1.155 1.336,-1.544 0.547,-0.39 1.164,-0.668 1.851,-0.835 0.686,-0.167 1.41,-0.251 2.171,-0.251 0.909,0 1.851,0.098 2.825,0.292 0.974,0.195 1.906,0.46 2.797,0.794 z m -3.897,-16.783 c -0.334,-0.167 -0.719,-0.264 -1.155,-0.292 -0.436,-0.028 -0.848,0.014 -1.238,0.125 -0.39,0.111 -0.724,0.301 -1.002,0.571 -0.278,0.268 -0.427,0.616 -0.445,1.043 v 5.65 c 0.055,0.408 0.227,0.738 0.514,0.988 0.288,0.251 0.627,0.427 1.016,0.529 0.39,0.102 0.794,0.125 1.211,0.07 0.418,-0.056 0.784,-0.167 1.099,-0.334 z"
               style="fill:#0b1213;fill-opacity:1;fill-rule:nonzero;stroke:none"
               id="path3650" />
          </g>
          <g
             id="g3652"
             transform="matrix(5.3216349,0,0,5.3216349,349.78714,624.07897)">
            <path
               d="m 0,0 v 10.144 c 0,0.947 -0.177,1.754 -0.529,2.422 -0.353,0.668 -0.821,1.21 -1.405,1.628 -0.585,0.417 -1.253,0.723 -2.004,0.918 -0.752,0.195 -1.536,0.293 -2.352,0.293 -0.891,0 -1.781,-0.112 -2.672,-0.334 -0.891,-0.223 -1.735,-0.529 -2.533,-0.919 v -3.291 h -0.008 V -0.384 c -0.445,-0.167 -0.909,-0.25 -1.391,-0.25 -0.65,0 -1.216,0.181 -1.698,0.543 -0.483,0.361 -0.724,0.969 -0.724,1.823 v 9.129 h -3.868 V 1.509 c 0,-1.021 0.167,-1.874 0.501,-2.561 0.334,-0.686 0.779,-1.234 1.336,-1.642 0.556,-0.408 1.201,-0.7 1.934,-0.876 0.733,-0.177 1.498,-0.265 2.296,-0.265 1.002,0 1.967,0.107 2.895,0.32 0.927,0.213 1.781,0.459 2.56,0.738 v 3.486 h 0.002 v 10.827 c 0.464,0.259 1.026,0.389 1.62,0.389 0.557,0 1.062,-0.153 1.517,-0.459 0.455,-0.306 0.682,-0.793 0.682,-1.461 V 0.15 c 0.533,0.223 1.11,0.337 1.734,0.337 C -1.324,0.487 -0.622,0.324 0,0"
               style="fill:#0b1213;fill-opacity:1;fill-rule:nonzero;stroke:none"
               id="path3654" />
          </g>
          <g
             id="g3656"
             transform="matrix(5.3216349,0,0,5.3216349,351.93921,606.24936)">
            <path
               d="m 0,0 c -0.268,1.143 -1.287,1.996 -2.512,1.996 -1.428,0 -2.585,-1.157 -2.585,-2.585 0,-1.428 1.157,-2.586 2.585,-2.586 1.21,0 2.218,0.835 2.5,1.957 -0.216,-0.094 -0.443,-0.17 -0.688,-0.2 -0.751,-0.092 -1.51,0.087 -2.027,0.561 -0.066,-0.01 -0.236,-0.038 -0.349,-0.047 0.066,0.113 0.113,0.198 0.189,0.335 0.405,-0.109 0.837,-0.145 1.279,-0.091 C -1,-0.585 -0.455,-0.346 0,0"
               style="fill:#c0046b;fill-opacity:1;fill-rule:nonzero;stroke:none"
               id="path3658" />
          </g>
        </g>
      </g>
    </g>
  </g>
</svg>
