<?xml version="1.0" encoding="utf-8"?>
<svg version="1.1" id="Layer_1" xmlns="http://www.w3.org/2000/svg" xmlns:xlink="http://www.w3.org/1999/xlink" x="0px" y="0px"
	 width="1938px" height="978px" viewBox="0 0 1938 978" style="enable-background:new 0 0 1938 978;" xml:space="preserve">
<style type="text/css">
	.st0{fill:#122E65;}
</style>
<g>
	<path class="st0" d="M1028.3,678.7c-76.5,15.6-154.2,23.2-231.1,7.5c-182.9-37.4-302.6-146.2-357-325.6c-3.4-4.9-3.4-6.7-11.2-13.4
		c12.1,86.6,44.2,162.8,95.2,230.8C602.4,682.2,705.8,746.4,837,767.2c102.1,14.4,200.7,3.1,297.9-23
		c154.5-41.5,293.1-115.1,420.2-211.3c83.8-63.4,144.8-123.5,206.5-208.6c4.8-7.5,19.6-26,22.9-34.1c-5.1,0.7-11.8,7.4-14.4,10
		c-78,75.3-164.6,129.9-257.6,184.4C1360.9,573.3,1201.4,643.4,1028.3,678.7z"/>
	<path class="st0" d="M831.4,93.1c270.5-15,513.1,62.4,719.1,245.2c0.5-10.4-21.8-35.6-25.5-40.1c-51.5-63-92.4-97.1-159.8-142.7
		C1244,73.5,1110.9,24.9,964.8,10.4C858.4-0.2,753.9,8.4,651,36C523.5,70.2,410.2,131.5,310,219.6
		c-70.9,62.8-159.2,174.2-159.8,202.9C328.9,210.9,560.8,108.1,831.4,93.1z"/>
	<path class="st0" d="M616.7,142.2c-43.6,11.5-85.8,26.9-127.3,44.5c-9.2,3.9-10.4,2.3-11.7,11.3c-6,42.6-3.7,93.5,6.1,135
		c58.5,249.3,313.7,380.1,551,280.8c19.6-9.3,42.4-25.4,57.6-40.8c-138.1,46.1-263.7,35.3-373.1-61.5
		c-108-101.2-131.7-229.2-91.1-371C622.5,140.4,619.5,141.5,616.7,142.2z"/>
	<path class="st0" d="M733.8,207.8c-1.2-0.9-2.2-4.9-2.5-8.9c-0.6-6.1-1.8-6.7-18.7-5.8c-22.4,0.9-30.7,4.9-35,16.9
		c-4.3,12.6-4,25.8,0.9,27.6c6.5,2.1,14.1-1.2,16-7.4c1.2-3.7,4.9-5.8,9.5-5.8c8.9,0,9.2,1.8,1.2,14.4l-5.8,9.8l9.8,0.9
		c9.5,0.9,9.8,1.5,9.8,14.7v13.8l11.7,0.3c6.1,0.3,11.4-0.6,11.4-1.8c0-4,16-13.2,18.1-10.4c1.8,2.8,8.6,4,25.8,5.2
		c4.9,0.3,10.4,2.8,12.3,5.5c2.1,2.5,5.8,5.5,8.3,6.7c17.8,8,29.5,17.5,31.9,26.1c1.5,6.1,5.8,10.7,11.4,13.2
		c4.9,1.8,8.9,4.6,8.9,6.1c0,1.2,3.1,3.1,7.1,4.3c3.7,0.9,12,4.3,18.1,7.1c12.9,5.8,15.4,15.3,7.1,27.3c-2.8,3.7-6.1,14.7-8,24.5
		c-4,23.6-7.7,31.6-14.4,31.6c-7.4,0-12.9,5.8-12.9,14.1c0,11-9.2,29.4-15.4,31c-3.7,0.9-5.8,4-5.2,7.7c0.3,3.4-2.2,7.7-5.2,9.8
		c-11.1,6.1-13.2,9.2-11.7,15.9c0.6,3.7-0.3,7.7-2.5,8.9c-6.1,3.7,10.8,15.9,32.3,23c73.7,24.5,151.7,18.4,219-17.2
		c90.3-47.8,148.1-143.2,148.1-245c0-40.5-2.1-50-12.6-55.2c-4.6-2.5-11.4-4.6-14.4-4.6s-8.3-2.8-11.4-6.1c-6.1-6.7-10.8-8-10.8-3.1
		c0,6.4,16.6,18.7,23,17.2c3.4-0.9,9.5,0.9,13.5,4c11.7,8.9,6.8,20.8-14.4,34.6c-9.5,6.1-21.5,12.3-26.1,13.5c-13.8,3.4-8,8.9,8.3,8
		c10.1-0.6,14.1,0.3,14.1,3.1c0,6.4-14.4,35.3-19,38c-2.1,1.5-8.6,8-14.1,14.4c-9.5,11-9.8,12.6-9.8,38.9v27l-12.3,9.8
		c-8.3,6.4-12.3,12.3-12.3,17.2c0,7.4-20.3,39.2-30.7,48.7c-3.4,3.1-11.7,6.1-19,6.7l-13.2,1.5l-5.5-21.2
		c-3.1-11.3-7.7-28.8-10.4-38.6c-4.3-15-4.6-20.2-1.5-31.6c5.5-20.5,4.6-32.8-3.7-45.1c-5.8-8.6-7.1-13.5-5.8-23.3
		c1.5-10.4,0.6-12.9-4-14.4c-3.4-0.9-8.3-3.1-11.4-4.6c-3.4-1.8-12.6-1.5-25.5,0.3c-11.1,1.8-22.7,2.5-25.5,1.5
		c-7.7-2.5-16.9-13.2-26.1-30.4c-6.1-11.6-7.1-15.9-4.6-20.8c1.8-3.7,2.8-11,1.8-16.9c-2.2-12,7.4-32.2,18.4-39.2
		c4-2.8,7.1-6.7,7.1-9.5c0-2.8,4-8.6,8.9-13.5c8.3-8.6,8.6-8.9,2.1-9.8c-5.2-0.6-6.8-3.4-7.4-12.9c-1.2-13.2,3.1-18.1,13.2-15.9
		c3.4,0.9,8,0.6,10.1-0.9c4.9-2.8,1.5-12.6-4.3-12.6c-2.5,0-4-1.8-3.4-4c0.6-4.3-33.5-7.4-86.6-8c-29.5-0.3-31.6,0-30.4,5.2
		c1.2,4.6-0.3,5.8-7.4,5.8c-5.8,0-7.4-0.9-4.9-2.8c3.1-1.8,2.5-2.5-1.2-2.5c-3.1,0-5.5,1.8-5.5,3.7c0,2.8-0.9,2.5-2.8-0.6
		c-1.8-2.5-2.2-5.5-1.5-6.7c1.8-2.8-4-2.8-10.1-0.3c-6.8,2.5-4.3,7.7,2.5,5.5c4.6-1.5,6.1-0.9,5.2,1.8c-1.2,3.7-9.5,9.2-19.4,12.9
		c-1.5,0.9-2.2,2.5-0.9,3.7c1.2,1.2,4.3,0.6,7.1-1.5c3.1-2.5,4.6-2.8,4.6-0.3c0,1.8-1.2,3.4-3.1,3.4c-1.5,0-3.1,1.2-3.1,3.1
		c0,4.6,4.9,3.7,10.4-1.5c6.1-6.1,8-5.8,8.3,2.1c0,6.7,0.3,6.7,2.8,0.9c2.2-5.2,2.8-5.2,2.8-0.9c0.3,3.1,2.5,5.5,4.9,5.5
		c7.7,0,6.1,23.9-2.2,31.3c-3.7,3.1-7.4,4.6-8.3,3.4c-3.1-4-15.4-10.1-20.3-10.1c-2.5,0-4.6-2.1-4.6-4.6c0-3.1,4.3-5.2,12.3-6.4
		c6.8-1.2,12.3-3.1,12.3-4.3c0-5.2-10.1-10.1-21.8-10.4c-6.8,0-10.8-0.6-8.9-1.2c4-1.5,4-15.9,0-15.9c-1.5,0-5.5,2.5-8.6,5.2
		c-3.1,3.1-10.8,8.3-16.9,11.3c-6.8,3.4-12.3,8.9-13.2,13.2c-1.2,4-7.1,9.8-13.8,13.8c-12.3,7.1-12.9,8-12,21.5
		C742.4,205.1,737.4,211.5,733.8,207.8z M1161,393.6c11.7-12.6,15.4-12.6,12.9,0.9c-5.2,26.7-23.4,52.4-28.6,39.9
		C1142.6,426.4,1150.9,404.7,1161,393.6z M746.7,239.7c-0.9,1.5-3.1,3.1-4.9,3.1c-1.5,0-2.8-1.5-2.8-3.1c0-1.8,2.2-3.1,4.9-3.1
		C746.4,236.7,747.6,237.9,746.7,239.7z M767.5,231.4c9.5,3.7,17.5,7.4,17.5,8.3c0,1.5-12,1.5-30.7,0.3c-4-0.3-4-0.6,0-3.4
		c3.7-2.5,3.1-3.1-2.8-3.1c-4,0-8.9-2.1-11.1-5.2c-2.2-2.8-7.7-4.9-13.5-4.6c-5.2,0-9.5-0.9-9.5-2.5c0-4.9,10.8-5.2,21.5-0.6
		C744.8,223.2,757.7,228.1,767.5,231.4z"/>
	<path class="st0" d="M1040,158.4c5.6-3.9,5.6-4.5,0.6-7.3c-2.8-1.5-7.4-4.8-9.9-7.6c-7.2-6.7-21.8-3.9-31.1,5.8
		c-4.3,4.8-8.1,9.7-8.1,10.9c0,1.2-3.1,3.9-6.8,6.1c-6.5,3-6.5,3.3,2.2,1.5c29.8-6.4,37.3-6.7,41.3-1.8c2.2,2.7,3.1,6.7,2.5,8.8
		c-0.9,2.1,0,3.9,2.2,3.9c2.2,0.3,9.3,2.7,16.1,6.1c10.9,4.8,12.4,5.2,13.4,0.9c0.9-3.3,3.4-3.9,9.3-2.4c4.7,0.9,15.8,2.7,24.5,3.6
		c15.2,1.5,16.5,1.2,19.3-5.5c3.7-10,1.9-11.8-11.8-11.8c-11.5,0-22.1-7-22.1-14.5c0-2.1-2.2-3.6-5-3.6c-3.4,0-4,1.8-2.8,5.8
		c2.8,9.4-3.4,10-9.6,1.2c-11.5-15.8-29.2-29.7-29.2-22.7c0,2.1,5.3,6.7,15.2,12.7c6.5,3.6-3.7,18.8-10.9,16.1
		C1034.7,162.6,1034.7,162,1040,158.4z M1022.6,157.5c-1.9,0-3.1-3.3-3.1-7.6c0-4.2,1.2-7.6,2.5-7.6s2.8,3.3,3.1,7.6
		C1025.4,154.2,1024.1,157.5,1022.6,157.5z"/>
	<path class="st0" d="M1123.5,143.8c-12.3-3.6-34.2-7.2-36.1-5.8c-1,0.7-1.6,3.4-1.6,6c0,4.1,1.6,4.6,11.4,3.4
		c6-0.7,14.9-0.5,19.3,1c5.4,1.4,9.5,1.4,11.4,0C1130.1,146.7,1128.5,145.3,1123.5,143.8z"/>
	<path class="st0" d="M1114.6,208.2c-3,0-1.3,4.1,5.6,12.9c5.3,7.3,9.9,15,9.9,17.3c0,5.3,18.8,28.5,23.1,28.5c5,0,4-3.5-4.3-14.4
		c-10.6-14.7-21.1-30.2-25.8-37.9C1120.9,211.2,1117.3,208.2,1114.6,208.2z"/>
	<path class="st0" d="M662.8,247.4l1.8,37.3c0.9,24.3,4,45.3,8.3,60.1c6.4,22.8,25.4,64.1,37.3,81.6c13.8,19.7,40.3,48.7,57.4,61.9
		c17.7,13.9,24.4,16.6,24.4,10.8c0-1.8-1.2-3.1-2.8-3.1c-2.8,0-6.7-12.9-8.3-27.7c-1.2-12.9-7-53.6-8.9-60.7
		c-0.9-3.7-7.3-10.5-14.4-15.4c-7.3-4.9-13.8-12.3-15.6-17.9c-1.5-5.2-6.4-13.9-10.7-19.7c-9.5-12.6-9.5-30.8-0.3-43.7
		c6.1-8.9,7.3-20,3.1-27.1c-1.8-2.8-3.4-3.1-4.6-0.6c-3.4,5.2-19.3-4.6-24.8-15.1c-2.8-5.2-6.7-9.2-9.2-9.2c-2.1,0-6.1-1.8-8.2-4.3
		c-2.4-2.2-8.9-4.6-14.4-5.5L662.8,247.4z"/>
	<path class="st0" d="M765.1,961.7c-5.4-1.2-9.7-3.7-12-9.1c-0.8-1.8-1.8-3.5-2.6-5.3c-14.4-32.7-28.8-65.4-43.1-98.1
		c-0.9-2.1-1.7-3.4-4.4-3.4c-2.7,0-4.1,0.8-5.3,3.4c-7,16.6-14,33.3-21.4,49.7c-8.2,18.4-16.8,36.7-25.4,54.9c-1.2,2.5-3,4.6-5.4,6
		c-8.8,5.1-24.1,2.2-29.7-6.4c-9.2-13.8-17.5-28.1-26.4-42.4c1.6-0.9,2.7-1.6,3.8-2.2c7.5-4,12.5-10.2,15.6-18.2
		c7.2-18.7-2.3-37.6-20.8-40.9c-4.8-0.7-9.6-1-14.5-0.9c-12.4,0-24.8,0.3-37.1,0.5c-8,0.1-16.1,0-24.2,0c-0.9,5.5-0.8,5.6,4.7,6.5
		c1.7,0.3,3.3,0.6,5,1c7,1.6,8.2,2.9,8.3,10.2c0.2,23.2,0.3,46.3,0.3,69.5c0,5-0.1,10.1-0.2,15.1c-0.2,6.1-1.4,7.6-7.2,9
		c-2.3,0.6-4.6,1.1-6.9,1.5c-4.9,1-5.3,1.7-3.6,6.6h61.3c0.8-5.6,0.8-5.6-4.4-6.8c-2.8-0.6-5.6-1.3-8.4-1.9
		c-3.5-0.7-5.1-2.9-5.2-6.4c-0.1-3.5-0.4-6.9-0.4-10.3c0-9.8,0-19.5,0-29.3c9.4-0.4,9.6-0.4,13.6,7.7c7.1,14.7,14,29.5,21.1,44.2
		c0.8,1.6,1.1,3.1,3.7,3.1c22.3-0.4,44.5-0.6,66.8-0.8c5.5,0,11.1,0,16.7,0c0.8-5.3,0.8-5.3-4.1-6.4c-1.5-0.4-3-0.7-4.5-1.2
		c-4.1-1.2-5-2.5-3.5-6.6c2.4-6.6,5-13.1,7.7-19.5c0.4-0.6,0.9-1.2,1.4-1.6c0.6-0.4,1.3-0.7,2-0.8c12-0.2,24-0.1,36,0
		c1.1,0,2.9,0.9,3.3,1.9c2.9,6.5,5.6,13.1,8.1,19.8c1.4,3.8,0.3,5.5-3.6,6.7c-3,0.9-6,1.6-8.8,2.3v5.7h58.3
		C770.2,963.1,770.3,962.9,765.1,961.7z M581.2,895.6c-4.2,7.2-14.2,10.4-25.7,8.2v-43.5c9.3-3.1,19.4-0.8,24.4,5.4
		C585.4,872.7,586,887.4,581.2,895.6z M677.8,922.6c5.7-13.3,11.2-26.2,17-39.9c5.6,13.6,10.9,26.4,16.5,39.9H677.8z"/>
	<path class="st0" d="M918.4,951.9c-0.1-1.1-0.1-2.1-0.1-3.2c0-20.4-0.1-40.8,0-61.2c0-8.1,0.4-16.1,0.7-24.2
		c0.1-3.4,2.1-5.3,5.3-5.9c4.2-0.9,8.4-1.8,12.6-2.7v-6.1c-14.7,0-29.1,0-43.6,0.1c-1,0-2.3,1.4-2.8,2.5
		c-5.9,13.8-11.5,27.8-17.5,41.6c-5.7,13-11.7,25.8-17.7,39c-0.4-0.5-0.8-1-1.1-1.6c-11.5-26-23.1-52-34.4-78.1
		c-1.1-2.6-2.2-3.5-5-3.4c-10.7,0.3-21.4,0.4-32.1,0.4c-3.7,0-7.5-0.3-11.3-0.5v6.2c4.5,0.7,8.7,1.4,12.9,2.1
		c3.5,0.6,5.7,2.4,5.9,6.2c0.2,3.1,0.5,6.3,0.5,9.5c-0.3,24.4-0.6,48.7-1.1,73.1c-0.2,13.8-0.4,13.9-13.5,16.5c-5.2,1-5.3,1.2-4,6.6
		h47.2c1.2-5.5,1.1-5.7-4-6.7c-2.7-0.5-5.4-1-8-1.7c-3.1-0.8-5-2.4-5.1-6c-0.4-24.5-0.8-48.9-1.2-73.4c0-1.9,0-3.9,0-5.8
		c0.9,0.4,1.6,1.1,1.9,2c13.2,29.3,26.4,58.7,39.5,88c1,2.3,2.2,3.1,4.7,3.1c2.5,0,3.7-1,4.7-3.2c9.6-21.8,19.3-43.6,29-65.4
		c3.6-8.1,7.3-16.2,10.9-24.2c0.8,11.8,0.8,23.4,0.8,35c0,13.5,0,27-0.2,40.5c-0.1,6.9-1.3,8.2-7.8,9.7c-3.6,0.8-7.1,1.5-10.6,2.2
		v5.8h63V963c-3.9-0.8-7.8-1.5-11.5-2.4C919.8,959.3,918.7,957.9,918.4,951.9z"/>
	<path class="st0" d="M1610.1,854.8c0.1,0,0.2-0.2,0.4-0.3V849h-41.7v5.7l6.2,1.8c7.2,2.1,8,3,5.6,10.3
		c-6.1,19.5-12.5,38.9-18.7,58.4c-0.3,1-0.8,2-1.6,4.1c-7.2-22.6-14.1-44.1-20.9-65.5c-1-3.2,0.3-5.4,3.5-6.4
		c3.1-0.9,6.3-1.8,9.4-2.7V849h-57.6c0.2,2.7-1.4,5.9,2.8,6.7c8.6,1.5,13.3,7,15.6,15.2c0.6,2.2,1.8,4.2,2.3,6.4
		c0.4,2.2,0.7,4.7,0,6.8c-2.7,7.9-5.7,15.6-8.7,23.3c-2.8,7.3-5.7,14.6-8.9,22.9c-2.7-8.3-5.2-15.7-7.6-23c-4.5-13.7-9-27.3-13.4-41
		c-1.7-5.4-0.7-7.5,4.5-9.4c2.2-0.8,4.4-1.4,6.6-2.1v-5.6h-57.5v5.7c2.5,0.7,4.8,1.5,7.2,2.1c5.2,1.3,8.6,4.6,10.5,9.6
		c1.8,4.8,3.9,9.5,5.6,14.4c10.4,29.2,20.8,58.4,31.1,87.6c1.1,3.1,2.6,3.4,5.4,3.5c2.8,0.1,4.1-0.8,5-3.6
		c1.6-5.3,3.6-10.5,5.6-15.6c7-18.6,14-37.2,21.3-56.6c0.7,1.4,1,2,1.3,2.5c8.2,23.2,16.4,46.5,24.6,69.8c0.8,2.2,1.5,3.7,4.2,3.4
		c2.3-0.3,4.6,0.5,5.8-2.9c11.3-32.2,23-64.3,34-96.6C1595,862.7,1599.4,855.7,1610.1,854.8z"/>
	<path class="st0" d="M1438.9,962.3c-9.9-1.3-17.1-6-22.1-15c-5.7-10.4-12.1-20.4-18.2-30.6c-1.1-1.9-2.2-3.8-3.4-5.8
		c1.6-1,2.9-1.7,4.1-2.4c8.6-4.8,13.8-12.3,16.3-21.8c4.6-17.6-4.9-33.7-21.9-36.9c-4.6-0.8-9.3-1.1-14-1
		c-17.7-0.1-35.4-0.1-53.2-0.1h-9v6c3.9,0.8,7.5,1.5,11,2.3c5.8,1.5,7,2.5,7.1,8.7c0.3,24,0.4,47.9,0.5,71.9c0,5-0.1,10.1-0.3,15.1
		c-0.1,4.3-2.2,6.9-6.4,7.7c-3.9,0.7-7.8,1.7-11.7,2.6v5.7h61.8c0.9-5.6,0.9-5.6-4.3-6.7l-6.1-1.3c-6.7-1.4-7.7-2.6-7.8-9.5
		c-0.2-11.8-0.2-23.6-0.3-35.3c0.1-0.7,0.3-1.3,0.5-1.9c1.3,0.2,2.7,0.3,4,0.3c4.3-0.4,6.4,1.8,8.1,5.6
		c7.3,15.8,14.9,31.4,22.5,47.1c0.4,0.6,1,1.1,1.6,1.5c0.6,0.4,1.4,0.6,2.1,0.6c5.6,0,11.2-0.4,16.8-0.5c8.8-0.1,17.6,0,26.5,0
		C1444.1,963.2,1444.1,963,1438.9,962.3z M1386.9,895.4c-6,9.9-15.7,9.1-25.8,8.9l0-44.3c9.1-1.4,17.9-2.1,24.5,6
		C1391,872.7,1391.8,887.3,1386.9,895.4z"/>
	<path class="st0" d="M464.9,848.8c-9.9-3-20-3.4-30.2-2.4c-24,2.5-42.1,14.1-51.2,37.1c-7.3,18.3-7,37.3,0.2,55.8
		c5.2,13.4,14.8,22.5,27.9,27.8c8.7,3.5,17.9,4.8,27.2,4.8c26.2,0.3,46.3-10.2,57.9-34.8c7.5-16,8.9-32.8,4.7-49.9
		C496.4,867.5,484,854.8,464.9,848.8z M469.8,942.2c-3.6,11.5-11.3,18.8-23.6,20.1c-13.4,1.4-24-3.1-30.7-15.6
		c-4.8-9-7.5-21.3-7.9-36.9v0c-0.2-11.3,0.7-22.5,4.6-33.2c7-19,27.1-27.1,43.5-17.6c6.4,3.5,11.2,9.4,13.3,16.5
		C475.9,897.7,476.7,920,469.8,942.2z"/>
	<path class="st0" d="M322.1,854.8c3.8,0.7,7.2,1.2,10.7,2c4.8,1,6.3,2.4,6.5,7.5c0.5,16.6,0.7,33.3,1,50c0.1,3.3,0,6.7,0,11.3
		c-1.3-1.5-2-2.3-2.6-3.1c-18.6-23.3-37.3-46.6-55.9-70c-2.1-2.6-3.9-3.8-7.4-3.7c-12.2,0.3-24.5,0.1-36.7,0.1h-3.3v6.2
		c2.3,0.4,4.4,0.8,6.4,1.2c11.8,2.4,13,3.7,12.9,16c-0.4,24.7-0.9,49.5-1.4,74.2c-0.3,13.5-0.3,13.5-13.3,15.8
		c-5,0.9-5.3,1.5-3.7,6.6h47.3c1.2-5.6,1.2-5.7-3.9-6.6c-0.9-0.2-1.8-0.4-2.7-0.6c-10.3-2-10.7-2.4-10.8-13.1
		c-0.3-18.8-0.6-37.6-0.8-56.4c-0.1-6.2,0-12.5,0-19.6c1.2,1.4,1.7,1.9,2.2,2.5c25.3,31.6,50.6,63.3,75.7,95
		c2.7,3.5,4.8,1.2,7.3,0.8c2.9-0.5,2.7-2.5,2.7-4.7c-0.3-23.7-0.7-47.4-0.8-71c0-9.9,0.4-19.8,0.9-29.8c0.3-5.8,1.8-7.3,7.3-8.6
		c3.3-0.7,6.6-1.3,10.1-2v-5.8h-47.7V854.8z"/>
	<path class="st0" d="M72.3,917c23.7-0.8,38.9-17.7,37.6-41.3c-0.8-13.5-9-23.2-22-25.4c-5.5-0.9-11.1-1.3-16.7-1.3
		c-16-0.2-32-0.1-48.1-0.1H9.5c-0.9,5.8-0.9,5.8,4.4,6.8c2.2,0.4,4.3,0.9,6.5,1.4c6.5,1.7,7.3,2.5,7.4,9.2
		c0.3,19.4,0.4,38.9,0.4,58.3c0,9.4-0.4,18.8-0.5,28.2c-0.1,4.1-1.8,6.7-6,7.5c-2.7,0.5-5.3,1.3-8,1.8c-5.3,1.1-5.3,1.1-4.1,6.7
		h65.6v-5.7l-4.2-0.8c-3.5-0.6-7-1-10.4-1.8c-5.3-1.2-6.3-2.3-6.4-7.8c-0.3-9.1-0.2-18.2-0.3-27.4c0-3.1,0-6.2,0-8.3
		C60.4,917,66.4,917.2,72.3,917z M54.1,859.4c4.5,0,8.8-0.5,13.1,0.1c8.6,1.2,14.2,6.6,15.3,15.5c0.7,5.5,0.6,11.1-0.4,16.5
		c-1.6,9.1-8,14.2-17.3,15c-3.5,0.3-7,0-10.8,0V859.4z"/>
	<path class="st0" d="M1916.3,906.4c-5.6-4.2-12.1-7.2-18.2-10.8c-6.3-3.7-12.9-6.9-18.8-11.2c-5.5-4.1-6.9-10.5-5.3-17.1
		c1.6-6.3,6-9.7,12.1-11.1c12.2-2.9,22,2.6,26.1,14.7c1.4,3.9,2.2,8.1,3.4,12h8.1c0-10,0.1-19.5-0.2-28.9c-0.1-0.7-0.4-1.3-0.8-1.9
		c-0.4-0.5-0.9-1-1.6-1.3c-5.9-1.6-11.8-3.2-17.9-4c-12.7-1.6-25.2-1.2-37,5c-21.1,11.1-24.9,42.8-4.1,56.1c4.7,3,9.7,5.7,14.5,8.5
		c6,3.4,12.4,6.3,18.1,10.2c7.3,5,9.7,12.7,7.6,21.3c-1.8,7.5-6.9,11.9-14.4,13.4c-11.7,2.3-21.8-3.3-25.8-14.6
		c-1.8-5-2.9-10.1-4.4-15.1h-7.6c-0.5,11.2-1.1,22.2-1.5,33.1c0,0.9,1.4,2.3,2.5,2.6c13.9,4.6,28.8,5.8,43.2,3.5
		c10.9-1.6,20.3-6.1,27.2-15.4C1933.1,940,1931,917.6,1916.3,906.4z"/>
	<path class="st0" d="M1245.3,961.6c-6.5-0.8-10.3-4.9-12.9-10.7c-14.9-33.9-30-67.7-44.8-101.6c-1-2.3-2-3.4-4.8-3.5
		c-3-0.1-4,1.4-5,3.8c-13.9,31.7-28,63.3-41.9,95.1c-3.9,9-8.3,17.1-19.2,18.6v5.5h40.8c0.8-5.6,0.8-5.6-4.3-6.7
		c-1.5-0.3-3-0.7-4.5-1.2c-4-1.1-4.8-2.4-3.4-6.3c2.4-6.7,5-13.3,7.8-19.9c0.4-0.6,0.9-1.1,1.5-1.5c0.6-0.4,1.3-0.6,2-0.7
		c11.9-0.1,23.7-0.1,35.6-0.1c2.1,0,3.3,0.7,4.1,2.8c1.8,4.8,3.9,9.5,5.8,14.3c3.9,9.5,3.3,10.5-6.6,12.7c-5.1,1.1-5.2,1.3-4,6.7
		h58.2C1251,964.5,1249.7,962.2,1245.3,961.6z M1158,922.6l17-39.8l16.5,39.8H1158z"/>
	<path class="st0" d="M229.2,962c-8.3-1.3-12.1-7-15.1-13.9c-14.4-32.7-28.8-65.3-43.1-98c-1-2.4-1.6-4.3-5-4.3
		c-3.2,0-4.1,1.7-5.2,4.1c-14.2,32.2-28.5,64.3-42.6,96.5c-3.7,8.4-8.1,15.4-17.9,16.7c-0.1,0-0.2,0.2-0.3,0.2v5.5h40.7
		c0.8-5.6,0.8-5.6-4.4-6.7c-1.7-0.4-3.3-0.8-4.9-1.2c-3.3-0.8-4.3-2.7-3.1-5.9c2.6-6.8,5.1-13.6,8-20.2c0.4-0.6,0.9-1.1,1.5-1.5
		c0.6-0.4,1.3-0.6,2-0.7c11.9-0.2,23.7-0.2,35.6,0c0.8,0.1,1.6,0.4,2.3,0.9c0.7,0.5,1.2,1.1,1.7,1.8c2.2,4.6,4,9.5,5.9,14.2
		c3.8,9.5,3.3,10.5-6.5,12.6c-5.2,1.1-5.2,1.1-4,6.7h58.2C234,963.5,233.9,962.7,229.2,962z M141.1,922.6l16.9-39.9l16.5,39.9H141.1
		z"/>
	<path class="st0" d="M1067.7,961.8c-6.5-1.3-10.8-4.9-13.2-11c-0.5-1.2-1.2-2.4-1.7-3.6c-14.5-32.8-28.9-65.6-43.3-98.4
		c-1-2.2-1.9-3-4.3-3c-2.4,0.1-3.9,0.3-5.1,3c-5.5,13.4-11.2,26.7-17.1,39.9c-9.7,21.6-19.7,43.1-29.6,64.7
		c-2.1,4.5-5.6,7.1-10.3,8.3c-5.1,1.4-5.3,1.9-4,6.9h40.6c0.6-5.6,0.6-5.6-4.5-6.8c-1.5-0.4-3-0.7-4.5-1.2c-4-1.2-4.7-2.4-3.2-6.4
		c2.4-6.6,4.9-13.1,7.7-19.5c0.3-0.6,0.8-1.2,1.4-1.6c0.6-0.4,1.3-0.7,2-0.8c12.1-0.1,24.2-0.1,36.4,0c0.6,0,1.2,0.2,1.7,0.5
		c0.5,0.3,0.9,0.7,1.3,1.2c2.9,6.6,5.7,13.3,8.2,20.1c1.2,3.2,0,5.7-3.6,6.5c-3,0.7-6,1.5-9,2.2v5.7h58.4
		C1072.9,963.3,1072.9,962.9,1067.7,961.8z M980.1,922.5c5.6-13.2,11.1-26.1,16.9-39.8l16.5,39.8H980.1z"/>
	<path class="st0" d="M1721.1,961.8c-7.1-1.3-10.9-5.9-13.7-12.1c-14.7-33.4-29.4-66.8-44.1-100.2c-1-2.2-1.9-3.7-4.7-3.7
		s-4.1,1.1-5.2,3.6c-5.3,12.5-10.5,25-16.1,37.4c-9.7,21.6-19.6,43.2-29.4,64.8c-2.3,5.2-5.7,9-11.5,10.3c-5.1,1.2-5,1.4-4,6.9h40.7
		c1.2-4.3,0-6.7-4.6-6.8c-1.2-0.1-2.3-0.4-3.4-0.8c-5.1-1.3-5.9-2.7-4.1-7.5c2.3-6.3,4.8-12.6,7.5-18.7c0.4-0.7,0.9-1.2,1.6-1.7
		c0.6-0.4,1.4-0.7,2.1-0.8c11.8-0.2,23.7-0.1,35.6-0.2c2.2,0,3.2,0.9,4,2.9c1.8,4.7,3.8,9.3,5.6,13.9c3.9,9.9,3.5,10.7-6.6,12.9
		c-5.1,1.1-5.2,1.3-3.9,6.7h58.4C1726.2,963.1,1726.2,962.7,1721.1,961.8z M1633.6,922.6c5.6-13.2,11.1-26.2,17-39.8l16.4,39.8
		H1633.6z"/>
	<path class="st0" d="M1798.3,854.8c3,0.7,5.6,1.2,8.3,1.9c4.2,1.1,4.7,2.1,2.6,6.1c-5.2,9.6-10.4,19.2-15.6,28.9
		c-2.4,4.5-4.9,9-7.6,14.1c-8.3-14.7-16.2-28.7-24-42.7c-1.6-2.8-0.3-4.6,2.4-5.5c3-1,6.2-1.9,9.1-2.8v-5.7h-59.6v6.1
		c11.6,0.5,17.7,8.3,23,17.4c5,8.6,10.4,16.8,15.5,25.2c4.4,7.2,10.4,13.9,12.5,21.8c2.2,8,0.5,17.1,0.5,25.7v0.4
		c-0.2,14-0.6,14.4-14.1,16.6c-5.4,0.9-5.7,1.4-4.2,6.6h62.5c0.9-5.7,0.9-5.6-4.3-6.7c-2.7-0.5-5.4-1.1-8-1.7
		c-3.6-0.8-5.7-2.9-5.7-6.9c-0.1-11.7-0.2-23.3-0.3-35c0-1.1,0.4-2.1,0.9-3c9.8-16.5,19.8-33,29.7-49.4c3.1-5.1,7.4-8.5,13.3-9.6
		c2.5-0.5,5-1.3,7.3-1.9v-5.7h-44.2V854.8z"/>
	<path class="st0" d="M1252.3,854.9c3.5,0.7,6.7,1.3,9.9,2c7,1.5,8.4,3.1,8.4,10.5c0.1,20.2,0.3,40.5,0.3,60.7
		c0,8.3-0.1,16.7-0.4,25c-0.1,4.9-1.6,6.5-6.3,7.6c-2.4,0.5-4.9,1-7.3,1.5c-5.4,1.1-5.6,1.6-4.2,6.7h62.3v-5.8l-7-1.4
		c-10.8-2.2-11.5-2.9-11.5-14c-0.1-21.2-0.1-42.4-0.1-63.5c0-6.1-0.1-12.2,0.1-18.3c0.2-6.3,1.6-8,7.4-9.3c3.7-0.8,7.3-1.3,11-2
		v-5.6h-62.7V854.9z"/>
</g>
</svg>
