<?xml version="1.0" encoding="utf-8"?>
<svg version="1.1" xmlns="http://www.w3.org/2000/svg" xmlns:xlink="http://www.w3.org/1999/xlink" x="0px" y="0px"
	 width="1938px" height="978px" viewBox="0 0 180 45" style="enable-background:new 0 0 1938 978;" xml:space="preserve">
<path d="M72.14 3L66.87 13H69L70.25 10.59H74.64L75.55 13H77.55L73.69 3H72.14ZM73.94 8.85H71.12L72.75 5.69L73.94 8.85Z" fill="#5A5B5E"/>
<path d="M78.32 13H80.25L80.95 3H79L78.32 13Z" fill="#5A5B5E"/>
<path d="M88.2 9.64998C88.7762 9.38117 89.2675 8.95919 89.6202 8.43013C89.9729 7.90107 90.1735 7.28528 90.2 6.64998C90.2508 6.20272 90.2068 5.74976 90.0706 5.3207C89.9345 4.89163 89.7094 4.49611 89.41 4.15998C88.9936 3.75943 88.4987 3.44954 87.9565 3.24988C87.4144 3.05023 86.8367 2.96514 86.26 2.99998H82.43L81.73 13H83.66L83.86 10.13H86.3L88.14 13H90.34L88.2 9.64998ZM84.2 4.78998H86.14C86.4569 4.75569 86.7776 4.7868 87.082 4.88141C87.3865 4.97601 87.6683 5.13209 87.91 5.33998C88.0478 5.50491 88.1492 5.697 88.2078 5.90376C88.2664 6.11052 88.2808 6.3273 88.25 6.53998C88.14 8.03998 86.86 8.35998 85.82 8.33998H84L84.2 4.78998Z" fill="#5A5B5E"/>
<path d="M73.59 20.55C72.3841 20.5642 71.2294 21.0393 70.3628 21.878C69.4962 22.7167 68.9836 23.8553 68.93 25.06C68.8569 25.5837 68.8884 26.1167 69.0226 26.6282C69.1568 27.1397 69.3912 27.6195 69.712 28.0398C70.0328 28.4601 70.4338 28.8127 70.8918 29.0771C71.3497 29.3414 71.8556 29.5124 72.38 29.58C72.5697 29.5949 72.7603 29.5949 72.95 29.58C74.5002 29.4744 75.9584 28.8058 77.05 27.7L79.32 30.33C77.4901 32.1543 75.0418 33.225 72.46 33.33C71.479 33.3813 70.4975 33.2388 69.5716 32.9107C68.6457 32.5826 67.7935 32.0754 67.0636 31.4179C66.3338 30.7605 65.7405 29.9657 65.3178 29.079C64.8951 28.1923 64.6512 27.231 64.6 26.25C64.57 25.8606 64.57 25.4695 64.6 25.08C64.8006 22.8179 65.8594 20.7184 67.559 19.2122C69.2586 17.706 71.4702 16.9073 73.74 16.98C74.9176 16.988 76.081 17.238 77.1578 17.7145C78.2347 18.191 79.2022 18.8839 80 19.75L77.37 22.66C76.9342 22.0425 76.364 21.5317 75.7023 21.1663C75.0407 20.8008 74.3048 20.5901 73.55 20.55" fill="#5A5B5E"/>
<path d="M97.49 25.14C97.2893 27.4295 96.2204 29.5555 94.5023 31.0821C92.7842 32.6086 90.5472 33.4201 88.25 33.35C83.3 33.35 79.84 29.82 80.17 25.13C80.5 20.44 84.44 17 89.4 17C94.36 17 97.82 20.48 97.49 25.13V25.14ZM84.49 25.13C84.4288 25.673 84.4752 26.2228 84.6265 26.7479C84.7778 27.273 85.0311 27.7632 85.372 28.1904C85.7128 28.6175 86.1344 28.9734 86.6128 29.2376C87.0912 29.5017 87.6169 29.6691 88.16 29.73H88.57C89.7838 29.688 90.9368 29.1884 91.7975 28.3314C92.6581 27.4744 93.1628 26.3236 93.21 25.11C93.2872 24.5818 93.2579 24.0434 93.1239 23.5267C92.9898 23.01 92.7536 22.5253 92.4293 22.1013C92.105 21.6773 91.6991 21.3224 91.2355 21.0577C90.7719 20.793 90.26 20.6238 89.73 20.56C89.5568 20.5498 89.3832 20.5498 89.21 20.56C87.9914 20.5929 86.8295 21.0816 85.9538 21.9296C85.078 22.7776 84.5521 23.9231 84.48 25.14" fill="#5A5B5E"/>
<path d="M103.82 17.13L110.41 26.79L111.08 17.13H115L113.87 33.18H110.22L103.62 23.56L102.95 33.17H99L100.13 17.17L103.82 17.13Z" fill="#5A5B5E"/>
<path d="M121.79 17.14L128.37 26.8L129.05 17.14H132.94L131.81 33.14H128.15L121.56 23.52L120.89 33.13H117L118.13 17.13L121.79 17.14Z" fill="#5A5B5E"/>
<path d="M148.71 17.14L148.48 20.49H140L139.79 23.49H147.42L147.19 26.81H139.56L139.34 29.81H148L147.77 33.15H135L136.12 17.15L148.71 17.14Z" fill="#5A5B5E"/>
<path d="M158.87 20.58C157.664 20.5941 156.509 21.0693 155.643 21.908C154.776 22.7467 154.264 23.8852 154.21 25.09C154.137 25.6137 154.168 26.1467 154.303 26.6582C154.437 27.1697 154.671 27.6494 154.992 28.0698C155.313 28.4901 155.714 28.8427 156.172 29.107C156.63 29.3714 157.136 29.5424 157.66 29.61C157.85 29.6249 158.04 29.6249 158.23 29.61C159.782 29.5004 161.242 28.8326 162.34 27.73L164.6 30.36C162.771 32.186 160.322 33.2569 157.74 33.36C155.759 33.4608 153.82 32.7721 152.346 31.4448C150.873 30.1176 149.986 28.2602 149.88 26.28C149.85 25.8906 149.85 25.4994 149.88 25.11C150.081 22.8479 151.139 20.7484 152.839 19.2421C154.539 17.7359 156.75 16.9373 159.02 17.01C160.198 17.0128 161.363 17.2585 162.442 17.7317C163.52 18.2048 164.49 18.8953 165.29 19.76L162.67 22.67C162.233 22.0511 161.661 21.5396 160.998 21.1741C160.334 20.8086 159.597 20.5986 158.84 20.56" fill="#5A5B5E"/>
<path d="M179.66 17.15L179.42 20.61H174.62L173.73 33.2H169.55L170.44 20.61H165.68L165.93 17.15H179.66Z" fill="#5A5B5E"/>
<path d="M0 18.33H58.84C58.84 18.33 46.48 24.59 38.84 29.21C31.2 33.83 16.68 45 16.68 45L28 27.42L0 18.33Z" fill="#CB0017"/>
<path d="M52.29 18.48L36.65 15.42L46.92 0.690002L52.29 18.48Z" fill="#CB0017"/>
</svg>
