<?xml version="1.0" encoding="UTF-8"?>
<!DOCTYPE svg PUBLIC "-//W3C//DTD SVG 1.1//EN" "http://www.w3.org/Graphics/SVG/1.1/DTD/svg11.dtd">
<svg
   version="1.1"
   id="svg2"
   width="535.10669"
   height="188.93333"
   viewBox="0 0 535.10669 188.93333"
   sodipodi:docname="AirArabia Logo - English Negative.eps"
   xmlns:inkscape="http://www.inkscape.org/namespaces/inkscape"
   xmlns:sodipodi="http://sodipodi.sourceforge.net/DTD/sodipodi-0.dtd"
   xmlns="http://www.w3.org/2000/svg"
   xmlns:svg="http://www.w3.org/2000/svg">
  <defs
     id="defs6" />
  <sodipodi:namedview
     id="namedview4"
     pagecolor="#ffffff"
     bordercolor="#000000"
     borderopacity="0.25"
     inkscape:showpageshadow="2"
     inkscape:pageopacity="0.0"
     inkscape:pagecheckerboard="0"
     inkscape:deskcolor="#d1d1d1" />
  <g
     id="g8"
     inkscape:groupmode="layer"
     inkscape:label="ink_ext_XXXXXX"
     transform="matrix(1.3333333,0,0,-1.3333333,0,188.93333)">
    <g
       id="g10"
       transform="scale(0.1)">
      <path
         d="M 4013.33,1416.98 H 0.00390625 V 0.0117188 H 4013.33 V 1416.98"
         style="fill:#ed1643;fill-opacity:1;fill-rule:nonzero;stroke:none"
         id="path12" />
      <path
         d="m 2855.84,602.047 c -4.27,-13.281 -10.79,-24.867 -19.56,-34.762 -8.78,-9.906 -20.03,-17.547 -33.76,-22.949 -13.73,-5.398 -30.02,-8.102 -48.94,-8.102 -14.41,0 -26.1,0.676 -35.09,2.02 -9.01,1.355 -14.85,2.711 -17.56,4.051 v 120.152 c 0,25.645 6.53,47.016 19.58,64.117 13.05,17.094 32.62,25.653 58.73,25.653 26.09,0 46.45,-9.571 61.1,-28.688 14.61,-19.133 21.92,-44.445 21.92,-75.934 0,-15.761 -2.15,-32.292 -6.42,-45.558 z m 56.04,182.578 c -14.64,14.395 -31.51,25.316 -50.63,32.742 -19.14,7.418 -39.49,11.137 -61.09,11.137 -15.74,0 -29.6,-1.922 -41.51,-5.742 -11.93,-3.824 -22.05,-8.332 -30.37,-13.492 -8.34,-5.18 -14.74,-10.032 -19.24,-14.512 -4.5,-4.512 -7.21,-7.434 -8.11,-8.785 v 159.574 l -94.49,-27.301 V 472.777 c 2.71,-0.433 7.98,-1.222 15.86,-2.363 7.86,-1.105 17.66,-2.121 29.37,-3.023 11.69,-0.903 24.97,-1.797 39.82,-2.711 14.85,-0.895 30.37,-1.344 46.58,-1.344 73.33,0 128.59,16.98 165.7,50.961 37.13,33.965 55.69,83.121 55.69,143.426 0,27.449 -4.28,51.863 -12.82,73.246 -8.56,21.371 -20.15,39.254 -34.76,53.656 z m -483.94,-155.27 c 0,-25.644 -6.52,-47.015 -19.58,-64.117 -13.04,-17.093 -32.62,-25.656 -58.73,-25.656 -26.08,0 -46.45,9.574 -61.09,28.691 -14.61,19.133 -21.92,44.45 -21.92,75.93 0,15.766 2.13,32.297 6.41,45.559 4.28,13.281 10.79,24.875 19.56,34.761 8.78,9.907 20.04,17.551 33.76,22.95 13.73,5.398 30.03,8.097 48.95,8.097 14.39,0 26.1,-0.672 35.09,-2.015 9,-1.356 14.85,-2.707 17.55,-4.051 z m 48.61,183.958 c -13.06,3.832 -29.04,7.324 -47.94,10.472 -18.9,3.145 -40.49,4.723 -64.8,4.723 -30.15,0 -57.14,-4.613 -80.99,-13.84 -23.87,-9.223 -44.21,-22.172 -61.09,-38.813 -16.88,-16.652 -29.82,-36.781 -38.81,-60.41 -9,-23.625 -13.5,-52.976 -13.5,-81.328 0,-27.914 4.28,-52.554 12.82,-73.922 8.55,-21.371 20.02,-39.261 34.43,-53.66 14.4,-14.398 31.26,-25.207 50.62,-32.394 19.35,-7.196 39.83,-10.805 61.43,-10.805 15.29,0 28.9,1.926 40.84,5.742 11.91,3.82 22.04,8.203 30.38,13.16 8.31,4.946 14.84,9.793 19.57,14.512 4.72,4.723 7.53,7.762 8.43,9.109 v -33.082 l 94.5,0.032 v 321.273 c -2.25,1.356 -7.21,3.934 -14.85,7.77 -7.65,3.812 -18,7.644 -31.04,11.461 z m -308.26,1.855 c -9.49,4.941 -23.24,9.215 -42.95,12.367 -11.26,1.801 -23.19,2.699 -35.77,2.699 -20.72,0 -39.84,-1.921 -57.39,-5.738 -17.55,-3.832 -32.97,-8.098 -46.24,-12.836 -13.27,-4.715 -23.95,-9.332 -32.06,-13.828 -8.1,-4.5 -13.06,-7.43 -14.84,-8.773 V 472.777 h 94.49 v 264.305 c 4.05,2.25 11.24,5.277 21.61,9.121 10.34,3.809 24.97,5.735 43.86,5.735 6.31,0 12.95,-0.461 19.92,-1.356 6.96,-0.906 12.57,-1.656 19.57,-3.699 0.58,-0.172 1.09,-0.328 1.62,-0.488 9.78,23.679 18.88,45.89 27.23,66.429 0.32,0.793 0.63,1.559 0.95,2.344 z M 3446.51,629.355 c 0,-25.644 -6.52,-47.015 -19.58,-64.117 -13.05,-17.093 -32.62,-25.656 -58.73,-25.656 -26.09,0 -46.46,9.574 -61.1,28.691 -14.6,19.133 -21.92,44.45 -21.92,75.93 0,15.766 2.14,32.297 6.42,45.559 4.27,13.281 10.79,24.875 19.56,34.761 8.78,9.907 20.04,17.551 33.76,22.95 13.73,5.398 30.03,8.097 48.94,8.097 14.4,0 26.11,-0.672 35.09,-2.015 9,-1.356 14.85,-2.707 17.56,-4.051 z m 79.65,172.497 c -7.66,3.812 -18,7.644 -31.05,11.461 -13.05,3.832 -29.03,7.324 -47.94,10.472 -18.89,3.145 -40.49,4.723 -64.79,4.723 -30.16,0 -57.15,-4.613 -81,-13.84 -23.86,-9.223 -44.21,-22.172 -61.08,-38.813 -16.89,-16.652 -29.83,-36.781 -38.82,-60.41 -8.99,-23.625 -13.5,-52.976 -13.5,-81.328 0,-27.914 4.28,-52.554 12.83,-73.922 8.54,-21.371 20.02,-39.261 34.42,-53.66 14.4,-14.398 31.27,-25.207 50.62,-32.394 19.35,-7.196 39.84,-10.805 61.43,-10.805 15.29,0 28.92,1.926 40.84,5.742 11.91,3.82 22.04,8.203 30.38,13.16 8.31,4.946 14.84,9.793 19.57,14.512 4.73,4.723 7.53,7.762 8.44,9.109 v -33.082 l 94.49,0.032 v 321.273 c -2.25,1.356 -7.21,3.934 -14.84,7.77 z m -451.17,151.796 c -14.41,0 -26.78,-4.96 -37.12,-14.851 -10.37,-9.902 -15.54,-22.055 -15.54,-36.453 0,-14.399 5.17,-26.649 15.54,-36.785 10.34,-10.121 22.71,-15.18 37.12,-15.18 14.84,0 27.44,5.059 37.8,15.18 10.34,10.136 15.53,22.386 15.53,36.785 0,14.398 -5.19,26.551 -15.53,36.453 -10.36,9.891 -22.96,14.851 -37.8,14.851 z m -46.91,-480.855 h 94.49 v 355.715 l -94.49,-27.301 z M 1565.48,665.91 c 8.16,21.922 16.42,43.992 24.8,66.16 8.35,22.188 16.05,42.559 23.06,61.153 7.02,18.597 13.24,34.578 18.69,47.925 5.41,13.344 9.25,22.407 11.53,27.176 2.27,-4.769 6.11,-13.832 11.52,-27.176 5.46,-13.347 11.68,-29.328 18.69,-47.925 7.02,-18.594 14.71,-38.965 23.07,-61.153 8.39,-22.168 16.63,-44.238 24.79,-66.16 z m 262.03,-16.445 c -11.31,29.555 -22.63,58.043 -33.93,85.473 -11.32,27.425 -21.74,52.812 -31.23,76.164 -9.5,23.363 -18.1,43.753 -25.8,61.156 -7.68,17.41 -13.8,30.863 -18.32,40.414 -9.96,22.406 -14.3,32.476 -14.3,32.476 h -120.75 c 0,0 -4.34,-10.07 -14.29,-32.476 -4.53,-9.551 -10.65,-23.004 -18.32,-40.414 -7.7,-17.403 -16.3,-37.793 -25.81,-61.156 -9.48,-23.352 -19.9,-48.739 -31.22,-76.164 -11.31,-27.43 -22.62,-55.918 -33.94,-85.473 -11.3,-29.57 -22.61,-59.36 -33.93,-89.414 -11.32,-30.031 -21.95,-59.117 -31.9,-87.242 h 99.77 l 38.7,104.418 h 222.63 l 38.71,-104.418 h 99.75 c -9.93,28.125 -20.57,57.211 -31.88,87.242 -11.32,30.054 -22.63,59.844 -33.94,89.414 z m -755.95,304.183 c -14.42,0 -26.79,-4.96 -37.13,-14.851 -10.36,-9.902 -15.54,-22.055 -15.54,-36.453 0,-14.399 5.18,-26.649 15.54,-36.785 10.34,-10.121 22.71,-15.18 37.13,-15.18 14.83,0 27.43,5.059 37.79,15.18 10.33,10.136 15.53,22.386 15.53,36.785 0,14.398 -5.2,26.551 -15.53,36.453 -10.36,9.891 -22.96,14.851 -37.79,14.851 z m -46.93,-480.855 h 94.5 v 355.715 l -94.5,-27.301 z M 644.508,665.91 c 8.152,21.922 16.414,43.992 24.793,66.16 8.351,22.188 16.054,42.559 23.066,61.153 7.012,18.597 13.235,34.578 18.684,47.925 5.418,13.344 9.265,22.407 11.531,27.176 2.277,-4.769 6.113,-13.832 11.535,-27.176 5.449,-13.347 11.668,-29.328 18.68,-47.925 7.012,-18.594 14.707,-38.965 23.066,-61.153 8.391,-22.168 16.633,-44.238 24.797,-66.16 z m 262.031,-16.445 c -11.32,29.555 -22.629,58.043 -33.937,85.473 -11.317,27.425 -21.739,52.812 -31.231,76.164 -9.5,23.363 -18.094,43.753 -25.801,61.156 -7.675,17.41 -13.797,30.863 -18.32,40.414 -9.961,22.406 -14.297,32.476 -14.297,32.476 h -120.75 c 0,0 -4.336,-10.07 -14.289,-32.476 -4.531,-9.551 -10.644,-23.004 -18.32,-40.414 -7.703,-17.403 -16.297,-37.793 -25.801,-61.156 -9.492,-23.352 -19.91,-48.739 -31.23,-76.164 -11.309,-27.43 -22.618,-55.918 -33.934,-85.473 -11.309,-29.57 -22.617,-59.36 -33.938,-89.414 -11.316,-30.031 -21.953,-59.117 -31.882,-87.242 h 99.754 l 38.703,104.418 h 222.625 l 38.711,-104.418 h 99.757 c -9.921,28.125 -20.578,57.211 -31.886,87.242 -11.317,30.054 -22.625,59.844 -33.934,89.414 z m 502.611,96.93 c 9.77,23.679 18.87,45.89 27.22,66.429 0.32,0.793 0.64,1.559 0.95,2.344 -9.48,4.941 -23.24,9.215 -42.95,12.367 -11.26,1.801 -23.18,2.699 -35.77,2.699 -20.71,0 -39.84,-1.921 -57.38,-5.738 -17.55,-3.832 -32.97,-8.098 -46.24,-12.836 -13.28,-4.715 -23.96,-9.332 -32.07,-13.828 -8.1,-4.5 -13.06,-7.43 -14.84,-8.773 V 472.777 h 94.49 v 264.305 c 4.06,2.25 11.24,5.277 21.61,9.121 10.35,3.809 24.98,5.735 43.86,5.735 6.31,0 12.95,-0.461 19.92,-1.356 6.97,-0.906 12.57,-1.656 19.57,-3.699 0.58,-0.172 1.08,-0.328 1.63,-0.488"
         style="fill:#ffffff;fill-opacity:1;fill-rule:nonzero;stroke:none"
         id="path14" />
    </g>
  </g>
</svg>
