<?xml version="1.0" encoding="UTF-8"?>
<!DOCTYPE svg PUBLIC "-//W3C//DTD SVG 1.1//EN" "http://www.w3.org/Graphics/SVG/1.1/DTD/svg11.dtd">
<svg version="1.1" xmlns="http://www.w3.org/2000/svg" xmlns:xlink="http://www.w3.org/1999/xlink"
	x="0px" y="0px" width="145px" height="45px" viewBox="0 0 145 45" enable-background="new 0 0 145 45" xml:space="preserve">
<g>
	<g>
		<defs>
			<rect id="SVGID_1_" x="-69.331" y="-18.021" width="283.664" height="95.656"/>
		</defs>
		<clipPath id="SVGID_2_">
			<use xlink:href="#SVGID_1_"  overflow="visible"/>
		</clipPath>
		<g clip-path="url(#SVGID_2_)">
			<defs>
				<rect id="SVGID_3_" x="-69.331" y="-18.021" width="283.664" height="95.656"/>
			</defs>
			<clipPath id="SVGID_4_">
				<use xlink:href="#SVGID_3_"  overflow="visible"/>
			</clipPath>
			<path clip-path="url(#SVGID_4_)" fill="#00A1DF" d="M15.322,15.999H8.693v17.75c0,1.868-0.353,3.201-1.062,3.994
				c-0.708,0.793-1.87,1.189-3.483,1.189c-0.177,0-0.348-0.014-0.521-0.022l-2.225,5.405c0.982,0.178,2.067,0.269,3.253,0.269
				c2.098,0,3.831-0.277,5.206-0.83c1.374-0.553,2.464-1.302,3.271-2.252c0.809-0.947,1.374-2.061,1.7-3.336
				c0.326-1.274,0.488-2.634,0.488-4.076V15.999z"/>
			<path clip-path="url(#SVGID_4_)" fill="#40B4E5" d="M123.436,21.038c-0.738,0-1.466,0.036-2.188,0.105
				c-0.724,0.071-1.411,0.156-2.061,0.255c-0.344,0.051-0.672,0.108-0.986,0.167v0.005c-0.193,0.034-0.386,0.072-0.579,0.112
				c-0.48,0.1-0.9,0.221-1.24,0.36v5.226c0.527-0.13,1.729-0.688,4.806-0.688c0.232,0,0.474,0.003,0.727,0.01
				c0.396,0.011,0.87,0.035,1.422,0.105c0.553,0.071,0.972,0.149,1.255,0.234l0.128,0.036c0.593,0.163,1.057,0.411,1.393,0.748
				c0.652,0.651,0.979,1.084,0.979,2.16v0.528c-1.368-0.089-3.023-0.19-3.739-0.19c-1.218,0-2.394,0.12-3.526,0.36
				c-1.134,0.24-2.14,0.632-3.017,1.169c-0.877,0.538-1.579,1.261-2.103,2.167c-0.524,0.906-0.787,2.011-0.787,3.313
				c0,1.359,0.227,2.507,0.68,3.44c0.453,0.936,1.106,1.693,1.956,2.274c0.848,0.579,1.861,0.998,3.037,1.254
				c1.174,0.255,2.484,0.381,3.93,0.381c2.293,0,4.249-0.134,5.863-0.403c1.613-0.269,2.874-0.503,3.781-0.699V30.171
				c0-1.387-0.156-2.648-0.468-3.78c-0.312-1.133-0.844-2.096-1.595-2.889c-0.749-0.793-1.748-1.403-2.993-1.828
				C126.862,21.25,125.305,21.038,123.436,21.038 M123.945,39.686c-1.162,0-2.076-0.19-2.74-0.574
				c-0.666-0.383-0.998-1.068-0.998-2.061c0-0.509,0.112-0.934,0.34-1.274c0.227-0.339,0.538-0.608,0.935-0.807
				c0.234-0.116,1.26-0.305,2.622-0.305c0.894,0,1.932,0.081,2.986,0.315v4.535c-0.341,0.057-0.794,0.1-1.36,0.127
				C125.163,39.672,124.568,39.686,123.945,39.686"/>
			<path clip-path="url(#SVGID_4_)" fill="#40B4E5" d="M90.573,5.316c-0.749-0.049-1.152-0.114-1.545-0.114
				c-0.665,0-1.299,0.025-1.919,0.156c-0.619,0.131-1.17,0.345-1.65,0.64c-0.479,0.294-0.863,0.689-1.149,1.185
				c-0.286,0.496-0.43,1.1-0.43,1.813c0,0.744,0.124,1.371,0.371,1.882c0.248,0.512,0.604,0.926,1.069,1.243
				c0.464,0.318,1.019,0.547,1.661,0.687c0.643,0.139,1.257,0.209,2.047,0.209c1.255,0,1.535-0.075,2.418-0.222
				c0.883-0.148,1.572-0.275,2.068-0.383V5.708L90.573,5.316z M88.865,10.343c-0.636,0-1.136-0.104-1.498-0.314
				C87.003,9.82,86.82,9.444,86.82,8.902c0-0.279,0.062-0.512,0.187-0.698c0.123-0.186,0.294-0.333,0.511-0.441
				c0.129-0.063,0.688-0.167,1.435-0.167c0.488,0,1.056,0.045,1.633,0.172v2.48c-0.186,0.032-0.435,0.055-0.744,0.07
				C89.531,10.335,89.206,10.343,88.865,10.343"/>
			<path clip-path="url(#SVGID_4_)" fill="#004A97" d="M55.189,21.64H37.431v5.269h9.515c-0.764,0.904-1.599,1.919-2.505,3.036
				c-0.908,1.119-1.82,2.274-2.741,3.462c-0.921,1.191-1.799,2.374-2.634,3.548c-0.836,1.176-1.55,2.273-2.145,3.293v3.739h18.481
				v-5.269H44.588c0.823-1.189,1.737-2.422,2.747-3.696c1.006-1.274,2.006-2.491,3.001-3.654c0.992-1.16,1.923-2.222,2.788-3.185
				c0.866-0.963,1.554-1.728,2.065-2.295V21.64z"/>
			<path clip-path="url(#SVGID_4_)" fill="#001689" d="M66.43,21.045c-1.358,0-2.682,0.254-3.971,0.764
				c-1.291,0.509-2.429,1.261-3.421,2.251c-0.991,0.992-1.791,2.23-2.399,3.719c-0.609,1.487-0.914,3.222-0.914,5.204
				c0,1.644,0.233,3.174,0.701,4.589c0.468,1.416,1.189,2.641,2.167,3.675c0.979,1.034,2.209,1.848,3.696,2.443
				c1.487,0.595,3.236,0.892,5.248,0.892c0.792,0,1.586-0.042,2.379-0.127c0.792-0.085,1.535-0.191,2.229-0.319
				s1.326-0.277,1.892-0.445c0.566-0.17,1.716-0.545,2.549-1.047v-5.362c-2.211,0.867-3.304,1.189-4.779,1.544
				c-1.109,0.265-2.26,0.318-3.42,0.318c-1.813,0-3.257-0.381-4.333-1.147c-1.079-0.764-1.686-1.799-1.827-3.1h14.36
				c0.027-0.342,0.057-0.73,0.084-1.17c0.029-0.438,0.042-0.843,0.042-1.21c0-3.768-0.92-6.62-2.762-8.562
				C72.108,22.015,69.602,21.045,66.43,21.045 M62.225,30.562c0.084-0.538,0.218-1.068,0.403-1.593
				c0.183-0.524,0.445-0.984,0.786-1.382c0.339-0.395,0.764-0.715,1.274-0.954c0.511-0.24,1.118-0.361,1.828-0.361
				c0.736,0,1.352,0.126,1.848,0.382c0.495,0.255,0.906,0.581,1.231,0.977c0.327,0.397,0.566,0.851,0.723,1.359
				c0.155,0.511,0.248,1.034,0.275,1.572H62.225z"/>
			<path clip-path="url(#SVGID_4_)" fill="#0082CA" d="M88.783,21.045c-1.359,0-2.686,0.254-3.974,0.764
				c-1.288,0.509-2.429,1.261-3.419,2.251c-0.992,0.992-1.791,2.23-2.4,3.719c-0.609,1.487-0.914,3.222-0.914,5.204
				c0,1.644,0.232,3.174,0.701,4.589c0.468,1.416,1.189,2.641,2.167,3.675c0.976,1.034,2.208,1.848,3.695,2.443
				c1.487,0.595,3.237,0.892,5.248,0.892c0.792,0,1.586-0.042,2.379-0.127s1.537-0.191,2.229-0.319
				c0.694-0.128,1.325-0.277,1.892-0.445c0.566-0.17,1.717-0.545,2.549-1.047v-5.362c-2.211,0.867-3.305,1.189-4.778,1.544
				c-1.11,0.265-2.26,0.318-3.421,0.318c-1.814,0-3.257-0.381-4.334-1.147c-1.076-0.764-1.685-1.799-1.827-3.1h14.36
				c0.028-0.342,0.057-0.73,0.085-1.17c0.027-0.438,0.042-0.843,0.042-1.21c0-3.768-0.92-6.62-2.762-8.562
				C94.461,22.015,91.954,21.045,88.783,21.045 M84.576,30.562c0.086-0.538,0.219-1.068,0.404-1.593
				c0.184-0.524,0.445-0.984,0.785-1.382c0.341-0.395,0.765-0.715,1.275-0.954c0.51-0.24,1.118-0.361,1.827-0.361
				c0.735,0,1.352,0.126,1.849,0.382c0.494,0.255,0.905,0.581,1.231,0.977c0.325,0.397,0.565,0.851,0.722,1.359
				c0.155,0.511,0.247,1.034,0.276,1.572H84.576z"/>
			<path clip-path="url(#SVGID_4_)" fill="#139BD7" d="M109.639,21.172c-1.897,0-3.618,0.177-5.161,0.531
				c-1.545,0.354-2.883,0.73-4.017,1.127v21.156h6.331V26.908c0.282-0.086,0.7-0.162,1.253-0.234
				c0.552-0.069,1.026-0.103,1.423-0.105c0.06-0.001,0.118-0.001,0.178-0.001c2.5,0,4.792,0.542,5.347,0.681v-5.226
				c-0.341-0.142-0.75-0.261-1.232-0.361c-0.483-0.1-0.963-0.184-1.444-0.255s-0.963-0.128-1.444-0.171
				C110.39,21.193,109.979,21.172,109.639,21.172"/>
			<path clip-path="url(#SVGID_4_)" fill="#0082CA" d="M25.832,21.038c-0.738,0-1.465,0.036-2.188,0.105
				c-0.723,0.071-1.411,0.156-2.061,0.255c-0.343,0.051-0.671,0.108-0.986,0.167v0.005c-0.193,0.034-0.385,0.072-0.579,0.112
				c-0.481,0.1-0.9,0.221-1.24,0.36v5.226c0.527-0.13,1.729-0.688,4.806-0.688c0.232,0,0.473,0.003,0.727,0.01
				c0.396,0.011,0.871,0.035,1.422,0.105c0.553,0.071,0.972,0.149,1.255,0.234l0.129,0.036c0.59,0.163,1.055,0.411,1.392,0.748
				c0.652,0.651,0.977,1.084,0.977,2.16v0.528c-1.367-0.089-3.022-0.19-3.739-0.19c-1.217,0-2.393,0.12-3.526,0.36
				c-1.134,0.24-2.139,0.632-3.017,1.169c-0.876,0.538-1.579,1.261-2.102,2.167c-0.524,0.906-0.787,2.011-0.787,3.313
				c0,1.359,0.227,2.507,0.68,3.44c0.454,0.936,1.104,1.693,1.956,2.274c0.849,0.579,1.861,0.998,3.037,1.254
				c1.174,0.255,2.484,0.381,3.93,0.381c2.293,0,4.248-0.134,5.863-0.403c1.613-0.269,2.875-0.503,3.781-0.699V30.171
				c0-1.387-0.156-2.648-0.467-3.78c-0.313-1.133-0.844-2.096-1.594-2.889c-0.751-0.793-1.749-1.403-2.994-1.828
				C29.259,21.25,27.701,21.038,25.832,21.038 M26.342,39.686c-1.163,0-2.077-0.19-2.74-0.574c-0.666-0.383-0.999-1.068-0.999-2.061
				c0-0.509,0.113-0.934,0.341-1.274c0.226-0.339,0.538-0.608,0.934-0.807c0.233-0.116,1.26-0.305,2.622-0.305
				c0.894,0,1.932,0.081,2.985,0.315v4.535c-0.339,0.057-0.793,0.1-1.359,0.127C27.559,39.672,26.965,39.686,26.342,39.686"/>

				<rect x="136.106" y="36.458" transform="matrix(-0.707 -0.7072 0.7072 -0.707 209.658 165.9799)" clip-path="url(#SVGID_4_)" fill="#0082CA" width="6.207" height="6.207"/>
			<path clip-path="url(#SVGID_4_)" fill="#004A97" d="M117.536,14.773c-0.772,0-1.41,0.636-1.41,1.409s0.638,1.411,1.41,1.411
				c0.771,0,1.408-0.638,1.408-1.411S118.308,14.773,117.536,14.773"/>
			<path clip-path="url(#SVGID_4_)" fill="#40B4E5" d="M91.589,3.836c0.772,0,1.409-0.637,1.409-1.409
				c0-0.774-0.637-1.411-1.409-1.411S90.18,1.653,90.18,2.427C90.18,3.199,90.816,3.836,91.589,3.836"/>
			<path clip-path="url(#SVGID_4_)" fill="#40B4E5" d="M88.561,3.836c0.772,0,1.409-0.637,1.409-1.409
				c0-0.774-0.637-1.411-1.409-1.411s-1.409,0.637-1.409,1.411C87.151,3.199,87.788,3.836,88.561,3.836"/>
			<path clip-path="url(#SVGID_4_)" fill="#0082CA" d="M101.032,14.772c-0.772,0-1.41,0.637-1.41,1.41s0.638,1.411,1.41,1.411
				c0.771,0,1.409-0.638,1.409-1.411S101.804,14.772,101.032,14.772"/>
			<path clip-path="url(#SVGID_4_)" fill="#0082CA" d="M104.06,14.772c-0.771,0-1.409,0.637-1.409,1.41s0.638,1.411,1.409,1.411
				c0.773,0,1.409-0.638,1.409-1.411S104.833,14.772,104.06,14.772"/>
			<path clip-path="url(#SVGID_4_)" fill="#004A97" d="M127.777,0.429h-2.939v6.662v1.804c0,1.47-0.531,2.303-2.017,2.303h-0.031
				V9.061c0-2.728-1.408-4.062-4.304-4.062h-0.697c-1.016,0-2.168,0.076-3.138,0.456v2.318c0.243-0.061,0.773-0.303,2.138-0.303
				h1.016c0.908,0,2.303,0.242,2.303,1.455v2.273c0-0.015-5.578,0-5.578,0h-0.425c-0.494,0-0.974-0.044-1.47-0.089l-0.018,2.354
				c0.553,0.045,1.118,0.07,1.7,0.07h0.212h0.152h6.548h1.561h0.244c3.046,0,4.743-1.591,4.743-4.653V7.091V0.429z"/>
			<rect x="130.146" y="0.43" clip-path="url(#SVGID_4_)" fill="#40B4E5" width="2.939" height="13.104"/>
			<path clip-path="url(#SVGID_4_)" fill="#0082CA" d="M101.016,13.532h-1.923c-0.21,2.674-1.886,4.062-4.729,4.062H94v-2.5h0.151
				c1.486,0,2.017-0.833,2.017-2.305v-1.576v-0.318v-0.379V9.91V5.135H99.1v6.063h1.78l0.354,0h0.413
				c1.484,0,2.016-0.833,2.016-2.303V7.091V5.125h2.939v1.966V8.88c0,3.062-1.697,4.653-4.743,4.653L101.016,13.532z"/>

				<rect x="78.668" y="9.875" transform="matrix(0.7072 -0.707 0.707 0.7072 15.4487 59.9707)" clip-path="url(#SVGID_4_)" fill="#0082CA" width="2.919" height="2.919"/>
			<path clip-path="url(#SVGID_4_)" fill="#001689" d="M111.063,3.836c0.772,0,1.409-0.637,1.409-1.409
				c0-0.774-0.637-1.411-1.409-1.411c-0.771,0-1.409,0.637-1.409,1.411C109.653,3.199,110.291,3.836,111.063,3.836"/>
			<path clip-path="url(#SVGID_4_)" fill="#001689" d="M109.721,5.135V9.91v0.606v0.379v0.318v1.576
				c0,1.472-0.531,2.305-2.017,2.305h-0.151v2.5h0.363c2.869,0,4.551-1.411,4.736-4.13V5.135H109.721z"/>
		</g>
	</g>
</g>
</svg>
