<?xml version="1.0" encoding="UTF-8" standalone="no"?>
<!DOCTYPE svg PUBLIC "-//W3C//DTD SVG 1.1//EN" "http://www.w3.org/Graphics/SVG/1.1/DTD/svg11.dtd">
<svg
   version="1.1" x="0px" y="0px" width="66.345833mm" height="11.097697mm" viewBox="0 0 66.345833 11.097697"
   xmlns:dc="http://purl.org/dc/elements/1.1/"
   xmlns:cc="http://creativecommons.org/ns#"
   xmlns:rdf="http://www.w3.org/1999/02/22-rdf-syntax-ns#"
   xmlns:svg="http://www.w3.org/2000/svg"
   xmlns="http://www.w3.org/2000/svg"
   xmlns:sodipodi="http://sodipodi.sourceforge.net/DTD/sodipodi-0.dtd"
   xmlns:inkscape="http://www.inkscape.org/namespaces/inkscape"
   inkscape:version="0.92.4 (5da689c313, 2019-01-14)"
   sodipodi:docname="drawing.svg">
  <defs
     id="defs1010" />
  <sodipodi:namedview
     id="base"
     pagecolor="#ffffff"
     bordercolor="#666666"
     borderopacity="1.0"
     inkscape:pageopacity="0.0"
     inkscape:pageshadow="2"
     inkscape:zoom="11.2"
     inkscape:cx="71.137711"
     inkscape:cy="23.774152"
     inkscape:document-units="mm"
     inkscape:current-layer="layer1"
     showgrid="false"
     fit-margin-top="0.1"
     fit-margin-left="0.1"
     fit-margin-right="0.1"
     fit-margin-bottom="0.1"
     inkscape:window-width="1920"
     inkscape:window-height="1001"
     inkscape:window-x="-9"
     inkscape:window-y="-9"
     inkscape:window-maximized="1" />
  <metadata
     id="metadata1013">
    <rdf:RDF>
      <cc:Work
         rdf:about="">
        <dc:format>image/svg+xml</dc:format>
        <dc:type
           rdf:resource="http://purl.org/dc/dcmitype/StillImage" />
        <dc:title></dc:title>
      </cc:Work>
    </rdf:RDF>
  </metadata>
  <g
     inkscape:label="Layer 1"
     inkscape:groupmode="layer"
     id="layer1"
     transform="translate(-68.739144,-156.22376)">
    <g
       id="g36"
       transform="matrix(0.57869358,0,0,-0.57869358,107.8483,166.22831)">
      <path
         d="M 0,0 0.689,1.968 C 0.809,2.305 1.132,2.499 1.413,2.401 1.618,2.329 1.744,2.137 1.752,1.899 1.757,1.844 1.766,1.772 1.809,1.705 2.423,0.612 3.832,-0.118 5.527,0.001 6.987,0.104 7.562,1.05 7.482,2.189 7.452,2.617 7.164,3.051 7.058,3.197 6.877,3.432 3.814,7.112 3.814,7.112 3.131,8.034 2.684,9.151 2.598,10.376 c -0.241,3.443 2.313,6.422 6.421,6.709 2.583,0.186 4.614,-0.496 6.151,-1.68 l -0.68,-1.937 c -0.118,-0.337 -0.442,-0.531 -0.722,-0.433 -0.205,0.072 -0.331,0.264 -0.339,0.501 -0.005,0.056 -0.015,0.128 -0.057,0.195 -0.623,1.082 -1.797,1.786 -3.482,1.667 C 8.429,15.296 7.614,14.269 7.696,13.079 7.713,12.846 7.771,12.627 7.854,12.421 8.029,12.001 8.248,11.602 8.516,11.244 L 10.214,9.209 10.995,8.26 C 11.68,7.34 12.506,6.248 12.592,5.021 12.832,1.58 10.278,-1.398 6.171,-1.686 3.588,-1.872 1.538,-1.185 0,0 m 31.723,0 0.689,1.968 c 0.118,0.337 0.442,0.531 0.724,0.433 0.204,-0.072 0.33,-0.264 0.338,-0.502 0.005,-0.055 0.014,-0.127 0.057,-0.194 0.614,-1.093 2.023,-1.823 3.718,-1.704 1.46,0.103 2.035,1.049 1.956,2.188 -0.03,0.428 -0.318,0.862 -0.424,1.008 -0.181,0.235 -3.245,3.915 -3.245,3.915 -0.683,0.922 -1.13,2.039 -1.216,3.264 -0.241,3.443 2.313,6.422 6.421,6.709 2.582,0.186 4.613,-0.496 6.152,-1.68 l -0.681,-1.937 c -0.118,-0.337 -0.441,-0.531 -0.723,-0.433 -0.205,0.072 -0.331,0.264 -0.339,0.501 -0.004,0.056 -0.014,0.128 -0.056,0.195 -0.623,1.082 -1.797,1.786 -3.483,1.667 -1.46,-0.102 -2.275,-1.129 -2.192,-2.319 0.016,-0.233 0.074,-0.452 0.156,-0.658 0.176,-0.42 0.395,-0.819 0.662,-1.177 L 41.936,9.209 42.718,8.26 C 43.401,7.34 44.229,6.248 44.313,5.021 44.555,1.58 42.001,-1.398 37.893,-1.686 35.31,-1.872 33.261,-1.185 31.723,0 m -8.136,14.673 -3.455,-7.97 c -0.301,-0.7 -0.87,-2.052 -0.902,-2.992 0,-0.738 0.458,-1.263 1.057,-1.422 0.178,-0.042 0.403,-0.103 0.595,-0.103 0.973,0 1.817,0.588 2.18,1.43 l 5.552,12.875 6.378,-0.001 c 0.08,0.003 0.16,-0.01 0.238,-0.043 0.29,-0.123 0.416,-0.453 0.301,-0.744 -0.076,-0.191 -0.226,-0.295 -0.489,-0.327 -0.476,-0.075 -0.672,-0.293 -0.849,-0.71 L 31.038,7.371 C 29.391,3.13 25.256,0.141 20.433,0.141 c -1.595,0 -3.098,0.367 -4.455,1.018 -1.282,0.66 -2.17,1.995 -2.17,3.535 0.033,1.58 0.397,3.113 1.029,4.468 l 2.504,5.8 c 0.011,0.028 0.02,0.062 0.02,0.095 0.005,0.205 -0.154,0.311 -0.254,0.355 -0.232,0.09 -0.379,0.282 -0.379,0.51 0,0.314 0.305,0.568 0.681,0.568 h 6.968 c 0.08,0.003 0.159,-0.01 0.237,-0.043 0.29,-0.123 0.416,-0.453 0.301,-0.744 -0.076,-0.191 -0.226,-0.295 -0.489,-0.327 -0.476,-0.075 -0.662,-0.287 -0.839,-0.703 M -11.314,8.969 h 3.355 l -0.914,3.955 z m -56.095,-8.151 6.183,14.374 c 0.01,0.029 0.02,0.064 0.021,0.095 0.004,0.206 -0.154,0.312 -0.254,0.356 -0.232,0.09 -0.381,0.282 -0.381,0.511 0,0.313 0.306,0.567 0.683,0.567 h 6.727 l 3.851,-0.012 c 1.172,0 2.208,-0.69 2.64,-1.703 0.247,-0.616 0.376,-1.282 0.376,-1.988 0,-1.11 -0.342,-2.141 -0.921,-2.995 -1.241,-1.839 -3.275,-2.941 -5.471,-2.941 h -4.649 L -60.661,2.25 c -0.01,-0.027 -0.027,-0.062 -0.027,-0.095 0,-0.115 0.082,-0.215 0.18,-0.259 0.234,-0.089 0.381,-0.282 0.381,-0.509 0,-0.315 -0.305,-0.569 -0.682,-0.569 z m 9.64,8.142 2.608,6.059 c 0,0 0.416,0.011 0.556,-0.011 0.286,-0.045 0.504,-0.112 0.73,-0.244 1.044,-0.614 1.124,-2.357 0.178,-3.894 -0.717,-1.167 -1.759,-1.895 -3.054,-1.904 z m 15.957,-0.817 -2.421,-5.623 5.665,-0.004 c 0.451,0 0.758,0.155 1.013,0.563 0.134,0.231 0.39,0.358 0.626,0.358 0.315,0 0.569,-0.254 0.569,-0.568 0,-0.085 -0.02,-0.164 -0.053,-0.236 l -0.791,-1.818 h -14.124 l 6.133,14.218 c 0.007,0.029 0.02,0.206 0.017,0.238 -0.017,0.225 -0.276,0.344 -0.375,0.388 -0.233,0.09 -0.38,0.282 -0.38,0.511 0,0.313 0.261,0.554 0.699,0.554 h 12.863 l -0.969,-2.245 c -0.148,-0.345 -0.502,-0.525 -0.79,-0.401 -0.209,0.091 -0.327,0.302 -0.319,0.552 -0.001,0.108 -0.035,0.296 -0.226,0.373 -0.029,0.012 -0.082,0.016 -0.112,0.018 h -4.052 l -2.284,-5.301 3.406,0.004 c 0.385,0.027 0.607,0.066 0.838,0.436 0.132,0.23 0.389,0.358 0.626,0.358 0.313,0 0.513,-0.254 0.513,-0.568 0,-0.085 -0.02,-0.164 -0.053,-0.236 l -0.923,-2.111 c -0.148,-0.347 -0.503,-0.526 -0.791,-0.403 -0.21,0.09 -0.272,0.302 -0.263,0.551 -10e-4,0.108 -0.036,0.297 -0.226,0.374 -0.021,0.008 -0.051,0.012 -0.078,0.015 z M -6.359,0.822 c -0.377,0 -0.676,0.251 -0.676,0.565 0,0.228 0.147,0.42 0.379,0.509 0.099,0.045 0.264,0.152 0.254,0.357 -10e-4,0.035 -0.004,0.048 -0.012,0.079 l -1.099,4.705 h -4.993 l -2.889,-4.68 c -0.022,-0.048 -0.027,-0.072 -0.027,-0.093 -0.004,-0.207 0.156,-0.312 0.255,-0.355 0.233,-0.09 0.382,-0.28 0.383,-0.509 0.002,-0.313 -0.302,-0.569 -0.678,-0.571 l -2.965,-0.007 c -0.081,-0.003 -0.162,0.013 -0.241,0.046 -0.289,0.122 -0.424,0.456 -0.301,0.744 0.092,0.219 0.29,0.3 0.554,0.332 0.372,0.06 0.561,0.201 0.735,0.461 l 9.048,14.313 5.542,0.001 c 0.376,0 0.68,-0.261 0.68,-0.575 0,-0.228 -0.148,-0.42 -0.38,-0.51 -0.1,-0.045 -0.251,-0.148 -0.246,-0.354 L 0.33,0.822 Z m -10.195,8.202 c 0.079,0.003 0.159,-0.01 0.239,-0.044 0.288,-0.122 0.416,-0.452 0.299,-0.744 -0.075,-0.191 -0.225,-0.295 -0.489,-0.327 -0.475,-0.075 -0.666,-0.277 -0.843,-0.692 l -2.735,-6.339 h -5.558 l -0.235,0.429 c -1.528,-0.636 -2.827,-0.882 -4.602,-0.882 -2.822,0 -5.128,2.287 -5.128,5.108 0,0.175 0.002,0.348 0.02,0.517 0.723,6.211 5.984,11.065 12.389,11.065 3.086,0 4.844,-0.569 7.425,-1.825 l -0.682,-1.628 c -0.022,-0.05 -0.047,-0.095 -0.076,-0.137 -0.174,-0.254 -0.471,-0.377 -0.715,-0.264 -0.306,0.139 -0.236,0.328 -0.381,0.64 -0.237,0.513 -0.551,0.676 -0.751,0.814 -1.002,0.632 -1.678,0.656 -2.362,0.656 -1.617,0 -3.081,-0.606 -4.201,-1.605 -2.422,-2.146 -4.112,-5.039 -4.586,-8.562 -0.016,-0.107 -0.025,-0.216 -0.025,-0.328 0,-1.253 0.999,-2.285 2.253,-2.285 1.537,0 2.379,0.888 2.969,2.203 l 1.082,2.54 c 0.01,0.028 0.025,0.118 0.025,0.15 0,0.331 -0.271,0.424 -0.371,0.469 -0.232,0.09 -0.385,0.276 -0.385,0.504 0,0.314 0.243,0.568 0.681,0.568"
         style="fill:#e31f26;fill-opacity:1;fill-rule:evenodd;stroke:none"
         id="path38"
         inkscape:connector-curvature="0" />
    </g>
  </g>
</svg>
