<?xml version="1.0" encoding="UTF-8"?>
<svg xmlns="http://www.w3.org/2000/svg" xmlns:xlink="http://www.w3.org/1999/xlink"
  width="171.448" height="74.998596" version="1.1" viewBox="0 0 171.44799 74.998596">
 <defs id="defs858">
  <clipPath id="clip-path">
   <rect id="Rectangle_29123" width="171.44901" height="75" fill="none" data-name="Rectangle 29123"/>
  </clipPath>
 </defs>
 <g id="Group_50439" transform="translate(0 -.00140641)" fill="#753bbd" data-name="Group 50439">
  <g id="Group_50438" clip-path="url(#clip-path)" fill="#753bbd" data-name="Group 50438">
   <g id="g1077">
    <path id="Path_60231" d="m23.473 74.799594h-2.977v-11.372h2.977v4.174h3.407v-4.174h2.977v11.372h-2.977v-4.838h-3.407z" data-name="Path 60231"/>
    <path id="Path_60232" transform="translate(-123.963,-264.32)" d="m162.439 336.6 0.278 2.18a4.69 4.69 0 0 1-1.306 0.394 9.414 9.414 0 0 1-1.647 0.147 5.468 5.468 0 0 1-2.543-0.549 3.828 3.828 0 0 1-1.624-1.562 4.895 4.895 0 0 1-0.564-2.42 4.717 4.717 0 0 1 0.5-2.234 3.541 3.541 0 0 1 1.43-1.469 4.4 4.4 0 0 1 2.18-0.518 3.578 3.578 0 0 1 2.682 0.974 3.8 3.8 0 0 1 0.951 2.767q0 0.232-0.015 0.6t-0.031 0.611h-4.7a1.978 1.978 0 0 0 2.149 1.747 4.4 4.4 0 0 0 1.276-0.193 2.856 2.856 0 0 0 0.982-0.472m-3.247-4.1q-1.052 0-1.221 1.469h2.3a1.791 1.791 0 0 0-0.286-1.082 0.935 0.935 0 0 0-0.8-0.387" data-name="Path 60232"/>
    <path id="Path_60233" transform="translate(-158.816,-264.321)" d="m201.528 339.12h-2.907v-8.349h2.861v1.376a2.714 2.714 0 0 1 0.951-1.2 2.21 2.21 0 0 1 1.229-0.379q0.139 0 0.294 0.015a1.978 1.978 0 0 1 0.278 0.047l-0.294 2.829a1.475 1.475 0 0 0-0.742-0.155 1.821 1.821 0 0 0-1.02 0.294 1.663 1.663 0 0 0-0.649 0.8z" data-name="Path 60233"/>
    <path id="Path_60234" transform="translate(-182.441,-264.32)" d="m235.574 336.6 0.278 2.18a4.69 4.69 0 0 1-1.306 0.394 9.414 9.414 0 0 1-1.647 0.147 5.468 5.468 0 0 1-2.543-0.549 3.828 3.828 0 0 1-1.624-1.562 4.895 4.895 0 0 1-0.564-2.42 4.717 4.717 0 0 1 0.5-2.234 3.54 3.54 0 0 1 1.43-1.469 4.4 4.4 0 0 1 2.18-0.518 3.578 3.578 0 0 1 2.682 0.974 3.8 3.8 0 0 1 0.951 2.767q0 0.232-0.015 0.6t-0.031 0.611h-4.7a1.978 1.978 0 0 0 2.149 1.747 4.405 4.405 0 0 0 1.276-0.193 2.86 2.86 0 0 0 0.982-0.472m-3.247-4.1q-1.052 0-1.221 1.469h2.3a1.791 1.791 0 0 0-0.286-1.082 0.935 0.935 0 0 0-0.8-0.387" data-name="Path 60234"/>
    <path id="Path_60235" transform="translate(-230.126,-250.75)" d="m292.1 325.549h-2.9v-6.293h-1.4v-2.056h1.407a3.737 3.737 0 0 1 1.1-2.682 3.945 3.945 0 0 1 2.767-0.92 6.585 6.585 0 0 1 0.789 0.047 3.54 3.54 0 0 1 0.742 0.17l-0.278 2.211a1.341 1.341 0 0 0-0.881-0.247 1.322 1.322 0 0 0-0.99 0.364 1.453 1.453 0 0 0-0.355 1.059h1.933v2.056h-1.934z" data-name="Path 60235"/>
    <path id="Path_60236" transform="translate(-257.083,-264.321)" d="m325.816 339.321a4.6 4.6 0 0 1-2.4-0.572 3.557 3.557 0 0 1-1.423-1.592 5.546 5.546 0 0 1-0.471-2.35 4.948 4.948 0 0 1 0.471-2.211 3.388 3.388 0 0 1 1.43-1.492 5.632 5.632 0 0 1 4.785 0 3.4 3.4 0 0 1 1.422 1.492 4.95 4.95 0 0 1 0.472 2.211 5.626 5.626 0 0 1-0.464 2.35 3.51 3.51 0 0 1-1.415 1.592 4.6 4.6 0 0 1-2.4 0.572m0-2.149a1.05 1.05 0 0 0 1-0.618 3.906 3.906 0 0 0 0.317-1.747 3.094 3.094 0 0 0-0.317-1.546 1.073 1.073 0 0 0-1-0.541 1.09 1.09 0 0 0-1.005 0.541 3.03 3.03 0 0 0-0.325 1.546 3.745 3.745 0 0 0 0.332 1.747 1.07 1.07 0 0 0 1 0.618" data-name="Path 60236"/>
    <path id="Path_60237" transform="translate(-295.328,-264.321)" d="m372.256 339.12h-2.907v-8.349h2.86v1.376a2.714 2.714 0 0 1 0.951-1.2 2.21 2.21 0 0 1 1.229-0.379q0.139 0 0.294 0.015a1.977 1.977 0 0 1 0.278 0.047l-0.294 2.829a1.475 1.475 0 0 0-0.742-0.155 1.82 1.82 0 0 0-1.02 0.294 1.666 1.666 0 0 0-0.649 0.8z" data-name="Path 60237"/>
    <path id="Path_60238" transform="translate(-330.119,-252.724)" d="m424.316 327.523h-3.077q-0.356-1.19-0.711-2.4h-3.958q-0.356 1.206-0.711 2.4h-3q0.959-2.86 1.956-5.728t2.049-5.728h3.448q1.051 2.86 2.049 5.728t1.956 5.728m-7.066-4.638h2.6q-0.634-2.056-1.3-4.128-0.664 2.087-1.3 4.128" data-name="Path 60238"/>
    <path id="Path_60239" transform="translate(-377.744,-251.552)" d="m476.967 324.093-0.155 2.211a3.626 3.626 0 0 1-0.7 0.17 5.3 5.3 0 0 1-0.8 0.062 3.031 3.031 0 0 1-2.18-0.688 2.726 2.726 0 0 1-0.711-2.049v-9.2h2.907v8.689a1.392 1.392 0 0 0 0.186 0.819 0.724 0.724 0 0 0 0.618 0.247 1.435 1.435 0 0 0 0.472-0.077 1.258 1.258 0 0 0 0.363-0.186" data-name="Path 60239"/>
    <path id="Path_60240" transform="translate(-398.47,-251.552)" d="m502.888 324.093-0.155 2.211a3.627 3.627 0 0 1-0.7 0.17 5.3 5.3 0 0 1-0.8 0.062 3.03 3.03 0 0 1-2.18-0.688 2.725 2.725 0 0 1-0.711-2.049v-9.2h2.907v8.689a1.392 1.392 0 0 0 0.186 0.819 0.723 0.723 0 0 0 0.618 0.247 1.435 1.435 0 0 0 0.472-0.077 1.261 1.261 0 0 0 0.363-0.186" data-name="Path 60240"/>
    <path id="Path_60241" transform="translate(-418.887,-264.321)" d="m523.876 338.7 0.263-2.087a4.113 4.113 0 0 0 1.16 0.6 3.986 3.986 0 0 0 1.252 0.209 1.921 1.921 0 0 0 0.912-0.178 0.561 0.561 0 0 0 0.325-0.518 0.489 0.489 0 0 0-0.294-0.417 6.979 6.979 0 0 0-1.16-0.448 3.93 3.93 0 0 1-1.855-1.044 2.268 2.268 0 0 1-0.526-1.508 2.369 2.369 0 0 1 0.966-2.018 4.156 4.156 0 0 1 2.543-0.719 6.689 6.689 0 0 1 1.5 0.17 4.654 4.654 0 0 1 1.237 0.448l-0.6 1.886a3.528 3.528 0 0 0-0.85-0.487 2.622 2.622 0 0 0-0.974-0.178 1.711 1.711 0 0 0-0.781 0.154 0.486 0.486 0 0 0-0.3 0.448q0 0.248 0.332 0.425a7.094 7.094 0 0 0 1.136 0.425 4.547 4.547 0 0 1 1.453 0.7 2.32 2.32 0 0 1 0.719 0.881 2.644 2.644 0 0 1-0.82 3.123 4.581 4.581 0 0 1-2.775 0.758 7.134 7.134 0 0 1-1.554-0.17 5.434 5.434 0 0 1-1.307-0.448" data-name="Path 60241"/>
    <path id="Path_60242" transform="translate(-447.077,-254.142)" d="m565.517 326.56-0.154 2.226a3.341 3.341 0 0 1-0.858 0.271 5.2 5.2 0 0 1-0.92 0.085 3.191 3.191 0 0 1-2.312-0.734 2.954 2.954 0 0 1-0.75-2.2v-3.556h-1.391v-2.056h1.391v-1.453l2.907-1.3v2.752h1.933v2.056h-1.933v3.149a1.485 1.485 0 0 0 0.209 0.874 0.794 0.794 0 0 0 0.688 0.286 1.818 1.818 0 0 0 0.626-0.116 2.519 2.519 0 0 0 0.564-0.286" data-name="Path 60242"/>
    <path id="Path_60243" transform="translate(-476.194,-264.321)" d="m598.453 339.12h-2.907v-8.349h2.86v1.376a2.715 2.715 0 0 1 0.951-1.2 2.209 2.209 0 0 1 1.229-0.379q0.139 0 0.294 0.015a1.976 1.976 0 0 1 0.278 0.047l-0.294 2.829a1.475 1.475 0 0 0-0.742-0.155 1.82 1.82 0 0 0-1.021 0.294 1.666 1.666 0 0 0-0.649 0.8z" data-name="Path 60243"/>
    <path id="Path_60244" transform="translate(-499.572,-264.321)" d="m632.546 339.12h-2.722a1.837 1.837 0 0 1-0.124-0.464q-0.046-0.293-0.077-0.587a2.183 2.183 0 0 1-0.951 0.943 3.023 3.023 0 0 1-1.384 0.309 2.494 2.494 0 0 1-1.809-0.673 2.554 2.554 0 0 1 0.379-3.834 6.381 6.381 0 0 1 3.131-0.982l0.479-0.047q-0.093-1.159-1.531-1.16a4 4 0 0 0-1.206 0.2 3.809 3.809 0 0 0-1.19 0.634l-0.155-2.2a6.194 6.194 0 0 1 1.446-0.51 7.232 7.232 0 0 1 1.616-0.185 4.256 4.256 0 0 1 2.937 0.9 3.365 3.365 0 0 1 1.005 2.636v3.556a7.291 7.291 0 0 0 0.046 0.781 5.151 5.151 0 0 0 0.109 0.673m-4.917-2.567a0.864 0.864 0 0 0 0.232 0.626 0.782 0.782 0 0 0 0.588 0.239 1.165 1.165 0 0 0 0.572-0.155 1.286 1.286 0 0 0 0.464-0.448v-1.505h-0.047a2.868 2.868 0 0 0-1.4 0.425 1 1 0 0 0-0.41 0.827" data-name="Path 60244"/>
    <path id="Path_60245" transform="translate(-534.303,-251.552)" d="m672.766 324.093-0.155 2.211a3.627 3.627 0 0 1-0.7 0.17 5.3 5.3 0 0 1-0.8 0.062 3.03 3.03 0 0 1-2.18-0.688 2.725 2.725 0 0 1-0.711-2.049v-9.2h2.907v8.689a1.392 1.392 0 0 0 0.186 0.819 0.723 0.723 0 0 0 0.618 0.247 1.436 1.436 0 0 0 0.472-0.077 1.258 1.258 0 0 0 0.363-0.186" data-name="Path 60245"/>
    <path id="Path_60246" transform="translate(-554.29,-250.01)" d="m694.887 315.671a1.721 1.721 0 0 1-1.2-0.425 1.46 1.46 0 0 1 0-2.149 1.9 1.9 0 0 1 2.4 0 1.459 1.459 0 0 1 0 2.149 1.72 1.72 0 0 1-1.2 0.425m1.453 9.138h-2.907v-8.349h2.907z" data-name="Path 60246"/>
    <path id="Path_60247" transform="translate(-570.699,-264.321)" d="m721.5 339.12h-2.721a1.834 1.834 0 0 1-0.124-0.464q-0.046-0.293-0.077-0.587a2.183 2.183 0 0 1-0.951 0.943 3.021 3.021 0 0 1-1.384 0.309 2.494 2.494 0 0 1-1.809-0.673 2.554 2.554 0 0 1 0.379-3.834 6.382 6.382 0 0 1 3.131-0.982l0.479-0.047q-0.093-1.159-1.531-1.16a4 4 0 0 0-1.206 0.2 3.809 3.809 0 0 0-1.19 0.634l-0.155-2.2a6.193 6.193 0 0 1 1.446-0.51 7.23 7.23 0 0 1 1.616-0.185 4.256 4.256 0 0 1 2.938 0.9 3.365 3.365 0 0 1 1.005 2.636v3.556a7.251 7.251 0 0 0 0.046 0.781 5.237 5.237 0 0 0 0.108 0.673m-4.917-2.567a0.863 0.863 0 0 0 0.232 0.626 0.782 0.782 0 0 0 0.588 0.239 1.164 1.164 0 0 0 0.572-0.155 1.283 1.283 0 0 0 0.464-0.448v-1.505h-0.047a2.867 2.867 0 0 0-1.4 0.425 1 1 0 0 0-0.41 0.827" data-name="Path 60247"/>
   </g>
   <path id="Path_60248" transform="translate(-71.526,-67.911)" d="m90.556 87.811a3.463 3.463 0 0 0-1.1 2.128c0.061 1.593 0.982 2.633 3.054 2.632 0.575 0 3.136-0.071 5.167-0.07 0.737 0 1.437 0.016 2.081 0.049 2.874 0.144 5.092 0.377 6.027 0.392a2.93 2.93 0 0 0 3.223-2.283 3.817 3.817 0 0 0-0.833-3.132c-0.885-1.111-2.792-2.46-6.837-2.581-6.481-0.188-9.441 1.476-10.778 2.864" data-name="Path 60248"/>
   <path id="Path_60249" transform="translate(-57.938,-177.723)" d="m86.259 222.267s-2.425 0.07-5.62 0.137c-3.079 0.069-8.169-0.372-8.18 2.657a2.172 2.172 0 0 0 0.533 1.535c0.9 1 2.866 1.528 5.678 1.53 0.53 0 1.1-0.019 1.691-0.057 5.765-0.358 8.539-1.393 8.732-3.257a2.152 2.152 0 0 0-0.494-1.723 3.034 3.034 0 0 0-2.341-0.822" data-name="Path 60249"/>
   <path id="Path_60250" d="m13.42 50.351a4.344 4.344 0 0 1-1.1-3.022 4.206 4.206 0 0 1 2.442-3.86 4.343 4.343 0 0 1-1.675-1.476 4.945 4.945 0 0 1-0.39-5.234 6.007 6.007 0 0 1 2.619-2.5 7.258 7.258 0 0 1-0.659-0.61 5.66 5.66 0 0 1-1.035-5.712 5.121 5.121 0 0 1 3.008-3.019 5.046 5.046 0 0 1-0.9-2.809 5.417 5.417 0 0 1 1.716-3.74c3.206-3.289 4.358-8.9 2.728-13.682-1.425-4.172-6.208-5.187-7.639-4.478a0.66 0.66 0 0 0-0.35 0.6v7.478a2.493 2.493 0 0 1-0.465 1.452c-8.836 12.329-10.892 18.761-11.637 27.092-0.556 6.21 1.778 10.723 3.274 12.416 4.728 5.353 13.4 4.042 16.608 3.346-3.095-0.106-5.3-0.858-6.545-2.242" data-name="Path 60250"/>
   <path id="Path_60251" transform="translate(-64.859,-105.539)" d="m104.747 135.928c-0.215-3.287-2.6-3.291-9.171-3.74-0.952-0.065-3.493-0.238-6.017-0.189a3.326 3.326 0 0 1 1.572 2.726 2.084 2.084 0 0 1-1.916 2.377c-2.931 0.206-8.1 0.569-8.1 0.571 1.336 1.41 3.178 1.861 6.528 1.861l13.53-0.313c1.741 0 3.714-1.158 3.574-3.293" data-name="Path 60251"/>
   <path id="Path_60252" transform="translate(-59.071,-142.248)" d="m96.292 178.9a3.09 3.09 0 0 0-2.291-1l-9.419 0.143a8 8 0 0 1-1.312 2.99 3.2 3.2 0 0 1-2.384 1.313l-7.009 0.489c1.42 2.631 10.53 2.178 10.53 2.178 4.557 0 12.257-0.5 12.6-3.862a2.88 2.88 0 0 0-0.72-2.252" data-name="Path 60252"/>
   <path id="Path_60253" transform="translate(-142.199,-71.16)" d="m313.647 90.631a48.88 48.88 0 0 0-12.303-1.631c-18.339 0-26.745 11.994-26.746 23.236a14.368 14.368 0 0 0 0.284 2.864h-15.949l0.077-0.136a91.579 91.579 0 0 0 9.093-7.7l11.844-11.311 1.3-6.2h-29.192l-1.755 7.964h15.97l-0.078 0.137a105.468 105.468 0 0 0-9.092 7.7l-11.62 11.079 2.754-12.918a36.1 36.1 0 0 0 0.612-5.588c0-5.793-3.513-9.132-9.627-9.131a16.5 16.5 0 0 0-13.067 6.269h-0.152l0.686-5.519h-9.7c-0.458 3-1.07 6.611-1.986 10.836l-0.011 0.052c-0.989-6.613-6.609-11.634-15.669-11.634-7.6 0-13.8 3.123-17.722 7.949a5.414 5.414 0 0 1 1.346 8.253 5.711 5.711 0 0 1-1.78 1.266 5.06 5.06 0 0 1 1.167 3.828c-0.215 2.085-1.726 3.619-4.493 4.579 2.229 5.617 7.683 8.947 14.985 8.946h0.077c8.592 0 15.638-4 19.363-10.283l-2.008 9.532h11l3.056-14.787c1.605-7.361 5.732-11.38 9.323-11.38 2.828 0 3.746 1.634 3.746 4.021a19.665 19.665 0 0 1-0.38 3.676l-3.9 18.468h41.646l1.122-5.068c1.806 3.627 5.418 5.817 10.04 5.817 4.356 0 9.092-1.839 12.531-7.359h0.154c-0.154 2.386-0.383 4.633-0.459 6.61h10.087a72.217 72.217 0 0 1 1.528-14.991zm-119.218 25.69h-0.074c-3.822 0-5.961-2.588-5.961-6.474 0-5.177 3.132-13.354 9.475-13.356 4.355 0 5.883 3.2 5.882 6.338 0 5.656-3.438 13.493-9.321 13.493m105.156-11.926c-1.68 8.178-5.73 11.517-9.015 11.517-3.057 0-4.508-2.248-4.508-5.52 0-6.2 5.2-13.969 12.225-13.97a19.13 19.13 0 0 1 3.058 0.272z" data-name="Path 60253"/>
  </g>
 </g>
</svg>
