<?xml version="1.0" encoding="UTF-8" standalone="no"?>
<!-- Created with Inkscape (http://www.inkscape.org/) -->

<svg
   xmlns:dc="http://purl.org/dc/elements/1.1/"
   xmlns:cc="http://creativecommons.org/ns#"
   xmlns:rdf="http://www.w3.org/1999/02/22-rdf-syntax-ns#"
   xmlns:svg="http://www.w3.org/2000/svg"
   xmlns="http://www.w3.org/2000/svg"
   version="1.1"
   width="892.91339"
   height="204.09448"
   id="svg12935">
  <defs
     id="defs12937">
    <clipPath
       id="clipPath11861">
      <path
         d="m 297.64,0 297.64,0 0,595.27 -297.64,0 0,-595.27 z"
         id="path11863" />
    </clipPath>
  </defs>
  <metadata
     id="metadata12940">
    <rdf:RDF>
      <cc:Work
         rdf:about="">
        <dc:format>image/svg+xml</dc:format>
        <dc:type
           rdf:resource="http://purl.org/dc/dcmitype/StillImage" />
        <dc:title></dc:title>
      </cc:Work>
    </rdf:RDF>
  </metadata>
  <g
     transform="translate(36.541477,-404.3243)"
     id="layer1">
    <g
       transform="matrix(6.5047888,0,0,-6.5047888,-2834.9118,771.94881)"
       id="g11857">
      <g
         clip-path="url(#clipPath11861)"
         id="g11859">
        <g
           transform="translate(476,36.693)"
           id="g11865">
          <path
             d="m 0,0 c 0.585,-0.422 1.19,-0.752 1.816,-0.99 0.627,-0.239 1.299,-0.358 2.018,-0.358 0.785,0 1.39,0.157 1.817,0.47 0.425,0.313 0.638,0.749 0.638,1.307 0,0.34 -0.047,0.634 -0.14,0.879 C 6.056,1.552 5.903,1.777 5.69,1.981 5.477,2.184 5.198,2.379 4.852,2.563 4.506,2.746 4.086,2.954 3.594,3.186 3.035,3.444 2.532,3.706 2.086,3.972 1.64,4.236 1.26,4.539 0.948,4.881 0.636,5.22 0.396,5.618 0.229,6.075 0.063,6.531 -0.02,7.078 -0.02,7.718 c 0,0.668 0.119,1.262 0.36,1.787 0.239,0.524 0.575,0.967 1.008,1.327 0.432,0.361 0.951,0.636 1.557,0.827 0.605,0.191 1.281,0.285 2.027,0.285 0.758,0 1.463,-0.094 2.116,-0.285 C 7.7,11.468 8.252,11.224 8.705,10.924 L 8.205,8.433 C 7.779,8.774 7.297,9.059 6.758,9.291 6.219,9.522 5.631,9.638 4.991,9.638 4.352,9.638 3.826,9.487 3.414,9.188 3.001,8.889 2.795,8.48 2.795,7.963 2.795,7.651 2.845,7.385 2.944,7.167 3.045,6.95 3.191,6.751 3.384,6.575 3.576,6.398 3.82,6.231 4.113,6.075 4.405,5.918 4.745,5.751 5.131,5.574 5.69,5.315 6.216,5.057 6.708,4.799 7.201,4.539 7.626,4.236 7.986,3.89 8.346,3.543 8.631,3.138 8.845,2.675 9.058,2.212 9.164,1.646 9.164,0.98 9.164,-0.504 8.678,-1.652 7.707,-2.461 6.734,-3.27 5.39,-3.676 3.673,-3.676 c -0.838,0 -1.594,0.113 -2.266,0.337 -0.672,0.225 -1.248,0.487 -1.727,0.786 L 0,0 z"
             id="path11867"
             style="fill:#1a428a;fill-opacity:1;fill-rule:nonzero;stroke:none" />
        </g>
        <g
           transform="translate(486.33,44.207)"
           id="g11869">
          <path
             d="m 0,0 2.655,0 0,-7.288 c 0,-0.559 0.108,-0.991 0.32,-1.297 0.214,-0.306 0.552,-0.461 1.017,-0.461 0.414,0 0.757,0.129 1.03,0.389 0.272,0.259 0.522,0.606 0.748,1.042 l 0,7.615 2.616,0 0,-10.945 -2.536,0 0,1.329 C 5.745,-9.78 5.613,-9.953 5.46,-10.137 5.308,-10.321 5.124,-10.492 4.913,-10.648 4.699,-10.804 4.456,-10.935 4.182,-11.036 3.911,-11.138 3.6,-11.189 3.255,-11.189 c -0.586,0 -1.086,0.089 -1.498,0.265 -0.411,0.177 -0.748,0.432 -1.008,0.767 -0.26,0.333 -0.45,0.734 -0.569,1.203 C 0.061,-8.483 0,-7.962 0,-7.391 L 0,0 z"
             id="path11871"
             style="fill:#1a428a;fill-opacity:1;fill-rule:nonzero;stroke:none" />
        </g>
        <g
           transform="translate(496.35,44.207)"
           id="g11873">
          <path
             d="m 0,0 2.536,0 0,-1.306 c 0.094,0.163 0.22,0.336 0.381,0.521 0.158,0.184 0.344,0.354 0.557,0.51 0.212,0.157 0.456,0.285 0.729,0.388 0.274,0.102 0.581,0.153 0.928,0.153 1.172,0 2.008,-0.344 2.507,-1.031 0.5,-0.688 0.748,-1.61 0.748,-2.766 l 0,-7.414 -2.655,0 0,7.312 c 0,0.557 -0.107,0.989 -0.32,1.295 -0.212,0.307 -0.552,0.46 -1.018,0.46 -0.414,0 -0.755,-0.129 -1.027,-0.388 -0.274,-0.258 -0.524,-0.605 -0.75,-1.042 l 0,-7.637 -2.616,0 L 0,0 z"
             id="path11875"
             style="fill:#1a428a;fill-opacity:1;fill-rule:nonzero;stroke:none" />
        </g>
        <g
           transform="translate(506.47,48.393)"
           id="g11877">
          <path
             d="m 0,0 8.206,0 -0.1,-2.348 -5.311,0 0,-3.756 4.333,0 0,-2.349 -4.333,0 0,-4.329 5.67,0 0,-2.349 -8.465,0 L 0,0 z"
             id="path11879"
             style="fill:#1a428a;fill-opacity:1;fill-rule:nonzero;stroke:none" />
        </g>
        <g
           transform="translate(515.72,33.262)"
           id="g11881">
          <path
             d="M 0,0 C 0.293,0.519 0.576,1.011 0.85,1.482 1.122,1.951 1.404,2.431 1.698,2.921 1.963,3.356 2.24,3.799 2.525,4.248 2.812,4.698 3.088,5.133 3.354,5.556 3.062,6.005 2.778,6.461 2.507,6.923 2.235,7.387 1.963,7.842 1.698,8.292 1.431,8.727 1.177,9.169 0.94,9.619 0.699,10.068 0.452,10.51 0.199,10.945 l 2.977,0 0.657,-1.286 C 3.968,9.401 4.121,9.109 4.292,8.782 4.466,8.455 4.645,8.141 4.832,7.842 5.005,8.115 5.197,8.427 5.41,8.782 5.624,9.136 5.809,9.449 5.969,9.72 c 0.122,0.192 0.234,0.388 0.341,0.593 0.106,0.204 0.22,0.415 0.34,0.632 l 2.795,0 C 9.176,10.483 8.922,10.04 8.677,9.619 8.429,9.197 8.175,8.761 7.908,8.313 7.654,7.89 7.391,7.458 7.119,7.015 6.845,6.573 6.577,6.155 6.31,5.76 6.577,5.323 6.859,4.861 7.158,4.37 7.457,3.882 7.741,3.397 8.008,2.921 8.273,2.445 8.543,1.97 8.815,1.491 9.088,1.015 9.363,0.519 9.644,0 L 6.669,0 5.831,1.533 4.772,3.39 3.714,1.615 C 3.566,1.37 3.417,1.115 3.264,0.85 3.113,0.583 2.955,0.302 2.797,0 L 0,0 z"
             id="path11883"
             style="fill:#1a428a;fill-opacity:1;fill-rule:nonzero;stroke:none" />
        </g>
        <g
           transform="translate(526.32,44.207)"
           id="g11885">
          <path
             d="m 0,0 2.615,0 0,-0.795 c 0.241,0.3 0.55,0.552 0.927,0.755 0.382,0.204 0.825,0.306 1.329,0.306 1.225,0 2.187,-0.473 2.885,-1.418 0.7,-0.947 1.047,-2.352 1.047,-4.217 0,-1.96 -0.347,-3.42 -1.047,-4.38 -0.698,-0.96 -1.626,-1.44 -2.785,-1.44 -0.346,0 -0.643,0.04 -0.898,0.122 -0.254,0.082 -0.476,0.181 -0.672,0.297 -0.19,0.116 -0.35,0.245 -0.477,0.388 -0.126,0.142 -0.227,0.275 -0.309,0.399 l 0,-5.431 -0.08,0 -2.535,0 L 0,0 z m 2.615,-8.104 c 0.146,-0.234 0.356,-0.457 0.63,-0.676 0.272,-0.217 0.593,-0.326 0.969,-0.326 0.518,0 0.967,0.288 1.347,0.867 0.377,0.579 0.569,1.494 0.569,2.746 0,1.321 -0.186,2.268 -0.559,2.84 -0.374,0.571 -0.846,0.857 -1.417,0.857 -0.387,0 -0.703,-0.102 -0.95,-0.307 -0.246,-0.204 -0.443,-0.401 -0.589,-0.59 l 0,-5.411 z"
             id="path11887"
             style="fill:#1a428a;fill-opacity:1;fill-rule:nonzero;stroke:none" />
        </g>
        <g
           transform="translate(536.3,44.207)"
           id="g11889">
          <path
             d="m 0,0 2.537,0 0,-1.713 c 0.119,0.243 0.263,0.479 0.43,0.703 0.164,0.225 0.358,0.423 0.577,0.592 0.221,0.17 0.481,0.307 0.78,0.409 0.299,0.102 0.64,0.152 1.028,0.152 0.267,0 0.499,-0.02 0.698,-0.061 L 5.811,-2.163 C 5.719,-2.137 5.62,-2.116 5.522,-2.103 5.421,-2.089 5.3,-2.082 5.151,-2.082 4.579,-2.082 4.086,-2.208 3.675,-2.461 3.262,-2.712 2.909,-3.143 2.617,-3.757 l 0,-7.188 -2.617,0 L 0,0 z"
             id="path11891"
             style="fill:#1a428a;fill-opacity:1;fill-rule:nonzero;stroke:none" />
        </g>
        <g
           transform="translate(550.56,34.018)"
           id="g11893">
          <path
             d="m 0,0 c -0.347,-0.299 -0.783,-0.54 -1.308,-0.725 -0.527,-0.183 -1.208,-0.276 -2.047,-0.276 -0.717,0 -1.376,0.137 -1.978,0.41 -0.598,0.271 -1.109,0.659 -1.536,1.164 -0.425,0.503 -0.754,1.105 -0.987,1.806 -0.234,0.701 -0.352,1.473 -0.352,2.317 0,1.824 0.388,3.24 1.161,4.248 0.769,1.006 1.823,1.51 3.153,1.51 1.332,0 2.333,-0.432 3.006,-1.296 C -0.215,8.294 0.121,7.127 0.121,5.656 0.121,5.411 0.112,5.158 0.101,4.9 0.087,4.642 0.067,4.439 0.039,4.288 l -5.608,0 c 0.012,-0.463 0.098,-0.885 0.258,-1.265 0.16,-0.383 0.369,-0.712 0.629,-0.991 0.258,-0.279 0.555,-0.496 0.889,-0.654 0.333,-0.156 0.684,-0.235 1.058,-0.235 1.01,0 1.864,0.335 2.555,1.002 L 0,0 z M -2.436,6.126 C -2.477,7.773 -2.961,8.597 -3.894,8.597 -4.346,8.597 -4.723,8.4 -5.02,8.004 -5.321,7.61 -5.496,6.983 -5.551,6.126 l 3.115,0 z"
             id="path11895"
             style="fill:#1a428a;fill-opacity:1;fill-rule:nonzero;stroke:none" />
        </g>
        <g
           transform="translate(551.94,36.182)"
           id="g11897">
          <path
             d="m 0,0 c 0.384,-0.286 0.834,-0.547 1.348,-0.786 0.513,-0.237 1.041,-0.357 1.587,-0.357 0.173,0 0.349,0.017 0.53,0.051 0.178,0.033 0.334,0.091 0.468,0.173 0.133,0.082 0.243,0.194 0.33,0.337 0.087,0.143 0.129,0.323 0.129,0.542 0,0.408 -0.159,0.732 -0.479,0.97 C 3.595,1.168 3.188,1.39 2.697,1.593 2.321,1.756 1.966,1.937 1.628,2.135 1.288,2.331 0.99,2.563 0.741,2.829 0.487,3.093 0.286,3.406 0.14,3.768 c -0.148,0.361 -0.22,0.786 -0.22,1.276 0,0.504 0.108,0.957 0.32,1.358 0.212,0.401 0.491,0.741 0.837,1.021 0.347,0.278 0.75,0.494 1.21,0.643 C 2.746,8.215 3.222,8.29 3.714,8.29 4.353,8.29 4.911,8.222 5.391,8.087 5.869,7.95 6.302,7.781 6.689,7.576 L 6.347,5.472 C 6.001,5.704 5.616,5.908 5.191,6.085 4.766,6.262 4.299,6.351 3.792,6.351 3.473,6.351 3.174,6.259 2.894,6.075 2.617,5.891 2.474,5.623 2.474,5.268 2.474,5.091 2.51,4.935 2.576,4.799 2.642,4.664 2.747,4.533 2.894,4.411 3.042,4.288 3.234,4.166 3.473,4.043 3.714,3.921 4.007,3.784 4.353,3.635 4.698,3.486 5.033,3.314 5.361,3.124 5.685,2.934 5.972,2.709 6.219,2.45 6.465,2.193 6.662,1.885 6.806,1.532 6.956,1.178 7.028,0.763 7.028,0.288 7.028,-0.817 6.667,-1.668 5.95,-2.266 5.232,-2.865 4.267,-3.165 3.053,-3.165 c -0.676,0 -1.275,0.069 -1.796,0.204 -0.516,0.136 -1.026,0.335 -1.517,0.593 L 0,0 z"
             id="path11899"
             style="fill:#1a428a;fill-opacity:1;fill-rule:nonzero;stroke:none" />
        </g>
        <g
           transform="translate(559.9,36.182)"
           id="g11901">
          <path
             d="m 0,0 c 0.386,-0.286 0.836,-0.547 1.348,-0.786 0.51,-0.237 1.04,-0.357 1.586,-0.357 0.174,0 0.35,0.017 0.528,0.051 0.179,0.033 0.337,0.091 0.471,0.173 0.133,0.082 0.243,0.194 0.33,0.337 0.085,0.143 0.129,0.323 0.129,0.542 0,0.408 -0.16,0.732 -0.479,0.97 C 3.592,1.168 3.188,1.39 2.695,1.593 2.321,1.756 1.966,1.937 1.626,2.135 1.286,2.331 0.99,2.563 0.738,2.829 0.484,3.093 0.287,3.406 0.139,3.768 -0.009,4.129 -0.08,4.554 -0.08,5.044 -0.08,5.548 0.025,6.001 0.238,6.402 0.45,6.803 0.731,7.143 1.077,7.423 1.422,7.701 1.826,7.917 2.285,8.066 2.744,8.215 3.222,8.29 3.712,8.29 4.353,8.29 4.909,8.222 5.389,8.087 5.869,7.95 6.301,7.781 6.687,7.576 L 6.348,5.472 C 6.001,5.704 5.617,5.908 5.19,6.085 4.764,6.262 4.297,6.351 3.792,6.351 3.474,6.351 3.174,6.259 2.893,6.075 2.615,5.891 2.475,5.623 2.475,5.268 2.475,5.091 2.509,4.935 2.574,4.799 2.642,4.664 2.747,4.533 2.893,4.411 3.04,4.288 3.233,4.166 3.474,4.043 3.712,3.921 4.006,3.784 4.353,3.635 4.696,3.486 5.034,3.314 5.361,3.124 5.685,2.934 5.972,2.709 6.218,2.45 6.465,2.193 6.66,1.885 6.806,1.532 6.954,1.178 7.027,0.763 7.027,0.288 7.027,-0.817 6.669,-1.668 5.948,-2.266 5.231,-2.865 4.264,-3.165 3.053,-3.165 c -0.678,0 -1.277,0.069 -1.797,0.204 -0.518,0.136 -1.025,0.335 -1.517,0.593 L 0,0 z"
             id="path11903"
             style="fill:#1a428a;fill-opacity:1;fill-rule:nonzero;stroke:none" />
        </g>
        <g
           transform="translate(449.8,35.444)"
           id="g11905">
          <path
             d="m 0,0 c -5.195,-0.38 -12.384,-1.524 -17.548,-1.244 0.545,-1.104 1.225,-2.143 2.029,-3.095 0.45,-0.528 0.936,-1.032 1.461,-1.501 2.804,-2.52 6.413,-3.907 10.161,-3.907 3.771,0 7.376,1.364 10.153,3.841 1.148,1.023 2.077,2.122 2.816,3.328 0.5,0.817 0.911,1.682 1.241,2.609 C 8.089,0.473 4.282,0.314 0,0"
             id="path11907"
             style="fill:#1a428a;fill-opacity:1;fill-rule:nonzero;stroke:none" />
        </g>
        <g
           transform="translate(437.54,53.378)"
           id="g11909">
          <path
             d="M 0,0 C -0.095,0.021 -0.193,0.002 -0.272,-0.054 -0.547,-0.243 -0.823,-0.448 -1.088,-0.659 -1.223,-0.765 -1.26,-0.954 -1.175,-1.102 L 1.4,-5.562 1.533,-5.741 1.527,-5.75 1.348,-5.616 -3.116,-3.039 c -0.146,0.085 -0.337,0.05 -0.442,-0.085 -0.211,-0.266 -0.413,-0.541 -0.603,-0.817 -0.054,-0.08 -0.073,-0.179 -0.052,-0.271 0.022,-0.094 0.081,-0.175 0.164,-0.224 L 3.566,-8.83 3.738,-8.876 c 0.096,0 0.192,0.04 0.26,0.118 0.171,0.195 0.355,0.381 0.548,0.55 0.125,0.109 0.155,0.29 0.072,0.432 L 0.224,-0.165 C 0.175,-0.08 0.095,-0.021 0,0"
             id="path11911"
             style="fill:#1a428a;fill-opacity:1;fill-rule:nonzero;stroke:none" />
        </g>
        <g
           transform="translate(458.43,49.168)"
           id="g11913">
          <path
             d="M 0,0 C 0.021,0.092 0.003,0.191 -0.052,0.271 -0.243,0.547 -0.447,0.822 -0.659,1.088 -0.764,1.223 -0.953,1.258 -1.1,1.173 l -4.462,-2.575 -0.179,-0.132 -0.006,0.005 0.133,0.179 2.576,4.464 C -2.953,3.262 -2.989,3.453 -3.124,3.557 -3.389,3.767 -3.665,3.97 -3.941,4.16 -4.019,4.215 -4.117,4.235 -4.212,4.212 -4.306,4.191 -4.386,4.132 -4.435,4.049 L -8.83,-3.566 -8.876,-3.738 c 0,-0.097 0.042,-0.192 0.119,-0.26 0.195,-0.17 0.382,-0.355 0.549,-0.549 0.109,-0.124 0.291,-0.155 0.434,-0.072 l 7.611,4.395 C -0.08,-0.175 -0.021,-0.096 0,0"
             id="path11915"
             style="fill:#1a428a;fill-opacity:1;fill-rule:nonzero;stroke:none" />
        </g>
        <g
           transform="translate(452.58,54.325)"
           id="g11917">
          <path
             d="m 0,0 c -0.03,0.092 -0.095,0.167 -0.182,0.209 -0.303,0.144 -0.617,0.279 -0.934,0.404 -0.159,0.063 -0.338,0 -0.425,-0.147 l -2.576,-4.461 -0.089,-0.205 -0.009,0.004 0.026,0.22 0,5.154 c 0,0.172 -0.126,0.318 -0.297,0.342 C -4.821,1.569 -5.16,1.606 -5.493,1.633 -5.589,1.64 -5.685,1.607 -5.754,1.541 -5.826,1.477 -5.866,1.385 -5.866,1.289 l 0.002,-8.792 0.046,-0.172 c 0.047,-0.083 0.131,-0.146 0.232,-0.167 0.254,-0.05 0.508,-0.116 0.75,-0.2 0.157,-0.052 0.33,0.013 0.411,0.155 l 4.394,7.612 C 0.017,-0.191 0.029,-0.092 0,0"
             id="path11919"
             style="fill:#1a428a;fill-opacity:1;fill-rule:nonzero;stroke:none" />
        </g>
        <g
           transform="translate(460.92,41.772)"
           id="g11921">
          <path
             d="M 0,0 C 0.066,0.071 0.097,0.167 0.09,0.262 0.063,0.596 0.024,0.937 -0.026,1.274 -0.05,1.442 -0.195,1.567 -0.366,1.567 l -5.152,0.002 -0.221,-0.026 -0.002,0.009 0.204,0.088 4.462,2.577 c 0.148,0.087 0.213,0.268 0.148,0.428 -0.125,0.314 -0.262,0.627 -0.406,0.929 -0.041,0.087 -0.117,0.153 -0.209,0.181 -0.092,0.028 -0.191,0.017 -0.273,-0.03 L -9.43,1.328 -9.555,1.202 C -9.603,1.119 -9.617,1.015 -9.584,0.917 c 0.085,-0.245 0.154,-0.498 0.202,-0.75 0.033,-0.162 0.175,-0.278 0.338,-0.278 l 8.79,0 C -0.158,-0.111 -0.066,-0.07 0,0"
             id="path11923"
             style="fill:#1a428a;fill-opacity:1;fill-rule:nonzero;stroke:none" />
        </g>
        <g
           transform="translate(432.38,47.529)"
           id="g11925">
          <path
             d="m 0,0 c -0.092,-0.03 -0.168,-0.096 -0.209,-0.182 -0.144,-0.303 -0.279,-0.617 -0.404,-0.934 -0.065,-0.158 0,-0.338 0.147,-0.425 l 4.461,-2.575 0.204,-0.089 -0.004,-0.01 -0.219,0.026 -5.154,0 c -0.171,0 -0.317,-0.125 -0.341,-0.296 -0.049,-0.335 -0.087,-0.674 -0.114,-1.009 -0.006,-0.096 0.026,-0.191 0.091,-0.261 0.065,-0.069 0.157,-0.111 0.253,-0.111 l 8.791,0.002 0.173,0.045 c 0.083,0.05 0.146,0.132 0.167,0.233 0.048,0.255 0.115,0.507 0.199,0.75 0.054,0.157 -0.012,0.329 -0.153,0.412 L 0.275,-0.03 C 0.192,0.017 0.092,0.028 0,0"
             id="path11927"
             style="fill:#1a428a;fill-opacity:1;fill-rule:nonzero;stroke:none" />
        </g>
        <g
           transform="translate(444.93,55.866)"
           id="g11929">
          <path
             d="m 0,0 c -0.07,0.064 -0.166,0.097 -0.262,0.09 -0.334,-0.027 -0.674,-0.066 -1.01,-0.116 -0.17,-0.026 -0.295,-0.17 -0.295,-0.341 l -0.001,-5.152 0.026,-0.22 -0.009,-0.002 -0.089,0.203 -2.576,4.464 c -0.085,0.148 -0.268,0.212 -0.428,0.146 -0.314,-0.125 -0.627,-0.26 -0.929,-0.405 -0.086,-0.041 -0.154,-0.116 -0.182,-0.21 -0.029,-0.09 -0.016,-0.189 0.031,-0.273 l 4.396,-7.614 0.127,-0.127 c 0.085,-0.047 0.186,-0.061 0.284,-0.028 0.246,0.084 0.498,0.153 0.751,0.202 0.162,0.033 0.279,0.175 0.279,0.339 l -0.002,8.79 C 0.111,-0.156 0.071,-0.064 0,0"
             id="path11931"
             style="fill:#1a428a;fill-opacity:1;fill-rule:nonzero;stroke:none" />
        </g>
        <g
           transform="translate(460.05,39.762)"
           id="g11933">
          <path
             d="m 0,0 c -3.174,0 -5.605,-0.772 -11.907,-2.11 -8.916,-1.894 -15.249,-0.33 -16.701,-0.143 -0.216,0.027 -0.358,-0.083 -0.285,-0.326 0.157,-0.725 0.694,-2.278 1.098,-2.983 5.165,-0.28 12.354,0.864 17.548,1.244 4.283,0.314 8.089,0.473 10.314,0.031 0.36,1.012 0.625,2.093 0.8,3.261 C 0.968,-0.358 0.887,0 0,0"
             id="path11935"
             style="fill:#ee5f2a;fill-opacity:1;fill-rule:nonzero;stroke:none" />
        </g>
        <g
           transform="translate(431.06,38.679)"
           id="g11937">
          <path
             d="m 0,0 c 0.298,-0.117 4.42,-1.521 10.819,-1.612 1.816,-0.027 4.133,0.243 5.517,0.545 -0.727,-0.115 -2.272,-0.347 -4.188,-0.34 C 8.461,-1.394 2.868,-0.101 0.214,1.083 0.105,1.133 -0.024,1.114 -0.122,1.043 -0.22,0.971 -0.274,0.855 -0.263,0.733 -0.249,0.563 -0.232,0.393 -0.214,0.223 -0.198,0.14 -0.173,0.069 0,0"
             id="path11939"
             style="fill:#ee5f2a;fill-opacity:1;fill-rule:nonzero;stroke:none" />
        </g>
      </g>
    </g>
  </g>
</svg>
