<?xml version="1.0" encoding="utf-8"?>
<!-- Generator: Adobe Illustrator 18.0.0, SVG Export Plug-In . SVG Version: 6.00 Build 0)  -->
<!DOCTYPE svg PUBLIC "-//W3C//DTD SVG 1.1//EN" "http://www.w3.org/Graphics/SVG/1.1/DTD/svg11.dtd">
<svg version="1.1" xmlns="http://www.w3.org/2000/svg" xmlns:xlink="http://www.w3.org/1999/xlink" x="0px" y="0px"
	 width="877" height="159" viewBox="0 0 877 159" style="enable-background:new 0 0 877 159;" xml:space="preserve">
<path d="M101.327 14.6437C106.225 9.74471 109.491 7.45842 111.124 7.78501C112.757 8.11161 114.39 9.09156 116.023 10.3979C117.656 11.7043 118.31 13.0106 118.636 14.9702C118.963 16.6032 118.963 19.5426 118.963 23.4618C118.963 27.381 119.289 29.9937 119.943 31.6267C120.596 33.2597 121.576 37.8319 122.882 45.9968C124.188 54.1618 124.842 58.7341 124.842 60.6937C124.842 62.3267 125.495 64.9395 126.148 68.5321C127.128 72.1246 131.373 72.7778 139.538 71.1448C147.703 69.5118 155.868 67.2257 163.706 65.2661C171.545 62.9799 177.424 61.3468 181.343 60.0405C185.262 58.7341 181.016 60.6937 169.259 65.5926C157.501 70.4916 149.336 74.4109 144.437 77.3502C139.865 80.2896 135.619 82.9023 131.7 85.8417C128.107 88.781 126.148 92.0469 126.148 95.9661C126.148 99.8852 125.495 105.437 124.842 112.296C123.862 119.154 123.208 125.36 122.229 130.585C121.249 135.811 120.596 140.057 120.269 143.649C119.943 146.915 118.636 150.181 116.677 153.447C114.717 156.713 112.757 158.346 110.471 158.673C108.185 158.999 106.225 158.346 104.919 156.386C103.286 154.427 103.286 149.855 104.266 142.343C105.246 134.831 106.225 128.299 107.532 122.42C108.512 116.542 109.491 110.336 110.471 103.478C111.451 96.6194 109.165 93.6799 103.939 94.3331C98.7138 94.9863 92.835 95.9661 86.9563 96.6193C81.0776 97.5991 75.1988 98.2523 69.3201 98.9055C63.4414 99.5587 58.5424 100.865 54.6233 102.825C50.7041 104.784 43.8456 112.623 33.7211 126.013C23.5966 139.73 17.3913 148.548 14.1253 152.794C10.8594 157.04 8.24658 158.999 5.96041 158.999C3.67423 158.999 1.71463 158.019 0.734842 156.386C-0.244947 154.427 -0.244947 151.814 0.734842 148.221C1.71463 144.629 5.30717 138.097 11.8391 128.299C18.371 118.501 25.5561 108.377 34.0476 98.2523C42.5391 87.8012 49.3977 79.6362 54.9499 73.1043C60.502 66.5724 65.7275 60.3671 69.9732 54.1618C74.5456 47.9564 79.4446 41.0979 85.3233 33.5862C91.2021 26.0745 96.4276 19.8692 101.327 14.6437ZM107.205 47.6298C106.226 40.1181 104.266 38.4851 101 42.0776C98.0605 45.6702 95.1212 49.2629 92.835 52.8555C90.2222 56.1215 84.9967 62.3268 77.485 70.8183C69.6467 79.3098 68.9935 82.9022 75.5254 81.2692C82.0574 79.6362 89.8957 78.6565 98.7138 77.6767C107.858 76.697 112.104 74.7374 111.778 71.798C111.451 68.8587 110.798 65.9193 110.145 62.9799C109.491 60.3671 108.512 55.1415 107.205 47.6298Z" fill="#022859"/>
<path d="M171.547 72.125C173.834 71.4719 176.446 71.7986 179.386 72.4518C182.325 73.4316 182.978 76.3709 181.019 81.5964C179.059 86.822 176.773 93.6805 174.487 102.172C172.201 110.663 169.914 117.522 167.955 122.748C165.995 127.973 163.709 132.545 161.096 136.465C158.484 140.384 156.197 142.343 153.911 142.67C151.625 142.997 149.992 142.996 149.012 142.343C148.033 142.017 148.033 139.404 148.686 134.832C149.339 130.259 150.972 123.727 153.258 114.583C155.544 105.438 157.83 97.5996 160.117 90.7411C162.076 83.8826 162.403 80.6166 160.117 80.29C158.157 80.29 158.81 78.6569 162.403 76.3708C166.322 74.0846 169.261 72.7782 171.547 72.125Z" fill="#022859"/>
<path d="M218.904 54.8175C216.618 54.4909 208.779 53.8377 201.921 48.9388C197.348 45.6728 194.736 41.4271 193.103 39.1409C192.123 37.8345 191.796 36.528 191.143 35.5482C189.183 32.9354 186.571 31.6291 184.611 31.3025C181.672 30.9759 179.059 31.629 177.099 33.9152C175.14 35.8748 173.833 37.8345 173.833 39.7941C173.507 41.4271 173.833 43.7132 174.813 46.6526C175.793 49.2653 177.753 50.8984 180.692 51.225C182.652 51.5516 183.305 51.225 186.244 51.225C187.55 51.225 188.53 51.5515 189.183 51.5515C189.51 51.8781 190.49 51.8781 191.143 52.2047C192.449 52.5313 196.369 54.1642 200.288 55.144C205.513 56.1238 210.739 56.4504 223.476 55.144C223.476 55.144 221.19 55.1441 218.904 54.8175Z" fill="#022859"/>
<path d="M200.291 94.9864C204.21 80.2895 207.802 73.1045 211.395 73.4311C214.987 73.7577 217.6 75.3906 219.233 78.33C220.866 81.2694 220.866 84.5354 218.58 88.7811C216.294 93.0269 216.294 94.9864 217.927 94.6598C219.56 94.3332 221.846 93.3534 224.785 91.3939C227.725 89.4343 230.337 88.1278 232.95 86.8214C235.563 85.8416 237.523 84.8618 239.156 84.5352C240.789 84.2086 243.728 84.8618 248.3 86.1682C252.873 87.4746 257.118 89.4343 261.037 92.0471C264.957 94.6599 270.509 94.6597 277.041 92.7001C283.573 90.7406 282.919 91.3939 274.755 94.6598C266.59 97.9258 258.425 99.5588 250.26 99.5588C241.768 99.2322 235.236 100.212 230.664 102.498C226.092 104.784 222.173 107.071 218.907 110.01C215.641 112.623 212.701 117.195 210.088 123.4C207.476 129.606 205.189 134.831 203.883 139.077C202.577 143.323 201.27 146.915 199.964 149.528C198.984 152.141 196.698 153.774 193.105 153.774C189.513 153.774 187.553 152.794 186.247 150.181C185.267 147.568 184.941 145.935 185.594 144.956C186.247 144.302 187.88 139.404 190.493 130.585C193.432 121.441 196.698 109.683 200.291 94.9864Z" fill="#022859"/>
<path d="M200.291 94.9864C204.21 80.2895 207.802 73.1045 211.395 73.4311C214.987 73.7577 217.6 75.3906 219.233 78.33C220.866 81.2694 220.866 84.5354 218.58 88.7811C216.294 93.0269 216.294 94.9864 217.927 94.6598C219.56 94.3332 221.846 93.3534 224.785 91.3939C227.725 89.4343 230.337 88.1278 232.95 86.8214C235.563 85.8416 237.523 84.8618 239.156 84.5352C240.789 84.2086 243.728 84.8618 248.3 86.1682C252.873 87.4746 257.118 89.4343 261.037 92.0471C264.957 94.6599 270.509 94.6597 277.041 92.7001C283.573 90.7406 282.919 91.3939 274.755 94.6598C266.59 97.9258 258.425 99.5588 250.26 99.5588C241.768 99.2322 235.236 100.212 230.664 102.498C226.092 104.784 222.173 107.071 218.907 110.01C215.641 112.623 212.701 117.195 210.088 123.4C207.476 129.606 205.189 134.831 203.883 139.077C202.577 143.323 201.27 146.915 199.964 149.528C198.984 152.141 196.698 153.774 193.105 153.774C189.513 153.774 187.553 152.794 186.247 150.181C185.267 147.568 184.941 145.935 185.594 144.956C186.247 144.302 187.88 139.404 190.493 130.585C193.432 121.441 196.698 109.683 200.291 94.9864Z" fill="#022859"/>
<path d="M375.342 6.48191C379.261 0.603174 383.18 -1.35644 386.446 0.929731C389.712 3.21591 391.671 5.17556 391.671 7.13514C391.671 9.09472 392.978 12.3607 395.264 16.933C397.55 21.5054 399.836 27.7106 402.776 35.5489C405.388 43.3872 407.348 54.4915 408.328 68.8618C409.308 83.232 410.941 92.3767 413.553 96.6225C416.166 100.868 421.718 98.2555 429.883 88.131C438.375 78.3331 445.886 69.1884 452.418 61.3501C459.277 53.1852 465.809 46.3266 472.667 40.4478C479.199 34.5691 484.425 29.9968 487.691 26.4042C490.957 23.1383 495.529 19.2192 501.408 14.6468C507.287 10.0745 511.532 8.11493 514.145 8.76813C516.758 9.09472 519.044 10.401 520.677 11.7074C522.31 13.3404 523.616 15.3 524.596 17.9128C525.576 20.5256 524.923 27.7106 522.963 39.4681C521.004 51.2256 519.044 62.983 517.411 74.7405C515.778 86.4979 514.472 96.6225 513.819 105.441C513.165 113.932 513.492 119.484 514.472 121.444C515.452 123.403 517.084 124.71 519.044 125.036C521.004 125.363 523.29 124.71 526.229 123.077C529.169 121.444 532.761 117.525 537.007 111.973C541.253 106.42 540.273 109.36 533.414 121.77C526.556 133.855 520.677 141.04 515.451 143.326C510.226 145.612 506.633 145.938 504.347 144.959C502.061 143.979 500.101 142.346 498.795 140.386C497.162 138.427 495.529 134.834 494.223 129.609C492.59 124.383 492.263 119.158 492.916 113.279C493.569 107.4 494.549 99.2353 496.182 88.131C497.815 77.0268 498.795 69.515 499.448 65.2693C500.101 61.0235 501.081 55.798 501.734 49.5927C502.714 43.3874 501.408 41.1011 497.815 43.3873C494.223 45.3469 488.344 50.8989 480.506 60.0436C472.667 69.1883 463.196 80.2927 452.092 94.0097C441.314 107.4 433.476 115.565 428.903 117.851C424.331 120.137 421.065 121.444 418.779 121.77C416.493 122.097 413.88 121.77 410.287 120.791C407.021 119.811 403.429 118.178 400.163 115.565C396.897 112.952 394.611 107.727 393.304 99.5619C391.998 91.397 390.692 81.9257 389.385 70.8215C388.079 59.7172 386.772 51.5523 385.466 46.3267C384.16 41.1012 379.914 46.9799 372.729 64.2895C365.544 81.5991 360.318 94.3364 357.379 102.828C354.439 111.319 351.173 119.484 347.907 127.649C344.641 135.814 342.029 140.713 340.069 142.346C338.436 143.979 335.823 144.632 333.211 143.979C330.271 143.326 327.985 142.019 326.352 140.713C324.719 139.08 324.066 136.794 324.719 134.181C325.372 131.568 326.352 128.955 327.659 126.996C328.965 125.036 329.945 122.75 330.598 119.811C331.251 117.198 334.517 108.707 340.069 94.663C345.948 80.6193 349.867 70.1681 351.827 63.3096C353.786 56.4511 357.379 46.9798 361.951 34.5691C367.177 21.5053 371.422 12.3606 375.342 6.48191Z" fill="#022859"/>
<path d="M598.084 89.4351C592.858 91.0681 588.612 91.0683 585.346 88.7821C583.387 87.4757 581.427 86.4959 579.141 85.5161C578.161 83.23 577.181 81.9235 577.181 81.9235C575.875 79.6373 574.242 78.331 572.282 77.3512C570.323 76.3714 568.037 76.3713 565.097 77.0245C562.158 77.6777 559.872 78.6576 557.586 80.6172C555.626 82.5768 553.013 85.1894 550.074 89.4351C546.808 93.3543 545.502 98.2533 543.215 102.172C540.929 106.092 539.296 109.684 537.99 113.277C537.01 116.869 536.357 121.442 536.03 127.32C535.704 133.199 536.357 137.118 537.337 139.405C538.317 141.691 539.949 143.977 541.909 146.263C543.869 148.549 546.155 149.856 549.094 151.162C552.033 152.142 554.646 152.142 557.259 151.162C559.872 150.182 562.485 148.549 565.424 146.263C568.363 143.977 570.976 141.691 572.936 139.078C574.895 136.465 576.528 134.179 577.508 131.566C578.488 129.28 579.468 126.994 579.794 125.034C580.447 123.075 580.774 119.809 580.774 115.236C580.774 110.991 580.774 107.072 580.774 103.479C580.774 100.54 580.447 97.9267 580.121 94.9873C585.346 94.6607 590.572 93.3543 595.471 91.0681C602.983 88.4554 603.309 87.8022 598.084 89.4351ZM566.73 120.135C565.097 126.994 563.138 131.566 560.852 133.526C558.565 135.485 556.606 136.465 555.3 136.139C553.993 135.812 552.687 134.505 551.38 132.546C550.074 130.586 549.747 126.994 550.727 122.095C551.38 117.196 553.34 112.297 556.933 108.051C560.525 103.479 563.464 102.826 565.75 105.765C568.037 108.704 568.363 113.277 566.73 120.135Z" fill="#022859"/>
<path d="M646.748 73.7608C649.034 73.1076 651.974 73.1077 654.586 73.4343C657.526 73.7609 659.812 74.7406 661.445 76.047C663.078 77.3534 664.711 79.9662 666.344 84.2119C667.977 88.1311 667.324 91.0705 664.058 92.3768C661.118 93.6832 658.179 93.3566 655.893 91.0704C653.607 88.7842 650.994 88.1311 648.381 89.7641C645.768 91.0705 643.156 92.3768 640.543 94.0098C637.93 95.3162 634.664 97.6023 631.071 100.868C627.152 103.808 623.233 107.727 619.314 112.626C615.395 117.525 613.109 120.464 612.782 121.771C612.456 123.077 613.435 122.75 615.722 121.117C618.334 119.484 621.927 116.872 627.152 113.279C632.378 110.013 638.583 106.421 646.422 102.828C654.26 99.2354 659.159 97.9291 661.118 98.5823C663.078 99.2354 665.038 100.868 666.344 102.828C667.977 104.788 668.63 106.747 668.957 108.38C669.283 110.013 668.957 110.993 668.304 111.973C667.65 112.952 666.671 114.912 666.017 118.178C665.038 121.444 665.038 124.383 666.344 127.323C667.324 130.262 668.63 132.222 670.263 133.528C671.896 134.508 674.182 134.834 677.122 134.508C680.061 134.181 683.327 131.895 687.573 127.976C691.819 124.057 691.492 125.037 686.92 130.589C682.347 136.141 678.755 139.733 676.142 141.366C673.529 142.999 671.57 143.653 669.937 143.653C668.304 143.653 666.671 142.999 664.058 142.346C661.772 141.366 659.485 140.06 657.199 138.1C655.24 136.141 653.28 133.855 652.3 131.242C650.994 128.629 650.341 126.343 649.688 125.036C649.361 123.73 648.381 122.424 646.748 120.791C645.115 119.158 643.482 118.831 641.196 119.811C638.91 120.791 634.991 123.077 629.439 127.323C623.886 131.242 618.661 134.508 614.089 137.121C609.19 139.733 604.944 141.366 601.025 142.346C597.106 143.326 594.819 143.652 593.513 143.326C592.533 142.999 591.227 141.693 589.92 139.733C588.614 137.774 587.961 135.488 587.634 132.875C587.308 130.589 587.634 127.976 588.614 125.363C589.594 122.75 592.86 117.851 598.739 110.34C604.617 102.828 610.169 96.9493 615.722 92.0503C621.274 87.1514 626.826 83.2322 633.031 79.9662C640.216 76.3737 644.462 74.414 646.748 73.7608Z" fill="#022859"/>
<path d="M708.792 76.0485C711.078 75.0687 713.691 75.0688 717.283 76.7018C720.549 78.3347 721.529 80.9475 719.569 84.8667C717.61 88.7858 714.344 95.6443 710.098 104.789C705.526 113.934 705.199 116.546 708.792 112.301C712.384 108.055 716.63 103.809 721.529 99.5635C726.428 95.3178 730.02 92.3783 732.307 91.0719C734.593 89.7655 736.879 88.7858 739.492 88.1326C742.105 87.4794 745.044 87.806 748.31 88.4592C751.576 89.4389 754.515 92.0518 756.801 96.2976C759.088 100.543 760.394 108.055 760.394 117.853C760.394 127.977 763.007 132.876 767.906 132.55C772.805 132.223 777.377 130.59 781.949 127.324C786.522 124.058 789.788 120.466 792.074 117.2C794.36 113.934 795.34 112.954 795.013 114.587C794.687 116.22 793.38 118.506 791.421 121.446C789.461 124.385 784.889 129.284 778.03 135.816C771.172 142.348 765.293 145.614 760.067 145.614C755.168 145.614 751.249 143.654 749.29 139.735C747.004 135.489 745.697 128.957 744.717 120.139C744.064 110.994 742.758 106.422 741.125 106.422C739.492 106.422 735.899 108.055 730.021 111.648C724.468 115.24 719.243 119.812 714.344 125.365C709.445 130.917 705.852 135.816 702.586 139.735C699.647 143.654 696.708 145.94 694.422 146.92C692.135 147.9 690.176 147.246 688.543 144.96C686.91 143.001 686.583 140.388 686.91 137.122C687.236 134.183 688.216 129.284 689.523 123.079C690.829 116.873 692.788 110.015 695.401 103.156C698.014 96.2975 697.361 94.0114 693.768 96.2976C690.176 98.5837 685.603 102.503 680.378 107.402C675.152 112.301 677.112 110.015 685.93 100.543C695.075 91.072 699.974 85.5199 701.28 83.8869C702.26 82.2539 703.24 80.9474 704.219 79.641C705.199 78.3346 706.506 77.0283 708.792 76.0485Z" fill="#022859"/>
<path d="M832.907 73.7608C835.193 73.1076 838.132 73.1077 840.745 73.4343C843.684 73.7609 845.971 74.7406 847.604 76.047C849.237 77.3534 850.87 79.9662 852.503 84.2119C854.136 88.1311 853.482 91.0705 850.216 92.3768C847.277 93.6832 844.338 93.3566 842.052 91.0704C839.765 88.7842 837.153 88.1311 834.54 89.7641C831.927 91.0705 829.314 92.3768 826.701 94.0098C824.089 95.3162 820.823 97.6023 817.23 100.868C813.637 104.134 809.392 107.727 805.473 112.626C801.553 117.525 799.267 120.464 798.941 121.771C798.614 123.077 799.594 122.75 801.88 121.117C804.493 119.484 808.086 116.872 813.311 113.279C818.537 110.013 824.742 106.421 832.58 102.828C840.418 99.2354 845.317 97.9291 847.277 98.5823C849.237 99.2354 851.196 100.868 852.503 102.828C854.136 104.788 854.789 106.747 855.115 108.38C855.442 110.013 855.115 110.993 854.462 111.973C853.809 112.952 852.829 114.912 852.176 118.178C851.196 121.444 851.196 124.383 852.503 127.323C853.482 130.262 854.789 132.222 856.422 133.528C858.055 134.508 860.341 134.834 863.28 134.508C866.22 134.181 869.486 131.895 873.731 127.976C877.977 124.057 877.651 125.037 873.078 130.589C868.506 136.141 864.913 139.733 862.301 141.366C859.688 142.999 857.728 143.653 856.095 143.653C854.462 143.653 852.829 142.999 850.216 142.346C847.93 141.366 845.644 140.06 843.358 138.1C841.398 136.141 839.439 133.855 838.459 131.242C837.152 128.629 836.499 126.343 835.846 125.036C835.519 123.73 834.54 122.424 832.907 120.791C831.274 119.158 829.641 118.831 827.355 119.811C825.068 120.791 821.149 123.077 815.597 127.323C810.045 131.242 804.819 134.508 799.92 137.121C795.022 139.733 790.776 141.366 786.857 142.346C782.937 143.326 780.651 143.652 779.345 143.326C778.365 142.999 777.059 141.693 775.752 139.733C774.446 137.774 773.793 135.488 773.466 132.875C773.14 130.589 773.466 127.976 774.446 125.363C775.426 122.75 778.692 117.851 784.57 110.34C790.449 102.828 796.001 96.9493 801.553 92.0503C807.106 87.1514 812.658 83.2322 818.863 79.9662C826.048 76.3737 830.294 74.414 832.907 73.7608Z" fill="#022859"/>
</svg>
