<?xml version="1.0" encoding="UTF-8" standalone="no"?>
<svg
   xmlns:dc="http://purl.org/dc/elements/1.1/"
   xmlns:cc="http://creativecommons.org/ns#"
   xmlns:rdf="http://www.w3.org/1999/02/22-rdf-syntax-ns#"
   xmlns:svg="http://www.w3.org/2000/svg"
   xmlns="http://www.w3.org/2000/svg"
   xmlns:sodipodi="http://sodipodi.sourceforge.net/DTD/sodipodi-0.dtd"
   xmlns:inkscape="http://www.inkscape.org/namespaces/inkscape"
   width="300"
   height="60"
   viewBox="0 0 1000 197"
   version="1.0"
   id="svg2"
   sodipodi:version="0.32"
   inkscape:version="0.46"
   sodipodi:docname="1000px-Hahn_Air_Logo.svg"
   inkscape:output_extension="org.inkscape.output.svg.inkscape">
  <metadata
     id="metadata26">
    <rdf:RDF>
      <cc:Work
         rdf:about="">
        <dc:format>image/svg+xml</dc:format>
        <dc:type
           rdf:resource="http://purl.org/dc/dcmitype/StillImage" />
      </cc:Work>
    </rdf:RDF>
  </metadata>
  <defs
     id="defs24">
    <inkscape:perspective
       sodipodi:type="inkscape:persp3d"
       inkscape:vp_x="0 : 123.125 : 1"
       inkscape:vp_y="0 : 1000 : 0"
       inkscape:vp_z="1250 : 123.125 : 1"
       inkscape:persp3d-origin="625 : 82.083333 : 1"
       id="perspective28" />
  </defs>
  <sodipodi:namedview
     inkscape:window-height="669"
     inkscape:window-width="640"
     inkscape:pageshadow="2"
     inkscape:pageopacity="0.0"
     guidetolerance="10.0"
     gridtolerance="10.0"
     objecttolerance="10.0"
     borderopacity="1.0"
     bordercolor="#666666"
     pagecolor="#ffffff"
     id="base"
     showgrid="false"
     inkscape:zoom="0.4352"
     inkscape:cx="625"
     inkscape:cy="123.125"
     inkscape:window-x="23"
     inkscape:window-y="23"
     inkscape:current-layer="svg2" />
  <g
     id="#084294ff">
    <path
       d="M 86.13,1.11 C 107.75,-1.73 130.28,2.76 149.05,13.9 C 169.1,25.62 184.78,44.64 192.28,66.63 C 200.28,89.71 199.18,115.81 189.15,138.1 C 179.9,159.06 163.01,176.44 142.44,186.48 C 120.3,197.4 94.01,199.46 70.4,192.32 C 47.85,185.6 27.91,170.5 15.39,150.57 C 5.52,134.96 0.07,116.51 0.34,98.01 C 0.2,72.87 10.59,48.01 28.13,30.08 C 43.48,14.26 64.26,3.86 86.13,1.11 M 59.24,80.19 C 57.96,80.92 56.57,81.64 55.05,81.19 C 47.02,79.82 39,78.3 30.98,76.82 C 29.43,76.68 27.67,75.89 26.22,76.82 C 19.6,80.47 13.07,84.29 6.5,88.03 C 56.21,115.9 105.98,143.67 155.81,171.32 C 155.93,159.7 155.88,148.07 155.87,136.44 C 144.51,134.34 133.14,132.32 121.79,130.16 C 133.04,123.79 144.35,117.52 155.72,111.38 C 155.96,100.07 155.76,88.75 155.82,77.43 C 138.32,87.38 120.89,97.44 103.35,107.31 C 98.65,104.55 93.86,101.94 89.19,99.11 C 111.47,86.25 134.09,73.98 156.48,61.31 C 156.46,49.37 156.49,37.42 156.47,25.48 C 124.06,43.72 91.64,61.93 59.24,80.19 z"
       id="path5"
       style="opacity:1;fill:#084294" />
    <path
       d="M 247.71,41.61 C 259.59,41.6 271.47,41.6 283.35,41.6 C 283.47,54.98 283.09,68.35 283.42,81.72 C 296.33,81.8 309.23,81.64 322.14,81.66 C 322.23,68.29 322.16,54.92 322.17,41.54 C 334.1,41.52 346.02,41.54 357.94,41.54 C 357.9,79.8 358,118.07 358,156.33 C 346.06,156.31 334.12,156.39 322.18,156.25 C 322.17,140.81 322.18,125.38 322.17,109.94 C 309.23,109.93 296.29,109.93 283.35,109.94 C 283.35,125.38 283.36,140.81 283.35,156.24 C 271.45,156.41 259.55,156.34 247.65,156.25 C 247.63,118.04 247.74,79.82 247.71,41.61 z"
       id="path7"
       style="opacity:1;fill:#084294" />
    <path
       d="M 486.89,41.54 C 497.53,41.53 508.18,41.53 518.82,41.54 C 518.81,55.55 518.82,69.55 518.89,83.56 C 523.12,79.77 527.47,75.89 532.84,73.82 C 539.54,71.2 547,70.73 554.06,71.98 C 561.3,73.32 568.03,77.92 571.3,84.61 C 574.53,90.9 575.06,98.12 575.06,105.06 C 575.06,122.15 575.06,139.24 575.05,156.33 C 564.37,156.34 553.69,156.33 543,156.33 C 542.96,141.21 543.08,126.09 542.93,110.97 C 542.77,106.74 542.65,101.79 539.21,98.77 C 534.02,94.48 525.16,95.87 521.7,101.72 C 518.86,106.63 518.95,112.53 518.82,118.02 C 518.85,130.76 518.75,143.5 518.88,156.25 C 508.22,156.41 497.55,156.3 486.89,156.33 C 486.88,118.07 486.88,79.8 486.89,41.54 z"
       id="path9"
       style="opacity:1;fill:#084294" />
    <path
       d="M 745.81,156.32 C 760.07,118 774.63,79.79 789.06,41.54 C 801.99,41.53 814.92,41.53 827.86,41.54 C 842.26,79.8 856.67,118.06 871.05,156.32 C 858.68,156.35 846.32,156.3 833.95,156.35 C 831.98,150.09 830.11,143.79 828.3,137.48 C 814.73,137.33 801.16,137.38 787.59,137.41 C 785.73,143.72 783.89,150.03 782.03,156.33 C 769.95,156.33 757.88,156.34 745.81,156.32 M 795.45,112.48 C 803.86,112.61 812.27,112.55 820.69,112.52 C 816.47,98.83 812.37,85.1 808.1,71.42 C 803.64,85.03 799.69,98.8 795.45,112.48 z"
       id="path11"
       style="opacity:1;fill:#084294" />
    <path
       d="M 881.59,41.54 C 892.23,41.53 902.86,41.54 913.5,41.53 C 913.66,48.77 913.58,56.02 913.45,63.27 C 902.85,63.26 892.25,63.27 881.66,63.26 C 881.52,56.02 881.61,48.78 881.59,41.54 z"
       id="path13"
       style="opacity:1;fill:#084294" />
    <path
       d="M 412.9,71.62 C 422.28,71.05 431.73,71.3 441.07,72.41 C 448.7,73.35 456.68,76.2 461.51,82.5 C 465.54,88.13 467.47,95.11 467.67,101.98 C 467.83,115.63 467.51,129.28 467.84,142.93 C 467.84,147.67 469.75,152.05 471.56,156.33 C 461.58,156.34 451.61,156.34 441.63,156.3 C 439.8,153.24 438.8,149.81 438.19,146.33 C 434.32,149.54 430.38,152.83 425.67,154.71 C 417.23,158.14 407.86,158.69 398.88,157.75 C 391.51,156.9 384.11,153.54 379.73,147.35 C 372.89,138.04 374.52,123.04 384.13,116.21 C 391.46,111.23 400.45,110.07 408.91,108.18 C 418.24,106.32 427.6,104.32 436.46,100.78 C 436.16,97.46 435.87,93.22 432.44,91.57 C 427.11,89.51 421.02,90.09 415.65,91.74 C 411.9,92.95 410.05,96.67 408.59,100.02 C 398.4,99.09 388.24,97.91 378.07,96.86 C 379.53,90.88 381.66,84.66 386.53,80.56 C 393.61,73.94 403.63,72.43 412.9,71.62 M 418.17,122.37 C 414.57,123.68 410.28,124.85 408.46,128.58 C 406.26,132.69 408.6,138.37 413.07,139.72 C 420.73,141.98 429.83,138.86 434.16,132.06 C 436.82,127.48 436.34,121.98 436.42,116.9 C 430.39,118.93 424.24,120.5 418.17,122.37 z"
       id="path15"
       style="opacity:1;fill:#084294" />
    <path
       d="M 642.69,72.83 C 650.42,70.84 658.9,70.58 666.44,73.52 C 671.62,75.54 676.05,79.43 678.56,84.41 C 681.68,90.43 682.4,97.34 682.41,104.03 C 682.42,121.46 682.36,138.89 682.47,156.33 C 671.77,156.34 661.07,156.32 650.37,156.34 C 650.36,141.21 650.33,126.08 650.28,110.95 C 650.13,106.86 650.06,102.15 646.91,99.09 C 641.74,94.34 632.33,95.86 628.91,101.99 C 626.34,106.52 626.32,111.9 626.18,116.97 C 626.19,130.09 626.09,143.21 626.11,156.33 C 615.47,156.31 604.82,156.4 594.18,156.25 C 594.16,128.59 594.19,100.94 594.26,73.29 C 604.17,73.24 614.08,73.28 623.99,73.26 C 624,77.69 623.99,82.11 624.01,86.53 C 629.13,80.71 634.98,74.93 642.69,72.83 z"
       id="path17"
       style="opacity:1;fill:#084294" />
    <path
       d="M 976.01,73.03 C 983.83,69.49 992.69,72 999.99,75.64 C 996.78,83.23 993.4,90.76 990.06,98.3 C 985.11,96.37 978.92,94.58 974.29,98.21 C 968.48,102.94 967.67,111.06 966.88,118.01 C 966.1,130.77 966.5,143.56 966.43,156.33 C 955.74,156.33 945.05,156.33 934.37,156.34 C 934.33,128.65 934.36,100.96 934.35,73.27 C 944.29,73.26 954.23,73.27 964.17,73.27 C 964.16,77.67 964.23,82.07 964.25,86.47 C 967.38,81.43 970.22,75.49 976.01,73.03 z"
       id="path19"
       style="opacity:1;fill:#084294" />
    <path
       d="M 881.58,73.3 C 892.22,73.18 902.87,73.14 913.52,73.28 C 913.67,100.97 913.56,128.65 913.57,156.34 C 902.91,156.32 892.25,156.34 881.59,156.33 C 881.57,128.65 881.61,100.98 881.58,73.3 z"
       id="path21"
       style="opacity:1;fill:#084294" />
  </g>
</svg>
