<?xml version="1.0" encoding="utf-8"?>
<svg version="1.1" id="Layer_1" xmlns="http://www.w3.org/2000/svg" xmlns:xlink="http://www.w3.org/1999/xlink" x="0px" y="0px"
	 width="148" height="48" viewBox="0 0 946 305" style="enable-background:new 0 0 946 305;" xml:space="preserve">
<g>
	<path fill="#000" d="M45.064 1.242c-3.8.8-10.5 3.2-15 5.3-16.9 8.2-26.7 21.4-29.6 40.2-2.5 16.6 5.2 31 20.8 38.8 9.4 4.7 14.6 5.7 28.8 5.7 11 0 14-.4 19.7-2.3 8.6-3 17.5-8.8 22-14.3 3.6-4.5 7.8-11.9 7.8-13.9 0-.7-3.7-1-11.2-.8l-11.1.3-2.2 4c-2.7 4.8-9.2 10-14.3 11.5-4.9 1.3-16.5 1.3-21.3-.1-11.4-3.5-17.4-15.2-15-29.7 2.1-12.8 8.6-22.7 18.6-28 4.5-2.4 6-2.7 15.5-2.7 9.6 0 10.9.2 15.2 2.7 5.2 3.1 8.6 7.9 9.5 13.3l.6 3.6 11.1-.3 11.1-.3-.3-4c-.1-2.2-1.6-6.8-3.3-10.3-3.8-7.8-10.6-13.3-21.1-16.9-9.2-3.2-25.6-4-36.3-1.8ZM128.064 2.942c-.2.7-2.7 10.1-5.5 20.8-4.2 15.7-16.6 59.2-18.5 64.8-.4 1 7.3 1.2 37.7 1l38.2-.3 1.8-6c1-3.3 1.8-6.3 1.8-6.8 0-.4-11.7-.7-26-.7s-26-.3-26-.7c0-.3 1.4-6 3.1-12.5l3.1-11.8 23.7-.2 23.6-.3 1.7-5c3-9.2 4.8-8.5-21.2-8.5-20.1 0-23-.2-23-1.6 0-.8 1.2-5.5 2.7-10.5l2.7-8.9h51.5l1.5-5.4c2.8-9.5 6.4-8.6-35.4-8.6-28.8 0-37.2.3-37.5 1.2ZM219.164 3.442c-.3 1-3.1 11.2-6.1 22.8-3.1 11.5-8.3 30-11.6 41.1-3.2 11-5.9 20.6-5.9 21.3 0 .8 2.9 1.1 10.7.9l10.6-.3 4.2-15c2.3-8.3 5.9-22.1 8.1-30.8 2.1-8.6 4.1-15.7 4.4-15.7.3 0 6.3 14 13.4 31l12.9 31.1 14-.3 14-.3 6.2-23c5.4-20.3 16.5-58.8 18.1-63 .5-1.3-.9-1.5-10.4-1.5h-11.1l-1.5 5.2c-3.3 11.4-11.4 41.7-13.1 48.8-1 4.1-2 7.8-2.4 8.2-.3.4-6.6-13.3-13.8-30.5l-13.2-31.2-13.5-.3c-12.2-.2-13.5-.1-14 1.5ZM322.064 6.942c-2.7 9.3-3.6 8.8 13.6 8.8 13.8 0 15 .1 14.5 1.7-.3 1-2.1 8.1-4 15.8-2 7.7-6.4 23.4-10 35l-6.4 21 11.6.3c6.3.1 11.9-.1 12.3-.5.4-.4 3.5-11.4 6.8-24.3s7.8-29.1 10-36l3.9-12.5 15.6-.3 15.5-.3 1.1-3.7c.5-2.1 1.3-5.2 1.6-7l.7-3.2h-85.2l-1.6 5.2ZM420.064 2.942c-.2.7-3.3 12.3-6.9 25.8-3.6 13.5-9 32.6-12 42.5l-5.3 18 11.5.3c6.3.1 11.6.1 11.8-.1.2-.1 2.2-7.5 4.6-16.2l4.3-16 7.7-.3 7.7-.3 4.4 8.8c2.4 4.8 5.9 12.3 7.7 16.5l3.4 7.8h13.3c7.3 0 13.3-.2 13.3-.5s-3.6-7.8-8.1-16.6c-4.4-8.9-7.7-16.5-7.2-16.9.4-.4 3.1-1.5 5.9-2.4 14.6-4.7 22.4-14.7 22.4-28.8 0-7-1.6-10.4-6.9-15-7.5-6.4-12.1-7.2-43.4-7.6-22.3-.3-27.8-.1-28.2 1Zm50 14.2c4.2 1.8 5.5 4.2 5.5 10.2 0 6.1-2.9 10.7-8.4 13.3-3.7 1.8-6.1 2.1-19.4 2.1-9.3 0-15.2-.4-15.2-1 0-.5 1.7-6.6 3.7-13.5l3.6-12.5h13.4c9.3 0 14.4.4 16.8 1.4ZM519.664 5.442c-5.4 20.8-10.5 39.3-12.6 46.2-7.6 25.2 2.7 38.6 30.6 39.9 25.4 1.1 41.9-6.8 49.9-24.1 2.3-4.9 20-62.5 20-65 0-.4-4.9-.7-11-.7h-10.9l-1.2 4.2c-7.5 28.4-15.2 55.5-16.4 57.8-2.6 5-8.5 9.9-13.8 11.5-9.3 2.8-19.4 1.5-23.6-2.9-4.7-5-4.2-8.4 7.4-47.1 3.6-12.1 6.5-22.3 6.5-22.7 0-.4-5.4-.8-12-.8h-11.9l-1 3.7ZM623.164 3.442c-.3 1-3.1 11.2-6.1 22.8-3.1 11.5-8.3 30-11.6 41.1-3.2 11-5.9 20.6-5.9 21.3 0 .8 2.8 1.1 10.2.9l10.2-.3 2.8-9.5c1.5-5.2 5.4-19.6 8.5-32 3.2-12.4 5.9-21.6 6.1-20.5.2 1.1 2.7 15.5 5.5 32l5.2 30h19l21-29.7c11.5-16.3 21.1-29.5 21.3-29.3.2.2-1.9 7.7-4.6 16.7-5.2 16.8-12.2 41.3-12.2 42.3 0 .3 5.2.4 11.6.3l11.7-.3 6.2-23.5c3.5-12.9 8.8-31.9 11.9-42.2 3.1-10.3 5.6-19.4 5.6-20.3 0-1.3-2.3-1.5-15.4-1.5h-15.4l-22.1 31.5c-12.2 17.3-22.5 31.6-22.9 31.9-.4.2-2.7-11.3-5.1-25.7-2.4-14.4-4.8-28.8-5.3-32l-1-5.7h-14.3c-12.8 0-14.4.2-14.9 1.7ZM759.464 44.942c-17.3 23.7-31.6 43.6-31.8 44.1-.1.4 1.6.7 4 .5l4.3-.3 10-14.2 10.1-14.3h23.3c12.7 0 23.2.1 23.3.2 0 .2 1 6.6 2.2 14.3l2.2 14 3.8.3c2.5.2 3.7-.1 3.7-1 0-1.4-12.7-80.7-13.5-84.6-.5-1.9-1.2-2.2-5.4-2.2h-4.9l-31.3 43.2Zm39.1-12.4c1.8 11.8 3 21.5 2.7 21.8-.2.2-9.4.3-20.4.2l-20-.3 16.6-23.3c12.8-18 16.7-22.9 17.3-21.5.4 1 2.1 11.4 3.8 23.1ZM852.064 2.942c-.2.7-2.7 9.8-5.5 20.3-4.3 16-17.1 61.1-18.5 65.3-.4 1 .6 1.2 3.7 1l4.1-.3 3.4-12.5c3.3-12.3 15.3-55 19.2-68.3l2-6.7h-4c-2.3 0-4.2.5-4.4 1.2ZM875.164 19.942c-2.7 10-8.2 29.6-12.2 43.5-4.1 13.9-7.4 25.4-7.4 25.7 0 .4 1.7.6 3.9.6h3.8l5.4-19.3 5.4-19.2h27.9l1.9 3.2c1 1.8 5.2 10.3 9.3 19l7.4 15.8 4 .3c2.2.2 4 0 4-.4 0-.3-3.8-8.7-8.5-18.6-4.7-9.9-8.5-18.3-8.5-18.7 0-.4 2.7-1.3 6-1.9 16-3.3 25.9-12.2 27.6-24.6 1.3-8.9-3-15.7-12.8-20.2-6.3-2.9-6.4-2.9-29.3-3.2l-23-.4-4.9 18.4Zm52.9-10.2c2.8 1.4 6 4 7.2 5.9 4.4 6.6 2 16.9-5.3 22.9-6.9 5.7-10.7 6.5-33.7 7-19.9.4-20.9.3-20.4-1.5.3-1 2.7-9 5.2-17.8s4.9-16.8 5.2-17.9c.5-1.7 1.7-1.8 18.7-1.4 16.9.3 18.4.5 23.1 2.8Z">
	</path>
	<path fill="#174ABC" d="M206.564 108.642c4.7 1 122.7 22.2 262.2 47.2 139.6 25 253.8 45.6 253.8 45.9 0 .3-84.1 23.4-186.9 51.5-102.8 28-186.8 51.1-186.7 51.2.5.5 124.8-8.8 197.6-14.7 127.2-10.4 189.5-17.4 227.7-25.6 54.8-11.7 81.1-26.3 103.7-57.5l5.4-7.4-3.2-1.7c-7.9-4.1-14.6-15.2-14.6-24.3 0-9.3 6.9-20.4 15.3-24.7 13.1-6.6 30.3-1.1 36.8 11.9l2.6 5.2c.1.2 4-.8 8.5-2.2 4.6-1.4 10-2.9 12.1-3.2 4.4-.7 4.6-1.8 1.6-10.8-6.7-20-19.9-33.4-39.4-39.9l-7-2.3-349-.1c-332-.2-348.6-.1-340.5 1.5Z">
	</path>
	<path fill="#EF11B6" d="M911.164 172.442c-10.7 7.2-28 25.2-26.2 27.1.4.4 4 .7 7.9.7 15.7-.1 26.4-10.1 27.5-25.8.6-8.2.2-8.3-9.2-2Z"></path>
</g>
</svg>
