<?xml version="1.0" encoding="UTF-8" standalone="no"?>
<svg    xmlns:dc="http://purl.org/dc/elements/1.1/" xmlns:cc="http://creativecommons.org/ns#" xmlns:rdf="http://www.w3.org/1999/02/22-rdf-syntax-ns#" xmlns:svg="http://www.w3.org/2000/svg" xmlns="http://www.w3.org/2000/svg"
   version="1.1" x="0" y="0" viewBox="0 0 220.68462 41.496668" height="41.49667" width="220.68462">
  <g
     transform="translate(-934.79286,-784.01747)">
    <g
       style="fill:#ed1d24;fill-opacity:1"
       transform="translate(535.01613,-175.16006)">
      <g
         style="fill:#ed1d24;fill-opacity:1"
         transform="matrix(1.25,0,0,-1.25,451.69985,979.87755)">
        <path
           d="m 0,0 -10.942,0 c -0.104,-2.516 0.865,-4.327 3.614,-4.327 1.962,0 3.919,0.613 4.945,1.12 l 0.519,-3.496 c -1.513,-0.785 -3.923,-1.44 -6.668,-1.44 -4.68,0 -7.426,2.771 -7.426,7.453 0,2.844 0.923,6.086 2.51,8.382 1.784,2.632 4.498,4.285 7.864,4.285 4.097,0 6.395,-2.513 6.395,-6.828 C 0.811,4.064 0.521,1.668 0,0 m -6.234,8.7 c -1.542,0 -2.848,-1.116 -3.748,-3.013 -0.369,-0.833 -0.434,-1.06 -0.683,-2.086 l 6.453,0 c 0.148,0.57 0.285,1.505 0.285,2.119 0,1.944 -0.829,2.98 -2.307,2.98"
           style="fill:#ed1d24;fill-opacity:1;fill-rule:nonzero;stroke:none" />
      </g>
      <path
         style="fill:#ed1d24;fill-opacity:1;fill-rule:nonzero;stroke:none"
         d="m 409.17923,996.7698 -6.05,0 -2.8525,-31.195 6.61375,0 1.215,21.2075 9.30375,-21.2075 6.83625,0 -15.06625,31.195 z" />
      <g
         style="fill:#ed1d24;fill-opacity:1"
         transform="matrix(1.25,0,0,-1.25,466.31398,970.07792)">
        <path
           d="m 0,0 -2.869,0 -2.015,-10.151 c -0.063,-0.295 -0.392,-2.059 1.307,-2.15 0.48,-0.037 1.191,0.095 1.504,0.241 0,0 -0.83,-3.923 -4.592,-3.923 -2.91,0 -4.238,2.294 -3.556,5.726 l 3.382,16.853 c 0,0 1.912,2.263 5.627,1.604 C -1.855,5.016 -2.148,3.602 -2.148,3.602 L 0.716,3.609 0,0 Z"
           style="fill:#ed1d24;fill-opacity:1;fill-rule:nonzero;stroke:none" />
      </g>
      <g
         style="fill:#ed1d24;fill-opacity:1"
         transform="matrix(1.25,0,0,-1.25,510.8051,970.07792)">
        <path
           d="m 0,0 -2.872,0 -2.019,-10.151 c -0.064,-0.295 -0.388,-2.059 1.313,-2.15 0.476,-0.037 1.187,0.095 1.499,0.241 0,0 -0.828,-3.923 -4.59,-3.923 -2.906,0 -4.234,2.294 -3.546,5.726 l 3.371,16.853 c 0,0 1.92,2.263 5.636,1.604 C -1.856,5.016 -2.152,3.602 -2.152,3.602 L 0.725,3.609 0,0 Z"
           style="fill:#ed1d24;fill-opacity:1;fill-rule:nonzero;stroke:none" />
      </g>
      <g
         style="fill:#ed1d24;fill-opacity:1"
         transform="matrix(1.25,0,0,-1.25,496.19598,979.87755)">
        <path
           d="m 0,0 -10.943,0 c -0.108,-2.516 0.861,-4.327 3.609,-4.327 1.955,0 3.916,0.613 4.943,1.12 l 0.525,-3.496 c -1.515,-0.785 -3.923,-1.44 -6.68,-1.44 -4.665,0 -7.413,2.771 -7.413,7.453 0,2.844 0.916,6.086 2.502,8.382 1.791,2.632 4.508,4.285 7.874,4.285 4.095,0 6.397,-2.513 6.397,-6.828 C 0.814,4.064 0.522,1.668 0,0 m -6.237,8.7 c -1.544,0 -2.856,-1.116 -3.746,-3.013 -0.381,-0.833 -0.441,-1.06 -0.685,-2.086 l 6.445,0 c 0.153,0.57 0.29,1.505 0.29,2.119 0,1.944 -0.825,2.98 -2.304,2.98"
           style="fill:#ed1d24;fill-opacity:1;fill-rule:nonzero;stroke:none" />
      </g>
      <g
         style="fill:#ed1d24;fill-opacity:1"
         transform="matrix(1.25,0,0,-1.25,558.95823,970.16905)">
        <path
           d="m 0,0 c -1.269,0.51 -2.653,0.547 -3.539,0.148 l -3.129,-15.872 -5.27,0 3.645,18.31 c 2.216,1.27 6.337,2.014 9.564,1.419 L 0,0 Z"
           style="fill:#ed1d24;fill-opacity:1;fill-rule:nonzero;stroke:none" />
      </g>
      <path
         style="fill:#ed1d24;fill-opacity:1;fill-rule:nonzero;stroke:none"
         d="m 526.77448,996.7698 0.0662,-6.95125 -9.12625,0 -3.68375,6.95125 -6.5375,0 17.9,-31.195 6.82375,0 1.1675,31.195 -6.61,0 z m 0.21625,-24.26125 -6.875,12.80875 6.73,0 0.145,-12.80875 z" />
      <g
         style="fill:#ed1d24;fill-opacity:1"
         transform="matrix(1.25,0,0,-1.25,460.05948,1000.1742)">
        <path
           d="m 0,0 c -4.731,0 -7.321,3.23 -6.939,6.604 2.343,-2.838 6.701,-2.846 9.3,-0.464 0.959,0.864 1.744,2.259 2.39,5.608 1.119,5.712 3.198,15.931 3.198,15.931 l 5.299,0 L 9.579,9.409 C 8.368,3.71 4.735,0 0,0"
           style="fill:#ed1d24;fill-opacity:1;fill-rule:nonzero;stroke:none" />
      </g>
      <path
         style="fill:#ed1d24;fill-opacity:1;fill-rule:nonzero;stroke:none"
         d="m 427.1901,989.81817 -6.61125,0 4.85,-24.2425 6.6225,0 -4.86125,24.2425 z" />
      <path
         style="fill:#ed1d24;fill-opacity:1;fill-rule:nonzero;stroke:none"
         d="m 540.9196,989.81817 -6.6225,0 4.865,-24.2425 6.62875,0 -4.87125,24.2425 z" />
      <g
         style="fill:#ed1d24;fill-opacity:1"
         transform="matrix(1.25,0,0,-1.25,556.06298,990.05642)">
        <path
           d="M 0,0 C -0.878,0 -1.489,0.658 -1.489,1.499 -1.489,2.636 -0.45,3.73 0.7,3.73 1.576,3.73 2.209,3.089 2.209,2.229 2.209,1.096 1.14,0 0,0"
           style="fill:#ed1d24;fill-opacity:1;fill-rule:nonzero;stroke:none" />
      </g>
      <g
         style="fill:#ed1d24;fill-opacity:1"
         transform="matrix(1.25,0,0,-1.25,572.61485,975.4113)">
        <path
           d="m 0,0 c -0.262,0.211 -0.798,0.486 -1.436,0.486 -1.051,0 -1.994,-0.619 -2.704,-1.939 -0.676,-1.205 -1.109,-3.077 -1.109,-4.467 0,-1.771 0.695,-2.707 1.796,-2.707 0.718,0 1.478,0.266 1.865,0.556 l 0.331,-2.564 c -0.661,-0.589 -1.84,-1.072 -3.433,-1.072 -2.681,0 -4.602,2.138 -4.602,5.542 0,2.117 0.772,4.662 1.921,6.376 1.382,2.032 3.329,3.053 5.321,3.053 1.561,0 2.874,-0.59 3.326,-1.067 L 0,0 Z"
           style="fill:#ed1d24;fill-opacity:1;fill-rule:nonzero;stroke:none" />
      </g>
      <g
         style="fill:#ed1d24;fill-opacity:1"
         transform="matrix(1.25,0,0,-1.25,585.65023,986.03467)">
        <path
           d="m 0,0 c -1.276,-1.981 -3.227,-3.208 -5.833,-3.208 -3.268,0 -4.96,2.19 -4.96,5.328 0,2.115 0.742,4.743 1.864,6.458 1.303,2.012 3.273,3.185 5.802,3.185 3.279,0 4.998,-2.166 4.998,-5.305 C 1.871,4.339 1.097,1.719 0,0 m -3.455,9.167 c -1.072,0 -1.842,-0.861 -2.378,-2.143 -0.588,-1.37 -1.102,-3.827 -1.102,-5.305 0,-1.232 0.353,-2.09 1.483,-2.09 1.109,0 1.817,0.799 2.352,2.09 0.573,1.368 1.126,3.857 1.126,5.327 0,1.235 -0.383,2.121 -1.481,2.121"
           style="fill:#ed1d24;fill-opacity:1;fill-rule:nonzero;stroke:none" />
      </g>
      <g
         style="fill:#ed1d24;fill-opacity:1"
         transform="matrix(1.25,0,0,-1.25,614.40935,977.23892)">
        <path
           d="m 0,0 -1.992,-10.115 -4.025,0 2.041,10.25 c 0.022,0.188 0.052,0.346 0.052,0.533 0,0.841 -0.496,1.44 -1.683,1.44 -0.722,0 -1.438,-0.324 -1.934,-0.762 l -2.27,-11.461 -4.027,0 2.042,10.281 c 0.024,0.185 0.053,0.341 0.053,0.502 0,0.897 -0.622,1.44 -1.833,1.44 -0.655,0 -1.196,-0.111 -1.71,-0.297 l -2.349,-11.926 -4.019,0 2.735,13.76 c 1.645,0.705 3.538,1.081 5.852,1.081 1.838,0 3.328,-0.648 3.98,-1.459 0.925,0.758 2.681,1.459 4.977,1.459 2.819,0 4.211,-1.51 4.211,-3.672 C 0.101,0.708 0.074,0.351 0,0"
           style="fill:#ed1d24;fill-opacity:1;fill-rule:nonzero;stroke:none" />
      </g>
      <g
         style="fill:#ed1d24;fill-opacity:1"
         transform="matrix(1.25,0,0,-1.25,618.75785,989.1168)">
        <path
           d="M 0,0 C -0.034,0.036 -0.057,0.085 -0.07,0.132 -0.087,0.178 -0.099,0.239 -0.109,0.293 -0.118,0.349 -0.123,0.406 -0.123,0.464 -0.126,0.526 -0.127,0.574 -0.132,0.639 -0.136,0.697 -0.148,0.748 -0.16,0.806 -0.171,0.854 -0.191,0.904 -0.212,0.95 -0.239,0.99 -0.271,1.029 -0.313,1.061 -0.351,1.088 -0.404,1.11 -0.465,1.118 l -0.002,0 c 0.133,0.038 0.233,0.119 0.296,0.222 0.059,0.105 0.092,0.236 0.092,0.376 0,0.191 -0.063,0.344 -0.181,0.456 -0.12,0.111 -0.292,0.166 -0.508,0.166 l -1.055,0 0,-2.35 0.312,0 0,0.996 0.719,0 c 0.072,0 0.123,-0.013 0.169,-0.034 0.044,-0.028 0.077,-0.052 0.101,-0.089 0.028,-0.037 0.052,-0.081 0.059,-0.131 0.016,-0.054 0.027,-0.103 0.034,-0.162 0.01,-0.053 0.02,-0.111 0.02,-0.173 L -0.404,0.23 c 0.003,-0.052 0.004,-0.098 0.018,-0.136 0.005,-0.048 0.02,-0.077 0.05,-0.106 l 0.342,0 L 0,0 Z m -1.511,2.06 0.732,0 c 0.133,0 0.233,-0.04 0.292,-0.107 0.062,-0.076 0.096,-0.169 0.096,-0.287 0,-0.08 -0.013,-0.153 -0.041,-0.2 C -0.463,1.415 -0.499,1.37 -0.541,1.34 -0.588,1.312 -0.642,1.284 -0.703,1.278 -0.768,1.264 -0.831,1.261 -0.897,1.261 l -0.614,0 0,0.799 z"
           style="fill:#ed1d24;fill-opacity:1;fill-rule:nonzero;stroke:none" />
      </g>
      <g
         style="fill:#ed1d24;fill-opacity:1"
         transform="matrix(1.25,0,0,-1.25,617.56885,990.17142)">
        <path
           d="m 0,0 c -1.057,0 -1.917,0.898 -1.917,2.007 0,1.104 0.86,2 1.917,2 1.056,0 1.914,-0.896 1.914,-2 C 1.914,0.898 1.056,0 0,0 m 0,3.713 c -0.902,0 -1.629,-0.768 -1.629,-1.706 0,-0.946 0.727,-1.706 1.629,-1.706 0.899,0 1.627,0.76 1.627,1.706 0,0.938 -0.728,1.706 -1.627,1.706"
           style="fill:#ed1d24;fill-opacity:1;fill-rule:nonzero;stroke:none" />
      </g>
    </g>
  </g>
</svg>
