<?xml version="1.0" encoding="UTF-8"?>
<svg width="147px" height="56px" viewBox="0 0 147 56" version="1.1" xmlns="http://www.w3.org/2000/svg" xmlns:xlink="http://www.w3.org/1999/xlink">
    <g id="Page-1" stroke="none" stroke-width="1" fill="none" fill-rule="evenodd">
        <g transform="translate(0.802105, 0.187502)">
            <path d="M92.1578946,15.6624976 C91.9678946,15.6224976 91.6878946,15.0924976 91.5578946,14.8224976 L84.8178946,0.512497589 C84.6278946,0.102497589 84.1178946,-0.0175024107 83.6578946,0.00249758935 C82.8678946,0.0424975893 81.9378946,0.0224975893 81.1778946,0.00249758935 C80.7878946,-0.00750241065 79.8978946,0.182497589 79.8078946,0.662497589 C79.7378946,1.01249759 80.0278946,1.08249759 80.2478946,1.22249759 C80.8578946,1.58249759 82.1678946,2.28249759 82.1478946,2.97249759 C82.1378946,3.22249759 81.8878946,3.76249759 81.8078946,3.97249759 C80.0978946,8.72249759 78.5178946,13.5324976 76.7178946,18.2424976 C76.5378946,18.7224976 76.0678946,18.9024976 75.6278946,19.1624976 C75.2278946,19.3924976 73.9978946,19.6424976 73.9978946,20.1424976 C73.9978946,20.5524976 74.6078946,20.4424976 74.9678946,20.4524976 C75.5878946,20.4724976 79.1378946,20.5724976 79.6278946,20.1924976 C79.7778946,20.0724976 79.8978946,20.0524976 79.9678946,19.8624976 C80.1178946,19.4624976 79.6878946,19.3124976 79.3778946,19.2324976 C79.1978946,19.1824976 79.0578946,19.1324976 78.8978946,19.0424976 C77.9778946,18.5224976 78.5178946,17.7124976 78.6978946,17.1924976 L83.0078946,5.00249759 C83.1378946,4.63249759 83.4278946,4.74249759 83.5178946,4.95249759 L89.9678946,19.2024976 C90.0778946,19.4424976 90.3078946,19.8224976 90.4478946,20.0524976 C90.7978946,20.5924976 91.8878946,20.6524976 92.3178946,20.1624976 C92.4878946,19.9724976 92.6978946,19.5424976 92.7878946,19.2924976 C94.4378946,14.5324976 96.7078946,5.63249759 98.6078946,2.40249759 C98.6578946,2.31249759 98.7078946,2.30249759 98.7678946,2.21249759 C98.8978946,2.02249759 99.0178946,1.81249759 99.2378946,1.69249759 L100.087895,1.21249759 C100.427895,1.01249759 101.157895,0.822497589 101.387895,0.502497589 C101.767895,-0.0375024107 101.017895,-0.0175024107 100.647895,0.0124975893 C99.8778946,0.0724975893 98.8978946,0.0324975893 98.1278946,0.0524975893 C97.6478946,0.0624975893 97.2678946,0.0124975893 96.8378946,0.0124975893 C96.1678946,0.0124975893 96.2378946,0.102497589 95.8078946,0.322497589 C95.5078946,0.472497589 95.3078946,0.842497589 95.6778946,1.06249759 C95.9278946,1.21249759 96.1278946,1.12249759 96.6178946,1.45249759 C96.9078946,1.65249759 97.2378946,1.88249759 97.0978946,2.29249759 L92.7978946,14.7124976 C92.6278946,15.1824976 92.4578946,15.7224976 92.1578946,15.6624976 L92.1578946,15.6624976 Z M57.5878946,19.6024976 C57.5778946,19.4024976 57.2778946,19.3624976 56.8978946,19.2424976 C55.9178946,18.9424976 55.9278946,18.3524976 56.2178946,17.4624976 L59.0978946,8.78249759 C59.3978946,7.87249759 59.0478946,6.53249759 58.0678946,6.02249759 C56.6078946,5.26249759 54.4578946,5.69249759 52.9578946,6.34249759 C52.0878946,6.71249759 51.1278946,7.48249759 50.4378946,8.14249759 C50.0878946,8.48249759 49.3478946,8.96249759 49.5078946,8.23249759 C49.5578946,7.98249759 49.7178946,7.78249759 49.8078946,7.55249759 C49.9578946,7.19249759 50.4078946,6.66249759 50.1278946,6.17249759 C50.0478946,6.03249759 49.9978946,6.02249759 49.8278946,5.98249759 C49.5878946,5.92249759 46.8478946,5.96249759 46.5978946,5.96249759 C46.2678946,5.97249759 45.7078946,6.19249759 45.6478946,6.51249759 C45.5678946,7.02249759 46.1078946,7.00249759 46.4578946,7.19249759 C47.6278946,7.82249759 47.1278946,8.33249759 46.9078946,8.97249759 L43.9378946,17.5624976 C43.5278946,18.7424976 42.9678946,18.9024976 41.9278946,19.3924976 C41.5878946,19.5524976 41.0278946,19.5724976 40.9078946,20.1624976 C40.8378946,20.4924976 41.5178946,20.4224976 42.5578946,20.4224976 L46.9678946,20.3924976 C47.4678946,20.3924976 47.7778946,19.6124976 47.5078946,19.4724976 C47.1778946,19.3124976 46.8178946,19.1924976 46.5478946,19.0124976 C46.1578946,18.7524976 46.0578946,18.4624976 46.1878946,17.8924976 C46.2678946,17.5624976 46.2778946,17.5524976 46.3878946,17.2924976 C46.8378946,16.3024976 47.3578946,14.8424976 47.6978946,13.7924976 C48.1778946,12.3124976 49.8178946,10.0524976 50.9078946,8.93249759 C52.0078946,7.80249759 53.2078946,7.09249759 54.8078946,7.23249759 C57.3478946,7.46249759 56.3378946,10.0124976 55.9878946,11.4124976 C55.6878946,12.6424976 54.1978946,16.8224976 53.6678946,17.9224976 C53.5678946,18.1324976 53.3278946,18.5224976 53.1578946,18.6624976 C52.4878946,19.2124976 51.8478946,19.2124976 51.3078946,19.6124976 C51.1178946,19.7524976 50.9678946,19.7824976 50.8578946,19.9724976 C50.7278946,20.2124976 50.7878946,20.4124976 51.0678946,20.4524976 C51.4878946,20.5124976 52.0278946,20.3624976 52.4278946,20.4124976 C52.6378946,20.4424976 54.8078946,20.4024976 55.3678946,20.3924976 C55.8778946,20.3824976 56.5078946,20.4224976 56.9978946,20.2724976 C57.4378946,20.1524976 57.5978946,19.9924976 57.5878946,19.6024976 L57.5878946,19.6024976 Z M111.507895,6.45249759 C111.717895,6.22249759 111.957895,5.96249759 112.217895,5.96249759 L115.507895,5.90249759 C115.967895,5.89249759 115.947895,6.31249759 115.797895,6.79249759 L112.337895,17.1424976 C111.677895,19.1024976 112.927895,18.7824976 113.777895,19.4824976 C113.997895,19.6624976 113.837895,19.8724976 113.417895,20.1924976 C113.167895,20.3824976 112.697895,20.4424976 112.187895,20.4424976 L110.307895,20.4424976 C109.997895,20.4424976 108.777895,20.4324976 109.007895,19.7224976 L109.407895,18.4524976 C109.547895,18.0024976 108.657895,18.4824976 108.327895,18.7324976 C106.747895,19.9624976 104.597895,20.9424976 102.587895,20.7324976 C100.437895,20.5024976 99.8278946,18.8824976 100.457895,17.0224976 L103.047895,9.43249759 C103.467895,8.20249759 103.627895,7.58249759 102.467895,7.09249759 C102.227895,6.99249759 101.407895,6.73249759 102.147895,6.19249759 C102.497895,5.94249759 102.577895,5.95249759 103.127895,5.95249759 L105.517895,5.95249759 C106.017895,5.95249759 106.197895,5.94249759 106.367895,6.31249759 C106.527895,6.67249759 106.367895,6.91249759 106.247895,7.24249759 L103.357895,15.1524976 C102.937895,16.2924976 102.547895,17.9924976 103.747895,18.8424976 C104.997895,19.7324976 107.037895,18.9324976 108.057895,17.9524976 C108.857895,17.1824976 109.907895,15.8824976 110.407895,14.9024976 C111.287895,13.1524976 112.547895,10.3724976 112.977895,8.43249759 C113.127895,7.76249759 112.607895,7.27249759 112.027895,7.06249759 C111.527895,6.88249759 111.277895,6.70249759 111.507895,6.45249759 L111.507895,6.45249759 Z M30.0978946,19.3424976 C29.4778946,19.3424976 28.7778946,18.8524976 28.5078946,18.3924976 C28.3778946,18.1524976 28.3578946,18.0324976 28.2578946,17.8024976 C27.6978946,16.5024976 28.3378946,14.8224976 28.7278946,13.5724976 C29.6678946,10.5324976 32.1678946,7.49249759 35.2878946,6.66249759 C36.1878946,6.42249759 37.2278946,6.49249759 37.9478946,7.17249759 C38.1778946,7.39249759 38.6678946,8.28249759 38.6078946,8.49249759 L37.2078946,13.2024976 C36.5379015,15.4324976 32.6278946,19.3424976 30.0978946,19.3424976 L30.0978946,19.3424976 Z M37.9978946,18.0424976 C37.6178946,19.2024976 39.1178946,18.9824976 39.3078946,19.6924976 C39.3578946,19.8624976 38.8978946,20.4224976 38.2578946,20.4424976 C37.4878946,20.4624976 35.1178946,20.7124976 34.9978946,19.8924976 C34.9578946,19.6524976 35.9278946,17.7024976 35.7278946,17.1824976 C35.6078946,16.8724976 35.4978946,17.2124976 35.3278946,17.3624976 C33.6578946,18.8624976 32.5278946,20.2724976 30.0678946,20.6824976 C29.1878946,20.8224976 27.9278946,20.8424976 27.1678946,20.3624976 C26.9678946,20.2324976 26.8378946,20.1424976 26.6478946,19.9924976 C26.2178946,19.6324976 26.5678946,19.9824976 26.2078946,19.5424976 C25.8378946,19.0824976 25.8478946,18.9524976 25.6678946,18.3124976 C25.1678946,16.5224976 25.6578946,14.7624976 26.3878946,13.1324976 C28.7278946,7.96249759 32.8378946,5.25249759 38.0778946,5.59249759 C38.7478946,5.63249759 40.3878946,6.01249759 40.9178946,6.58249759 C41.3078946,7.01249759 41.4978946,7.38249759 41.3178946,7.92249759 L37.9978946,18.0424976 L37.9978946,18.0424976 Z M18.5278946,0.422497589 C18.7378946,-0.0575024107 17.8878946,0.0224975893 17.5178946,0.0224975893 L3.27789461,0.112497589 C2.94789461,0.112497589 1.23789461,1.22249759 2.03789461,1.50249759 C2.45789461,1.65249759 5.83789461,1.60249759 6.42789461,1.60249759 C8.04789461,1.60249759 8.77789461,1.38249759 8.38789461,2.49249759 L3.04789461,17.5024976 C2.48789461,19.0824976 1.78789461,18.9724976 0.387894608,19.7424976 C-0.242105392,20.0924976 0.00789460795,20.4924976 0.347894608,20.4924976 L6.23789461,20.4024976 C6.53789461,20.4024976 7.06789461,20.0524976 6.98789461,19.6824976 C6.85789461,19.0824976 4.96789461,19.4524976 5.61789461,17.5824976 L10.8278946,2.48249759 C10.9678946,2.08249759 11.0878946,1.72249759 11.4778946,1.63249759 C11.9478946,1.53249759 14.3078946,1.72249759 15.1078946,1.80249759 C15.8278946,1.87249759 16.7678946,1.76249759 17.3878946,1.38249759 C17.6478946,1.20249759 18.4078946,0.692497589 18.5278946,0.422497589 L18.5278946,0.422497589 Z M66.4978946,20.4424976 C67.8378946,20.0624976 69.4078946,19.0824976 70.2278946,17.9024976 C73.7978946,12.7524976 65.9378946,10.8624976 66.4678946,8.87249759 C66.9178946,7.18249759 69.2278946,6.12249759 70.7478946,6.80249759 C71.0878946,6.95249759 71.3778946,7.10249759 71.5978946,7.50249759 C71.9678946,8.20249759 71.9278946,8.96249759 72.2278946,8.97249759 C72.4878946,8.98249759 72.6778946,8.79249759 72.8378946,8.62249759 C73.0078946,8.43249759 73.6778946,6.71249759 73.6178946,6.41249759 C73.5478946,6.05249759 73.2678946,5.93249759 72.6378946,5.79249759 C71.8478946,5.61249759 70.9778946,5.56249759 70.1678946,5.60249759 C68.1178946,5.69249759 64.9378946,7.03249759 64.2078946,9.21249759 C62.8178946,13.3424976 69.4178946,13.8624976 68.5978946,16.8224976 C68.2078946,18.2424976 67.1278946,19.1824976 65.7778946,19.6924976 C63.3378946,20.6224976 62.1678946,18.6124976 62.1878946,16.5724976 C62.1878946,16.3024976 62.1478946,15.9524976 61.7978946,15.9624976 C61.3878946,15.9724976 61.2578946,16.5924976 61.1478946,16.9024976 L60.4778946,18.8124976 C60.3578946,19.1424976 60.1978946,19.3424976 60.2978946,19.6124976 C60.8578946,21.1324976 65.2078946,20.8124976 66.4978946,20.4424976 L66.4978946,20.4424976 Z M122.437895,8.87249759 C122.437895,7.90249759 124.497895,6.65249759 125.357895,6.57249759 C126.487895,6.46249759 127.207895,6.75249759 127.547895,7.43249759 C127.737895,7.81249759 128.027895,9.15249759 128.417895,8.99249759 C128.417895,8.99249759 128.907895,8.57249759 129.017895,8.27249759 C129.257895,7.65249759 129.887895,6.82249759 129.597895,6.41249759 C128.987895,5.53249759 128.817895,5.70249759 127.957895,5.59249759 C126.827895,5.44249759 125.987895,5.57249759 124.907895,5.77249759 C122.947895,6.14249759 121.467895,7.18249759 120.357895,8.84249759 C117.987895,12.3724976 125.057895,14.1324976 124.667895,16.6124976 C124.317895,18.8624976 122.097895,20.4424976 119.657895,19.7224976 C118.787895,19.4624976 118.237895,18.4724976 118.167895,17.6324976 C118.127895,17.1024976 118.247895,15.5124976 117.597895,15.9824976 C117.347895,16.1624976 116.157895,19.1324976 116.237895,19.3824976 C116.557895,20.3924976 118.277895,20.6524976 119.147895,20.7124976 C122.677895,20.9724976 125.407895,19.9824976 126.937895,16.5124976 C128.597895,12.7624976 122.437895,11.0024976 122.437895,8.87249759 L122.437895,8.87249759 Z M20.3478946,7.75249759 C20.3478946,7.50249759 20.7278946,6.90249759 20.7978946,6.56249759 C20.9578946,5.78249759 20.0878946,5.95249759 19.9378946,5.95249759 L16.9278946,5.96249759 C16.7678946,5.96249759 16.2578946,6.35249759 16.1878946,6.49249759 C15.7978946,7.31249759 18.0478946,7.00249759 17.7178946,7.98249759 L14.7878946,16.7824976 C14.4778946,17.7224976 14.2278946,18.5524976 13.2878946,19.0724976 C12.8678946,19.3024976 11.9078946,19.5624976 11.5978946,19.9124976 C11.3378946,20.2024976 11.4578946,20.4924976 11.9078946,20.4824976 L17.5878946,20.4024976 C18.1178946,20.3924976 18.7178946,20.0724976 18.6878946,19.7824976 C18.6378946,19.2824976 18.1878946,19.4924976 17.5078946,19.2024976 C17.2178946,19.0724976 16.6178946,18.5424976 16.8278946,17.9224976 L19.0678946,11.3924976 C19.2678946,10.8024976 19.5978946,10.3424976 19.9678946,9.83249759 C20.0478946,9.72249759 20.1278946,9.67249759 20.1978946,9.57249759 C20.4578946,9.20249759 20.3578946,9.28249759 20.6478946,9.00249759 L21.1578946,8.53249759 C21.2478946,8.44249759 21.3478946,8.43249759 21.4578946,8.34249759 C22.0978946,7.83249759 23.3378946,7.89249759 23.8478946,8.23249759 C24.0378946,8.36249759 24.6878946,8.82249759 24.8578946,8.87249759 C25.1678946,8.96249759 25.4778946,8.56249759 25.6378946,8.40249759 C26.3878946,7.65249759 26.2378946,7.38249759 26.0378946,6.39249759 C25.9978946,6.19249759 25.9778946,6.06249759 25.8578946,5.94249759 C25.2078946,5.26249759 24.4578946,5.72249759 24.0378946,5.85249759 C23.3278946,6.07249759 20.7578946,8.13249759 20.5978946,8.03249759 L20.3378946,7.85249759 L20.3378946,7.75249759 L20.3478946,7.75249759 Z M134.247895,19.3424976 C131.767895,19.0824976 132.117895,15.4524976 132.877895,13.5624976 C134.067895,10.6124976 136.317895,7.48249759 139.437895,6.65249759 C140.337895,6.41249759 141.377895,6.48249759 142.097895,7.16249759 C142.327895,7.38249759 142.837895,8.21249759 142.587895,9.04249759 L141.567895,12.4624976 C140.897895,14.7024976 136.407895,19.5724976 134.247895,19.3424976 L134.247895,19.3424976 Z M142.147895,18.0424976 C141.767895,19.2024976 143.267895,18.9824976 143.457895,19.6924976 C143.507895,19.8624976 143.047895,20.4224976 142.407895,20.4424976 C141.637895,20.4624976 139.377895,20.6824976 139.147895,19.8924976 C138.937895,19.1424976 140.107895,17.8024976 139.907895,17.2924976 C139.787895,16.9824976 139.657895,17.2124976 139.487895,17.3624976 C137.817895,18.8624976 136.687895,20.2724976 134.227895,20.6824976 C132.127895,21.0224976 130.437895,20.5124976 129.827895,18.3124976 C129.327895,16.5224976 129.817895,14.7624976 130.547895,13.1324976 C132.887895,7.96249759 136.997895,5.25249759 142.237895,5.59249759 C142.907895,5.63249759 144.547895,6.01249759 145.077895,6.58249759 C145.467895,7.01249759 145.657895,7.38249759 145.477895,7.92249759 L142.147895,18.0424976 Z" id="Shape" fill="#2A2E72"></path>
            <g id="Group" transform="translate(29.167895, 30.412498)" fill-rule="nonzero">
                <g transform="translate(15.802355, 0.000000)">
                    <path d="M10.367645,5.7 C10.367645,5.68 10.357645,5.67 10.357645,5.65 C9.99764502,5.72 9.63764502,5.76 9.29764502,5.88 C8.41764502,6.18 7.53764502,6.51 6.67764502,6.85 C6.13764502,7.06 5.60764502,7.32 5.07764502,7.56 C4.93764502,7.62 4.86764502,7.73 4.89764502,7.88 C4.92764502,8.03 5.03764502,8.09 5.17764502,8.1 C5.20764502,8.1 5.23764502,8.1 5.25764502,8.1 C5.97764502,8.14 6.70764502,8.17 7.42764502,8.24 C9.22764502,8.4 10.997645,8.72 12.737645,9.21 C19.867645,11.21 25.637645,15.21 30.097645,21.11 C30.357645,21.45 30.597645,21.8 30.847645,22.15 C30.957645,22.31 31.107645,22.34 31.237645,22.26 C31.367645,22.18 31.387645,22.02 31.297645,21.86 C31.287645,21.85 31.277645,21.83 31.267645,21.82 C26.587645,14.13 20.027645,8.78 11.487645,5.9 C11.127645,5.75 10.757645,5.68 10.367645,5.7 Z" id="Path" fill="#3C3C3B"></path>
                    <path d="M32.127645,24.85 C32.067645,24.73 32.037645,24.64 31.987645,24.56 C29.767645,20.8 26.917645,17.6 23.417645,14.98 C21.007645,13.18 18.407645,11.73 15.587645,10.68 C14.937645,10.44 14.267645,10.33 13.607645,10.55 C12.347645,10.97 11.137645,11.51 9.95764502,12.12 C9.82764502,12.19 9.74764502,12.29 9.77764502,12.44 C9.80764502,12.6 9.92764502,12.64 10.077645,12.66 C10.767645,12.72 11.457645,12.77 12.137645,12.86 C14.467645,13.17 16.717645,13.77 18.887645,14.66 C24.097645,16.81 28.287645,20.22 31.507645,24.84 C31.547645,24.9 31.577645,24.98 31.637645,25.01 C31.717645,25.05 31.837645,25.09 31.907645,25.06 C32.007645,25.03 32.057645,24.93 32.127645,24.85 Z" id="Path" fill="#3C3C3B"></path>
                    <path d="M10.757645,0 C11.707645,0.22 12.537645,0.73 13.437645,1.08 C16.117645,2.13 18.867645,2.88 21.717645,3.28 C23.367645,3.51 25.017645,3.62 26.677645,3.64 C26.757645,3.64 26.857645,3.63 26.907645,3.67 C26.977645,3.73 27.037645,3.82 27.057645,3.91 C27.077645,4.03 26.997645,4.12 26.887645,4.17 C26.467645,4.35 26.047645,4.54 25.617645,4.71 C24.387645,5.21 23.127645,5.65 21.847645,6.01 C21.097645,6.22 20.337645,6.27 19.577645,6.01 C18.617645,5.68 17.647645,5.36 16.687645,5.04 C16.627645,5.02 16.577645,5 16.517645,4.99 C16.507645,5.01 16.497645,5.02 16.487645,5.04 C16.537645,5.08 16.577645,5.12 16.627645,5.15 C18.237645,6.11 19.767645,7.17 21.217645,8.34 C25.107645,11.47 28.327645,15.19 30.857645,19.5 C30.887645,19.55 30.917645,19.61 30.937645,19.67 C30.967645,19.8 30.927645,19.91 30.807645,19.97 C30.687645,20.04 30.567645,20.01 30.477645,19.91 C30.437645,19.86 30.397645,19.8 30.367645,19.74 C26.127645,13.44 20.497645,8.85 13.437645,6.03 C10.777645,4.97 8.02764502,4.26 5.19764502,3.88 C3.60764502,3.66 2.00764502,3.55 0.40764502,3.55 C0.36764502,3.55 0.31764502,3.55 0.27764502,3.55 C0.13764502,3.54 0.0476450199,3.47 0.00764501988,3.33 C-0.0223549801,3.19 0.0376450199,3.08 0.15764502,3.03 C0.32764502,2.95 0.49764502,2.88 0.66764502,2.81 C2.17764502,2.16 3.71764502,1.6 5.29764502,1.16 C6.02764502,0.96 6.76764502,0.92 7.50764502,1.18 C8.46764502,1.51 9.43764502,1.83 10.397645,2.15 C10.447645,2.17 10.507645,2.18 10.557645,2.2 C10.567645,2.18 10.577645,2.17 10.587645,2.15 C10.537645,2.11 10.497645,2.07 10.447645,2.04 C9.83764502,1.65 9.22764502,1.26 8.60764502,0.88 C8.48764502,0.8 8.38764502,0.71 8.41764502,0.55 C8.44764502,0.39 8.57764502,0.34 8.72764502,0.31 C9.24764502,0.22 9.75764502,0.13 10.267645,0.04 C10.297645,0.03 10.327645,0.02 10.357645,0.01 C10.487645,0 10.627645,0 10.757645,0 Z" id="Path" fill="#2A2E72"></path>
                    <path d="M10.367645,5.7 C10.757645,5.69 11.127645,5.76 11.497645,5.88 C20.037645,8.77 26.597645,14.12 31.277645,21.8 C31.287645,21.81 31.297645,21.83 31.307645,21.84 C31.397645,22 31.367645,22.16 31.247645,22.24 C31.117645,22.33 30.967645,22.29 30.857645,22.13 C30.607645,21.78 30.367645,21.43 30.107645,21.09 C25.647645,15.19 19.877645,11.19 12.747645,9.19 C11.007645,8.7 9.23764502,8.38 7.43764502,8.22 C6.71764502,8.16 5.98764502,8.13 5.26764502,8.08 C5.23764502,8.08 5.20764502,8.08 5.18764502,8.08 C5.04764502,8.07 4.93764502,8.01 4.90764502,7.86 C4.87764502,7.71 4.94764502,7.6 5.08764502,7.54 C5.61764502,7.3 6.14764502,7.04 6.68764502,6.83 C7.55764502,6.49 8.42764502,6.17 9.30764502,5.86 C9.64764502,5.74 10.017645,5.71 10.367645,5.63 C10.367645,5.66 10.367645,5.68 10.367645,5.7 Z" id="Path" fill="#FCD128"></path>
                    <path d="M32.127645,24.85 C32.057645,24.93 32.007645,25.03 31.917645,25.06 C31.837645,25.09 31.727645,25.05 31.647645,25.01 C31.587645,24.98 31.557645,24.9 31.517645,24.84 C28.297645,20.22 24.107645,16.81 18.897645,14.66 C16.727645,13.77 14.467645,13.17 12.147645,12.86 C11.467645,12.77 10.767645,12.72 10.087645,12.66 C9.93764502,12.65 9.81764502,12.6 9.78764502,12.44 C9.75764502,12.28 9.82764502,12.18 9.96764502,12.12 C11.147645,11.51 12.357645,10.97 13.617645,10.55 C14.277645,10.33 14.957645,10.44 15.597645,10.68 C18.417645,11.73 21.027645,13.18 23.427645,14.98 C26.927645,17.6 29.777645,20.8 31.997645,24.56 C32.037645,24.64 32.077645,24.73 32.127645,24.85 Z" id="Path" fill="#C4D52E"></path>
                </g>
            </g>
        </g>
    </g>
</svg>
