<?xml version="1.0" encoding="UTF-8" standalone="no"?>
<!-- Generator: Adobe Illustrator 21.0.0, SVG Export Plug-In . SVG Version: 6.00 Build 0)  -->

<svg
   xmlns:dc="http://purl.org/dc/elements/1.1/"
   xmlns:cc="http://creativecommons.org/ns#"
   xmlns:rdf="http://www.w3.org/1999/02/22-rdf-syntax-ns#"
   xmlns:svg="http://www.w3.org/2000/svg"
   xmlns="http://www.w3.org/2000/svg"
   xmlns:sodipodi="http://sodipodi.sourceforge.net/DTD/sodipodi-0.dtd"
   xmlns:inkscape="http://www.inkscape.org/namespaces/inkscape"
   version="1.1"
   id="Layer_1"
   x="0px"
   y="0px"
   viewBox="0 0 200 39.84829"
   xml:space="preserve"
   sodipodi:docname="Malindo Air logo.svg"
   width="200"
   height="39.848289"
   inkscape:version="0.92.2 (5c3e80d, 2017-08-06)"><metadata
     id="metadata835"><rdf:RDF><cc:Work
         rdf:about=""><dc:format>image/svg+xml</dc:format><dc:type
           rdf:resource="http://purl.org/dc/dcmitype/StillImage" /><dc:title></dc:title></cc:Work></rdf:RDF></metadata><defs
     id="defs833" /><sodipodi:namedview
     pagecolor="#ffffff"
     bordercolor="#666666"
     borderopacity="1"
     objecttolerance="10"
     gridtolerance="10"
     guidetolerance="10"
     inkscape:pageopacity="0"
     inkscape:pageshadow="2"
     inkscape:window-width="1366"
     inkscape:window-height="705"
     id="namedview831"
     showgrid="false"
     inkscape:zoom="2.8284271"
     inkscape:cx="68.210249"
     inkscape:cy="29.615368"
     inkscape:window-x="-8"
     inkscape:window-y="-8"
     inkscape:window-maximized="1"
     inkscape:current-layer="Layer_1" /><style
     type="text/css"
     id="style826">
	.st0{fill-rule:evenodd;clip-rule:evenodd;fill:#EC1C24;}
</style><path
     class="st0"
     d="m 128.7,5 c 0,1 -0.1,2.1 0.1,3.1 0.1,0.7 0.2,1.4 0.5,2.1 0.6,1.8 0.6,2 1.4,3.8 0.2,0.4 0.4,0.8 0.6,1.2 0.1,0.2 0.2,0.3 0.3,0.6 l 1,1.6 c 0,0 0.1,0.1 0.1,0.1 l 0.6,0.9 c 0.2,0.2 0.2,0.3 0.4,0.5 l 1.2,1.4 c 0.2,0.3 0.6,0.6 0.9,0.9 l 0.2,0.2 c 0.1,0.1 0.1,0.1 0.2,0.2 0.2,0.2 0.3,0.3 0.4,0.4 0.3,0.3 0.6,0.5 0.9,0.8 0.5,0.5 1.6,1.1 1.9,1.6 l -0.3,0.7 c -0.9,-0.5 -1.8,-1.1 -2.6,-1.7 l -4,-3.7 c -0.1,-0.1 -0.1,-0.1 -0.1,-0.1 l -2.3,-3 -0.9,-1.7 c -0.1,-0.2 -0.2,-0.4 -0.3,-0.6 -0.7,-1.3 -1.7,-4 -1.7,-5.3 -0.5,0 -1,0.2 -1.4,0.4 -0.3,0.2 -0.4,0.4 -0.6,0.6 -1.5,1.9 -0.9,4.5 0.2,6.5 0.9,1.6 2.3,3.1 3.7,4.3 0.2,0.2 -0.1,-0.1 0.1,0.1 0.1,0.1 0.1,0.1 0.1,0.1 1.9,1.6 2.7,2 4.8,3.2 1.2,0.7 2.6,1.2 3.8,1.8 0.1,0.1 0.2,0.1 0.3,0.1 0.2,0.1 0.5,0.2 0.7,0.2 -0.2,0.5 0.3,0.9 -0.5,0.7 -1.1,-0.3 -2.3,-0.6 -3.4,-1 l -2.1,-0.8 c -1.3,-0.6 -2.6,-1.2 -3.8,-2 -0.2,-0.1 -0.3,-0.2 -0.4,-0.3 -1,-0.6 -1.9,-1.4 -2.8,-2.3 -0.3,-0.3 -1.2,-1.2 -1.3,-1.7 -0.4,0 -0.6,0.5 -0.8,0.7 -0.1,0.2 -0.2,0.3 -0.2,0.6 0,0.1 -0.1,0.2 -0.1,0.3 -0.2,0.7 -0.1,1.7 0.2,2.3 0.3,0.8 0.9,1.5 1.6,2.1 0.1,0.1 0.2,0.2 0.3,0.3 0.1,0.1 0.2,0.2 0.4,0.2 0.5,0.3 0.9,0.6 1.5,0.9 1,0.5 2,0.8 3.1,1.1 0.8,0.2 1.8,0.4 2.6,0.5 l 1.1,0.1 c 1,0.1 2.5,0.1 3.5,0.1 1.1,-0.1 0.9,-0.3 1.1,0.5 0.1,0.2 0.1,0.1 0.1,0.3 -0.4,0 -0.3,0.1 -0.5,0.1 -0.3,0 -0.4,0 -0.7,0.1 -1,0.2 -3.1,0.3 -4.1,0.3 -2.1,0 -4.6,-0.5 -6.3,-1.2 -0.5,-0.2 -1,-0.4 -1.5,-0.7 -0.3,-0.2 -0.6,-0.5 -0.9,-0.5 0,0.1 -0.1,0.3 -0.1,0.4 -0.3,1.1 0,2.4 0.9,3.1 0.1,0.1 0.2,0.1 0.3,0.3 1.4,1.3 3.4,1.5 5.3,1.5 0.5,0 0.8,-0.1 1.1,-0.1 0.5,-0.1 0.7,-0.1 1.2,-0.2 0.1,0 0.4,-0.1 0.5,-0.1 1.4,-0.4 2.1,-0.6 3.6,-1.2 0,0 0.1,0 0.1,0 0.5,-0.2 1.2,-0.6 1.7,-0.7 0.2,0.2 0.3,0.6 0.5,0.8 -0.1,0.1 -0.1,0.1 -0.2,0.2 -0.1,0.1 -0.2,0.1 -0.3,0.2 -0.2,0.1 -0.4,0.2 -0.6,0.4 -0.2,0.1 -0.3,0.2 -0.5,0.3 l -1.2,0.6 c -0.2,0.1 -0.4,0.2 -0.7,0.3 l -0.3,0.1 c -1.4,0.5 -2.6,0.8 -4.1,0.9 -0.3,0 -0.4,0.1 -0.8,0.1 -0.5,0 -1.3,-0.1 -1.7,-0.2 -0.3,-0.1 -0.4,-0.2 -0.7,-0.1 0,0.4 0.2,0.9 0.3,1.2 0.2,0.4 0.4,0.7 0.7,0.9 1.3,0.9 3.1,0.8 4.5,0.4 l 0.9,-0.3 c 0.7,-0.3 1.5,-0.7 2.1,-1.1 0.9,-0.7 1.8,-1.4 2.6,-2.2 0.2,-0.2 0.5,-0.7 0.9,-0.8 l 0.5,0.5 c -0.1,0.3 -0.5,0.7 -0.7,0.9 -0.1,0.2 -0.2,0.3 -0.4,0.4 l -1.6,1.6 c -0.8,0.7 -1.8,1.3 -2.7,1.7 l -1.7,0.5 c -0.4,0.1 -0.3,0 -0.7,0.2 0.8,1.2 1.3,1.4 2.7,1.4 1.7,0 3.5,-2 4.4,-3.2 0.1,-0.1 0.2,-0.3 0.3,-0.4 l 0.9,-1.5 c 0.2,-0.3 0.3,-0.8 0.5,-1 l 0.7,0.3 c -0.1,0.3 0,0 -0.1,0.2 -0.5,1.5 -1.2,2.9 -2.2,4.1 -0.9,1.1 -2.2,1.5 -2.3,1.7 0.2,0.7 2,1.3 3.5,-0.1 l 0.2,-0.2 c 0.4,-0.4 0.7,-0.9 0.9,-1.4 0.1,-0.1 0.1,-0.3 0.2,-0.4 0.3,-0.6 0.6,-1.9 0.7,-2.5 0.1,-0.4 0.1,-0.7 0.1,-1.1 0.3,0 0.4,0.1 0.7,0.1 0,1.1 0,2.2 -0.2,3.3 0,0.1 -0.1,0.4 -0.2,0.6 v 0.1 c 0,0 0,0.1 -0.1,0.1 -0.3,0.6 -0.7,1 -1,1.6 0.4,0.2 1,0.2 1.5,0.1 0.2,-0.1 0.2,0 0.4,-0.1 0.4,-0.2 0.8,-0.5 1,-0.9 0.3,-0.7 0.2,-1.5 0.2,-2.2 0,-0.7 -0.5,-1 0.3,-1.1 0.3,0 0.3,0 0.6,-0.1 l 1.7,-0.4 c 1.2,-0.4 2.2,-0.9 3.2,-1.6 0.5,-0.3 1,-0.9 1.4,-1.4 1,-1.4 1.2,-2.1 1.7,-3.7 0.3,-0.7 0.1,-0.4 0.7,-0.6 0.4,-0.1 0.4,-0.5 0.3,-0.9 -0.1,-0.3 0,-0.3 -0.2,-0.4 -0.2,-0.2 -0.2,-0.1 -0.3,-0.3 -0.2,-0.3 -0.4,-0.6 -0.4,-1.1 0,-0.6 0.2,-0.5 0.5,-0.7 1,-0.7 0.4,-1.1 -0.3,-1.6 -0.8,-0.5 -1.2,-1.1 -1.4,-2 -0.1,-0.5 -0.1,-1.1 0.1,-1.5 0.7,0 1.3,0.5 2.2,-0.1 0.6,-0.4 0.7,-1.5 0.7,-2.2 -0.3,0 -0.3,0.1 -0.5,0.2 -0.6,0.3 -1.6,0.2 -2,-0.4 -0.2,-0.3 -0.2,-0.9 -0.1,-1.5 0.1,-0.7 0.9,-1.8 1.7,-1.8 0.5,0 1,0 1.3,0.4 0.1,0.1 0.2,0.6 0.3,0.8 0.6,0 1.1,-1.2 1.3,-1.7 0,-0.2 0,-0.2 0.1,-0.4 0.2,-0.8 0,-0.4 0,-0.9 0,-0.2 0.5,-0.6 -0.1,-1.1 -0.4,-0.3 -1.1,0.1 -2.2,-0.3 -0.3,-0.1 -1.1,-0.5 -1.3,-0.5 0.1,-0.3 0.2,-0.7 0.2,-1 -0.1,-0.3 -0.4,-0.4 -0.6,-0.6 l -1.6,-0.9 c -2.4,-1.4 -1.8,-2.3 -2.6,-2.3 -0.2,0 -0.6,0.2 -0.7,0.3 -0.1,0.1 -0.2,0.2 -0.3,0.3 -0.1,0.1 -0.1,0.3 -0.2,0.4 -0.6,-0.4 -0.6,-0.6 -1.7,-1 L 147.4,4.1 C 146,3.7 145.7,3 145.1,3.9 c -0.2,0.3 -0.2,0.6 -0.2,1 -1,0 0,-0.3 -2.2,0 -0.2,0 -0.4,0 -0.6,0 -0.4,0 -0.9,0.2 -1.7,0.1 0,0 -0.1,0 -0.2,0 h -0.1 c -0.2,0 -0.3,0.2 -0.3,0.4 -0.1,0.7 0,0.9 0.1,1.6 -1.3,0 -2.1,0.3 -3.4,0.3 -0.5,0.8 0,1.8 0.5,2.6 0.1,0.2 0.2,0.3 0.3,0.5 -0.3,0.1 -0.5,0.2 -0.9,0.2 -0.5,0.1 -0.4,0.2 -0.3,0.6 l 0.3,1.4 c 0,0.1 0.1,0.3 0.1,0.4 0.4,1.7 0.9,3.3 1.8,4.7 0.4,0.7 0.8,1.4 1.2,2 1.9,2.6 1.1,1.8 3,0.7 l 0.3,-0.2 c 0.1,-0.1 0.2,-0.1 0.3,-0.1 0.7,-0.3 1.3,-0.5 2,-0.6 1.1,-0.2 1.8,-0.2 2.8,0.1 0.3,0.1 0.5,0.1 0.7,0.2 1.5,0.6 2.8,1.4 3.7,2.8 0.2,0.4 0.5,0.8 0.7,1.2 1.3,2.9 0.5,6.7 -1.9,8.7 l -2.1,1.4 c -0.7,0.4 -1.4,0.6 -2.2,0.8 -0.1,0 -0.8,0.1 -0.9,0.1 -0.3,0 -0.2,-0.3 -0.2,-0.7 0.7,-0.2 1.2,-0.2 2,-0.4 0.2,-0.1 0.2,-0.1 0.3,-0.1 0.1,0 0.2,-0.1 0.3,-0.1 3,-1.4 4.5,-5.1 3.4,-8.3 -0.1,-0.3 -0.3,-0.6 -0.4,-0.9 -1,-1.8 -2.5,-2.8 -4.5,-3.4 -1,-0.3 -2.4,-0.2 -3.4,0.2 -0.6,0.2 -1.2,0.5 -1.7,0.9 -0.5,0.4 -1.2,1.1 -1.5,1.2 -0.5,-0.3 -1.4,-1.3 -1.8,-1.9 -0.1,-0.2 -0.2,-0.3 -0.3,-0.4 -0.7,-0.8 -1.2,-1.8 -1.7,-2.7 l -0.7,-1.5 c -0.7,-1.5 -1.3,-3.5 -1.6,-5.1 l -0.3,-1.9 c 0,-0.3 0,-0.4 0,-0.7 -0.2,-1.1 -0.2,-2.5 -0.2,-3.7 0,-0.4 0.1,-0.4 0.1,-0.7 0,-0.4 0.1,-2 0.2,-2.3 l 0.4,-2.1 c -0.3,0 -0.2,-0.1 -0.5,-0.1 -0.7,-0.1 -1.6,-0.2 -2.3,0.1 -0.4,0.2 -0.9,0.5 -1.2,0.8 -1,1 -1.6,2.6 -1.6,4 z M 0,32.2 6.4,32.3 c 0.5,-0.1 0.5,-0.6 0.7,-1 l 2.2,-6.4 c 2.1,-6.2 1.7,-5.4 4.7,-5.4 0,0.5 0,0.4 -0.1,0.8 l -2,6.5 c -0.1,0.3 -0.2,0.5 -0.3,0.8 l -1,3.2 c -0.6,1.9 -0.5,1.4 5.9,1.4 1.1,0 1.2,-1.6 1.6,-2.8 0.3,-1 3.1,-9.5 3.1,-10 h 2.5 c 0.4,0.6 0.5,0.4 0.2,1.4 L 22.3,26 c -0.2,0.5 -0.3,1 -0.5,1.5 -0.5,1.4 -1.1,3.2 -1.1,4.6 1.2,0.3 5,0.1 6.4,0.1 0.6,0 0.7,-0.8 0.8,-1.3 l 1.5,-5 c 0.4,-1.1 0.8,-2.2 1.1,-3.3 0.7,-2.2 1.8,-4.5 1.3,-6.8 -0.8,-3.3 -3.6,-3 -5.7,-3 -0.7,0 -1.2,-0.1 -2,-0.1 -4,0 -10.7,-0.2 -14.1,0.1 C 7.5,13 5.7,15 4.7,17.2 4.3,18 2.7,23.3 2.1,24.9 L 2,25.1 c 0,0 0,0.1 0,0.1 -0.3,1.5 -2,5.7 -2,7 z m 97.3,-14 c -3.2,0 -4.6,-0.6 -7.9,1.7 -2.3,1.6 -4.6,4.9 -4.6,7.7 0,1.5 0,2.4 1,3.7 0.9,1.1 2.9,1.4 4.3,0.9 l 0.8,-0.3 c 0.4,-0.2 0.8,-0.5 1.2,-0.8 0.1,-0.1 0.2,-0.2 0.3,-0.2 0,0 0,0 0.1,-0.1 0,0 0,0 0.1,-0.1 0,0 0.1,-0.1 0.1,-0.1 0.5,-0.5 1,-1.2 1.1,-2 -0.8,0 -4.9,1.9 -2.9,-3.5 0.2,-0.7 0.7,-1.5 1.1,-1.9 0.5,-0.4 1,-1 1.8,-1.2 3.5,-0.7 1.2,3.5 0.6,6 l -1,3.4 c -0.1,0.5 -0.2,0.9 0.3,0.9 1.4,0 5,0.1 6.2,-0.1 0.1,-0.3 0.2,-0.7 0.4,-1.1 l 3.9,-13 c 0.3,-1 1.3,-4.2 1.3,-4.8 -1.1,-0.3 -4.6,-0.1 -5.9,-0.1 -0.6,0 -0.7,0.3 -0.9,0.9 -0.2,0.5 -0.2,0.9 -0.4,1.4 -0.1,0.3 -0.1,0.4 -0.2,0.6 -0.4,0.5 -0.8,1.7 -0.8,2.1 z M 30.7,28.3 c 0,-1.2 0.3,-2.1 0.7,-3.1 L 32,23.9 c 1,-1.9 2.8,-3.6 4.7,-4.6 2.5,-1.2 4.8,-1.2 7.5,-0.6 0.3,0.1 0.7,0.2 0.9,0.3 2.8,0.9 3.1,0.3 4.3,0.6 0,0.5 0.3,0 0,0.8 l -3.8,12.1 c -0.5,0 -0.4,0.1 -0.8,0.1 h -2.3 c -3.5,0 -3.8,0.4 -3.1,-1.5 0.2,-0.5 0.2,-0.9 0.4,-1.4 l 1.3,-4.1 c 0.2,-0.5 0.3,-0.9 0.4,-1.4 0.3,-1 0.3,-2 -1.1,-2 -1.6,0 -0.5,-0.1 -1.1,0.2 l -1.4,1.1 c -0.3,0.3 -0.5,0.6 -0.6,0.9 0,0 -0.1,0.2 -0.1,0.2 -0.4,0.7 -1,2.3 -0.9,3.1 0,0.4 0.2,0.8 0.5,1.1 1.3,1.1 3.3,-0.7 3,0.5 -0.1,0.3 -0.3,0.7 -0.5,1 -0.2,0.2 -0.4,0.5 -0.6,0.7 l -0.5,0.5 c 0,0 0,0 -0.1,0.1 -0.7,0.6 -1.1,0.8 -1.9,1 C 35,33 34,32.8 32.9,32.4 31.2,31.6 30.7,29.9 30.7,28.3 Z M 69.1,19.8 66,29.6 c -0.3,1 -1.2,3 -0.4,3 h 5.7 c 0.5,0 0.7,-1.4 0.9,-2.1 L 73.6,26 c 0.3,-1.1 0.3,-1.4 1.7,-1.4 0.4,0 1,-0.1 1.3,0 0.4,0.1 0.6,0.4 0.6,0.8 l -1.5,4.8 c 0,0.1 0,0.2 -0.1,0.3 -0.3,1.1 -0.9,2.1 -0.2,2.1 0.9,0 5.6,0.2 6.1,-0.1 0.2,-0.1 0,0 0.2,-0.2 l 0.1,-0.2 c 0.1,-0.2 0.1,-0.3 0.2,-0.6 l 1.8,-5.8 c 0.6,-2 0,-4.6 -2.3,-5.7 -0.3,-0.1 -0.6,-0.3 -1,-0.4 -2,-0.6 -4.4,-0.2 -6.4,0.3 -0.4,0.1 0,0 -0.3,0.1 0,0 -0.1,0 -0.1,0 l -1,0.1 c -1.1,0 -0.9,-0.3 -3.6,-0.3 z m 91.2,8.1 c 0,1.5 0.1,2.9 1.3,4 2.6,2.3 7.5,-0.4 7.5,-3 -0.4,0 -4.4,1.6 -3.2,-2.6 l 0.5,-1.2 c 0.1,-0.2 0.4,-0.8 0.5,-1 l 0.2,-0.3 c 0.7,-0.8 1.4,-1.6 2.8,-1.6 2.1,0 0.7,3 0.6,3.6 l -1.1,3.6 c 0,0.2 -0.1,0.3 -0.2,0.6 -0.3,0.9 -1,2.6 -0.3,2.6 h 5.7 c 0.5,0 0.6,-0.8 0.8,-1.2 0.2,-0.6 0.3,-1.1 0.5,-1.6 0.2,-0.5 0.3,-1 0.5,-1.5 l 2.5,-8.1 c 0,-0.9 -1.4,-0.1 -3.7,-0.8 -0.6,-0.2 -1.1,-0.4 -1.7,-0.5 -0.3,-0.1 -0.7,-0.1 -1,-0.2 -2,-0.4 -4.7,-0.1 -6.4,0.9 l -2.3,1.7 c 0,0 0,0 -0.1,0.1 l -1.4,1.6 c -0.9,1.2 -1.1,1.8 -1.6,3.1 -0.2,0.3 -0.4,1.3 -0.4,1.8 z M 103,26.6 c 0,-1.8 2,-4.1 3.7,-5.2 1.1,-0.8 1.7,-1 2.9,-1.5 0,0 0.1,0 0.1,0 0.6,-0.2 1.2,-0.4 1.8,-0.5 0.7,-0.1 1.2,-0.3 1.9,-0.3 6.1,0 8.7,5 5.1,9.3 -0.1,0.1 -0.1,0.1 -0.2,0.3 -2.7,3 -8,4.8 -11.7,3.4 -0.8,-0.3 -1,-0.4 -1.6,-0.9 -2.1,-1.6 -2,-2.6 -2,-4.6 z M 53.5,13.1 51.4,20.2 c -0.2,0.8 -0.5,1.7 -0.7,2.5 l -2.5,8.4 c -0.1,0.4 -0.4,1 0.3,1 h 5.7 c 0.5,0 0.6,-0.7 0.8,-1.4 l 4.8,-16.2 c 0.1,-0.5 0.3,-0.8 0.3,-1.4 -1.3,-0.3 -5.1,-0.1 -6.6,0 z m 137,6.3 c -0.8,0 -0.6,0.1 -1.1,0.1 0,0.4 -1.1,3.6 -1.3,4.5 l -0.1,0.2 c 0,0.1 -0.1,0.2 -0.1,0.3 l -1.5,4.9 c -0.1,0.4 0,0.1 -0.1,0.4 l -0.1,0.2 c 0,0.1 -0.1,0.2 -0.1,0.3 -0.9,2.8 -1.5,2.2 5.3,2.2 0.9,0 1.2,-1.5 1.5,-2.8 l 1,-3.3 c 0.7,-2.4 2,-1.8 3.2,-1.8 L 200,21 c 0,-0.7 -0.6,-1.1 -1.1,-1.4 -1.3,-0.6 -3.9,-0.4 -5.4,-0.1 -2.1,0.3 -1,-0.1 -3,-0.1 z m -13.3,12.5 c 0,-0.4 0.8,-2.7 1,-3.3 l 1.8,-5.7 c 0.1,-0.3 0.1,-0.4 0.3,-0.8 0.8,-2.3 0.3,-2.6 2.2,-2.6 0.5,0 0.2,0.1 0.6,0.1 0.2,0 0.3,-0.1 0.6,-0.1 l 2,0.1 c 2,0 2.3,-0.9 1.2,2.7 l -3,9.8 c -0.2,0.4 -0.6,0.3 -0.9,0.3 -1,-0.1 -2.1,0 -3.1,0 -1.3,-0.1 -2.7,0.1 -2.7,-0.5 z m -120.4,0.2 1.5,-4.9 c 0.1,-0.6 0.3,-1.1 0.5,-1.5 0.2,-0.6 0.3,-1.1 0.5,-1.7 l 1,-3.2 c 0.2,-0.6 0.2,-1.1 0.9,-1.1 6.9,0 6.2,-0.4 5.6,1.5 L 63.4,32 c -0.1,0.2 -0.2,0.5 -0.6,0.5 H 57.2 C 57,32.6 56.8,32.4 56.8,32.1 Z M 68.7,15.3 c 0,-1.1 -1.4,-2 -2.5,-2 -2,0 -3,0 -4.6,1.7 -0.5,0.5 -0.6,1.1 -0.5,1.8 0.1,0.8 0.6,1.2 1.1,1.5 1.2,0.6 3.1,0.4 4.2,-0.1 1.1,-0.6 2.3,-1.8 2.3,-2.9 z m 112.6,1 c 0,-2.3 4.1,-4 6.4,-2.8 1.4,0.7 1.7,1.8 0.7,3.1 -1.9,2.7 -7.1,2.5 -7.1,-0.3 z m -72.6,9.8 c 0,1 0,1.4 1.2,1.8 1.7,0.6 4.4,-0.7 4.5,-2.5 0.1,-2.1 -3.3,-2.2 -4.7,-0.8 -0.4,0.3 -1,0.8 -1,1.5 z M 146.5,8.4 c 0,-0.2 0.1,-0.3 0.1,-0.4 0.6,-1 2.1,-0.5 2.1,0.3 -0.3,-0.1 -0.5,-0.2 -1.1,-0.2 -0.2,0 -0.5,0.4 -0.5,0.7 0,0.6 0.1,0.4 0.1,0.8 -0.2,0 -0.3,0 -0.5,-0.3 -0.3,-0.4 -0.2,-0.5 -0.2,-0.9 z"
     id="path828"
     inkscape:connector-curvature="0"
     style="clip-rule:evenodd;fill:#ec1c24;fill-rule:evenodd" /></svg>