<?xml version="1.0" encoding="utf-8"?>
<!-- Generator: Adobe Illustrator 18.0.0, SVG Export Plug-In . SVG Version: 6.00 Build 0)  -->
<!DOCTYPE svg PUBLIC "-//W3C//DTD SVG 1.1//EN" "http://www.w3.org/Graphics/SVG/1.1/DTD/svg11.dtd">
<svg version="1.1" xmlns="http://www.w3.org/2000/svg" xmlns:xlink="http://www.w3.org/1999/xlink" x="0px" y="0px"
	 width="223.008px" height="50px" viewBox="0 0 223.008 50" style="enable-background:new 0 0 223.008 50;" xml:space="preserve">
<style type="text/css">
	.st0{display:none;}
	.st1{display:inline;}
	.st2{fill:#ED2D27;}
	.st3{display:inline;fill:#F8B900;}
	.st4{display:inline;fill:#00235F;}
	.st5{fill:url(#SVGID_1_);}
	.st6{fill:#006CB6;}
	.st7{fill:url(#SVGID_2_);}
	.st8{fill:url(#SVGID_3_);}
	.st9{fill:url(#SVGID_4_);}
	.st10{fill:url(#SVGID_5_);}
	.st11{fill:url(#SVGID_6_);}
	.st12{fill-rule:evenodd;clip-rule:evenodd;fill:#FFFFFF;}
	.st13{fill-rule:evenodd;clip-rule:evenodd;fill:#E2231A;}
	.st14{fill:#FFFFFF;}
	.st15{fill-rule:evenodd;clip-rule:evenodd;fill:#001689;}
	.st16{fill:#00529B;}
	.st17{fill:#F47920;}
	.st18{fill:url(#SVGID_7_);}
	.st19{fill:url(#SVGID_8_);}
	.st20{fill:url(#SVGID_9_);}
	.st21{fill:url(#SVGID_10_);}
	.st22{fill:url(#SVGID_11_);}
	.st23{fill:url(#SVGID_12_);}
	.st24{fill:url(#SVGID_13_);}
	.st25{fill:#00054C;}
	.st26{fill:url(#path3364_3_);}
	.st27{fill:url(#path3366_3_);}
	.st28{fill:#22356B;}
	.st29{fill:#FCC210;}
	.st30{fill:#ED1C24;}
	.st31{display:inline;fill:url(#SVGID_14_);}
	.st32{fill:#002157;}
	.st33{fill:#CC2234;}
	.st34{fill:#E23546;}
	.st35{fill:#FCB130;}
	.st36{fill:#1D4886;}
	.st37{display:inline;fill:none;}
	.st38{display:inline;fill:#005DAA;}
	.st39{fill:#005DAA;}
	.st40{fill:#00A1E4;}
	.st41{fill:#00704A;}
	.st42{fill:#B10D28;}
	.st43{fill:#D31245;}
	.st44{fill:url(#path70_3_);}
	.st45{fill:url(#SVGID_15_);}
	.st46{fill:url(#SVGID_16_);}
	.st47{fill:#231916;}
	.st48{fill:#E60013;}
	.st49{fill:#C0231E;}
	.st50{fill:#014E84;}
	.st51{fill:#BA783E;}
	.st52{fill:#002052;}
	.st53{fill:#0093D0;}
	.st54{fill:#ED1B2F;}
	.st55{fill:#E3242B;}
	.st56{fill-rule:evenodd;clip-rule:evenodd;fill:#034EA2;}
	.st57{fill-rule:evenodd;clip-rule:evenodd;fill:#E11837;}
	.st58{fill:#034EA2;}
	.st59{opacity:0.8902;fill:#EB151C;}
	.st60{fill:#1A1A1A;}
	.st61{enable-background:new    ;}
	.st62{fill:#FF6600;}
	.st63{clip-path:url(#SVGID_18_);fill:url(#SVGID_19_);}
	.st64{fill:url(#SVGID_20_);}
	.st65{fill:#B2DB1F;}
	.st66{fill:#FA002C;}
	.st67{fill:#1C2D5B;}
	.st68{fill:#1C4E9D;}
	.st69{fill:#ED192D;}
	.st70{display:inline;fill:#FFFFFF;}
	.st71{display:inline;fill:#00529B;}
	.st72{display:inline;fill:#F47920;}
	.st73{display:inline;fill:url(#SVGID_21_);}
	.st74{display:inline;fill:url(#SVGID_22_);}
	.st75{display:inline;fill:url(#SVGID_23_);}
	.st76{display:inline;fill:url(#SVGID_24_);}
	.st77{display:inline;fill:url(#SVGID_25_);}
	.st78{display:inline;fill:url(#SVGID_26_);}
	.st79{display:inline;fill:url(#SVGID_27_);}
	.st80{display:inline;fill:url(#path3364_4_);}
	.st81{display:inline;fill:url(#path3366_4_);}
	.st82{display:inline;fill:url(#SVGID_28_);}
	.st83{display:inline;fill:url(#SVGID_29_);}
	.st84{display:inline;fill:url(#SVGID_30_);}
	.st85{display:inline;opacity:0.75;fill:#FFFFFF;}
	.st86{display:inline;fill:#ED1B2F;}
	.st87{opacity:0.8902;fill:#FFFFFF;}
	.st88{clip-path:url(#SVGID_32_);fill:#FFFFFF;}
	.st89{fill:url(#SVGID_33_);}
	.st90{fill:url(#SVGID_34_);}
	.st91{fill:url(#SVGID_35_);}
	.st92{fill:url(#SVGID_36_);}
	.st93{fill:url(#SVGID_37_);}
	.st94{fill:url(#SVGID_38_);}
	.st95{fill:url(#SVGID_39_);}
	.st96{fill:url(#SVGID_40_);}
	.st97{clip-path:url(#SVGID_42_);fill:url(#SVGID_43_);}
	.st98{fill:url(#SVGID_44_);}
	.st99{fill:url(#path70_5_);}
	.st100{fill:url(#SVGID_45_);}
	.st101{fill:url(#SVGID_46_);}
	.st102{fill:#F8B900;}
	.st103{fill:#00235F;}
	.st104{fill:url(#SVGID_47_);}
	.st105{fill:url(#SVGID_48_);}
	.st106{fill:url(#SVGID_49_);}
	.st107{fill:url(#SVGID_50_);}
	.st108{fill:url(#SVGID_51_);}
	.st109{fill:url(#SVGID_52_);}
	.st110{opacity:0.8902;fill:#EB151C;enable-background:new    ;}
	.st111{fill:#E11837;}
	.st112{fill:#E2231A;}
	.st113{fill:#001689;}
	.st114{fill:#EF3E34;}
	.st115{fill:#4D82C4;}
	.st116{fill:#8C7035;}
	.st117{fill:#5FBA45;}
	.st118{fill:#008F7E;}
	.st119{fill:#004595;}
	.st120{fill:#FFED00;}
	.st121{fill:#E53138;}
	.st122{fill:url(#SVGID_53_);}
	.st123{fill:url(#SVGID_54_);}
	.st124{fill:url(#SVGID_55_);}
	.st125{fill:url(#SVGID_56_);}
	.st126{fill:#11185E;}
	.st127{fill:#EE3024;}
	.st128{fill:#0675CC;}
	.st129{fill:#E2001A;}
	.st130{fill:#009036;}
	.st131{fill:#0B1560;}
	.st132{fill:#0070AF;}
	.st133{fill:#0F2C64;}
	.st134{fill:#EF001E;}
	.st135{fill:#1C2A8D;}
	.st136{fill:#334357;}
	.st137{fill:url(#SVGID_57_);}
	.st138{fill:#ED1B28;}
	.st139{fill:#1E5AAF;}
	.st140{fill:#991933;}
	.st141{fill:#E01933;}
	.st142{fill:#003366;}
	.st143{fill:#00265D;}
	.st144{fill:#003263;}
	.st145{fill:#EE452A;}
	.st146{fill:#011F65;}
	.st147{fill:#EC2227;}
	.st148{fill:#010101;}
	.st149{fill:#FCEE21;}
	.st150{fill:#18488B;}
	.st151{fill:#EC2427;}
	.st152{fill:#D09B2B;}
	.st153{fill:#156192;}
	.st154{fill:#021A31;}
	.st155{fill:#008E8F;}
	.st156{fill:#2B438F;}
	.st157{fill:#363F9E;}
	.st158{fill:#00ABBF;}
</style>
<g id="Layer_1" class="st0">
</g>
<g id="Layer_2" class="st0">
</g>
<g id="Layer_3">
	<g>
		<g>
			<g class="st61">
				<path class="st62" d="M26.655,27.048h-13.58c-0.617,0-0.898,0.281-0.898,0.786c0,1.235,0.673,2.413,2.02,3.535
					c1.347,1.122,2.806,1.683,4.377,1.683c0.898,0,1.964-0.168,3.086-0.505c1.122-0.337,2.076-0.786,2.806-1.291
					c0.673-0.449,1.178-0.673,1.571-0.673c0.505,0,1.01,0.281,1.459,0.898c0.505,0.617,0.73,1.235,0.73,1.908
					c0,1.403-0.842,2.694-2.581,3.984c-3.03,2.301-6.566,3.423-10.55,3.423c-4.04,0-7.407-1.178-10.157-3.535
					c-1.347-1.178-2.413-2.525-3.255-4.153C0.561,30.92,0,28.676,0,26.263c0-3.199,0.954-6.117,2.918-8.698
					c1.683-2.245,3.816-3.872,6.453-4.994c1.964-0.842,4.097-1.235,6.341-1.235c3.648,0,6.734,1.01,9.315,3.086
					c1.291,1.01,2.301,2.245,3.086,3.704c0.898,1.627,1.347,3.199,1.347,4.714c0,1.235-0.281,2.245-0.786,3.086
					C28.114,26.655,27.441,27.048,26.655,27.048z M13.861,21.661h2.918c1.235,0,1.852-0.561,1.852-1.683
					c0-1.01-0.281-1.908-0.898-2.525c-0.617-0.673-1.347-0.954-2.357-0.954c-1.066,0-1.908,0.449-2.525,1.291
					c-0.561,0.786-0.842,1.571-0.842,2.413c0,0.561,0.112,0.954,0.393,1.235C12.682,21.549,13.131,21.661,13.861,21.661z"/>
				<path class="st62" d="M47.755,11.223c3.367,0,6.173,0.842,8.474,2.525c1.235,0.898,2.076,1.908,2.581,3.086
					c0.505,1.178,0.73,2.75,0.73,4.77l-0.056,4.265c0,2.974,0.224,4.882,0.617,5.78c0.224,0.449,0.393,0.673,0.617,0.786
					c0.168,0.112,0.617,0.224,1.235,0.337c0.617,0.112,0.898,0.505,0.898,1.235c0,0.898-0.393,1.908-1.122,2.862
					c-0.73,1.01-1.684,1.852-2.862,2.525c-1.459,0.842-2.974,1.291-4.545,1.291c-2.02,0-3.591-0.673-4.77-2.076
					c-0.393-0.505-0.786-0.73-1.122-0.73c-0.393,0-0.898,0.224-1.515,0.73c-1.908,1.403-4.097,2.076-6.51,2.076
					c-2.525,0-4.545-0.561-6.117-1.627c-1.01-0.73-1.796-1.627-2.413-2.806c-0.617-1.122-0.898-2.357-0.898-3.591
					c0-2.02,0.786-3.76,2.413-5.275c2.525-2.413,6.285-3.648,11.279-3.648c1.122,0,1.796-0.112,2.076-0.337
					c0.281-0.224,0.449-0.73,0.449-1.515c0-2.02-0.224-3.535-0.617-4.433c-0.449-0.898-1.122-1.347-2.076-1.347
					c-0.561,0-1.066,0.168-1.515,0.505c-0.449,0.337-1.01,0.954-1.684,1.908c-1.683,2.413-3.479,3.648-5.331,3.648
					c-0.954,0-1.684-0.281-2.301-0.842c-0.617-0.561-0.898-1.291-0.898-2.189s0.393-1.852,1.122-2.75
					c0.73-0.898,1.74-1.74,3.03-2.413C40.348,12.121,43.939,11.223,47.755,11.223z M45.791,27.89c-0.842,0-1.571,0.337-2.189,1.01
					c-0.617,0.673-0.954,1.515-0.954,2.469c0,0.898,0.224,1.683,0.673,2.245c0.449,0.561,1.01,0.842,1.74,0.842
					c1.515,0,2.301-1.291,2.301-3.872c0-1.066-0.112-1.74-0.337-2.132C46.857,28.114,46.409,27.89,45.791,27.89z"/>
				<path class="st62" d="M76.263,11.223c0.954,0,2.525,0.224,4.714,0.617c0.449,0.056,0.786,0.112,1.066,0.112
					c0.337,0,0.954-0.168,1.908-0.505c0.449-0.168,0.842-0.281,1.122-0.281c0.898,0,1.796,0.561,2.694,1.683
					c0.73,0.898,1.347,1.908,1.796,2.974c0.449,1.066,0.673,2.02,0.673,2.806s-0.281,1.403-0.786,1.908
					c-0.561,0.505-1.235,0.786-2.02,0.786c-0.673,0-1.291-0.168-1.796-0.505c-0.505-0.337-1.403-1.066-2.525-2.132
					c-1.235-1.178-2.245-1.796-3.03-1.796c-0.561,0-1.01,0.224-1.403,0.617c-0.393,0.393-0.617,0.842-0.617,1.403
					c0,0.954,0.898,1.796,2.694,2.637c3.255,1.459,5.724,3.03,7.464,4.77c1.459,1.459,2.189,3.255,2.189,5.331
					c0,2.694-1.178,4.882-3.535,6.678c-2.02,1.571-4.489,2.357-7.407,2.357c-0.73,0-2.132-0.112-4.097-0.393
					c-1.852-0.224-2.918-0.337-3.143-0.337c-0.224,0-0.561,0.056-0.842,0.112c-0.561,0.056-0.954,0.112-1.235,0.112
					c-0.898,0-1.627-0.224-2.132-0.673c-0.786-0.73-1.515-1.852-2.189-3.367c-0.673-1.515-1.01-2.862-1.01-3.928
					c0-1.74,0.673-2.637,2.076-2.637c0.561,0,1.01,0.168,1.459,0.505c0.449,0.337,1.403,1.291,2.862,2.862
					c0.786,0.842,1.459,1.403,1.964,1.74c0.505,0.337,1.066,0.449,1.684,0.449c0.617,0,1.122-0.168,1.515-0.505
					c0.393-0.337,0.561-0.786,0.561-1.347c0-0.842-0.73-1.627-2.245-2.357c-3.086-1.515-5.331-3.086-6.678-4.714
					s-2.076-3.479-2.076-5.612c0-2.301,0.673-4.265,2.076-5.892C70.034,12.458,72.783,11.223,76.263,11.223z"/>
				<path class="st62" d="M120.258,25.421l-3.816,10.438c-0.954,2.581-1.908,4.714-2.862,6.341c-0.954,1.627-2.02,3.03-3.255,4.209
					c-2.469,2.357-5.499,3.591-9.035,3.591c-2.862,0-5.163-0.73-6.902-2.245c-1.347-1.178-2.02-2.637-2.02-4.377
					c0-1.459,0.449-2.694,1.403-3.704s2.132-1.515,3.479-1.515c1.403,0,2.469,0.449,3.367,1.403
					c0.393,0.449,0.673,0.786,0.786,1.122c0.112,0.337,0.337,1.066,0.617,2.132c0.224,0.842,0.673,1.291,1.459,1.291
					c0.617,0,1.066-0.281,1.515-0.786c0.449-0.505,0.617-1.178,0.617-1.908c0-0.898-0.505-2.413-1.515-4.545L97.138,22.11
					c-0.73-1.515-1.291-2.469-1.627-2.862c-0.393-0.393-1.178-0.842-2.413-1.403c-0.393-0.168-0.73-0.449-1.01-0.898
					c-0.281-0.449-0.393-0.898-0.393-1.291c0-1.683,1.683-2.862,5.107-3.479c2.245-0.393,4.826-0.617,7.744-0.617
					c2.02,0,3.648,0.224,4.826,0.617c1.571,0.561,2.357,1.515,2.357,2.862c0,0.505-0.224,1.066-0.673,1.683
					c-0.449,0.617-0.617,1.178-0.617,1.627c0,0.449,0.112,0.954,0.281,1.459c0.224,0.505,0.617,1.347,1.291,2.525
					c0.73,1.347,1.347,2.02,1.908,2.02c0.617,0,1.235-0.617,1.852-1.796s0.954-2.301,0.954-3.423c0-0.898-0.224-1.627-0.73-2.132
					c-0.73-0.842-1.122-1.627-1.122-2.245c0-0.954,0.673-1.74,1.964-2.357c1.291-0.561,3.03-0.898,5.219-0.898
					c4.097,0,6.117,0.954,6.117,2.918c0,0.73-0.224,1.291-0.617,1.74c-0.393,0.449-1.178,0.842-2.245,1.235
					c-0.898,0.337-1.627,0.898-2.189,1.74C122.334,20.314,121.38,22.447,120.258,25.421z"/>
				<path class="st62" d="M153.143,0c2.132,0,4.321,0.168,6.566,0.561c1.796,0.281,3.143,0.73,3.928,1.291s1.178,1.291,1.178,2.245
					c0,0.617-0.168,1.066-0.449,1.403c-0.281,0.337-0.898,0.73-1.852,1.235c-1.122,0.561-1.74,1.235-1.908,2.02
					s-0.337,3.816-0.449,9.035c-0.056,5.107-0.112,8.137-0.168,9.147c-0.056,1.01-0.168,2.02-0.337,2.974
					c-0.561,2.806-1.684,4.994-3.367,6.622c-1.403,1.291-3.143,2.357-5.331,3.086c-2.189,0.73-4.433,1.122-6.846,1.122
					c-2.132,0-4.265-0.281-6.397-0.842c-2.132-0.561-3.984-1.347-5.556-2.301c-1.291-0.786-2.357-1.908-3.086-3.255
					c-0.786-1.347-1.178-2.862-1.178-4.377c0-1.908,0.617-3.535,1.796-4.77c1.235-1.235,2.75-1.908,4.545-1.908
					c1.796,0,3.311,0.505,4.545,1.571c1.235,1.066,1.852,2.413,1.852,3.984c0,0.393-0.112,1.066-0.337,2.02
					c-0.056,0.168-0.056,0.393-0.056,0.617c0,0.617,0.224,1.122,0.673,1.515c0.449,0.393,1.01,0.561,1.74,0.561
					c1.291,0,2.301-0.561,3.086-1.74c0.786-1.178,1.178-2.694,1.178-4.545l-0.056-2.637l-0.056-7.071
					c-0.168-4.265-0.281-6.79-0.393-7.576s-0.281-1.403-0.673-1.852c-0.281-0.393-0.561-0.617-0.786-0.73
					c-0.224-0.112-0.842-0.281-1.796-0.561c-0.449-0.112-0.842-0.337-1.178-0.786c-0.337-0.449-0.505-0.898-0.505-1.403
					c0-1.01,0.393-1.852,1.235-2.469c0.842-0.617,2.132-1.122,3.984-1.515C148.822,0.224,150.954,0,153.143,0z"/>
			</g>
			<g class="st61">
				<path class="st62" d="M192.929,27.048h-13.524c-0.617,0-0.898,0.281-0.898,0.786c0,1.235,0.673,2.413,2.02,3.535
					c1.347,1.122,2.806,1.683,4.377,1.683c0.898,0,1.964-0.168,3.086-0.505c1.122-0.337,2.076-0.786,2.806-1.291
					c0.673-0.449,1.178-0.673,1.571-0.673c0.505,0,1.01,0.281,1.459,0.898c0.505,0.617,0.729,1.235,0.729,1.908
					c0,1.403-0.842,2.694-2.581,3.984c-3.03,2.301-6.566,3.423-10.55,3.423c-4.04,0-7.407-1.178-10.157-3.535
					c-1.347-1.178-2.413-2.525-3.255-4.153c-1.122-2.189-1.684-4.433-1.684-6.846c0-3.199,0.954-6.117,2.918-8.698
					c1.684-2.245,3.816-3.872,6.453-4.994c1.964-0.842,4.097-1.235,6.341-1.235c3.648,0,6.734,1.01,9.315,3.086
					c1.291,1.01,2.301,2.245,3.086,3.704c0.898,1.627,1.347,3.199,1.347,4.714c0,1.235-0.281,2.245-0.786,3.086
					C194.444,26.655,193.771,27.048,192.929,27.048z M180.135,21.661h2.918c1.235,0,1.852-0.561,1.852-1.683
					c0-1.01-0.281-1.908-0.898-2.525c-0.617-0.673-1.347-0.954-2.357-0.954c-1.066,0-1.908,0.449-2.525,1.291
					c-0.561,0.786-0.842,1.571-0.842,2.413c0,0.561,0.112,0.954,0.393,1.235C178.956,21.549,179.461,21.661,180.135,21.661z"/>
			</g>
			<g class="st61">
				<path class="st62" d="M214.31,18.799v9.708c0,1.178,0.281,2.076,0.842,2.806c0.561,0.73,1.291,1.122,2.189,1.122
					c0.729,0,1.74-0.337,2.974-1.01c0.281-0.168,0.561-0.281,0.842-0.281c0.449,0,0.898,0.281,1.291,0.842
					c0.393,0.561,0.561,1.178,0.561,1.796c0,1.178-0.673,2.357-1.964,3.423c-2.75,2.301-6.005,3.479-9.933,3.479
					c-3.086,0-5.556-0.842-7.407-2.581c-1.852-1.74-2.806-4.04-2.806-6.846v-13.3c0-0.449-0.056-0.73-0.168-0.842
					c-0.112-0.112-0.393-0.168-0.842-0.168h-2.862c-0.561,0-0.898-0.112-1.066-0.281c-0.168-0.168-0.224-0.617-0.224-1.291v-1.291
					c0-0.561,0.224-1.01,0.673-1.291l13.187-8.305c0.337-0.168,0.73-0.281,1.235-0.281h2.357c0.505,0,0.786,0.112,0.954,0.337
					c0.168,0.224,0.224,0.673,0.224,1.291v3.872c0,0.561,0.112,0.954,0.281,1.122c0.168,0.168,0.561,0.281,1.178,0.281h5.331
					c0.729,0,1.178,0.112,1.403,0.393c0.224,0.281,0.337,0.786,0.337,1.683v1.683c0,0.898-0.112,1.571-0.393,1.908
					c-0.281,0.337-0.786,0.505-1.459,0.505h-5.219c-0.561,0-0.898,0.112-1.066,0.281C214.422,17.901,214.31,18.238,214.31,18.799z"
					/>
			</g>
		</g>
	</g>
</g>
<g id="Layer_4">
</g>
</svg>
