<?xml version="1.0" encoding="UTF-8"?>
<!DOCTYPE svg PUBLIC "-//W3C//DTD SVG 1.1//EN" "http://www.w3.org/Graphics/SVG/1.1/DTD/svg11.dtd">
<svg version="1.1" xmlns="http://www.w3.org/2000/svg" xmlns:xlink="http://www.w3.org/1999/xlink" xml:space="preserve" xmlns:serif="http://www.serif.com/"
  x="0px" y="0px" width="187px" height="54px" viewBox="0 0 187 54" style="fill-rule:evenodd;clip-rule:evenodd;stroke-linejoin:round;stroke-miterlimit:1.41421;">
  <g id="g14">
<path id="path2" d="M21.277,2.747c-0.655,0.034 -1.089,0.077 -1.638,0.16c-0.611,0.093 -1.32,0.244 -1.913,0.407c-2.831,0.778 -5.282,2.386 -6.806,4.465c-0.4,0.545 -0.746,1.163 -0.99,1.763c-0.314,0.775 -0.48,1.587 -0.48,2.356c0,0.547 0.089,1.129 0.229,1.51c0.276,0.751 0.852,1.409 1.676,1.914c1.276,0.784 3.062,1.14 4.873,0.973c1.595,-0.148 3.12,-0.676 4.415,-1.528c0.961,-0.633 1.768,-1.423 2.45,-2.398c0.175,-0.25 0.188,-0.276 0.188,-0.399c0,-0.082 -0.005,-0.108 -0.026,-0.146c-0.04,-0.073 -0.088,-0.122 -0.157,-0.155c-0.053,-0.026 -0.079,-0.031 -0.143,-0.03c-0.078,0 -0.08,0.001 -0.433,0.173c-1.33,0.65 -2.513,1.122 -3.444,1.377c-0.485,0.132 -1.001,0.222 -1.515,0.263c-0.352,0.028 -0.901,0.015 -1.268,-0.03c-1.393,-0.172 -2.437,-0.832 -2.783,-1.757c-0.135,-0.36 -0.163,-0.798 -0.077,-1.211c0.102,-0.503 0.374,-1.025 0.8,-1.535c0.132,-0.157 0.505,-0.524 0.674,-0.664c0.594,-0.488 1.253,-0.872 2.004,-1.169c1.252,-0.494 2.488,-0.645 3.585,-0.437c1.126,0.214 2.097,0.795 2.698,1.615c0.083,0.114 0.134,0.193 0.33,0.527c0.322,0.547 0.508,1.118 0.582,1.793c0.022,0.202 0.018,0.883 -0.006,1.109c-0.079,0.724 -0.237,1.408 -0.526,2.279c-0.302,0.908 -1.024,2.272 -1.984,3.753c-0.598,0.921 -1.214,1.793 -2.66,3.759c-1.798,2.446 -2.567,3.552 -3.436,4.939c-2.24,3.577 -3.223,7.358 -2.932,11.277c0.06,0.809 0.203,1.802 0.325,2.267c0.525,1.998 1.46,4.002 2.674,5.732c1.457,2.078 3.305,3.847 5.557,5.32l0.265,0.173l0.201,0.017c0.496,0.042 0.617,0.045 1.453,0.045c0.874,0 1.076,-0.007 1.779,-0.062c1.378,-0.105 3.069,-0.362 4.027,-0.61l0.043,-0.011l-0.217,-0.103c-0.382,-0.181 -0.841,-0.426 -1.25,-0.667c-1.563,-0.924 -2.957,-2.099 -4.117,-3.475c-0.779,-0.924 -1.462,-1.96 -2.004,-3.044c-1.438,-2.873 -1.91,-6.076 -1.375,-9.315c0.219,-1.324 0.593,-2.54 1.104,-3.59c0.042,-0.085 0.245,-0.478 0.453,-0.871c1.2,-2.281 2.224,-4.247 3.431,-6.592l0.218,-0.421l0.021,0.072c0.303,1.042 0.589,1.845 0.973,2.727c1.609,3.706 4.235,6.897 7.592,9.225c3.16,2.193 6.911,3.535 10.739,3.841c0.118,0.01 0.244,0.02 0.284,0.025l0.07,0.006l0.155,-0.315c0.617,-1.246 1.024,-2.231 1.455,-3.523c0.144,-0.436 0.154,-0.467 0.15,-0.471c-0.002,-0.002 -0.146,-0.012 -0.319,-0.022c-3.603,-0.216 -7.016,-1.452 -9.911,-3.589c-0.738,-0.545 -1.343,-1.065 -2.023,-1.738c-0.899,-0.89 -1.605,-1.742 -2.311,-2.79c-1.801,-2.67 -2.842,-5.741 -3.042,-8.965c-0.083,-1.34 -0.021,-2.181 0.303,-4.146c0.078,-0.472 0.114,-0.73 0.145,-1.037c0.148,-1.44 0.042,-2.769 -0.32,-3.983c-0.234,-0.79 -0.602,-1.563 -1.057,-2.215c-0.455,-0.655 -1.031,-1.25 -1.564,-1.617c-1.059,-0.729 -2.43,-1.14 -4.099,-1.227c-0.189,-0.01 -0.93,-0.012 -1.095,-0.004Z" style="fill:#20417c;fill-rule:nonzero;"/>
<path id="path4" d="M97.22,14.489c-2.304,0.065 -4.484,0.662 -6.423,1.76c-1.36,0.771 -2.584,1.795 -3.569,2.987c-1.422,1.721 -2.344,3.778 -2.671,5.951c-0.15,0.995 -0.176,2.062 -0.074,3.055c0.348,3.38 2.093,6.447 4.871,8.562c1.116,0.85 2.423,1.539 3.787,1.994c1.055,0.354 2.121,0.572 3.254,0.669c0.727,0.062 1.561,0.066 2.295,0.011c2.837,-0.212 5.476,-1.257 7.597,-3.008c0.535,-0.443 1.197,-1.099 1.64,-1.626c1.189,-1.419 2.039,-3.063 2.49,-4.823c0.363,-1.419 0.469,-2.907 0.307,-4.363c-0.36,-3.255 -2.028,-6.223 -4.668,-8.311c-1.964,-1.553 -4.389,-2.523 -6.968,-2.787c-0.603,-0.062 -1.276,-0.087 -1.868,-0.071Zm0.864,4.638c0.717,0.046 1.401,0.177 2.046,0.394c2.857,0.959 4.879,3.471 5.23,6.498c0.038,0.33 0.047,0.46 0.054,0.837c0.025,1.366 -0.267,2.65 -0.866,3.819c-0.684,1.334 -1.718,2.424 -3.008,3.172c-1.029,0.595 -2.165,0.938 -3.405,1.025c-0.224,0.017 -0.817,0.017 -1.05,0c-1.45,-0.099 -2.779,-0.561 -3.958,-1.377c-0.691,-0.479 -1.328,-1.104 -1.832,-1.8c-0.698,-0.965 -1.172,-2.093 -1.374,-3.276c-0.235,-1.379 -0.123,-2.797 0.324,-4.091c0.387,-1.124 1.032,-2.149 1.876,-2.982c1.221,-1.206 2.808,-1.969 4.521,-2.173c0.163,-0.02 0.383,-0.039 0.556,-0.049c0.147,-0.009 0.727,-0.006 0.886,0.003Z" style="fill:#20417c;fill-rule:nonzero;"/>
<path id="path6" d="M146.062,14.489c-2.904,0.09 -5.347,1.216 -6.818,3.144c-0.657,0.861 -1.095,1.897 -1.249,2.953c-0.094,0.645 -0.089,1.411 0.017,2.117c0.263,1.764 1.14,3.115 2.678,4.128c0.357,0.235 0.648,0.399 1.111,0.623c0.835,0.405 1.676,0.712 3.279,1.198c1.471,0.446 1.9,0.585 2.43,0.793c0.532,0.208 0.889,0.387 1.245,0.621c0.228,0.149 0.335,0.235 0.506,0.404c0.418,0.413 0.615,0.858 0.636,1.431c0.02,0.589 -0.144,1.175 -0.46,1.644c-0.124,0.182 -0.21,0.286 -0.367,0.441c-0.554,0.548 -1.358,0.901 -2.335,1.024c-0.28,0.035 -0.444,0.044 -0.824,0.045c-0.413,0 -0.588,-0.01 -0.954,-0.055c-1.438,-0.18 -2.817,-0.786 -3.995,-1.758c-0.217,-0.179 -0.504,-0.448 -0.65,-0.608c-0.067,-0.074 -0.125,-0.135 -0.129,-0.135c-0.003,0 -0.708,0.693 -1.565,1.54l-1.558,1.539l0.105,0.121c0.131,0.152 0.563,0.579 0.756,0.749c1.004,0.883 2.176,1.607 3.434,2.124c1.601,0.657 3.297,0.969 5.117,0.943c0.477,-0.007 0.676,-0.017 1.083,-0.053c2.865,-0.251 5.129,-1.352 6.503,-3.162c0.994,-1.309 1.478,-2.972 1.385,-4.754c-0.121,-2.325 -1.141,-3.974 -3.191,-5.16c-0.791,-0.458 -1.791,-0.872 -3.121,-1.293c-0.354,-0.112 -0.593,-0.185 -1.447,-0.444c-1.455,-0.44 -2.195,-0.722 -2.788,-1.059c-0.965,-0.546 -1.415,-1.207 -1.415,-2.073c0,-0.807 0.412,-1.528 1.144,-2.004c0.475,-0.309 1.039,-0.49 1.723,-0.554c0.187,-0.017 0.685,-0.017 0.881,0.001c1.023,0.092 1.952,0.425 2.857,1.021c0.398,0.263 0.839,0.626 1.099,0.906l0.104,0.112l1.469,-1.531c0.807,-0.842 1.511,-1.576 1.562,-1.629l0.093,-0.097l-0.054,-0.064c-0.092,-0.107 -0.395,-0.409 -0.545,-0.543c-1.348,-1.204 -3.097,-2.051 -5.005,-2.425c-0.865,-0.17 -1.847,-0.248 -2.747,-0.221Z" style="fill:#20417c;fill-rule:nonzero;"/>
<path id="path8" d="M58.85,27.002l0.003,12l2.6,0.004l2.601,0.002l0.003,-7.631l0.003,-7.63l5.987,7.63l5.987,7.631l4.505,0l0,-24.005l-2.598,0l-2.598,0l0,7.623c0,4.192 -0.003,7.623 -0.007,7.621c-0.006,0 -2.7,-3.43 -5.988,-7.622l-5.98,-7.622l-2.26,0l-2.26,0l0.002,11.999Z" style="fill:#20417c;fill-rule:nonzero;"/>
<path id="path10" d="M114.675,27.005l0,12.003l5.207,0l0.002,-2.085l0.004,-2.085l2.692,-1.414c1.48,-0.777 2.693,-1.413 2.694,-1.41c0.001,0.002 0.855,1.57 1.897,3.485c1.041,1.914 1.898,3.488 1.905,3.494c0.008,0.012 0.578,0.015 2.781,0.015c1.524,0 2.77,-0.002 2.77,-0.006c0,-0.003 -1.169,-2.046 -2.597,-4.541c-1.429,-2.494 -2.598,-4.536 -2.598,-4.538c0,-0.003 0.074,-0.044 0.166,-0.09c1.138,-0.589 2.255,-1.61 2.957,-2.703c0.546,-0.853 0.913,-1.794 1.084,-2.782c0.375,-2.171 -0.101,-4.331 -1.327,-6.024c-0.261,-0.361 -0.509,-0.648 -0.842,-0.976c-0.608,-0.597 -1.271,-1.068 -2.045,-1.45c-1.041,-0.515 -2.186,-0.809 -3.438,-0.884c-0.119,-0.007 -2.177,-0.011 -5.748,-0.011l-5.564,0l0,12.002Zm11.037,-7.353c0.767,0.11 1.372,0.386 1.864,0.854c0.463,0.44 0.769,0.995 0.906,1.643c0.056,0.269 0.068,0.397 0.068,0.743c0,0.361 -0.017,0.506 -0.088,0.784c-0.143,0.56 -0.476,1.055 -1.01,1.505c-0.721,0.607 -2.899,1.894 -5.69,3.363c-0.732,0.385 -1.855,0.962 -1.872,0.962c-0.005,0 -0.008,-2.223 -0.008,-4.94l0,-4.941l2.848,0.005c2.625,0.003 2.857,0.005 2.982,0.022Z" style="fill:#20417c;fill-rule:nonzero;"/>
<path id="path12" d="M159.326,27.005l0,12.003l18.224,0l0,-4.635l-6.508,0l-6.509,0l0,-5.311l4.947,-0.002l4.945,-0.003l0.003,-2.316l0.003,-2.314l-4.949,0l-4.949,0l0,-4.801l12.669,0l0,-4.623l-8.938,0l-8.938,0l0,12.002Z" style="fill:#20417c;fill-rule:nonzero;"/></g></svg>
