<?xml version="1.0"?>
<svg xmlns="http://www.w3.org/2000/svg" x="0px" y="0px" width="798px" height="326px" viewBox="0 0 798 326" style="enable-background:new 0 0 798 326;">
<style type="text/css">
	.st0{fill:#00BBB4;}
</style>
<path class="st0" d="M90,74.4c-8.6,0-15.7,7-15.7,15.7c0,8.7,7,15.7,15.7,15.7s15.7-7,15.7-15.7S98.7,74.4,90,74.4"/>
<path class="st0" d="M113.7,3.4c-1.3,0-2.6-0.1-3.9-0.2c-2.2-0.1-4.7-0.3-7.4-0.3C61.1,3,35.7,28.7,33.6,72.1 c-0.1,0.7-0.1,1.4-0.1,2.1v99.1c0,8.7,7,15.7,15.7,15.7c8.7,0,15.7-7,15.7-15.7V78.1c0-39.2,21.5-43.7,37.6-43.7 c1.7,0,3.6,0.1,5.5,0.2c1.6,0.1,3.2,0.2,4.8,0.2c8.7,0.2,15.9-6.6,16.1-15.2C129.2,10.9,122.4,3.7,113.7,3.4"/>
<path class="st0" d="M160,3.8c-8.7,0-15.7,7-15.7,15.7v153.9c0,8.7,7,15.7,15.7,15.7s15.7-7,15.7-15.7V19.5 C175.7,10.8,168.7,3.8,160,3.8"/>
<path class="st0" d="M325.2,41.1c-7.8-3.8-17.2-0.6-21,7.1l-41,83.1L222,48.2c-3.8-7.8-13.3-11-21-7.1 c-7.8,3.8-10.9,13.3-7.1,21l51.8,104.7l-22,44.5c-3.8,7.8-0.6,17.2,7.1,21c2.2,1.1,4.6,1.6,6.9,1.6c5.8,0,11.4-3.2,14.1-8.8 l80.5-163.1C336.1,54.3,332.9,44.9,325.2,41.1"/>
<path class="st0" d="M764.5,144v0.4c0,27.9-20.6,45.2-53.6,45.2c-19.7,0-39.3-6.3-55.1-17.6c-3.6-2.6-5.9-7.1-5.9-11.8 c0-8.1,6.4-14.4,14.7-14.4c3.3,0,6.2,0.9,9,2.9c12.2,9,24.7,13.4,38,13.4c13.6,0,21.8-5.4,21.8-14.4v-0.4 c0-9.1-6.5-13.2-30.1-19.3c-27.5-7-48.5-14.8-48.5-44.6v-0.4c0-25.9,21-44,51.1-44c17.3,0,32.9,4.4,46.5,13 c3.3,2,6.9,6.3,6.9,12.4c0,8.1-6.4,14.4-14.7,14.4c-2.8,0-5.3-0.7-8-2.2c-11.4-6.7-21.6-10-31.3-10c-11.8,0-19.5,5.3-19.5,13.4 v0.4c0,10.2,6.9,13.4,32.2,19.9C745.9,107.5,764.5,117.8,764.5,144"/>
<path class="st0" d="M406.3,39.3c-39.3,0.1-69,32.6-69,75.4v58.9c0,8.7,7,15.7,15.7,15.7s15.7-7,15.7-15.7v-58.9 c0-25.9,15.5-44,37.6-44c22.2,0.1,37.7,18.2,37.7,44v58.9c0,8.7,7,15.7,15.7,15.7c8.7,0,15.7-7,15.7-15.7v-58.9 C475.4,71.9,445.7,39.5,406.3,39.3"/>
<path class="st0" d="M562.8,39.3c-40.9,0.1-71.8,31.8-72.5,73.9c0,0.2,0,0.4,0,0.7v0.9c0,0.2,0,0.4,0,0.7 c0.7,42.2,31.7,73.9,72.6,73.9c6.3,0,11.8-0.5,14.4-1c8.5-1.6,14.2-9.9,12.5-18.4c-1.6-8.5-9.8-14.1-18.3-12.5 c-0.6,0.1-4,0.5-8.7,0.5c-24.1,0-41-17.9-41.2-43.6c0.2-25.6,17.1-43.5,41.1-43.6c24.3,0.1,41.2,18.2,41.2,44v58.9 c0,8.7,7,15.7,15.7,15.7c8.7,0,15.7-7,15.7-15.7v-58.9C635.4,71.9,604.2,39.5,562.8,39.3"/>
<path class="st0" d="M609,262.5c0-2.7-2.2-5-5-5c-2.8,0-5,2.2-5,5v44.8h-19.1c-4.7,0-19,0-19-21.7v-23c0-2.7-2.2-5-5-5 c-2.7,0-5,2.2-5,5v23c0,20.1,10.6,31.7,28.9,31.7h24.2c2.7,0,4.9-2.2,4.9-5v-0.3c0-0.2,0-0.4,0-0.6L609,262.5L609,262.5z"/>
<path class="st0" d="M627.3,296.2v-56.8c0-2.7-2.2-4.9-5-4.9c-2.7,0-5,2.2-5,4.9v56.8c0,2.8,2.2,5,5,5 C625.1,301.2,627.3,298.9,627.3,296.2"/>
<path class="st0" d="M581.8,243.9c1.3,0,2.6-0.5,3.5-1.4c0.9-0.9,1.4-2.2,1.4-3.5c0-1.3-0.5-2.6-1.5-3.5 c-0.9-0.9-2.2-1.4-3.5-1.4c-1.3,0-2.6,0.5-3.5,1.5c-0.9,0.9-1.5,2.2-1.5,3.5c0,1.3,0.5,2.6,1.5,3.5 C579.2,243.3,580.5,243.9,581.8,243.9"/>
<path class="st0" d="M519.4,257.5c-2.7,0-5,2.2-5,5v28.6h-17.9c-4.7,0-19,0-19-21.7v-30.1c0-2.8-2.2-5-4.9-5c-2.7,0-5,2.2-5,5 v30.1c0,20.1,10.6,31.7,28.9,31.7h21.6c0.2,0,0.3,0,0.5,0l0.1,0l0.1,0c0.2,0,0.3,0,0.5,0c2.7,0,5-2.2,5-5v-33.6 C524.4,259.7,522.2,257.5,519.4,257.5"/>
<path class="st0" d="M519.1,243.9c1.3,0,2.6-0.5,3.5-1.5c0.9-0.9,1.5-2.2,1.5-3.5s-0.5-2.6-1.5-3.5c-1-0.9-2.2-1.5-3.5-1.5 c-1.3,0-2.6,0.5-3.5,1.5c-0.9,1-1.5,2.2-1.5,3.5c0,1.3,0.5,2.6,1.5,3.5C516.5,243.4,517.8,243.9,519.1,243.9"/>
<path class="st0" d="M452.4,257.4c-2.7,0-5,2.2-5,5v16.8c0,0.5-0.1,11.9-9,11.9h-15.2l0.6-1.4c1.4-3.3,2.2-7,2.2-10.5v-16.8 c0-2.7-2.2-5-5-5c-2.8,0-5,2.2-5,5v16.8c0,0.5-0.1,11.9-9,11.9H395v-28.8c0-2.7-2.2-4.9-5-4.9c-2.7,0-5,2.2-5,4.9v44.8h-18.7 c-4.7,0-19,0-19-21.7v-23c0-2.7-2.2-4.9-5-4.9c-2.7,0-5,2.2-5,4.9v23c0,20.1,10.6,31.7,28.9,31.7h23c0.1,0,0.2,0,0.3,0 c0.1,0,0.2,0,0.3,0h0c2.7,0,5-2.2,5-5v-11h44.2c0.2,0,0.4,0,0.6,0c12.9-0.9,17.6-13.5,17.6-21.8v-16.8 C457.4,259.6,455.1,257.4,452.4,257.4"/>
<path class="st0" d="M672.6,309.5c-1.3,0-2.6,0.5-3.5,1.5c-1,0.9-1.5,2.2-1.5,3.5c0,1.3,0.5,2.6,1.5,3.5 c0.9,0.9,2.2,1.5,3.5,1.5c1.3,0,2.6-0.5,3.5-1.5c0.9-0.9,1.4-2.2,1.4-3.5s-0.5-2.6-1.5-3.5C675.2,310,673.9,309.5,672.6,309.5"/>
<path class="st0" d="M658,309.5c-1.3,0-2.6,0.5-3.5,1.5c-0.9,0.9-1.5,2.2-1.5,3.5c0,1.3,0.6,2.6,1.5,3.5 c0.9,0.9,2.2,1.5,3.5,1.5c1.3,0,2.6-0.5,3.5-1.5c0.9-0.9,1.5-2.2,1.5-3.5c0-1.3-0.5-2.6-1.5-3.5 C660.6,310,659.3,309.5,658,309.5"/>
<path class="st0" d="M737.4,248.9c-11.4-0.4-21.9,3-29.4,9.6l-0.4,0.4c-0.7,0.6-1.4,1.2-2.1,1.9l-1.6,1.5v-22.9 c0-2.7-2.2-4.9-5-4.9c-2.7,0-5,2.2-5,4.9v40.3c0,0.1,0,0.2,0,0.3c0,0.2,0,0.2,0,0.3c0,1.3,0.5,2.6,1.5,3.6 c0.9,0.9,2.2,1.5,3.5,1.5c1.3,0,2.6-0.5,3.5-1.5c0.5-0.5,0.9-1.3,1.2-2.1l0.3-1.1h0c0.5-1.8,0.9-2.6,1.6-3.8 c1-1.8,2.3-3.7,4.1-6c1.2-1.5,2.9-3,4.5-4.4l0.4-0.4c5.6-4.9,13.6-7.5,22.4-7.1c14.5,0.5,17.4,6.4,17.4,15.7v16.5h-82.4l0.6-1.4 c1.4-3.3,2.2-7,2.2-10.5v-17c0-2.7-2.2-5-5-5c-2.7,0-5,2.2-5,5v17c0,0.5-0.1,11.9-9,11.9h-10.2v-28.9c0-2.7-2.2-5-5-5 c-2.7,0-5,2.2-5,5v34.4c0,9.3-7.7,15.3-11.3,16.7c-2.6,1-3.9,3.9-2.9,6.4c1,2.5,3.9,3.9,6.4,2.9c6.7-2.5,14.9-10.1,17.1-20.7 l0.2-0.8h114.1c2.7,0,5-2.2,5-5v-21.4C764.5,258.3,755.4,249.6,737.4,248.9"/>
</svg>
