<?xml version="1.0" encoding="UTF-8" standalone="no"?>
<!DOCTYPE svg PUBLIC "-//W3C//DTD SVG 1.1//EN" "http://www.w3.org/Graphics/SVG/1.1/DTD/svg11.dtd">
<svg xmlns="http://www.w3.org/2000/svg" version="1.1" viewBox="0 0 2500 500" x="0" y="0" width="2500" height="500">
<path fill="#ed6400" id="V" d="
  M 1123.50 279.00
  L 1123.75 279.00
  C 1123.85 279.00 1123.97 278.89 1124.05 278.73
  C 1126.42 274.25 1128.88 269.81 1131.43 265.42
  C 1136.10 257.41 1145.25 249.20 1152.84 243.71
  C 1157.26 240.52 1161.30 236.99 1166.04 234.67
  C 1181.13 227.26 1197.21 224.06 1214.28 225.05
  C 1214.55 225.07 1214.79 224.85 1214.80 224.58
  C 1214.85 222.36 1214.01 220.32 1212.29 218.45
  C 1205.31 210.86 1200.39 204.31 1192.69 199.27
  C 1187.22 195.70 1181.50 192.58 1175.53 189.92
  C 1170.22 187.56 1164.49 186.44 1158.73 185.26
  C 1158.18 185.15 1158.10 184.88 1158.48 184.47
  C 1166.46 175.74 1174.24 166.73 1182.74 158.74
  C 1187.92 153.87 1193.13 149.04 1198.37 144.24
  C 1208.73 134.74 1221.09 127.25 1232.85 119.66
  C 1239.33 115.48 1246.91 113.01 1253.85 109.26
  C 1258.10 106.97 1261.71 105.26 1264.66 104.15
  C 1286.71 95.84 1310.48 88.59 1333.92 85.69
  C 1366.76 81.64 1396.78 81.77 1427.99 82.05
  C 1429.46 82.06 1429.64 82.55 1428.53 83.51
  C 1419.63 91.27 1410.52 98.78 1401.21 106.03
  C 1318.95 170.10 1237.73 235.49 1156.38 300.71
  C 1156.14 300.90 1155.83 301.00 1155.50 301.00
  L 1021.50 301.00
  C 1021.22 301.00 1021.00 300.78 1021.00 300.50
  L 1021.00 24.75
  C 1021.00 23.74 1021.39 23.55 1022.16 24.19
  C 1032.88 33.05 1043.55 43.96 1052.55 54.57
  C 1060.18 63.55 1068.01 72.54 1074.55 81.90
  C 1083.93 95.31 1092.82 108.84 1099.91 123.64
  C 1112.02 148.91 1119.94 175.37 1123.67 203.02
  C 1124.44 208.75 1124.88 215.39 1124.97 222.94
  C 1125.25 244.19 1125.08 258.33 1123.11 278.51
  C 1123.08 278.77 1123.26 278.99 1123.50 279.00
  Z"
/>
<path fill="#ed6400" id="C" d="
  M 167.16 248.85
  C 178.57 248.56 189.70 248.33 201.12 246.70
  C 210.62 245.34 220.75 244.04 229.56 242.07
  C 243.41 238.96 256.90 234.67 270.03 229.20
  C 270.65 228.94 270.88 229.14 270.72 229.79
  C 270.53 230.56 270.18 231.36 269.65 232.19
  C 258.84 249.23 247.61 265.98 235.94 282.44
  C 231.91 288.13 227.21 290.40 219.49 292.70
  C 202.41 297.77 183.03 300.57 166.50 302.51
  C 157.03 303.62 146.86 303.12 137.41 303.68
  C 117.48 304.87 97.76 303.16 78.25 298.53
  C 74.53 297.65 71.08 296.02 67.50 295.20
  C 46.83 290.51 29.74 279.94 16.25 263.51
  C 14.83 261.78 12.63 255.96 12.04 252.99
  C 8.12 233.15 11.28 215.07 21.53 198.76
  C 27.78 188.81 38.96 177.12 47.81 167.81
  C 50.20 165.30 52.96 162.91 56.07 160.81
  C 79.39 145.00 92.43 136.14 115.25 128.25
  C 123.50 125.40 135.01 122.18 149.77 118.59
  C 171.11 113.41 193.64 111.05 215.52 109.65
  C 240.82 108.03 266.70 111.17 292.24 116.04
  C 306.78 118.81 323.05 122.97 334.57 131.61
  C 334.84 131.81 334.90 132.19 334.72 132.48
  L 308.37 175.40
  C 308.15 175.76 307.69 175.89 307.33 175.69
  C 303.34 173.52 299.34 171.39 295.32 169.30
  C 282.94 162.90 269.53 161.52 256.00 159.64
  C 246.68 158.34 236.68 159.53 227.28 159.83
  C 217.27 160.16 206.50 163.72 196.77 166.11
  C 189.89 167.80 180.62 172.97 175.09 177.39
  C 165.66 184.92 156.79 191.35 150.94 202.29
  C 148.75 206.37 146.18 210.70 144.85 214.85
  C 142.63 221.81 141.16 232.17 144.99 238.64
  C 149.38 246.04 158.97 249.05 167.16 248.85
  Z"
/>
<path fill="#ed6400" id="A1" d="
  M 1665.52 253.99
  C 1665.40 253.94 1648.84 267.38 1647.10 268.58
  C 1627.19 282.39 1609.37 291.98 1586.39 299.20
  C 1582.32 300.47 1578.15 301.33 1573.88 301.76
  C 1554.45 303.73 1534.40 304.17 1515.44 300.20
  C 1502.66 297.52 1486.88 287.80 1480.46 276.77
  C 1478.69 273.74 1477.27 270.56 1476.18 267.23
  C 1474.22 261.21 1474.99 253.69 1475.00 247.21
  C 1475.01 243.10 1475.38 239.33 1476.11 235.90
  C 1481.86 208.98 1496.36 185.57 1516.70 166.44
  C 1521.99 161.46 1531.47 153.58 1539.27 148.87
  C 1568.31 131.33 1599.47 119.10 1632.76 112.18
  C 1636.54 111.39 1640.73 110.92 1645.32 110.75
  C 1697.21 108.90 1748.68 110.65 1800.99 110.98
  C 1827.35 111.15 1853.89 113.22 1880.26 114.20
  C 1880.59 114.21 1880.66 114.36 1880.49 114.64
  C 1864.67 139.45 1849.41 164.60 1833.54 189.34
  C 1809.77 226.41 1786.00 263.48 1762.24 300.55
  C 1762.06 300.83 1761.78 301.00 1761.50 301.00
  L 1635.75 301.00
  C 1635.22 301.00 1635.06 300.84 1635.27 300.51
  L 1665.65 254.44
  C 1665.75 254.28 1665.69 254.06 1665.52 253.99
  Z
  M 1633.30 192.91
  C 1623.61 204.66 1616.10 217.77 1610.77 232.25
  C 1610.04 234.22 1609.76 237.37 1609.94 241.68
  C 1610.57 257.12 1637.91 247.17 1644.82 243.31
  C 1655.56 237.31 1665.25 227.31 1674.39 219.06
  C 1678.28 215.55 1681.79 211.93 1684.91 208.22
  C 1697.87 192.81 1710.35 177.01 1722.34 160.81
  C 1724.21 158.28 1723.57 157.02 1720.43 157.01
  C 1710.66 156.98 1700.31 156.98 1689.38 157.02
  C 1666.82 157.11 1646.65 176.73 1633.30 192.91
  Z"
/>
<path fill="#ed6400" id="S" d="
  M 1813.63 294.61
  C 1808.57 293.12 1790.63 285.03 1795.64 277.05
  C 1804.52 262.89 1813.65 248.88 1823.03 235.03
  C 1823.93 233.70 1824.81 233.72 1825.67 235.07
  C 1826.70 236.68 1828.20 238.26 1830.17 239.81
  C 1842.26 249.38 1858.11 258.83 1873.77 258.98
  C 1881.20 259.06 1889.29 259.60 1896.00 255.73
  C 1897.54 254.84 1900.17 252.07 1900.65 249.77
  C 1904.41 231.59 1885.28 218.49 1872.72 208.87
  C 1868.21 205.42 1860.67 198.97 1858.36 193.83
  C 1856.95 190.70 1855.56 187.57 1854.18 184.44
  C 1854.05 184.13 1854.00 183.79 1854.03 183.46
  C 1855.07 174.17 1855.57 166.65 1861.35 158.83
  C 1865.02 153.86 1869.68 149.09 1875.33 144.52
  C 1879.97 140.76 1885.59 137.28 1892.20 134.09
  C 1904.88 127.97 1917.41 123.14 1931.47 119.88
  C 1948.42 115.95 1965.55 113.03 1982.85 111.11
  C 1998.27 109.40 2016.35 109.79 2030.49 110.05
  C 2047.68 110.37 2064.91 112.59 2082.20 116.72
  C 2097.66 120.42 2116.07 128.72 2128.91 138.16
  C 2129.61 138.67 2129.60 139.71 2128.89 140.16
  C 2115.04 148.97 2102.42 159.25 2091.01 171.00
  C 2090.03 172.01 2089.05 172.02 2088.08 171.01
  C 2087.84 170.76 2087.21 170.29 2086.18 169.60
  C 2071.90 159.98 2056.57 155.00 2039.34 155.00
  C 2032.71 155.00 2025.94 154.68 2019.61 155.70
  C 2012.62 156.83 2000.14 158.65 1995.11 164.03
  C 1990.32 169.16 1990.93 174.09 1996.95 178.82
  C 2002.07 182.84 2007.04 186.83 2012.80 190.10
  C 2028.31 198.90 2055.73 213.78 2058.62 230.85
  C 2060.08 239.52 2056.52 249.56 2051.84 257.02
  C 2045.43 267.24 2029.78 275.23 2019.71 281.63
  C 2017.48 283.05 2015.07 284.19 2012.46 285.05
  C 2004.51 287.68 1996.61 290.48 1988.78 293.47
  C 1985.69 294.66 1982.55 295.52 1979.37 296.06
  C 1965.86 298.38 1952.27 301.62 1938.67 302.58
  C 1916.34 304.16 1887.85 304.32 1871.76 303.97
  C 1852.83 303.56 1833.45 300.44 1813.63 294.61
  Z"
/>
<path fill="#ed6400" id="A2" d="
  M 2259.36 253.99
  L 2259.20 253.99
  C 2259.09 253.99 2258.97 254.04 2258.87 254.12
  C 2255.73 256.82 2252.58 259.51 2249.43 262.19
  C 2241.54 268.87 2229.94 276.32 2223.45 280.22
  C 2210.69 287.89 2196.47 294.18 2180.79 299.07
  C 2176.52 300.40 2172.07 301.31 2167.45 301.79
  C 2153.76 303.22 2141.27 303.60 2130.00 302.91
  C 2119.25 302.26 2110.91 301.03 2105.00 299.22
  C 2101.26 298.08 2095.90 295.36 2088.92 291.07
  C 2077.20 283.85 2068.95 271.82 2068.99 257.82
  C 2069.01 251.40 2068.53 244.75 2069.67 238.44
  C 2072.90 220.44 2080.51 202.01 2092.85 186.35
  C 2104.79 171.19 2119.06 157.35 2135.74 147.45
  C 2163.98 130.68 2194.23 118.95 2226.50 112.25
  C 2230.45 111.43 2234.81 110.93 2239.60 110.74
  C 2274.60 109.35 2310.22 109.45 2345.24 110.25
  C 2368.36 110.77 2391.66 110.36 2414.73 111.55
  C 2434.57 112.58 2454.41 113.46 2474.26 114.21
  C 2474.59 114.22 2474.67 114.37 2474.50 114.64
  C 2458.94 139.05 2443.92 163.78 2428.32 188.13
  C 2404.29 225.61 2380.26 263.09 2356.23 300.56
  C 2356.06 300.83 2355.78 301.00 2355.50 301.00
  L 2229.75 301.00
  C 2229.22 301.00 2229.09 300.79 2229.38 300.36
  L 2259.77 254.26
  C 2259.88 254.09 2259.75 254.00 2259.36 253.99
  Z
  M 2206.42 247.11
  C 2211.65 251.02 2216.25 250.44 2222.94 249.12
  C 2241.17 245.50 2255.69 231.12 2269.62 217.89
  C 2274.13 213.60 2278.39 209.03 2282.39 204.17
  C 2294.09 189.92 2305.46 175.41 2316.50 160.64
  C 2317.19 159.73 2317.13 158.52 2316.85 157.50
  C 2316.77 157.22 2316.51 157.02 2316.20 157.02
  C 2305.25 156.99 2294.31 156.99 2283.36 157.02
  C 2257.25 157.11 2233.04 183.77 2218.33 204.83
  C 2214.28 210.63 2210.20 218.59 2206.08 228.71
  C 2204.18 233.38 2203.72 237.88 2204.01 242.64
  C 2204.12 244.51 2204.93 246.00 2206.42 247.11
  Z"
/>
<path fill="#ed6400" id="O" d="
  M 338.46 290.14
  C 306.93 278.85 287.80 249.82 298.86 216.27
  C 300.13 212.43 302.62 207.88 304.25 203.53
  C 305.27 200.81 307.87 196.59 312.05 190.86
  C 319.18 181.09 326.94 171.68 336.18 163.89
  C 361.19 142.82 389.90 128.75 422.29 121.68
  C 444.08 116.92 466.97 111.05 489.36 111.02
  C 506.31 111.00 523.27 110.99 540.23 111.00
  C 544.11 111.00 548.28 111.26 552.73 111.77
  C 563.56 113.01 571.79 113.75 584.56 117.07
  C 595.91 120.02 606.78 125.24 617.67 129.86
  C 619.93 130.81 625.86 134.96 635.46 142.31
  C 639.81 145.64 643.27 149.99 645.85 155.35
  C 647.95 159.72 649.24 165.00 649.73 171.17
  C 651.28 190.80 646.41 208.54 635.14 224.40
  C 631.25 229.87 626.17 235.84 619.92 242.29
  C 612.42 250.03 602.77 256.52 593.97 263.23
  C 590.71 265.71 587.33 267.87 583.83 269.70
  C 573.91 274.89 564.28 280.16 553.75 283.98
  C 543.24 287.79 533.22 291.57 522.11 293.83
  C 501.01 298.13 480.88 303.16 458.27 303.83
  C 443.80 304.26 428.71 306.09 413.93 304.64
  C 397.07 302.97 379.54 301.93 363.00 298.25
  C 359.73 297.52 351.55 294.82 338.46 290.14
  Z
  M 438.00 256.50
  C 438.75 256.71 439.50 256.84 440.27 256.90
  C 446.48 257.38 452.84 257.19 459.35 256.32
  C 464.44 255.65 469.93 251.99 474.57 249.70
  C 481.83 246.12 487.95 238.83 493.30 233.00
  C 495.83 230.24 498.21 227.20 500.42 223.87
  C 504.98 217.04 510.17 209.80 513.58 202.98
  C 517.38 195.38 520.24 187.43 522.17 179.13
  C 528.77 150.63 492.47 154.23 477.95 162.20
  C 456.89 173.75 442.52 197.45 431.70 218.55
  C 427.81 226.13 426.66 233.64 426.23 241.89
  C 426.12 244.15 426.47 246.10 427.29 247.75
  C 429.85 252.90 432.47 254.96 438.00 256.50
  Z"
/>
<path fill="#ed6400" id="N" d="
  M 874.50 166.05
  C 871.17 165.93 867.97 165.85 864.63 166.54
  C 852.78 168.99 842.52 171.06 833.10 177.82
  C 823.84 184.46 817.37 189.66 813.68 193.43
  C 804.83 202.44 792.55 216.90 776.82 236.80
  C 760.31 257.69 745.30 279.42 729.25 300.60
  C 729.05 300.85 728.78 301.00 728.50 301.00
  L 601.31 301.00
  C 599.86 301.00 599.53 300.40 600.32 299.19
  C 637.47 241.76 674.34 184.10 710.93 126.23
  C 713.31 122.46 716.06 118.94 718.74 115.39
  C 718.93 115.14 719.23 114.99 719.54 114.99
  C 745.23 115.11 765.25 114.19 785.18 113.99
  C 800.02 113.84 814.55 112.96 829.26 112.95
  C 835.99 112.94 842.64 112.80 849.23 112.51
  C 864.64 111.84 879.87 112.18 895.42 111.42
  C 909.66 110.73 922.69 111.20 935.90 111.43
  C 956.07 111.79 990.39 114.51 1000.18 136.33
  C 1005.04 147.16 1003.81 165.61 998.22 176.49
  C 995.32 182.14 993.68 187.11 990.25 192.25
  C 966.75 227.44 944.41 264.59 921.23 300.56
  C 921.06 300.83 920.78 301.00 920.50 301.00
  L 788.50 301.00
  C 788.17 301.00 788.10 300.84 788.30 300.53
  L 874.70 166.47
  C 874.87 166.20 874.81 166.06 874.50 166.05
  Z"
/>
<path fill="#ed6400" id="I" d="
  M 1287.17 297.17
  C 1325.40 236.81 1363.48 176.43 1400.81 115.48
  C 1400.99 115.18 1401.25 115.00 1401.50 115.00
  L 1531.25 115.00
  C 1531.92 115.00 1532.08 115.31 1531.72 115.93
  C 1523.86 129.53 1516.10 142.95 1507.66 156.44
  C 1477.43 204.75 1447.30 253.12 1417.27 301.57
  C 1417.10 301.84 1416.81 302.00 1416.50 302.00
  L 1285.50 302.00
  C 1285.20 302.00 1284.99 301.70 1285.09 301.41
  C 1285.61 299.96 1286.30 298.54 1287.17 297.17
  Z"
/>
</svg>
