<?xml version="1.0" encoding="UTF-8"?>
<svg x="0" y="0" width="296" height="32" viewBox="0 0 296 32" fill="none" xmlns="http://www.w3.org/2000/svg">
<path fill-rule="evenodd" clip-rule="evenodd" d="M168.984 6.13428H152.664L150.231 11.3636H163.409L168.984 6.13428Z" fill="#0094C7"/>
<path fill-rule="evenodd" clip-rule="evenodd" d="M82.7193 9.75463C82.618 9.85519 82.3139 10.4586 82.0098 11.3637H86.9768L88.5986 8.04504H84.9494C83.4289 8.04504 83.4289 8.14559 82.7193 9.75463Z" fill="#0094C7"/>
<path fill-rule="evenodd" clip-rule="evenodd" d="M209.936 6.13428H186.723L185.912 11.3636H204.361L209.936 6.13428Z" fill="#0094C7"/>
<path fill-rule="evenodd" clip-rule="evenodd" d="M227.675 6.13428L226.763 11.3636H284.238L295.693 6.13428H227.675Z" fill="#0094C7"/>
<path fill-rule="evenodd" clip-rule="evenodd" d="M101.17 11.3636H106.542C107.353 9.55346 108.266 7.74331 108.975 6.13428H103.603L101.17 11.3636Z" fill="#0094C7"/>
<path fill-rule="evenodd" clip-rule="evenodd" d="M127.222 11.3636H128.439L134.622 6.13428H126.107L127.222 11.3636Z" fill="#0094C7"/>
<path fill-rule="evenodd" clip-rule="evenodd" d="M9.33029 11.3636H67.7179C68.7316 8.74894 69.948 6.13428 69.948 6.13428H0.308594L9.33029 11.3636Z" fill="#0094C7"/>
<path fill-rule="evenodd" clip-rule="evenodd" d="M79.881 16.0902C79.7796 16.2913 79.7796 16.593 79.6783 16.6936C79.5769 16.9953 82.6179 16.7941 84.5439 16.7941L86.2671 13.1738H81.3001C80.4892 14.5817 79.881 16.0902 79.881 16.0902Z" fill="#0094C7"/>
<path fill-rule="evenodd" clip-rule="evenodd" d="M171.417 16.1909L171.924 13.2745L168.883 16.1909H171.417Z" fill="#0094C7"/>
<path fill-rule="evenodd" clip-rule="evenodd" d="M211.963 18.4032L212.774 13.375L207.503 18.4032H211.963Z" fill="#0094C7"/>
<path fill-rule="evenodd" clip-rule="evenodd" d="M225.648 18.4032H270.047L281.401 13.1738H226.459L225.648 18.4032Z" fill="#0094C7"/>
<path fill-rule="evenodd" clip-rule="evenodd" d="M97.9258 18.4034H103.197C103.906 16.7944 104.819 14.9842 105.731 13.0735H100.359L97.9258 18.4034Z" fill="#0094C7"/>
<path fill-rule="evenodd" clip-rule="evenodd" d="M149.419 13.1738L146.986 18.4032H156.109L161.685 13.1738H149.419Z" fill="#0094C7"/>
<path fill-rule="evenodd" clip-rule="evenodd" d="M65.2839 16.9953C65.2839 16.9953 66.1962 14.8834 67.0071 13.1738H11.8633L21.0877 18.5037H65.0812C64.9798 17.9004 65.0812 17.3975 65.2839 16.9953Z" fill="#0094C7"/>
<path fill-rule="evenodd" clip-rule="evenodd" d="M119.619 13.2745L117.389 18.4033H120.937L119.619 13.2745Z" fill="#0094C7"/>
<path fill-rule="evenodd" clip-rule="evenodd" d="M185.608 13.1738L184.695 18.4032H197.062L202.536 13.1738H185.608Z" fill="#0094C7"/>
<path fill-rule="evenodd" clip-rule="evenodd" d="M78.766 24.1354L77.9551 25.141H79.4756C79.9824 25.2416 80.5906 25.141 80.692 25.0404C80.692 24.9399 80.7934 24.7387 80.8947 24.437C81.3002 23.8337 78.766 24.1354 78.766 24.1354Z" fill="#0094C7"/>
<path fill-rule="evenodd" clip-rule="evenodd" d="M65.3856 20.5153C65.3856 20.4147 65.2843 20.2136 65.2843 20.113H23.2168L32.3399 25.443H59.6077C63.6624 25.3424 65.3856 24.9401 65.6897 24.8396C65.5884 24.8396 65.6897 24.739 65.6897 24.739L68.1225 22.9288C68.1225 22.9288 66.7034 23.0294 65.3856 20.5153Z" fill="#0094C7"/>
<path fill-rule="evenodd" clip-rule="evenodd" d="M183.683 25.0405C183.683 25.0405 184.595 25.2416 185.811 25.141H186.926C190.069 25.141 191.082 24.1354 191.082 24.1354L191.184 24.0348L191.285 23.9343L195.137 20.2134H184.291L183.683 25.0405Z" fill="#0094C7"/>
<path fill-rule="evenodd" clip-rule="evenodd" d="M116.678 20.113L114.549 24.8396L117.286 25.2418L117.184 25.443H122.861L121.442 20.113H116.678Z" fill="#0094C7"/>
<path fill-rule="evenodd" clip-rule="evenodd" d="M124.787 25.4427H126.612L126.814 25.0405H127.929C129.855 25.0405 130.261 24.236 130.261 24.236C130.261 24.236 131.173 21.923 132.086 20.2134H130.666L124.787 25.4427Z" fill="#0094C7"/>
<path fill-rule="evenodd" clip-rule="evenodd" d="M143.845 25.2416L144.858 25.141H145.973C149.116 25.141 150.332 23.9343 150.332 23.9343L154.184 20.2134H146.075L143.845 25.2416Z" fill="#0094C7"/>
<path fill-rule="evenodd" clip-rule="evenodd" d="M160.471 24.035L159.052 25.3424H167.161L167.263 24.9401H168.682C169.391 24.9401 169.695 24.5379 169.898 24.1356C170.101 23.9345 160.471 24.035 160.471 24.035Z" fill="#0094C7"/>
<path fill-rule="evenodd" clip-rule="evenodd" d="M201.928 23.6328C201.928 23.7334 200.813 24.6384 200.002 25.443H208.01L208.111 25.0407H209.53C210.544 25.0407 210.848 24.1356 210.848 23.8339C210.848 23.7333 211.254 22.1243 211.254 22.2249L211.558 20.113H205.577L201.928 23.6328Z" fill="#0094C7"/>
<path fill-rule="evenodd" clip-rule="evenodd" d="M224.635 25.0407C224.635 25.0407 224.736 25.1413 225.953 25.1413H227.98L227.879 25.443H255.755L267.209 20.113H225.344L224.635 25.0407Z" fill="#0094C7"/>
<path fill-rule="evenodd" clip-rule="evenodd" d="M94.8828 25.0407H98.0252C100.154 25.0407 101.066 22.9288 101.168 22.8283C101.168 22.8283 101.573 21.8226 102.384 20.113H97.0115L94.8828 25.0407Z" fill="#0094C7"/>
<path fill-rule="evenodd" clip-rule="evenodd" d="M132.694 18.4032C132.796 18.2021 133.201 17.3976 133.201 17.3976L132.188 18.4032H132.694Z" fill="#0094C7"/>
<path fill-rule="evenodd" clip-rule="evenodd" d="M79.5784 25.2417H78.0579L78.1592 25.0406L78.8688 24.2361C78.8688 24.2361 81.403 23.9344 81.0989 24.5378C80.9975 24.7389 80.8961 24.94 80.8961 25.0406C80.8961 25.0406 80.8961 25.0406 80.8961 25.1412C80.6934 25.2417 80.0852 25.3423 79.5784 25.2417ZM81.7071 11.7661C82.2139 10.7604 82.518 9.95589 82.6194 9.75476C83.329 8.04516 83.329 7.94461 84.7481 7.94461H88.3973L86.5727 11.6655L86.0659 12.9728L84.3426 16.5932C82.4166 16.5932 79.3756 16.7943 79.477 16.4926C79.5784 16.392 79.5784 16.0903 79.6797 15.8892C79.6797 15.8892 80.2879 14.4813 80.9975 12.9728C81.403 12.6711 81.5043 12.1683 81.7071 11.7661ZM168.883 16.1909L171.924 13.2745L171.417 16.1909H168.883ZM227.575 6.43614L228.588 0.201111H216.12L209.531 6.43614L203.956 11.7661L202.638 13.0734L197.063 18.4033L195.745 19.6101L191.488 23.7333L191.387 23.8338L191.285 23.9344C191.285 23.9344 190.677 24.5378 189.055 24.8395C188.548 24.94 187.94 24.94 187.028 24.94H185.913C184.798 25.0406 183.784 24.8395 183.784 24.8395L184.595 19.5095L184.798 18.3028L185.609 12.9728L185.811 11.6655L186.622 6.33556L187.636 0.100571H175.168L168.579 6.33556L163.004 11.6655L161.686 12.9728L156.111 18.3028L154.793 19.5095L150.536 23.6327C150.536 23.6327 149.826 24.4372 147.9 24.7389C147.495 24.8395 146.886 24.8395 146.075 24.8395H144.96L143.947 24.94L144.048 24.7389L146.481 19.409L147.089 18.2022L149.522 12.8723L150.13 11.5649L152.563 6.23499L155.503 0H141.615L134.215 6.23499L128.133 11.5649L127.627 11.9672L127.525 11.5649L126.41 6.23499L124.991 0H112.016C112.016 0 110.698 2.71523 108.975 6.23499C108.265 7.94459 107.353 9.75478 106.542 11.5649C106.339 11.9672 106.137 12.47 105.934 12.8723C105.022 14.783 104.109 16.5932 103.4 18.2022C103.197 18.6045 102.994 19.0067 102.893 19.409C101.981 21.3197 101.474 22.5265 101.474 22.5265C101.372 22.6271 100.46 24.7389 98.3313 24.7389H95.189L97.6218 19.409L98.23 18.2022L100.663 12.8723L101.271 11.5649L103.704 6.23499L106.643 0H83.9372C76.9428 0 72.1785 2.01128 70.2526 5.83274C70.2526 5.83274 70.2526 5.83275 70.1512 5.93331L69.7457 6.43614C69.543 6.73783 68.6307 9.15137 67.4143 11.7661C67.2115 12.3694 67.1102 12.47 66.9074 13.0734C66.1979 14.8836 65.1842 16.8949 65.1842 16.8949C64.9815 17.2971 64.8801 17.7999 64.8801 18.4033C64.8801 18.8056 64.8801 19.2079 64.9815 19.6101C65.0828 19.9118 65.1842 20.1129 65.2856 20.4146C66.6033 22.9287 68.0225 22.8282 68.0225 22.8282L65.5897 24.6384C65.5897 24.6384 65.5897 24.6384 65.5897 24.7389C65.1842 24.7389 63.2582 24.8395 61.7377 24.94C60.6227 25.0406 59.609 25.0406 59.609 25.0406L57.3789 31.2756H114.347L117.186 25.1412L114.956 24.94L114.449 24.8395L116.679 19.6101L117.287 18.4033L119.517 13.174L120.835 18.4033L121.24 19.6101L122.558 24.94L123.065 26.7502L124.991 24.94L130.769 19.6101L132.999 17.2971C132.999 17.2971 132.188 19.1073 131.985 19.6101C131.276 21.5208 130.059 24.035 130.059 24.035C130.059 24.035 129.755 24.7389 127.931 24.8395C127.829 24.8395 127.728 24.8395 127.728 24.8395H126.613L123.876 31.1751H158.645L159.963 25.5434H158.949L159.456 25.0406L160.47 24.1355C160.47 24.1355 169.998 24.035 169.897 24.2361C169.694 24.6384 169.39 25.0406 168.68 25.0406H167.261L166.248 31.3762H199.699L201.017 25.7446C201.017 25.7446 199.395 25.9457 199.901 25.5434C200.104 25.3423 200.307 25.2417 200.51 25.0406C201.219 24.4372 201.929 23.8338 201.929 23.7333L206.085 19.8112L207.403 18.6045L212.674 13.4757L211.964 18.6045L211.356 22.3253C211.356 22.2248 210.951 23.7333 210.951 23.9344C210.951 24.2361 210.646 25.1412 209.633 25.1412H208.214L207.2 31.4767H227.169L228.082 25.2417H226.054C224.838 25.2417 224.736 25.1412 224.736 25.1412L225.547 19.8112L225.75 18.6045L226.561 13.2745L226.764 11.9672L227.575 6.43614Z" fill="white"/>
<path fill-rule="evenodd" clip-rule="evenodd" d="M172.937 17.7999H164.625L174.457 8.44735L172.937 17.7999ZM185.608 1.91064H175.876L151.65 25.1411C151.65 25.1411 150.433 26.9513 146.074 26.9513L145.162 29.6665H157.428L158.036 27.0518C155.4 26.4484 157.123 24.94 157.123 24.94L159.86 22.4258H172.126L171.72 24.1355C171.72 24.1355 171.315 26.7501 168.679 26.7501L168.173 29.6665H184.594L185 26.8507C181.148 26.9512 181.959 24.7388 181.959 24.7388L185.608 1.91064Z" fill="#DF2D30"/>
<path fill-rule="evenodd" clip-rule="evenodd" d="M222.911 24.6381L226.459 1.80994H216.829L192.5 25.0404C192.5 25.0404 191.284 26.8505 186.925 26.8505L186.621 29.5658H198.278L198.887 26.9511C196.251 26.3477 197.974 24.8393 197.974 24.8393L200.711 22.3251L215.409 8.34664L213.078 22.3251L212.673 24.0347C212.673 24.0347 212.267 26.6494 209.632 26.6494L209.125 29.5658H225.546L225.952 26.75C222.1 26.8506 222.911 24.6381 222.911 24.6381Z" fill="#DF2D30"/>
<path fill-rule="evenodd" clip-rule="evenodd" d="M85.5581 18.4033H79.2733C78.0569 18.4033 77.4487 17.4982 78.361 15.2857L80.6924 10.157C81.8075 7.64285 81.9088 6.33548 84.8485 6.23491H91.2346L85.5581 18.4033ZM92.8565 25.1411L103.601 1.91064C103.601 1.91064 87.484 1.91064 83.6321 1.91064C73.394 1.91064 71.7721 6.33549 71.468 6.93888C70.657 8.84961 68.6297 13.6767 66.9065 17.6993C65.3859 21.2191 71.6707 22.5264 71.6707 22.5264L66.7037 26.2473C66.7037 26.2473 66.501 26.9513 60.9258 26.9513L59.9121 29.6665H74.6104L75.5227 26.9513C73.4953 26.6496 74.6104 25.9456 74.6104 25.9456L77.7528 22.9287L83.7334 22.8281C83.7334 22.8281 82.4157 25.845 82.3143 26.0462C81.5034 27.3535 79.2733 26.9513 79.2733 26.9513L78.0569 29.6665H93.9715L95.0866 26.7501C91.4374 26.6496 92.8565 25.1411 92.8565 25.1411Z" fill="#DF2D30"/>
<path fill-rule="evenodd" clip-rule="evenodd" d="M142.122 24.7387L152.766 1.80994H142.122L126.41 15.3862L123.369 1.80994H112.827L102.792 23.4314C102.792 23.4314 101.474 26.5489 98.0273 26.5489L97.0137 29.4652H113.435L114.652 26.5489C111.611 26.3477 112.523 25.2415 112.523 25.2415L119.923 7.84382L124.079 23.4314L137.155 11.5647L131.681 24.6381C131.681 24.6381 131.073 26.5489 127.728 26.5489L126.512 29.4652H142.021L143.034 26.75C141.109 26.5489 142.122 24.7387 142.122 24.7387Z" fill="#DF2D30"/>
</svg>
