<?xml version="1.0" encoding="UTF-8" standalone="no"?>
<svg version="1.1" width="240" height="24" x="0" y="0" viewBox="0 0 240 24" xmlns="http://www.w3.org/2000/svg" xmlns:xlink="http://www.w3.org/1999/xlink">
  <defs>
    <path id="a" d="M0 .194h47.26V16.87H0z"/>
    <path id="c" d="M0 23.943h270.588V0H0z"/>
  </defs>
  <g fill="none" fill-rule="evenodd">
    <g transform="translate(0 4.743)">
      <mask id="b" fill="#fff"><use xlink:href="#a"/></mask>
      <path d="M38.37 14.711c-3.91.176-7.346-1.31-5.437-5.064C34.838 5.89 44.187 1.572 47.259.2L30.03.196c-.59 0-1.322-.1-1.77 1.238-.333.996-1.879 4.855-5.316 6.062-4.256 1.496-7.806-.95-13.216-5.233C7.712.662 7.382.518 5.431.84 4.43 1 2.26.47 1.624.32.986.15 0 .219 0 .23c0 .073 3.92.64 11.486 6.053 2.879 2.06 8.01 6.071 13.348 8.39 5.769 2.507 14.145 3.846 21.812-1.49.01-.104.017-.21.025-.315 0 .14-4.386 1.745-8.301 1.842" fill="#008CD5" mask="url(#b)"/>
    </g>
    <mask id="d" fill="#fff"><use xlink:href="#c"/></mask>
      <path d="M72.503 19.026h1.442V7.973h-1.442v11.053zm5.833-13.968h6.34c.321 0 .63.102.892.293.338.254.515.63.515 1.083v11.33c0 .912-.59 1.262-1.408 1.262h-1.94l-.566-1.168h2.119c.22 0 .35-.145.35-.388V6.608a.384.384 0 00-.38-.385h-5.922V5.058zm-5.833.005h1.444v.782c0 .189.193.318.384.318h3.019v1.074h-3.435c-1.055 0-1.412-.696-1.412-1.311v-.863zm21.892 11.129c-.285-.926-.437-1.74-.549-2.766h1.204c.109 1.018.309 1.92.58 2.766h-1.235zm8.173-6.734c1.058 0 1.41.8 1.41 1.377v6.671c0 .167.133.299.324.299h1.364l-.523 1.226h-1.124c-.559 0-.946-.157-1.176-.482-.199-.268-.296-.648-.296-1.155v-6.47c0-.094-.07-.261-.291-.261h-1.824c-.197 0-.304.128-.304.277v3.441c0 1.513-.292 3.245-.994 4.65h-1.732c.975-1.317 1.277-3.058 1.277-5.36v-2.836c0-.796.59-1.377 1.31-1.377h2.579zm-8.984 1.995h2.424l-.002-3.898c0-.13-.082-.28-.283-.28h-1.861c-.099 0-.278.07-.278.276v3.902zm.37-5.38c.164-.34.299-.732.398-1.139h1.542a6.84 6.84 0 01-.394 1.14h.67c.683 0 1.241.428 1.241 1.259v10.53c0 .604-.335 1.168-1.24 1.168h-1.312l-.488-1.162h1.292c.196 0 .345-.126.345-.313V12.64h-2.424c-.02 2.429-.221 4.56-.65 6.391H91.41c.67-2.09.787-4.306.817-6.39h-.81v-1.188h.81v-4.07c0-.785.485-1.31 1.188-1.31h.54zm.506 4.594a17.81 17.81 0 01-.536-2.425h1.151c.119.862.364 1.652.602 2.425H94.46zm6.144-3.862c-.201-.523-.433-1.03-.686-1.87h1.545c.159.47.454 1.1.818 1.87h3.113v1.183H97.82V6.805h2.783zm-36.066 6.152v-.401h-6.737v.38c0 .184.114.289.3.289h6.17a.273.273 0 00.267-.268zm-.323 2.763h-5.584a22.9 22.9 0 01-.52.525l2.183.002s.937.467 1.208.587c.909-.348 1.79-.702 2.713-1.114zm-6.414-4.038h6.737v-.67h-6.737v.67zm0-1.93v.399h6.737v-.378c0-.186-.114-.29-.3-.29h-6.169a.274.274 0 00-.268.268zm-2.243-2.77h11.211v.948h-4.562l-.312.66h2.793c.798 0 1.261.663 1.261 1.241v3.018c0 .747-.6 1.27-1.222 1.27h-4.699c-.133.177-.27.34-.532.65h5.714c.447 0 .827.237.931.609.022.074.033.15.032.233 0 .351-.22.677-.599.856-.547.258-1.957.815-2.553 1.062 0 0 2.696 1.189 3.744 1.543l-3.356-.002c-.355-.102-2.003-.889-2.003-.889s-1.695.68-2.23.891c0 0-.016-.01-3.872-.01 1.254-.35 4.598-1.615 4.598-1.615a92.495 92.495 0 01-1.982-1.02c-.18.166-.39.348-.626.544h-2.016c1.322-.898 2.582-2.333 2.976-2.852h-.64c-.674 0-1.24-.584-1.24-1.252V9.865c0-.635.461-1.275 1.276-1.275h2.696c.118-.24.21-.442.302-.66h-5.09v-.947zm-.472-1.633h11.682v1.073H55.353c-.21 0-.335.113-.335.302v7.762c0 1.448-.181 3.163-.504 4.586H52.96c.46-1.966.63-3.482.63-5.503V6.83c0-.962.481-1.482 1.496-1.482zm68.398 7.059v1.183h-5.077v4.183h6.243v1.163h-13.901v-1.163h6.241v-4.183h-5.073v-1.183h11.567zm-6.647-7.472h1.707c.1.306.3.761.516 1.118h3.665c1.318 0 1.823.879 1.823 1.709V9.33h-1.405l-.001-1.618c0-.279-.143-.463-.452-.463h-2.722v2.436c0 .238.17.38.32.38l3.789-.001-.493 1.203h-3.748c-.38 0-.841-.18-1.103-.498-.218-.25-.329-.657-.329-1v-2.52h-1.362c-.455 1.57-1.606 3.206-3.201 4.426h-2.738s3.343-1.632 4.282-4.426h-2.671c-.318 0-.46.153-.46.463V9.33h-1.407V7.763c0-.807.447-1.709 1.785-1.709h4.672a6.96 6.96 0 01-.467-1.118zM69.358 19.082h.522V4.938h-.522zm19.232 0h.524V4.938h-.524zm19.234 0h.522V4.938h-.522zm123.56-7.632h3.364c1.486 0 2.537-1.027 2.54-2.32-.003-1.29-1.054-2.335-2.54-2.335h-3.364v4.654zm3.163 1.16h-3.163v6.47h-1.543V5.635h5.08c2.227 0 3.773 1.56 3.778 3.494-.003 1.602-1.061 2.936-2.687 3.349l3.977 6.602h-1.54l-3.902-6.47zm-21.64 1.622h5.475l-2.738-6.783-2.738 6.783zm5.942 1.16h-6.412l-1.488 3.688h-1.54l5.421-13.444h1.545l5.505 13.444h-1.543l-1.488-3.688zm5.657 3.688h1.542V5.636h-1.542V19.08zM175.573 5.636h2.977l1.286 13.444h-2.742l-.895-9.342-4.52 9.342h-.167l-4.594-9.344-.895 9.344h-2.74l1.29-13.444h2.973l4.013 8.342 4.014-8.342zm9.866 11.639h6.23v1.805h-8.972V5.636h8.52v1.803h-5.778v3.852h4.927v1.801h-4.927v4.183zm-32.7-2.726h4.374l-2.188-5.558-2.187 5.558zm5.083 1.802h-5.795l-1.074 2.73h-2.739l5.29-13.445h2.742l5.393 13.444h-2.744l-1.073-2.73zm-30.052 2.73l5.106-7.273-4.334-6.172h3.074l2.795 3.984 2.796-3.984h3.077l-4.336 6.172 5.108 7.272h-3.074l-3.57-5.083-3.57 5.083h-3.072zm79.278 0h-1.726l-8.141-9.373v9.372h-2.744V5.636h2.576l7.291 8.436V5.636h2.744V19.08zm-63.767-.001h2.742V5.636h-2.742V19.08z" fill="#004384" mask="url(#d)"/>
    </g>
  </svg>
